<svg xmlns="http://www.w3.org/2000/svg" viewBox="0 0 712 1000">
  <path d="M117.57076263427734 744.2180786132812 112.25930786132812 754.0875854492188 111.43006896972656 756.3623657226562C115.92788696289062 777.4947509765625 99.30563354492188 802.1881103515625 74.87041473388672 799.8451538085938C67.51972961425781 799.753173828125 60.11219787597656 797.2159423828125 53.73674011230469 791.5103759765625C53.14040756225586 791.0396728515625 52.55781936645508 790.5442504882812 51.99043273925781 790.0241088867188C46.713809967041016 785.404296875 43.48623275756836 779.7404174804688 41.99811935424805 773.7444458007812C40.77790069580078 770.2067260742188 40.19123458862305 766.7230834960938 40.14731216430664 763.3538818359375C39.934898376464844 760.9207153320312 39.956050872802734 758.5883178710938 40.18586349487305 756.362548828125C40.24409484863281 752.8448486328125 40.700645446777344 749.598876953125 41.494384765625 746.6240844726562C41.792301177978516 744.3745727539062 42.309627532958984 742.054931640625 43.068145751953125 739.673095703125C43.55548858642578 737.9356689453125 44.13740921020508 736.29541015625 44.804420471191406 734.75048828125L46.276092529296875 730.7133178710938C46.65945816040039 729.4908447265625 47.114341735839844 728.2569580078125 47.6442756652832 727.0134887695312C48.668582916259766 724.4375 49.86912155151367 722.10693359375 51.21706771850586 720.0113525390625L54.07713317871094 714.7172241210938C54.8144645690918 713.0302124023438 55.696041107177734 711.3311157226562 56.73122024536133 709.6257934570312L66.94107055664062 692.8424682617188C67.41670989990234 692.0685424804688 67.9057388305664 691.323486328125 68.40727996826172 690.6067504882812L76.570068359375 677.1220092773438C77.02298736572266 676.3026733398438 77.51151275634766 675.48193359375 78.03671264648438 674.6605224609375L90.62420654296875 654.9867553710938C91.09829711914062 654.244384765625 91.58438110351562 653.5294799804688 92.08167266845703 652.8414916992188L105.31499481201172 632.4465942382812C105.5670166015625 632.00390625 105.829345703125 631.5607299804688 106.10215759277344 631.1171264648438L122.46589660644531 604.5435791015625C122.70819854736328 604.1495971679688 122.95396423339844 603.7631225585938 123.20305633544922 603.3840942382812L137.24453735351562 577.92333984375C137.35279846191406 577.7276000976562 137.46194458007812 577.5335693359375 137.5719757080078 577.34130859375L147.55873107910156 558.7832641601562C147.9665069580078 557.8946533203125 148.41305541992188 557.001708984375 148.89962768554688 556.1050415039062L162.44873046875 530.968505859375L175.50669860839844 505.0307922363281L190.39173889160156 473.21405029296875C190.56436157226562 472.846923828125 190.7402801513672 472.4852294921875 190.91937255859375 472.1289367675781L206.39524841308594 438.3227844238281L206.4291229248047 438.2488098144531L208.25283813476562 434.174560546875C208.3718719482422 433.9014892578125 208.4943389892578 433.62786865234375 208.6202850341797 433.3536682128906L208.71034240722656 433.15692138671875L224.43121337890625 398.81353759765625C224.91632080078125 397.5937194824219 225.4724578857422 396.3636474609375 226.1029052734375 395.125L244.65780639648438 358.6678771972656C245.213134765625 357.5887451171875 245.79611206054688 356.5591125488281 246.40457153320312 355.57781982421875L262.69989013671875 325.00799560546875C262.7428894042969 324.9277038574219 262.7860412597656 324.84771728515625 262.829345703125 324.76800537109375L273.4405212402344 304.182373046875C273.8356018066406 303.3573913574219 274.2643737792969 302.5290222167969 274.7279357910156 301.6978454589844L288.57220458984375 277.2231140136719C289.2051086425781 275.846435546875 289.9344482421875 274.4620361328125 290.76531982421875 273.07293701171875L306.2272033691406 247.5499725341797C306.5130615234375 247.01425170898438 306.8135986328125 246.47750854492188 307.1290588378906 245.93991088867188L320.8592834472656 222.71400451660156C321.2424621582031 221.97286987304688 321.6538391113281 221.2297821044922 322.09417724609375 220.48519897460938L331.1851501464844 205.14710998535156C331.3464050292969 204.87530517578125 331.50933837890625 204.60696411132812 331.6738586425781 204.34207153320312L340.4852600097656 188.48150634765625L346.041015625 177.146240234375L347.14306640625 174.0301513671875C347.29547119140625 172.2139434814453 347.5827941894531 170.34335327148438 348.0160827636719 168.42141723632812C349.1496887207031 161.5082244873047 352.1828308105469 154.94601440429688 357.17071533203125 149.86474609375C357.7064514160156 149.20816040039062 358.2580871582031 148.58084106445312 358.8243713378906 147.98233032226562C359.734619140625 146.13189697265625 360.8119201660156 144.40744018554688 362.030517578125 142.81344604492188C367.3498840332031 135.5047149658203 375.3824157714844 131.1649627685547 383.9620056152344 129.73785400390625C388.9027404785156 119.6843490600586 398.6883544921875 112.01995086669922 413.3187561035156 111.4301528930664C414.7238464355469 111.23979949951172 416.1723327636719 111.13560485839844 417.66241455078125 111.12432861328125C422.6719970703125 110.67495727539062 427.95465087890625 111.4242172241211 433.2730712890625 113.69076538085938C436.36700439453125 114.7575912475586 439.3731689453125 116.34024047851562 442.2015075683594 118.49571228027344C445.55853271484375 120.841796875 448.26007080078125 123.64888763427734 450.3471984863281 126.7574234008789C453.3894958496094 130.5996856689453 455.3624267578125 134.7280731201172 456.4158630371094 138.9398193359375C457.3293151855469 141.71099853515625 457.8584289550781 144.44102478027344 458.04656982421875 147.1027069091797C458.0713806152344 147.30186462402344 458.09454345703125 147.50042724609375 458.115966796875 147.6982421875C458.20184326171875 148.4496612548828 458.2696838378906 149.21533203125 458.3188171386719 149.99525451660156L458.45867919921875 152.3728790283203C458.56488037109375 154.17295837402344 458.5630187988281 155.9099884033203 458.4610900878906 157.58346557617188C458.4709777832031 158.15823364257812 458.4700927734375 158.72607421875 458.45867919921875 159.28700256347656V162.02330017089844C458.45880126953125 162.0543975830078 458.4588928222656 162.08547973632812 458.4589538574219 162.1165313720703C458.4590148925781 162.1476287841797 458.45904541015625 162.17872619628906 458.45867919921875 162.20977783203125V164.07154846191406L458.6451721191406 164.72727966308594C458.8747863769531 165.5210418701172 459.0792541503906 166.30686950683594 459.25927734375 167.08453369140625L459.4831848144531 167.8480682373047C460.0005187988281 169.28160095214844 460.4535217285156 170.78944396972656 460.8363342285156 172.37301635742188L462.6545104980469 179.50592041015625C462.7716064453125 179.990234375 462.8796691894531 180.47125244140625 462.9789123535156 180.9489288330078L463.0041198730469 181.03475952148438C463.0751953125 181.23854064941406 463.1451416015625 181.4437713623047 463.2139587402344 181.65045166015625L464.1299743652344 184.66448974609375L465.5915832519531 188.03744506835938C465.6298522949219 188.12881469726562 465.667724609375 188.22012329101562 465.7052307128906 188.3113555908203L466.850341796875 190.6015625C466.9980773925781 190.90310668945312 467.1414794921875 191.2041015625 467.2805480957031 191.50448608398438L468.2130126953125 193.2338409423828C468.3937683105469 193.55906677246094 468.5718078613281 193.88917541503906 468.7470397949219 194.2241668701172L468.8550109863281 194.42442321777344C469.2528076171875 195.18319702148438 469.6224365234375 195.93898010253906 469.9646911621094 196.6913299560547L470.4984436035156 197.79324340820312C471.42376708984375 199.3463897705078 472.2777099609375 201.01931762695312 473.05084228515625 202.8160858154297L474.979248046875 207.6937713623047L476.19219970703125 209.94216918945312C477.236083984375 211.60171508789062 478.19775390625 213.4048309326172 479.06488037109375 215.35696411132812L481.4722595214844 220.9970703125L483.4471740722656 224.12158203125C483.8582458496094 224.80406188964844 484.2447509765625 225.4854736328125 484.60723876953125 226.1654510498047L487.2700500488281 230.6484375C487.9268493652344 231.76254272460938 488.51885986328125 232.87307739257812 489.04864501953125 233.97853088378906C489.4986877441406 234.78086853027344 489.9318542480469 235.61317443847656 490.34698486328125 236.47598266601562L490.6361999511719 237.10105895996094C491.1716613769531 238.0615234375 491.6819763183594 239.06500244140625 492.1651916503906 240.11236572265625L494.54290771484375 245.42726135253906L495.6533203125 247.64810180664062C496.14013671875 248.54159545898438 496.60394287109375 249.47206115722656 497.0430908203125 250.44015502929688C497.6222229003906 251.65023803710938 498.1307067871094 252.8514862060547 498.5716857910156 254.0423126220703L499.1175842285156 255.34693908691406C499.7773742675781 256.7167053222656 500.3760681152344 258.16705322265625 500.9074401855469 259.6997985839844C501.6654968261719 261.71148681640625 502.24481201171875 263.6856994628906 502.65875244140625 265.61688232421875L502.8048095703125 266.1332092285156L505.0899658203125 272.03045654296875C505.413330078125 272.7905578613281 505.72076416015625 273.57305908203125 506.01141357421875 274.3783264160156L507.36480712890625 278.31256103515625C507.94390869140625 279.7644958496094 508.4583435058594 281.29638671875 508.9018859863281 282.9098205566406L508.94281005859375 283.0630798339844C509.089599609375 283.5743103027344 509.2252197265625 284.0825500488281 509.3499450683594 284.5876770019531L510.6047058105469 289.28631591796875L512.7994995117188 295.14947509765625C513.1697387695312 296.0279541015625 513.5181884765625 296.9363098144531 513.8436279296875 297.8749694824219L516.734130859375 306.406494140625C517.0681762695312 307.37890625 517.36279296875 308.3409423828125 517.6192626953125 309.2921142578125L517.846923828125 309.9893798828125C518.1398315429688 310.8145751953125 518.4130859375 311.6639404296875 518.6655883789062 312.53753662109375C518.7235107421875 312.7306823730469 518.7798461914062 312.92340087890625 518.834716796875 313.11566162109375L519.9054565429688 316.7103271484375L520.8338012695312 319.1648254394531C521.1956176757812 319.9824523925781 521.5387573242188 320.82672119140625 521.8623657226562 321.6979675292969L523.3075561523438 325.893798828125C523.5874633789062 326.6482238769531 523.843017578125 327.3968505859375 524.0748901367188 328.139404296875L524.190185546875 328.4742431640625C524.3836669921875 328.94219970703125 524.5712280273438 329.41845703125 524.7528076171875 329.90313720703125L526.3355712890625 334.24725341796875C526.6829223632812 335.08740234375 527.0104370117188 335.9547119140625 527.31689453125 336.8495788574219L529.6370849609375 343.4561767578125L533.890380859375 353.959228515625C534.2223510742188 354.7639465332031 534.5256958007812 355.56298828125 534.8012084960938 356.35595703125L537.9634399414062 364.5306091308594L540.8960571289062 370.9543762207031C541.8717651367188 372.66778564453125 542.757568359375 374.5224914550781 543.540771484375 376.5234680175781L546.6002807617188 384.565673828125L551.5595092773438 396.197265625C552.1896362304688 397.6958923339844 552.7189331054688 399.175537109375 553.1527709960938 400.63385009765625L555.1580200195312 405.958984375C555.6533203125 407.1195373535156 556.1073608398438 408.3334045410156 556.5169067382812 409.6015930175781C556.9510498046875 410.8419189453125 557.3182373046875 412.0664367675781 557.6216430664062 413.2739562988281L558.9713745117188 417.8139343261719C559.3790283203125 418.8800048828125 559.7530517578125 419.9881591796875 560.0910034179688 421.1391296386719L562.6551513671875 429.9037780761719C562.7630615234375 430.2712097167969 562.865478515625 430.6369323730469 562.9625244140625 431.0009460449219L565.0327758789062 437.1765441894531C565.4266357421875 438.4112243652344 565.7581176757812 439.6280212402344 566.030029296875 440.8260498046875L567.2788696289062 445.27655029296875C567.7445678710938 446.687744140625 568.1476440429688 448.1676330566406 568.482666015625 449.7174072265625L568.5259399414062 449.9305419921875C568.6710205078125 450.5702819824219 568.7997436523438 451.20440673828125 568.912353515625 451.8327941894531L570.2297973632812 458.3185119628906L571.0999755859375 461.4753723144531C571.4758911132812 462.56488037109375 571.81640625 463.69586181640625 572.1190795898438 464.8690185546875L574.7621459960938 475.17254638671875L576.6983642578125 480.2606506347656C577.2999267578125 481.6566162109375 577.8422241210938 483.1300354003906 578.319580078125 484.6826477050781L581.302001953125 494.9195861816406C581.4639282226562 495.38470458984375 581.6197509765625 495.857421875 581.7694702148438 496.3377380371094L585.4058837890625 507.85296630859375C585.6315307617188 508.58013916015625 585.8358154296875 509.30096435546875 586.0191650390625 510.0152587890625L588.013427734375 515.895751953125C588.1254272460938 516.1799926757812 588.2352905273438 516.4672241210938 588.3429565429688 516.7574462890625L591.0620727539062 524.1767578125C591.11962890625 524.3136596679688 591.1767578125 524.4512939453125 591.2333984375 524.5896606445312L594.0668334960938 531.6349487304688C594.4138793945312 532.4165649414062 594.7440185546875 533.22265625 595.0562744140625 534.0535888671875L597.806884765625 541.139892578125C597.9692993164062 541.5720825195312 598.1237182617188 542.0025024414062 598.2701416015625 542.4309692382812L601.2063598632812 549.7402954101562L604.1608276367188 555.1525268554688C604.6043701171875 555.8640747070312 605.0352783203125 556.6010131835938 605.45263671875 557.36376953125L609.5911865234375 565.190185546875C609.8715209960938 565.691650390625 610.1450805664062 566.204833984375 610.41162109375 566.7298583984375C610.9686279296875 567.7710571289062 611.4710083007812 568.807373046875 611.9208984375 569.837646484375L612.215576171875 570.44482421875C613.1895751953125 572.1287231445312 614.0604858398438 573.9520874023438 614.8131713867188 575.9189453125C616.0736083984375 578.8933715820312 616.924560546875 581.800048828125 617.4111328125 584.6180419921875L618.525390625 588.6783447265625L621.3035278320312 596.1519165039062C621.4940795898438 596.6730346679688 621.673095703125 597.19140625 621.8406982421875 597.7069091796875L624.0066528320312 603.855224609375C624.06982421875 604.021484375 624.1322631835938 604.1887817382812 624.1939697265625 604.3570556640625L626.7581176757812 611.443359375C626.8627319335938 611.7297973632812 626.9638671875 612.0154418945312 627.0615234375 612.3001708984375L628.070556640625 614.8997192382812C628.7172241210938 616.2783203125 629.3072509765625 617.7362670898438 629.8350219726562 619.2755737304688L632.0572509765625 626.05517578125L635.2896118164062 633.3082885742188C635.6181640625 634.053466796875 635.92138671875 634.7943115234375 636.199951171875 635.5303955078125L638.2266845703125 640.3945922851562C639.1572875976562 642.6683959960938 639.8590698242188 644.8961181640625 640.350830078125 647.070068359375L641.1703491210938 649.66748046875L644.6137084960938 658.4366455078125C644.9252319335938 659.2174682617188 645.2100219726562 659.99267578125 645.4688720703125 660.7618408203125L647.1780395507812 665.2635498046875C647.5223388671875 666.0842895507812 647.8444213867188 666.9315185546875 648.1431274414062 667.8054809570312L648.2500610351562 668.0870971679688C649.219970703125 670.771484375 649.8842163085938 673.3802490234375 650.27294921875 675.9026489257812L651.6533203125 681.7000732421875L653.2805786132812 686.2119750976562C653.3609008789062 686.4158935546875 653.4400634765625 686.6213989257812 653.5181884765625 686.8284301757812L655.14990234375 691.2107543945312C655.2623901367188 691.50927734375 655.37109375 691.8069458007812 655.4759521484375 692.1036987304688C656.0904541015625 693.4412231445312 656.6516723632812 694.8524169921875 657.154541015625 696.3389892578125L658.7862548828125 701.4205932617188C659.2203369140625 702.7146606445312 659.5846557617188 703.9900512695312 659.8825073242188 705.2456665039062L660.006591796875 705.6539916992188L660.3713989257812 706.6465454101562C661.7055053710938 708.3521118164062 662.9541625976562 710.2435302734375 664.1010131835938 712.3297729492188L664.8885498046875 713.9302978515625C665.496826171875 714.9900512695312 666.0743408203125 716.1033935546875 666.6184692382812 717.2715454101562L667.9238891601562 719.9755249023438C668.47705078125 721.1672973632812 668.9641723632812 722.348876953125 669.3880615234375 723.5189819335938C669.624755859375 724.1046752929688 669.8462524414062 724.687255859375 670.0528564453125 725.2664184570312C670.3950805664062 726.2059936523438 670.7115478515625 727.17724609375 671.0007934570312 728.1806640625L671.1873168945312 728.9266357421875C684.000244140625 773.378662109375 617.9662475585938 792.9099731445312 604.3200073242188 749.4525146484375L603.9237060546875 748.479736328125L603.3749389648438 747.3821411132812L602.3290405273438 745.8497924804688C602.1823120117188 745.6304931640625 602.0382690429688 745.4111328125 601.8969116210938 745.1918334960938C600.0439453125 742.8006591796875 598.4050903320312 740.0411376953125 597.0380249023438 736.8916015625C596.0682983398438 734.8960571289062 595.3074951171875 732.9116821289062 594.73974609375 730.9486694335938L594.1704711914062 729.439453125C593.4013061523438 727.368408203125 592.8154907226562 725.3406982421875 592.399169921875 723.361572265625L592.2999267578125 723.03515625L590.89013671875 718.8057250976562L589.6016845703125 715.6398315429688C589.2340698242188 714.6488647460938 588.908447265625 713.66796875 588.623291015625 712.6976318359375L588.156494140625 711.4439697265625C587.9384155273438 710.8652954101562 587.7348022460938 710.2899780273438 587.5452880859375 709.7181396484375L585.738525390625 704.75634765625C585.401611328125 703.9208984375 585.0875244140625 703.05859375 584.7976684570312 702.169189453125C583.9434814453125 699.7531127929688 583.33642578125 697.399169921875 582.9544067382812 695.1151123046875L581.8775024414062 690.68994140625L579.7883911132812 684.8279418945312C579.7175903320312 684.65673828125 579.6475830078125 684.484375 579.5783081054688 684.3109741210938L577.3504638671875 678.5306396484375C576.537109375 676.8218994140625 575.8151245117188 674.9891357421875 575.1959838867188 673.02880859375L572.73974609375 665.0671997070312L570.8602905273438 660.6278076171875C570.8436889648438 660.5872192382812 570.8271484375 660.546630859375 570.8106689453125 660.5060424804688L567.55029296875 652.9821166992188C566.7487182617188 651.1516723632812 566.098388671875 649.3482055664062 565.5892333984375 647.5760498046875L563.5409545898438 641.886474609375C563.44189453125 641.5936889648438 563.346435546875 641.3018798828125 563.2545166015625 641.010986328125L561.7485961914062 637.353759765625L561.5994262695312 636.991455078125L561.3497924804688 636.38525390625C561.0457763671875 635.6156616210938 560.767578125 634.8515625 560.5145874023438 634.09326171875L558.4592895507812 628.4131469726562C558.2938232421875 627.9619140625 558.1370239257812 627.5127563476562 557.9888305664062 627.0657958984375L555.3823852539062 619.8350219726562C555.1690063476562 619.22216796875 554.971435546875 618.6134033203125 554.7892456054688 618.0088500976562L553.3229370117188 614.204345703125C552.945556640625 613.3218994140625 552.5928955078125 612.4085083007812 552.2666015625 611.4636840820312L552.2587890625 611.443359375C551.5109252929688 609.3976440429688 550.9406127929688 607.3949584960938 550.5344848632812 605.4402465820312L549.2567138671875 600.6974487304688L548.3757934570312 598.8377075195312L543.8671264648438 590.8837890625C543.4708251953125 590.1519775390625 543.1011352539062 589.4224853515625 542.7574462890625 588.69580078125L540.6277465820312 584.7945556640625C538.0768432617188 584.8388061523438 535.3941040039062 584.6257934570312 532.5850219726562 584.1238403320312L531.5127563476562 583.9373779296875C531.2460327148438 583.8900146484375 530.9813232421875 583.840576171875 530.718505859375 583.7891235351562C530.0123291015625 583.6865234375 529.2980346679688 583.565185546875 528.57568359375 583.424560546875L526.7130126953125 583.0610961914062C526.0054931640625 582.9526977539062 525.2898559570312 582.8253784179688 524.5663452148438 582.6785888671875L521.4893798828125 581.9326782226562L519.55517578125 581.5607299804688C518.9927368164062 581.4638061523438 518.42529296875 581.3547973632812 517.8529663085938 581.2333984375L517.3325805664062 581.1221313476562L512.9986572265625 580.195556640625C512.3087158203125 580.078125 511.6112976074219 579.9425048828125 510.90655517578125 579.7881469726562L503.4472961425781 578.1098022460938C502.6941223144531 577.9446411132812 501.9574890136719 577.7634887695312 501.2372741699219 577.5670166015625L497.20074462890625 576.7760009765625L493.94720458984375 576.3724365234375L493.86285400390625 576.3757934570312C493.0633544921875 576.4312744140625 492.24884033203125 576.4656372070312 491.41925048828125 576.4780883789062H491.2793884277344C491.03118896484375 576.4801025390625 490.78424072265625 576.4800415039062 490.53863525390625 576.4780883789062H486.5241394042969L476.9734191894531 576.6494140625C476.81640625 576.6552734375 476.65887451171875 576.6603393554688 476.5007629394531 576.6646118164062L465.778076171875 577.0375366210938C464.7337951660156 577.0657348632812 463.7118835449219 577.0582275390625 462.71240234375 577.0165405273438L456.7868957519531 577.3056030273438C456.3237609863281 577.3474731445312 455.8553771972656 577.3824462890625 455.3817443847656 577.4105224609375L448.9261474609375 577.7179565429688C448.6555480957031 577.7421264648438 448.3831787109375 577.7639770507812 448.1089782714844 577.7835083007812L438.6450500488281 578.4827880859375C438.23565673828125 578.5130615234375 437.8294677734375 578.5377197265625 437.426513671875 578.5568237304688L428.0622253417969 579.2286987304688C426.73486328125 579.3162841796875 425.44146728515625 579.3448486328125 424.1822814941406 579.317626953125L420.523681640625 579.4512939453125C418.0827941894531 579.7338256835938 415.4977722167969 579.7933349609375 412.770751953125 579.6016845703125L407.9957580566406 579.2247314453125C407.0772399902344 579.18505859375 406.1433410644531 579.1116943359375 405.19439697265625 579.0032348632812C402.2165832519531 578.7500610351562 399.453857421875 578.2220458984375 396.9034729003906 577.4567260742188L392.211181640625 576.4780883789062C392.1440124511719 576.4635620117188 392.07696533203125 576.448974609375 392.0100402832031 576.4342041015625L391.2222595214844 576.2916259765625H386.8497009277344C386.7516174316406 576.3482666015625 386.653076171875 576.4046020507812 386.5541076660156 576.46044921875C381.02960205078125 580.2699584960938 374.2405700683594 582.4328002929688 366.50262451171875 582.009521484375C366.2211608886719 582.005126953125 365.9407653808594 581.9970703125 365.6615295410156 581.9852905273438C359.2596435546875 582.0146484375 352.7689208984375 580.1685180664062 346.8918151855469 575.9387817382812C346.85675048828125 575.9138793945312 346.82171630859375 575.888916015625 346.7868347167969 575.8638916015625C345.0965881347656 574.8014526367188 343.48944091796875 573.5665893554688 341.9900207519531 572.153564453125C340.1250305175781 570.530517578125 338.4317321777344 568.6756591796875 336.95916748046875 566.5888671875L335.19451904296875 569.9512329101562C335.0458984375 570.2199096679688 334.8955993652344 570.4853515625 334.74365234375 570.7476196289062L329.73992919921875 579.9280395507812C329.7130432128906 579.97802734375 329.68609619140625 580.0278930664062 329.6590881347656 580.07763671875L325.842529296875 587.8795776367188C325.5158386230469 588.5912475585938 325.1643371582031 589.3056640625 324.787353515625 590.0223999023438C324.3786315917969 590.8237915039062 323.9539489746094 591.5975952148438 323.5142517089844 592.3442993164062L319.7071838378906 599.2275390625C319.5889587402344 599.4761962890625 319.4677734375 599.7252807617188 319.3435974121094 599.9747314453125L315.8936767578125 607.06103515625C315.302490234375 608.2500610351562 314.67724609375 609.3800659179688 314.0209045410156 610.4524536132812L312.155029296875 613.946044921875C311.5570068359375 615.1958618164062 310.8782958984375 616.45068359375 310.11505126953125 617.7081298828125C309.70123291015625 618.421875 309.2747802734375 619.1114501953125 308.8363952636719 619.7772827148438L304.4250793457031 626.9213256835938C304.1580810546875 627.342529296875 303.8871765136719 627.7550048828125 303.6124572753906 628.1587524414062L301.03564453125 632.6489868164062C300.8760070800781 632.934814453125 300.7119140625 633.2208251953125 300.5433654785156 633.5068359375L300.229248046875 634.05419921875C299.41180419921875 635.4539184570312 298.54962158203125 636.7621459960938 297.6477966308594 637.9818725585938L296.2152099609375 640.1384887695312C296.0947570800781 640.3480834960938 295.97198486328125 640.5577392578125 295.846923828125 640.767578125L290.5788269042969 649.5321655273438C290.1907958984375 650.1781005859375 289.79345703125 650.8042602539062 289.3872985839844 651.4110107421875L287.2473449707031 655.1203002929688L282.7466125488281 664.8236694335938C282.25201416015625 665.8611450195312 281.731201171875 666.8547973632812 281.1860046386719 667.805419921875L278.32464599609375 673.6259155273438C277.90521240234375 674.6324462890625 277.43731689453125 675.6458740234375 276.9190673828125 676.6652221679688L276.17315673828125 678.1104736328125L270.7626953125 688.7635498046875L266.181640625 699.335205078125C266.1710510253906 699.3621215820312 266.1604309082031 699.3890380859375 266.1497802734375 699.4159545898438L262.6787414550781 708.3084106445312C261.9761962890625 710.589599609375 261.0273132324219 712.9129638671875 259.8094177246094 715.266845703125L259.53326416015625 715.7838745117188C259.2921142578125 716.2570190429688 259.0445861816406 716.7203979492188 258.79083251953125 717.1740112304688L256.9652404785156 720.5921020507812C256.5588073730469 721.5463256835938 256.1087646484375 722.506591796875 255.61358642578125 723.4720458984375L252.1134490966797 730.1251831054688C251.01556396484375 732.8699951171875 249.52369689941406 735.6351318359375 247.5948944091797 738.3905639648438L242.73870849609375 745.1608276367188C242.48648071289062 745.5767822265625 242.2248992919922 745.9929809570312 241.95382690429688 746.4092407226562L238.0577392578125 752.2152099609375C237.6834259033203 752.8284301757812 237.2884063720703 753.4418334960938 236.87220764160156 754.0549926757812L233.65234375 758.670166015625C233.3983154296875 759.0742797851562 233.13519287109375 759.4783935546875 232.86285400390625 759.8825073242188L231.14024353027344 762.4527587890625C230.19212341308594 764.6425170898438 228.98829650878906 766.8395385742188 227.50680541992188 769.0276489257812C226.12196350097656 771.2446899414062 224.59898376464844 773.2095947265625 222.9651641845703 774.9352416992188C221.67816162109375 776.3905639648438 220.3414764404297 777.6971435546875 218.96481323242188 778.8621826171875L218.08421325683594 779.7427978515625L217.72171020507812 780.1052856445312C216.99281311035156 780.9573974609375 216.2128448486328 781.8005981445312 215.38023376464844 782.6332397460938C214.97900390625 783.0344848632812 214.57530212402344 783.4235229492188 214.16934204101562 783.8004760742188C213.7925262451172 784.206298828125 213.40367126464844 784.6098022460938 213.00259399414062 785.0108642578125C212.44775390625 785.5657348632812 211.88819885253906 786.09716796875 211.32443237304688 786.605712890625C210.9771270751953 786.9774169921875 210.61968994140625 787.34716796875 210.2519989013672 787.71484375C209.2577362060547 788.7048950195312 208.2489013671875 789.6207275390625 207.2282257080078 790.46484375C174.32994079589844 819.3095703125 127.74015808105469 771.2051391601562 159.99526977539062 738.9500122070312H159.99945068359375C160.1212158203125 738.825439453125 160.244140625 738.7011108398438 160.3682403564453 738.5770263671875L160.4215545654297 738.523681640625C160.8104248046875 738.1038818359375 161.21217346191406 737.6864624023438 161.62698364257812 737.2716674804688C161.93304443359375 736.9656372070312 162.2405242919922 736.6666259765625 162.5493621826172 736.3746948242188C162.84092712402344 736.0662231445312 163.13949584960938 735.7591552734375 163.44517517089844 735.4534912109375C163.75076293945312 735.1478881835938 164.0577850341797 734.8494262695312 164.36614990234375 734.5579223632812C164.65817260742188 734.2489624023438 164.95721435546875 733.94140625 165.26336669921875 733.63525390625C165.68096923828125 733.2176513671875 166.1011962890625 732.8132934570312 166.5238494873047 732.4219970703125C166.6881561279297 732.2590942382812 166.85287475585938 732.0982666015625 167.01795959472656 731.9393920898438C167.22227478027344 731.7269897460938 167.42994689941406 731.5153198242188 167.64100646972656 731.3042602539062L168.5723876953125 730.3728637695312L168.5734100341797 730.371826171875L168.57418823242188 730.3710327148438L169.2296905517578 729.715576171875C169.45758056640625 729.3190307617188 169.689697265625 728.929931640625 169.9259033203125 728.5482788085938C170.4704132080078 727.552978515625 171.06809997558594 726.5563354492188 171.72091674804688 725.5595703125C171.9479217529297 725.2002563476562 172.17816162109375 724.8475341796875 172.41156005859375 724.5012817382812L174.727294921875 720.9078979492188C175.140869140625 720.2952880859375 175.56253051757812 719.7022705078125 175.9917755126953 719.12841796875L178.85000610351562 714.904541015625L183.30543518066406 707.9940795898438C184.0718994140625 706.8311767578125 184.8675537109375 705.7369384765625 185.6892852783203 704.70947265625L189.26123046875 699.579833984375L192.04238891601562 694.1126098632812C192.43170166015625 693.2123413085938 192.86007690429688 692.3070068359375 193.3288116455078 691.397216796875L196.9361572265625 684.4895629882812L201.16102600097656 673.7281494140625C201.6214141845703 672.5614624023438 202.11651611328125 671.44482421875 202.64378356933594 670.3771362304688L205.5827178955078 663.3549194335938C206.19911193847656 661.6124267578125 206.95970153808594 659.8469848632812 207.87435913085938 658.063720703125L208.05172729492188 657.719970703125C208.20352172851562 657.4170532226562 208.35780334472656 657.1180419921875 208.51455688476562 656.822998046875L212.26739501953125 649.550048828125C212.693359375 648.5099487304688 213.1708526611328 647.4624633789062 213.701904296875 646.4086303710938L214.4478302001953 644.96337890625C214.8501434326172 644.1720581054688 215.26747131347656 643.4072875976562 215.69894409179688 642.668701171875L219.52944946289062 634.5670776367188C219.89369201660156 633.8169555664062 220.2714385986328 633.0899047851562 220.66195678710938 632.3855590820312L223.42916870117188 626.599609375C224.01548767089844 625.1900634765625 224.70169067382812 623.7706909179688 225.49319458007812 622.3446655273438C225.96383666992188 621.442626953125 226.455322265625 620.5764770507812 226.9662628173828 619.7454223632812L230.29873657226562 613.8209838867188C230.79388427734375 612.9837036132812 231.30502319335938 612.1793823242188 231.83106994628906 611.4073486328125L235.28358459472656 605.69384765625C235.62564086914062 605.1012573242188 235.98663330078125 604.5081787109375 236.36688232421875 603.9151611328125C236.61651611328125 603.519287109375 236.86981201171875 603.1312255859375 237.12664794921875 602.7509155273438L240.83494567871094 597.0842895507812C240.9528045654297 596.9054565429688 241.0713653564453 596.728271484375 241.1905975341797 596.5526733398438L243.60353088378906 592.3479614257812C244.09530639648438 591.4287719726562 244.6314239501953 590.50732421875 245.21336364746094 589.5845947265625C245.21466064453125 589.58251953125 245.21595764160156 589.5805053710938 245.21725463867188 589.5784301757812L245.28736877441406 589.4649047851562L249.8302459716797 582.1077880859375L253.60891723632812 575.0328979492188C253.81153869628906 574.6546630859375 254.01748657226562 574.2826538085938 254.2266845703125 573.9168701171875L256.68585205078125 568.8323974609375C257.2871398925781 567.6271362304688 257.9233703613281 566.4827270507812 258.5915832519531 565.3977661132812L263.0728454589844 556.9907836914062C263.08453369140625 556.9696655273438 263.0962219238281 556.9485473632812 263.10791015625 556.927490234375L266.218994140625 550.7326049804688C266.7734069824219 549.3790893554688 267.4170227050781 548.014404296875 268.1544494628906 546.64111328125L272.1087951660156 539.4840698242188C272.6072082519531 538.3488159179688 273.1685791015625 537.2064208984375 273.7955322265625 536.0582885742188L277.478515625 529.6712646484375L280.9284362792969 523.3309326171875C280.95794677734375 523.277587890625 280.9875183105469 523.2243041992188 281.0171813964844 523.1712036132812L283.6468200683594 518.2788696289062C283.76324462890625 518.0208129882812 283.88275146484375 517.7623291015625 284.00537109375 517.5033569335938L286.90374755859375 511.5718078613281C287.134765625 511.00299072265625 287.3806457519531 510.4315490722656 287.6417541503906 509.8576354980469L292.5835266113281 498.90185546875C292.9223327636719 498.15716552734375 293.2748107910156 497.4344177246094 293.6402893066406 496.7332763671875L296.0054931640625 491.4621887207031C296.42889404296875 490.2556457519531 296.9189147949219 489.0365295410156 297.4786376953125 487.80621337890625L302.9470520019531 476.0882568359375L307.6885070800781 462.8643493652344C307.9299011230469 462.20330810546875 308.18255615234375 461.5575866699219 308.446044921875 460.9270935058594L312.329345703125 450.04058837890625C312.6690368652344 448.9201965332031 313.0638122558594 447.7864990234375 313.51605224609375 446.6404724121094L316.4508972167969 439.2318115234375C316.9049072265625 437.9225769042969 317.43804931640625 436.5987854003906 318.054443359375 435.2624206542969C318.3121032714844 434.67529296875 318.57904052734375 434.101806640625 318.8549499511719 433.5418395996094L321.332275390625 428.20611572265625C321.45806884765625 427.91790771484375 321.5876770019531 427.6290588378906 321.7212219238281 427.3396301269531L324.38897705078125 421.69927978515625L325.7891540527344 418.1022644042969C326.13494873046875 416.9977722167969 326.53424072265625 415.8807678222656 326.98931884765625 414.7521667480469L331.55810546875 403.8429870605469C331.6079406738281 403.71990966796875 331.658203125 403.5973815917969 331.70880126953125 403.4754333496094L333.85345458984375 397.3873596191406L336.26678466796875 388.551513671875C336.75732421875 386.8558044433594 337.3255310058594 385.2519226074219 337.9641418457031 383.73779296875L339.9117126464844 378.3694763183594C340.1344299316406 377.6357727050781 340.3800048828125 376.8960266113281 340.6490783691406 376.1505126953125L342.8002014160156 370.55072021484375C342.9300842285156 370.11956787109375 343.0677185058594 369.68621826171875 343.21319580078125 369.2507019042969L345.40435791015625 362.4907531738281C346.251953125 359.9452819824219 347.2708435058594 357.619873046875 348.4356994628906 355.5060729980469L349.4855041503906 353.16650390625L351.2660217285156 347.9058532714844C351.5865478515625 346.8421936035156 351.95709228515625 345.7668762207031 352.3797302246094 344.68084716796875C352.69744873046875 343.8285217285156 353.0350341796875 343.00250244140625 353.39141845703125 342.202392578125L355.74371337890625 336.4938049316406C356.081298828125 335.5782165527344 356.457275390625 334.6554260253906 356.8729553222656 333.72601318359375L360.6958312988281 325.3809509277344C361.01165771484375 324.6761474609375 361.3396301269531 323.9908447265625 361.6792297363281 323.3247985839844L364.25506591796875 317.7961730957031L367.9685974121094 308.78411865234375C368.5339660644531 307.417236328125 369.146240234375 306.12030029296875 369.80133056640625 304.89166259765625L373.2366943359375 297.6884765625C373.332275390625 297.4914245605469 373.42877197265625 297.29595947265625 373.5262145996094 297.1020812988281L375.8010559082031 292.0475158691406L375.802490234375 292.04364013671875L377.0894470214844 288.58612060546875C377.14031982421875 288.40386962890625 377.1925354003906 288.22119140625 377.2460632324219 288.0380859375L378.88848876953125 282.5516357421875L379.771728515625 278.1923828125L380.21685791015625 274.38092041015625L380.36767578125 272.09991455078125C380.3573913574219 271.530029296875 380.3579406738281 270.9530334472656 380.36962890625 270.36895751953125L380.55609130859375 265.9866638183594V264.3549499511719C380.4169921875 262.5940246582031 380.3826904296875 260.89208984375 380.4457092285156 259.24969482421875L368.27935791015625 279.9817199707031C367.9469909667969 280.5992126464844 367.59490966796875 281.2178955078125 367.2226867675781 281.8375549316406L351.4312438964844 308.20159912109375C351.4269714355469 308.20928955078125 351.4226989746094 308.21697998046875 351.41839599609375 308.22467041015625L335.7539367675781 335.9171447753906C335.6173095703125 336.1604919433594 335.4793395996094 336.4011535644531 335.3399963378906 336.63916015625L325.9193115234375 354.8775939941406C325.4727783203125 355.9020080566406 324.97540283203125 356.9327087402344 324.4252014160156 357.96856689453125L306.8027038574219 391.1156311035156C306.5804138183594 391.5287170410156 306.3541259765625 391.9342956542969 306.12396240234375 392.3324279785156L289.1826171875 425.4144287109375C289.1663513183594 425.4501037597656 289.1499938964844 425.48577880859375 289.13360595703125 425.5214538574219L272.163818359375 462.49139404296875C272.0538024902344 462.7331848144531 271.9423522949219 462.97265625 271.8294982910156 463.2098083496094L269.97265625 467.2000427246094L253.98187255859375 502.5382385253906C253.7505645751953 503.0466613769531 253.5128631591797 503.54486083984375 253.2689971923828 504.03289794921875L238.83026123046875 534.7994995117188C238.30291748046875 535.9237060546875 237.7446746826172 536.9969482421875 237.157958984375 538.0203247070312L225.70095825195312 561.0928955078125C225.2731170654297 562.0364379882812 224.8015594482422 562.9848022460938 224.2847137451172 563.937255859375L210.4384765625 589.4385375976562C210.046875 590.1548461914062 209.64334106445312 590.848388671875 209.22850036621094 591.5195922851562L199.3297882080078 610.0699462890625C199.04025268554688 610.6505126953125 198.73391723632812 611.2327270507812 198.41043090820312 611.8163452148438L182.93247985839844 639.8817749023438C182.02212524414062 641.5275268554688 181.0488739013672 643.0517578125 180.020751953125 644.4588623046875L166.7726287841797 666.1583862304688C166.30661010742188 666.9868774414062 165.8038787841797 667.8165283203125 165.26336669921875 668.6465454101562L150.30511474609375 691.2801513671875C150.034423828125 691.7384643554688 149.75247192382812 692.1971435546875 149.45907592773438 692.656005859375L138.36610412597656 709.993896484375C138.06979370117188 710.53857421875 137.75820922851562 711.0841674804688 137.4310302734375 711.6304931640625L126.84820556640625 729.1130981445312C126.38553619384766 729.8812255859375 125.90951538085938 730.6211547851562 125.42101287841797 731.3334350585938L117.63465118408203 744.0973510742188C117.61343383789062 744.1375732421875 117.5921401977539 744.1778564453125 117.57076263427734 744.2180786132812ZM389.4605712890625 506.3611145019531H390.4176330566406C392.6449890136719 506.1809997558594 394.9801025390625 506.2033386230469 397.4186096191406 506.4515686035156C400.04400634765625 506.6197814941406 402.5085754394531 507.0182800292969 404.8124084472656 507.61883544921875C405.45404052734375 507.7276306152344 406.1021728515625 507.8521423339844 406.7567138671875 507.9928283691406L413.5210876464844 509.51568603515625L415.09228515625 509.6397399902344L424.6123046875 509.2981872558594C425.0972595214844 509.2845458984375 425.5773620605469 509.2786865234375 426.05267333984375 509.2803955078125L432.5673522949219 508.8191833496094C432.88140869140625 508.7892761230469 433.1979064941406 508.762451171875 433.5168151855469 508.73876953125L442.9807434082031 507.9928283691406C444.0562744140625 507.917236328125 445.1096496582031 507.8808288574219 446.1407470703125 507.8818359375L448.2224426269531 507.7929992675781C449.42218017578125 507.6400451660156 450.65863037109375 507.5347595214844 451.93182373046875 507.4800109863281L463.40045166015625 507.1070556640625C463.8396301269531 507.0899353027344 464.2748718261719 507.07916259765625 464.70623779296875 507.0746154785156L474.49609375 506.73406982421875C474.9354248046875 506.7221984863281 475.3708190917969 506.7166748046875 475.8022155761719 506.71734619140625L485.265380859375 506.547607421875C485.73126220703125 506.5406188964844 486.192626953125 506.5406799316406 486.6494445800781 506.547607421875H490.5334777832031L495.24212646484375 506.3611145019531C498.157470703125 506.3406982421875 500.8934326171875 506.59503173828125 503.4496154785156 507.08990478515625L505.6384582519531 507.29351806640625C507.9173583984375 507.55206298828125 510.06512451171875 507.9654846191406 512.0836181640625 508.5173034667969L512.3003540039062 508.5606384277344L511.4359436035156 505.7901611328125L508.01611328125 496.1978759765625C507.114990234375 493.7012634277344 506.4781799316406 491.27008056640625 506.08135986328125 488.9129638671875L504.8279113769531 483.94244384765625C504.6706848144531 483.421142578125 504.5212097167969 482.890869140625 504.3797302246094 482.3516540527344L502.9717102050781 477.1125183105469C502.6038818359375 475.9227600097656 502.2796325683594 474.6856689453125 502.0020751953125 473.4005432128906L501.9264221191406 473.0299987792969C501.84161376953125 472.6416320800781 501.76275634765625 472.25537109375 501.6898193359375 471.8713073730469L500.8001708984375 467.51422119140625C500.71697998046875 467.2409973144531 500.6358642578125 466.96533203125 500.5568542480469 466.6872253417969L498.1032409667969 457.8096008300781L496.7879943847656 453.5051574707031C496.28656005859375 452.2557678222656 495.8321228027344 450.9469299316406 495.4286193847656 449.5775451660156L492.9111022949219 440.9993896484375C492.6148681640625 439.9898986816406 492.35943603515625 438.9931640625 492.1432800292969 438.0096130371094L490.3196105957031 431.9397888183594L486.5241394042969 422.071533203125C486.4720764160156 421.933349609375 486.4208068847656 421.7953796386719 486.370361328125 421.6575622558594L481.955322265625 411.30224609375C481.5713806152344 410.39453125 481.2242736816406 409.493896484375 480.9128112792969 408.600830078125L479.3318176269531 404.5926208496094C479.2419738769531 404.4063415527344 479.1529846191406 404.2186279296875 479.06488037109375 404.02947998046875L474.12310791015625 393.3067932128906C473.1280517578125 391.1381530761719 472.349609375 389.0042724609375 471.7708435058594 386.9128723144531L469.04150390625 379.973388671875C468.8955993652344 379.59423828125 468.7559509277344 379.2164611816406 468.6224060058594 378.8401184082031L464.6591796875 369.43719482421875C463.92901611328125 367.6718444824219 463.33685302734375 365.9339599609375 462.8738098144531 364.2271728515625L461.20928955078125 359.60028076171875C461.1709899902344 359.4886169433594 461.13323974609375 359.3770751953125 461.0959777832031 359.2656555175781L459.82891845703125 356.0855712890625C459.7099304199219 355.7960205078125 459.5932922363281 355.5032958984375 459.47900390625 355.2073059082031L459.2046203613281 354.5186767578125C458.9244079589844 353.763427734375 458.6685791015625 353.0138854980469 458.4364013671875 352.2702941894531L457.5729064941406 349.7633972167969C457.4725036621094 349.47760009765625 457.3755187988281 349.19268798828125 457.28192138671875 348.9086608886719L456.1276550292969 345.9405212402344C455.8229675292969 345.1097106933594 455.5477294921875 344.28594970703125 455.301025390625 343.4695739746094L454.7734680175781 342.0115661621094C453.9486389160156 340.18048095703125 453.22991943359375 338.2124938964844 452.6311340332031 336.1036376953125L452.14703369140625 334.2093200683594C452.00897216796875 333.8204345703125 451.8750305175781 333.4262390136719 451.745361328125 333.0267028808594L450.30010986328125 328.4579162597656C450.09954833984375 327.8312683105469 449.91510009765625 327.2091979980469 449.746337890625 326.59185791015625L448.39404296875 322.5786437988281C448.2326354980469 322.1822204589844 448.075439453125 321.7799072265625 447.9224853515625 321.3716125488281L445.5454406738281 314.9875793457031C445.04144287109375 313.7907409667969 444.582275390625 312.5376892089844 444.17156982421875 311.2274169921875C444.02752685546875 310.7978515625 443.8913879394531 310.3702087402344 443.7630615234375 309.94451904296875C443.7509765625 309.977294921875 443.73883056640625 310.01007080078125 443.7266540527344 310.0428771972656L443.5707702636719 310.45855712890625C443.4836730957031 310.6971740722656 443.3949890136719 310.9337463378906 443.30462646484375 311.1683044433594L440.64971923828125 318.248046875C440.08221435546875 319.7777099609375 439.454345703125 321.2242126464844 438.7717590332031 322.589599609375L436.82684326171875 327.0126647949219C436.3653259277344 328.049072265625 435.8772277832031 329.0434875488281 435.3643798828125 329.99664306640625L431.8851013183594 337.3623962402344C431.7449645996094 337.65069580078125 431.6028137207031 337.9355773925781 431.45867919921875 338.217041015625L429.8833312988281 342.0593566894531C429.3768310546875 343.5224304199219 428.77166748046875 345.0035400390625 428.0622253417969 346.4999694824219L424.68865966796875 353.36474609375C424.60284423828125 353.5625915527344 424.5152587890625 353.7607727050781 424.42584228515625 353.959228515625L420.7894592285156 362.30426025390625C420.6015625 362.72174072265625 420.40936279296875 363.1323547363281 420.21295166015625 363.5361633300781L417.5797424316406 369.926513671875L416.2205810546875 374.135498046875C415.8203125 375.6344909667969 415.3172302246094 377.1557312011719 414.705078125 378.6963806152344C413.9683532714844 380.66796875 413.126953125 382.4998779296875 412.1935729980469 384.1965026855469L411.5576477050781 385.5370788574219L410.2991943359375 389.161376953125C410.0164489746094 390.1590270996094 409.6908874511719 391.1680603027344 409.3208312988281 392.1878967285156L407.3490905761719 397.4458923339844C407.11627197265625 398.23480224609375 406.85693359375 399.03082275390625 406.57025146484375 399.8336486816406L403.5129089355469 408.417724609375L401.41387939453125 415.529296875C401.0242614746094 417.2402038574219 400.50823974609375 418.9869079589844 399.8569030761719 420.76617431640625L397.4757995605469 427.0210266113281C397.1499328613281 428.033935546875 396.7787170410156 429.0572509765625 396.3603820800781 430.0902404785156L391.8382263183594 441.1858825683594C391.6600036621094 441.6260070800781 391.4768371582031 442.0589294433594 391.28887939453125 442.48468017578125L390.6871643066406 444.0043029785156C390.1319274902344 445.87774658203125 389.416259765625 447.7839660644531 388.5281677246094 449.7174072265625L385.2647399902344 456.6638488769531C384.8921813964844 457.4713134765625 384.5035705566406 458.2526550292969 384.0997009277344 459.00823974609375L381.8748474121094 463.914306640625L379.4662780761719 469.8769836425781C379.33892822265625 470.27276611328125 379.2049560546875 470.6702880859375 379.0642395019531 471.06951904296875L373.6096496582031 486.3609924316406C373.2566833496094 487.3494873046875 372.87823486328125 488.3038635253906 372.4757385253906 489.22467041015625L368.341552734375 500.90655517578125C367.63433837890625 502.8576354980469 366.82781982421875 504.6745300292969 365.9336853027344 506.3614196777344C368.2408447265625 506.3705749511719 370.5470886230469 506.5827331542969 372.8122253417969 506.99786376953125C373.443603515625 506.9209899902344 374.0690002441406 506.8608093261719 374.6882019042969 506.81689453125C375.3066101074219 506.75054931640625 375.9184265136719 506.69866943359375 376.5235900878906 506.6609191894531L377.2460632324219 506.547607421875C378.6684875488281 506.4305114746094 380.05279541015625 506.3824462890625 381.3986511230469 506.3993835449219L382.0013122558594 506.3611145019531C382.9580993652344 506.3314514160156 383.8962707519531 506.33184814453125 384.8157653808594 506.3611145019531H385.6377258300781C385.978759765625 506.35736083984375 386.3173522949219 506.3573913574219 386.65350341796875 506.3611145019531H389.27410888671875C389.336181640625 506.3612365722656 389.3983459472656 506.3611145019531 389.4605712890625 506.3611145019531ZM401.8616027832031 221.93043518066406 396.3645935058594 231.7994842529297C399.7247314453125 229.80616760253906 403.421875 228.37936401367188 407.25762939453125 227.53378295898438L406.63848876953125 226.26597595214844L405.4393310546875 224.06390380859375C405.0783386230469 223.43927001953125 404.7277526855469 222.7958984375 404.3881530761719 222.133544921875L404.37908935546875 222.11691284179688C403.99713134765625 221.39158630371094 403.64111328125 220.66891479492188 403.3103942871094 219.9492645263672L403.1069030761719 219.53343200683594C402.7235412597656 220.32949829101562 402.3087463378906 221.128662109375 401.8616027832031 221.93043518066406Z" fill="black"/>
</svg>
