<svg xmlns="http://www.w3.org/2000/svg" viewBox="0 0 564 1000">
  <path d="M104.62751770019531 124.47180938720703 109.6360855102539 122.25373077392578C110.60784149169922 121.78619384765625 111.61833953857422 121.34437561035156 112.66828155517578 120.93004608154297L112.89187622070312 120.85004425048828C113.74919128417969 120.50962829589844 114.60055541992188 120.20172882080078 115.44551849365234 119.92533111572266C117.30189514160156 119.0970458984375 119.29443359375 118.37447357177734 121.42696380615234 117.77117919921875L126.46308135986328 116.417724609375C128.02369689941406 115.90547943115234 129.66647338867188 115.47065734863281 131.39279174804688 115.12054443359375C132.22201538085938 114.93037414550781 133.0421142578125 114.76702117919922 133.852783203125 114.62965393066406L136.899658203125 114.0096435546875C138.81036376953125 113.5119400024414 140.83157348632812 113.13418579101562 142.9647216796875 112.88928985595703L143.1057891845703 112.87397003173828C143.5857391357422 112.81393432617188 144.06192016601562 112.76229095458984 144.53427124023438 112.71887969970703L149.58349609375 112.17068481445312C150.7560272216797 111.99876403808594 151.96383666992188 111.87052154541016 153.20712280273438 111.78846740722656L154.2128143310547 111.7405776977539C154.32815551757812 111.73463439941406 154.4432373046875 111.72915649414062 154.55807495117188 111.72413635253906L158.0233154296875 111.55912780761719C159.43125915527344 111.37735748291016 160.8889617919922 111.2608642578125 162.3965606689453 111.21412658691406L170.19117736816406 111.05088806152344C171.00064086914062 111.01203918457031 171.82456970214844 110.99520111083984 172.66293334960938 111.00117492675781C173.72201538085938 110.99362182617188 174.75816345214844 111.02249908447266 175.77120971679688 111.0861587524414L179.7703399658203 111.21412658691406C182.00408935546875 111.28337097167969 184.1287078857422 111.50576782226562 186.14463806152344 111.86670684814453L186.18463134765625 111.87110900878906C186.71836853027344 111.91938018798828 187.25692749023438 111.97859191894531 187.8002166748047 112.0489730834961L188.91192626953125 112.1713638305664C191.12315368652344 112.47421264648438 193.21047973632812 112.917236328125 195.17584228515625 113.48607635498047L197.71847534179688 114.03797149658203C198.4719696044922 114.20069885253906 199.2094268798828 114.3790054321289 199.9309844970703 114.5722885131836L204.4669647216797 115.52168273925781C204.664306640625 115.56695556640625 204.86050415039062 115.61329650878906 205.0555877685547 115.66069793701172L207.08546447753906 116.04681396484375C209.92723083496094 116.30997467041016 212.87832641601562 116.92383575439453 215.9210205078125 117.93318176269531C218.65394592285156 118.72948455810547 221.14967346191406 119.75042724609375 223.41513061523438 120.96127319335938C223.57606506347656 121.01363372802734 223.73728942871094 121.0670394897461 223.8988037109375 121.12149810791016L230.50970458984375 123.43531036376953L236.8918914794922 125.10868835449219L241.56593322753906 126.08244323730469C242.8461151123047 126.29177856445312 244.1497344970703 126.56661987304688 245.475830078125 126.91039276123047C246.6339569091797 127.1842269897461 247.7529296875 127.49683380126953 248.8331298828125 127.84585571289062L256.2532958984375 129.92803955078125C256.7783508300781 130.08157348632812 257.2948303222656 130.24234008789062 257.8027648925781 130.41014099121094L264.66424560546875 132.31024169921875L269.19293212890625 133.2767333984375C269.9321594238281 133.4153289794922 270.6790771484375 133.57559204101562 271.43341064453125 133.7581787109375C273.0350646972656 134.11997985839844 274.5632629394531 134.55313110351562 276.0191650390625 135.05177307128906L282.28900146484375 136.8958282470703C282.9534606933594 137.04476928710938 283.6239013671875 137.21084594726562 284.30023193359375 137.39447021484375L294.4232482910156 140.123291015625L305.0243225097656 142.08489990234375C305.16314697265625 142.11192321777344 305.3014221191406 142.13949584960938 305.4391784667969 142.16758728027344L312.2772521972656 143.1549072265625L322.44598388671875 144.14295959472656C322.83966064453125 144.18130493164062 323.2295837402344 144.2241973876953 323.61578369140625 144.27159118652344L328.1263732910156 144.48638916015625C329.7899475097656 144.4689178466797 331.5072021484375 144.5588836669922 333.27655029296875 144.76463317871094C335.9817810058594 144.99989318847656 338.51373291015625 145.460205078125 340.87408447265625 146.11801147460938L344.7184753417969 146.8728485107422C345.81121826171875 147.03395080566406 346.92254638671875 147.24009704589844 348.0519714355469 147.49327087402344L352.480712890625 148.4739227294922C353.29205322265625 148.61639404296875 354.1132507324219 148.7838134765625 354.9440612792969 148.97698974609375L359.45867919921875 150.09661865234375C359.8184814453125 150.16534423828125 360.18023681640625 150.2388153076172 360.54388427734375 150.31710815429688L366.8324279785156 151.7400665283203L368.7500305175781 152.0411834716797C370.24365234375 152.2158660888672 371.7727355957031 152.47637939453125 373.3360290527344 152.8280487060547C373.62274169921875 152.89051818847656 373.90716552734375 152.95538330078125 374.1893005371094 153.02259826660156C376.1486511230469 153.37890625 378.15863037109375 153.8927764892578 380.21502685546875 154.57679748535156L383.3739013671875 155.72547912597656C384.5706481933594 156.12901306152344 385.7200012207031 156.5691680908203 386.8228759765625 157.04344177246094L387.3075866699219 157.21234130859375C388.596923828125 157.59271240234375 389.8997497558594 158.04966735839844 391.2139892578125 158.58712768554688C393.8759765625 159.58810424804688 396.28851318359375 160.7726287841797 398.4620361328125 162.11126708984375L401.53155517578125 163.6777801513672L401.7049255371094 163.76625061035156L402.0339660644531 163.9353485107422L405.789794921875 165.86541748046875C406.1660461425781 166.02090454101562 406.54339599609375 166.1826629638672 406.9218444824219 166.35076904296875L409.90087890625 167.6722869873047C411.4339599609375 168.24635314941406 412.97625732421875 168.93760681152344 414.5231628417969 169.75302124023438C417.4133605957031 171.15785217285156 419.9636535644531 172.77206420898438 422.1929016113281 174.55355834960938L422.2375793457031 174.58297729492188C422.3428955078125 174.65188598632812 422.4476318359375 174.7210235595703 422.5518493652344 174.79039001464844C425.0469970703125 176.0467071533203 427.5076599121094 177.6599578857422 429.9001770019531 179.66371154785156C432.63116455078125 181.72943115234375 434.9271545410156 183.9727783203125 436.8209533691406 186.34254455566406L437.21826171875 186.73985290527344C438.431640625 187.95323181152344 439.53607177734375 189.18826293945312 440.5362854003906 190.44029235839844L442.108154296875 191.80430603027344C443.4825134277344 192.86968994140625 444.8316955566406 194.06234741210938 446.1486511230469 195.38861083984375C447.4478759765625 196.6417999267578 448.6244812011719 197.92514038085938 449.6839294433594 199.2324676513672L451.48577880859375 201.23268127441406L455.5492858886719 204.87942504882812C456.68560791015625 205.87408447265625 457.7390441894531 206.8909912109375 458.7125244140625 207.92678833007812C460.5677490234375 209.62411499023438 462.32452392578125 211.590576171875 463.9541320800781 213.84327697753906C465.7782897949219 216.1211395263672 467.26202392578125 218.44927978515625 468.43304443359375 220.80123901367188L469.9556579589844 223.21043395996094C471.13330078125 225.1900634765625 472.1111755371094 227.15980529785156 472.9031066894531 229.1114501953125C473.1698913574219 229.5599365234375 473.431884765625 230.0178985595703 473.6888732910156 230.48541259765625L477.0391845703125 236.46812438964844C477.4430236816406 237.2042999267578 477.82037353515625 237.93829345703125 478.1719055175781 238.6697235107422L479.67156982421875 241.5414581298828C480.3841552734375 242.9109649658203 481.0072021484375 244.2707977294922 481.5450744628906 245.6186981201172C481.7102966308594 245.9632110595703 481.87213134765625 246.31263732910156 482.030517578125 246.66697692871094L482.256103515625 247.1412811279297C482.7753601074219 248.29095458984375 483.23541259765625 249.4309844970703 483.638671875 250.56027221679688C484.4273376464844 252.45742797851562 485.1039733886719 254.4913787841797 485.6542663574219 256.6657409667969L485.712646484375 256.9109191894531C485.78021240234375 257.1611633300781 485.8451232910156 257.41070556640625 485.9074401855469 257.6595153808594C486.2923583984375 259.02593994140625 486.61700439453125 260.4507141113281 486.8766784667969 261.9344482421875C487.1874694824219 263.5081481933594 487.4034423828125 265.04669189453125 487.5303649902344 266.54852294921875L487.71234130859375 267.9132385253906C487.9583740234375 269.7622985839844 488.0871276855469 271.5540771484375 488.10693359375 273.28741455078125C488.2806396484375 274.6861572265625 488.389892578125 276.13336181640625 488.4302673339844 277.629150390625V280.3119201660156C488.5512390136719 281.6114807128906 488.6161804199219 282.9507751464844 488.6217041015625 284.3298034667969V291.0836486816406C488.6237487792969 291.3357849121094 488.6237487792969 291.5892639160156 488.6217041015625 291.8440856933594L488.61956787109375 291.9124450683594C488.61309814453125 292.5946350097656 488.5919494628906 293.2669982910156 488.5565490722656 293.92950439453125L488.434326171875 297.8404541015625C488.433349609375 297.94732666015625 488.4319763183594 298.054443359375 488.4302673339844 298.16180419921875V302.10772705078125C488.4383544921875 302.60589599609375 488.43841552734375 303.1093444824219 488.4302673339844 303.6180419921875L488.4240417480469 303.7628479003906C488.4145202636719 304.1943054199219 488.3992004394531 304.6217956542969 488.378173828125 305.0452575683594C488.424072265625 305.9703063964844 488.44183349609375 306.91448974609375 488.4302673339844 307.87774658203125L488.2388000488281 313.3339538574219V313.5751953125C488.61181640625 316.8728942871094 488.5343322753906 320.399658203125 487.92779541015625 324.1369323730469C487.6702880859375 326.2819519042969 487.2578125 328.31378173828125 486.70660400390625 330.2325439453125C486.3786926269531 331.6739196777344 485.9656982421875 333.14111328125 485.46282958984375 334.6324157714844L485.31134033203125 335.0446472167969C485.0131530761719 335.94805908203125 484.6907043457031 336.8241271972656 484.3453063964844 337.67315673828125L484.2330627441406 337.978515625C484.03997802734375 338.66058349609375 483.8278503417969 339.34808349609375 483.5962219238281 340.040771484375L482.64068603515625 342.70831298828125C482.2923889160156 344.1099548339844 481.862548828125 345.5346374511719 481.34674072265625 346.980712890625L479.4801330566406 352.0061950683594C478.749267578125 354.0311584472656 477.9150695800781 355.9157409667969 476.98980712890625 357.6643981933594L476.0819396972656 359.7119140625C474.7020568847656 362.7159729003906 473.10699462890625 365.3714599609375 471.3395080566406 367.69781494140625C470.3271789550781 369.58843994140625 469.1205749511719 371.4767761230469 467.7061462402344 373.3525085449219L462.8242492675781 379.67022705078125C462.03204345703125 380.72607421875 461.21807861328125 381.719970703125 460.384765625 382.6536865234375C458.5205383300781 385.52435302734375 456.1336975097656 388.28857421875 453.1704406738281 390.8793640136719C451.4389953613281 392.5155029296875 449.6502380371094 393.92510986328125 447.8208312988281 395.1222839355469L446.6390075683594 396.0404052734375L443.9667663574219 398.5755920410156C443.2023620605469 399.27899169921875 442.4317626953125 399.94244384765625 441.6559753417969 400.5670471191406C441.3095397949219 400.8934020996094 440.954345703125 401.2171630859375 440.5903015136719 401.5382080078125L440.37713623046875 401.7344665527344C439.35076904296875 402.64801025390625 438.3143615722656 403.4911193847656 437.2701721191406 404.2663269042969L435.5431213378906 405.65911865234375C435.0788879394531 406.0203857421875 434.6136779785156 406.3686828613281 434.1476745605469 406.7042236328125C432.3066101074219 408.3426818847656 430.2237854003906 409.884521484375 427.88525390625 411.3067932128906L427.7362365722656 411.3939514160156C426.97247314453125 411.87347412109375 426.2077331542969 412.3203430175781 425.4426574707031 412.7355041503906L423.71954345703125 413.74334716796875L416.92657470703125 418.20635986328125C415.6238098144531 419.1914978027344 414.22052001953125 420.1322937011719 412.7131042480469 421.0227355957031L404.2596435546875 425.99755859375C403.1533203125 426.73321533203125 401.9832458496094 427.4371643066406 400.7476806640625 428.10626220703125L388.0643310546875 434.854736328125C387.3775939941406 435.2234802246094 386.6930236816406 435.56939697265625 386.0108642578125 435.89300537109375L382.4336853027344 437.85247802734375C382.1292724609375 438.0359802246094 381.8204650878906 438.21734619140625 381.5072937011719 438.3965148925781L374.3758850097656 442.5126037597656C373.7442321777344 442.87396240234375 373.1139831542969 443.2153625488281 372.4853515625 443.5372009277344L369.1589660644531 445.48004150390625C367.9327697753906 446.1829528808594 366.7116394042969 446.8106994628906 365.4974060058594 447.3665466308594L364.00079345703125 448.1366882324219C364.6099548339844 448.2599182128906 365.22430419921875 448.3975830078125 365.84375 448.55010986328125C367.08782958984375 448.8257751464844 368.287353515625 449.1455993652344 369.44287109375 449.50677490234375L375.0294494628906 451.0062255859375C376.7220764160156 451.35736083984375 378.45147705078125 451.8259582519531 380.21502685546875 452.41998291015625L385.67132568359375 454.336181640625C386.27313232421875 454.4966125488281 386.87939453125 454.6714172363281 387.489990234375 454.8609313964844L392.51318359375 456.4375305175781C393.296875 456.66278076171875 394.087158203125 456.9139709472656 394.8837890625 457.1918029785156C396.3354797363281 457.68017578125 397.7171936035156 458.2244567871094 399.0302734375 458.81988525390625L400.8279724121094 459.546875C401.92352294921875 459.9254455566406 403.0298156738281 460.3569641113281 404.1458435058594 460.8436279296875L412.5845642089844 464.53082275390625C413.6242370605469 464.9277038574219 414.6724853515625 465.3731689453125 415.7283935546875 465.8691101074219L423.7691345214844 469.6023254394531C423.9481201171875 469.6864929199219 424.1258544921875 469.77142333984375 424.30230712890625 469.8570861816406L431.26220703125 472.7596435546875C432.1020812988281 473.0836486816406 432.9471130371094 473.43994140625 433.7968444824219 473.8294677734375C434.909423828125 474.3246154785156 435.9744873046875 474.8509216308594 436.992919921875 475.406005859375L443.3260803222656 478.58819580078125C443.4756774902344 478.655029296875 443.62542724609375 478.722900390625 443.77532958984375 478.791748046875L449.3751220703125 481.37628173828125C449.7695007324219 481.5561218261719 450.1578369140625 481.7397155761719 450.54022216796875 481.9269104003906C453.9696960449219 482.96234130859375 457.4593505859375 484.57110595703125 460.9576721191406 486.83251953125L461.3968811035156 487.1253356933594C462.0555725097656 487.5350036621094 462.6923828125 487.95745849609375 463.3076477050781 488.3920593261719C465.9211730957031 489.77349853515625 468.514892578125 491.5384521484375 471.05645751953125 493.724609375L476.0819396972656 498.03216552734375C476.6291198730469 498.5028076171875 477.1573791503906 498.978759765625 477.6671142578125 499.4595947265625L481.1552734375 502.3396911621094C481.9273376464844 502.9997253417969 482.6618957519531 503.6704406738281 483.3598327636719 504.3507995605469L485.20281982421875 505.9980773925781C486.4248046875 506.9903564453125 487.62969970703125 508.0827331542969 488.8131408691406 509.2796325683594L490.16839599609375 510.6210632324219C491.8379821777344 512.0305786132812 493.44482421875 513.6448974609375 494.97137451171875 515.4760131835938C497.3499450683594 518.1140747070312 499.2423095703125 520.839599609375 500.6941223144531 523.6072387695312L500.8897399902344 523.9006958007812C503.61065673828125 526.7078247070312 506.037353515625 530.1529541015625 508.0519104003906 534.2926025390625C508.7105407714844 535.5188598632812 509.2874755859375 536.7459716796875 509.78643798828125 537.97119140625C509.9614562988281 538.3098754882812 510.1336975097656 538.6533813476562 510.30303955078125 539.0017700195312L511.1947021484375 540.8649291992188C513.0895385742188 543.8651733398438 514.6475219726562 547.328857421875 515.7761840820312 551.2799682617188C516.4119873046875 553.2257080078125 516.875732421875 555.140380859375 517.1803588867188 557.0177612304688L517.3815307617188 557.8637084960938C517.4646606445312 558.1154174804688 517.546142578125 558.369140625 517.6258544921875 558.625L518.8847045898438 562.6893310546875C519.0982055664062 563.3155517578125 519.3009643554688 563.9549560546875 519.4924926757812 564.6077270507812L520.1190185546875 566.8453979492188C521.0728149414062 569.4058227539062 521.8017578125 572.1997680664062 522.2684326171875 575.2330322265625L522.2750854492188 575.2797241210938C522.452880859375 576.2734985351562 522.59130859375 577.2534790039062 522.6920166015625 578.21923828125L522.8448486328125 579.2965087890625C523.2006225585938 581.0838012695312 523.449951171875 582.9591064453125 523.5827026367188 584.9229736328125C523.6458129882812 585.6382446289062 523.6905517578125 586.3446044921875 523.7174072265625 587.0418090820312L523.943603515625 590.5966186523438C523.9923706054688 591.4830322265625 524.0156860351562 592.3544921875 524.014404296875 593.2108764648438L524.1350708007812 596.770751953125C524.1728515625 597.645263671875 524.1857299804688 598.5047607421875 524.1746826171875 599.3492431640625L524.3265380859375 606.4866943359375C524.3734130859375 608.8311767578125 524.2457275390625 611.06396484375 523.9603881835938 613.1846923828125L524.3265380859375 618.6435546875C524.407958984375 619.7860107421875 524.4463500976562 620.9041137695312 524.4435424804688 621.9976806640625L524.5589599609375 624.0326538085938C524.5872802734375 624.42529296875 524.6098022460938 624.8213500976562 524.6264038085938 625.2207641601562L524.7094116210938 626.684326171875C524.8031005859375 629.3604125976562 524.6670532226562 631.8943481445312 524.3264770507812 634.2853393554688C524.1544189453125 636.6688232421875 523.73876953125 639.1338500976562 523.0530395507812 641.6703491210938C522.3238525390625 644.9410400390625 521.2601318359375 647.9058227539062 519.9200439453125 650.571533203125L519.0894165039062 653.4669799804688C518.9754638671875 653.88623046875 518.8546142578125 654.3076782226562 518.7266845703125 654.7312622070312L518.1702270507812 656.618408203125C518.0137939453125 657.1922607421875 517.8435668945312 657.7698364257812 517.6593017578125 658.35107421875L517.6258544921875 658.4644775390625C517.10205078125 660.1990356445312 516.4993286132812 661.837890625 515.8252563476562 663.3832397460938L515.6896362304688 663.7420654296875C515.59912109375 663.992431640625 515.505859375 664.2433471679688 515.409912109375 664.494873046875C515.0546264648438 665.4491577148438 514.6760864257812 666.3719482421875 514.275634765625 667.263427734375L513.4434814453125 669.252197265625C512.9000854492188 670.86865234375 512.2385864257812 672.5067749023438 511.45172119140625 674.1630859375L507.90997314453125 681.8209838867188C507.423095703125 682.84228515625 506.9114074707031 683.8222045898438 506.37664794921875 684.761474609375L502.6451721191406 691.9197998046875C502.0680236816406 693.0302734375 501.4623718261719 694.0889892578125 500.8304748535156 695.0972290039062L500.73443603515625 695.2852172851562C499.6084899902344 698.3126220703125 498.00262451171875 701.343505859375 495.85955810546875 704.3305053710938C494.2200012207031 706.8650512695312 492.4095153808594 709.068115234375 490.46673583984375 710.9597778320312C489.4327392578125 712.1658325195312 488.3715515136719 713.2794189453125 487.287353515625 714.3040771484375C486.9385681152344 714.6814575195312 486.5792236328125 715.056396484375 486.209228515625 715.4287719726562L485.98931884765625 715.6591796875C484.7063903808594 716.9714965820312 483.3970642089844 718.1597290039062 482.067138671875 719.2296752929688C480.48565673828125 720.915771484375 478.6864013671875 722.5392456054688 476.6562805175781 724.0828247070312L469.9556579589844 729.1082763671875C469.096435546875 729.7572631835938 468.2345275878906 730.3626098632812 467.3709411621094 730.9256591796875L461.6899719238281 734.979248046875L459.1339416503906 737.2081298828125C458.1044006347656 738.201904296875 456.9918518066406 739.1666870117188 455.7934265136719 740.0980834960938C454.0685729980469 741.5211181640625 452.3205261230469 742.7532348632812 450.5593566894531 743.805908203125L443.9667663574219 748.3965454101562C441.3475646972656 750.1405639648438 438.7275390625 751.5119018554688 436.12945556640625 752.5443725585938L435.6727600097656 752.779052734375C434.38323974609375 753.5143432617188 433.0162658691406 754.2039794921875 431.5697021484375 754.843017578125C431.10528564453125 755.0572509765625 430.6420593261719 755.2612915039062 430.1802062988281 755.455322265625L426.0034484863281 757.29638671875C425.2801818847656 757.6461181640625 424.5355224609375 757.9822387695312 423.7691345214844 758.3038940429688L415.7283935546875 761.6542358398438C414.88922119140625 762.0064697265625 414.0559387207031 762.3280639648438 413.2289123535156 762.6199340820312L408.5966491699219 764.48291015625C407.7630615234375 764.8671875 406.9018249511719 765.23291015625 406.012451171875 765.5789184570312L396.9073791503906 769.1599731445312C396.0469665527344 769.550048828125 395.157470703125 769.920166015625 394.2384948730469 770.2693481445312L382.0816345214844 774.720458984375L369.5076599121094 779.4827270507812C369.2660217285156 779.587890625 369.02215576171875 779.6915893554688 368.7760925292969 779.7938232421875L359.6495056152344 783.5408935546875C358.171630859375 784.2379150390625 356.6038818359375 784.86767578125 354.9441223144531 785.4231567382812C353.7015686035156 785.86962890625 352.47320556640625 786.2496337890625 351.2603454589844 786.5662841796875L345.2665100097656 788.399169921875C343.21893310546875 789.1649780273438 341.02166748046875 789.7962646484375 338.67108154296875 790.2755126953125L325.7962951660156 792.8600463867188C323.438720703125 793.3310546875 321.1636962890625 793.6011962890625 318.97479248046875 793.6881713867188L312.92340087890625 794.3960571289062C312.2337646484375 794.520751953125 311.53118896484375 794.631103515625 310.81561279296875 794.7266235351562L298.8714599609375 796.361083984375C298.3763732910156 796.44580078125 297.87469482421875 796.5233154296875 297.366455078125 796.59326171875L289.9623107910156 797.5399169921875C288.7989807128906 797.77783203125 287.5977478027344 797.9736328125 286.3582763671875 798.1248168945312L277.16375732421875 799.1500854492188C274.5453796386719 799.6873168945312 271.73919677734375 799.9794921875 268.74517822265625 799.991455078125H242.7563018798828C242.70838928222656 799.9916381835938 242.66053771972656 799.9918212890625 242.6127166748047 799.9918212890625L242.37484741210938 799.991455078125H223.36688232421875C223.1621856689453 799.9931030273438 222.9565887451172 799.993408203125 222.7501220703125 799.9923706054688C222.70230102539062 799.9921264648438 222.65444946289062 799.9918212890625 222.60653686523438 799.991455078125H212.57369995117188C211.98471069335938 800.0028076171875 211.3883819580078 800.0029296875 210.7847137451172 799.991455078125L202.21746826171875 799.7999877929688C200.87509155273438 799.7677612304688 199.571533203125 799.6799926757812 198.30673217773438 799.539794921875L192.6929931640625 799.4171142578125C190.94412231445312 799.3419189453125 189.26312255859375 799.173583984375 187.64968872070312 798.919189453125L186.49310302734375 798.8324584960938C185.39292907714844 798.8147583007812 184.2687225341797 798.7550659179688 183.12066650390625 798.6513061523438L172.49537658691406 797.741943359375C171.39244079589844 797.6422729492188 170.3184051513672 797.5067138671875 169.2731170654297 797.3369750976562L159.76416015625 796.2582397460938C158.572998046875 796.108154296875 157.417236328125 795.9169921875 156.2965850830078 795.6869506835938L147.032958984375 794.2001953125C145.92514038085938 794.024169921875 144.84945678710938 793.8133544921875 143.80560302734375 793.5696411132812L135.2589874267578 791.95068359375C134.2777099609375 791.7672119140625 133.32261657714844 791.5568237304688 132.39349365234375 791.3209228515625L130.91952514648438 791.0201416015625L129.58291625976562 790.8336181640625C129.4808807373047 790.8234252929688 129.37867736816406 790.8129272460938 129.27627563476562 790.802001953125L127.50092315673828 790.640625C125.36175537109375 790.5823974609375 123.13936614990234 790.3468627929688 120.8373031616211 789.9170532226562C119.50627899169922 789.6970825195312 118.22213745117188 789.4227905273438 116.98455810546875 789.0978393554688C115.46382904052734 788.8088989257812 113.91450500488281 788.4213256835938 112.33892822265625 787.9288330078125C110.67887115478516 787.4757690429688 109.10385131835938 786.942138671875 107.61236572265625 786.3353881835938L106.49412536621094 785.9679565429688C104.86319732666016 785.3558959960938 103.32486724853516 784.6773071289062 101.876708984375 783.9385986328125L100.8943099975586 783.5270385742188C99.56336212158203 782.9299926757812 98.30023956298828 782.2903442382812 97.10327911376953 781.6118774414062C96.61344909667969 781.3841552734375 96.12216186523438 781.1451416015625 95.62952423095703 780.8946533203125L90.97480010986328 778.588623046875L88.22460174560547 777.567138671875C85.98663330078125 776.87548828125 83.72870635986328 775.9347534179688 81.466552734375 774.722412109375C80.52540588378906 774.2801513671875 79.6201171875 773.8134765625 78.7500991821289 773.3241577148438C69.9571762084961 771.1148681640625 63.419010162353516 766.0428466796875 59.13560104370117 759.5762939453125C56.449676513671875 757.6264038085938 53.90810012817383 755.1839599609375 51.58103942871094 752.2030639648438L51.50106430053711 752.1297607421875C48.94482421875 748.9992065429688 47.00110626220703 745.8087768554688 45.6029167175293 742.6134033203125C45.27050018310547 741.9136962890625 44.95144271850586 741.194091796875 44.646427154541016 740.4542236328125C43.93363952636719 738.9187622070312 43.301048278808594 737.286865234375 42.75762939453125 735.5565185546875C41.33816146850586 732.0371704101562 40.43398666381836 728.0827026367188 40.17465591430664 723.6962280273438C40.079978942871094 722.6746215820312 40.02754211425781 721.6306762695312 40.019569396972656 720.5648193359375C39.95416259765625 718.5174560546875 40.0537223815918 716.544677734375 40.30292510986328 714.6500244140625C40.56190490722656 711.941650390625 41.05873489379883 709.4080810546875 41.763248443603516 707.048583984375L41.78514862060547 706.517578125V704.7164306640625C41.73948287963867 703.658447265625 41.73870849609375 702.5783081054688 41.78514862060547 701.4766235351562V701.0613403320312C41.86534881591797 697.0513305664062 42.442779541015625 693.38671875 43.43299865722656 690.06591796875L43.4771614074707 689.116455078125C43.39269256591797 686.5018920898438 43.56782531738281 683.7492065429688 44.034645080566406 680.8637084960938L44.10489273071289 680.4808349609375C44.21152877807617 679.7681884765625 44.334964752197266 679.0685424804688 44.47459030151367 678.3820190429688C44.442012786865234 677.73486328125 44.4228630065918 677.0784301757812 44.417537689208984 676.41259765625V652.098876953125C44.41550064086914 651.8440551757812 44.41550827026367 651.5906372070312 44.417537689208984 651.3385009765625V642.3829345703125C44.41715621948242 642.3510131835938 44.41718673706055 642.3190307617188 44.41725158691406 642.2870483398438C44.41731643676758 642.2552490234375 44.41741180419922 642.223388671875 44.417537689208984 642.1915283203125V633.037841796875C44.41297912597656 632.6619873046875 44.41295623779297 632.2831420898438 44.417537689208984 631.9012451171875V625.933349609375C44.404945373535156 625.3143920898438 44.40483093261719 624.687255859375 44.417537689208984 624.0519409179688L44.57204055786133 615.4384765625C44.55647659301758 614.5299682617188 44.568424224853516 613.6041259765625 44.608985900878906 612.6608276367188L45.0294075012207 604.8480224609375C45.016258239746094 603.5010986328125 45.066307067871094 602.1168212890625 45.183326721191406 600.6954345703125L45.9027214050293 593.4257202148438C45.9737548828125 592.1936645507812 46.09962463378906 590.9336547851562 46.283199310302734 589.6460571289062C46.28351593017578 589.6438598632812 46.28382873535156 589.6416015625 46.28414535522461 589.639404296875C46.31221008300781 589.410400390625 46.342018127441406 589.1826782226562 46.37342071533203 588.956298828125L47.19404220581055 582.6766967773438C47.222503662109375 582.4443359375 47.25297927856445 582.2111206054688 47.285484313964844 581.9769897460938L47.38496398925781 581.2157592773438C47.61601638793945 579.5967407226562 47.92241287231445 578.0447998046875 48.2984619140625 576.55908203125L48.97560119628906 573.2428588867188C49.17360305786133 571.7698364257812 49.455352783203125 570.2630615234375 49.82590866088867 568.7238159179688L52.26685333251953 558.625C52.454830169677734 557.8433837890625 52.65935134887695 557.0796508789062 52.879756927490234 556.3336791992188L54.632781982421875 549.2324829101562L55.777183532714844 541.5908203125L56.52415466308594 532.0046997070312C56.516902923583984 531.1610107421875 56.533363342285156 530.3025512695312 56.57440185546875 529.4293823242188L57.27608108520508 515.5829467773438L57.183937072753906 505.9997863769531C56.998260498046875 503.65985107421875 57.01395034790039 501.198486328125 57.25397491455078 498.61810302734375C57.33714294433594 497.4305419921875 57.46731185913086 496.2752380371094 57.641902923583984 495.1523132324219L58.25826644897461 489.73712158203125C58.28748321533203 488.7865295410156 58.34797668457031 487.8182678222656 58.441009521484375 486.83251953125L59.934871673583984 472.3206787109375L60.307613372802734 461.41796875C60.369651794433594 459.8273010253906 60.50871276855469 458.29254150390625 60.71955108642578 456.8135070800781L61.09351348876953 452.25115966796875L61.40843200683594 443.6134338378906V400.5338134765625C61.40687561035156 400.3128662109375 61.4068717956543 400.09088134765625 61.40843200683594 399.86785888671875L61.594608306884766 384.6015930175781C61.5949821472168 384.3945617675781 61.596736907958984 384.1866149902344 61.59988021850586 383.977783203125V373.238037109375C61.5927734375 372.7702941894531 61.59272384643555 372.2979431152344 61.59988021850586 371.8209228515625L61.96580505371094 356.3148498535156C61.96714782714844 355.9502868652344 61.972782135009766 355.5829772949219 61.98277282714844 355.2129211425781L62.336273193359375 344.82879638671875C62.342079162597656 344.47967529296875 62.35185623168945 344.1280517578125 62.365665435791016 343.77398681640625L62.698402404785156 334.3741455078125C62.70340347290039 333.78143310546875 62.72002410888672 333.1814880371094 62.748558044433594 332.5743713378906L63.09147644042969 324.3871765136719C63.10006332397461 324.00811767578125 63.113365173339844 323.62615966796875 63.13145065307617 323.2413330078125L63.657928466796875 313.8604431152344L63.666229248046875 313.69024658203125L64.24164581298828 301.8941955566406C64.20259094238281 300.8645935058594 64.19892120361328 299.8118896484375 64.23226928710938 298.73614501953125L64.77334594726562 284.8033752441406L64.49339294433594 274.69012451171875L63.2750358581543 268.05682373046875C63.109352111816406 267.1034240722656 62.975975036621094 266.1641540527344 62.87372970581055 265.2392883300781L61.87171173095703 259.040771484375C61.287357330322266 256.73291015625 60.88563537597656 254.26663208007812 60.69050598144531 251.64027404785156L59.924720764160156 240.2013397216797C59.90941619873047 239.9835968017578 59.89567947387695 239.76673889160156 59.88349151611328 239.55078125L58.91355895996094 231.25247192382812L58.29547119140625 227.72422790527344C58.28003692626953 227.65562438964844 58.26473617553711 227.5868682861328 58.24956130981445 227.5179901123047L56.382957458496094 218.90289306640625C56.37372970581055 218.86099243164062 56.36456298828125 218.81912231445312 56.355464935302734 218.77728271484375L55.90378189086914 216.93829345703125C55.51788330078125 215.6522674560547 55.18181228637695 214.31314086914062 54.89924621582031 212.92018127441406L54.62441635131836 211.44297790527344C54.20978927612305 209.75868225097656 53.88933563232422 207.99029541015625 53.67189407348633 206.13699340820312C53.510406494140625 205.0047149658203 53.39639663696289 203.892822265625 53.327720642089844 202.8018341064453C53.1704216003418 201.47952270507812 53.07082748413086 200.114013671875 53.03263854980469 198.70526123046875L52.92190170288086 196.10289001464844C52.889060974121094 195.66656494140625 52.862117767333984 195.22579956054688 52.84119415283203 194.78060913085938L52.704185485839844 191.04713439941406C43.80927658081055 175.1234893798828 47.42037582397461 152.37962341308594 63.53749084472656 141.99363708496094C66.63008117675781 138.60067749023438 70.17074584960938 136.068359375 73.9593734741211 134.31524658203125C76.61595153808594 132.76651000976562 79.30229187011719 131.62640380859375 81.98303985595703 130.85475158691406C84.61360168457031 129.93882751464844 87.1885986328125 129.3350830078125 89.69304656982422 129.01243591308594C89.91511535644531 128.97076416015625 90.13651275634766 128.93106079101562 90.35722351074219 128.89332580566406C90.89010620117188 128.79759216308594 91.43069458007812 128.7107696533203 91.97901916503906 128.63308715820312C92.11629486083984 128.61070251464844 92.25330352783203 128.58900451660156 92.3900146484375 128.56796264648438C92.4505844116211 128.54400634765625 92.51130676269531 128.5201416015625 92.57215118408203 128.4963836669922C95.16734313964844 127.34858703613281 97.72660064697266 126.52376556396484 100.23283386230469 125.99113464355469L101.25529479980469 125.67212677001953L104.56246185302734 124.50083923339844C104.5841293334961 124.49114990234375 104.6058120727539 124.48147583007812 104.62751770019531 124.47180938720703ZM250.07913208007812 714.1754760742188 249.4857940673828 716.4005126953125C249.4498748779297 716.5575561523438 249.4128875732422 716.7149047851562 249.3748016357422 716.8724975585938C250.84092712402344 720.3482666015625 251.72862243652344 724.1444702148438 251.88897705078125 728.1989135742188H265.958740234375L277.7431945800781 726.6673583984375C278.4785461425781 726.5806274414062 279.2046203613281 726.5123291015625 279.9212646484375 726.4619750976562L287.4591064453125 725.3750610351562C287.9748840332031 725.3038330078125 288.4862060546875 725.2417602539062 288.9930419921875 725.188720703125L301.09967041015625 723.5084838867188C302.3715515136719 723.3379516601562 303.6162414550781 723.22314453125 304.8333740234375 723.1613159179688L312.09326171875 722.31201171875L321.5787353515625 720.5400390625L331.2084045410156 717.595458984375L340.2747802734375 713.8362426757812C340.8292541503906 713.5950317382812 341.3954772949219 713.3619384765625 341.97357177734375 713.1373291015625C342.4559020996094 712.945556640625 342.9364013671875 712.7638549804688 343.4147644042969 712.5921020507812L356.6192321777344 707.618408203125L368.967529296875 702.927978515625C369.42706298828125 702.7553100585938 369.8845520019531 702.5914306640625 370.3399658203125 702.4363403320312L379.3426513671875 698.9332275390625C379.4416198730469 698.8925170898438 379.5409851074219 698.8521118164062 379.64068603515625 698.8118896484375L387.0605163574219 695.8114624023438C387.32855224609375 695.6929931640625 387.5993347167969 695.5763549804688 387.8728942871094 695.4615478515625L394.1413269042969 692.8496704101562C394.5344543457031 692.6633911132812 394.9337463378906 692.4810180664062 395.33929443359375 692.3026733398438L402.6142883300781 689.095947265625L402.6230773925781 689.0921020507812L404.9042663574219 687.9279174804688L411.5067138671875 683.4686889648438L414.4276123046875 680.9216918945312L415.53692626953125 679.954345703125C415.5392761230469 679.9521484375 415.541748046875 679.9500732421875 415.5442199707031 679.947998046875C417.1780700683594 678.51953125 418.8355407714844 677.2679443359375 420.5076904296875 676.1831665039062L425.7118835449219 672.3704223632812C425.9851989746094 672.15283203125 426.2629089355469 671.9367065429688 426.54510498046875 671.72216796875L432.9836120605469 666.927490234375L435.6576232910156 664.4252319335938L436.1158142089844 663.9451904296875L438.8934326171875 658.6559448242188C439.31781005859375 657.85009765625 439.7571716308594 657.07177734375 440.210693359375 656.3203735351562L443.00421142578125 650.9613647460938L443.0099182128906 650.9503784179688L446.5513000488281 643.2922973632812C446.6190185546875 643.1502685546875 446.6872253417969 643.0089721679688 446.7558898925781 642.8685302734375L448.5013732910156 638.534912109375C448.59649658203125 638.1917114257812 448.6962890625 637.8471069335938 448.80078125 637.5010375976562L449.949462890625 633.9592895507812C450.0867919921875 633.5107421875 450.2293701171875 633.0685424804688 450.3770446777344 632.6326904296875L451.1868591308594 630.1201782226562C451.5547180175781 628.7404174804688 452.0023498535156 627.3392944335938 452.53399658203125 625.9185180664062L452.80413818359375 625.2086791992188L452.7813720703125 624.389404296875C452.7610168457031 624.150634765625 452.74237060546875 623.9105224609375 452.7254638671875 623.6690673828125L452.4647216796875 620.1923217773438C452.125 617.9404296875 451.9751892089844 615.5630493164062 452.0379333496094 613.0618286132812C452.0243225097656 610.7852783203125 452.1864929199219 608.6138916015625 452.5071105957031 606.548828125L452.370849609375 600.3148193359375C452.36029052734375 600.1234741210938 452.3508605957031 599.9312744140625 452.3425598144531 599.7382202148438L452.18145751953125 595.1868286132812C452.17059326171875 595.0293579101562 452.1604919433594 594.871337890625 452.151123046875 594.7127075195312L452.0873107910156 592.3724975585938L451.6001281738281 588.7572631835938L450.4759521484375 584.6138916015625C450.413330078125 584.400634765625 450.3525085449219 584.18798828125 450.29345703125 583.9758911132812L450.2313232421875 583.7823486328125C449.5311584472656 582.0505981445312 448.9231872558594 580.206787109375 448.41790771484375 578.248291015625L447.3760681152344 573.8672485351562L445.6419372558594 570.3989868164062C445.345947265625 569.7914428710938 445.0670471191406 569.1862182617188 444.8048400878906 568.58349609375C443.8721618652344 567.4677734375 442.9692687988281 566.2710571289062 442.10015869140625 564.9906005859375L439.8812255859375 561.8359985351562L439.489013671875 561.4397583007812L435.5174255371094 557.87548828125C435.14208984375 557.5758666992188 434.7677307128906 557.267333984375 434.3944396972656 556.9498901367188L429.36895751953125 552.642333984375C428.88507080078125 552.230224609375 428.4158630371094 551.81396484375 427.9610595703125 551.393798828125L426.5424499511719 550.1358032226562L424.6416931152344 548.8685913085938L421.6352844238281 547.5830688476562C420.9147033691406 547.2986450195312 420.1900634765625 546.9910278320312 419.4615783691406 546.6596069335938L415.7444763183594 544.9122314453125C414.80389404296875 544.5305786132812 413.8570251464844 544.1083984375 412.904541015625 543.6443481445312L405.753173828125 540.0862426757812C405.45745849609375 539.9678955078125 405.1609802246094 539.845703125 404.86376953125 539.7196655273438L396.5766296386719 536.16259765625C395.4244384765625 535.73388671875 394.2617492675781 535.2452392578125 393.0898132324219 534.6942138671875L385.5542907714844 531.01611328125L375.87530517578125 526.8060302734375L371.6502380371094 525.233154296875L368.1175537109375 524.1162109375C367.1671142578125 523.8663330078125 366.20587158203125 523.5797729492188 365.23431396484375 523.2552490234375L357.4599304199219 520.5712280273438L349.0541687011719 518.3081665039062L338.987060546875 516.3707275390625L325.99005126953125 514.6720581054688L310.28912353515625 513.347900390625C309.98675537109375 513.322998046875 309.6865539550781 513.2953491210938 309.38848876953125 513.2650756835938L300.716796875 512.8214111328125C300.451904296875 512.8046264648438 300.1885986328125 512.7858276367188 299.9269104003906 512.7648315429688L288.7513732910156 512.4385375976562C288.4705505371094 512.4287109375 288.1914367675781 512.41650390625 287.9140930175781 512.40185546875L282.7686462402344 512.2470703125C282.3185119628906 512.2349243164062 281.8727722167969 512.216552734375 281.4314270019531 512.1920166015625L277.1688537597656 512.0556030273438H269.510986328125L265.7967224121094 512.1826171875C265.3013916015625 512.2118530273438 264.8005065917969 512.2333984375 264.2940673828125 512.2470703125H263.9111633300781C263.529296875 512.2516479492188 263.150390625 512.2516479492188 262.7745056152344 512.2470703125H260.8958740234375C260.3749084472656 512.259033203125 259.8594055175781 512.262451171875 259.3493957519531 512.2573852539062C257.35260009765625 512.3328247070312 255.4346923828125 512.2782592773438 253.59613037109375 512.1044311523438C253.7567138671875 513.7930908203125 253.8148193359375 515.43212890625 253.77755737304688 517.0204467773438L253.91680908203125 519.9447631835938L254.21644592285156 521.6759643554688C254.6165771484375 523.4371337890625 254.91583251953125 525.2874145507812 255.1046142578125 527.227783203125L255.16424560546875 527.903564453125C255.18563842773438 528.1263427734375 255.20521545410156 528.3482666015625 255.22299194335938 528.5693359375L255.28807067871094 529.3069458007812C255.83438110351562 532.3023681640625 256.0467529296875 535.531982421875 255.870849609375 538.9932250976562L255.87063598632812 539.0017700195312C255.84860229492188 539.9163818359375 255.79685974121094 540.8135986328125 255.71661376953125 541.6931762695312L255.52761840820312 545.0003662109375C255.5135040283203 545.3088989257812 255.49607849121094 545.6192016601562 255.47528076171875 545.9313354492188C255.38955688476562 547.46728515625 255.2321319580078 548.9497680664062 255.00782775878906 550.3790893554688L254.51190185546875 554.5553588867188C254.47604370117188 554.9675903320312 254.43434143066406 555.3828735351562 254.38668823242188 555.8012084960938L253.42945861816406 564.224853515625C253.37759399414062 564.68017578125 253.3196563720703 565.1303100585938 253.2557830810547 565.5753784179688L252.85511779785156 570.01611328125C252.8142547607422 570.4356689453125 252.76820373535156 570.8509521484375 252.71707153320312 571.2620239257812L252.32864379882812 577.8654174804688C252.30564880371094 578.1880493164062 252.27952575683594 578.50830078125 252.2503204345703 578.8261108398438L251.94573974609375 586.09765625C251.93946838378906 586.231201171875 251.93263244628906 586.3644409179688 251.92527770996094 586.4971923828125L251.75430297851562 593.03759765625C251.742431640625 593.3756103515625 251.72702026367188 593.7110595703125 251.70814514160156 594.0440063476562L251.56285095214844 599.020263671875V602.1845092773438C251.56488037109375 602.4366455078125 251.5648956298828 602.6901245117188 251.56285095214844 602.9449462890625V603.0885009765625C251.545166015625 604.1939086914062 251.4895782470703 605.2732543945312 251.39788818359375 606.3264770507812L251.37139892578125 606.8695678710938V619.1700439453125L251.5053253173828 624.158935546875C251.5406036376953 624.862060546875 251.55995178222656 625.5762329101562 251.56285095214844 626.3014526367188V649.2750244140625C251.56285095214844 649.3229370117188 251.56277465820312 649.3707885742188 251.56263732910156 649.4186401367188C251.56259155273438 649.4345703125 251.56253051757812 649.4505615234375 251.56246948242188 649.4664916992188L251.56285095214844 649.8805541992188C251.9226837158203 651.1473388671875 252.22564697265625 652.4639892578125 252.46743774414062 653.830810546875C253.14691162109375 656.896240234375 253.46148681640625 659.8334350585938 253.45408630371094 662.6307373046875C253.62181091308594 664.4070434570312 253.68052673339844 666.257080078125 253.6208953857422 668.180419921875L253.42945861816406 674.7374267578125C253.3697052001953 676.4445190429688 253.22076416015625 678.0875854492188 252.9891357421875 679.6669311523438C252.9648895263672 680.4371337890625 252.92044067382812 681.218994140625 252.85511779785156 682.0123901367188L252.60479736328125 685.6241455078125C252.58209228515625 686.0284423828125 252.5538787841797 686.4359130859375 252.52008056640625 686.846435546875L252.4979705810547 687.0952758789062L252.13719177246094 691.1539916992188C252.1228485107422 691.3282470703125 252.1075897216797 691.5018310546875 252.09144592285156 691.6746826171875L251.94573974609375 694.5521850585938C251.91680908203125 694.9639282226562 251.8827667236328 695.3717651367188 251.84373474121094 695.775634765625L251.75430297851562 697.5195922851562C251.73475646972656 697.9028930664062 251.71075439453125 698.282958984375 251.68238830566406 698.65966796875L251.66030883789062 699.244384765625C251.67848205566406 700.6961059570312 251.62026977539062 702.19091796875 251.48060607910156 703.728271484375C251.44642639160156 704.262939453125 251.40318298339844 704.791015625 251.35105895996094 705.3125610351562C251.257080078125 708.1319580078125 250.8466339111328 711.089599609375 250.07913208007812 714.1754760742188ZM226.72264099121094 233.8835906982422 227.82345581054688 237.61680603027344 228.0049591064453 238.20079040527344C228.57577514648438 239.72508239746094 229.075927734375 241.3326416015625 229.49862670898438 243.02517700195312L230.30551147460938 246.45448303222656L232.1287841796875 250.96922302246094L233.73223876953125 254.24794006347656L236.43856811523438 258.7237854003906C237.46043395996094 260.4957275390625 238.3254852294922 262.2574157714844 239.04336547851562 264.00335693359375L239.3050079345703 264.503173828125C239.9038848876953 265.528564453125 240.46754455566406 266.604736328125 240.9929656982422 267.7326354980469C242.71527099609375 271.1264343261719 243.893310546875 274.4569396972656 244.59193420410156 277.6908264160156C245.78466796875 280.53387451171875 246.69131469726562 283.6851501464844 247.2552947998047 287.15362548828125L247.86822509765625 291.0355224609375C248.20127868652344 292.54840087890625 248.44781494140625 294.124267578125 248.60040283203125 295.7628479003906C249.07791137695312 299.3655090332031 249.0951385498047 302.753662109375 248.7173309326172 305.91668701171875L248.75013732910156 306.53546142578125C248.9712371826172 308.30682373046875 249.06947326660156 310.1505432128906 249.0334930419922 312.06494140625C249.1248779296875 315.69366455078125 248.7713165283203 319.0606994628906 248.04116821289062 322.1612243652344L247.8296356201172 323.9592590332031L247.65350341796875 325.85272216796875C247.95828247070312 328.3144226074219 248.03952026367188 330.9210205078125 247.86911010742188 333.67034912109375C247.82830810546875 334.9720458984375 247.7295379638672 336.2372131347656 247.57615661621094 337.46563720703125L247.19619750976562 342.28643798828125C247.16793823242188 342.9648742675781 247.12396240234375 343.65216064453125 247.06385803222656 344.34832763671875L246.34593200683594 353.1548767089844C246.30734252929688 353.60186767578125 246.26280212402344 354.0441589355469 246.21246337890625 354.481689453125L245.4582061767578 363.0613098144531L245.85084533691406 372.51751708984375C245.89169311523438 372.8568115234375 245.92910766601562 373.1989440917969 245.96302795410156 373.5439453125L247.2552947998047 386.9930725097656C247.3460235595703 387.9151306152344 247.408203125 388.8219299316406 247.44287109375 389.71337890625L248.59542846679688 399.1499328613281C248.60263061523438 399.2156982421875 248.6096649169922 399.2813415527344 248.6165771484375 399.3469543457031C255.76339721679688 400.8421325683594 262.6093444824219 404.78851318359375 268.114013671875 411.78875732421875L269.5362854003906 411.7051086425781L275.966796875 410.2603759765625L285.1910095214844 407.1324157714844L293.8128967285156 403.2582702636719L307.0823974609375 396.1346435546875C308.6324462890625 395.31134033203125 310.1711730957031 394.6035461425781 311.6952209472656 394.0050048828125L322.5895690917969 388.6682434082031C323.2250671386719 388.3600158691406 323.8579406738281 388.0702819824219 324.488037109375 387.7986755371094L334.3912658691406 382.683837890625L338.67108154296875 380.0531311035156C339.6097412109375 379.5167541503906 340.5455017089844 379.0242614746094 341.4775695800781 378.57427978515625L345.802490234375 376.12847900390625C346.5049133300781 375.72662353515625 347.2056884765625 375.3493957519531 347.9044494628906 374.9962463378906L354.0346984863281 371.6773376464844C354.8068542480469 371.25640869140625 355.57647705078125 370.8646240234375 356.34307861328125 370.5012512207031L366.718017578125 364.7373962402344C366.77264404296875 364.7081298828125 366.8272705078125 364.67901611328125 366.8818664550781 364.6500549316406L374.1523132324219 360.3902587890625C374.2265625 360.3395080566406 374.30108642578125 360.2889099121094 374.3758850097656 360.2384033203125L384.1396789550781 353.7292175292969C385.3894958496094 352.8894958496094 386.6395263671875 352.1348571777344 387.88726806640625 351.4616394042969L389.7623291015625 350.2177734375L391.79754638671875 348.6558837890625C391.9502868652344 348.54107666015625 392.1031188964844 348.4276428222656 392.2560119628906 348.3155822753906C392.3420104980469 348.2374267578125 392.4284973144531 348.159423828125 392.5154724121094 348.08154296875L394.23443603515625 346.69610595703125C394.5323791503906 346.4065246582031 394.83685302734375 346.11846923828125 395.1478576660156 345.83203125L397.2060546875 343.9746398925781C398.3453674316406 342.8246154785156 399.58831787109375 341.7030334472656 400.9391174316406 340.6151123046875L404.0166320800781 338.142578125L405.4065246582031 336.5408630371094C405.41705322265625 336.52691650390625 405.4275817871094 336.5129699707031 405.4381103515625 336.4990234375L409.8326721191406 330.7121276855469L411.84417724609375 327.4937438964844L412.5700378417969 325.99932861328125L413.4992370605469 323.1851501464844C413.75640869140625 322.21002197265625 414.0522766113281 321.2234802246094 414.38824462890625 320.2260437011719L414.932861328125 318.8191223144531C415.0180969238281 318.5868225097656 415.1048278808594 318.35638427734375 415.1930236816406 318.1278991699219C415.3026123046875 317.77569580078125 415.417236328125 317.422119140625 415.53692626953125 317.0671691894531L416.4463195800781 314.4322814941406V313.41961669921875C416.4424743652344 313.0744934082031 416.4424743652344 312.72686767578125 416.4463195800781 312.3767395019531L416.44927978515625 312.2964172363281C416.4591979980469 311.5722961425781 416.4855041503906 310.8593444824219 416.5277404785156 310.1575622558594L416.63433837890625 307.2531433105469C416.63519287109375 307.15838623046875 416.6363220214844 307.0634765625 416.63775634765625 306.9683532714844V303.8864440917969C416.6306457519531 303.41876220703125 416.630615234375 302.9463806152344 416.63775634765625 302.4693603515625V298.01287841796875C416.6357116699219 297.7607421875 416.6357116699219 297.50726318359375 416.63775634765625 297.25244140625V297.0610046386719C416.6475830078125 296.4461669921875 416.66912841796875 295.8393859863281 416.7021179199219 295.2406921386719L416.8291931152344 291.2697448730469V285.2870178222656L416.7124328613281 281.755126953125C416.6844177246094 281.4351806640625 416.6595153808594 281.1128234863281 416.63775634765625 280.78802490234375L416.39056396484375 277.17303466796875L416.1865234375 275.5035705566406L415.7472839355469 274.283447265625L415.1582336425781 273.1554870605469C414.78070068359375 272.5430908203125 414.4122009277344 271.9125061035156 414.05322265625 271.2635498046875L410.84649658203125 265.2808532714844C410.4225158691406 264.5143737792969 410.02740478515625 263.7502746582031 409.6603698730469 262.9889831542969L407.3454284667969 258.59051513671875L406.79052734375 257.6799011230469L404.06207275390625 255.31227111816406C403.5800476074219 254.91319274902344 403.1014099121094 254.49801635742188 402.6264343261719 254.0664520263672L402.4228210449219 253.8897705078125C400.2542419433594 251.978515625 398.389404296875 249.98570251464844 396.8075256347656 247.93508911132812L395.751708984375 246.7630157470703L393.3752746582031 244.61001586914062C392.00054931640625 243.49156188964844 390.653076171875 242.2432098388672 389.3401794433594 240.85862731933594C388.54156494140625 240.0489959716797 387.7925720214844 239.22760009765625 387.09173583984375 238.3960418701172L384.85760498046875 235.941650390625C384.8169250488281 235.8951873779297 384.7763977050781 235.84872436523438 384.73602294921875 235.80223083496094C384.0909118652344 235.42410278320312 383.4453125 235.02403259277344 382.799560546875 234.6015167236328L381.4083251953125 233.68533325195312L377.5826416015625 232.01698303222656C376.0176696777344 231.31326293945312 374.54620361328125 230.55096435546875 373.1656188964844 229.73609924316406L368.967529296875 227.70944213867188C368.1805419921875 227.3053436279297 367.41925048828125 226.88687133789062 366.6832580566406 226.45484924316406L363.6322937011719 224.9087677001953L359.8259582519531 223.5933380126953C359.4480895996094 223.4569549560547 359.0751037597656 223.3169708251953 358.7069396972656 223.1734619140625L358.4219055175781 223.1083221435547L353.07745361328125 222.25320434570312C351.341064453125 221.93605041503906 349.6863098144531 221.53375244140625 348.1119689941406 221.05348205566406C346.9787292480469 220.88047790527344 345.82586669921875 220.65892028808594 344.65380859375 220.3865966796875L341.1033630371094 219.50608825683594C340.42706298828125 219.38607788085938 339.743896484375 219.2489776611328 339.0539855957031 219.09432983398438L332.3533630371094 217.61062622070312C332.1136474609375 217.55690002441406 331.8755798339844 217.5015869140625 331.63916015625 217.4447479248047L325.2101745605469 216.29986572265625L316.7983093261719 215.7440185546875C315.22894287109375 215.65142822265625 313.71563720703125 215.48489379882812 312.2581481933594 215.24945068359375L306.7242126464844 214.70062255859375C305.1506652832031 214.6309814453125 303.53076171875 214.4703369140625 301.865478515625 214.2124481201172L292.676025390625 212.92018127441406C290.8880615234375 212.64511108398438 289.1832275390625 212.2790985107422 287.56036376953125 211.82980346679688L282.99072265625 210.98423767089844C280.92340087890625 210.7509765625 278.7900085449219 210.34828186035156 276.5945129394531 209.7613067626953L265.5863342285156 206.7460174560547C264.94097900390625 206.57080078125 264.30828857421875 206.38449096679688 263.68817138671875 206.18746948242188L254.92465209960938 203.7572479248047L250.16537475585938 202.68641662597656C248.79074096679688 202.44044494628906 247.3895721435547 202.11985778808594 245.96302795410156 201.72055053710938L236.6300048828125 199.08815002441406C235.76214599609375 198.84263610839844 234.9175262451172 198.57728576660156 234.0958709716797 198.2930450439453L228.33477783203125 196.67640686035156L226.14830017089844 196.2314910888672V231.44259643554688L226.2168426513672 232.1108856201172L226.5625 233.370849609375C226.61663818359375 233.5408172607422 226.67002868652344 233.7117462158203 226.72264099121094 233.8835906982422ZM116.21004486083984 669.0897827148438C116.21208190917969 669.3446044921875 116.21207427978516 669.5980224609375 116.21004486083984 669.8501586914062V676.0297241210938C116.21064758300781 676.104736328125 116.21106719970703 676.1796875 116.21131134033203 676.2544555664062L116.2192611694336 676.4630126953125C116.36852264404297 677.9619140625 116.42973327636719 679.5101928710938 116.39615631103516 681.1067504882812L116.4014892578125 681.2466430664062C116.415771484375 684.8162231445312 116.0296401977539 688.1206665039062 115.30267333984375 691.1597900390625L115.28363037109375 691.5597534179688C115.43692779541016 694.5299682617188 115.23518371582031 697.6760864257812 114.62635803222656 700.98681640625C114.3727035522461 702.7167358398438 114.02029418945312 704.3701171875 113.57765197753906 705.947021484375V708.91064453125C113.5757064819336 709.0130004882812 113.57344055175781 709.1151123046875 113.57084655761719 709.217041015625C114.17483520507812 709.651611328125 114.75958251953125 710.104248046875 115.3250961303711 710.573974609375C115.73052215576172 710.859619140625 116.12657928466797 711.1507568359375 116.51335144042969 711.4470825195312C116.68555450439453 711.5225219726562 116.85662841796875 711.5988159179688 117.02656555175781 711.6759033203125C118.97714233398438 712.3289184570312 120.95671844482422 713.15771484375 122.95854187011719 714.1754760742188L128.1754608154297 716.760009765625C128.99551391601562 717.1778564453125 129.78775024414062 717.6113891601562 130.5526580810547 718.0596313476562L132.1295928955078 718.8054809570312L132.99209594726562 718.9999389648438L136.9820098876953 719.3923950195312C138.04896545410156 719.5059204101562 139.0881805419922 719.6527099609375 140.09983825683594 719.8311157226562C141.5772247314453 719.9840087890625 143.09091186523438 720.218994140625 144.63987731933594 720.5410766601562L144.6708984375 720.5484008789062C145.7777862548828 720.7667846679688 146.85076904296875 721.02197265625 147.89015197753906 721.311767578125L148.15440368652344 721.3744506835938C148.2908172607422 721.3991088867188 148.4275360107422 721.4244384765625 148.5645294189453 721.450439453125L158.898193359375 723.4165649414062L168.95669555664062 725.03759765625L173.4024658203125 725.5606079101562C173.23440551757812 722.352294921875 173.50975036621094 719.2955932617188 174.1626739501953 716.4149780273438C174.47462463378906 714.0833129882812 174.97451782226562 711.886962890625 175.64039611816406 709.8262329101562C175.91685485839844 708.8619995117188 176.23263549804688 707.8878173828125 176.5891876220703 706.904052734375C176.8682098388672 706.0558471679688 177.16871643066406 705.231689453125 177.48960876464844 704.431396484375C177.73544311523438 703.7587890625 178.00096130371094 703.0820922851562 178.28663635253906 702.4014892578125L179.387451171875 699.7691040039062C179.52517700195312 699.4409790039062 179.66552734375 699.1168823242188 179.8084716796875 698.7966918945312L179.90106201171875 696.4357299804688C179.899169921875 695.6298828125 179.91915893554688 694.810546875 179.9617919921875 693.9778442382812L180.1532440185547 690.24462890625C180.20867919921875 689.2366943359375 180.29469299316406 688.2516479492188 180.40997314453125 687.2894287109375C180.43533325195312 686.5927734375 180.47723388671875 685.88671875 180.5361328125 685.1712646484375L180.83824157714844 681.286865234375L180.87115478515625 680.8637084960938L181.25405883789062 676.0297241210938C181.28976440429688 675.6161499023438 181.33055114746094 675.2066650390625 181.3762969970703 674.8011474609375L181.63694763183594 670.9563598632812C181.65557861328125 670.6912231445312 181.67633056640625 670.427734375 181.69915771484375 670.1658935546875L181.7566680908203 668.1962280273438L181.71792602539062 667.6102905273438C181.15386962890625 665.9075317382812 180.70291137695312 664.1109008789062 180.37757873535156 662.2203369140625C179.31124877929688 657.33935546875 179.16641235351562 652.7827758789062 179.7703399658203 648.5973510742188V626.4928588867188L179.63641357421875 621.504150390625C179.60113525390625 620.8009033203125 179.58180236816406 620.0867309570312 179.5789031982422 619.3615112304688V611.70361328125C179.57852172851562 611.639892578125 179.57864379882812 611.5760498046875 179.5789031982422 611.5121459960938V607.0556640625C179.57687377929688 606.8035278320312 179.5768585205078 606.550048828125 179.5789031982422 606.2952270507812L179.58030700683594 606.26513671875C179.59059143066406 605.0748291015625 179.6453094482422 603.9143676757812 179.74221801757812 602.7838745117188L179.76681518554688 602.2550048828125C179.7677459716797 602.1660766601562 179.76890563964844 602.0769653320312 179.7703399658203 601.9877319335938V599.455322265625C179.75372314453125 598.7467041015625 179.7535400390625 598.02734375 179.7703399658203 597.2972412109375L179.93307495117188 591.9271240234375C179.93434143066406 591.4249877929688 179.94384765625 590.917724609375 179.9617919921875 590.4051513671875L180.10214233398438 585.177001953125C180.09776306152344 584.3803100585938 180.11456298828125 583.5703735351562 180.1532440185547 582.747314453125L180.61685180664062 575.3294067382812C180.63082885742188 574.5130004882812 180.66746520996094 573.6831665039062 180.72756958007812 572.8399658203125L181.25405883789062 563.8419799804688C181.35499572753906 562.5015869140625 181.50970458984375 561.202880859375 181.71499633789062 559.9456787109375L182.01983642578125 556.5669555664062C182.14987182617188 555.2846069335938 182.328125 554.0419311523438 182.55178833007812 552.8385620117188L183.12066650390625 547.5689697265625C183.1491241455078 547.3214111328125 183.17935180664062 547.0753784179688 183.21136474609375 546.830810546875L183.73147583007812 541.4995727539062L183.94204711914062 537.6829833984375L183.5234375 534.0986328125L183.35888671875 532.9824829101562C182.71372985839844 530.3292846679688 182.318603515625 527.4702758789062 182.21128845214844 524.4039306640625L181.90037536621094 517.7193603515625L181.36941528320312 514.5999755859375C181.15557861328125 513.5767822265625 180.9768829345703 512.5243530273438 180.83522033691406 511.4423828125C180.4875946044922 509.1775817871094 180.32150268554688 506.9958190917969 180.3210906982422 504.8996887207031L179.9617919921875 499.18084716796875C179.83670043945312 497.2012023925781 179.84011840820312 495.2960510253906 179.9617919921875 493.4659729003906V469.0758361816406L179.80262756347656 462.709228515625C179.7873077392578 462.3298645019531 179.77650451660156 461.9472961425781 179.7703399658203 461.5615539550781L179.59683227539062 453.97027587890625C179.5896453857422 453.7734375 179.5836639404297 453.5757751464844 179.5789031982422 453.3772277832031L179.40036010742188 441.861083984375C179.39573669433594 441.7594299316406 179.3914337158203 441.6575012207031 179.387451171875 441.5553894042969L179.05299377441406 431.27069091796875C179.0350799560547 431.0308837890625 179.0189208984375 430.7897033691406 179.0045623779297 430.5472106933594L178.60520935058594 424.4481506347656C178.55657958984375 423.997314453125 178.51416015625 423.5415344238281 178.4780731201172 423.0807800292969L178.0257110595703 416.8984680175781C177.98074340820312 416.5218200683594 177.94004821777344 416.1416320800781 177.9037322998047 415.7579345703125L177.2788848876953 408.1425476074219C177.2276153564453 407.76507568359375 177.1806182861328 407.38397216796875 177.13795471191406 406.999267578125L176.2060546875 397.95635986328125C175.97125244140625 396.7059631347656 175.78623962402344 395.4128112792969 175.65423583984375 394.07659912109375L174.36196899414062 380.6274719238281C174.17294311523438 378.7064208984375 174.10781860351562 376.8511962890625 174.1572265625 375.062744140625L173.8492889404297 369.5003662109375C173.4386749267578 366.6147766113281 173.33871459960938 363.5262145996094 173.59619140625 360.2384033203125L173.59825134277344 360.2149963378906C173.64915466308594 359.274169921875 173.73057556152344 358.35296630859375 173.84120178222656 357.451416015625L174.65757751464844 348.1650695800781C174.68145751953125 347.7731628417969 174.71054077148438 347.3783874511719 174.744873046875 346.980712890625L175.46279907226562 338.1741638183594C175.50242614746094 337.7152404785156 175.54830932617188 337.2613220214844 175.60031127929688 336.8123779296875L176.049560546875 331.11236572265625C175.660888671875 328.23956298828125 175.57781982421875 325.1679382324219 175.84568786621094 321.9012145996094L175.87843322753906 321.5601806640625C175.93235778808594 320.7471923828125 176.00926208496094 319.94915771484375 176.10826110839844 319.16607666015625L176.20504760742188 318.157958984375C176.26890563964844 316.7615966796875 176.40296936035156 315.3288879394531 176.61148071289062 313.8604431152344L176.98878479003906 311.15972900390625C176.77291870117188 309.1119384765625 176.70596313476562 306.9647521972656 176.80291748046875 304.7188720703125L176.94403076171875 302.1990966796875L176.81016540527344 301.314453125L175.70877075195312 297.7444152832031L174.61488342285156 295.556640625C174.4653778076172 295.31109619140625 174.31724548339844 295.0627136230469 174.1705322265625 294.8114929199219L170.62876892089844 288.6373291015625C169.66281127929688 286.9623718261719 168.8369903564453 285.2965087890625 168.14312744140625 283.6445007324219L166.1297607421875 279.4957580566406C165.12973022460938 277.3759765625 164.3348846435547 275.2860107421875 163.72988891601562 273.233154296875C162.58665466308594 270.8256530761719 161.6363067626953 268.1777038574219 160.912841796875 265.2808532714844L159.76416015625 260.3989562988281L159.33575439453125 259.0066223144531C159.2864532470703 258.8493347167969 159.23780822753906 258.6912536621094 159.1898193359375 258.5323486328125C159.0930633544922 258.2163391113281 159.000244140625 257.9014892578125 158.91131591796875 257.5878601074219L158.52735900878906 256.2857666015625C158.230224609375 255.38670349121094 157.95608520507812 254.46051025390625 157.70611572265625 253.5068817138672L157.38436889648438 252.36520385742188C156.77383422851562 250.6431884765625 156.26951599121094 248.81849670410156 155.8832550048828 246.88990783691406C155.30987548828125 244.45021057128906 154.96522521972656 242.0910186767578 154.8282012939453 239.81788635253906C154.6172637939453 238.41441345214844 154.47454833984375 236.9606475830078 154.4049530029297 235.4566192626953C154.26766967773438 233.56021118164062 154.25450134277344 231.7300567626953 154.3557891845703 229.9672393798828V196.1207275390625C154.3557891845703 191.56541442871094 155.00613403320312 187.44366455078125 156.18301391601562 183.75546264648438L152.60044860839844 184.14222717285156L146.90985107421875 185.16786193847656L143.2145538330078 186.2533416748047L139.1836395263672 187.88851928710938C139.17112731933594 187.89344787597656 139.1586151123047 187.89834594726562 139.14610290527344 187.90325927734375L135.1067657470703 189.63043212890625C134.35179138183594 189.9802703857422 133.57379150390625 190.31385803222656 132.7724609375 190.63037109375C131.36546325683594 191.21957397460938 129.97421264648438 191.72105407714844 128.6007080078125 192.1392059326172L125.33444213867188 193.29600524902344C125.11949920654297 193.37606811523438 124.90291595458984 193.45486450195312 124.68470001220703 193.53237915039062L124.68473815917969 193.53909301757812L124.78901672363281 195.98974609375L124.81854248046875 196.2923583984375L125.35162353515625 198.70526123046875C125.39013671875 198.89801025390625 125.42729949951172 199.0902099609375 125.463134765625 199.2818603515625L126.01331329345703 201.5844268798828C126.18803405761719 202.23890686035156 126.35050964355469 202.9064483642578 126.50030517578125 203.587158203125L128.36691284179688 212.15438842773438C128.61097717285156 213.2634735107422 128.809814453125 214.3548583984375 128.9652862548828 215.42816162109375L129.3105010986328 217.2310028076172C129.64669799804688 218.65237426757812 129.91761779785156 220.13291931152344 130.11819458007812 221.67318725585938C130.300537109375 222.91429138183594 130.42721557617188 224.1306610107422 130.50091552734375 225.3217315673828L131.10696411132812 231.4085235595703C131.2946014404297 232.6256103515625 131.43515014648438 233.88131713867188 131.52577209472656 235.1758575439453L132.16493225097656 244.68325805664062L134.15817260742188 256.0914001464844C134.3016815185547 256.974853515625 134.41761779785156 257.8459167480469 134.50692749023438 258.7043762207031L134.84811401367188 260.5662536621094C135.52964782714844 263.1102294921875 135.9755401611328 265.8485412597656 136.15040588378906 268.78216552734375C136.2829132080078 270.3103942871094 136.3301544189453 271.79815673828125 136.29754638671875 273.24444580078125L136.54156494140625 282.05926513671875C136.6183624267578 283.3268737792969 136.64077758789062 284.63055419921875 136.60560607910156 285.97015380859375C136.59510803222656 286.6158142089844 136.57101440429688 287.25274658203125 136.53370666503906 287.8808288574219L136.0757293701172 299.6736145019531C136.07168579101562 300.29449462890625 136.05482482910156 300.9233093261719 136.0247802734375 301.55999755859375L135.2589874267578 317.2586364746094L134.92396545410156 326.7830810546875C134.9137725830078 326.9990539550781 134.90216064453125 327.2139587402344 134.88912963867188 327.4278259277344L134.5410614013672 335.7810974121094C134.52037048339844 336.2212219238281 134.49380493164062 336.656982421875 134.4614715576172 337.0884704589844L133.9667205810547 346.4063720703125C133.96473693847656 346.46319580078125 133.962646484375 346.51995849609375 133.96046447753906 346.5766296386719L133.77528381347656 357.2709655761719C133.76852416992188 357.4888000488281 133.7603302001953 357.7055969238281 133.7506866455078 357.9213562011719L133.3923797607422 372.9696044921875V384.74359130859375C133.390625 384.8601989746094 133.38845825195312 384.97650146484375 133.3858642578125 385.092529296875L133.20094299316406 400.44219970703125V443.0743408203125C133.23292541503906 444.0472717285156 133.23338317871094 445.0406494140625 133.20094299316406 446.05438232421875L132.86590576171875 455.2438049316406C132.80799865722656 457.05364990234375 132.6496124267578 458.7915344238281 132.39852905273438 460.4577941894531L132.11476135253906 463.70343017578125C132.11073303222656 463.86639404296875 132.10585021972656 464.0299072265625 132.10011291503906 464.1939392089844L131.71722412109375 475.25C131.6521453857422 476.9187316894531 131.50205993652344 478.5258483886719 131.27305603027344 480.07159423828125L130.22482299804688 491.53466796875C130.18524169921875 492.31689453125 130.12454223632812 493.1106872558594 130.0420684814453 493.9160461425781L128.962158203125 503.7552185058594L129.05706787109375 513.656494140625C129.1637725830078 515.31103515625 129.17547607421875 517.0270385742188 129.0848388671875 518.8041381835938L128.45208740234375 531.3326416015625C128.4416961669922 532.0596313476562 128.41348266601562 532.7973022460938 128.36691284179688 533.5455322265625L127.40967559814453 548.3347778320312C127.2304916381836 551.0496215820312 126.83110046386719 553.5947875976562 126.23759460449219 555.9720458984375L125.35162353515625 561.5924682617188C125.06243133544922 563.33642578125 124.68799591064453 565.0003662109375 124.23538208007812 566.58544921875L122.40581512451172 574.5025024414062C122.33837127685547 574.8085327148438 122.26736450195312 575.1158447265625 122.19275665283203 575.4244995117188L122.16693115234375 575.5313720703125L119.7518081665039 585.5233154296875C119.63939666748047 585.99072265625 119.52106475830078 586.4517822265625 119.39695739746094 586.906494140625L118.37895965576172 591.89208984375L117.41016387939453 598.8350830078125L117.017333984375 603.758544921875C117.0124740600586 604.279541015625 116.99870300292969 604.8060302734375 116.975830078125 605.3380126953125L116.4014892578125 615.8197021484375C116.39485931396484 615.9607543945312 116.38762664794922 616.1013793945312 116.37979888916016 616.2415161132812L116.21004486083984 625.53564453125Z" fill="black"/>
</svg>
