<svg xmlns="http://www.w3.org/2000/svg" viewBox="0 0 584 1000">
  <path d="M264.9166259765625 115.68745422363281H271.9921875C272.0281982421875 115.68736267089844 272.06414794921875 115.68732452392578 272.10009765625 115.68745422363281H277.1048278808594L277.26641845703125 115.6873550415039L277.32037353515625 115.68745422363281H284.1596984863281L284.32122802734375 115.6873550415039L284.37518310546875 115.68745422363281H291.6457824707031C293.19976806640625 115.69322204589844 294.6981201171875 115.78192901611328 296.140869140625 115.94763946533203L300.29229736328125 116.21353149414062C301.303955078125 116.28352355957031 302.28961181640625 116.38724517822266 303.24945068359375 116.52304077148438L305.7483215332031 116.7561264038086C306.174072265625 116.77981567382812 306.6035461425781 116.81023406982422 307.0368347167969 116.84751892089844L309.8003234863281 117.08342742919922C310.7103576660156 117.13499450683594 311.6371765136719 117.21922302246094 312.5804748535156 117.3375015258789C313.4064636230469 117.43138122558594 314.21405029296875 117.54789733886719 315.0032958984375 117.68608093261719L318.38800048828125 118.18669128417969C318.62744140625 118.2147216796875 318.8679504394531 118.24493408203125 319.10955810546875 118.27735900878906L325.4764099121094 119.11368560791016C325.69818115234375 119.14341735839844 325.9185791015625 119.1747055053711 326.1376037597656 119.20752716064453L327.2461242675781 119.32896423339844C328.3882751464844 119.39798736572266 329.5566101074219 119.5186538696289 330.7506408691406 119.69371032714844L337.38726806640625 120.69190216064453C337.7254333496094 120.7414779663086 338.06036376953125 120.79464721679688 338.3920593261719 120.8513412475586L342.366455078125 121.39447784423828C342.4825134277344 121.4070816040039 342.598876953125 121.4201889038086 342.7154541015625 121.43380737304688L347.0882263183594 121.9841537475586C348.08477783203125 122.07524871826172 349.10028076171875 122.20594787597656 350.13446044921875 122.37804412841797L354.1407165527344 123.01202392578125C354.896484375 123.13814544677734 355.63568115234375 123.281982421875 356.3584289550781 123.44284057617188L356.99420166015625 123.55440521240234C358.4011535644531 123.73849487304688 359.8419494628906 124.00672912597656 361.315185546875 124.36445617675781C361.88897705078125 124.49463653564453 362.45233154296875 124.6353988647461 363.00531005859375 124.78641510009766L364.8550720214844 125.24884796142578C365.14910888671875 125.30903625488281 365.44451904296875 125.37276458740234 365.7413024902344 125.4400634765625L370.3680725097656 126.4922103881836C371.7357177734375 126.80408477783203 373.0444030761719 127.17190551757812 374.2950744628906 127.5914306640625C375.651123046875 127.9131088256836 377.0315246582031 128.31845092773438 378.4345397949219 128.8123321533203L378.97161865234375 129.00486755371094C379.1383361816406 129.0634002685547 379.3039855957031 129.12278747558594 379.4685974121094 129.1830291748047L381.9071350097656 130.05722045898438C382.88427734375 130.36990356445312 383.87176513671875 130.7277069091797 384.86883544921875 131.13246154785156L389.32904052734375 132.9365692138672C390.1340026855469 133.234130859375 390.945068359375 133.56317138671875 391.7617492675781 133.92469787597656L397.66998291015625 136.55506896972656Q397.97076416015625 136.688232421875 398.26654052734375 136.82455444335938L399.62774658203125 137.4050750732422C400.73504638671875 137.8226776123047 401.85064697265625 138.3041229248047 402.97283935546875 138.85235595703125C404.4687194824219 139.5459442138672 405.86773681640625 140.30088806152344 407.1728820800781 141.1103973388672L410.5790100097656 142.98936462402344C411.0923767089844 143.27365112304688 411.5931396484375 143.56446838378906 412.0813903808594 143.86154174804688L416.4737548828125 146.2537078857422C416.8210144042969 146.4459991455078 417.1624755859375 146.6412811279297 417.4981994628906 146.8394775390625L420.4314880371094 148.439453125C421.43267822265625 148.94093322753906 422.4373779296875 149.49801635742188 423.4441833496094 150.11288452148438C423.94403076171875 150.408935546875 424.4310607910156 150.71153259277344 424.90545654296875 151.02037048339844L427.92987060546875 152.90122985839844C428.3643493652344 153.15211486816406 428.7992248535156 153.41371154785156 429.23443603515625 153.6862030029297L431.60693359375 155.16506958007812C432.24365234375 155.53701782226562 432.8797607421875 155.93368530273438 433.51470947265625 156.355712890625C435.2633361816406 157.46450805664062 436.8494567871094 158.64625549316406 438.2805480957031 159.88888549804688L438.6231689453125 160.15122985839844C439.8056945800781 160.95602416992188 440.9803771972656 161.8526153564453 442.1434631347656 162.8452911376953L444.6246643066406 164.98695373535156C445.41827392578125 165.6173095703125 446.2058410644531 166.29232788085938 446.9860534667969 167.01341247558594L449.21343994140625 169.0758056640625C449.81781005859375 169.6022491455078 450.4161071777344 170.15716552734375 451.00750732421875 170.74118041992188C452.36517333984375 172.02874755859375 453.5804138183594 173.3501434326172 454.66046142578125 174.6975860595703L455.3434753417969 175.4583282470703C455.7470397949219 175.89120483398438 456.1466064453125 176.33859252929688 456.5420227050781 176.80075073242188C456.7420959472656 177.03070068359375 456.9383239746094 177.2612762451172 457.1307373046875 177.49237060546875L457.7774963378906 178.25216674804688C459.04278564453125 179.5552215576172 460.2547607421875 181.0055694580078 461.4023132324219 182.61038208007812C462.5566101074219 184.1304931640625 463.554443359375 185.66595458984375 464.4050598144531 187.2089080810547L464.5816955566406 187.48583984375C464.7980651855469 187.8050994873047 465.0119934082031 188.13015747070312 465.2232971191406 188.46104431152344L467.27362060546875 191.67144775390625C468.00775146484375 192.82066345214844 468.6650695800781 193.96832275390625 469.2489929199219 195.11228942871094L469.5937805175781 195.72129821777344C470.141845703125 196.5956268310547 470.6684875488281 197.51153564453125 471.1719665527344 198.46995544433594L473.2030944824219 202.346435546875C473.2959289550781 202.52099609375 473.38800048828125 202.69700622558594 473.4792175292969 202.87445068359375Q473.70965576171875 203.31942749023438 473.9263610839844 203.76287841796875L475.8661804199219 207.6425323486328C476.2728271484375 208.45361328125 476.6457214355469 209.26052856445312 476.9859313964844 210.06272888183594C477.1776428222656 210.45770263671875 477.36480712890625 210.8598175048828 477.5472106933594 211.26905822753906C477.886962890625 212.00770568847656 478.1996765136719 212.7421875 478.4861145019531 213.4720916748047C478.9032897949219 214.40481567382812 479.2940979003906 215.37509155273438 479.6566162109375 216.38345336914062L479.7388000488281 216.61538696289062C479.8069152832031 216.8032989501953 479.8733825683594 216.99085998535156 479.93817138671875 217.17803955078125L480.4715270996094 218.6833038330078C480.6610412597656 219.1707763671875 480.8436279296875 219.66761779785156 481.0190124511719 220.17388916015625L482.3409423828125 224.03175354003906C482.815185546875 225.40635681152344 483.20489501953125 226.75885009765625 483.51470947265625 228.087646484375L483.763427734375 228.96131896972656C484.18743896484375 230.20933532714844 484.55999755859375 231.51544189453125 484.87689208984375 232.88059997558594L485.3335266113281 234.94190979003906C485.7251281738281 236.36192321777344 486.0470886230469 237.85073852539062 486.2932434082031 239.40931701660156L486.39569091796875 240.0953369140625C486.42578125 240.28726196289062 486.454345703125 240.47854614257812 486.48138427734375 240.6692352294922L486.8434143066406 243.09373474121094C487.1056213378906 244.37774658203125 487.3103332519531 245.71240234375 487.45330810546875 247.09808349609375L487.8974304199219 251.41539001464844C487.9798278808594 252.07571411132812 488.04705810546875 252.74798583984375 488.0986328125 253.43223571777344C488.1592102050781 254.1391143798828 488.2011413574219 254.83616638183594 488.22503662109375 255.52322387695312L488.3837585449219 258.296875C488.4408264160156 258.9808044433594 488.4815673828125 259.6767883300781 488.5054626464844 260.38482666015625L488.60296630859375 263.2698059082031C488.6510925292969 264.03448486328125 488.67681884765625 264.8135070800781 488.67926025390625 265.6068115234375C488.7167663574219 267.27618408203125 488.6557922363281 268.88421630859375 488.5037536621094 270.4304504394531L488.4515075683594 271.5538024902344C488.3704528808594 272.9831848144531 488.2216491699219 274.3616943359375 488.0097351074219 275.6895446777344C487.9043273925781 277.21600341796875 487.7031555175781 278.7874755859375 487.39935302734375 280.4026184082031L486.84326171875 283.2593078613281C486.7703552246094 283.6755676269531 486.69049072265625 284.0947570800781 486.6034851074219 284.5168151855469L485.93121337890625 287.850830078125C485.8194580078125 288.479736328125 485.6907653808594 289.11492919921875 485.54473876953125 289.7561950683594C485.30133056640625 290.8980712890625 485.01806640625 291.99951171875 484.6974792480469 293.06109619140625L484.1166076660156 295.2600402832031L483.5144348144531 297.89306640625C483.2499084472656 299.433349609375 482.878173828125 301.008544921875 482.39178466796875 302.6162414550781C482.04766845703125 303.8596496582031 481.65460205078125 305.0505065917969 481.2162780761719 306.1894836425781L480.18267822265625 309.2827453613281C480.089599609375 309.5614318847656 479.99432373046875 309.8372802734375 479.89691162109375 310.1103515625L479.6553649902344 310.8522644042969C479.2717590332031 312.2408752441406 478.79736328125 313.65185546875 478.2267761230469 315.08306884765625L476.355712890625 319.777099609375C476.1102294921875 320.4315490722656 475.8439636230469 321.0899658203125 475.556396484375 321.7520751953125C475.3475036621094 322.24310302734375 475.1318664550781 322.7242431640625 474.9097595214844 323.1955261230469L473.4291687011719 326.48406982421875C473.04766845703125 327.41290283203125 472.6221008300781 328.3480224609375 472.15081787109375 329.2884826660156C471.91619873046875 329.7742614746094 471.675048828125 330.24951171875 471.4276123046875 330.7143249511719L468.85186767578125 335.7887878417969C468.43939208984375 336.5971984863281 468.0102233886719 337.37591552734375 467.5654602050781 338.12542724609375L465.0614318847656 342.6412658691406C464.5312194824219 343.58270263671875 463.9790954589844 344.48114013671875 463.4068298339844 345.3375244140625L461.9629211425781 347.7173156738281C461.3760986328125 348.78082275390625 460.7237243652344 349.845703125 460.0030212402344 350.9100646972656L455.8574523925781 357.0534973144531C455.7134094238281 357.2718811035156 455.5665283203125 357.490234375 455.4167175292969 357.70855712890625L450.9923095703125 364.1293640136719L447.72796630859375 368.9314880371094C447.1070861816406 369.8343505859375 446.4677734375 370.6911315917969 445.8117370605469 371.5030212402344L443.69927978515625 374.4170227050781C443.1827392578125 375.1895446777344 442.6285400390625 375.9602355957031 442.0355529785156 376.7281799316406L438.8661804199219 380.7672119140625C438.31298828125 381.5510559082031 437.7197265625 382.331787109375 437.0850830078125 383.1084899902344L433.8611755371094 387.0068359375C433.4068908691406 387.5608215332031 432.9464416503906 388.09454345703125 432.480224609375 388.6083068847656L430.8126525878906 390.5814514160156C430.44073486328125 391.01617431640625 430.0651550292969 391.4378662109375 429.6861267089844 391.8467712402344L428.34161376953125 393.35235595703125C428.011962890625 393.7328186035156 427.6716613769531 394.1116638183594 427.32049560546875 394.4887390136719C427.3065185546875 394.5037536621094 427.2925109863281 394.51873779296875 427.2787780761719 394.53399658203125C427.1238098144531 394.701904296875 426.96832275390625 394.86767578125 426.8122863769531 395.0313415527344L425.06689453125 396.8940734863281C424.5818176269531 397.44683837890625 424.07366943359375 397.9956359863281 423.5420227050781 398.5400085449219L419.48358154296875 402.67919921875C419.06475830078125 403.1224060058594 418.6302795410156 403.56243896484375 418.1799011230469 403.9989929199219C417.95574951171875 404.2195129394531 417.7305908203125 404.43609619140625 417.5046691894531 404.6485900878906L415.4130554199219 406.6594543457031C414.75274658203125 407.3346862792969 414.05450439453125 408.0008850097656 413.31732177734375 408.6568298339844L413.1128234863281 408.83673095703125C412.90838623046875 409.02020263671875 412.7033996582031 409.20050048828125 412.4979248046875 409.3776550292969L410.7351989746094 410.9283142089844C410.226806640625 411.404296875 409.6982727050781 411.8747863769531 409.149169921875 412.33935546875L406.8830261230469 414.2413024902344C406.4486999511719 414.6091003417969 406.0128479003906 414.9635925292969 405.5756530761719 415.3050231933594C404.7022705078125 416.0762023925781 403.7716979980469 416.8285217285156 402.7823486328125 417.5596008300781L400.9581298828125 418.8999328613281L407.9891052246094 420.931884765625C408.3463134765625 421.0357360839844 408.6991271972656 421.14324951171875 409.047607421875 421.25439453125L416.2121276855469 423.4004211425781C416.35302734375 423.4400329589844 416.4941711425781 423.48046875 416.6356201171875 423.52178955078125L421.4932861328125 424.9184875488281C422.14453125 425.0895690917969 422.80126953125 425.2798156738281 423.4632568359375 425.48974609375C424.3425598144531 425.75726318359375 425.19482421875 426.0473937988281 426.0203552246094 426.3589172363281L432.00030517578125 428.42681884765625C432.6693115234375 428.6326904296875 433.3436279296875 428.8590087890625 434.0230407714844 429.10626220703125L440.4760437011719 431.4767761230469C441.69989013671875 431.8594055175781 442.9396667480469 432.3134765625 444.1938171386719 432.8427429199219L451.72412109375 436.0612487792969C452.0592041015625 436.1969909667969 452.3952941894531 436.338134765625 452.7323913574219 436.48480224609375L460.6909484863281 439.95147705078125Q461.061767578125 440.11273193359375 461.4250183105469 440.27886962890625L464.2673645019531 441.4731750488281C465.32330322265625 441.8747253417969 466.388427734375 442.33221435546875 467.46148681640625 442.8480224609375C467.9375915527344 443.0697326660156 468.4038391113281 443.29779052734375 468.86029052734375 443.531982421875L475.016357421875 446.5476379394531C476.0269470214844 447.0421447753906 476.9924011230469 447.5629577636719 477.9136962890625 448.1080627441406L479.85906982421875 449.1687316894531C480.7943420410156 449.638671875 481.7322998046875 450.1575012207031 482.67156982421875 450.72705078125C483.4763488769531 451.2005920410156 484.248291015625 451.6907958984375 484.9880676269531 452.19647216796875L486.82879638671875 453.37603759765625C487.58099365234375 453.8225402832031 488.3334655761719 454.3023376464844 489.0854797363281 454.81646728515625L492.38543701171875 457.1030578613281L492.51171875 457.1905517578125C492.52178955078125 457.197265625 492.5317077636719 457.2041931152344 492.5416564941406 457.2110900878906C492.93408203125 457.4804382324219 493.3179016113281 457.7533264160156 493.693115234375 458.0295715332031L496.7203063964844 460.18511962890625C497.27392578125 460.5867004394531 497.80938720703125 460.9949951171875 498.3270568847656 461.40960693359375L501.0569152832031 463.4172058105469C502.07403564453125 464.1019592285156 503.085205078125 464.8546142578125 504.0881042480469 465.67791748046875C504.93719482421875 466.3489074707031 505.7392883300781 467.0364685058594 506.4955749511719 467.73883056640625L506.7152404785156 467.9284362792969C508.0627746582031 468.97308349609375 509.38836669921875 470.1491394042969 510.68487548828125 471.46356201171875C511.0615539550781 471.8325500488281 511.42657470703125 472.20458984375 511.78009033203125 472.57940673828125L513.3416137695312 474.1706237792969C514.7311401367188 475.40875244140625 516.0755004882812 476.8054504394531 517.3631591796875 478.369384765625C518.6371459960938 479.8285217285156 519.7510986328125 481.31488037109375 520.71435546875 482.81951904296875L521.0565795898438 483.2844543457031C521.8363647460938 484.2601318359375 522.5906982421875 485.30059814453125 523.3165283203125 486.4078369140625L523.334228515625 486.43487548828125C523.5673828125 486.779052734375 523.7926025390625 487.1238098144531 524.0105590820312 487.46875L524.5932006835938 488.3594055175781C525.69580078125 489.825927734375 526.7262573242188 491.4344177246094 527.6723022460938 493.19085693359375C528.534912109375 494.69061279296875 529.26806640625 496.1869812011719 529.8792114257812 497.6748962402344C530.315673828125 498.5188293457031 530.7310180664062 499.3964538574219 531.123779296875 500.3083801269531C531.1768798828125 500.4278564453125 531.2293090820312 500.5472106933594 531.281005859375 500.66644287109375C532.3285522460938 502.6690673828125 533.2158203125 504.8663330078125 533.914794921875 507.26385498046875C534.7451782226562 509.7165832519531 535.2882080078125 512.1072998046875 535.5728759765625 514.423828125C535.7059936523438 515.0547485351562 535.826171875 515.697998046875 535.9330444335938 516.3536376953125L536.7694091796875 521.5739135742188C536.8576049804688 522.11962890625 536.934326171875 522.6600952148438 536.9998168945312 523.1953125L537.5652465820312 527.0504760742188C537.6187133789062 527.4097290039062 537.667236328125 527.7666625976562 537.7108764648438 528.1212768554688L538.4015502929688 532.6889038085938L538.4200439453125 532.8175048828125L538.9639892578125 535.85888671875C539.3499755859375 537.4781494140625 539.6422119140625 539.1819458007812 539.8314208984375 540.9712524414062L540.4935913085938 547.5538940429688L541.099365234375 552.1941528320312C541.1534423828125 552.6439819335938 541.199951171875 553.0899658203125 541.239013671875 553.5321655273438L541.4179077148438 555.1767578125C541.4744873046875 555.580810546875 541.5256958007812 555.9894409179688 541.5714721679688 556.4027099609375L541.9215698242188 559.5419921875L542.5157470703125 563.3630981445312C542.5807495117188 563.8026123046875 542.6383666992188 564.2385864257812 542.688720703125 564.6710815429688L543.1720581054688 567.8021240234375C543.2732543945312 568.3795776367188 543.3631591796875 568.9669189453125 543.44140625 569.5639038085938C543.5585327148438 570.3823852539062 543.6497802734375 571.188720703125 543.716064453125 571.9827880859375L543.8759765625 573.4385986328125C543.9998779296875 574.3152465820312 544.095703125 575.2132568359375 544.1621704101562 576.1326904296875C544.2640991210938 577.2947998046875 544.3157958984375 578.43017578125 544.3198852539062 579.5385131835938C544.4618530273438 581.290283203125 544.478759765625 583.1171875 544.35888671875 585.0178833007812C544.3016357421875 586.7817993164062 544.1309814453125 588.4717407226562 543.8567504882812 590.0872192382812L543.621826171875 592.28369140625C543.5280151367188 593.1504516601562 543.4100952148438 593.9970703125 543.2691040039062 594.82373046875L542.6776123046875 598.933837890625C542.5108642578125 600.0921630859375 542.3020629882812 601.2127075195312 542.0537109375 602.2957763671875C541.859619140625 603.55908203125 541.5952758789062 604.8474731445312 541.2566528320312 606.159912109375C540.961181640625 607.4067993164062 540.6168212890625 608.603759765625 540.2271728515625 609.75146484375L540.1907958984375 609.87548828125C539.8475952148438 611.3599853515625 539.39697265625 612.8690185546875 538.8317260742188 614.3994750976562C538.072265625 616.6632690429688 537.158935546875 618.739013671875 536.1139526367188 620.633056640625L535.579833984375 621.8051147460938C535.5056762695312 621.977783203125 535.4301147460938 622.1506958007812 535.35302734375 622.3238525390625L533.85986328125 625.7279663085938C533.5909423828125 626.3886108398438 533.29931640625 627.0520629882812 532.984375 627.7181396484375C532.3111572265625 629.20458984375 531.5790405273438 630.5974731445312 530.7943725585938 631.8995971679688L529.3369140625 634.5989379882812C529.22802734375 634.801513671875 529.1181030273438 635.0021362304688 529.0071411132812 635.2008666992188L527.0302734375 638.821044921875C526.912109375 639.03515625 526.7927856445312 639.2470703125 526.67236328125 639.456787109375L525.2362060546875 642.1932983398438C524.9302978515625 642.7678833007812 524.6160888671875 643.3270263671875 524.2940063476562 643.8709716796875L524.1258544921875 644.180908203125C523.9872436523438 644.44873046875 523.8447875976562 644.7169799804688 523.698486328125 644.9855346679688L523.4458618164062 645.4483032226562C522.849609375 646.7094116210938 522.1664428710938 647.9769287109375 521.391845703125 649.2481079101562L519.02099609375 653.0870971679688C518.510009765625 653.9774169921875 517.9525756835938 654.8682861328125 517.346923828125 655.7584838867188C517.10498046875 656.1239013671875 516.8596801757812 656.4818115234375 516.6111450195312 656.8323974609375L514.3853149414062 660.0801391601562C513.95654296875 660.7551879882812 513.5000610351562 661.4296875 513.01513671875 662.1031494140625L508.7698059082031 667.9173583984375C508.4660949707031 668.3516845703125 508.1500244140625 668.7850341796875 507.8214416503906 669.2171630859375C507.0268249511719 670.2984619140625 506.2060546875 671.3093872070312 505.3623046875 672.252197265625L501.52239990234375 676.9141845703125C501.02203369140625 677.5167846679688 500.514404296875 678.0950317382812 500.0001220703125 678.6495361328125L497.3542785644531 681.6488647460938C496.7571716308594 682.3258056640625 496.15142822265625 682.9701538085938 495.53790283203125 683.5828247070312L495.13330078125 684.0081176757812C494.357177734375 684.9021606445312 493.5199890136719 685.78466796875 492.61962890625 686.6533203125L489.7194519042969 689.445556640625C489.1460876464844 689.9979858398438 488.5680847167969 690.5245971679688 487.9859313964844 691.0260620117188L486.71527099609375 692.1763305664062C485.87908935546875 693.0048828125 484.983642578125 693.8175659179688 484.0270690917969 694.6118774414062L477.754638671875 699.7781982421875Q477.44317626953125 700.0364990234375 477.13079833984375 700.2857666015625L471.4131774902344 705.0947265625Q471.16094970703125 705.3109130859375 470.90277099609375 705.5252075195312C470.8170471191406 705.5963745117188 470.7308044433594 705.6674194335938 470.6440734863281 705.73828125L470.5919494628906 705.7808227539062L470.23455810546875 706.070556640625L465.7080993652344 709.7403564453125C465.6679992675781 709.77392578125 465.6278076171875 709.8075561523438 465.5874938964844 709.841064453125L459.2698974609375 715.0835571289062C458.7271728515625 715.5729370117188 458.162353515625 716.0557861328125 457.5749816894531 716.5316162109375L450.9301452636719 721.8682861328125C450.689697265625 722.0780029296875 450.4451599121094 722.2864990234375 450.1964416503906 722.4937744140625L443.8021545410156 727.79638671875C443.1387023925781 728.3909301757812 442.4421691894531 728.975341796875 441.7118225097656 729.548583984375L437.5539855957031 732.7918701171875C436.527099609375 733.6731567382812 435.4229431152344 734.5267944335938 434.2388610839844 735.348876953125L426.3793029785156 740.7561645507812C426.1036071777344 740.9564208984375 425.82330322265625 741.1548461914062 425.5384216308594 741.3515014648438L418.7779541015625 746.03271484375C418.02081298828125 746.5943603515625 417.22723388671875 747.139892578125 416.3964538574219 747.6680297851562C415.41845703125 748.3125610351562 414.4398193359375 748.8992309570312 413.462158203125 749.4303588867188L407.14013671875 753.1741943359375L406.9302673339844 753.2984619140625L406.626708984375 753.4782104492188C405.6953125 754.0301513671875 404.7665100097656 754.53369140625 403.84124755859375 754.9905395507812L398.6604309082031 757.7656860351562C398.47869873046875 757.8648071289062 398.2953796386719 757.9630126953125 398.11041259765625 758.060302734375L397.92626953125 758.158935546875C397.11480712890625 758.58984375 396.3067932128906 758.9859619140625 395.5028076171875 759.3485107421875L390.9771728515625 761.538330078125C390.06903076171875 762.0193481445312 389.12127685546875 762.4761962890625 388.1331787109375 762.9071044921875L380.9936828613281 765.9862060546875C380.26751708984375 766.328857421875 379.51800537109375 766.6561889648438 378.7447814941406 766.96728515625L373.3184814453125 769.1401977539062C372.923583984375 769.304931640625 372.5223083496094 769.4651489257812 372.11456298828125 769.6206665039062C371.66033935546875 769.7979125976562 371.2080078125 769.965576171875 370.7578430175781 770.1236572265625L366.47015380859375 771.703857421875Q366.18218994140625 771.812744140625 365.889892578125 771.9182739257812L365.8081970214844 771.9476928710938C365.2846984863281 772.13916015625 364.7640075683594 772.3182373046875 364.2464294433594 772.4850463867188L361.81329345703125 773.31201171875C361.1523742675781 773.56201171875 360.474365234375 773.7989501953125 359.7791442871094 774.0220947265625L355.4811706542969 775.3876953125C354.8385009765625 775.6106567382812 354.180419921875 775.8211059570312 353.5067138671875 776.0184936523438L342.4456787109375 779.2423706054688L342.39080810546875 779.2584228515625L333.2731018066406 781.9266967773438C332.87353515625 782.0439453125 332.47607421875 782.1543579101562 332.080810546875 782.258056640625L324.8963623046875 784.246826171875C323.9668273925781 784.5006103515625 323.0494079589844 784.7178955078125 322.1445007324219 784.900146484375L318.7517395019531 785.7221069335938C317.3738098144531 786.1375732421875 315.9286804199219 786.488525390625 314.4153747558594 786.769287109375L305.4164123535156 788.3871459960938C304.5884094238281 788.558837890625 303.7392272949219 788.7078857421875 302.86871337890625 788.8331298828125L302.8526916503906 788.83544921875L302.05950927734375 788.949951171875L287.54510498046875 791.0452880859375C286.62103271484375 791.1795654296875 285.7124328613281 791.2813110351562 284.81951904296875 791.3517456054688L271.1019287109375 792.83935546875C270.10260009765625 792.9447021484375 269.1225891113281 793.0131225585938 268.1621398925781 793.046142578125L260.5618896484375 793.662841796875C259.23944091796875 793.8221435546875 257.8697509765625 793.9178466796875 256.4527893066406 793.9454345703125L256.3680419921875 793.94677734375C256.0026550292969 793.9573974609375 255.64016723632812 793.9630126953125 255.2805633544922 793.9637451171875L242.28099060058594 794.1671142578125C241.27056884765625 794.2344360351562 240.2346649169922 794.2645874023438 239.1732635498047 794.2557373046875L222.73007202148438 794.0938110351562C221.68099975585938 794.083740234375 220.65748596191406 794.0361328125 219.65953063964844 793.9527587890625L218.02476501464844 793.8712768554688C217.18551635742188 794.4328002929688 216.30601501464844 794.9593505859375 215.38592529296875 795.4478149414062C213.36228942871094 796.5292358398438 211.14317321777344 797.422119140625 208.72598266601562 798.0919189453125C208.6261444091797 798.1249389648438 208.5263214111328 798.1574096679688 208.42652893066406 798.1893310546875C202.9964599609375 800.0693969726562 197.76785278320312 800.40771484375 192.9435577392578 799.5621948242188C188.99647521972656 799.030517578125 185.1302490234375 797.7385864257812 181.56167602539062 795.583984375C179.49200439453125 794.4239501953125 177.61741638183594 793.0418701171875 175.94131469726562 791.4818115234375L170.36683654785156 791.1632690429688L170.19009399414062 791.1531982421875L169.91015625 791.13525390625L163.445556640625 790.7215576171875L163.26107788085938 790.7100219726562L159.34487915039062 790.4652709960938L157.9239044189453 790.3959350585938C157.66163635253906 790.3855590820312 157.39788818359375 790.3727416992188 157.13267517089844 790.3573608398438C156.33575439453125 790.3102416992188 155.5546875 790.2421875 154.78948974609375 790.1539306640625C113.84709167480469 785.961669921875 117.42974090576172 724.4437866210938 158.4693603515625 724.945068359375C159.29005432128906 724.943603515625 160.1259765625 724.9669799804688 160.97705078125 725.0162353515625C161.37020874023438 725.0396118164062 161.75950622558594 725.0681762695312 162.1449432373047 725.1016845703125L163.18927001953125 725.1781005859375L163.49325561523438 725.19677734375L167.35739135742188 725.4343872070312L170.1486053466797 725.5906982421875L170.6217498779297 722.5477294921875C170.78146362304688 721.5267944335938 170.97366333007812 720.5357666015625 171.1966094970703 719.5742797851562L171.7818145751953 716.6395263671875C171.87069702148438 716.1940307617188 171.96560668945312 715.7545776367188 172.06642150878906 715.3211059570312L172.59805297851562 712.6552734375L172.86441040039062 711.1315307617188C172.99293518066406 710.190673828125 173.1576385498047 709.2343139648438 173.3600311279297 708.2628173828125L174.19635009765625 704.3104858398438C174.34239196777344 703.6103515625 174.5032958984375 702.9253540039062 174.678466796875 702.2552490234375L175.00643920898438 700.8548583984375L175.4127655029297 698.64794921875L175.6852569580078 696.489013671875L175.73411560058594 695.7763671875V692.345703125L175.6898956298828 688.6305541992188C175.68409729003906 688.35986328125 175.6808319091797 688.0874633789062 175.68016052246094 687.8133544921875V659.4249267578125C175.67733764648438 659.1414794921875 175.6773223876953 658.856201171875 175.68016052246094 658.5690307617188L175.7249298095703 654.2487182617188C175.72174072265625 653.8313598632812 175.72476196289062 653.4099731445312 175.73411560058594 652.9845581054688L175.80624389648438 650.0888061523438C175.80796813964844 649.6907348632812 175.81536865234375 649.2890625 175.8285369873047 648.8838500976562L175.9904022216797 643.8255004882812C176.0130615234375 643.1347045898438 176.0518035888672 642.4553833007812 176.1060791015625 641.7874755859375L176.26019287109375 638.2814331054688C176.29905700683594 637.5516967773438 176.3555908203125 636.8350830078125 176.42918395996094 636.1317138671875L176.63233947753906 633.6217651367188C176.66661071777344 632.9540405273438 176.71774291992188 632.277099609375 176.7862548828125 631.5908813476562L177.1504669189453 627.7464599609375C177.2134552001953 627.12060546875 177.2890625 626.5051879882812 177.37689208984375 625.9000854492188L177.74815368652344 622.5932006835938L178.13687133789062 618.12841796875L178.21295166015625 615.402587890625C178.20729064941406 614.6646118164062 178.22158813476562 613.9141845703125 178.25657653808594 613.1513061523438L178.39413452148438 610.2968139648438C178.40164184570312 609.5912475585938 178.42752075195312 608.8745727539062 178.47239685058594 608.1468505859375L178.81851196289062 602.7877197265625C178.84471130371094 602.1414184570312 178.8865509033203 601.4862670898438 178.94451904296875 600.822265625L179.4705810546875 594.7117309570312C179.5515594482422 593.7970581054688 179.65975952148438 592.9041748046875 179.79396057128906 592.0330200195312L180.12747192382812 588.8679809570312C180.1738739013672 588.2778930664062 180.2335662841797 587.6808471679688 180.30691528320312 587.076904296875L181.23558044433594 579.6723022460938C181.2611083984375 579.4347534179688 181.2887725830078 579.1961669921875 181.31858825683594 578.9564819335938L182.23414611816406 571.6073608398438C182.26638793945312 571.3253173828125 182.3017120361328 571.0418090820312 182.34014892578125 570.7568969726562C182.39712524414062 570.30859375 182.4605255126953 569.8658447265625 182.53018188476562 569.4286499023438L183.20706176757812 564.7255249023438C183.33668518066406 563.848876953125 183.4904022216797 562.9940185546875 183.66712951660156 562.1607055664062L184.36712646484375 558.250732421875C184.5152587890625 557.4586791992188 184.68264770507812 556.6853637695312 184.8684844970703 555.9306640625L185.2931365966797 553.9566040039062C185.349365234375 553.6494750976562 185.4093780517578 553.3407592773438 185.47323608398438 553.0304565429688L186.47142028808594 548.1339111328125C186.583984375 547.5878295898438 186.70558166503906 547.0508422851562 186.83592224121094 546.52294921875L188.21151733398438 539.8651123046875C188.4077911376953 538.9298706054688 188.63050842285156 538.0215454101562 188.87832641601562 537.139892578125L190.30087280273438 531.3388061523438L191.6377410888672 524.6898803710938C191.6535186767578 524.6134643554688 191.66944885253906 524.5372314453125 191.68557739257812 524.461181640625L192.19110107421875 521.136962890625C192.1998291015625 521.0713500976562 192.20872497558594 521.0056762695312 192.2177734375 520.93994140625L193.32386779785156 513.2511596679688C193.3690185546875 512.9239501953125 193.4175567626953 512.5996704101562 193.4694061279297 512.2784423828125L194.39212036132812 506.1474914550781C194.40428161621094 506.0381164550781 194.4169158935547 505.9284973144531 194.4299774169922 505.81866455078125L195.171875 499.45184326171875C195.24832153320312 498.8109130859375 195.33786010742188 498.1811828613281 195.44007873535156 497.56256103515625L196.09120178222656 492.4768371582031C196.0992431640625 492.3919372558594 196.1075439453125 492.306884765625 196.11611938476562 492.2216796875L196.91197204589844 484.060791015625C196.9970245361328 483.2157287597656 197.1051025390625 482.3895568847656 197.2352294921875 481.5822448730469L198.13131713867188 474.5802001953125C198.16282653808594 474.31549072265625 198.19700622558594 474.0494689941406 198.23390197753906 473.7821044921875L198.24795532226562 473.67822265625L198.99237060546875 468.1755676269531C199.0298309326172 467.7635803222656 199.07373046875 467.3482666015625 199.12417602539062 466.9296569824219L199.91970825195312 460.6739196777344L199.92002868652344 460.67071533203125L200.27496337890625 457.087158203125L200.28424072265625 456.9747009277344L200.594482421875 452.96844482421875C200.62254333496094 452.6336669921875 200.6542510986328 452.3017883300781 200.68954467773438 451.9727783203125L200.9851837158203 448.03704833984375C200.9973907470703 447.8381652832031 201.0110321044922 447.6384582519531 201.02613830566406 447.43792724609375L201.385498046875 442.7457580566406C201.39968872070312 442.361572265625 201.41925048828125 441.9742126464844 201.44430541992188 441.58367919921875L201.94178771972656 433.96832275390625L202.09678649902344 427.9918518066406C202.0927276611328 427.3345642089844 202.1043701171875 426.6673583984375 202.1322479248047 425.99029541015625L202.44248962402344 418.03173828125C202.47337341308594 417.28173828125 202.52310180664062 416.5454406738281 202.59100341796875 415.82281494140625L202.92022705078125 410.85626220703125C202.94515991210938 410.38427734375 202.9783935546875 409.90765380859375 203.02011108398438 409.4263916015625L203.02252197265625 409.3987121582031L203.05068969726562 409.0708923339844L203.58273315429688 402.87884521484375C203.6167449951172 402.4038391113281 203.65927124023438 401.9242858886719 203.71046447753906 401.4401550292969L204.6547088623047 392.4833984375C204.7127227783203 391.9347839355469 204.78042602539062 391.39422607421875 204.8575439453125 390.8616638183594L205.70684814453125 383.1489562988281C205.71266174316406 383.0980529785156 205.7185516357422 383.0472106933594 205.7245330810547 382.9964599609375L206.43663024902344 375.7151184082031C206.48484802246094 374.8713073730469 206.5604705810547 374.0129089355469 206.66458129882812 373.14007568359375L207.5548553466797 365.81549072265625C207.6253204345703 365.2315368652344 207.7066650390625 364.6568603515625 207.79856872558594 364.0914611816406L208.8037567138672 356.31658935546875C208.80996704101562 356.25457763671875 208.8163299560547 356.1925048828125 208.8228302001953 356.1303405761719L209.98289489746094 345.0557861328125C210.0289306640625 344.6147155761719 210.0812225341797 344.1788330078125 210.13961791992188 343.74810791015625L211.16513061523438 334.87127685546875C211.1752166748047 334.7547302246094 211.18582153320312 334.6379089355469 211.19691467285156 334.52081298828125L212.39743041992188 322.1378479003906C212.44627380371094 321.622314453125 212.50372314453125 321.1138000488281 212.56954956054688 320.61224365234375L213.26382446289062 314.42254638671875C213.28993225097656 314.0829772949219 213.3203582763672 313.7411193847656 213.35516357421875 313.39691162109375L214.47103881835938 302.3002014160156C214.5139617919922 301.79150390625 214.56680297851562 301.2777099609375 214.6298065185547 300.75897216796875C214.67483520507812 300.3637390136719 214.72494506835938 299.9727783203125 214.78004455566406 299.58599853515625L215.97171020507812 290.35577392578125C216.0413818359375 289.56365966796875 216.13563537597656 288.7593688964844 216.25531005859375 287.9430236816406L217.23226928710938 281.4226379394531C217.2704620361328 281.0670471191406 217.31349182128906 280.7090759277344 217.36141967773438 280.3486633300781L218.65931701660156 270.9419860839844C218.6795654296875 270.7598571777344 218.70106506347656 270.5771179199219 218.72381591796875 270.39373779296875L219.30850219726562 265.44256591796875L219.68321228027344 261.38494873046875L220.04574584960938 256.2706604003906C220.069091796875 255.9488983154297 220.09580993652344 255.62977600097656 220.12588500976562 255.3132781982422L220.6257781982422 246.73388671875C220.6407470703125 246.4754180908203 220.6579132080078 246.2186279296875 220.67727661132812 245.9635009765625L220.98716735839844 239.13555908203125L220.93865966796875 230.65721130371094C220.9376983642578 230.60704040527344 220.9368133544922 230.5568084716797 220.93601989746094 230.5065155029297L220.84011840820312 223.85330200195312C220.83563232421875 223.73329162597656 220.8316192626953 223.6129150390625 220.82810974121094 223.49220275878906L220.7041473388672 217.68853759765625C220.6952362060547 217.537353515625 220.68710327148438 217.38558959960938 220.6797332763672 217.23326110839844L220.34584045410156 210.66297912597656L219.9217529296875 204.9757080078125C219.90870666503906 204.8623046875 219.89608764648438 204.74856567382812 219.88388061523438 204.63446044921875L219.10525512695312 197.25741577148438L218.64321899414062 194.0735626220703C218.61526489257812 193.90765380859375 218.58816528320312 193.74093627929688 218.56195068359375 193.5734100341797L217.56375122070312 187.1391143798828C217.4164276123047 186.19009399414062 217.3036651611328 185.25709533691406 217.22451782226562 184.3402557373047L214.51522827148438 184.71109008789062C214.1081085205078 184.76834106445312 213.70401000976562 184.8192901611328 213.30296325683594 184.86404418945312L208.6609649658203 185.50694274902344L208.64247131347656 185.5094451904297L201.86245727539062 186.66700744628906C201.64984130859375 186.7018585205078 201.4380340576172 186.73495483398438 201.2270050048828 186.76632690429688L195.06396484375 187.9349822998047C194.4380645751953 188.0534210205078 193.81871032714844 188.1564178466797 193.2059783935547 188.24435424804688L188.26547241210938 189.09503173828125C187.87869262695312 189.15899658203125 187.49452209472656 189.21714782714844 187.11297607421875 189.26959228515625L183.64059448242188 189.88877868652344L179.46043395996094 190.7742156982422L176.32481384277344 191.58676147460938L172.4589080810547 192.65872192382812L168.93560791015625 193.8297119140625C168.49952697753906 193.97511291503906 168.06576538085938 194.1121063232422 167.63433837890625 194.2408447265625L165.23553466796875 195.0283966064453L161.5570831298828 196.41961669921875C160.72328186035156 196.73878479003906 159.89675903320312 197.0258026123047 159.07794189453125 197.28173828125L158.1851348876953 197.59327697753906C158.28985595703125 198.92257690429688 158.32730102539062 200.21669006347656 158.3014373779297 201.47509765625L158.3084259033203 201.7757568359375C158.36776733398438 202.72427368164062 158.39453125 203.69515991210938 158.38714599609375 204.68841552734375L158.35447692871094 208.68453979492188C158.35923767089844 209.13729858398438 158.356689453125 209.59481811523438 158.3466796875 210.05706787109375L158.24990844726562 214.50868225097656C158.2476348876953 214.7100372314453 158.24392700195312 214.9123077392578 158.23876953125 215.115478515625L158.130859375 218.81149291992188C158.1263427734375 218.98977661132812 158.12074279785156 219.16729736328125 158.1140899658203 219.34405517578125L158.02294921875 222.2377166748047C158.01922607421875 222.38412475585938 158.01478576660156 222.530029296875 158.00962829589844 222.6754150390625L157.968994140625 224.50387573242188V227.02633666992188C157.95492553710938 227.86895751953125 157.91673278808594 228.69491577148438 157.8553466796875 229.5042266845703L157.7126922607422 233.1368865966797C157.665283203125 234.1932373046875 157.5806427001953 235.2222900390625 157.4606170654297 236.22410583496094L157.28814697265625 238.5943603515625C157.26417541503906 239.10775756835938 157.23040771484375 239.62672424316406 157.18663024902344 240.15121459960938L156.70904541015625 245.4822998046875C156.69532775878906 245.74072265625 156.67916870117188 246.00054931640625 156.66055297851562 246.2617645263672L156.17494201660156 252.8983917236328C156.15521240234375 253.1702423095703 156.13304138183594 253.44020080566406 156.1084747314453 253.70828247070312L155.92803955078125 257.48199462890625L156.0698699951172 261.01025390625L156.29237365722656 263.6444396972656L156.58407592773438 265.4580383300781L157.1967010498047 268.9017639160156C157.3494415283203 269.61260986328125 157.48568725585938 270.33917236328125 157.6047821044922 271.0816650390625L158.3466796875 275.56005859375C158.52117919921875 276.6582946777344 158.64915466308594 277.73529052734375 158.7327880859375 278.7906494140625L159.07508850097656 281.61663818359375C159.1934356689453 282.60882568359375 159.27500915527344 283.58233642578125 159.3213653564453 284.5370178222656L159.36570739746094 285.0665588378906C159.65492248535156 286.9839172363281 159.7993621826172 289.00323486328125 159.78323364257812 291.12408447265625C159.80752563476562 292.4947509765625 159.76113891601562 293.8243103027344 159.64862060546875 295.1123352050781L159.56239318847656 297.34332275390625C159.55667114257812 297.53338623046875 159.54962158203125 297.72418212890625 159.54122924804688 297.9158020019531C159.5162811279297 298.6217041015625 159.47451782226562 299.3155822753906 159.41650390625 299.9974670410156L159.35263061523438 300.99261474609375C159.3353729248047 301.7428894042969 159.29705810546875 302.5054016113281 159.23696899414062 303.2801208496094L158.8188018798828 308.7566833496094C158.67161560058594 310.6238098144531 158.4103546142578 312.4013977050781 158.0453643798828 314.0902404785156L157.94410705566406 314.7353210449219C157.86753845214844 315.4181213378906 157.77259826660156 316.1095886230469 157.6587371826172 316.8096618652344L156.84690856933594 321.6935729980469L156.4650115966797 324.4237365722656C156.45840454101562 324.489013671875 156.45164489746094 324.55438232421875 156.44471740722656 324.6198425292969L156.16317749023438 327.0454406738281C156.086181640625 328.245361328125 155.9517822265625 329.4738464355469 155.75677490234375 330.73040771484375L155.1180419921875 334.68389892578125C155.08590698242188 334.92523193359375 155.05152893066406 335.1676330566406 155.01487731933594 335.4111022949219L154.23251342773438 340.4695129394531L154.22463989257812 340.5212707519531L153.84841918945312 343.3804626464844L153.64012145996094 345.6122741699219C153.60476684570312 346.2283020019531 153.5550537109375 346.8521728515625 153.49061584472656 347.48382568359375L153.07345581054688 351.5805358886719C153.02252197265625 352.19268798828125 152.9571075439453 352.8121643066406 152.87681579589844 353.43896484375C152.84390258789062 353.7119140625 152.80856323242188 353.9828186035156 152.77081298828125 354.251708984375L152.1821746826172 358.7607116699219C152.1700897216797 358.8524169921875 152.1577606201172 358.9438781738281 152.1451416015625 359.03509521484375L151.60214233398438 363.6033020019531C151.52597045898438 364.2288818359375 151.43734741210938 364.8437805175781 151.33668518066406 365.44805908203125L150.91419982910156 368.4053955078125C150.7653045654297 369.448974609375 150.58221435546875 370.4619140625 150.3667755126953 371.44451904296875L150.01043701171875 373.46380615234375Q149.96148681640625 373.73724365234375 149.90945434570312 374.0077209472656L149.3359832763672 377.6184387207031C149.32789611816406 377.66693115234375 149.3197479248047 377.7153625488281 149.3115234375 377.7637023925781L148.86920166015625 381.01422119140625L148.69046020507812 382.7394714355469L148.52987670898438 385.3408203125L148.3782501220703 389.63720703125C148.36703491210938 389.9473876953125 148.3525848388672 390.2552185058594 148.3349609375 390.5607604980469L148.32089233398438 390.97930908203125C148.32614135742188 391.3205871582031 148.32730102539062 391.6645812988281 148.3242950439453 392.01129150390625L148.3011474609375 393.9090881347656C148.3553924560547 395.361083984375 148.32640075683594 396.8620300292969 148.20802307128906 398.411376953125C148.14169311523438 399.61236572265625 148.02432250976562 400.7776794433594 147.8589324951172 401.9073486328125L147.74769592285156 402.9720153808594C147.70669555664062 403.47259521484375 147.65615844726562 403.9781799316406 147.59588623046875 404.48870849609375L147.21478271484375 407.57293701171875C147.17584228515625 408.0687255859375 147.12759399414062 408.56939697265625 147.06980895996094 409.0749816894531L146.77423095703125 411.3868713378906C146.76516723632812 411.4793701171875 146.7557830810547 411.5720520019531 146.74607849121094 411.6648864746094L146.48977661132812 414.4571228027344C146.3667755126953 415.6341247558594 146.19915771484375 416.774169921875 145.9895477294922 417.87750244140625C145.92086791992188 418.3620300292969 145.84239196777344 418.85052490234375 145.75389099121094 419.3429870605469C145.49961853027344 420.8966979980469 145.16958618164062 422.38055419921875 144.77000427246094 423.7955627441406L144.58782958984375 424.5739440917969C144.45989990234375 425.1256408691406 144.3228759765625 425.66766357421875 144.17703247070312 426.2001037597656L143.4398193359375 429.2718505859375C143.38438415527344 429.5125732421875 143.32650756835938 429.754150390625 143.2661590576172 429.9966125488281L143.24891662597656 430.0656433105469C143.16415405273438 430.4094543457031 143.07586669921875 430.7494201660156 142.98414611816406 431.0856018066406L142.044921875 434.6707763671875L140.97206115722656 439.2585144042969C140.91648864746094 439.506591796875 140.8583221435547 439.75555419921875 140.7975311279297 440.0054626464844L140.79200744628906 440.02813720703125C140.62045288085938 440.74969482421875 140.43338012695312 441.45458984375 140.23141479492188 442.14300537109375L139.41973876953125 445.1280822753906C139.35650634765625 445.4245300292969 139.28965759277344 445.7223815917969 139.2191619873047 446.0215759277344L138.03512573242188 450.8135681152344L137.491455078125 453.97271728515625L137.4790802001953 454.0745544433594L136.85787963867188 459.03094482421875L136.59182739257812 462.55609130859375L136.4269256591797 467.4152526855469C136.42019653320312 467.5835876464844 136.41253662109375 467.751220703125 136.40391540527344 467.9181823730469L136.3190155029297 472.3117980957031V477.8423156738281C136.30792236328125 479.3352355957031 136.22044372558594 480.7765197753906 136.0618438720703 482.1661682128906L135.79293823242188 486.529296875C135.7563934326172 487.0882873535156 135.7095489501953 487.6393737792969 135.65267944335938 488.1826171875L135.21290588378906 493.6515197753906C135.1878662109375 493.9503173828125 135.159912109375 494.2467956542969 135.1291046142578 494.54095458984375L134.88917541503906 497.860107421875C134.86398315429688 498.19024658203125 134.835205078125 498.5176086425781 134.80291748046875 498.8421936035156L134.52496337890625 503.8762512207031C134.44863891601562 505.1859130859375 134.3154296875 506.45269775390625 134.12892150878906 507.6767883300781L133.83209228515625 510.4937744140625C133.7911376953125 511.03826904296875 133.73892211914062 511.5887145996094 133.67515563964844 512.1450805664062L133.0657958984375 517.2569580078125C133.01791381835938 517.76025390625 132.96031188964844 518.2685546875 132.89279174804688 518.7816772460938L132.20484924316406 524.163818359375C132.1220245361328 524.7932739257812 132.0266571044922 525.4118041992188 131.91917419433594 526.0194091796875L131.31455993652344 530.2203979492188C131.26922607421875 530.5191040039062 131.22108459472656 530.815185546875 131.1702117919922 531.1088256835938L130.57266235351562 535.85888671875C130.50233459472656 536.3984985351562 130.4227752685547 536.9299926757812 130.3342742919922 537.4535522460938L130.28025817871094 537.8455810546875C130.20655822753906 538.5935668945312 130.11093139648438 539.3521728515625 129.9926300048828 540.1213989257812L129.46656799316406 543.49365234375C129.4276885986328 543.74609375 129.38682556152344 543.9967651367188 129.343994140625 544.24560546875L128.83258056640625 547.6078491210938C128.8262176513672 547.6495361328125 128.8197784423828 547.6912231445312 128.8133087158203 547.7327880859375L128.45533752441406 550.7421875C128.356201171875 552.1160888671875 128.17788696289062 553.5255126953125 127.91524505615234 554.9692993164062C127.71739196777344 556.1921997070312 127.47044372558594 557.3718872070312 127.1775894165039 558.5086059570312L126.43798828125 561.9578857421875C126.3082504272461 562.6611938476562 126.15792083740234 563.3723754882812 125.98638153076172 564.0914916992188L124.48805236816406 570.36328125L123.35601043701172 575.63818359375C123.32583618164062 575.7777709960938 123.29507446289062 575.916748046875 123.26373291015625 576.0551147460938L122.88285064697266 577.9520874023438L122.65486145019531 579.2687377929688C122.64170837402344 579.375732421875 122.62812805175781 579.4830322265625 122.61410522460938 579.5904541015625L122.35520935058594 581.4602661132812L122.20704650878906 583.0198364257812L122.11784362792969 585.216552734375C122.11555480957031 586.467529296875 122.0528793334961 587.7532348632812 121.92616271972656 589.0733032226562L121.91382598876953 589.2030029296875C121.89176177978516 589.4607543945312 121.86739349365234 589.716796875 121.84075927734375 589.9711303710938L121.40009307861328 594.6038208007812C121.343017578125 595.2003784179688 121.2744369506836 595.7874755859375 121.1946792602539 596.3652954101562L120.9155502319336 599.2138061523438C120.9027328491211 599.3807373046875 120.8888931274414 599.5481567382812 120.87401580810547 599.7161865234375L120.47517395019531 604.1262817382812C120.46905517578125 604.2208251953125 120.46261596679688 604.3154907226562 120.45585632324219 604.410400390625L120.15994262695312 608.1800537109375L119.98373413085938 612.67919921875C119.97097778320312 612.9485473632812 119.955810546875 613.2161254882812 119.93824768066406 613.48193359375L119.82186889648438 617.1575317382812C119.8198013305664 617.2318115234375 119.81755065917969 617.3060302734375 119.81510925292969 617.3800659179688L119.76791381835938 621.8517456054688C119.76579284667969 621.9860229492188 119.76306915283203 622.1198120117188 119.75972747802734 622.2532348632812L119.71395874023438 626.0064086914062V638.713134765625L119.74292755126953 640.2919311523438C119.7583999633789 640.7410278320312 119.76677703857422 641.1949462890625 119.76791381835938 641.6537475585938V649.1939697265625L119.76781463623047 652.0403442382812L119.76791381835938 652.0942993164062V652.8751220703125C119.81658935546875 654.120849609375 119.80619812011719 655.4033813476562 119.73304748535156 656.722412109375C119.7197265625 657.0490112304688 119.70262908935547 657.3731689453125 119.68181610107422 657.6947631835938C119.65460968017578 658.6689453125 119.58991241455078 659.6631469726562 119.48600006103516 660.6770629882812C119.38348388671875 661.8331909179688 119.23603057861328 662.9544677734375 119.04622650146484 664.0411376953125C118.99693298339844 664.4619750976562 118.94078063964844 664.8861694335938 118.87763214111328 665.3135986328125L118.35155487060547 668.9556274414062C118.2873306274414 669.3863525390625 118.21729278564453 669.8118896484375 118.14158630371094 670.2321166992188L118.1063003540039 670.4738159179688L117.96607208251953 671.6657104492188L117.89521789550781 672.4227905273438C117.89025115966797 672.5123901367188 117.8849868774414 672.6021118164062 117.87944030761719 672.6920776367188L117.66139221191406 676.0172729492188L117.50174713134766 680.3943481445312C117.48942565917969 680.723388671875 117.47345733642578 681.0497436523438 117.45392608642578 681.37353515625L117.39383697509766 683.0786743164062C117.39097595214844 683.1913452148438 117.38768005371094 683.3037719726562 117.38396453857422 683.4158325195312L117.33987426757812 687.031005859375V692.9302368164062C117.34937286376953 693.4488525390625 117.34894561767578 693.9736938476562 117.33834075927734 694.5046997070312C117.33355712890625 695.0731201171875 117.31761169433594 695.634033203125 117.29077911376953 696.1873779296875C117.27501678466797 697.0521850585938 117.22969818115234 697.9329223632812 117.1535873413086 698.82958984375C117.07135009765625 700.830078125 116.8144302368164 702.9065551757812 116.36551666259766 705.0548095703125C116.16626739501953 706.1535034179688 115.9267807006836 707.2162475585938 115.64950561523438 708.2433471679688C115.34668731689453 709.544921875 114.96733856201172 710.869384765625 114.50717163085938 712.215087890625L114.44074249267578 712.3984375C114.2688217163086 712.9249877929688 114.08805847167969 713.44140625 113.89875793457031 713.9476928710938C113.85514068603516 714.0892944335938 113.81065368652344 714.231201171875 113.76527404785156 714.3733520507812L113.72474670410156 714.4910278320312C113.58435821533203 715.1666870117188 113.4244613647461 715.8492431640625 113.2445068359375 716.5384521484375C113.09024810791016 717.1495361328125 112.9246826171875 717.7484130859375 112.74822235107422 718.3351440429688L112.09712219238281 720.6669921875L111.7759780883789 722.0904541015625C111.61347961425781 722.941162109375 111.4183578491211 723.8023071289062 111.18939208984375 724.6734619140625C110.73849487304688 726.5504150390625 110.1814956665039 728.3141479492188 109.52961730957031 729.96728515625L109.45179748535156 730.2042236328125L108.59210205078125 733.1801147460938L108.44172668457031 733.7764282226562L108.26774597167969 734.7232055664062C108.13970947265625 735.5709838867188 107.98149108886719 736.4308471679688 107.79196166992188 737.302490234375C107.60562133789062 738.232177734375 107.3918228149414 739.1354370117188 107.1520004272461 740.0125122070312C107.048095703125 740.5443115234375 106.93247985839844 741.0806274414062 106.80490112304688 741.621337890625L106.22406005859375 744.0244140625C106.43201446533203 744.7479858398438 106.62309265136719 745.4896850585938 106.79653930664062 746.2496337890625C106.88545989990234 746.6318359375 106.96819305419922 747.0118408203125 107.04483795166016 747.3897094726562C107.14488220214844 747.8589477539062 107.23748016357422 748.3350219726562 107.32238006591797 748.8178100585938C107.56139373779297 750.1240844726562 107.73109436035156 751.4022827148438 107.83531951904297 752.6513671875C108.11161804199219 755.7199096679688 108.00871276855469 758.609619140625 107.57978820800781 761.3108520507812C102.61262512207031 794.6481323242188 49.78480911254883 798.7653198242188 43.04135513305664 761.4138793945312C41.2821159362793 757.6242065429688 40.23114013671875 753.257568359375 40.117759704589844 748.3341064453125C39.81010437011719 744.513916015625 40.114654541015625 740.9659423828125 40.92151641845703 737.7139282226562C40.98512649536133 737.2701416015625 41.05514144897461 736.8319091796875 41.13139724731445 736.3992919921875C41.26351547241211 735.29736328125 41.4454345703125 734.1736450195312 41.67961883544922 733.0287475585938L42.259647369384766 730.3444213867188C42.397891998291016 729.6704711914062 42.5499267578125 729.0104370117188 42.71525573730469 728.3641967773438L43.109458923339844 726.594482421875C43.1993522644043 726.2151489257812 43.293521881103516 725.8404541015625 43.39187240600586 725.4702758789062L43.75599670410156 723.8594970703125C43.93549346923828 722.5216674804688 44.190582275390625 721.1533203125 44.525814056396484 719.7554931640625L45.2677116394043 716.6395263671875C45.58562469482422 715.3209228515625 45.95513153076172 714.0579833984375 46.37240219116211 712.8499755859375L46.51070022583008 712.373046875C46.60095977783203 712.0467529296875 46.695953369140625 711.7190551757812 46.795745849609375 711.3900146484375L46.8459358215332 711.2169189453125C47.0139045715332 710.6597900390625 47.190765380859375 710.1134033203125 47.376224517822266 709.5777587890625L47.933067321777344 707.8638916015625L48.171207427978516 706.80517578125C48.34697723388672 705.9142456054688 48.556758880615234 705.0111083984375 48.80184555053711 704.0963134765625C48.85471725463867 703.8917236328125 48.90887451171875 703.6884765625 48.964298248291016 703.4866333007812L49.94842529296875 699.7781982421875C49.97494125366211 699.6812133789062 50.001731872558594 699.58447265625 50.02878189086914 699.4881591796875C50.250423431396484 698.462890625 50.5188102722168 697.4228515625 50.83596420288086 696.3685913085938C51.06884002685547 695.5134887695312 51.33464813232422 694.6489868164062 51.634559631347656 693.7755126953125L51.94666290283203 692.8656005859375L51.95829772949219 692.615478515625V690.6595458984375L51.958316802978516 690.6100463867188L51.95829772949219 690.5111694335938V687.2765502929688C51.9541015625 686.9321899414062 51.954078674316406 686.5850219726562 51.95829772949219 686.2351684570312L52.00004196166992 682.8539428710938C51.99574279785156 682.3721923828125 51.999752044677734 681.8850708007812 52.01225280761719 681.392578125L52.093955993652344 679.07421875C52.097869873046875 678.7078857421875 52.10658264160156 678.338623046875 52.12016677856445 677.96630859375L52.26854705810547 673.5419311523438C52.29120635986328 672.9161376953125 52.3270263671875 672.2998657226562 52.3756103515625 671.6930541992188L52.538330078125 668.6318969726562C52.59316635131836 667.7593994140625 52.67308044433594 666.9060668945312 52.777034759521484 666.0717163085938C52.831844329833984 665.3046875 52.909385681152344 664.5258178710938 53.01044464111328 663.7353515625L53.09062194824219 663.1572265625L53.130245208740234 662.8715209960938L53.225093841552734 662.1876220703125C53.2547721862793 661.94921875 53.2866325378418 661.709716796875 53.32069396972656 661.4691772460938L53.38297653198242 661.033203125C53.4410400390625 660.5004272460938 53.5101203918457 659.9622802734375 53.590476989746094 659.4188232421875L53.98197555541992 656.9605712890625C54.00703430175781 656.7422485351562 54.03390121459961 656.5230102539062 54.06259536743164 656.3028564453125L54.332374572753906 654.4057006835938V634.963134765625C54.33232879638672 634.9451293945312 54.332298278808594 634.9271850585938 54.332374572753906 634.9091796875V626.1773681640625C54.331180572509766 626.017578125 54.33087921142578 625.857177734375 54.332374572753906 625.6961669921875L54.33243179321289 625.6715087890625L54.332435607910156 625.6705322265625L54.33243942260742 625.6694946289062L54.33244323730469 625.6685180664062L54.33244705200195 625.66748046875L54.33245086669922 625.66650390625L54.332454681396484 625.6648559570312C54.332550048828125 625.6200561523438 54.332637786865234 625.5772705078125 54.332374572753906 625.5343017578125V621.10986328125C54.338279724121094 620.4025268554688 54.36128234863281 619.7067260742188 54.40082550048828 619.0225830078125L54.41566467285156 617.1477661132812C54.40610122680664 616.5435180664062 54.40968704223633 615.9307861328125 54.42679977416992 615.3095703125L54.54161071777344 611.6834106445312C54.539615631103516 610.9920654296875 54.555110931396484 610.289794921875 54.58866882324219 609.5767211914062L54.85845184326172 604.46435546875C54.88455581665039 603.9094848632812 54.920921325683594 603.3621215820312 54.9672737121582 602.8223876953125L55.168701171875 599.7161865234375C55.21328353881836 599.1015625 55.2702522277832 598.4965209960938 55.3392333984375 597.901123046875L55.69477462768555 593.9698486328125C55.73379135131836 593.5287475585938 55.77912139892578 593.0927734375 55.83063507080078 592.6618041992188L56.274803161621094 588.1290283203125C56.31014633178711 587.7863159179688 56.349266052246094 587.4467163085938 56.392093658447266 587.1102905273438L56.64677810668945 584.458984375L56.854835510253906 579.3746337890625C56.90500259399414 578.1185302734375 57.00807189941406 576.9008178710938 57.16091537475586 575.7213134765625L57.21903991699219 574.9501953125C57.32865524291992 573.7779541015625 57.482784271240234 572.6417236328125 57.6788444519043 571.5414428710938C57.744606018066406 571.0322875976562 57.82057571411133 570.5183715820312 57.906982421875 569.999755859375L58.29291534423828 567.7236938476562C58.365440368652344 567.2499389648438 58.44700241088867 566.7723999023438 58.53776168823242 566.2909545898438C58.572975158691406 566.0953979492188 58.60939025878906 565.9009399414062 58.64699172973633 565.7076416015625L59.228912353515625 562.5133056640625C59.382041931152344 561.7311401367188 59.55381774902344 560.9674682617188 59.74345779418945 560.2221069335938L60.645267486572266 555.9845581054688C60.77439498901367 555.384521484375 60.91437911987305 554.7955932617188 61.06486892700195 554.2177734375L62.33140182495117 548.9163208007812C62.36272430419922 548.7850341796875 62.39455795288086 548.6542358398438 62.426902770996094 548.5240478515625L63.3558235168457 543.998779296875L64.01753997802734 538.705078125C64.1337661743164 537.76025390625 64.2783432006836 536.83984375 64.44992065429688 535.9436645507812L64.69644927978516 534.34912109375C64.73262786865234 534.080322265625 64.77159118652344 533.8101806640625 64.81339263916016 533.5387573242188L65.12227630615234 531.5587158203125C65.15553283691406 531.2715454101562 65.19194793701172 530.9828491210938 65.23155212402344 530.6925659179688L65.53556060791016 528.4515380859375C65.56965637207031 528.13037109375 65.60769653320312 527.8072509765625 65.64971923828125 527.4821166992188L66.49952697753906 521.15576171875C66.57049560546875 520.6112670898438 66.65084075927734 520.0750122070312 66.74031829833984 519.546875L67.38980865478516 515.0452270507812C67.42958068847656 514.7809448242188 67.47154235839844 514.5186767578125 67.51566314697266 514.2583618164062L68.02379608154297 510.24310302734375C68.03573608398438 510.1524353027344 68.04794311523438 510.0620422363281 68.06040954589844 509.9718322753906L68.65778350830078 504.71258544921875C68.69161987304688 504.41937255859375 68.72819519042969 504.1285095214844 68.76747131347656 503.8399658203125L69.31013488769531 498.72186279296875L69.60202026367188 493.4896545410156C69.63697052001953 492.88916015625 69.68385314941406 492.29766845703125 69.74232482910156 491.7151794433594L69.87466430664062 489.8843994140625C69.89834594726562 489.33447265625 69.93327331542969 488.77813720703125 69.9797134399414 488.2154235839844L70.49945831298828 482.3652648925781L70.50578308105469 482.2667541503906L70.88143157958984 476.1594543457031L70.91728210449219 472.1989440917969C70.91431427001953 471.8172607421875 70.91650390625 471.4322204589844 70.9239501953125 471.0438232421875L71.0015640258789 467.02740478515625C70.99147033691406 466.28802490234375 71.00133514404297 465.5360107421875 71.0318603515625 464.7713928222656L71.2088623046875 460.6630554199219C71.2124252319336 459.632568359375 71.25617980957031 458.5783996582031 71.34210968017578 457.50079345703125L71.59355926513672 454.5855712890625C71.63609313964844 453.47418212890625 71.72679138183594 452.3370361328125 71.86817932128906 451.1744079589844L72.50216674804688 446.0620422363281C72.65943908691406 444.7851867675781 72.86865997314453 443.55291748046875 73.12649536132812 442.3648986816406L73.37857818603516 440.8200378417969C73.49065399169922 439.9723205566406 73.63307189941406 439.11224365234375 73.80697631835938 438.24017333984375C74.02958679199219 437.0299377441406 74.29794311523438 435.8633117675781 74.60906982421875 434.73980712890625L75.5102310180664 430.9407958984375C75.73294067382812 430.0009765625 75.98190307617188 429.08935546875 76.2557373046875 428.2055969238281L77.19039916992188 424.6808166503906L78.55876922607422 418.88153076171875C78.73674774169922 418.1322021484375 78.93144226074219 417.40081787109375 79.14214324951172 416.68719482421875L79.62071990966797 414.8663024902344C79.65265655517578 414.7301940917969 79.68535614013672 414.5937805175781 79.71882629394531 414.4571228027344L80.93284606933594 409.4526672363281C81.03528594970703 409.03424072265625 81.14290618896484 408.6214599609375 81.25556945800781 408.21429443359375L81.29962921142578 408.02685546875L81.47480773925781 406.93572998046875L81.67474365234375 404.86639404296875C81.7218017578125 404.4161376953125 81.77538299560547 403.97125244140625 81.8353500366211 403.53179931640625L81.8857192993164 403.0543518066406C81.92667388916016 402.5395202636719 81.97766876220703 402.0194396972656 82.03894805908203 401.4941101074219L82.61898040771484 396.8538818359375L82.62548828125 396.799072265625L82.85235595703125 394.4169616699219L82.87864685058594 392.2610778808594C82.87541198730469 391.83135986328125 82.87873840332031 391.3973693847656 82.88876342773438 390.9591369628906L82.94271850585938 387.7352600097656C82.96121978759766 386.9690856933594 82.9996109008789 386.2168273925781 83.05718994140625 385.4784851074219L83.11231994628906 383.7546081542969C83.11937713623047 383.3768310546875 83.1317138671875 382.99591064453125 83.1494140625 382.612060546875C83.17244720458984 382.0064392089844 83.20783233642578 381.40972900390625 83.2552261352539 380.8218994140625L83.46879577636719 377.3621520996094C83.53691101074219 376.3398742675781 83.63939666748047 375.3439636230469 83.77456665039062 374.3743896484375C83.84053802490234 373.5708923339844 83.93165588378906 372.7547302246094 84.04882049560547 371.9260559082031L84.4575424194336 369.1780700683594C84.5410385131836 368.41864013671875 84.64734649658203 367.6484680175781 84.77723693847656 366.8676452636719L85.42597198486328 363.1401672363281C85.4864730834961 362.7353820800781 85.55345153808594 362.32769775390625 85.62704467773438 361.9171447753906L86.31498718261719 358.018798828125L86.32282257080078 357.97515869140625L86.57573699951172 356.1812438964844C86.59146881103516 356.0387878417969 86.60797119140625 355.8959045410156 86.62523651123047 355.7526550292969L87.25922393798828 350.5323791503906C87.32776641845703 349.9638366699219 87.4066162109375 349.40411376953125 87.49546813964844 348.8531799316406L87.95697784423828 345.3872985839844L88.28253173828125 342.1902160644531C88.30577087402344 341.8483581542969 88.33334350585938 341.5041198730469 88.36532592773438 341.157470703125L88.6980972290039 337.6300964355469C88.75989532470703 336.6925048828125 88.85607147216797 335.7373352050781 88.98808288574219 334.7648620605469C89.01240539550781 334.5705261230469 89.0379867553711 334.377197265625 89.06481170654297 334.1849365234375L89.37425994873047 331.8331298828125C89.40082550048828 331.6184997558594 89.42916870117188 331.40301513671875 89.45932006835938 331.1866760253906L89.471435546875 331.0946044921875C89.52793884277344 330.6878967285156 89.58966064453125 330.2857971191406 89.65647888183594 329.8883361816406L90.15444946289062 326.6894836425781C90.20409393310547 326.2991638183594 90.25965881347656 325.9060363769531 90.32124328613281 325.5101318359375L90.99681091308594 321.3285827636719L91.1740951538086 319.6266784667969C91.23904418945312 318.6568908691406 91.34090423583984 317.6683654785156 91.48130798339844 316.6612854003906L92.101806640625 312.12896728515625C92.2297134399414 311.21856689453125 92.3836898803711 310.33135986328125 92.56253814697266 309.46722412109375L93.05953216552734 306.2746887207031C93.11804962158203 305.91766357421875 93.18051147460938 305.5643310546875 93.24686431884766 305.2146911621094L93.71134948730469 302.0513610839844L93.90727233886719 299.4854736328125C93.91893768310547 299.2230529785156 93.93310546875 298.95916748046875 93.9498062133789 298.6938171386719L94.18108367919922 295.2593688964844L94.29703521728516 292.0592346191406L94.08363342285156 289.18182373046875L93.53661346435547 284.6657409667969L93.00557708740234 281.40081787109375C92.99063110351562 281.30767822265625 92.97602081298828 281.21466064453125 92.96174621582031 281.121826171875L92.56043243408203 279.02484130859375C92.36412048339844 278.1547546386719 92.19284057617188 277.26068115234375 92.0478515625 276.3424072265625L91.82095336914062 274.7810974121094C91.51313018798828 273.2509765625 91.28952026367188 271.6493225097656 91.1575698852539 269.9755859375L91.12731170654297 269.56427001953125C91.09613037109375 269.2066345214844 91.07002258300781 268.8514404296875 91.04891967773438 268.4987487792969L90.93115997314453 266.89813232421875C90.80770111083984 265.8280944824219 90.72504425048828 264.7271423339844 90.68545532226562 263.5952453613281L90.55047607421875 260.2377014160156C90.50093078613281 259.5127868652344 90.4715347290039 258.77490234375 90.46302795410156 258.02410888671875C90.40135955810547 255.98715209960938 90.48591613769531 254.040771484375 90.70328521728516 252.18544006347656L90.7982406616211 250.55416870117188C90.81043243408203 249.78823852539062 90.84451293945312 249.0093994140625 90.90127563476562 248.21768188476562L91.37339782714844 241.56756591796875C91.41568756103516 240.98455810546875 91.4691162109375 240.4102020263672 91.53337860107422 239.844482421875L91.95342254638672 234.67465209960938C91.98429107666016 234.31068420410156 92.01947784423828 233.9501495361328 92.05891418457031 233.59303283691406L92.30216979980469 230.6322784423828C92.30670928955078 230.5008087158203 92.31185913085938 230.36895751953125 92.317626953125 230.2367401123047L92.53057098388672 226.16952514648438C92.53138732910156 226.10450744628906 92.5323486328125 226.03939819335938 92.53345489501953 225.97418212890625L92.57823944091797 223.74603271484375C92.5798110961914 223.5409698486328 92.5828628540039 223.3349609375 92.58740997314453 223.12799072265625L92.61416625976562 221.52264404296875C92.61505889892578 221.20130920410156 92.6196060180664 220.8776092529297 92.62787628173828 220.55157470703125L92.73579406738281 217.17930603027344L92.78974914550781 213.42933654785156Q92.79397583007812 213.26315307617188 92.79943084716797 213.0978240966797L92.89765930175781 208.64071655273438C92.90016174316406 208.531494140625 92.90306091308594 208.4225311279297 92.90636444091797 208.31387329101562L92.94220733642578 205.02569580078125L92.87400817871094 202.09326171875L92.794189453125 201.72438049316406C92.4854736328125 200.563720703125 92.22213745117188 199.35768127441406 92.00738525390625 198.10574340820312L91.54551696777344 195.33453369140625L91.4397964477539 194.8682861328125L91.21802520751953 194.11196899414062C91.17939758300781 193.9824981689453 91.1412582397461 193.85243225097656 91.1036148071289 193.72178649902344L91.0780258178711 193.632568359375L90.5775375366211 191.8872833251953C90.47087097167969 191.5166778564453 90.37005615234375 191.14793395996094 90.2750244140625 190.7810821533203C89.88325500488281 189.6216278076172 89.54119110107422 188.41204833984375 89.25283813476562 187.15194702148438C88.69225311279297 184.9713592529297 88.33282470703125 182.85862731933594 88.15666961669922 180.8187713623047C88.06780242919922 180.0530548095703 87.99918365478516 179.27149963378906 87.95162200927734 178.47402954101562C87.91543579101562 178.01673889160156 87.88746643066406 177.56358337402344 87.8675308227539 177.1145477294922C87.81004333496094 176.26185607910156 87.7793197631836 175.39105224609375 87.77650451660156 174.5021514892578C87.76964569091797 174.1773223876953 87.76663970947266 173.8547821044922 87.76744842529297 173.53456115722656C80.7010498046875 155.69293212890625 88.7912826538086 131.59051513671875 112.03816223144531 128.0845489501953C118.83834075927734 126.37078094482422 126.18382263183594 126.8438491821289 133.06723022460938 130.34487915039062C135.68992614746094 131.46160888671875 138.03656005859375 132.8912353515625 140.1071014404297 134.5678253173828L141.76455688476562 133.9402313232422C141.93898010253906 133.872802734375 142.1146240234375 133.80628967285156 142.2914581298828 133.74072265625L142.3756103515625 133.7088623046875C143.54156494140625 133.2624053955078 144.69329833984375 132.8788299560547 145.8297576904297 132.55528259277344L147.63525390625 131.96957397460938C147.83201599121094 131.90074157714844 148.0302276611328 131.83302307128906 148.22987365722656 131.7664337158203L151.02098083496094 130.83877563476562C152.14524841308594 130.41847229003906 153.31890869140625 130.03871154785156 154.5427703857422 129.70260620117188L154.73121643066406 129.6532745361328C155.214599609375 129.51719665527344 155.69496154785156 129.3915252685547 156.17225646972656 129.27606201171875L158.55003356933594 128.65365600585938Q158.91738891601562 128.54818725585938 159.29092407226562 128.4481201171875L161.67678833007812 127.79815673828125C162.42501831054688 127.5728759765625 163.19302368164062 127.3660659790039 163.98094177246094 127.1785888671875C164.89511108398438 126.94872283935547 165.7971954345703 126.75402069091797 166.6868133544922 126.59317016601562L170.6757049560547 125.75031280517578C171.41744995117188 125.59765625 172.1503143310547 125.46695709228516 172.87413024902344 125.35753631591797L177.1504669189453 124.59024810791016C177.88836669921875 124.45814514160156 178.6170196533203 124.34732818603516 179.3362579345703 124.25713348388672L182.5139617919922 123.73101806640625C182.65892028808594 123.70203399658203 182.80453491210938 123.67369842529297 182.95077514648438 123.64601135253906L190.42372131347656 122.22966003417969C191.251708984375 122.07291412353516 192.0682373046875 121.94315338134766 192.8731231689453 121.83943939208984L198.96231079101562 120.79981994628906C199.92611694335938 120.64190673828125 200.87368774414062 120.51986694335938 201.8047637939453 120.4322509765625L204.55746459960938 120.05301666259766C204.8703155517578 120.00202941894531 205.1859893798828 119.95418548583984 205.5045166015625 119.90953826904297L213.82728576660156 118.74948120117188C214.65109252929688 118.63502502441406 215.4624786376953 118.54629516601562 216.26133728027344 118.48239135742188L221.40615844726562 117.87324523925781C222.10482788085938 117.76930236816406 222.8173370361328 117.68194580078125 223.5437774658203 117.61178588867188C234.37091064453125 109.48023223876953 250.2567138671875 108.84915924072266 261.8690185546875 115.71858978271484L264.08758544921875 115.68745422363281C264.3656921386719 115.68478393554688 264.64202880859375 115.68479919433594 264.9166259765625 115.68745422363281ZM478.89263916015625 581.091552734375 478.54840087890625 577.9580688476562 477.80859375 573.2101440429688C477.728271484375 572.6879272460938 477.65838623046875 572.1705322265625 477.5987243652344 571.6580810546875L477.2845153808594 569.6371459960938C477.2398376464844 569.3677368164062 477.1976013183594 569.09619140625 477.1578369140625 568.822509765625L477.12066650390625 568.5833740234375C476.9944152832031 567.7346801757812 476.89569091796875 566.8989868164062 476.8234558105469 566.0763549804688L476.5406188964844 563.619384765625C476.5071105957031 563.3158569335938 476.4770202636719 563.0140380859375 476.4502868652344 562.7140502929688L476.14642333984375 560.239990234375L476.1224670410156 560.0447998046875L476.098388671875 559.8410034179688L475.604736328125 555.6621704101562Q475.54541015625 555.1996459960938 475.4955139160156 554.729248046875L475.4884948730469 554.6626586914062L475.4520568847656 554.3197631835938L474.8702087402344 548.8463745117188L474.1789245605469 545.0590209960938C473.9742431640625 544.1241455078125 473.79876708984375 543.1618041992188 473.6539611816406 542.1717529296875L473.0054016113281 537.6207275390625C472.95330810546875 537.31494140625 472.9042053222656 537.0064697265625 472.8581237792969 536.6951904296875L472.27325439453125 532.6649169921875C472.23760986328125 532.4628295898438 472.2032165527344 532.2594604492188 472.170166015625 532.054931640625L471.4328918457031 527.4647216796875L471.3100280761719 526.8819580078125L470.4931945800781 525.183837890625L469.3133239746094 523.3671264648438L467.3993225097656 520.7741088867188L465.0584411621094 518.3822631835938L463.0080261230469 516.6124267578125L459.47686767578125 514.0096435546875C459.08990478515625 513.7481689453125 458.7032165527344 513.4773559570312 458.31689453125 513.1972045898438L455.3047180175781 511.01397705078125L452.0984191894531 508.8267517089844L452.09429931640625 508.8239440917969L449.1827392578125 506.9741516113281L445.29803466796875 504.833984375L439.2847900390625 501.9098205566406L434.81890869140625 500.01837158203125Q434.55291748046875 499.9051513671875 434.2907409667969 499.78948974609375L426.64453125 496.4977111816406C426.31903076171875 496.356201171875 425.9978942871094 496.2118835449219 425.6811218261719 496.0647888183594L419.07470703125 493.288818359375L412.98419189453125 491.0801696777344C412.7094421386719 490.991943359375 412.4338073730469 490.90032958984375 412.1572570800781 490.8053283691406L404.2010803222656 488.0374450683594L398.35791015625 486.32696533203125C398.04119873046875 486.2345886230469 397.7279357910156 486.1393127441406 397.4180908203125 486.04119873046875L389.549560546875 483.69659423828125C389.4101257324219 483.6552734375 389.2713623046875 483.6133728027344 389.1332702636719 483.5709228515625L381.4965515136719 481.37646484375C381.0789489746094 481.2545166015625 380.6673278808594 481.1275634765625 380.26165771484375 480.9956970214844L374.64410400390625 479.3665771484375C374.52410888671875 479.33135986328125 374.40460205078125 479.2957763671875 374.28558349609375 479.2597351074219L369.114013671875 477.8297424316406L363.2283630371094 476.2997131347656L356.9750061035156 475.0339050292969L350.41748046875 474.0896301269531L342.9021911621094 473.2695617675781C342.6790466308594 473.2489318847656 342.4549560546875 473.2264404296875 342.2298583984375 473.20208740234375L337.2263488769531 472.6639404296875L329.64453125 472.0959777832031C329.00689697265625 472.04730224609375 328.37969970703125 471.9853210449219 327.76287841796875 471.9104309082031L322.8663024902344 471.5357666015625C322.7519226074219 471.5296325683594 322.6372375488281 471.52301025390625 322.5223083496094 471.51593017578125L317.56982421875 471.1929626464844L311.2049560546875 471.0977783203125C311.14202880859375 471.0967102050781 311.07916259765625 471.09552001953125 311.01641845703125 471.09417724609375L304.4064636230469 470.9898681640625H300.07647705078125C299.68255615234375 470.9884033203125 299.2922058105469 470.9815979003906 298.90545654296875 470.9695739746094L296.17181396484375 471.0205383300781L293.5945739746094 471.1858215332031C291.8219299316406 471.4012451171875 289.9651184082031 471.4971923828125 288.02435302734375 471.46209716796875L288.0172424316406 471.46197509765625L286.09637451171875 471.4162292480469L284.93109130859375 471.38848876953125C284.2309875488281 471.39508056640625 283.51959228515625 471.3838195800781 282.7969665527344 471.35406494140625L282.2728576660156 471.3285827636719C281.6163330078125 471.3216247558594 280.9501953125 471.2987976074219 280.2745056152344 471.2596435546875L279.55462646484375 471.21356201171875C278.406005859375 471.4548034667969 277.2284240722656 471.6299133300781 276.02398681640625 471.73388671875C272.0820007324219 472.2687683105469 268.2111511230469 471.97637939453125 264.5447998046875 471.0135803222656L264.2370910644531 473.5486145019531C264.1823425292969 474.1280517578125 264.1146240234375 474.7139892578125 264.03363037109375 475.3063659667969L263.04364013671875 482.6245422363281L263.035888671875 482.6849670410156L262.07611083984375 490.1845703125C262.0638427734375 490.3191833496094 262.0508728027344 490.45416259765625 262.0372619628906 490.5895080566406L261.4059753417969 496.7596130371094C261.3535461425781 497.6889343261719 261.2677001953125 498.6358642578125 261.14697265625 499.6002197265625L260.1352844238281 507.39691162109375C260.0871276855469 507.781005859375 260.0343017578125 508.1610412597656 259.97686767578125 508.53704833984375L259.4068908691406 513.5614013671875C259.2902526855469 514.5392456054688 259.14312744140625 515.4911499023438 258.967041015625 516.4171142578125L258.07476806640625 522.3358764648438L257.1464538574219 529.0719604492188C257.0831298828125 529.5892333984375 257.0093688964844 530.1114501953125 256.9248962402344 530.6386108398438L256.3396911621094 534.2667846679688C256.2054748535156 535.4383544921875 256.0148620605469 536.6347045898438 255.76483154296875 537.855224609375L254.50634765625 543.9110717773438C254.3456573486328 544.8285522460938 254.1496124267578 545.7597045898438 253.9168243408203 546.7041015625L252.1240997314453 553.812744140625L250.5445556640625 561.4071655273438C250.4913330078125 561.66259765625 250.4361572265625 561.9160766601562 250.3790283203125 562.16748046875L249.9044647216797 564.5017700195312C249.8013916015625 565.1317138671875 249.6821746826172 565.7683715820312 249.54637145996094 566.41162109375L248.6619415283203 570.5230102539062L247.82615661621094 574.9278564453125L247.13182067871094 579.7523193359375C247.12266540527344 579.814208984375 247.11338806152344 579.8759765625 247.10400390625 579.9376220703125L246.22805786132812 586.968994140625Q246.19717407226562 587.218017578125 246.1636962890625 587.46484375L245.3649444580078 594.2884521484375C245.35617065429688 594.3754272460938 245.34710693359375 594.4625854492188 245.3377685546875 594.5498657226562L244.5958709716797 601.14599609375C244.58816528320312 601.217041015625 244.58030700683594 601.2879028320312 244.57228088378906 601.3587036132812L244.1376495361328 606.4071655273438L243.80001831054688 612.2070922851562C243.7819061279297 612.494873046875 243.76107788085938 612.780517578125 243.73753356933594 613.0641479492188L243.6628875732422 614.7162475585938C243.6610565185547 614.9487915039062 243.65731811523438 615.1824951171875 243.65164184570312 615.41748046875L243.55303955078125 618.9507446289062C243.5791015625 620.396484375 243.5239715576172 621.8897094726562 243.38185119628906 623.4299926757812L243.3663330078125 623.5900268554688C243.33116149902344 624.0258178710938 243.28929138183594 624.4567260742188 243.24090576171875 624.8828125L242.87387084960938 628.6663208007812L242.85617065429688 628.8526611328125L242.84579467773438 628.9581909179688C242.8090362548828 629.3412475585938 242.7675018310547 629.720458984375 242.72129821777344 630.0958251953125L242.3656768798828 633.2634887695312C242.3400115966797 633.6029052734375 242.31007385253906 633.9446411132812 242.2757568359375 634.2886962890625L241.9115447998047 638.133056640625C241.8961181640625 638.2861938476562 241.8799285888672 638.4386596679688 241.8629913330078 638.5905151367188L241.55215454101562 642.3908081054688L241.40313720703125 645.2455444335938C241.39938354492188 645.490234375 241.39349365234375 645.736328125 241.38546752929688 645.9837036132812L241.22360229492188 650.9881591796875C241.2208709716797 651.0719604492188 241.21792602539062 651.1555786132812 241.2147216796875 651.2390747070312L241.16964721679688 654.3604736328125Q241.16677856445312 654.4925537109375 241.16314697265625 654.6241455078125L241.11569213867188 659.2030029296875C241.11407470703125 659.3721313476562 241.11146545410156 659.5405883789062 241.10789489746094 659.7083740234375L241.06173706054688 663.897216796875V668.8477172851562L241.06240844726562 668.9016723632812L241.1048583984375 672.2969360351562C241.11135864257812 672.5841064453125 241.11497497558594 672.8731689453125 241.11569213867188 673.1642456054688V694.7737426757812C241.17384338378906 696.1156616210938 241.16299438476562 697.50048828125 241.0785675048828 698.9278564453125C241.05654907226562 699.4503784179688 241.02484130859375 699.96630859375 240.98367309570312 700.4755859375L240.91336059570312 701.6261596679688C240.81390380859375 703.1467895507812 240.63819885253906 704.609130859375 240.39181518554688 706.013427734375L240.35980224609375 706.2637329101562C240.28480529785156 706.9972534179688 240.1880645751953 707.7407836914062 240.0688934326172 708.4942016601562C239.9554443359375 709.2794799804688 239.8221435546875 710.0473022460938 239.6698455810547 710.7978515625C239.50291442871094 712.0828247070312 239.26678466796875 713.3963623046875 238.9574432373047 714.737548828125L238.1313018798828 718.1172485351562L237.43316650390625 721.6439819335938Q237.40591430664062 721.7740478515625 237.37796020507812 721.9034423828125L237.2218017578125 722.7968139648438C237.1205596923828 723.4563598632812 237.00167846679688 724.1234130859375 236.86465454101562 724.7978515625L236.85313415527344 724.8543701171875L236.78787231445312 725.1825561523438L236.1004180908203 728.6395263671875L236.0762481689453 728.7734985351562L239.1414031982422 728.8011474609375L254.53045654296875 728.5098876953125L263.7518310546875 727.8037719726562C263.8991394042969 727.7866821289062 264.0470275878906 727.7702026367188 264.19549560546875 727.7545166015625L278.8553161621094 726.2353515625L292.7655944824219 724.1871948242188L301.5701904296875 722.607421875L307.625732421875 721.1302490234375L307.6708068847656 721.117919921875L315.1071472167969 719.1109008789062L323.9272155761719 716.5167236328125L324.06005859375 716.4776611328125L335.12109375 713.2133178710938C335.3028564453125 713.1602783203125 335.48419189453125 713.108642578125 335.6650695800781 713.0584106445312L338.56610107421875 712.138916015625C338.78729248046875 712.0595092773438 339.0103759765625 711.9814453125 339.2352600097656 711.9048461914062L344.0238952636719 710.2592163085938L344.05108642578125 710.2499389648438L348.6811828613281 708.5701904296875L352.9972839355469 706.8324584960938C353.14813232421875 706.7645874023438 353.2999572753906 706.697265625 353.4527587890625 706.630615234375L361.0394287109375 703.3466796875L367.5513610839844 700.1787109375L373.95977783203125 696.7929077148438L380.9143981933594 692.6808471679688L388.3355407714844 687.5570678710938C388.5647888183594 687.3987426757812 388.7940979003906 687.2435913085938 389.0234375 687.0916137695312L396.4205322265625 681.9124755859375L401.29852294921875 678.0742797851562C401.42315673828125 677.9766235351562 401.5478210449219 677.8799438476562 401.672607421875 677.7843627929688L408.3128662109375 672.219970703125C408.8819885253906 671.7449340820312 409.4535827636719 671.2925415039062 410.0272216796875 670.8622436523438L416.2210998535156 665.809326171875L423.7443542480469 659.5267333984375C424.0544738769531 659.2692260742188 424.3652648925781 659.018310546875 424.6767272949219 658.7740478515625L429.1958923339844 655.1124267578125L434.8821716308594 650.3848876953125C435.2512512207031 650.0570068359375 435.6302795410156 649.7319946289062 436.0194396972656 649.4099731445312L441.058349609375 645.2596435546875L441.0778503417969 645.2418212890625L444.5113525390625 642.1398315429688L446.920166015625 639.8206787109375L448.1890869140625 638.4632568359375L448.2540283203125 638.3893432617188L451.6903991699219 634.47900390625L455.8302917480469 629.4918823242188L459.4689025878906 624.43994140625L459.4769592285156 624.4281616210938L462.8390808105469 619.5225219726562L465.1991882324219 615.6550903320312L466.22149658203125 613.7313232421875C466.344482421875 613.5055541992188 466.46875 613.2822265625 466.59423828125 613.061279296875L467.4894714355469 611.4111938476562C467.6861877441406 611.04296875 467.88629150390625 610.6810913085938 468.0896911621094 610.3255004882812L468.8611755371094 608.8607177734375C469.1260681152344 608.327392578125 469.4061584472656 607.7926635742188 469.70166015625 607.256591796875L471.43560791015625 604.1587524414062Q471.59063720703125 603.8599243164062 471.75201416015625 603.560546875L473.6956481933594 599.9423828125L475.3276062011719 596.3084716796875C475.4491882324219 596.024169921875 475.5747375488281 595.7392578125 475.7043151855469 595.45361328125L477.239501953125 592.084716796875L477.6835021972656 590.587158203125L478.033203125 588.7964477539062L478.5906982421875 584.9600219726562L478.912841796875 581.940673828125L478.89263916015625 581.091552734375ZM423.21429443359375 265.6715087890625 423.1126403808594 262.6634216308594 422.85406494140625 258.81353759765625 422.48663330078125 254.9134063720703 421.7899169921875 250.52407836914062 421.4298095703125 248.98634338378906 420.2913513183594 244.85560607910156 419.515380859375 242.56727600097656C419.4308166503906 242.34388732910156 419.3476867675781 242.11856079101562 419.2659912109375 241.8913116455078L418.2127380371094 238.91880798339844L417.8103332519531 237.9100799560547L417.4263610839844 237.07814025878906L417.3775329589844 236.9812774658203L415.5447692871094 233.31576538085938C415.5035705566406 233.23843383789062 415.4624938964844 233.16082763671875 415.4216003417969 233.0829315185547L413.2093811035156 228.8743438720703C413.1260070800781 228.71519470214844 413.0439453125 228.55618286132812 412.96319580078125 228.39732360839844L411.6987609863281 226.1586151123047L410.1069030761719 223.70802307128906Q409.8728942871094 223.342041015625 409.64923095703125 222.97628784179688L408.5798645019531 221.33401489257812L407.51434326171875 220.08224487304688L407.4630432128906 220.02549743652344L404.9339294433594 217.25360107421875L403.1918640136719 215.64056396484375L399.6663513183594 212.64697265625L399.65155029296875 212.6343231201172L397.46405029296875 210.9594268798828L396.06268310546875 210.0701904296875C395.6142272949219 209.81639099121094 395.1652526855469 209.55130004882812 394.7158508300781 209.2747039794922L389.4922180175781 206.07815551757812L384.9632568359375 203.63626098632812C384.4917907714844 203.37843322753906 384.0309143066406 203.1150360107422 383.5804748535156 202.84632873535156L378.9066467285156 200.2639923095703L374.349853515625 197.75027465820312L371.3797607421875 196.47357177734375C370.82623291015625 196.232177734375 370.2853698730469 195.98265075683594 369.7570495605469 195.7252960205078L365.61920166015625 193.9114532470703L361.238037109375 192.12725830078125L358.0209655761719 190.97396850585938L354.97491455078125 190.10101318359375L352.89251708984375 189.622802734375C352.1746520996094 189.48667907714844 351.4485778808594 189.32896423339844 350.7144775390625 189.1490020751953L346.6931457519531 188.140869140625L343.07965087890625 187.51681518554688C342.8996887207031 187.48477172851562 342.7206726074219 187.45172119140625 342.5426330566406 187.41769409179688L340.0431823730469 187.03057861328125L336.2312927246094 186.58673095703125C335.5903625488281 186.52613830566406 334.9415283203125 186.4496307373047 334.2847900390625 186.35675048828125L328.0663146972656 185.45298767089844C327.5263366699219 185.37664794921875 326.9945068359375 185.2911376953125 326.4708557128906 185.19671630859375L322.315673828125 184.61029052734375L317.5718078613281 184.09059143066406C316.8294982910156 184.00747680664062 316.10198974609375 183.90672302246094 315.3892517089844 183.78900146484375L310.46307373046875 183.1328582763672C310.0146179199219 183.07286071777344 309.5717468261719 183.0065155029297 309.1344299316406 182.93397521972656L304.25201416015625 182.2657470703125L302.964599609375 182.15585327148438C302.37774658203125 182.12582397460938 301.78375244140625 182.08291625976562 301.18255615234375 182.02676391601562L295.05322265625 181.45504760742188L290.12060546875 181.136474609375H284.1728515625Q283.9598083496094 181.13568115234375 283.7481384277344 181.1328125L282.8504943847656 181.12596130371094L283.2151184082031 183.45660400390625C283.30316162109375 184.0192413330078 283.3790588378906 184.5762481689453 283.44305419921875 185.12759399414062L283.7489929199219 187.23577880859375C283.92230224609375 188.19676208496094 284.06414794921875 189.18515014648438 284.1728515625 190.20114135742188L284.78717041015625 196.0692138671875C284.90234375 196.8866729736328 284.9946594238281 197.72286987304688 285.0631103515625 198.57786560058594L285.5892028808594 205.63265991210938C285.6512756347656 206.42013549804688 285.6907958984375 207.19503784179688 285.7086181640625 207.9573211669922L285.92071533203125 212.25387573242188C285.9902648925781 213.05186462402344 286.03741455078125 213.86631774902344 286.0613098144531 214.6973114013672L286.18115234375 219.81039428710938C286.2327880859375 220.55169677734375 286.2650146484375 221.3068389892578 286.2771301269531 222.07583618164062L286.3850402832031 229.56228637695312C286.3895568847656 229.87298583984375 286.3907165527344 230.18150329589844 286.3885803222656 230.4878692626953L286.4389953613281 239.24745178222656C286.4449157714844 240.52133178710938 286.3949279785156 241.75833129882812 286.29229736328125 242.95843505859375L285.9533996582031 250.1601104736328C285.9241027832031 250.7830047607422 285.8818664550781 251.3963623046875 285.8270568847656 252.0001983642578L285.43243408203125 258.7818298339844C285.41851806640625 259.498291015625 285.38555908203125 260.2259826660156 285.3328857421875 260.9648742675781L284.9552001953125 266.2795715332031C284.9208984375 266.7518615722656 284.8792724609375 267.218505859375 284.83050537109375 267.6794738769531L284.53125 270.9201965332031C284.4807434082031 271.6294250488281 284.41094970703125 272.3487243652344 284.32122802734375 273.07806396484375L283.6467590332031 278.40625C283.5838623046875 278.9125061035156 283.5128173828125 279.4117431640625 283.433837890625 279.90399169921875L282.32269287109375 288.20489501953125C282.2756652832031 288.604736328125 282.2224426269531 289.0075378417969 282.1629638671875 289.413330078125L281.0028991699219 297.42584228515625C280.9739685058594 297.6236572265625 280.94378662109375 297.8203430175781 280.91241455078125 298.0159606933594L279.5865478515625 308.7566833496094C279.5495910644531 309.0457458496094 279.5099792480469 309.33251953125 279.4677734375 309.6169738769531L278.5979919433594 318.2278137207031C278.55755615234375 318.8882751464844 278.50054931640625 319.5576477050781 278.4264831542969 320.23590087890625L277.4822692871094 328.77447509765625L277.48162841796875 328.7802734375L276.4651184082031 339.26531982421875C276.4190368652344 339.97576904296875 276.3536071777344 340.6964416503906 276.26824951171875 341.42724609375L275.08392333984375 351.5067138671875C275.0743713378906 351.6044006347656 275.0644836425781 351.7023010253906 275.0542297363281 351.80035400390625L273.8941650390625 362.91534423828125C273.8141784667969 363.68072509765625 273.71533203125 364.4305114746094 273.59832763671875 365.16473388671875L272.5933837890625 372.93768310546875C272.57025146484375 373.16156005859375 272.54522705078125 373.3863830566406 272.5182800292969 373.6121826171875L271.75537109375 379.8888854980469C271.7490539550781 379.95928955078125 271.7425842285156 380.0298156738281 271.73590087890625 380.1004333496094L270.931396484375 388.3266906738281C270.8869934082031 389.0496520996094 270.8226623535156 389.78326416015625 270.7377014160156 390.5274963378906L269.82269287109375 398.3572692871094C269.79486083984375 398.6991271972656 269.7626953125 399.0433044433594 269.7260437011719 399.38983154296875L269.1932678222656 404.4128112792969C271.6640625 403.980712890625 274.10504150390625 403.8755798339844 276.4858093261719 404.05908203125L278.1717224121094 403.60858154296875C278.9034118652344 403.39471435546875 279.65374755859375 403.19769287109375 280.4228820800781 403.01837158203125L280.5133056640625 402.99737548828125C280.7089538574219 402.9504699707031 280.9040222167969 402.9051513671875 281.0985412597656 402.8614501953125L285.2760314941406 401.8913269042969L290.28338623046875 400.38800048828125C290.3846130371094 400.35791015625 290.4856872558594 400.3282470703125 290.5866394042969 400.2990417480469L295.3048400878906 398.7384033203125C295.9188537597656 398.5213317871094 296.5471496582031 398.3156433105469 297.1897888183594 398.1218566894531L297.2273254394531 398.11053466796875L297.81298828125 397.9336853027344L300.9445495605469 396.9881591796875C301.553955078125 396.7746276855469 302.17730712890625 396.5723571777344 302.81475830078125 396.3817443847656L309.8244934082031 394.3186950683594L316.4389953613281 392.0819091796875L324.0597839355469 388.8106994628906L330.5560302734375 385.70556640625L334.5787048339844 383.54852294921875C334.9286804199219 383.3446960449219 335.2848205566406 383.1440124511719 335.6471862792969 382.9466247558594L343.1344909667969 378.88995361328125L349.0926208496094 375.2301025390625L353.5067138671875 372.3037414550781Q353.6205139160156 372.2283935546875 353.73431396484375 372.154052734375L359.0199890136719 368.52825927734375L363.0715026855469 365.5328063964844L365.0456848144531 363.9446716308594L366.88787841796875 362.3892822265625Q367.04302978515625 362.25799560546875 367.19842529296875 362.1289978027344L368.77923583984375 360.71173095703125L368.84381103515625 360.649169921875L372.44659423828125 357.1981201171875L376.0094299316406 353.5542907714844C376.0799560546875 353.4776611328125 376.1509094238281 353.4010925292969 376.2223205566406 353.3246154785156L379.2729797363281 350.0816955566406L380.87646484375 348.2861022949219C380.93890380859375 348.21197509765625 381.001708984375 348.1379089355469 381.0649108886719 348.0638732910156L382.7900390625 346.0658874511719Q383.0032958984375 345.79656982421875 383.2231750488281 345.5279235839844L386.4470520019531 341.62957763671875C386.4884948730469 341.5789489746094 386.5299987792969 341.5285339355469 386.571533203125 341.4782409667969L389.634521484375 337.5265808105469C389.6600646972656 337.49139404296875 389.68572998046875 337.4561767578125 389.71142578125 337.4209899902344L393.83233642578125 331.8026428222656L397.0899353027344 327.0883483886719L401.4604187011719 320.66754150390625C401.669921875 320.3629150390625 401.8815002441406 320.0635070800781 402.0951232910156 319.7693176269531L405.06011962890625 315.37542724609375L408.28155517578125 310.0343322753906L410.7958984375 305.5948486328125L413.3417053222656 300.6228942871094L414.9249572753906 297.1063537597656Q415.016357421875 296.8685302734375 415.1113586425781 296.6300048828125L417.1156005859375 291.6310729980469L418.0519714355469 288.72540283203125C418.14501953125 288.4416809082031 418.2403259277344 288.16082763671875 418.3378601074219 287.88287353515625L419.4749450683594 284.47998046875L419.84442138671875 282.8352355957031C420.03912353515625 281.7287902832031 420.2861328125 280.60296630859375 420.5879211425781 279.4584045410156L421.7973937988281 274.9291076660156L422.5303649902344 271.2840270996094C422.5717468261719 271.08355712890625 422.61431884765625 270.88433837890625 422.6581115722656 270.68634033203125L422.8722839355469 269.5513610839844L423.1444091796875 267.15087890625L423.21429443359375 265.6715087890625Z" fill="black"/>
</svg>
