<svg xmlns="http://www.w3.org/2000/svg" viewBox="0 0 628 1000">
  <path d="M362.4292297363281 180.3162078857422 358.10247802734375 180.15060424804688 352.81072998046875 180.24322509765625C352.53631591796875 180.24620056152344 352.2635192871094 180.24668884277344 351.9923095703125 180.2447509765625L346.2682189941406 180.44847106933594C346.0882568359375 180.45712280273438 345.9075622558594 180.46473693847656 345.7261047363281 180.4713134765625L337.59979248046875 180.79466247558594L332.8682556152344 181.19830322265625C332.7434387207031 181.20767211914062 332.618896484375 181.21649169921875 332.49468994140625 181.22479248046875L326.2358093261719 181.7871551513672L318.2285461425781 182.9231414794922C317.3607482910156 183.04478454589844 316.5059509277344 183.13941955566406 315.664306640625 183.2079315185547L311.0686340332031 183.81240844726562C310.73101806640625 183.87106323242188 310.3902587890625 183.92628479003906 310.0462951660156 183.97799682617188L305.14263916015625 184.70498657226562C305.01531982421875 184.7239227294922 304.8883056640625 184.74227905273438 304.76153564453125 184.7600555419922L301.2938232421875 185.417724609375C300.94085693359375 185.48226928710938 300.5898742675781 185.5421905517578 300.24090576171875 185.59754943847656L297.06488037109375 186.2033233642578L289.10595703125 188.32571411132812C289.0189208984375 188.34841918945312 288.9319763183594 188.3708038330078 288.8451232910156 188.39291381835938L281.5799560546875 190.58761596679688L274.90814208984375 192.83023071289062C274.6053466796875 192.93093872070312 274.3035888671875 193.0277862548828 274.0028991699219 193.120849609375L268.98388671875 194.90670776367188L261.3890380859375 198.0810546875L254.75184631347656 201.41163635253906L254.71099853515625 201.4318084716797L250.13600158691406 203.81126403808594L246.4457244873047 205.91078186035156C246.3575439453125 206.20089721679688 246.26600646972656 206.48826599121094 246.17120361328125 206.77291870117188L245.97640991210938 208.22776794433594L245.93002319335938 208.66725158691406L245.72669982910156 211.717041015625L245.614501953125 215.9943084716797C245.61131286621094 216.0993194580078 245.60777282714844 216.20407104492188 245.6038818359375 216.30857849121094L245.55747985839844 220.11395263671875C245.55471801757812 220.30377197265625 245.55079650878906 220.4927978515625 245.54571533203125 220.68101501464844L245.50045776367188 223.90574645996094V232.5299072265625L245.5463409423828 236.2462158203125C245.55300903320312 236.5449676513672 245.55673217773438 236.84571838378906 245.55747985839844 237.14846801757812V238.85829162597656C245.57281494140625 239.50100708007812 245.57293701171875 240.1527099609375 245.55738830566406 240.8132781982422C245.55160522460938 242.65476989746094 245.4348602294922 244.42242431640625 245.21607971191406 246.11622619628906C245.1459197998047 247.77439880371094 244.96673583984375 249.4840545654297 244.67027282714844 251.2434539794922C244.4528045654297 252.7469482421875 244.1627960205078 254.1901397705078 243.80572509765625 255.5734100341797L243.63169860839844 256.4167785644531C243.54335021972656 256.9505310058594 243.444091796875 257.4888916015625 243.333740234375 258.0317687988281L242.79486083984375 260.5982666015625C242.77096557617188 260.7449951171875 242.74627685546875 260.89208984375 242.7207794189453 261.03955078125L241.72293090820312 266.6131896972656C241.61166381835938 267.2567443847656 241.48829650878906 267.8888244628906 241.35324096679688 268.509521484375L240.3829803466797 273.45550537109375C240.36524963378906 273.5443420410156 240.3472900390625 273.6329345703125 240.32911682128906 273.7213134765625L239.6830291748047 277.3222351074219C239.67417907714844 277.387451171875 239.6651611328125 277.4527587890625 239.65599060058594 277.51812744140625L238.85191345214844 283.1602783203125L238.52603149414062 286.2823181152344L238.20199584960938 290.9461669921875C238.12234497070312 292.124755859375 237.9994354248047 293.27008056640625 237.83555603027344 294.3822937011719L237.37521362304688 298.5154724121094C237.35116577148438 298.7281188964844 237.3257598876953 298.9396057128906 237.2989959716797 299.14996337890625L236.81927490234375 303.86102294921875C236.81556701660156 303.89447021484375 236.8118133544922 303.9278869628906 236.80804443359375 303.9612731933594L236.37738037109375 308.8216857910156C236.36439514160156 308.96453857421875 236.35076904296875 309.1068420410156 236.33653259277344 309.2486877441406L236.0353240966797 313.611328125L236.03517150878906 313.61346435546875L235.76441955566406 320.3966064453125C235.70054626464844 321.86041259765625 235.56893920898438 323.2746887207031 235.37405395507812 324.6395568847656L234.98040771484375 328.74993896484375C234.91680908203125 329.3818664550781 234.84103393554688 330.0037536621094 234.75344848632812 330.6156921386719L234.42446899414062 333.4825439453125C234.390869140625 333.78594970703125 234.3544921875 334.0870056152344 234.3153533935547 334.3857421875L234.17227172851562 335.7196044921875C234.12564086914062 336.3954162597656 234.0625762939453 337.0799865722656 233.98257446289062 337.7732238769531L233.5264129638672 341.6077880859375C233.4622344970703 342.1632995605469 233.3887176513672 342.71087646484375 233.30609130859375 343.2505798339844L232.92897033691406 346.12255859375L232.2434844970703 352.4129333496094C232.227294921875 352.5545654296875 232.2104949951172 352.6957092285156 232.19309997558594 352.8363342285156L231.644775390625 358.9273986816406C231.63401794433594 359.0455322265625 231.6228485107422 359.163330078125 231.61123657226562 359.28076171875L231.25267028808594 364.55804443359375C231.2160186767578 365.5596618652344 231.1429443359375 366.581298828125 231.03182983398438 367.6228332519531L230.1907958984375 375.8050842285156C230.15162658691406 376.1711120605469 230.10838317871094 376.53375244140625 230.06114196777344 376.89300537109375L229.41990661621094 382.83807373046875C229.41561889648438 382.8885192871094 229.41123962402344 382.9389953613281 229.40676879882812 382.9895324707031L228.90785217285156 388.833984375C228.8841094970703 389.1021728515625 228.858154296875 389.3685607910156 228.8300018310547 389.6332092285156L228.6370086669922 392.5687561035156C228.61476135253906 392.85540771484375 228.58998107910156 393.1400451660156 228.56268310546875 393.4226989746094L228.4708709716797 395.0408935546875C228.46929931640625 395.08636474609375 228.46766662597656 395.1318664550781 228.46595764160156 395.1773986816406L228.18951416015625 401.3050842285156C228.18923950195312 401.5843811035156 228.18637084960938 401.8653564453125 228.1808624267578 402.14801025390625L228.02406311035156 410.6581115722656C228.02040100097656 410.8350830078125 228.01573181152344 411.0113525390625 228.01007080078125 411.1869201660156L227.91001892089844 416.9017333984375V457.21435546875L227.9628448486328 465.98321533203125L228.29359436035156 472.77972412109375C228.3152618408203 473.0444030761719 228.334716796875 473.310791015625 228.35191345214844 473.5788879394531L228.850830078125 481.31927490234375C228.87283325195312 481.662353515625 228.89083862304688 482.00311279296875 228.9049072265625 482.3415832519531L229.34976196289062 489.3447265625C229.3856964111328 489.9485778808594 229.40927124023438 490.54522705078125 229.42079162597656 491.1346130371094L229.805908203125 498.7528991699219C229.83355712890625 499.3403015136719 229.849609375 499.9207458496094 229.85435485839844 500.4942321777344L230.13377380371094 507.9900207519531C230.1504364013672 508.46624755859375 230.15951538085938 508.93780517578125 230.1612091064453 509.40472412109375L230.30482482910156 515.0176391601562C230.31739807128906 515.5128173828125 230.32183837890625 516.0028686523438 230.3183135986328 516.48779296875L230.39031982421875 522.2849731445312C230.47015380859375 523.6762084960938 230.481201171875 525.1121826171875 230.4188690185547 526.5925903320312L230.0197296142578 535.8297119140625C229.9854736328125 536.620361328125 229.9314422607422 537.3965454101562 229.8583221435547 538.1583251953125L229.4510498046875 544.8521118164062C229.43263244628906 545.2203979492188 229.40945434570312 545.5913696289062 229.38143920898438 545.9650268554688C229.35128784179688 546.3955688476562 229.31533813476562 546.8215942382812 229.27366638183594 547.2432250976562L228.8385009765625 552.2706909179688C228.79798889160156 553.1241455078125 228.73114013671875 553.9920654296875 228.6370086669922 554.8741455078125L227.85299682617188 562.4577026367188C227.8098602294922 562.86083984375 227.76177978515625 563.2598266601562 227.7088623046875 563.6547241210938L227.06240844726562 569.791015625C227.01856994628906 570.2830810546875 226.96583557128906 570.7796630859375 226.90399169921875 571.2805786132812C226.82615661621094 571.9649047851562 226.73390197753906 572.63720703125 226.62771606445312 573.297607421875L225.8422393798828 578.9109497070312C225.7970733642578 579.3436279296875 225.7451171875 579.7797241210938 225.68626403808594 580.2191772460938L224.89035034179688 585.9120483398438L224.18670654296875 592.3676147460938C224.1829833984375 592.418701171875 224.17916870117188 592.4699096679688 224.17526245117188 592.5211181640625L223.5623016357422 600.703369140625C223.47145080566406 601.87451171875 223.33816528320312 603.012451171875 223.1647186279297 604.1171875L222.57952880859375 609.4747924804688L222.3724365234375 612.6759643554688L222.2876434326172 617.859130859375L222.37281799316406 622.4801025390625C222.38104248046875 622.6849975585938 222.38790893554688 622.890869140625 222.39340209960938 623.0977172851562L222.496337890625 627.7164306640625C222.50042724609375 627.8253784179688 222.50411987304688 627.9346313476562 222.5074462890625 628.0441284179688L222.62147521972656 632.0497436523438C222.62525939941406 632.1755981445312 222.62850952148438 632.3011474609375 222.63124084472656 632.4263916015625L222.7355194091797 635.8414916992188C222.74185180664062 636.0711059570312 222.74642944335938 636.2996826171875 222.749267578125 636.527099609375L222.83529663085938 639.747314453125C222.83917236328125 639.9140014648438 222.8421173095703 640.0801391601562 222.84414672851562 640.2456665039062L222.89231872558594 642.4129638671875C222.9039306640625 643.0089111328125 222.90382385253906 643.5974731445312 222.89231872558594 644.178466796875V644.7507934570312C222.8917999267578 644.769775390625 222.89205932617188 644.788818359375 222.89231872558594 644.8078002929688C222.89834594726562 645.162353515625 222.89935302734375 645.51416015625 222.89630126953125 645.86328125L222.89694213867188 645.99951171875L222.91549682617188 646.7789916992188C222.93304443359375 647.2279663085938 222.94387817382812 647.6815795898438 222.94789123535156 648.1397705078125L222.9493408203125 648.200439453125C222.95103454589844 648.4283447265625 222.95101928710938 648.6551513671875 222.9493408203125 648.880859375V650.0963134765625L222.94931030273438 650.2103271484375L222.9493408203125 650.2673950195312V651.3792724609375C222.94956970214844 651.417236328125 222.94947814941406 651.4552612304688 222.9493408203125 651.4932861328125V651.5564575195312C222.95147705078125 651.8095703125 222.9514923095703 652.0640869140625 222.9493408203125 652.320068359375V652.6621704101562C222.89767456054688 658.8512573242188 221.6063232421875 664.199462890625 219.4100341796875 668.7094116210938C221.65097045898438 673.295166015625 222.9493408203125 678.7464599609375 222.9493408203125 685.0634155273438V690.0240478515625C222.9493408203125 693.7362060546875 222.50096130371094 697.1494140625 221.67642211914062 700.2637329101562L221.72132873535156 700.3004760742188L226.53314208984375 703.7938232421875L231.33673095703125 706.5771484375L238.9860076904297 710.5082397460938C239.23594665527344 710.6357421875 239.48318481445312 710.7648315429688 239.72775268554688 710.8953247070312L243.59146118164062 712.7716674804688L250.55709838867188 715.8584594726562L258.75128173828125 719.0631713867188L266.0068664550781 721.5147705078125L272.3993225097656 723.2662963867188L272.42047119140625 723.2721557617188L280.31646728515625 725.1141967773438L289.0489501953125 726.658935546875C289.3739318847656 726.7164306640625 289.6959533691406 726.7769775390625 290.0150451660156 726.840576171875L298.5141296386719 728.269775390625C298.81817626953125 728.3223266601562 299.1196594238281 728.3776245117188 299.4185791015625 728.435546875L303.4349060058594 729.0135498046875C303.57611083984375 729.0262451171875 303.71771240234375 729.0396728515625 303.85968017578125 729.0537719726562L312.52142333984375 729.94384765625L321.7922668457031 730.507568359375L321.7985534667969 730.5079345703125L332.9252624511719 730.8356323242188H340.9364929199219L350.5874328613281 730.536865234375C350.7859191894531 730.52587890625 350.9853515625 730.5161743164062 351.1856994628906 730.5077514648438L362.7596435546875 730.0571899414062L362.8318786621094 730.0515747070312L375.6327209472656 729.0537719726562C375.9245300292969 729.0315551757812 376.2147216796875 729.01220703125 376.5032653808594 728.9957275390625L385.13787841796875 728.3798828125L397.8849182128906 727.1246337890625L410.5427551269531 725.4900512695312L410.6876525878906 725.4721069335938L421.97955322265625 723.6931762695312L429.6441345214844 722.324951171875L429.6643981933594 722.3212890625L440.6449279785156 720.0422973632812L450.3624267578125 717.443603515625L461.2248229980469 714.251220703125L467.0034484863281 712.3626098632812L475.8717346191406 708.7362670898438L484.9287414550781 704.3949584960938L492.9375915527344 699.712890625L498.1867980957031 696.2277221679688L504.8719787597656 690.9043579101562L512.037109375 684.1824340820312L514.3753051757812 681.8088989257812L516.2027587890625 679.8056030273438C516.3011474609375 679.6868896484375 516.4005126953125 679.5682983398438 516.5007934570312 679.4498901367188L519.203125 675.7257690429688L521.048828125 672.8071899414062L521.4866943359375 672.0120849609375L521.6875610351562 671.5355834960938C521.7954711914062 671.2994384765625 521.90478515625 671.0655517578125 522.0154418945312 670.8338623046875C540.3348388671875 630.0264892578125 602.806884765625 656.2529907226562 585.3923950195312 698.4343872070312L585.1072998046875 699.1043701171875C585.07958984375 699.17138671875 585.0518188476562 699.2382202148438 585.02392578125 699.304931640625C584.433837890625 700.8077392578125 583.7323608398438 702.3248291015625 582.912841796875 703.8524169921875C582.5560913085938 704.5459594726562 582.1866455078125 705.2182006835938 581.8050537109375 705.8695678710938C581.3612670898438 706.7184448242188 580.8792114257812 707.5691528320312 580.3576049804688 708.4210205078125C579.9379272460938 709.1292724609375 579.5059814453125 709.8133544921875 579.0623168945312 710.4735107421875L578.1066284179688 711.9800415039062C577.6470336914062 712.7549438476562 577.1531372070312 713.529296875 576.6240234375 714.3023681640625C575.9215087890625 715.3652954101562 575.193115234375 716.369140625 574.4414672851562 717.3153686523438L572.53564453125 719.909423828125C571.967529296875 720.7445678710938 571.35546875 721.5753173828125 570.6981811523438 722.4005737304688C569.5318603515625 723.936279296875 568.315673828125 725.3331298828125 567.0582885742188 726.5973510742188L566.8394775390625 726.8403930664062C566.0507202148438 727.793701171875 565.1986694335938 728.736572265625 564.281005859375 729.666748046875L561.6187133789062 732.3388671875C560.9532470703125 733.05322265625 560.2492065429688 733.7593994140625 559.505615234375 734.4563598632812L553.3281860351562 740.2415771484375C552.28271484375 741.3160400390625 551.1439819335938 742.3646240234375 549.9082641601562 743.3827514648438C549.1768798828125 744.00830078125 548.4397583007812 744.5966796875 547.6979370117188 745.14892578125L541.9451293945312 749.722900390625C541.0181884765625 750.523681640625 540.0307006835938 751.3021850585938 538.9811401367188 752.0556640625C537.9742431640625 752.809814453125 536.9625244140625 753.5005493164062 535.9478759765625 754.1302490234375L530.8819580078125 757.5634155273438C529.4788818359375 758.5014038085938 528.0755615234375 759.3280639648438 526.6758422851562 760.049072265625L521.1744995117188 763.2960205078125C520.0481567382812 764.0289916992188 518.8532104492188 764.7250366210938 517.5880126953125 765.3801879882812C516.4425659179688 766.0025024414062 515.3016357421875 766.5565185546875 514.1669921875 767.0450439453125L507.3211669921875 770.3306274414062C506.1268310546875 770.9637451171875 504.86737060546875 771.555908203125 503.54119873046875 772.1033325195312L494.32257080078125 775.8756713867188C493.3852233886719 776.2974853515625 492.41162109375 776.6928100585938 491.40130615234375 777.0599365234375C490.2287292480469 777.5106201171875 489.0689697265625 777.8995361328125 487.923095703125 778.2294921875L483.54266357421875 779.6767578125C482.71661376953125 779.9759521484375 481.8658752441406 780.2552490234375 480.9900817871094 780.513671875L469.800048828125 783.7922973632812C469.182861328125 783.9741821289062 468.57049560546875 784.1405639648438 467.9630126953125 784.2918701171875L459.3021240234375 786.6528930664062C458.6942443847656 786.83251953125 458.0741271972656 787.000732421875 457.4416809082031 787.1571044921875C456.25799560546875 787.4644775390625 455.0932312011719 787.7161865234375 453.9480895996094 787.9147338867188L443.72796630859375 790.035888671875C442.759033203125 790.238037109375 441.80438232421875 790.404541015625 440.8643493652344 790.5368041992188L435.7266540527344 791.456298828125C434.8393859863281 791.6539916992188 433.9285888671875 791.8271484375 432.9941101074219 791.9745483398438L420.23602294921875 793.9844360351562C419.20782470703125 794.1453247070312 418.1973571777344 794.267822265625 417.2048645019531 794.3534545898438L405.8101501464844 795.8233642578125C404.68487548828125 795.9644165039062 403.58209228515625 796.0604248046875 402.50201416015625 796.1134643554688L393.6516418457031 796.9849243164062C392.7872619628906 797.1022338867188 391.9031982421875 797.1953125 390.9993896484375 797.2630615234375L381.35675048828125 797.9547119140625Q381.1397705078125 797.973388671875 380.9212341308594 797.9900512695312L368.12042236328125 798.9879150390625C367.18182373046875 799.0598754882812 366.2601623535156 799.1015014648438 365.3555908203125 799.1141357421875L354.1364440917969 799.6008911132812C353.6214599609375 799.6227416992188 353.1118469238281 799.6356811523438 352.607666015625 799.6399536132812L345.42437744140625 799.87353515625C344.3504943847656 799.9557495117188 343.2489013671875 799.9985961914062 342.11962890625 800.0H331.87042236328125C330.72821044921875 800.0 329.6142272949219 799.9575805664062 328.5285339355469 799.8748779296875L319.55426025390625 799.6008911132812C318.76708984375 799.5753173828125 317.9939880371094 799.5299682617188 317.2350158691406 799.4655151367188L309.1570129394531 799.02490234375C308.4251403808594 799.00048828125 307.6824951171875 798.9567260742188 306.92913818359375 798.8931274414062C306.2593078613281 798.8419799804688 305.6002197265625 798.7764892578125 304.9519348144531 798.697265625L298.8126220703125 798.06640625C297.73248291015625 797.994873046875 296.63031005859375 797.8798217773438 295.5063781738281 797.71923828125L288.6063537597656 796.71533203125C288.11016845703125 796.6505737304688 287.6097412109375 796.5765991210938 287.1051330566406 796.4932250976562C286.69635009765625 796.428466796875 286.2919006347656 796.3585815429688 285.89202880859375 796.2837524414062L278.7365417480469 795.0379638671875C278.1690979003906 794.9603271484375 277.59619140625 794.8705444335938 277.01788330078125 794.7684936523438L268.9775390625 793.3323364257812C268.0028076171875 793.1882934570312 267.0129089355469 793.006591796875 266.0082092285156 792.7858276367188C265.19342041015625 792.6178588867188 264.39788818359375 792.4298706054688 263.62158203125 792.222900390625L257.75152587890625 790.820068359375C256.54931640625 790.5995483398438 255.32582092285156 790.3201293945312 254.0818634033203 789.9788818359375L246.95445251464844 788.0259399414062C245.45623779296875 787.613037109375 244.02938842773438 787.1383056640625 242.67245483398438 786.6068115234375L235.650390625 784.2341918945312C234.39767456054688 783.8092651367188 233.19918823242188 783.3425903320312 232.0538787841797 782.8373413085938L225.23011779785156 780.2285766601562C224.0581512451172 779.7723999023438 222.93679809570312 779.2807006835938 221.86508178710938 778.7559814453125L215.15196228027344 775.7810668945312C214.29502868652344 775.3988647460938 213.4672088623047 774.9983520507812 212.66799926757812 774.5804443359375L209.2834014892578 772.9522705078125C208.69956970214844 772.6859741210938 208.1135711669922 772.4031372070312 207.52561950683594 772.1033325195312L201.55174255371094 769.022216796875C200.46893310546875 768.51318359375 199.38070678710938 767.9444580078125 198.2884979248047 767.313720703125L197.96762084960938 767.1281127929688L197.58558654785156 766.9071655273438L192.60012817382812 764.023681640625C191.57730102539062 763.4871215820312 190.55409240722656 762.8923950195312 189.53216552734375 762.2372436523438C187.82081604003906 761.1978149414062 186.25326538085938 760.0885009765625 184.8236083984375 758.9194946289062L182.23390197753906 757.0491333007812C181.006591796875 756.2396850585938 179.78550720214844 755.3386840820312 178.5740966796875 754.341796875L178.53953552246094 754.3131103515625L177.41864013671875 753.3834228515625L174.6598358154297 751.0952758789062C174.25076293945312 750.7685546875 173.8431854248047 750.4305419921875 173.43736267089844 750.0812377929688C172.56915283203125 749.354736328125 171.7493133544922 748.6137084960938 170.97653198242188 747.8597412109375L166.11599731445312 743.42138671875L165.93006896972656 743.2515869140625L165.7794647216797 743.1124877929688L160.05067443847656 737.8224487304688L154.5689697265625 733.45849609375L154.55413818359375 733.446533203125L149.32122802734375 729.440185546875C149.1982879638672 729.3502807617188 149.07540893554688 729.259521484375 148.95257568359375 729.1677856445312L142.8841552734375 724.6047973632812C142.15818786621094 724.09619140625 141.434326171875 723.5552978515625 140.71328735351562 722.981201171875L133.4718475341797 717.2507934570312C132.5463409423828 716.5136108398438 131.6728973388672 715.759765625 130.85006713867188 714.9910888671875L126.1382827758789 710.98046875C125.8687973022461 710.7568969726562 125.60004425048828 710.5283203125 125.33206176757812 710.2947387695312L125.29297637939453 710.2606811523438C124.48282623291016 709.5646362304688 123.715576171875 708.8565673828125 122.99015808105469 708.1377563476562L120.63739013671875 705.9282836914062C120.18032836914062 705.5217895507812 119.72579193115234 705.100341796875 119.27404022216797 704.6637573242188L114.50984191894531 700.0376586914062C114.06358337402344 699.6231079101562 113.6208724975586 699.1932373046875 113.1820068359375 698.7478637695312C111.98796844482422 697.5789184570312 110.901123046875 696.3869018554688 109.9168930053711 695.1766357421875C109.3896255493164 694.6135864257812 108.86875915527344 694.027099609375 108.35485076904297 693.4166870117188L105.96003723144531 690.5800170898438C105.50404357910156 690.0383911132812 105.06754302978516 689.4945678710938 104.65015411376953 688.9488525390625L102.98661804199219 686.8602905273438C102.56092834472656 686.3543090820312 102.1407241821289 685.8314208984375 101.72635650634766 685.2914428710938L98.62255859375 681.2540283203125C98.4874038696289 681.081298828125 98.3528823852539 680.90673828125 98.21902465820312 680.7304077148438C98.17893981933594 680.6776123046875 98.138916015625 680.6246948242188 98.09895324707031 680.571533203125C97.86038970947266 680.2570190429688 97.62776947021484 679.9420166015625 97.40119171142578 679.6265869140625L93.48114776611328 674.2909545898438L93.21623229980469 673.9303588867188C93.2011947631836 673.910400390625 93.1865005493164 673.8901977539062 93.17181396484375 673.8699951171875C92.89246368408203 673.48974609375 92.62169647216797 673.1088256835938 92.35952758789062 672.7276611328125L89.60697937011719 668.8370971679688C88.77299499511719 667.7484130859375 87.96966552734375 666.5864868164062 87.20069885253906 665.3489990234375L87.17649841308594 665.3099365234375L86.6363525390625 664.4386596679688L82.85298156738281 658.3356323242188C82.22639465332031 657.3253173828125 81.65510559082031 656.3167114257812 81.13711547851562 655.3112182617188L80.0636978149414 653.4208374023438C79.33879852294922 652.255126953125 78.65170288085938 651.019287109375 78.00634002685547 649.71142578125L73.94371795654297 641.47216796875C73.27826690673828 640.1212768554688 72.70065307617188 638.7819213867188 72.20655822753906 637.4561767578125L69.26813507080078 630.6669921875C69.09147644042969 630.2557373046875 68.92252349853516 629.8458862304688 68.76114654541016 629.4375L65.87356567382812 622.8508911132812L65.67266082763672 622.392578125L65.4193344116211 621.8147583007812C64.75774383544922 620.2861328125 64.2028579711914 618.7769775390625 63.748687744140625 617.2897338867188L62.02668762207031 612.50634765625C61.75797653198242 611.7470703125 61.51388168334961 610.9939575195312 61.2937126159668 610.2473754882812L59.69898986816406 605.565673828125C59.06964874267578 603.9820556640625 58.520198822021484 602.302001953125 58.05917739868164 600.5234375C57.88916015625 599.9102172851562 57.73506546020508 599.301513671875 57.59653091430664 598.697509765625L55.865570068359375 591.8561401367188C55.770076751708984 591.4984741210938 55.67848205566406 591.1367797851562 55.590858459472656 590.7709350585938C55.306270599365234 589.64306640625 55.07170104980469 588.5328369140625 54.885013580322266 587.4407958984375L54.57194900512695 585.908203125C54.49246597290039 585.5737915039062 54.41624450683594 585.2359619140625 54.34334182739258 584.894775390625L53.117427825927734 579.05029296875C53.062313079833984 578.7926635742188 53.00973129272461 578.5360107421875 52.95964431762695 578.2803955078125L51.77747344970703 572.5928955078125C51.68416213989258 572.13671875 51.59870529174805 571.6836547851562 51.52096939086914 571.23388671875L49.91386795043945 563.0421752929688C49.78306198120117 562.4491577148438 49.662899017333984 561.845703125 49.5537223815918 561.2317504882812L47.60081100463867 550.1985473632812C47.49458694458008 549.596923828125 47.4017333984375 549.0011596679688 47.32193374633789 548.4113159179688L45.97753143310547 540.2588500976562Q45.9254264831543 539.9984741210938 45.8759765625 539.7355346679688L44.75782012939453 533.568359375C44.59503173828125 532.8182983398438 44.4495964050293 532.0516357421875 44.32220458984375 531.2681274414062L42.71140670776367 521.4180908203125C42.5201301574707 520.2439575195312 42.379249572753906 519.0927734375 42.28641128540039 517.96484375L41.64132308959961 512.7412109375C41.44658279418945 511.55267333984375 41.298648834228516 510.32537841796875 41.20039749145508 509.05914306640625L40.791526794433594 503.3466491699219C40.731685638427734 502.76934814453125 40.68256759643555 502.1836853027344 40.64445877075195 501.5896301269531L40.18809127807617 494.6855773925781C40.14092254638672 494.1346130371094 40.10420227050781 493.5762939453125 40.078216552734375 493.0105895996094C39.99208450317383 491.5565490722656 39.97797393798828 490.14422607421875 40.03150177001953 488.77392578125V483.2718200683594C40.010135650634766 482.4874267578125 40.009883880615234 481.68927001953125 40.03150177001953 480.8773498535156L40.28158950805664 471.9866638183594C40.28683853149414 471.4458923339844 40.30250930786133 470.89898681640625 40.328857421875 470.3460693359375C40.36836624145508 469.226806640625 40.44826126098633 468.13616943359375 40.5665168762207 467.0740966796875L41.13383865356445 459.94647216796875C41.13691329956055 459.89111328125 41.14009475708008 459.8357238769531 41.14337921142578 459.7802429199219L41.53384017944336 453.4824523925781C41.55924606323242 452.9316101074219 41.595314025878906 452.3747253417969 41.642295837402344 451.8117980957031L41.65398025512695 451.67413330078125L41.68243408203125 451.33892822265625L42.29956817626953 444.0679626464844C42.35052490234375 443.1769104003906 42.43041229248047 442.2704772949219 42.54035186767578 441.3487548828125L43.59520721435547 432.325439453125C43.72848129272461 431.2080993652344 43.899410247802734 430.12286376953125 44.10599899291992 429.06951904296875L44.89033889770508 424.2285461425781C44.963768005371094 423.645263671875 45.04988098144531 423.0561218261719 45.148983001708984 422.46112060546875L45.96418762207031 417.7076721191406C46.060935974121094 417.0623779296875 46.173797607421875 416.4102783203125 46.303184509277344 415.7515869140625C46.4353141784668 415.0382080078125 46.5826416015625 414.3392028808594 46.74462127685547 413.654541015625L48.1567497253418 407.03741455078125C48.408782958984375 405.8364562988281 48.702083587646484 404.6775817871094 49.03409194946289 403.5602722167969L50.608577728271484 397.4154052734375C50.76676940917969 396.8125 50.93504333496094 396.220947265625 51.11306381225586 395.6406555175781L52.07607650756836 392.1072082519531C52.31900405883789 391.04986572265625 52.60844039916992 389.97760009765625 52.94636917114258 388.8910217285156L55.127357482910156 381.99169921875C55.39608383178711 381.12762451171875 55.6849479675293 380.2884216308594 55.992950439453125 379.47381591796875L57.44173049926758 375.2633056640625C57.67733383178711 374.448974609375 57.94142532348633 373.6268615722656 58.23490524291992 372.7973327636719L61.08586883544922 364.7718505859375C61.28348159790039 364.2134704589844 61.48933029174805 363.6661071777344 61.703147888183594 363.1296081542969L64.19644165039062 356.32147216796875L64.35636901855469 355.884765625L64.3644790649414 355.86260986328125C64.56034088134766 355.3311462402344 64.76360321044922 354.809814453125 64.97403717041016 354.2985534667969L66.30952453613281 350.91912841796875C66.53565979003906 350.2712707519531 66.78045654296875 349.6192626953125 67.04438781738281 348.9632568359375L69.93607330322266 341.85162353515625C70.1739730834961 341.1993408203125 70.43107604980469 340.54302978515625 70.70787048339844 339.8829345703125L74.3856201171875 331.1447448730469C74.61681365966797 330.59356689453125 74.85574340820312 330.0540771484375 75.10212707519531 329.5260925292969L77.6339340209961 323.5308532714844L80.7432632446289 315.7780456542969C80.82804870605469 315.5672912597656 80.91398620605469 315.3582458496094 81.00103759765625 315.15081787109375L83.79893493652344 307.9636535644531C84.02116394042969 307.3224182128906 84.26162719726562 306.6770324707031 84.52079010009766 306.0277404785156L88.52639770507812 296.0636291503906C88.5776138305664 295.9354248046875 88.62924194335938 295.8078308105469 88.6812973022461 295.68084716796875L91.37185668945312 288.9183654785156C91.75784301757812 287.8044128417969 92.20075225830078 286.67913818359375 92.70305633544922 285.5435791015625L95.13995361328125 280.1367492675781C95.2734375 279.8253173828125 95.41144561767578 279.51312255859375 95.55402374267578 279.2001953125L98.19099426269531 273.39678955078125C98.7122573852539 272.1103820800781 99.31442260742188 270.8130187988281 100.00152587890625 269.50689697265625L100.02532196044922 269.4613952636719C100.17886352539062 269.1591796875 100.33482360839844 268.8609924316406 100.4931411743164 268.5667419433594L103.9073486328125 262.0373840332031C104.16526794433594 261.54608154296875 104.42896270751953 261.0653381347656 104.69821166992188 260.5950622558594L107.07208251953125 256.1793212890625C107.6333999633789 255.01950073242188 108.26428985595703 253.85452270507812 108.96780395507812 252.68621826171875L112.64555358886719 246.57090759277344C112.68417358398438 246.50677490234375 112.7228775024414 246.44284057617188 112.76168060302734 246.3791046142578L116.82868194580078 239.53067016601562C117.05364227294922 239.13735961914062 117.2872085571289 238.7439727783203 117.52948760986328 238.3505859375L117.54920959472656 238.31736755371094C118.4069595336914 236.8789825439453 119.31198120117188 235.53968811035156 120.25858306884766 234.29608154296875L123.23793029785156 229.98922729492188C123.8209457397461 229.07940673828125 124.45344543457031 228.17221069335938 125.13709259033203 227.26901245117188C125.77782440185547 226.39102172851562 126.43569946289062 225.55711364746094 127.10912322998047 224.76622009277344L130.4070587158203 220.61288452148438C130.74429321289062 220.19017028808594 131.0850067138672 219.7783660888672 131.42904663085938 219.37730407714844L134.5968475341797 215.37069702148438C134.98416137695312 214.85476684570312 135.38832092285156 214.34030151367188 135.80963134765625 213.82757568359375L141.1996307373047 207.3016815185547C142.06182861328125 206.15756225585938 143.01036071777344 205.0246124267578 144.04891967773438 203.90623474121094L151.84629821777344 195.5529022216797C151.9744110107422 195.41476440429688 152.1028594970703 195.27796936035156 152.2316131591797 195.1425323486328L158.1113739013672 188.8140106201172C158.61732482910156 188.23837280273438 159.14694213867188 187.66680908203125 159.70071411132812 187.09979248046875L163.28662109375 183.4756317138672C164.1207275390625 182.53160095214844 165.02012634277344 181.6006317138672 165.98709106445312 180.6851348876953L172.84365844726562 174.22769165039062C173.61732482910156 173.49655151367188 174.3985137939453 172.8091583251953 175.18601989746094 172.164306640625L176.09092712402344 171.3753204345703C176.75741577148438 170.75790405273438 177.4565887451172 170.1498565673828 178.189208984375 169.55210876464844L179.83480834960938 168.23704528808594C180.62864685058594 167.52980041503906 181.46717834472656 166.83676147460938 182.35162353515625 166.1594696044922L185.76734924316406 163.58348083496094C186.28457641601562 163.1721649169922 186.8184814453125 162.76678466796875 187.3693084716797 162.36769104003906L192.10191345214844 158.9180145263672C192.8963623046875 158.3439178466797 193.6922607421875 157.80735778808594 194.4888153076172 157.3072509765625L198.1787567138672 154.75729370117188C198.9234161376953 154.20132446289062 199.7010040283203 153.6587371826172 200.5122528076172 153.1305694580078L206.06654357910156 149.5518798828125C206.86276245117188 149.00294494628906 207.6945343017578 148.47067260742188 208.5625 147.9564208984375C209.28829956054688 147.51138305664062 210.01353454589844 147.09530639648438 210.73770141601562 146.7074737548828L215.3390655517578 144.0793914794922C216.10482788085938 143.6161651611328 216.89979553222656 143.16824340820312 217.7244873046875 142.7366180419922C218.0288848876953 142.57371520996094 218.33290100097656 142.4155731201172 218.6365203857422 142.2621307373047L222.1380615234375 140.44097900390625C222.7609405517578 140.09429931640625 223.40191650390625 139.75770568847656 224.06121826171875 139.4316864013672L230.20431518554688 136.4205780029297C231.32305908203125 135.81784057617188 232.49964904785156 135.2508544921875 233.7353515625 134.7228240966797C234.25015258789062 134.49368286132812 234.76315307617188 134.27731323242188 235.2742156982422 134.07345581054688L240.20364379882812 131.9951934814453C241.34359741210938 131.46498107910156 242.53805541992188 130.97296142578125 243.7880859375 130.5222625732422C244.21438598632812 130.36219787597656 244.63900756835938 130.21034240722656 245.0618896484375 130.0665740966797L250.74725341796875 128.03334045410156C251.4998779296875 127.73477172851562 252.2739715576172 127.45232391357422 253.0697784423828 127.1867904663086L259.92633056640625 124.94878387451172C260.6769714355469 124.69930267333984 261.42120361328125 124.47344970703125 262.1587219238281 124.27056884765625L267.9216613769531 122.52967834472656C269.1020812988281 122.10456085205078 270.3330078125 121.72196197509766 271.61529541015625 121.38507843017578L281.0234680175781 118.9332504272461C282.7802429199219 118.47510528564453 284.4949645996094 118.13874053955078 286.1654968261719 117.91598510742188L286.8272705078125 117.79112243652344C287.47894287109375 117.64086151123047 288.1434631347656 117.50349426269531 288.82086181640625 117.37947845458984L293.7815246582031 116.49568176269531C294.74169921875 116.31964874267578 295.6871337890625 116.17784881591797 296.61761474609375 116.0689926147461L298.30548095703125 115.81876373291016C299.0119323730469 115.69125366210938 299.732421875 115.57933807373047 300.467041015625 115.48358917236328L308.920166015625 114.37171173095703C308.9797058105469 114.36395263671875 309.0391540527344 114.3563232421875 309.09857177734375 114.34881591796875L316.7745666503906 113.25983428955078C317.9533996582031 113.0945816040039 319.1082458496094 112.9792251586914 320.2387390136719 112.91139221191406L325.6701965332031 112.39154815673828C326.29656982421875 112.31665802001953 326.9330749511719 112.25433349609375 327.5797119140625 112.2049789428711L333.5952453613281 111.74882507324219C334.77667236328125 111.65873718261719 335.93121337890625 111.616455078125 337.0586853027344 111.61965942382812L343.17449951171875 111.36394500732422C343.54888916015625 111.35040283203125 343.92041015625 111.34152221679688 344.2890625 111.33724212646484L349.43505859375 111.19989013671875C350.3000793457031 111.13878631591797 351.1829528808594 111.10284423828125 352.083740234375 111.09310150146484L356.40985107421875 111.05523681640625C357.6954040527344 110.98931121826172 359.01885986328125 110.98173522949219 360.38006591796875 111.03607940673828L364.68292236328125 111.23355865478516C365.62493896484375 111.2449951171875 366.58551025390625 111.28800964355469 367.5644836425781 111.36394500732422L373.95440673828125 111.84907531738281L377.3896484375 112.02791595458984C378.4796447753906 112.0427474975586 379.59356689453125 112.10302734375 380.73114013671875 112.21105194091797C382.4166564941406 112.33314514160156 384.0337829589844 112.54618835449219 385.5828857421875 112.84307861328125L387.9565124511719 113.17182159423828C388.04412841796875 113.18187713623047 388.1318359375 113.19220733642578 388.2197265625 113.20281219482422L392.3963623046875 113.70173645019531C393.6368713378906 113.85279083251953 394.8376159667969 114.0501708984375 395.9989318847656 114.29115295410156L397.2771911621094 114.49028015136719C398.48162841796875 114.63551330566406 399.7106018066406 114.83735656738281 400.9635314941406 115.09870910644531L401.1219177246094 115.13129425048828C401.26611328125 115.16020965576172 401.40972900390625 115.18975067138672 401.552734375 115.21993255615234L406.9220275878906 116.32462310791016C408.01470947265625 116.55255126953125 409.0726623535156 116.81470489501953 410.09625244140625 117.10914611816406L412.43292236328125 117.67933654785156C412.82220458984375 117.7587661743164 413.2137451171875 117.84410095214844 413.6075439453125 117.93541717529297L416.5824890136719 118.62989044189453C417.54486083984375 118.82597351074219 418.5205078125 119.05965423583984 419.509033203125 119.33238983154297L419.6083984375 119.3608169555664C420.077392578125 119.48661804199219 420.5393981933594 119.61884307861328 420.9944763183594 119.75733184814453L423.6578063964844 120.51924896240234C424.4943542480469 120.72615051269531 425.34002685546875 120.96217346191406 426.1945495605469 121.22827911376953L428.73577880859375 122.01072692871094C430.0663146972656 122.35405731201172 431.4160461425781 122.77741241455078 432.78302001953125 123.28515625C434.39093017578125 123.84229278564453 435.90777587890625 124.47187042236328 437.3357849121094 125.16680908203125L437.99774169921875 125.44770050048828C438.32379150390625 125.58126831054688 438.650634765625 125.71990966796875 438.97821044921875 125.86368560791016C440.1365966796875 126.35379791259766 441.2433776855469 126.87799835205078 442.2995910644531 127.43366241455078L443.0541687011719 127.79679107666016C444.0064697265625 128.22042846679688 444.9637756347656 128.6892547607422 445.9250793457031 129.20484924316406C446.5367126464844 129.52484130859375 447.1318359375 129.8542938232422 447.71063232421875 130.19271850585938L450.8126220703125 131.9193878173828C451.3453369140625 132.21395874023438 451.86517333984375 132.51516723632812 452.372314453125 132.82273864746094L455.1447448730469 134.41226196289062C455.3114929199219 134.50628662109375 455.4783020019531 134.60179138183594 455.64520263671875 134.69876098632812C455.6834716796875 134.7209930419922 455.7217712402344 134.74330139160156 455.7600402832031 134.7657012939453C456.0758361816406 134.94923400878906 456.3869934082031 135.1350860595703 456.6934509277344 135.32318115234375L459.99273681640625 137.30770874023438L461.552001953125 138.2322998046875C461.9567565917969 138.4633026123047 462.3616638183594 138.70333862304688 462.7666320800781 138.95252990722656L462.8294372558594 138.98977661132812C463.81768798828125 139.58485412597656 464.75885009765625 140.2021484375 465.6540832519531 140.8397979736328C466.9413146972656 141.63784790039062 468.2212829589844 142.53599548339844 469.4898986816406 143.53915405273438C470.4696044921875 144.27427673339844 471.3924255371094 145.03163146972656 472.2599182128906 145.8087921142578C473.0874938964844 146.47988891601562 473.90625 147.1991424560547 474.7145690917969 147.96798706054688C476.0924072265625 149.2202606201172 477.3363037109375 150.50897216796875 478.4524841308594 151.8268280029297C478.7056579589844 152.0898895263672 478.95758056640625 152.358154296875 479.2082214355469 152.6316375732422L481.70281982421875 155.35430908203125C482.2356262207031 155.93460083007812 482.7444763183594 156.5186309814453 483.2298583984375 157.10594177246094L483.7209777832031 157.6611328125C484.5730285644531 158.55502319335938 485.40740966796875 159.51026916503906 486.2215881347656 160.52880859375L487.07769775390625 161.60946655273438C488.23095703125 162.9071044921875 489.3403625488281 164.32699584960938 490.39825439453125 165.87437438964844L490.9124450683594 166.6478729248047C490.9659423828125 166.72703552246094 491.0190734863281 166.8062286376953 491.0718078613281 166.8854217529297L491.3720397949219 167.18165588378906C491.5133972167969 167.31932067871094 491.65447998046875 167.45849609375 491.79522705078125 167.5991973876953L493.1405944824219 168.9157257080078Q493.466796875 169.22857666015625 493.7908935546875 169.55210876464844C494.14825439453125 169.91009521484375 494.49578857421875 170.27003479003906 494.83367919921875 170.63180541992188L495.4017028808594 171.2199249267578L496.42803955078125 172.24627685546875L496.4708251953125 172.28904724121094L496.7986755371094 172.6168975830078L496.9697265625 172.7879638671875C529.1323852539062 204.95059204101562 481.9204406738281 253.02706909179688 449.3143005371094 222.85874938964844C448.8412780761719 222.4259490966797 448.3713073730469 221.97677612304688 447.9046325683594 221.51092529296875C447.6156005859375 221.22190856933594 447.3330078125 220.9315948486328 447.0567626953125 220.64010620117188C446.87799072265625 220.46713256835938 446.69970703125 220.29176330566406 446.52191162109375 220.11395263671875C446.2594909667969 219.85107421875 446.0023498535156 219.58712768554688 445.7504577636719 219.3221893310547L444.8968811035156 218.44615173339844L443.5516357421875 217.1297149658203C443.3341369628906 216.92111206054688 443.1173095703125 216.70895385742188 442.9012145996094 216.4932403564453L441.9349060058594 215.5269317626953C441.6630859375 215.2657012939453 441.3927001953125 214.99864196777344 441.12396240234375 214.7256317138672L440.7772216796875 214.38351440429688C439.49078369140625 213.09707641601562 438.3313903808594 211.78517150878906 437.29315185546875 210.4539031982422C436.8230285644531 209.88026428222656 436.3609924316406 209.28497314453125 435.9075927734375 208.66763305664062C435.1542663574219 207.69288635253906 434.46209716796875 206.7120819091797 433.8289489746094 205.72705078125L433.0182189941406 204.70811462402344L431.1162414550781 202.51211547851562C430.99591064453125 202.38406372070312 430.8758544921875 202.2548065185547 430.756103515625 202.12437438964844L428.24725341796875 199.40170288085938C428.0883483886719 199.2282257080078 427.93157958984375 199.05441284179688 427.77691650390625 198.88027954101562L427.37176513671875 198.4590301513672L425.9562072753906 197.49110412597656L424.41717529296875 196.5677032470703L424.4126892089844 196.56500244140625L424.3294372558594 196.51492309570312L421.85333251953125 195.02552795410156C421.6090393066406 194.89080810546875 421.3645324707031 194.7530059814453 421.1198425292969 194.61209106445312L417.79180908203125 192.65965270996094C417.6610412597656 192.58909606933594 417.5302429199219 192.5176544189453 417.3993225097656 192.4453582763672L413.2666320800781 190.17434692382812L411.8094787597656 189.44830322265625L409.2851867675781 188.38064575195312L405.85211181640625 187.30545043945312L402.4591369628906 186.36915588378906L398.0127868652344 185.3179473876953C397.2467041015625 185.14027404785156 396.49822998046875 184.94606018066406 395.7672119140625 184.73594665527344L393.4233703613281 184.16400146484375C393.21002197265625 184.12274169921875 392.9960021972656 184.07974243164062 392.78125 184.03500366210938L387.2630615234375 182.8887176513672L383.2253112792969 182.2597198486328L380.9257507324219 181.9771728515625C380.3365478515625 181.91571044921875 379.7410888671875 181.8415069580078 379.139404296875 181.75424194335938L374.8790283203125 181.1241912841797L370.7069396972656 180.906982421875C370.14483642578125 180.88754272460938 369.5763244628906 180.85699462890625 369.0014343261719 180.81504821777344C368.66473388671875 180.79335021972656 368.3305358886719 180.76800537109375 367.99908447265625 180.7390899658203L362.4292297363281 180.3162078857422ZM168.88372802734375 289.156005859375 169.15618896484375 286.70965576171875 169.01217651367188 286.9496765136719 165.373046875 293.7299499511719C165.29844665527344 293.8757629394531 165.2227783203125 294.0216979980469 165.14605712890625 294.1677551269531L161.4915313720703 301.1822814941406L158.81610107421875 307.059814453125C158.75550842285156 307.2003173828125 158.69400024414062 307.3409423828125 158.631591796875 307.48175048828125L156.30767822265625 312.6649169921875L153.41758728027344 319.90118408203125C153.2049560546875 320.50933837890625 152.97593688964844 321.1211853027344 152.7301025390625 321.736572265625L149.24368286132812 330.4092102050781C149.1143035888672 330.76715087890625 148.97927856445312 331.1263732910156 148.83853149414062 331.4868469238281L145.58541870117188 339.76422119140625C145.37033081054688 340.3750915527344 145.13864135742188 340.98968505859375 144.88995361328125 341.6077880859375L141.7205352783203 349.3323669433594C141.61172485351562 349.60546875 141.4995574951172 349.8792419433594 141.38397216796875 350.1536865234375L141.3690185546875 350.1891784667969L141.2663116455078 350.4334716796875L138.7407989501953 356.4397888183594C138.55409240722656 356.93414306640625 138.35635375976562 357.4307556152344 138.1474151611328 357.9295349121094L135.13087463378906 365.04998779296875C134.99266052246094 365.4216003417969 134.84832763671875 365.7945861816406 134.69775390625 366.1688232421875L131.19703674316406 374.79254150390625L131.1912384033203 374.80731201171875L129.06414794921875 380.2288513183594L126.45793914794922 387.3453063964844C126.40223693847656 387.5086364746094 126.34539794921875 387.6722412109375 126.28741455078125 387.8361511230469L123.6443862915039 395.3003845214844C123.61344146728516 395.392333984375 123.58214569091797 395.4844055175781 123.55049133300781 395.5765380859375L120.82781982421875 403.47369384765625L120.80868530273438 403.5292663574219L119.08245086669922 409.1829833984375L117.43517303466797 415.27667236328125C117.34442901611328 415.6087646484375 117.25064086914062 415.9373779296875 117.15386199951172 416.2624816894531L115.42523956298828 422.97430419921875C115.41280364990234 423.0216979980469 115.40030670166016 423.06903076171875 115.38774871826172 423.11627197265625L114.29458618164062 428.3689880371094L113.64781188964844 432.1942138671875C113.58439636230469 432.69451904296875 113.51171112060547 433.1991882324219 113.4295654296875 433.7081604003906L112.08961486816406 441.9046936035156L112.08912658691406 441.9076843261719L111.22734069824219 449.22711181640625L110.5640640258789 457.0417175292969L110.1937255859375 463.8998718261719C110.15414428710938 464.55462646484375 110.10114288330078 465.1992492675781 110.03511810302734 465.8337097167969L109.37889862060547 474.090087890625L109.19588470458984 482.71624755859375V490.5227355957031L109.63778686523438 497.24188232421875C109.6534652709961 497.48626708984375 109.66710662841797 497.7294616699219 109.67874145507812 497.97149658203125L110.00428009033203 502.0532531738281C110.01048278808594 502.10296630859375 110.01661682128906 502.1527404785156 110.02266693115234 502.20257568359375L110.95594787597656 510.1953125C110.96327209472656 510.23944091796875 110.97052764892578 510.2835998535156 110.97773742675781 510.32781982421875L112.58853149414062 520.192138671875C112.60682678222656 520.3046264648438 112.6246566772461 520.4169311523438 112.64202880859375 520.5289916992188L113.87146759033203 526.9774780273438C114.01494598388672 527.7407836914062 114.13668060302734 528.494873046875 114.2373275756836 529.2396240234375L115.57990264892578 537.4238891601562C115.6249771118164 537.6559448242188 115.66845703125 537.8895263671875 115.71033477783203 538.1246948242188L117.48152160644531 548.1918334960938C117.50445556640625 548.304443359375 117.52701568603516 548.4174194335938 117.54920959472656 548.53076171875L119.6019058227539 558.9937744140625C119.6363296508789 559.1696166992188 119.66959381103516 559.344970703125 119.70170593261719 559.5198364257812L120.63687133789062 564.271728515625C120.66290283203125 564.388916015625 120.68853759765625 564.5064697265625 120.71377563476562 564.6244506835938L121.99671173095703 570.4688720703125C122.13627624511719 571.1212768554688 122.2596206665039 571.7672729492188 122.36717224121094 572.40673828125L122.835693359375 574.7067260742188L124.58995056152344 581.5985107421875L126.83627319335938 588.3374633789062C126.97026824951172 588.6868896484375 127.10094451904297 589.0408325195312 127.22823333740234 589.3992919921875L129.31907653808594 595.3392333984375L132.09451293945312 601.7638549804688C132.3372802734375 602.2737426757812 132.57315063476562 602.7944946289062 132.80186462402344 603.3262329101562L136.19398498535156 611.3281860351562L139.57350158691406 618.1820068359375L141.81790161132812 622.2279663085938L145.4630126953125 628.1079711914062L148.1795196533203 631.9476318359375C148.42025756835938 632.2562255859375 148.65895080566406 632.570556640625 148.8955535888672 632.8907470703125L153.5141143798828 639.1771240234375C153.54786682128906 639.222900390625 153.5814971923828 639.2686767578125 153.61500549316406 639.3145141601562L153.65567016601562 639.3677978515625L153.63351440429688 637.917236328125C153.63160705566406 637.8573608398438 153.6298370361328 637.7974243164062 153.62815856933594 637.7373657226562L153.52943420410156 634.5535278320312C153.52365112304688 634.4083862304688 153.51853942871094 634.2628173828125 153.5141143798828 634.11669921875L153.40008544921875 630.1680908203125Q153.39022827148438 629.8388671875 153.38511657714844 629.5125732421875L153.24327087402344 624.9223022460938C153.228271484375 624.3378295898438 153.22457885742188 623.760498046875 153.2318878173828 623.1903076171875L153.19430541992188 619.1214599609375C153.18113708496094 618.5935668945312 153.17738342285156 618.0594482421875 153.18328857421875 617.519287109375C153.18450927734375 617.2117309570312 153.18885803222656 616.9061889648438 153.1962890625 616.6027221679688L153.2543487548828 612.5881958007812C153.22145080566406 611.2821655273438 153.24978637695312 609.9385986328125 153.3430633544922 608.5578002929688L153.37818908691406 608.0974731445312C153.39718627929688 607.8107299804688 153.41893005371094 607.52587890625 153.44337463378906 607.2430419921875L153.5615692138672 605.6936645507812C153.59036254882812 604.3832397460938 153.68258666992188 603.0380249023438 153.84197998046875 601.658447265625L154.70285034179688 594.388916015625L155.23895263671875 587.2325439453125C155.3109130859375 586.2897338867188 155.41041564941406 585.3684692382812 155.5363006591797 584.4686889648438L156.1309051513672 578.9254760742188C156.18182373046875 578.3657836914062 156.2441864013672 577.8003540039062 156.31826782226562 577.2291870117188C156.34783935546875 576.9884033203125 156.37924194335938 576.7489013671875 156.4123992919922 576.5109252929688L157.1348419189453 570.9678344726562C157.21697998046875 570.3616333007812 157.3101043701172 569.76513671875 157.41387939453125 569.17822265625L158.21844482421875 563.4677124023438L158.9822540283203 556.2176513671875C159.01255798339844 555.8484497070312 159.04769897460938 555.4766235351562 159.08775329589844 555.1022338867188L159.85751342773438 547.5328979492188C159.8771514892578 547.349365234375 159.89781188964844 547.1666259765625 159.91949462890625 546.9848022460938L160.427490234375 541.1158447265625L160.91571044921875 533.1041870117188C160.91908264160156 533.0150146484375 160.92271423339844 532.9256591796875 160.92662048339844 532.836181640625L161.2928466796875 524.0333251953125L161.20643615722656 517.0670166015625C161.20306396484375 516.9591064453125 161.2000732421875 516.8509521484375 161.1974639892578 516.7424926757812L161.04861450195312 510.9245910644531C161.04019165039062 510.74542236328125 161.03277587890625 510.56549072265625 161.0264129638672 510.38482666015625L160.69854736328125 501.5896301269531C160.68368530273438 501.1646728515625 160.67483520507812 500.74346923828125 160.67190551757812 500.3259582519531L160.38327026367188 494.4416809082031C160.35671997070312 494.11846923828125 160.33351135253906 493.7926940917969 160.31365966796875 493.46435546875L159.90884399414062 486.493896484375C159.8899688720703 486.25762939453125 159.8728485107422 486.02001953125 159.85751342773438 485.7810363769531L159.3585968017578 478.0406494140625C159.3179473876953 477.406982421875 159.29095458984375 476.7812194824219 159.27725219726562 476.1633605957031L158.97169494628906 470.61102294921875C158.8679656982422 469.4464111328125 158.81100463867188 468.2486267089844 158.80348205566406 467.0176696777344C158.7936248779297 466.48870849609375 158.79342651367188 465.9654846191406 158.8026580810547 465.4481201171875V448.5189208984375L158.75137329101562 442.9668884277344C158.74807739257812 442.76104736328125 158.74615478515625 442.5542907714844 158.74563598632812 442.3465881347656V425.1980285644531L158.74771118164062 424.8763732910156L158.79971313476562 416.8022766113281C158.79869079589844 416.556396484375 158.79966735839844 416.3092041015625 158.8026580810547 416.0606994628906L158.8520965576172 410.46221923828125C158.8498077392578 410.083984375 158.85231018066406 409.70263671875 158.85968017578125 409.31817626953125L159.03073120117188 400.75103759765625C159.04872131347656 399.8704528808594 159.0916290283203 399.0072021484375 159.1584930419922 398.1612854003906L159.3585968017578 392.5687561035156C159.3828887939453 391.92010498046875 159.42054748535156 391.2811279296875 159.47117614746094 390.65179443359375L159.64369201660156 387.66510009765625C159.6918182373047 386.92901611328125 159.7568359375 386.2058410644531 159.83819580078125 385.4955749511719L159.8955841064453 384.7743835449219C159.9241943359375 384.1121520996094 159.9683837890625 383.441162109375 160.028564453125 382.7614440917969L160.52748107910156 376.9169616699219C160.57444763183594 376.38580322265625 160.6300811767578 375.861572265625 160.6941680908203 375.34429931640625L161.32850646972656 369.46319580078125C161.35682678222656 369.12744140625 161.38916015625 368.78961181640625 161.425537109375 368.4496154785156L162.2368927001953 360.9380798339844L162.6878204345703 354.30145263671875C162.7144012451172 353.8074951171875 162.74960327148438 353.3087463378906 162.79360961914062 352.8052062988281C162.81744384765625 352.5127868652344 162.843994140625 352.22222900390625 162.87318420410156 351.93377685546875L163.33660888671875 346.88543701171875C163.38250732421875 346.1395263671875 163.44850158691406 345.38287353515625 163.53524780273438 344.61553955078125L164.31927490234375 337.9443054199219C164.34986877441406 337.67364501953125 164.3826904296875 337.4048767089844 164.41770935058594 337.1379699707031L164.87521362304688 333.2687072753906C164.939208984375 332.76812744140625 165.01072692871094 332.2740783691406 165.08958435058594 331.7865295410156L165.1461639404297 331.2937316894531C165.17845153808594 330.89544677734375 165.21640014648438 330.494140625 165.2600860595703 330.0898742675781L165.61090087890625 326.92169189453125C165.64157104492188 326.56884765625 165.67666625976562 326.21368408203125 165.71624755859375 325.856201171875L166.10765075683594 322.4454040527344Q166.13119506835938 322.17742919921875 166.15814208984375 321.9076232910156L166.67613220214844 316.9151916503906L166.9279022216797 310.66058349609375C166.96241760253906 309.86962890625 167.01670837402344 309.0931091308594 167.09007263183594 308.3310241699219L167.3732452392578 304.3223571777344C167.40306091308594 303.7474670410156 167.444580078125 303.166015625 167.4980926513672 302.5780944824219L167.99700927734375 296.9046630859375C168.0734100341797 296.06536865234375 168.17144775390625 295.2435302734375 168.29029846191406 294.4390563964844L168.6669921875 290.8321228027344C168.72958374023438 290.2652587890625 168.8019256591797 289.7065734863281 168.88372802734375 289.156005859375Z" fill="black"/>
</svg>
