<svg xmlns="http://www.w3.org/2000/svg" viewBox="0 0 640 1000">
  <path d="M212.34902954101562 700.7307739257812 211.62490844726562 714.102783203125 214.84300231933594 716.0740966796875 214.8494110107422 716.0780029296875 222.7161102294922 720.2156982421875 229.72845458984375 723.0645141601562 233.85340881347656 724.407470703125 235.92645263671875 724.8906860351562 238.92791748046875 725.4015502929688C239.07334899902344 725.41455078125 239.2191619873047 725.42822265625 239.3653564453125 725.442626953125L245.0792694091797 726.0562133789062L253.6289520263672 726.35888671875L258.7609558105469 725.9405517578125L272.5106201171875 723.9226684570312C273.3992614746094 723.7999267578125 274.2750549316406 723.7037353515625 275.13787841796875 723.6331787109375L288.319580078125 721.9259643554688L297.2350158691406 720.0175170898438C298.57843017578125 719.597412109375 299.9795227050781 719.230712890625 301.43914794921875 718.9214477539062L310.8163146972656 717.0380249023438C311.68865966796875 716.8101806640625 312.58343505859375 716.6041259765625 313.5008850097656 716.4208374023438L319.34295654296875 715.2889404296875C320.2484436035156 715.0701293945312 321.17755126953125 714.8750610351562 322.13043212890625 714.7047729492188L328.34375 713.65625L341.4537048339844 710.04736328125C342.38739013671875 709.728271484375 343.34991455078125 709.4334716796875 344.3416748046875 709.1641845703125L363.0189514160156 704.1357421875L379.0972595214844 699.4849853515625C379.3751525878906 699.3916015625 379.6555480957031 699.3001708984375 379.9385070800781 699.2108154296875L395.6482238769531 694.2476806640625C396.513671875 693.9038696289062 397.4059143066406 693.5802612304688 398.3252868652344 693.2780151367188L409.97100830078125 689.622802734375C410.4925537109375 689.428466796875 411.0234680175781 689.2412719726562 411.56378173828125 689.0613403320312L422.8111572265625 685.2982788085938C423.20782470703125 685.1430053710938 423.61004638671875 684.9917602539062 424.01776123046875 684.8446044921875L439.1654052734375 679.4501342773438C439.60076904296875 679.265869140625 440.0430908203125 679.08642578125 440.4923400878906 678.9118041992188L453.6753234863281 673.8380737304688C454.362548828125 673.5393676757812 455.0674133300781 673.2528076171875 455.7901306152344 672.97900390625L474.45843505859375 665.9672241210938L490.40496826171875 658.2744140625C491.1644287109375 657.849609375 491.94927978515625 657.4391479492188 492.7598571777344 657.0437622070312L500.0623779296875 653.6309814453125C501.0346984863281 653.0928344726562 502.0487976074219 652.5791015625 503.10546875 652.0916137695312L512.3233642578125 647.8748779296875C513.3807983398438 647.38916015625 514.4305419921875 646.9524536132812 515.4716796875 646.5630493164062L528.601806640625 640.9614868164062C529.8543701171875 640.4365234375 531.09423828125 639.9782104492188 532.3200073242188 639.583740234375L539.48681640625 636.7447509765625C540.6819458007812 636.2731323242188 541.8643188476562 635.8610229492188 543.032958984375 635.505859375L546.5963745117188 634.0970458984375C547.4859619140625 633.7704467773438 548.367919921875 633.4760131835938 549.2418212890625 633.2127685546875C549.8663940429688 632.9741821289062 550.5045166015625 632.7457885742188 551.1563110351562 632.528076171875L551.9407958984375 632.3809814453125C598.4716186523438 616.8380126953125 621.6635131835938 686.5607299804688 575.1326904296875 702.0546264648438L574.34814453125 702.4468994140625C573.624755859375 702.6854858398438 572.906982421875 702.9035034179688 572.195068359375 703.1015014648438C572.0796508789062 703.1451416015625 571.9638061523438 703.1884155273438 571.8475341796875 703.2313842773438L565.5225219726562 705.535888671875C565.0557250976562 705.707275390625 564.591064453125 705.8697509765625 564.1286010742188 706.0235595703125L556.3536376953125 709.1641845703125C555.95751953125 709.31982421875 555.5628051757812 709.4690551757812 555.1695556640625 709.61181640625L543.8519287109375 714.4401245117188C543.8025512695312 714.4630126953125 543.7530517578125 714.48583984375 543.7034912109375 714.5086059570312L543.648193359375 714.5270385742188L542.7719116210938 714.90087890625C542.5167236328125 715.0079956054688 542.2620239257812 715.1123046875 542.0079345703125 715.2139282226562L536.1106567382812 717.926025390625C535.596435546875 718.1988525390625 535.0711059570312 718.4653930664062 534.5346069335938 718.725341796875L524.7283325195312 723.3342895507812L524.4859619140625 723.4506225585938L508.4296569824219 731.156005859375C506.8323669433594 732.0411987304688 505.1196594238281 732.8516235351562 503.2880554199219 733.5779418945312C502.1229553222656 734.078125 500.9670104980469 734.517333984375 499.8215026855469 734.8980712890625L484.07305908203125 740.8690185546875C483.40618896484375 741.1646118164062 482.7225341796875 741.4487915039062 482.0219421386719 741.7210693359375L469.9357604980469 746.3726806640625C468.7864685058594 746.9022216796875 467.5855407714844 747.3956298828125 466.3319091796875 747.8500366210938L451.9469299316406 752.9151611328125C450.7342834472656 753.4422607421875 449.4660949707031 753.9286499023438 448.1412353515625 754.3712158203125L434.9027404785156 758.7839965820312C434.0743103027344 759.059814453125 433.2532653808594 759.3087158203125 432.4398193359375 759.5313110351562L422.65692138671875 762.7564697265625C422.0917053222656 762.9608154296875 421.5156555175781 763.15673828125 420.92877197265625 763.3439331054688L402.1497497558594 769.3258056640625C400.829345703125 769.741455078125 399.528564453125 770.0894165039062 398.2483215332031 770.3728637695312L383.41973876953125 774.8663330078125C381.9625244140625 775.286376953125 380.53076171875 775.6258544921875 379.1257019042969 775.888916015625L363.46392822265625 780.2107543945312C362.756591796875 780.4030151367188 362.0555419921875 780.5764770507812 361.36090087890625 780.7316284179688L346.45001220703125 785.015869140625C344.127685546875 785.6632080078125 341.87139892578125 786.108642578125 339.68585205078125 786.3687133789062L334.9276428222656 787.3203125C334.4078369140625 787.4111938476562 333.89215087890625 787.49267578125 333.380615234375 787.56494140625L327.6709899902344 788.6441650390625C327.064208984375 788.7647705078125 326.46282958984375 788.8723754882812 325.8669128417969 788.96728515625L318.9270935058594 790.473388671875C318.2750549316406 790.6438598632812 317.61041259765625 790.8023681640625 316.93310546875 790.9486694335938L304.8283386230469 793.50927734375C302.853271484375 794.0593872070312 300.7598571777344 794.4852294921875 298.5462951660156 794.7730712890625L282.2678527832031 796.8814697265625C281.3321838378906 796.9993896484375 280.41107177734375 797.0880126953125 279.5046081542969 797.1484375L269.4766540527344 798.6201171875C269.2735595703125 798.6513671875 269.06939697265625 798.6813354492188 268.86419677734375 798.7100219726562L268.2939147949219 798.793701171875C266.90155029296875 798.9860229492188 265.5407409667969 799.1130981445312 264.2119140625 799.178466796875L261.7817077636719 799.3897705078125C258.9851989746094 799.8750610351562 255.99081420898438 800.0821533203125 252.7999725341797 799.970458984375L241.66983032226562 799.5781860351562C239.5137176513672 799.50244140625 237.4576873779297 799.28662109375 235.5012969970703 798.9434814453125C233.72486877441406 798.879638671875 231.89076232910156 798.7018432617188 230.00035095214844 798.4014282226562L223.0869140625 797.273681640625C221.0374755859375 796.9500732421875 219.09527587890625 796.51025390625 217.25857543945312 795.965087890625C215.24415588378906 795.6085205078125 213.1766815185547 795.0886840820312 211.06048583984375 794.3925170898438C211.04872131347656 794.388671875 211.03695678710938 794.384765625 211.02517700195312 794.380859375C210.29959106445312 794.1597900390625 209.5908966064453 793.9230346679688 208.898681640625 793.6720581054688L206.88243103027344 792.9999389648438C205.7861785888672 792.6788940429688 204.67808532714844 792.3068237304688 203.55902099609375 791.881591796875C202.33189392089844 791.44384765625 201.1552734375 790.9671630859375 200.02830505371094 790.4542236328125L199.25343322753906 790.1377563476562C179.1805877685547 807.413330078125 140.29051208496094 799.7731323242188 137.77813720703125 765.5383911132812C137.6273651123047 764.250732421875 137.53009033203125 762.9234008789062 137.48960876464844 761.556396484375L137.47801208496094 761.4317016601562C137.4468231201172 760.4254150390625 137.44723510742188 759.4388427734375 137.47801208496094 758.4719848632812V757.2150268554688C137.47003173828125 756.81591796875 137.46697998046875 756.419921875 137.4687957763672 756.0271606445312L136.57528686523438 755.3389282226562C135.91128540039062 754.90966796875 135.24777221679688 754.45654296875 134.5851593017578 753.9789428710938L129.662353515625 750.2868041992188C128.88284301757812 749.770263671875 128.1046600341797 749.2197875976562 127.32850646972656 748.634521484375L123.4265365600586 745.6289672851562C121.03234100341797 744.103271484375 118.67886352539062 742.2382202148438 116.39450073242188 740.0050048828125L109.88253021240234 733.6325073242188L109.53009796142578 733.2876586914062C109.2669448852539 733.0303955078125 109.0086669921875 732.7720947265625 108.7552261352539 732.5128173828125L103.5972900390625 727.3548583984375C102.63066864013672 726.3786010742188 101.73214721679688 725.38916015625 100.8994140625 724.3887329101562L98.43675231933594 721.8419189453125C98.23983001708984 721.6420288085938 98.04367065429688 721.439208984375 97.8482894897461 721.2333374023438L97.27223205566406 720.6375732421875C96.41914367675781 719.7271118164062 95.6224594116211 718.8073120117188 94.88041687011719 717.8798217773438L89.966552734375 712.2041625976562C88.29115295410156 710.2708129882812 86.85427856445312 708.3076782226562 85.64014434814453 706.3283081054688L85.05864715576172 705.533447265625C83.94011688232422 704.1881713867188 82.87760162353516 702.7243041992188 81.8797836303711 701.137451171875C80.19603729248047 698.6402587890625 78.85196685791016 696.1358032226562 77.81853485107422 693.6447143554688C76.20584106445312 691.0520629882812 74.8125991821289 688.1243896484375 73.6881103515625 684.8446044921875L73.66165161132812 684.762939453125C73.27677154541016 683.716796875 72.9408950805664 682.6784057617188 72.65216064453125 681.6486206054688L72.06388092041016 679.8336791992188C71.96643829345703 679.5938110351562 71.87042999267578 679.3518676757812 71.77588653564453 679.10791015625L67.95143127441406 669.154541015625C67.61863708496094 668.2886962890625 67.31670379638672 667.429931640625 67.04470825195312 666.5784301757812L65.87361145019531 663.302490234375C64.34619140625 660.1687622070312 63.16516876220703 656.6329345703125 62.41088104248047 652.6799926757812L62.209815979003906 651.5770263671875C62.15088653564453 651.2732543945312 62.09573745727539 650.9705810546875 62.04431915283203 650.6691284179688L61.07853698730469 645.3711547851562C60.790687561035156 644.0755004882812 60.55469512939453 642.7327880859375 60.37405014038086 641.3427124023438C60.269405364990234 640.6238403320312 60.18321228027344 639.912841796875 60.114967346191406 639.2100830078125L59.12577438354492 631.008056640625C58.9330940246582 629.3743896484375 58.82941436767578 627.7858276367188 58.80918884277344 626.2431030273438L57.998050689697266 617.4263916015625C57.96795654296875 617.0421142578125 57.9426383972168 616.6604614257812 57.92203140258789 616.281494140625L56.9980583190918 607.8997802734375L54.991249084472656 596.2322387695312L53.89567565917969 592.158935546875L52.38787078857422 587.0169677734375L52.26137161254883 586.5855712890625L52.24203872680664 586.51953125L51.084617614746094 582.5650024414062C50.63859939575195 581.0176391601562 50.28342819213867 579.4992065429688 50.014095306396484 578.0111083984375L49.76076889038086 577.0244750976562C49.525516510009766 576.01611328125 49.327239990234375 575.021484375 49.16458511352539 574.041015625L48.0446662902832 568.9833374023438C47.82417678833008 567.8521728515625 47.64836502075195 566.73974609375 47.515377044677734 565.6464233398438L46.77976989746094 562.2625732421875L46.68952560424805 561.8474731445312L46.52469253540039 561.0892333984375C46.35456466674805 560.2385864257812 46.21002197265625 559.3984375 46.09026336669922 558.5689697265625L44.759559631347656 550.7926635742188C44.314693450927734 548.1737670898438 44.10565185546875 545.6605834960938 44.109554290771484 543.2568969726562L43.81744384765625 539.769775390625L43.01845169067383 536.0535278320312C42.752708435058594 535.0227661132812 42.52368927001953 533.9609375 42.33353805541992 532.867919921875L42.30799102783203 532.7490844726562C41.53147888183594 528.959716796875 41.268089294433594 525.3766479492188 41.44626235961914 522.0148315429688L41.394588470458984 521.0330200195312C41.36832046508789 520.675537109375 41.345890045166016 520.3151245117188 41.327362060546875 519.9518432617188L40.738983154296875 509.8023681640625C40.72202682495117 509.46429443359375 40.70869827270508 509.12835693359375 40.69894790649414 508.7945861816406L40.19963836669922 498.6722106933594C40.154693603515625 497.626953125 40.14413070678711 496.6025085449219 40.16652297973633 495.59893798828125L40.00351333618164 486.0221252441406C39.97761917114258 483.8642272949219 40.09531784057617 481.79949951171875 40.34407424926758 479.8280944824219L40.5428581237793 474.744873046875C40.67747116088867 472.4632873535156 40.96464538574219 470.2970275878906 41.389625549316406 468.2452087402344L42.201141357421875 461.805419921875L42.30546188354492 458.54541015625C42.30604553222656 458.4538879394531 42.306888580322266 458.3621826171875 42.30799102783203 458.27032470703125V453.6885681152344C42.299713134765625 453.1782531738281 42.299652099609375 452.66253662109375 42.30799102783203 452.1413879394531L42.43352508544922 443.479248046875C42.42825698852539 442.86053466796875 42.43533706665039 442.2340087890625 42.455081939697266 441.5996398925781L42.77764892578125 432.93072509765625C42.7757568359375 432.0602111816406 42.79867935180664 431.1744384765625 42.84733581542969 430.27337646484375L43.43571090698242 417.868408203125C43.52409744262695 416.26617431640625 43.68838882446289 414.72064208984375 43.92341995239258 413.2314758300781L44.759559631347656 404.4338073730469C44.87877655029297 403.1706237792969 45.04384994506836 401.94476318359375 45.252254486083984 400.7559509277344L46.05111312866211 394.4150085449219C46.14121627807617 392.6443786621094 46.34526062011719 390.8188171386719 46.67178726196289 388.9398498535156L48.436920166015625 379.3296813964844C48.73435592651367 377.6572570800781 49.108497619628906 376.0584411621094 49.553314208984375 374.5322265625L50.69236755371094 368.83697509765625C50.83039855957031 368.1732177734375 50.980228424072266 367.521484375 51.141483306884766 366.88165283203125L52.99684524536133 358.2951965332031C53.14557647705078 357.6435852050781 53.305538177490234 357.00384521484375 53.47637176513672 356.37591552734375L54.9090690612793 349.46954345703125C55.11375427246094 348.52178955078125 55.342586517333984 347.598876953125 55.594444274902344 346.7005310058594L56.82129669189453 341.2322692871094C57.24931716918945 339.42938232421875 57.76346206665039 337.71875 58.35600280761719 336.0984802246094L59.714149475097656 331.4750061035156C60.053245544433594 330.298583984375 60.427947998046875 329.1644287109375 60.83605194091797 328.0718994140625L62.8555908203125 321.9096984863281C63.155269622802734 320.7022399902344 63.512813568115234 319.4775695800781 63.93085479736328 318.23651123046875L67.59856414794922 307.5745849609375L69.9039077758789 298.7191467285156C70.16138458251953 297.5285949707031 70.47401428222656 296.31982421875 70.84429168701172 295.09368896484375L73.29586029052734 287.0525207519531C73.46446990966797 286.5018005371094 73.64078521728516 285.96051025390625 73.82457733154297 285.4285583496094L74.61009979248047 282.2428283691406C75.02090454101562 279.8311767578125 75.67008209228516 277.3456726074219 76.58096313476562 274.7946472167969L76.6395263671875 274.6332092285156C76.87631225585938 273.92462158203125 77.1275405883789 273.232666015625 77.39260864257812 272.5571594238281L78.89164733886719 268.4246826171875C79.43370056152344 266.53460693359375 80.13827514648438 264.61688232421875 81.01742553710938 262.6778869628906C81.91349792480469 260.4919128417969 82.93399810791016 258.4787902832031 84.06202697753906 256.6325378417969L86.33822631835938 252.191162109375C86.74369049072266 251.42431640625 87.16218566894531 250.68165588378906 87.59300994873047 249.96279907226562L87.79798889160156 249.5667266845703C88.42100524902344 248.20562744140625 89.13610076904297 246.83944702148438 89.94784545898438 245.47120666503906C90.76605224609375 244.01271057128906 91.63450622558594 242.64727783203125 92.54765319824219 241.37205505371094L94.17237854003906 238.83888244628906C94.97274017333984 237.46861267089844 95.87364959716797 236.0997772216797 96.8799819946289 234.73597717285156L97.06190490722656 234.49771118164062C97.41165161132812 234.0208282470703 97.76641082763672 233.55633544921875 98.12596130371094 233.1040802001953L100.7647933959961 229.6479034423828L102.42552185058594 226.69337463378906C103.09471130371094 225.29400634765625 103.85960388183594 223.88792419433594 104.72501373291016 222.47811889648438L107.67826080322266 217.88417053222656C108.491455078125 216.42347717285156 109.41730499267578 214.9624786376953 110.4616928100586 213.50535583496094L113.49595642089844 209.2895965576172C114.861572265625 207.0177459716797 116.52249908447266 204.7710723876953 118.50284576416016 202.57135009765625L119.03299713134766 201.97544860839844C119.10066223144531 201.8988494873047 119.16846466064453 201.8226318359375 119.23640441894531 201.74681091308594L123.96814727783203 196.4281768798828C124.18513488769531 196.17086791992188 124.40633392333984 195.9141082763672 124.63178253173828 195.6579132080078L129.6329803466797 189.92123413085938C130.41575622558594 189.0370635986328 131.21160888671875 188.20228576660156 132.0189971923828 187.41551208496094L134.9774169921875 183.98843383789062C135.9116973876953 182.9568328857422 136.8633575439453 181.9940643310547 137.82992553710938 181.09788513183594L140.17474365234375 178.6439971923828C141.4200897216797 177.35565185546875 142.6905059814453 176.1826934814453 143.98085021972656 175.1201171875L145.3230438232422 173.83892822265625C146.82470703125 172.4789276123047 148.34860229492188 171.26803588867188 149.88775634765625 170.19857788085938L151.255859375 169.03384399414062C152.5729522705078 168.02235412597656 153.89707946777344 167.11192321777344 155.2247314453125 166.29800415039062L157.54983520507812 164.5889434814453L158.60983276367188 163.72836303710938C158.96083068847656 163.38636779785156 159.3206024169922 163.04647827148438 159.6892547607422 162.7087860107422L164.69046020507812 158.14886474609375C165.818603515625 157.1271514892578 166.9593048095703 156.18939208984375 168.10958862304688 155.33236694335938L171.01551818847656 152.75540161132812C172.28213500976562 151.68911743164062 173.56016540527344 150.72280883789062 174.845947265625 149.85214233398438C176.13839721679688 148.73472595214844 177.54054260253906 147.65737915039062 179.0566864013672 146.62648010253906L184.00885009765625 143.39039611816406C185.28814697265625 142.52671813964844 186.5680389404297 141.75076293945312 187.84593200683594 141.05873107910156L191.31454467773438 138.97756958007812C193.00567626953125 137.9821014404297 194.68890380859375 137.12767028808594 196.35943603515625 136.4062042236328L197.9724578857422 135.5667724609375L200.48341369628906 134.025390625C200.56370544433594 133.9762420654297 200.6439971923828 133.9274139404297 200.72425842285156 133.87890625L201.51417541503906 133.36984252929688C202.8645782470703 132.379150390625 204.31761169433594 131.43516540527344 205.8768768310547 130.54415893554688L210.2406768798828 127.8964614868164C211.72122192382812 127.0487289428711 213.1945343017578 126.30767822265625 214.6575164794922 125.66795349121094L216.53427124023438 124.64595794677734C219.3310089111328 122.72959899902344 222.5485076904297 121.1252670288086 226.20538330078125 119.91722869873047C229.51022338867188 118.64117431640625 232.7425994873047 117.8595962524414 235.8716278076172 117.5126953125L241.08145141601562 116.17794799804688C241.687255859375 116.02415466308594 242.288330078125 115.88386535644531 242.8845977783203 115.75679779052734L244.79403686523438 115.25363159179688C246.11343383789062 114.80682373046875 247.4906005859375 114.41083526611328 248.92648315429688 114.06959533691406L252.4384307861328 113.25102233886719C253.8091278076172 112.8582763671875 255.23731994628906 112.52833557128906 256.72344970703125 112.26616668701172C259.73040771484375 111.64102172851562 262.6107177734375 111.34764862060547 265.3556213378906 111.34893035888672C267.1029357910156 111.13780212402344 268.9234619140625 111.02839660644531 270.81719970703125 111.02925872802734C271.52520751953125 111.01258850097656 272.2236328125 111.01288604736328 272.9123229980469 111.02964782714844H278.6028747558594C278.9879150390625 111.02497863769531 279.3760681152344 111.02495574951172 279.76727294921875 111.02964782714844H285.4497375488281C286.537841796875 110.99042510986328 287.65093994140625 110.98981475830078 288.7890319824219 111.02964782714844L289.6748352050781 111.08634185791016C290.1040344238281 111.10784149169922 290.5292053222656 111.13509368896484 290.95037841796875 111.16797637939453L292.82977294921875 111.28825378417969C293.9425048828125 111.29051208496094 295.0799255371094 111.33440399169922 296.2418212890625 111.4218978881836L299.42059326171875 111.6120834350586C300.608642578125 111.64424133300781 301.8231506347656 111.72572326660156 303.0637512207031 111.85902404785156C303.865478515625 111.93755340576172 304.6522216796875 112.0351791381836 305.4238586425781 112.15120697021484L308.9376220703125 112.6009750366211C309.1549987792969 112.6271743774414 309.3731384277344 112.65509033203125 309.592041015625 112.68473815917969L310.0686950683594 112.7457504272461C311.933837890625 112.98828887939453 313.7135925292969 113.32881164550781 315.4090576171875 113.75908660888672C317.6447448730469 114.05249786376953 319.95233154296875 114.54224395751953 322.3265380859375 115.24635314941406L323.2330627441406 115.53743743896484C323.774658203125 115.6993179321289 324.3070373535156 115.86995697021484 324.8302307128906 116.04908752441406C326.58001708984375 116.49100494384766 328.3595886230469 117.06510925292969 330.164794921875 117.78044128417969C331.79290771484375 118.3657455444336 333.33087158203125 119.02342987060547 334.78076171875 119.74654388427734C335.54278564453125 120.06584167480469 336.3077392578125 120.41255950927734 337.0751037597656 120.78743743896484C339.1210021972656 121.73230743408203 341.0066223144531 122.77688598632812 342.7379455566406 123.90784454345703C343.0103454589844 124.00850677490234 343.2834167480469 124.11225128173828 343.5571594238281 124.21910095214844L345.5856628417969 125.0446548461914C347.0115661621094 125.55075073242188 348.45294189453125 126.14744567871094 349.9074401855469 126.83953094482422C351.00164794921875 127.3354263305664 352.0500183105469 127.86207580566406 353.0534362792969 128.41726684570312L354.19879150390625 128.99610900878906C354.6611022949219 129.21864318847656 355.12432861328125 129.45138549804688 355.58837890625 129.69451904296875C356.8979797363281 130.3578643798828 358.1383972167969 131.0611572265625 359.31134033203125 131.80076599121094L359.83551025390625 132.10398864746094C360.9762268066406 132.67958068847656 362.1208801269531 133.31918334960938 363.2677917480469 134.025390625L368.8099670410156 137.42848205566406C370.8814697265625 138.46267700195312 372.9505310058594 139.72340393066406 375.0037536621094 141.22787475585938C376.0242614746094 141.93434143066406 376.99041748046875 142.6656951904297 377.90350341796875 143.4195556640625L380.1346130371094 145.1064910888672C382.11248779296875 146.65318298339844 383.87054443359375 148.27255249023438 385.4209289550781 149.94906616210938L387.0480651855469 151.43154907226562C387.83526611328125 152.1764678955078 388.5804138183594 152.93104553222656 389.2846374511719 153.69412231445312C390.5062255859375 154.77267456054688 391.7051086425781 155.95603942871094 392.8763427734375 157.2486572265625C394.8874816894531 159.10308837890625 396.7831726074219 161.26841735839844 398.5281066894531 163.76556396484375C398.8255310058594 164.15240478515625 399.11370849609375 164.5404052734375 399.39276123046875 164.92942810058594L399.69818115234375 165.2093963623047C432.320556640625 197.83177185058594 388.0845642089844 245.73898315429688 353.8668212890625 222.38134765625C351.7377014160156 220.98416137695312 349.6451721191406 219.31427001953125 347.6099853515625 217.35101318359375C345.59130859375 215.6791534423828 343.67535400390625 213.71414184570312 341.8953552246094 211.43646240234375C340.55364990234375 209.89096069335938 339.37261962890625 208.3168487548828 338.3435974121094 206.7227783203125L337.27911376953125 205.65829467773438C337.0668029785156 205.46588134765625 336.8550109863281 205.27044677734375 336.64373779296875 205.0719451904297L333.40826416015625 202.09097290039062L333.0188293457031 201.7764129638672L331.9848937988281 201.1333770751953C331.3812561035156 200.79745483398438 330.7767333984375 200.44337463378906 330.17156982421875 200.07073974609375L325.17578125 197.00315856933594L321.5744323730469 194.92001342773438L319.40167236328125 193.84532165527344L316.54083251953125 192.8140869140625C314.9986267089844 192.204833984375 313.5395202636719 191.53781127929688 312.1614685058594 190.81829833984375C311.68548583984375 190.61318969726562 311.2084045410156 190.3972930908203 310.73040771484375 190.17039489746094L310.6080322265625 190.1173553466797C308.3587341308594 189.11383056640625 306.2992248535156 187.99005126953125 304.4217834472656 186.76327514648438L304.0827331542969 186.61636352539062L303.50799560546875 186.4318084716797L299.5423583984375 185.571044921875L295.01904296875 185.02825927734375L290.89739990234375 184.77293395996094C290.6214294433594 184.7522430419922 290.3471984863281 184.7293243408203 290.0746765136719 184.70423889160156L286.0923156738281 184.57681274414062H272.0528564453125L269.9621887207031 184.7498321533203L265.9894104003906 185.70452880859375C265.6997375488281 185.77330017089844 265.41119384765625 185.83901977539062 265.123779296875 185.90170288085938L259.8605041503906 187.42063903808594C258.65655517578125 187.7475128173828 257.470703125 188.02008056640625 256.3036193847656 188.24066162109375C254.9951934814453 188.65621948242188 253.63143920898438 189.0215301513672 252.2115936279297 189.33285522460938L251.49107360839844 189.4858856201172L250.69161987304688 189.92123413085938C249.67620849609375 190.44204711914062 248.6661834716797 190.91546630859375 247.66238403320312 191.3431396484375L245.29815673828125 192.6179656982422C245.2811737060547 192.62657165527344 245.2642059326172 192.63516235351562 245.2472381591797 192.64373779296875C246.92396545410156 202.0154266357422 245.30252075195312 212.0394287109375 240.38291931152344 220.14952087402344C240.37828063964844 220.27407836914062 240.3731231689453 220.39892578125 240.3674774169922 220.52407836914062C240.35052490234375 221.703369140625 240.28541564941406 222.8546905517578 240.17465209960938 223.97775268554688L239.9537353515625 227.87156677246094C239.87472534179688 229.30824279785156 239.73504638671875 230.69937133789062 239.53839111328125 232.04515075683594L239.16921997070312 236.84432983398438C239.130859375 237.28868103027344 239.08676147460938 237.72845458984375 239.0370635986328 238.16368103027344L238.67849731445312 242.27525329589844C238.6636505126953 243.00421142578125 238.63128662109375 243.74354553222656 238.5808563232422 244.49322509765625L238.27392578125 248.20433044433594C238.27175903320312 248.75894165039062 238.25973510742188 249.31973266601562 238.2376251220703 249.88668823242188L237.6492462158203 260.77166748046875C237.644775390625 260.88629150390625 237.63990783691406 261.0006408691406 237.63465881347656 261.1147155761719L237.453125 272.0979309082031C237.448974609375 272.2785949707031 237.44383239746094 272.45855712890625 237.43771362304688 272.6378173828125L237.2820587158203 282.05523681640625L237.6256866455078 285.3368835449219C237.9744415283203 287.3863220214844 238.18325805664062 289.54345703125 238.2376251220703 291.8085632324219L238.4337615966797 305.63543701171875C238.45095825195312 306.3833923339844 238.45079040527344 307.1202697753906 238.4337615966797 307.8460998535156V314.9065856933594C238.4353485107422 315.1329345703125 238.43536376953125 315.3603515625 238.4337615966797 315.58880615234375V323.6982421875C238.4410400390625 324.1773986816406 238.4410858154297 324.6612854003906 238.4337615966797 325.14996337890625L238.2376251220703 337.4078063964844L238.04150390625 351.1856384277344C238.03793334960938 351.40911865234375 238.03285217285156 351.631591796875 238.02626037597656 351.8529968261719L237.6492462158203 373.2007751464844C237.64842224121094 373.2690734863281 237.6474609375 373.3372497558594 237.6463623046875 373.40533447265625L237.453125 396.98101806640625V421.88897705078125L237.45098876953125 422.099609375L237.2570037841797 441.2073669433594V468.4198303222656C237.24876403808594 470.478515625 237.11122131347656 472.4504089355469 236.85525512695312 474.3355407714844L235.5408935546875 498.6722106933594C235.45236206054688 500.07757568359375 235.30609130859375 501.4390563964844 235.10556030273438 502.7568359375L233.4325408935547 527.20849609375C233.32276916503906 528.69189453125 233.14918518066406 530.1253662109375 232.91583251953125 531.5092163085938L232.05380249023438 540.963623046875C232.02890014648438 542.5265502929688 231.91836547851562 544.1360473632812 231.71644592285156 545.7914428710938L229.98924255371094 559.96337890625C229.93850708007812 560.5292358398438 229.8769073486328 561.1006469726562 229.80421447753906 561.6776123046875L228.57254028320312 570.2198486328125C228.53285217285156 570.6864013671875 228.48582458496094 571.15673828125 228.43133544921875 571.6309814453125L225.68092346191406 594.87646484375C225.58580017089844 596.2322387695312 225.42514038085938 597.6201782226562 225.1952667236328 599.0396118164062L221.1746826171875 623.7514038085938L218.47796630859375 641.7459716796875C218.3572235107422 642.4915161132812 218.22116088867188 643.222900390625 218.07028198242188 643.940185546875L215.71917724609375 661.1183471679688C215.6939697265625 661.425537109375 215.66563415527344 661.7344360351562 215.63414001464844 662.0449829101562L213.78712463378906 680.3433837890625C213.77069091796875 680.7457275390625 213.7489776611328 681.1510620117188 213.72190856933594 681.5595092773438L212.4114532470703 698.2269897460938C212.4130096435547 699.0480346679688 212.3924560546875 699.8826293945312 212.34902954101562 700.7307739257812ZM113.7468032836914 495.4361572265625 114.20919799804688 504.7680969238281C114.23931121826172 505.1516418457031 114.2649917602539 505.53857421875 114.28614807128906 505.9288635253906L114.67839813232422 516.078369140625C114.69825744628906 516.439453125 114.71398162841797 516.798095703125 114.72563171386719 517.1542358398438L114.93419647216797 521.0387573242188L115.72550964355469 524.7008666992188C115.97542572021484 525.677978515625 116.19318389892578 526.6830444335938 116.37704467773438 527.7161254882812L116.39450073242188 527.796875C117.06218719482422 531.0070190429688 117.36119079589844 534.0691528320312 117.3349609375 536.97412109375L117.52629089355469 539.27001953125L118.77963256835938 546.9922485351562L120.21894836425781 554.4209594726562C120.36231231689453 555.1234741210938 120.48815155029297 555.8187866210938 120.5969009399414 556.5068969726562L121.22065734863281 559.6256713867188C121.28057098388672 559.86669921875 121.33892822265625 560.109375 121.39570617675781 560.353759765625L121.77253723144531 562.2128295898438C121.7776870727539 562.2305297851562 121.78282165527344 562.2482299804688 121.78795623779297 562.2659912109375L122.85270690917969 565.8768920898438L122.91567993164062 566.0904541015625L124.8279037475586 572.41552734375C125.22313690185547 573.7817993164062 125.5476303100586 575.1256713867188 125.80481719970703 576.4461669921875L126.48860931396484 578.9884643554688C126.54887390136719 579.2056884765625 126.60770416259766 579.4243774414062 126.66506958007812 579.64453125L126.9362564086914 580.6527709960938C127.47582244873047 582.7781372070312 127.84867858886719 584.8447875976562 128.06759643554688 586.8495483398438L129.6329803466797 595.9506225585938C129.88241577148438 597.454833984375 130.05422973632812 598.9239501953125 130.1527862548828 600.3572998046875L131.34909057617188 610.1206665039062C131.5564422607422 611.9501342773438 131.65383911132812 613.7227783203125 131.64894104003906 615.4379272460938L132.03955078125 620.3206176757812C132.14984130859375 620.994873046875 132.24671936035156 621.6807861328125 132.3297119140625 622.3785400390625L133.3367156982422 631.135009765625L134.2183074951172 635.84521484375L136.2064971923828 641.5142211914062C136.37290954589844 641.91259765625 136.5352783203125 642.3167114257812 136.69351196289062 642.7266235351562L139.2152557373047 649.5521850585938C139.83265686035156 650.8992309570312 140.39920043945312 652.3171997070312 140.91021728515625 653.8076782226562L142.16477966308594 657.6781616210938L142.47921752929688 654.5922241210938C142.58055114746094 653.5929565429688 142.71043395996094 652.6173095703125 142.86761474609375 651.6650390625L145.24876403808594 634.392333984375C145.33920288085938 633.050537109375 145.4935302734375 631.6771240234375 145.71530151367188 630.2725830078125L148.608154296875 612.2290649414062L148.66653442382812 611.8681030273438L152.5403594970703 587.9165649414062L155.27642822265625 563.1975708007812C155.4437713623047 561.77880859375 155.6683349609375 560.4085693359375 155.946533203125 559.0864868164062L156.84544372558594 552.3126220703125C156.89697265625 551.913330078125 156.95298767089844 551.5178833007812 157.01339721679688 551.1264038085938L158.4561767578125 539.2510986328125C158.48509216308594 538.819580078125 158.52017211914062 538.3847045898438 158.56153869628906 537.9464111328125L160.08151245117188 521.07958984375C160.1334991455078 520.5286865234375 160.1942138671875 519.9849243164062 160.26344299316406 519.4481811523438L161.9130401611328 497.5431823730469C161.90147399902344 496.47186279296875 161.92779541015625 495.3772277832031 161.99374389648438 494.2593994140625L163.7098388671875 466.1153564453125V441.0112609863281C163.71063232421875 440.81378173828125 163.71261596679688 440.6170654296875 163.7157745361328 440.4211730957031L163.9059600830078 421.4967346191406V397.1716003417969C163.9038848876953 396.913330078125 163.90386962890625 396.6536560058594 163.9059600830078 396.39263916015625L164.1020965576172 372.2691650390625C164.11920166015625 370.84344482421875 164.197998046875 369.4598388671875 164.33486938476562 368.1183166503906L164.48817443847656 350.7565612792969C164.48855590820312 350.5247802734375 164.4906005859375 350.2919006347656 164.4943389892578 350.05792236328125L164.4990997314453 349.72674560546875L164.6881866455078 336.5849914550781L164.69046020507812 336.42718505859375L164.69171142578125 336.34771728515625L164.8865966796875 324.022216796875V307.1554260253906L164.7315216064453 296.2620544433594C164.71722412109375 296.1182556152344 164.7035369873047 295.97393798828125 164.69046020507812 295.82916259765625L164.1873016357422 289.8226623535156C163.84539794921875 287.55572509765625 163.67958068847656 285.16131591796875 163.7098388671875 282.6396789550781L163.7142333984375 282.36895751953125C163.7132568359375 281.83856201171875 163.72186279296875 281.3137512207031 163.73983764648438 280.7945556640625L163.89317321777344 271.36444091796875C163.8926239013672 270.974609375 163.8968505859375 270.5816955566406 163.9059600830078 270.1856994628906L164.0015869140625 267.3407287597656C163.3592987060547 268.4049377441406 162.65582275390625 269.46795654296875 161.88885498046875 270.5281066894531C161.2285919189453 271.5041809082031 160.5442352294922 272.4307556152344 159.83792114257812 273.30902099609375L157.2306671142578 276.83917236328125C157.21669006347656 276.8604431152344 157.2026824951172 276.8817443847656 157.18865966796875 276.90301513671875L153.20114135742188 283.0772399902344L151.64810180664062 286.26800537109375C151.1253204345703 287.2652282714844 150.58029174804688 288.2217712402344 150.0145721435547 289.1383972167969L148.50613403320312 291.9447937011719L146.1715850830078 298.7483215332031L145.05206298828125 303.2886047363281C144.75054931640625 304.98114013671875 144.3367156982422 306.71209716796875 143.80307006835938 308.479248046875L141.59478759765625 315.5804443359375L139.42864990234375 323.901123046875C139.058349609375 325.8092956542969 138.54254150390625 327.76312255859375 137.87026977539062 329.7589111328125L133.653564453125 342.0167541503906C133.34178161621094 342.9261474609375 133.0093231201172 343.80859375 132.65725708007812 344.6645202636719L130.0316925048828 352.6758728027344L128.11300659179688 359.815185546875C128.05856323242188 360.0007019042969 128.00323486328125 360.1851806640625 127.9470443725586 360.3686218261719L126.7401351928711 365.74798583984375C126.52115631103516 366.67437744140625 126.27941131591797 367.576416015625 126.01596069335938 368.454345703125L125.48469543457031 371.01531982421875C125.31647491455078 372.1810302734375 125.09831237792969 373.3673095703125 124.8279037475586 374.5736389160156L122.9734115600586 382.4256591796875C122.89564514160156 382.8617858886719 122.8110580444336 383.30078125 122.71955108642578 383.7425231933594L120.75730895996094 392.68670654296875L119.287353515625 401.9331970214844C119.26931762695312 402.0341491699219 119.25100708007812 402.1347961425781 119.23241424560547 402.2351989746094L117.92929077148438 411.692138671875L117.01741790771484 420.88690185546875C117.0082015991211 421.1541748046875 116.99669647216797 421.4228515625 116.98287200927734 421.69287109375L116.19837188720703 434.1468505859375C116.19152069091797 434.2839050292969 116.1841049194336 434.4205627441406 116.1761474609375 434.5567932128906L116.00224304199219 443.90411376953125C115.99785614013672 444.0455322265625 115.99287414550781 444.1865234375 115.98729705810547 444.32708740234375L115.85514831542969 453.26910400390625V459.00579833984375C115.8472900390625 459.6606750488281 115.826416015625 460.3066711425781 115.79287719726562 460.94378662109375C115.96605682373047 463.6587829589844 115.86770629882812 466.5282287597656 115.46289825439453 469.54754638671875L114.06351470947266 479.38323974609375L113.58362579345703 487.0179138183594L113.71725463867188 494.83526611328125C113.72830200195312 495.03466796875 113.73815155029297 495.2349853515625 113.7468032836914 495.4361572265625Z" fill="black"/>
</svg>
