<svg xmlns="http://www.w3.org/2000/svg" viewBox="0 0 479 1000">
  <path d="M296.6855163574219 153.615966796875 290.275390625 153.3032684326172 286.6331481933594 153.42172241210938 284.1617126464844 153.6988983154297 281.05572509765625 154.26229858398438C280.7587585449219 154.326416015625 280.4575500488281 154.38619995117188 280.1520690917969 154.4415740966797L277.00885009765625 155.0057373046875L273.2931213378906 156.0081329345703L268.4029541015625 157.34181213378906C267.5652160644531 157.56869506835938 266.74267578125 157.7498321533203 265.93603515625 157.8876190185547L264.09246826171875 158.31045532226562C263.8528747558594 158.37838745117188 263.6102600097656 158.44363403320312 263.3645935058594 158.5061492919922L261.882568359375 158.87326049804688L260.89923095703125 159.1608428955078C260.6519775390625 159.2488250732422 260.40118408203125 159.33404541015625 260.14678955078125 159.4164276123047L256.67498779296875 160.55958557128906C255.746826171875 160.85922241210938 254.83514404296875 161.10043334960938 253.94100952148438 161.28652954101562L253.63351440429688 161.37255859375L251.1592559814453 162.33750915527344C250.64419555664062 162.5618133544922 250.1118621826172 162.77386474609375 249.56201171875 162.97293090820312L245.34925842285156 164.45480346679688C245.3028564453125 164.47142028808594 245.2564697265625 164.48788452148438 245.21014404296875 164.5041961669922L243.1119384765625 165.26052856445312C242.89401245117188 165.35391235351562 242.6730499267578 165.4452362060547 242.4490203857422 165.53445434570312L239.98899841308594 166.47840881347656C239.8436737060547 166.5457000732422 239.69692993164062 166.6121063232422 239.5487823486328 166.6776123046875L235.1818084716797 168.58114624023438L231.03860473632812 170.82684326171875C230.81448364257812 170.94671630859375 230.5907745361328 171.06248474121094 230.3674774169922 171.17420959472656L228.05845642089844 172.4638214111328L223.1162109375 175.5389862060547L219.7028045654297 177.9322967529297C218.800537109375 178.6519775390625 217.81076049804688 179.33248901367188 216.72967529296875 179.9671173095703C216.11968994140625 180.3463592529297 215.50942993164062 180.69102478027344 214.89979553222656 181.0023956298828L211.10169982910156 183.14059448242188C211.05088806152344 183.17123413085938 210.9998779296875 183.2017822265625 210.9486541748047 183.2322235107422L206.90745544433594 185.59422302246094L203.83567810058594 187.7625274658203C203.47096252441406 188.02151489257812 203.1059112548828 188.26776123046875 202.74069213867188 188.50155639648438L199.3965606689453 190.78240966796875L196.9669647216797 192.49508666992188L195.94146728515625 193.4075927734375C195.68765258789062 193.6519317626953 195.42591857910156 193.89431762695312 195.15614318847656 194.1345672607422L192.4053497314453 196.51858520507812C192.0928955078125 196.82785034179688 191.76795959472656 197.13409423828125 191.4302978515625 197.43702697753906L187.78912353515625 200.6759796142578C187.64376831054688 200.8058624267578 187.4980926513672 200.933349609375 187.35208129882812 201.05845642089844L185.69183349609375 202.5450897216797C185.40670776367188 202.83482360839844 185.11090087890625 203.1221466064453 184.80421447753906 203.4068603515625L182.32736206054688 205.71434020996094C182.01535034179688 206.00279235839844 181.70152282714844 206.27987670898438 181.38609313964844 206.5457763671875C181.07827758789062 206.87826538085938 180.7570343017578 207.2080841064453 180.42210388183594 207.53492736816406L177.6157684326172 210.17245483398438L175.75108337402344 212.0508575439453L174.63717651367188 213.41880798339844L173.96165466308594 214.45462036132812C173.46194458007812 215.3184051513672 172.89283752441406 216.18113708496094 172.25064086914062 217.04006958007812L169.35040283203125 220.93528747558594C168.75425720214844 221.7316436767578 168.13714599609375 222.46861267089844 167.5020294189453 223.1484375L165.20115661621094 225.8889617919922C164.75958251953125 226.41329956054688 164.30966186523438 226.9088134765625 163.8523406982422 227.37628173828125L163.33541870117188 227.95729064941406C162.86697387695312 228.54408264160156 162.36029052734375 229.12525939941406 161.81402587890625 229.69949340820312L158.6096649169922 233.0470733642578L155.95004272460938 236.3890838623047C155.86024475097656 236.5006866455078 155.77003479003906 236.61105346679688 155.67945861816406 236.7201690673828L153.05160522460938 240.08876037597656L152.9651336669922 240.19961547851562L151.31390380859375 242.35891723632812C150.99871826171875 242.75901794433594 150.67835998535156 243.14337158203125 150.35321044921875 243.51231384277344L149.8199462890625 244.18971252441406L149.3989715576172 244.7698211669922L146.8471221923828 249.0485076904297C146.6421356201172 249.39991760253906 146.43252563476562 249.7418212890625 146.21849060058594 250.07437133789062L146.1587371826172 250.17477416992188C147.03408813476562 252.556396484375 147.52455139160156 255.2646942138672 147.52455139160156 258.29962158203125V325.81439208984375L148.18080139160156 333.0706481933594C148.2257537841797 333.56402587890625 148.25694274902344 334.0499267578125 148.27479553222656 334.5282897949219L148.75238037109375 339.1039733886719C148.79586791992188 339.5242919921875 148.82923889160156 339.9393005371094 148.8527374267578 340.34893798828125L149.39674377441406 346.179443359375C149.51234436035156 346.8824768066406 149.6015167236328 347.607666015625 149.6626739501953 348.3550720214844L150.31893920898438 356.37835693359375C150.37435913085938 357.0726013183594 150.40267944335938 357.7518005371094 150.4051971435547 358.4158935546875L150.82701110839844 365.4812927246094C150.847412109375 365.868408203125 150.85952758789062 366.2506408691406 150.8635711669922 366.6279602050781L151.08103942871094 371.9380187988281C151.09603881835938 372.3081359863281 151.1035614013672 372.67364501953125 151.10377502441406 373.0346374511719L151.22923278808594 377.802001953125C151.23731994628906 378.0789489746094 151.2412567138672 378.35333251953125 151.24114990234375 378.6250915527344L151.31390380859375 382.09942626953125C151.31719970703125 382.2570495605469 151.31918334960938 382.413818359375 151.31983947753906 382.5697326660156L151.39859008789062 386.5661926269531C151.40281677246094 386.84808349609375 151.4027862548828 387.127197265625 151.39859008789062 387.403564453125V411.1229248046875C151.39871215820312 411.151123046875 151.398681640625 411.1793518066406 151.39859008789062 411.2076110839844V428.8207092285156Q151.39755249023438 429.1620178222656 151.38833618164062 429.4978332519531L151.31390380859375 435.0234069824219V565.2241821289062C151.38050842285156 566.3458862304688 151.3695831298828 567.5140991210938 151.27410888671875 568.7282104492188C151.2341766357422 569.4613647460938 151.16458129882812 570.174072265625 151.0669403076172 570.8662719726562L150.5531768798828 576.0185546875L150.4126434326172 581.9207763671875L150.57296752929688 588.3336181640625C150.5800018310547 588.9187622070312 150.56863403320312 589.4920043945312 150.5396728515625 590.0533447265625L150.60121154785156 592.3919067382812C150.67547607421875 593.0869140625 150.7230224609375 593.8016967773438 150.74232482910156 594.5363159179688L150.82701110839844 600.9930419921875C150.8312530517578 601.1551513671875 150.83409118652344 601.3163452148438 150.8355255126953 601.4766845703125L150.95098876953125 606.88916015625C151.0234832763672 607.6055908203125 151.0673828125 608.3428955078125 151.08103942871094 609.1010131835938L151.14454650878906 617.0396118164062L151.146728515625 617.1807861328125L151.2255401611328 622.2631225585938L151.22923278808594 622.5013427734375C151.23193359375 622.726318359375 151.23191833496094 622.9495239257812 151.22923278808594 623.1710205078125V626.057861328125L151.2881622314453 628.2972412109375L151.7052459716797 631.9728393554688C151.71615600585938 632.040283203125 151.72683715820312 632.1079711914062 151.7373046875 632.1758422851562L152.52171325683594 637.2289428710938C152.56649780273438 637.4683837890625 152.6084747314453 637.7103881835938 152.64759826660156 637.9551391601562L153.13449096679688 640.9400634765625C153.1806182861328 641.2332763671875 153.22161865234375 641.5242309570312 153.25759887695312 641.812744140625L153.3275604248047 642.260498046875C153.45071411132812 642.84814453125 153.5560302734375 643.4523315429688 153.64256286621094 644.0731811523438L153.8078155517578 645.62646484375C153.94384765625 646.3543701171875 154.05165100097656 647.1067504882812 154.1294708251953 647.8837280273438L154.50106811523438 651.9526977539062C154.5269012451172 652.1951293945312 154.54957580566406 652.4400024414062 154.56903076171875 652.6871948242188C154.61941528320312 653.2254028320312 154.6531982421875 653.7546997070312 154.67092895507812 654.275146484375L154.955078125 658.7860717773438C154.98048400878906 659.2695922851562 154.99302673339844 659.7454223632812 154.99314880371094 660.2136840820312L155.1244354248047 663.6762084960938C155.13523864746094 664.0109252929688 155.13995361328125 664.3418579101562 155.1387176513672 664.6690673828125L155.2091064453125 668.3123779296875C155.21469116210938 668.6353759765625 155.2146453857422 668.954833984375 155.2091064453125 669.2706909179688L155.20904541015625 671.1371459960938C158.95465087890625 676.2030029296875 160.55859375 682.783203125 158.2631072998047 689.4548950195312C157.97926330566406 690.349853515625 157.6245574951172 691.2417602539062 157.19476318359375 692.126220703125C157.06573486328125 692.413818359375 156.9287109375 692.7000732421875 156.78363037109375 692.98486328125L158.85028076171875 695.8328247070312C159.29827880859375 696.4503173828125 159.70924377441406 697.0692138671875 160.0845489501953 697.6884765625L162.34494018554688 700.9213256835938Q162.450439453125 701.0643310546875 162.55496215820312 701.2098999023438L164.79051208496094 704.3292846679688Q164.83712768554688 704.3887939453125 164.8836212158203 704.4488525390625L168.75765991210938 709.4872436523438L168.79849243164062 709.5401000976562L171.75425720214844 713.0375366210938C171.80691528320312 713.0956420898438 171.85946655273438 713.1541748046875 171.91192626953125 713.2130737304688L175.92515563964844 717.7305908203125L175.95591735839844 717.7639770507812L178.6862030029297 720.728271484375C178.71632385253906 720.760986328125 178.74630737304688 720.793701171875 178.7761688232422 720.8264770507812L182.58140563964844 724.7081909179688C182.95570373535156 725.0983276367188 183.31161499023438 725.4917602539062 183.6495361328125 725.8881225585938L185.7429656982422 728.0244750976562L188.21331787109375 730.0107421875C188.3472442626953 730.1113891601562 188.48106384277344 730.2138061523438 188.61473083496094 730.318115234375L190.55882263183594 731.857177734375C191.07632446289062 732.2355346679688 191.58990478515625 732.6427001953125 192.0986785888672 733.0796508789062C193.13038635253906 733.9216918945312 194.052001953125 734.7994384765625 194.86923217773438 735.7055053710938L195.37904357910156 736.2022705078125C195.43885803222656 736.2515869140625 195.49864196777344 736.3013305664062 195.55836486816406 736.3514404296875L198.77613830566406 739.0823364257812C199.02587890625 739.2929077148438 199.26910400390625 739.50537109375 199.50587463378906 739.7196655273438L200.68736267089844 740.6912841796875C201.1605682373047 741.0418090820312 201.6315460205078 741.41552734375 202.09976196289062 741.813232421875L205.06350708007812 744.374755859375C205.42774963378906 744.6845092773438 205.77793884277344 744.9982299804688 206.11436462402344 745.315673828125L208.38714599609375 747.2749633789062C208.84141540527344 747.6760864257812 209.27305603027344 748.0831909179688 209.68263244628906 748.4957275390625L210.51275634765625 749.2509765625L211.01414489746094 749.6043090820312C211.51467895507812 749.9054565429688 212.0151824951172 750.2295532226562 212.5152130126953 750.577392578125L214.10289001464844 751.7114868164062L215.07325744628906 752.2544555664062L217.53414916992188 753.2332153320312L220.4538116455078 754.2185668945312C221.0032501220703 754.415283203125 221.53521728515625 754.625 222.04998779296875 754.8470458984375L223.90736389160156 755.5152587890625L225.8809051513672 756.1248779296875L228.97854614257812 756.8079833984375L232.06787109375 757.26806640625L233.6229705810547 757.3976440429688L236.23165893554688 757.5245971679688L239.2947540283203 757.1188354492188L239.33099365234375 757.1143798828125L244.35427856445312 756.3778686523438C244.6255340576172 756.335205078125 244.89476013183594 756.2969360351562 245.1619415283203 756.262939453125L248.56703186035156 755.7216186523438C249.31051635742188 755.6112060546875 250.03860473632812 755.5333862304688 250.75106811523438 755.486572265625L254.11611938476562 755.1139526367188L258.011962890625 754.3541259765625C258.5665283203125 754.2085571289062 259.136962890625 754.0784301757812 259.7234191894531 753.9645385742188L264.96990966796875 752.9842529296875C265.3656311035156 752.8938598632812 265.7690124511719 752.811279296875 266.1801452636719 752.7366943359375L269.8005676269531 752.0919799804688C270.26287841796875 751.9924926757812 270.7355041503906 751.9038696289062 271.218505859375 751.826416015625L274.7052917480469 751.263427734375C275.0301208496094 751.2059936523438 275.3597412109375 751.1539306640625 275.6942138671875 751.1073608398438C275.74755859375 751.0999145507812 275.8010559082031 751.0926513671875 275.8546447753906 751.0855102539062C276.0762023925781 751.0537719726562 276.2965087890625 751.02587890625 276.51544189453125 751.0009155273438L277.6269836425781 750.858642578125C278.1259460449219 750.780029296875 278.635986328125 750.7142944335938 279.1571044921875 750.662109375L279.42742919921875 750.6390380859375C279.66937255859375 750.6151123046875 279.9095764160156 750.5946655273438 280.14801025390625 750.57763671875L281.2086486816406 750.4871826171875C281.64691162109375 750.4379272460938 282.0931396484375 750.3991088867188 282.5473937988281 750.37109375C283.1347351074219 750.3263549804688 283.7115173339844 750.301513671875 284.2774353027344 750.2957153320312L288.34271240234375 750.1336669921875L292.8114929199219 749.5824584960938C292.93218994140625 749.5693359375 293.05242919921875 749.5570678710938 293.1722412109375 749.5455932617188L299.4164123535156 748.6721801757812C299.7201232910156 748.6319580078125 300.0212097167969 748.5971069335938 300.31964111328125 748.5675048828125L305.95782470703125 747.8465576171875C306.5158386230469 747.7744750976562 307.0649108886719 747.7205200195312 307.6049499511719 747.6839599609375L313.3883361816406 747.1055908203125C313.4615783691406 747.0984497070312 313.53466796875 747.0916748046875 313.6075744628906 747.0851440429688L317.2509460449219 746.6473388671875L320.5498962402344 746.043701171875C321.0772705078125 745.9176635742188 321.6184997558594 745.8057250976562 322.1737365722656 745.7084350585938L326.91748046875 744.9149780273438L333.1607360839844 743.3797607421875L333.54296875 743.2891845703125L336.73577880859375 742.5325927734375C337.23846435546875 742.39306640625 337.7544250488281 742.2659912109375 338.2837829589844 742.1519165039062L343.4908142089844 741.0307006835938L348.4053955078125 739.754638671875L354.0762939453125 737.7698364257812C354.6552429199219 737.5725708007812 355.22808837890625 737.3983764648438 355.7945556640625 737.2464599609375L357.78179931640625 736.574951171875C357.9767761230469 736.498779296875 358.174072265625 736.4242553710938 358.37371826171875 736.3514404296875L364.9151306152344 733.9592895507812C365.47955322265625 733.7529296875 366.03851318359375 733.569091796875 366.5918273925781 733.406982421875L369.97113037109375 732.2996215820312C370.37139892578125 732.1327514648438 370.78179931640625 731.97314453125 371.2025146484375 731.8211669921875L376.869140625 729.7987670898438L380.8786926269531 728.1765747070312C380.9343566894531 728.1493530273438 380.9902648925781 728.122314453125 381.0463562011719 728.0953369140625L385.6588134765625 725.8947143554688L390.3483581542969 723.1686401367188L395.2723388671875 719.7333374023438C395.3367004394531 719.6890869140625 395.4010925292969 719.6452026367188 395.4654846191406 719.6017456054688L396.2030029296875 719.0299072265625C397.7016296386719 708.0384521484375 407.6996765136719 698.1196899414062 419.7956237792969 699.9192504882812C422.36895751953125 700.1629028320312 424.95672607421875 700.9395141601562 427.4466552734375 702.3470458984375C429.48126220703125 703.3671264648438 431.39532470703125 704.7901000976562 433.101318359375 706.6583251953125C435.47906494140625 708.9802856445312 437.0896911621094 711.595703125 438.0378723144531 714.331298828125C438.5084228515625 715.476806640625 438.86016845703125 716.6245727539062 439.1020812988281 717.7669067382812C439.3805847167969 718.9140625 439.5751647949219 720.1248168945312 439.6763916015625 721.3987426757812C439.9678039550781 723.7411499023438 439.9085388183594 725.9346923828125 439.5556335449219 727.966796875C439.5371398925781 728.0861206054688 439.5177001953125 728.205810546875 439.49725341796875 728.3258056640625C439.35894775390625 729.5167846679688 439.1420593261719 730.6488647460938 438.8541564941406 731.72216796875C438.4416809082031 733.71875 437.69964599609375 735.7470703125 436.5807189941406 737.7715454101562C435.3409118652344 740.375244140625 433.74871826171875 742.5023803710938 431.9161682128906 744.1878051757812C431.1177978515625 745.0784912109375 430.2895812988281 745.8761596679688 429.43756103515625 746.58544921875C429.03485107421875 746.962158203125 428.6124572753906 747.3333129882812 428.1698913574219 747.6983642578125L424.7827453613281 750.4927368164062C424.2196350097656 750.9577026367188 423.6529846191406 751.3887329101562 423.08380126953125 751.7869262695312L421.36785888671875 753.0806274414062C420.73101806640625 753.6181030273438 420.04925537109375 754.1392211914062 419.3210144042969 754.6419677734375L414.39349365234375 758.0214233398438C414.233154296875 758.1341552734375 414.0704345703125 758.2457275390625 413.9053039550781 758.356201171875L413.7957458496094 758.4313354492188C412.8583068847656 759.0784912109375 411.9196472167969 759.642822265625 410.9829406738281 760.1288452148438L407.8978271484375 761.9474487304688C406.9690856933594 762.5589599609375 405.9635314941406 763.1292724609375 404.8782958984375 763.6524658203125L404.8621520996094 763.6602172851562C404.6825256347656 763.7500610351562 404.5029602050781 763.8369140625 404.32366943359375 763.921142578125L399.4004211425781 766.3064575195312C398.346435546875 766.8128662109375 397.30462646484375 767.2328491210938 396.2776184082031 767.5718383789062L394.6755065917969 768.2487182617188C393.8008117675781 768.6847534179688 392.8712158203125 769.0830688476562 391.88519287109375 769.4395141601562L386.56170654296875 771.3215942382812C386.1119079589844 771.5011596679688 385.6495361328125 771.6713256835938 385.1744384765625 771.8317260742188L380.02984619140625 773.5292358398438C379.8485107421875 773.5999145507812 379.6651916503906 773.669189453125 379.4798278808594 773.7369384765625L372.93841552734375 776.129150390625C372.2657165527344 776.3743286132812 371.6007385253906 776.5877075195312 370.9439392089844 776.7706298828125L369.18359375 777.3547973632812C368.7398681640625 777.5340576171875 368.2838439941406 777.704345703125 367.81536865234375 777.8650512695312L361.4433288574219 780.0243530273438C360.4480285644531 780.3666381835938 359.47076416015625 780.6404418945312 358.5129699707031 780.8500366210938L355.1712951660156 781.7730712890625C354.7071838378906 781.9147338867188 354.2312316894531 782.04541015625 353.7436218261719 782.1646728515625C353.04345703125 782.3468627929688 352.3541564941406 782.4970703125 351.67608642578125 782.6165771484375L347.1326904296875 783.580810546875C347.0143127441406 783.60595703125 346.8962707519531 783.6301879882812 346.7785949707031 783.6536254882812L344.5041809082031 784.2354736328125C344.0979309082031 784.35693359375 343.68280029296875 784.4705200195312 343.2586364746094 784.5758056640625L336.8019104003906 786.142333984375C335.7209777832031 786.4057006835938 334.66705322265625 786.5950317382812 333.6413879394531 786.7152709960938L329.4349060058594 787.4760131835938C328.9365234375 787.5633544921875 328.44476318359375 787.6357421875 327.95965576171875 787.6935424804688L326.7131042480469 787.922607421875C325.6912841796875 788.1853637695312 324.6158752441406 788.3911743164062 323.4862365722656 788.5344848632812L318.5196228027344 789.1602172851562C318.3836364746094 789.1786499023438 318.246826171875 789.1961669921875 318.1092529296875 789.2127075195312L317.99615478515625 789.22607421875C317.63140869140625 789.27099609375 317.2705383300781 789.30810546875 316.9135437011719 789.337646484375L310.8096618652344 789.9461669921875L306.00750732421875 790.5601806640625C305.719482421875 790.60888671875 305.427734375 790.6535034179688 305.1322021484375 790.6937866210938L297.9345397949219 791.6887817382812C297.1897888183594 791.7880859375 296.4607849121094 791.85498046875 295.7478332519531 791.8909912109375L292.6421203613281 792.2603759765625C291.53558349609375 792.3815307617188 290.46551513671875 792.4324951171875 289.4324645996094 792.4182739257812L285.57525634765625 792.5740966796875L284.6990966796875 792.6736450195312C284.48388671875 792.7075805664062 284.2666015625 792.7391967773438 284.0472717285156 792.7684326171875L281.59136962890625 793.0631713867188L278.41619873046875 793.5784912109375L278.33148193359375 793.5940551757812L275.1227111816406 794.1654663085938C274.73895263671875 794.2575073242188 274.3478698730469 794.3423461914062 273.9493713378906 794.419677734375L268.9283142089844 795.3578491210938C268.6237487792969 795.4307250976562 268.3145751953125 795.4990844726562 268.000732421875 795.5628051757812L264.2178955078125 796.2928466796875C262.9466247558594 796.6463012695312 261.5899963378906 796.9077758789062 260.14678955078125 797.0658569335938L254.9401397705078 797.6243286132812L254.85440063476562 797.637451171875L251.40113830566406 798.10595703125C251.19923400878906 798.142333984375 250.99546813964844 798.1766357421875 250.7898406982422 798.208984375L245.17990112304688 799.0346069335938C244.73561096191406 799.1044311523438 244.29673767089844 799.1625366210938 243.8633575439453 799.209228515625L241.5505828857422 799.524169921875C240.94020080566406 799.6333618164062 240.31329345703125 799.7191772460938 239.66993713378906 799.7802734375L239.5487823486328 799.7967529296875C237.2369384765625 800.0831298828125 235.08033752441406 800.0593872070312 233.0848388671875 799.7728881835938C232.05178833007812 799.7911987304688 230.98141479492188 799.7444458007812 229.87428283691406 799.6273803710938L229.67567443847656 799.6052856445312C229.49850463867188 799.58740234375 229.32261657714844 799.5679321289062 229.14801025390625 799.5466918945312L226.8258514404297 799.2886352539062C225.9185333251953 799.1920776367188 225.0452423095703 799.0545654296875 224.20567321777344 798.8788452148438L223.70921325683594 798.8090209960938C222.75921630859375 798.7211303710938 221.7837371826172 798.5744018554688 220.78367614746094 798.3648681640625C220.0302276611328 798.2203369140625 219.30311584472656 798.0472412109375 218.60227966308594 797.847412109375L218.3232879638672 797.7801513671875C217.18685913085938 797.6048583984375 216.01927185058594 797.3409423828125 214.82269287109375 796.981201171875L210.6946258544922 795.732177734375C209.70596313476562 795.4325561523438 208.76983642578125 795.0897216796875 207.88502502441406 794.7075805664062L206.14315795898438 794.0809326171875C205.8650665283203 793.98046875 205.5914764404297 793.876708984375 205.3223419189453 793.7697143554688L204.30477905273438 793.419921875C203.6063690185547 793.21044921875 202.8993682861328 792.965576171875 202.1844482421875 792.6837768554688L200.4462127685547 791.9825439453125C199.1940460205078 791.580078125 197.92343139648438 791.0524291992188 196.6401824951172 790.3892211914062C195.9697265625 790.067138671875 195.33053588867188 789.7244262695312 194.72195434570312 789.3626708984375L192.42526245117188 788.1322631835938C190.95448303222656 787.320068359375 189.64369201660156 786.4248046875 188.4842529296875 785.4620971679688L188.27601623535156 785.3167114257812C188.0046844482422 785.1275634765625 187.7398681640625 784.9358520507812 187.4814910888672 784.74169921875L186.7915802001953 784.2650756835938C185.90122985839844 783.7249145507812 185.01783752441406 783.1060180664062 184.14535522460938 782.4039916992188C182.8961181640625 781.4545288085938 181.79913330078125 780.44775390625 180.845458984375 779.3967895507812C180.84439086914062 779.394775390625 180.84275817871094 779.3933715820312 180.8411102294922 779.3919677734375C180.70115661621094 779.2732543945312 180.5614776611328 779.1524047851562 180.42210388183594 779.0293579101562L178.54220581054688 777.3975219726562C178.22918701171875 777.1544799804688 177.91725158691406 776.901123046875 177.60655212402344 776.63720703125L175.29147338867188 774.5774536132812C175.18096923828125 774.4890747070312 175.07058715820312 774.3994750976562 174.96034240722656 774.3085327148438L171.74256896972656 771.662353515625C171.5636444091797 771.515380859375 171.38800048828125 771.3673706054688 171.21560668945312 771.2184448242188L169.209228515625 769.559326171875C168.90599060058594 769.3201293945312 168.60426330566406 769.0707397460938 168.3042449951172 768.8109741210938L168.270751953125 768.7832641601562C167.49398803710938 768.1314086914062 166.78048706054688 767.4610595703125 166.12774658203125 766.7752075195312L164.60337829589844 765.3175048828125L163.3227996826172 764.3126220703125C162.93138122558594 764.0263061523438 162.541259765625 763.7242431640625 162.15274047851562 763.4061889648438L158.02467346191406 760.01904296875C156.7843475341797 758.9998779296875 155.7008056640625 757.9329833984375 154.76426696777344 756.8303833007812L152.2241973876953 754.3032836914062C151.77723693847656 753.8505859375 151.3556671142578 753.39306640625 150.95880126953125 752.9312133789062L147.8420867919922 749.7518310546875C147.3651123046875 749.2546997070312 146.91799926757812 748.7521362304688 146.49990844726562 748.2451171875L146.13087463378906 747.841796875C145.50390625 747.2648315429688 144.88812255859375 746.6390380859375 144.2855987548828 745.9624633789062L140.24220275878906 741.4110107421875C139.64199829101562 740.737060546875 139.09332275390625 740.0557861328125 138.59413146972656 739.369140625L136.7845458984375 737.2279663085938C136.26669311523438 736.670654296875 135.76043701171875 736.0755004882812 135.26734924316406 735.441162109375L132.4869384765625 731.7643432617188C131.93678283691406 731.1375732421875 131.40219116210938 730.4654541015625 130.88523864746094 729.7465209960938L128.1543731689453 725.851318359375C127.91101837158203 725.512451171875 127.67879486083984 725.1731567382812 127.45747375488281 724.8336791992188L124.3650131225586 720.4107666015625C124.29446411132812 720.30908203125 124.22489166259766 720.2074584960938 124.15628814697266 720.1057739257812L121.06255340576172 715.9439697265625C120.48735046386719 715.1481323242188 119.97357177734375 714.3499755859375 119.51831817626953 713.5515747070312L117.72972106933594 710.7654418945312C117.39110565185547 710.276611328125 117.062255859375 709.7660522460938 116.74395751953125 709.2332153320312L115.38715362548828 706.9054565429688C115.06116485595703 706.4383544921875 114.7440414428711 705.9512939453125 114.43647003173828 705.44384765625L111.6256332397461 700.746826171875L109.9227066040039 698.4825439453125C109.1921615600586 697.634033203125 108.49322509765625 696.70263671875 107.83155822753906 695.6846313476562L105.74491882324219 692.4755859375C105.1382827758789 691.6509399414062 104.56220245361328 690.759765625 104.02102661132812 689.7994995117188L101.70813751220703 685.7139282226562C101.36636352539062 685.151611328125 101.03852081298828 684.5632934570312 100.72573852539062 683.9483642578125C100.56097412109375 683.6334228515625 100.40438079833984 683.3190307617188 100.25591278076172 683.00537109375L97.31026458740234 677.0765991210938C97.08122253417969 676.6192626953125 96.86876678466797 676.1640014648438 96.67244720458984 675.7109985351562L94.13069152832031 670.328369140625L91.80159759521484 666.1004028320312L89.71038055419922 663.2528076171875C89.672607421875 663.2018432617188 89.63509368896484 663.1508178710938 89.59783172607422 663.099853515625L86.33544158935547 658.9332275390625L86.29378509521484 658.8800048828125L86.15388488769531 658.7013549804688C85.83422088623047 658.2920532226562 85.53174591064453 657.8814086914062 85.24604034423828 657.4697875976562L82.36113739013672 653.527099609375C82.19068908691406 653.3023681640625 82.02218627929688 653.0726928710938 81.85569763183594 652.8379516601562C81.82491302490234 652.7945556640625 81.794189453125 652.7509765625 81.76354217529297 652.7072143554688C81.50552368164062 652.3435668945312 81.26005554199219 651.9791870117188 81.02709197998047 651.614501953125L77.87657928466797 646.8887329101562L77.8690185546875 646.8776245117188L76.0559310913086 644.2122192382812C75.66532135009766 643.6757202148438 75.28659057617188 643.1117553710938 74.92082214355469 642.5195922851562L74.91283416748047 642.5066528320312C74.72661590576172 642.2135620117188 74.54849243164062 641.9203491210938 74.37815856933594 641.6272583007812L72.9474105834961 639.2740478515625C72.32733917236328 638.4385986328125 71.73897552490234 637.5340576171875 71.18698120117188 636.5579833984375L68.18870544433594 631.0742797851562C68.14353942871094 630.9973754882812 68.09860229492188 630.9199829101562 68.05388641357422 630.8421630859375L65.25623321533203 626.029541015625C64.9193344116211 625.495849609375 64.59645080566406 624.9376831054688 64.2886962890625 624.3544311523438C63.65878677368164 623.2182006835938 63.137603759765625 622.0896606445312 62.71785354614258 620.97314453125L62.57489776611328 620.6522827148438C61.75828552246094 619.176513671875 61.06421661376953 617.5302124023438 60.51750564575195 615.7059326171875L60.44511413574219 615.4625854492188C60.36561584472656 615.2103271484375 60.2908935546875 614.958984375 60.22087478637695 614.708740234375L58.73896789550781 609.72705078125C58.695960998535156 609.596923828125 58.653717041015625 609.4658813476562 58.61224365234375 609.3338623046875L56.81153869628906 603.5202026367188C56.56282043457031 602.839599609375 56.33690643310547 602.1314697265625 56.135398864746094 601.395263671875L54.23013687133789 594.2188110351562C54.141632080078125 593.89453125 54.05998611450195 593.5725708007812 53.98506164550781 593.2529296875L52.74826431274414 589.0745849609375C52.54933547973633 588.362548828125 52.3835334777832 587.6613159179688 52.24939727783203 586.9713134765625L51.22465896606445 582.9723510742188C51.18124771118164 582.8340454101562 51.138702392578125 582.6947021484375 51.0970344543457 582.5543212890625L49.92166519165039 578.4691772460938C49.532344818115234 577.4146118164062 49.202144622802734 576.29296875 48.93773651123047 575.1026611328125L48.36615753173828 572.4564208984375C48.25701904296875 571.9581909179688 48.163387298583984 571.466064453125 48.08476638793945 570.97998046875L48.03786087036133 570.7620849609375C47.84410858154297 570.034912109375 47.67771530151367 569.2802124023438 47.54054260253906 568.4977416992188L47.11872863769531 565.87890625C47.06488037109375 565.5982055664062 47.01492691040039 565.3139038085938 46.968963623046875 565.02587890625L46.246089935302734 560.5079345703125L45.149810791015625 555.1890258789062L45.14805603027344 555.18212890625L44.068729400634766 550.9692993164062C43.8539924621582 550.122802734375 43.68511962890625 549.29248046875 43.55967330932617 548.47900390625L43.513771057128906 548.2655029296875C43.1307258605957 546.9905395507812 42.839027404785156 545.627197265625 42.650367736816406 544.173828125L42.017494201660156 538.8757934570312C41.9785041809082 538.63330078125 41.94246292114258 538.3882446289062 41.90943145751953 538.1405029296875L41.17525100708008 532.8134155273438C41.07041549682617 532.2335205078125 40.983192443847656 531.6383056640625 40.914459228515625 531.0275268554688L40.47600173950195 526.6712646484375C40.22292709350586 525.2630004882812 40.088844299316406 523.7655029296875 40.088844299316406 522.1786499023438V446.26446533203125L40.013545989990234 441.6335754394531C40.008460998535156 441.4426574707031 40.00532531738281 441.2503662109375 40.00416564941406 441.0567626953125V429.47698974609375C40.0040168762207 429.44873046875 40.00391387939453 429.4205017089844 40.00416564941406 429.3923034667969V423.5879821777344C40.002891540527344 423.4348449707031 40.00288772583008 423.2809143066406 40.00416564941406 423.1260986328125V419.28173828125C39.99863052368164 418.9649658203125 39.99858856201172 418.64459228515625 40.00416564941406 418.3205871582031L40.088844299316406 412.5412902832031C40.10445022583008 411.796630859375 40.14899444580078 411.0721435546875 40.2209358215332 410.3678283691406L40.34288024902344 406.0845642089844C40.37797164916992 405.29229736328125 40.445438385009766 404.5237121582031 40.543399810791016 403.77874755859375L40.82978057861328 400.53814697265625C40.910640716552734 399.657958984375 41.030303955078125 398.8089904785156 41.18618392944336 397.9909973144531L41.591888427734375 394.99169921875C41.72257614135742 394.0885009765625 41.892852783203125 393.2208251953125 42.099884033203125 392.3882141113281L42.819725036621094 388.78900146484375C43.008644104003906 387.8628845214844 43.237953186035156 386.9771728515625 43.504512786865234 386.13134765625L44.22178649902344 383.32745361328125C44.341793060302734 382.7904968261719 44.481075286865234 382.24700927734375 44.64030838012695 381.69720458984375L45.94710922241211 377.0704040527344C46.00224685668945 376.849609375 46.06058883666992 376.62774658203125 46.1221809387207 376.4048156738281L47.050987243652344 373.12664794921875C47.106258392333984 372.9216003417969 47.16444396972656 372.71575927734375 47.22553634643555 372.50921630859375C47.43318557739258 371.7687072753906 47.665550231933594 371.0569152832031 47.920963287353516 370.37335205078125L49.36112976074219 366.0528564453125C49.700626373291016 365.0541076660156 50.083229064941406 364.1114501953125 50.504783630371094 363.2234802246094L51.5439453125 360.68939208984375C51.791072845458984 359.95196533203125 52.0789680480957 359.2062072753906 52.409549713134766 358.4529724121094L55.14043045043945 352.25030517578125C55.182289123535156 352.1549377441406 55.22452163696289 352.0601501464844 55.26712417602539 351.9659423828125L56.02630615234375 349.92437744140625C56.06188201904297 349.8178405761719 56.098243713378906 349.7110595703125 56.135398864746094 349.6040954589844L57.74966812133789 345.1566162109375C57.998619079589844 344.3571472167969 58.295379638671875 343.547607421875 58.64241027832031 342.72906494140625C58.80137252807617 342.3309326171875 58.96757888793945 341.9426574707031 59.14072036743164 341.56414794921875L61.11025619506836 336.9446716308594C61.14237976074219 336.8720703125 61.17472457885742 336.7998352050781 61.207279205322266 336.7279052734375L62.036930084228516 334.526123046875C62.05248260498047 334.478515625 62.06819152832031 334.43084716796875 62.08405685424805 334.3831481933594L63.75645446777344 329.2601013183594C63.89484786987305 328.84393310546875 64.04077911376953 328.4374694824219 64.19396209716797 328.04058837890625L65.77336883544922 323.33245849609375C65.83000946044922 323.1573486328125 65.88890838623047 322.9817199707031 65.95008850097656 322.8056335449219L65.97926330566406 322.71868896484375C66.32540130615234 321.6711730957031 66.719482421875 320.68499755859375 67.15669250488281 319.7585754394531L68.83838653564453 315.65521240234375C68.92570495605469 315.4208068847656 69.01701354980469 315.185546875 69.11236572265625 314.949462890625L71.69505310058594 308.5774230957031C71.89483642578125 308.0843505859375 72.1048355102539 307.60626220703125 72.32452392578125 307.1429138183594L73.75926971435547 303.813232421875C73.78361511230469 303.7501220703125 73.80825805664062 303.68695068359375 73.83318328857422 303.62371826171875L76.127685546875 297.79534912109375C76.38911437988281 297.01611328125 76.69611358642578 296.22772216796875 77.05096435546875 295.43109130859375L79.12557983398438 290.7314453125C79.27648162841797 290.3927001953125 79.43206787109375 290.06134033203125 79.5921630859375 289.7373352050781L80.6860580444336 287.3749694824219C80.89363861083984 286.8667907714844 81.12126159667969 286.35546875 81.36956024169922 285.8412780761719L83.33833312988281 281.71319580078125C83.720947265625 280.91949462890625 84.12895202636719 280.1685791015625 84.56002044677734 279.45928955078125L85.98453521728516 276.759521484375C86.22440338134766 276.3138732910156 86.47193145751953 275.88262939453125 86.72669219970703 275.4655456542969L89.05940246582031 271.2305908203125L91.12291717529297 266.68463134765625C91.38609313964844 266.0187072753906 91.68392944335938 265.34747314453125 92.01786804199219 264.6716613769531L94.96808624267578 258.7118225097656C94.97959899902344 258.6873474121094 94.99116516113281 258.662841796875 95.00277709960938 258.6383361816406L96.55923461914062 255.4043731689453C96.61766052246094 255.2688751220703 96.6774673461914 255.1331329345703 96.73868560791016 254.99716186523438L98.7008285522461 250.72560119628906C98.73768615722656 250.63243103027344 98.77517700195312 250.53912353515625 98.81330871582031 250.44569396972656L100.5083236694336 246.32479858398438C100.83499145507812 245.3946990966797 101.22834014892578 244.45314025878906 101.69237518310547 243.5020751953125L104.23833465576172 238.42930603027344C104.41692352294922 238.05191040039062 104.60710906982422 237.6732635498047 104.80917358398438 237.2935333251953C104.97898864746094 236.9660186767578 105.15320587158203 236.64620971679688 105.3316421508789 236.33401489257812L106.9212646484375 233.4253387451172C107.26370239257812 232.79429626464844 107.62150573730469 232.19236755371094 107.99345397949219 231.61886596679688L109.96942138671875 228.3074188232422C110.07904052734375 228.1083526611328 110.19202423095703 227.90904235839844 110.30839538574219 227.7095489501953L113.03927612304688 222.98873901367188C113.70207977294922 221.8524932861328 114.41350555419922 220.81553649902344 115.16613006591797 219.87351989746094C115.57671356201172 219.25816345214844 116.02456665039062 218.64495849609375 116.51109313964844 218.03504943847656L118.07763671875 216.04510498046875C118.30818176269531 215.75608825683594 118.54137420654297 215.4753875732422 118.77705383300781 215.20291137695312C119.02535247802734 214.8477783203125 119.28607940673828 214.4933624267578 119.55950927734375 214.1398468017578L122.71378326416016 210.09645080566406C123.0335693359375 209.68658447265625 123.35879516601562 209.29307556152344 123.68905639648438 208.9156036376953L125.05406951904297 207.21157836914062C125.71916198730469 206.2828826904297 126.47565460205078 205.36582946777344 127.32875061035156 204.46533203125L127.37773132324219 204.41444396972656C127.62582397460938 204.1455078125 127.87644958496094 203.88525390625 128.1294403076172 203.63351440429688L130.4551239013672 201.21739196777344C130.52024841308594 201.14268493652344 130.58599853515625 201.06805419921875 130.65237426757812 200.99351501464844L133.1122589111328 198.3171844482422L135.95176696777344 194.91339111328125L138.23638916015625 191.79498291015625L138.89657592773438 190.78269958496094C139.29930114746094 190.09841918945312 139.7466583251953 189.41592407226562 140.2405548095703 188.73680114746094C140.78045654296875 187.9535675048828 141.3437042236328 187.22515869140625 141.92738342285156 186.5497283935547L142.08612060546875 186.34584045410156C142.56488037109375 185.6656036376953 143.0933380126953 184.99270629882812 143.67356872558594 184.32925415039062C144.6506805419922 183.1575927734375 145.67306518554688 182.1302490234375 146.7298126220703 181.23855590820312L146.81362915039062 181.15711975097656C147.21678161621094 180.70785522460938 147.64407348632812 180.26324462890625 148.09613037109375 179.8239288330078L150.91168212890625 177.09304809570312C151.25482177734375 176.758544921875 151.60067749023438 176.43853759765625 151.9489288330078 176.13272094726562L152.93870544433594 175.20651245117188C153.13999938964844 175.00856018066406 153.3463592529297 174.811767578125 153.55787658691406 174.6162109375L156.03472900390625 172.3087158203125C156.46237182617188 171.9117431640625 156.89349365234375 171.5363006591797 157.3275909423828 171.1818389892578L159.42185974121094 169.23912048339844C159.62844848632812 169.0505828857422 159.8358154296875 168.8669891357422 160.0438690185547 168.68829345703125L162.82308959960938 166.21607971191406C162.9846649169922 166.06570434570312 163.14932250976562 165.91610717773438 163.3170623779297 165.76731872558594L167.02174377441406 162.46485900878906C167.228271484375 162.2816619873047 167.43545532226562 162.103271484375 167.6432342529297 161.92962646484375C168.68560791015625 160.83981323242188 169.88629150390625 159.7996368408203 171.2556610107422 158.8236846923828L171.38954162597656 158.72930908203125C171.69485473632812 158.50352478027344 172.0012969970703 158.28759765625 172.30870056152344 158.0813751220703L175.12969970703125 156.09280395507812C175.63458251953125 155.7334442138672 176.14019775390625 155.3986053466797 176.6460723876953 155.08755493164062L179.76583862304688 152.95970153808594C179.911376953125 152.86231994628906 180.0569305419922 152.7668914794922 180.2024688720703 152.67340087890625L181.31651306152344 151.89120483398438C182.33181762695312 151.03749084472656 183.4641571044922 150.23300170898438 184.7195281982422 149.48789978027344L189.3556671142578 146.75701904296875C190.02581787109375 146.3613739013672 190.6939239501953 146.0044708251953 191.3590850830078 145.68479919433594L194.30712890625 144.0001983642578L197.82838439941406 141.58102416992188C198.536376953125 141.0259246826172 199.2962646484375 140.49220275878906 200.10983276367188 139.9827423095703L204.1557159423828 137.45594787597656C204.9477996826172 136.88555908203125 205.80010986328125 136.34347534179688 206.71473693847656 135.83351135253906L210.779296875 133.61070251464844C211.3368377685547 133.3017578125 211.89230346679688 133.0187225341797 212.4452362060547 132.7607421875L214.494140625 131.6501922607422C215.43658447265625 131.07398986816406 216.45347595214844 130.5409393310547 217.54737854003906 130.0569305419922L217.55352783203125 130.05409240722656C217.82484436035156 129.92872619628906 218.095458984375 129.80931091308594 218.36534118652344 129.6957550048828L221.529052734375 128.29879760742188C222.06126403808594 128.0451202392578 222.61302185058594 127.80436706542969 223.1846923828125 127.57736206054688L225.98731994628906 126.48563385009766C226.39041137695312 126.31285095214844 226.803955078125 126.14741516113281 227.2280731201172 125.98963928222656L229.94638061523438 125.0097885131836C230.30247497558594 124.86486053466797 230.66653442382812 124.72566986083984 231.03860473632812 124.59244537353516L235.1666717529297 123.1105728149414C235.28404235839844 123.06830596923828 235.40118408203125 123.0270004272461 235.51808166503906 122.98664855957031L237.3858642578125 122.25978088378906C238.12144470214844 121.93441009521484 238.89329528808594 121.63738250732422 239.70208740234375 121.37115478515625C240.70843505859375 121.01371002197266 241.69798278808594 120.72899627685547 242.6689453125 120.51248168945312L242.94802856445312 120.43440246582031C243.16702270507812 120.35753631591797 243.3887939453125 120.2828369140625 243.61334228515625 120.21034240722656L247.0851593017578 119.13069152832031C247.3638916015625 119.04063415527344 247.64114379882812 118.95584106445312 247.91688537597656 118.87623596191406L249.6466827392578 118.3050765991211C250.56570434570312 118.02352142333984 251.46780395507812 117.79869079589844 252.35202026367188 117.62737274169922L252.9491424560547 117.47946166992188C253.34555053710938 117.37889862060547 253.73841857910156 117.28839874267578 254.12765502929688 117.20770263671875L258.0721740722656 116.23046112060547C258.3869323730469 116.15885162353516 258.6993103027344 116.09342956542969 259.00933837890625 116.03408813476562L262.221435546875 115.1719741821289L265.2181701660156 114.34577178955078C265.8951721191406 114.12943267822266 266.5979309082031 113.93779754638672 267.3266296386719 113.7726058959961C268.3047790527344 113.52793884277344 269.2615051269531 113.34588623046875 270.1957702636719 113.22256469726562L272.7215576171875 112.7586441040039C272.99285888671875 112.70942687988281 273.26220703125 112.6646728515625 273.52960205078125 112.62429809570312L277.2518310546875 111.93302917480469C278.2768249511719 111.75402069091797 279.2740173339844 111.63805389404297 280.24261474609375 111.58096313476562L281.0690002441406 111.48871612548828C282.2972106933594 111.2704849243164 283.59332275390625 111.14019012451172 284.95758056640625 111.10741424560547L285.42242431640625 111.0997314453125C285.56439208984375 111.09618377685547 285.7057189941406 111.0938491821289 285.84637451171875 111.09272003173828L288.7526550292969 111.04468536376953C289.605224609375 110.99419403076172 290.48541259765625 110.9859390258789 291.39312744140625 111.02273559570312L291.4454345703125 111.02464294433594C291.6212463378906 111.02930450439453 291.7959899902344 111.03569030761719 291.96954345703125 111.04376220703125L296.6487121582031 111.21443176269531C297.4430847167969 111.19752502441406 298.25982666015625 111.21755981445312 299.0988464355469 111.27677154541016L304.05145263671875 111.67298126220703C304.8294982910156 111.69428253173828 305.6273193359375 111.75204467773438 306.4447021484375 111.84835052490234L311.0852966308594 112.44928741455078C311.86334228515625 112.5140151977539 312.65936279296875 112.61643981933594 313.4730224609375 112.7586441040039L317.7069396972656 113.43607330322266C318.5992126464844 113.59249114990234 319.45538330078125 113.78690338134766 320.27593994140625 114.01654815673828L322.6864013671875 114.57125854492188C323.3038024902344 114.68958282470703 323.9303894042969 114.83302307128906 324.5658874511719 115.00262451171875L327.685791015625 115.82476043701172L327.698974609375 115.82823181152344L327.924072265625 115.8893051147461L330.42987060546875 116.56916809082031C330.8563232421875 116.68297576904297 331.2734680175781 116.80499267578125 331.68133544921875 116.93489074707031C332.4927673339844 117.12617492675781 333.3178405761719 117.36333465576172 334.15570068359375 117.64881896972656L336.632568359375 118.55911254882812C337.15869140625 118.73837280273438 337.6690979003906 118.92961883544922 338.1640319824219 119.13224029541016L341.3533630371094 120.2950210571289C342.1549072265625 120.60122680664062 342.9181213378906 120.93464660644531 343.6438293457031 121.29305267333984L345.6118469238281 122.14263153076172L347.1620178222656 122.7142105102539C347.9898376464844 122.97379302978516 348.8267517089844 123.28683471679688 349.67120361328125 123.65623474121094C350.6338195800781 124.04886627197266 351.53857421875 124.48248291015625 352.3870544433594 124.952880859375C353.1155700683594 125.28241729736328 353.848388671875 125.65556335449219 354.5843811035156 126.0743179321289L357.65826416015625 127.84771728515625L359.7920837402344 128.80519104003906C360.534423828125 129.15939331054688 361.2395935058594 129.53573608398438 361.9085388183594 129.93234252929688L362.71270751953125 130.34376525878906L363.5205383300781 130.66807556152344L363.9164733886719 130.7819061279297C365.5867614746094 130.95018005371094 367.32635498046875 131.31582641601562 369.1269836425781 131.9033203125C370.1106872558594 132.15809631347656 371.1058044433594 132.4908447265625 372.109130859375 132.9068603515625C373.0137023925781 133.24346923828125 373.86981201171875 133.61685180664062 374.6785888671875 134.02357482910156C376.06329345703125 134.68777465820312 377.4391174316406 135.53123474121094 378.7918701171875 136.56985473632812C380.1470031738281 137.52952575683594 381.33038330078125 138.5670623779297 382.3522033691406 139.6649932861328L382.56036376953125 139.85107421875L383.7772521972656 140.80836486816406C383.9911804199219 140.98049926757812 384.20050048828125 141.15408325195312 384.4053039550781 141.32904052734375L384.4950866699219 141.39694213867188C385.0523986816406 141.7060089111328 385.6084289550781 142.0445556640625 386.1622314453125 142.4136505126953C389.0040588378906 143.18344116210938 391.770263671875 144.6453094482422 394.2870178222656 146.9217071533203C394.4353942871094 147.04666137695312 394.5812683105469 147.17327880859375 394.724609375 147.30152893066406C397.2081298828125 149.2613525390625 399.2445068359375 151.80517578125 400.54730224609375 154.89476013183594C414.09686279296875 174.2605743408203 387.71771240234375 199.28138732910156 368.874755859375 182.49241638183594C368.6026611328125 182.2862548828125 368.33343505859375 182.0713348388672 368.0673828125 181.84751892089844C365.2738342285156 180.6183319091797 362.9830017089844 178.85646057128906 361.1861877441406 176.74819946289062C361.0914611816406 176.68057250976562 360.9975891113281 176.612548828125 360.904541015625 176.54417419433594L360.046142578125 175.94989013671875C359.4509582519531 175.53314208984375 358.88714599609375 175.10418701171875 358.35394287109375 174.6641845703125L357.71746826171875 174.2139892578125C357.21337890625 173.83187866210938 356.7333984375 173.44139099121094 356.27703857421875 173.04324340820312L355.6640319824219 172.56275939941406C355.57244873046875 172.48907470703125 355.4817199707031 172.41513061523438 355.3918151855469 172.34091186523438C354.0246887207031 172.07406616210938 352.74517822265625 171.7152557373047 351.5515441894531 171.2751007080078L350.2869567871094 170.91152954101562C349.1441955566406 170.5726318359375 348.07110595703125 170.1756134033203 347.0658874511719 169.72657775878906C345.8894958496094 169.32325744628906 344.6965637207031 168.8107452392578 343.49151611328125 168.18064880371094L341.5732727050781 167.1248779296875L341.5227355957031 167.1009979248047L338.2837829589844 165.53445434570312C337.216064453125 165.0241241455078 336.22515869140625 164.46804809570312 335.30828857421875 163.87188720703125L334.0593566894531 163.15936279296875L333.0072326660156 162.63751220703125L331.51483154296875 162.07785034179688C330.7733459472656 161.8321533203125 330.0233154296875 161.5454864501953 329.2655334472656 161.21585083007812L325.30682373046875 159.47994995117188L325.3032531738281 159.4783935546875L322.4180908203125 158.4041290283203L320.43780517578125 157.74403381347656C320.4115295410156 157.73501586914062 320.38531494140625 157.72598266601562 320.359130859375 157.71690368652344C320.0836486816406 157.65330505371094 319.80645751953125 157.58473205566406 319.52752685546875 157.51116943359375L316.796630859375 156.77023315429688L316.71588134765625 156.74855041503906L313.6723327636719 155.93148803710938L310.1874084472656 155.1407928466797L306.7373352050781 154.53399658203125L303.080078125 154.07846069335938C302.85546875 154.0682830810547 302.62921142578125 154.05526733398438 302.40130615234375 154.0393524169922L297.3018798828125 153.63275146484375C297.09783935546875 153.6294708251953 296.89239501953125 153.62388610839844 296.6855163574219 153.615966796875ZM109.05939483642578 387.1377868652344 108.98487854003906 383.35595703125Q108.978759765625 383.1835632324219 108.97471618652344 383.00970458984375L108.89826202392578 379.3589172363281C108.89517211914062 379.2776794433594 108.8924331665039 379.19622802734375 108.8900375366211 379.114501953125L108.75691986083984 373.99908447265625C108.75128173828125 373.8911437988281 108.74625396728516 373.7827453613281 108.7418441772461 373.6739196777344L108.52265930175781 368.3219909667969C108.50940704345703 368.1454772949219 108.49778747558594 367.9677734375 108.4878158569336 367.7887878417969L108.11669158935547 360.3292236328125C108.09748840332031 360.1427307128906 108.0800552368164 359.954833984375 108.06442260742188 359.7655029296875L107.40816497802734 351.7422180175781C107.36918640136719 351.2491760253906 107.34385681152344 350.7637634277344 107.33172607421875 350.2859191894531L106.75641632080078 344.1788024902344C106.72329711914062 343.9224853515625 106.69354248046875 343.6633605957031 106.66722869873047 343.4013977050781L106.01097106933594 337.1140441894531C105.99504089355469 336.9549865722656 105.98055267333984 336.7967224121094 105.96748352050781 336.6391906738281L105.91326904296875 336.7673645019531L103.93634796142578 342.66046142578125L102.66902160644531 346.5924072265625C102.48558807373047 347.22906494140625 102.2733383178711 347.87322998046875 102.03108215332031 348.5244445800781L100.3798599243164 352.90655517578125C100.03450775146484 353.8269958496094 99.65325164794922 354.6974182128906 99.23941040039062 355.5190734863281L97.81555938720703 358.858642578125L96.16710662841797 363.5760192871094C95.96250915527344 364.1583557128906 95.7432861328125 364.72125244140625 95.51029205322266 365.2650451660156L94.5950927734375 367.6117248535156C94.42532348632812 368.08203125 94.23896026611328 368.55560302734375 94.03551483154297 369.0321960449219C93.88426971435547 369.3986511230469 93.72718811035156 369.7566833496094 93.56449890136719 370.10638427734375L91.36290740966797 375.1069030761719L89.10206604003906 380.6689453125L87.8742904663086 384.295166015625L86.97949981689453 387.6458435058594C86.88701629638672 387.9806213378906 86.78947448730469 388.3095703125 86.68704223632812 388.63275146484375L85.32827758789062 393.4251708984375L85.31805419921875 393.46038818359375L84.31847381591797 397.3095397949219L83.3720703125 402.0213928222656L82.93611145019531 405.4283142089844C82.9187240600586 405.5478515625 82.90065002441406 405.6667785644531 82.88188171386719 405.7850646972656L82.6764907836914 408.0340576171875L82.42803955078125 413.7691345214844C82.42488861083984 413.8468322753906 82.42142486572266 413.9243469238281 82.41764831542969 414.0015869140625L82.3433609008789 419.1462097167969V440.88739013671875L82.41808319091797 445.50146484375C82.42362976074219 445.70489501953125 82.42695617675781 445.9098205566406 82.42803955078125 446.11627197265625V520.6861572265625L83.02079010009766 526.3914184570312C83.03837585449219 526.548828125 83.05453491210938 526.7055053710938 83.06928253173828 526.8614501953125L83.84640502929688 532.4459228515625C83.89625549316406 532.8146362304688 83.93817901611328 533.1795043945312 83.97237396240234 533.5404663085938L84.5079116821289 537.5638427734375L85.32827758789062 541.3794555664062C85.36812591552734 541.5697631835938 85.40572357177734 541.7591552734375 85.44110870361328 541.9476928710938L85.89627075195312 543.703369140625C86.19657135009766 544.616943359375 86.45315551757812 545.5779418945312 86.66195678710938 546.587158203125L87.34748077392578 550.220458984375C87.60267639160156 551.13818359375 87.81298828125 552.1002807617188 87.97447204589844 553.107421875L88.80008697509766 558.3998413085938C88.82610321044922 558.5653686523438 88.8504867553711 558.7301025390625 88.8732681274414 558.8941040039062L89.30815887451172 561.1306762695312C89.3200454711914 561.199951171875 89.33164978027344 561.2691040039062 89.34296417236328 561.338134765625L89.79505920410156 563.4381713867188C89.89269256591797 563.8981323242188 89.97723388671875 564.3528442382812 90.049072265625 564.8023071289062L91.78500366210938 570.6358642578125C92.01293182373047 571.4126586914062 92.20084381103516 572.1769409179688 92.35066223144531 572.9281616210938L93.69026184082031 578.1722412109375C93.7100830078125 578.2501220703125 93.72950744628906 578.327880859375 93.74855041503906 578.405517578125L94.64183044433594 581.6468505859375C94.80164337158203 582.126708984375 94.95035552978516 582.6196899414062 95.08745574951172 583.1259155273438L96.65410614013672 588.9747314453125C96.71187591552734 589.1474609375 96.76830291748047 589.3218994140625 96.8233642578125 589.4979858398438L98.86465454101562 596.1078491210938C98.95692443847656 596.3841552734375 99.04568481445312 596.6647338867188 99.13085174560547 596.9496459960938L100.77392578125 602.47314453125L101.62100982666016 604.2969360351562L103.9045639038086 608.376708984375C104.22904968261719 608.8719482421875 104.5433349609375 609.388427734375 104.84664154052734 609.9266357421875L108.03466033935547 615.6524658203125L108.79890441894531 616.8893432617188L108.74397277832031 610.0234985351562L108.7418441772461 609.9266357421875L108.58002471923828 602.341064453125C108.57709503173828 602.2518920898438 108.5745849609375 602.1624755859375 108.57249450683594 602.0726928710938L108.4164810180664 596.0466918945312C108.41094970703125 595.9038696289062 108.406494140625 595.7603149414062 108.40313720703125 595.615966796875L108.23377990722656 589.1592407226562C108.2284164428711 588.9551391601562 108.22531127929688 588.75244140625 108.22442626953125 588.5512084960938L108.06442260742188 582.1309204101562C108.05380249023438 581.1876220703125 108.09091186523438 580.2752075195312 108.1725845336914 579.3936157226562L108.23377990722656 574.1923217773438C108.26514434814453 572.8446655273438 108.39171600341797 571.5635375976562 108.604248046875 570.3486938476562L108.97471618652344 566.154052734375V434.938720703125C108.97530364990234 434.7426452636719 108.97793579101562 434.5479431152344 108.98258209228516 434.3546142578125L109.05939483642578 428.6513671875V387.1377868652344Z" fill="black"/>
</svg>
