<svg xmlns="http://www.w3.org/2000/svg" viewBox="0 0 555 1000">
  <path d="M187.52976989746094 136.0419921875C188.860595703125 136.30023193359375 190.1060791015625 136.64488220214844 191.26817321777344 137.06610107421875C191.85536193847656 137.21820068359375 192.44900512695312 137.3964385986328 193.0487060546875 137.60183715820312C194.0053253173828 137.9122772216797 194.90940856933594 138.26539611816406 195.76217651367188 138.65713500976562L197.59141540527344 139.39585876464844C197.8834228515625 139.51502990722656 198.16998291015625 139.63787841796875 198.451171875 139.76429748535156L199.24009704589844 140.06878662109375L199.8992156982422 140.2228240966797C200.60971069335938 140.3350830078125 201.33346557617188 140.4814910888672 202.070068359375 140.66378784179688L206.0579071044922 141.70677185058594C206.3313446044922 141.77444458007812 206.6008758544922 141.8456573486328 206.86656188964844 141.9203338623047L210.11993408203125 142.7006072998047L213.58619689941406 143.26095581054688C214.273681640625 143.34681701660156 214.97433471679688 143.46453857421875 215.68775939941406 143.61569213867188C216.13255310058594 143.70294189453125 216.56773376464844 143.80029296875 216.99339294433594 143.90736389160156L221.39576721191406 144.8970489501953C222.42811584472656 145.13345336914062 223.406494140625 145.421142578125 224.3319854736328 145.75543212890625L226.34786987304688 146.3465576171875C227.2371368408203 146.55438232421875 228.14315795898438 146.81988525390625 229.064697265625 147.14659118652344L232.91465759277344 148.55001831054688C233.09109497070312 148.61175537109375 233.26806640625 148.6758270263672 233.445556640625 148.7422332763672C233.7110595703125 148.83883666992188 233.97227478027344 148.93861389160156 234.22926330566406 149.0414581298828L237.85841369628906 150.41867065429688C238.60421752929688 150.71266174316406 239.31509399414062 151.0310516357422 239.9918212890625 151.37188720703125L242.64382934570312 152.56597900390625C243.42636108398438 152.91827392578125 244.16769409179688 153.29647827148438 244.86888122558594 153.69825744628906L246.5566864013672 154.5548858642578C247.09048461914062 154.8014678955078 247.62689208984375 155.07212829589844 248.1654510498047 155.36769104003906L254.40284729003906 158.80337524414062C254.43446350097656 158.8207244873047 254.46600341796875 158.83811950683594 254.49746704101562 158.8555450439453L260.067626953125 161.6868896484375L260.09747314453125 161.70236206054688L264.53607177734375 163.59446716308594L269.2177429199219 165.33570861816406L272.75689697265625 166.49697875976562L275.71807861328125 167.2881317138672C276.699462890625 167.49169921875 277.70037841796875 167.76792907714844 278.71868896484375 168.1219024658203C279.801513671875 168.46957397460938 280.816650390625 168.87461853027344 281.7657775878906 169.33078002929688L283.4289245605469 170.0136260986328C284.20849609375 170.2779083251953 284.9973449707031 170.5895233154297 285.7943420410156 170.95095825195312L289.14898681640625 172.4937286376953C289.2508544921875 172.5376434326172 289.35284423828125 172.58236694335938 289.4549865722656 172.62789916992188L293.0770568847656 174.24539184570312C294.0204162597656 174.6022186279297 294.9718017578125 175.0349884033203 295.92828369140625 175.54856872558594C296.9319763183594 176.052978515625 297.8617858886719 176.6026611328125 298.72015380859375 177.19186401367188L301.3069152832031 178.7481231689453C301.4598693847656 178.8328399658203 301.6129455566406 178.91961669921875 301.76617431640625 179.00845336914062L305.8299255371094 181.3917236328125C306.6553649902344 181.81573486328125 307.48291015625 182.3017578125 308.3103332519531 182.85313415527344L312.64300537109375 185.78973388671875C313.06646728515625 186.0413818359375 313.4901428222656 186.3098602294922 313.91375732421875 186.5955810546875L317.65618896484375 189.15188598632812C317.6831359863281 189.17007446289062 317.7100524902344 189.1882781982422 317.73687744140625 189.20651245117188L322.1233825683594 191.92681884765625L325.3430480957031 193.79347229003906C326.05712890625 194.1435089111328 326.7741394042969 194.53842163085938 327.49285888671875 194.9802703857422L330.46356201171875 196.83885192871094C330.85662841796875 197.057373046875 331.2502746582031 197.2898406982422 331.6443176269531 197.53659057617188L335.6321716308594 200.0928955078125C336.0831298828125 200.3768768310547 336.5169677734375 200.66854858398438 336.9340515136719 200.96739196777344L337.3877258300781 201.25411987304688C337.5522766113281 201.34861755371094 337.7169189453125 201.4455108642578 337.8817138671875 201.5448760986328L339.14349365234375 202.29046630859375C339.60113525390625 202.5277862548828 340.0600280761719 202.7835235595703 340.51983642578125 203.05821228027344L344.7458190917969 205.59715270996094C345.25189208984375 205.8726806640625 345.7589416503906 206.17135620117188 346.26641845703125 206.493896484375L349.8656921386719 208.80479431152344C350.27789306640625 209.06918334960938 350.675537109375 209.33993530273438 351.0589294433594 209.61668395996094L354.651123046875 211.93373107910156C355.7934265136719 212.67617797851562 356.8230895996094 213.4674072265625 357.74560546875 214.298828125L359.8782043457031 215.9757537841797C360.5616760253906 216.46572875976562 361.23992919921875 217.00592041015625 361.9110412597656 217.5985107421875L365.618896484375 220.92800903320312L368.3938293457031 223.18148803710938C368.4344787597656 223.2150421142578 368.4749450683594 223.2486572265625 368.5152282714844 223.28231811523438L372.1362609863281 226.06500244140625C372.2823486328125 226.17897033691406 372.4262390136719 226.2936553955078 372.5680236816406 226.40902709960938L375.98095703125 228.94851684570312L379.0106201171875 231.14678955078125C379.81982421875 231.675048828125 380.6241760253906 232.2704315185547 381.4208068847656 232.93637084960938L383.630615234375 234.86251831054688C383.7940673828125 234.9879150390625 383.9573059082031 235.11614990234375 384.1202697753906 235.2472686767578L385.7331848144531 236.57723999023438C385.91839599609375 236.71652221679688 386.1033630371094 236.85943603515625 386.2879943847656 237.00601196289062L388.2734680175781 238.6140899658203C388.40936279296875 238.71688842773438 388.5451354980469 238.82164001464844 388.68072509765625 238.92835998535156L393.6297302246094 242.8343963623047C393.88946533203125 243.0390625 394.142333984375 243.24595642089844 394.3883972167969 243.45498657226562L398.1670227050781 246.46278381347656C398.467041015625 246.69125366210938 398.7658386230469 246.9296417236328 399.0633239746094 247.1781768798828C399.5867004394531 247.6039581298828 400.0810546875 248.03897094726562 400.54718017578125 248.4822235107422L403.6611328125 251.2549285888672C403.807861328125 251.37689208984375 403.9542541503906 251.50128173828125 404.1003723144531 251.62811279296875L407.07952880859375 254.26210021972656C407.17730712890625 254.3441925048828 407.27496337890625 254.4273681640625 407.3724670410156 254.51162719726562L411.0724792480469 257.7470703125C411.4361877441406 258.0374450683594 411.798095703125 258.3426818847656 412.1578674316406 258.6630859375L416.4729309082031 262.4873046875C417.2208557128906 263.1563720703125 417.9045715332031 263.842041015625 418.5268249511719 264.5412292480469L419.2691345214844 265.2835388183594C419.6886291503906 265.67437744140625 420.10205078125 266.0885314941406 420.5086364746094 266.526611328125C421.3504333496094 267.3929138183594 422.0964660644531 268.27789306640625 422.751953125 269.1763000488281L424.8780517578125 271.7513732910156C425.2093811035156 272.156982421875 425.5226745605469 272.5643615722656 425.8183288574219 272.9731140136719L428.10455322265625 275.90606689453125L428.2933044433594 276.1482238769531L431.0950012207031 279.7475280761719L431.1090393066406 279.7657775878906L433.7331237792969 282.8559875488281C434.100341796875 283.3011474609375 434.4456481933594 283.7485656738281 434.7696838378906 284.1977844238281L437.4142150878906 287.33465576171875C437.896484375 287.90509033203125 438.3420104980469 288.4797668457031 438.75201416015625 289.0576477050781L441.08905029296875 292.0538024902344C441.6123046875 292.67218017578125 442.1195373535156 293.3345642089844 442.608642578125 294.04241943359375L445.75518798828125 298.6221923828125C446.2083740234375 299.2194519042969 446.6461486816406 299.8534240722656 447.06683349609375 300.52520751953125L450.9115295410156 306.7421569824219C451.25848388671875 307.2993469238281 451.5768737792969 307.855712890625 451.86767578125 308.4106140136719L453.9382019042969 312.01837158203125L457.5374755859375 318.1739807128906C457.858642578125 318.72784423828125 458.15264892578125 319.280029296875 458.4204406738281 319.83001708984375L461.13677978515625 324.8817443847656C461.15283203125 324.9112548828125 461.1687927246094 324.9407653808594 461.1846923828125 324.97027587890625L463.43499755859375 328.81390380859375L465.80426025390625 332.52935791015625L465.92218017578125 332.7142639160156L467.4559631347656 335.1069641113281C467.9140319824219 335.83538818359375 468.3233337402344 336.5625 468.6860046386719 337.2869873046875L469.27606201171875 338.2972412109375C469.605224609375 338.87841796875 469.9049377441406 339.45745849609375 470.1762390136719 340.03375244140625L470.87945556640625 341.37158203125C470.93157958984375 341.4640808105469 470.9833679199219 341.5572814941406 471.0347900390625 341.651123046875L472.5851745605469 344.4814453125L474.67523193359375 348.0882263183594L476.2037353515625 350.5705261230469C476.8628234863281 351.5114440917969 477.47735595703125 352.53900146484375 478.0401306152344 353.6566467285156C478.23284912109375 354.02093505859375 478.413818359375 354.3847961425781 478.58319091796875 354.74786376953125L479.3428039550781 356.27435302734375C479.9711608886719 357.3480529785156 480.5384521484375 358.5189208984375 481.03509521484375 359.79071044921875L481.2054443359375 360.2488098144531C481.2963562011719 360.48223876953125 481.38287353515625 360.7149658203125 481.4650573730469 360.94696044921875L482.3119812011719 363.2245178222656C482.4212341308594 363.4864807128906 482.52734375 363.7529602050781 482.6302185058594 364.0239562988281L483.9677429199219 367.5735168457031C484.02728271484375 367.71826171875 484.0859069824219 367.8643493652344 484.1435546875 368.0118103027344L486.02178955078125 372.7457580566406L487.3287658691406 375.7182312011719C487.6094665527344 376.24322509765625 487.8773193359375 376.7895812988281 488.13140869140625 377.357666015625L489.97515869140625 381.5843811035156C490.0291442871094 381.69476318359375 490.0826110839844 381.8059997558594 490.13555908203125 381.9181213378906L491.894287109375 385.6810302734375C492.1773376464844 386.2784118652344 492.43170166015625 386.8716125488281 492.6584777832031 387.4601135253906L494.3078308105469 391.2940979003906C494.3282470703125 391.3384704589844 494.34857177734375 391.3829650878906 494.3688049316406 391.4276123046875L496.92510986328125 397.0105895996094C497.3716735839844 398.00250244140625 497.7411193847656 398.9816589355469 498.0381164550781 399.9459228515625L498.8474426269531 402.1231994628906C499.16937255859375 402.9730224609375 499.4380187988281 403.8106384277344 499.65618896484375 404.6349182128906L500.62939453125 407.6410217285156C500.6982116699219 407.8242492675781 500.76544189453125 408.00958251953125 500.8311462402344 408.1969909667969L502.3654479980469 412.6043395996094C502.655517578125 413.29168701171875 502.92181396484375 414.0105895996094 503.1625061035156 414.7615966796875L504.98260498046875 420.5081787109375C505.0050354003906 420.578125 505.027099609375 420.6479797363281 505.0488586425781 420.71771240234375L506.1473693847656 423.9620666503906C506.3915710449219 424.5725402832031 506.61724853515625 425.2071228027344 506.8231506347656 425.8662109375L508.41827392578125 431.0401916503906C508.6982421875 431.9313659667969 508.9226379394531 432.80633544921875 509.0945739746094 433.6641540527344L509.70098876953125 436.0042724609375C510.10321044921875 437.2040100097656 510.4193420410156 438.48895263671875 510.6381530761719 439.8605651855469C510.80389404296875 440.7452697753906 510.91656494140625 441.6103210449219 510.9794006347656 442.4548034667969L511.1603088378906 443.8904113769531C511.3490295410156 444.8898010253906 511.4797668457031 445.9370422363281 511.5472106933594 447.032470703125L511.7492370605469 450.6016845703125C511.85205078125 451.4272766113281 511.9151611328125 452.28253173828125 511.9357604980469 453.1676025390625L512.0090942382812 458.97882080078125C512.0120849609375 459.0389404296875 512.0149536132812 459.0992126464844 512.017578125 459.15960693359375L512.2037963867188 463.5975646972656C512.2257080078125 463.80023193359375 512.2454833984375 464.0046691894531 512.2630004882812 464.21087646484375L512.5083618164062 466.91033935546875C512.5228271484375 467.0874328613281 512.5355224609375 467.2635192871094 512.54638671875 467.4385986328125L512.7333374023438 468.99627685546875C512.7550659179688 469.2001953125 512.7743530273438 469.40283203125 512.7911376953125 469.6041564941406L513.22412109375 472.7591552734375C513.2486572265625 472.9473876953125 513.2710571289062 473.1345520019531 513.2913208007812 473.3206787109375L513.6455688476562 475.8232116699219C513.6923828125 476.0736083984375 513.7359619140625 476.3269958496094 513.7763061523438 476.5834045410156L514.6557006835938 482.10504150390625C514.7305908203125 482.5904846191406 514.791015625 483.0692443847656 514.83740234375 483.5412292480469L515.2028198242188 486.47479248046875C515.4249267578125 487.64642333984375 515.5615844726562 488.8826599121094 515.6033325195312 490.1834411621094C515.6488037109375 491.0064697265625 515.6524658203125 491.8074035644531 515.6168823242188 492.58587646484375V510.06085205078125L515.6918334960938 515.4790649414062C515.6951293945312 515.6150512695312 515.6974487304688 515.7518310546875 515.6986694335938 515.8892211914062V520.2042846679688L515.7764282226562 525.66796875L515.7804565429688 525.9508666992188V532.024658203125C515.7802734375 532.0518798828125 515.7804565429688 532.0791625976562 515.7804565429688 532.1064453125C515.7818603515625 532.2421264648438 515.7816772460938 532.377197265625 515.7804565429688 532.5115356445312V536.5032958984375L515.7805786132812 536.5234375C515.7807006835938 536.5440063476562 515.7808227539062 536.5645751953125 515.7808227539062 536.5851440429688L515.7804565429688 536.828369140625V542.2853393554688C515.7858276367188 542.5903930664062 515.7858276367188 542.8989868164062 515.7804565429688 543.2110595703125L515.7155151367188 548.537353515625C515.7359008789062 549.1929931640625 515.730712890625 549.8648071289062 515.6986694335938 550.5527954101562L515.4532470703125 555.7471923828125C515.41357421875 556.5484008789062 515.3396606445312 557.3242797851562 515.2337646484375 558.074951171875L514.9010620117188 561.5756225585938C514.8318481445312 562.3353881835938 514.7327270507812 563.071044921875 514.60546875 563.78271484375L514.3489379882812 565.72705078125C514.220947265625 566.572265625 514.0574340820312 567.385009765625 513.86083984375 568.1656494140625C513.7760620117188 568.7807006835938 513.6664428710938 569.4061889648438 513.5308837890625 570.0421142578125L512.2630004882812 576.0341186523438C512.0538330078125 577.0054931640625 511.79937744140625 577.9302368164062 511.5034484863281 578.80908203125L510.410400390625 582.7745971679688C510.33154296875 583.083984375 510.24566650390625 583.3954467773438 510.1527099609375 583.708740234375C509.8990478515625 584.6159057617188 509.6068115234375 585.478759765625 509.2794189453125 586.2979736328125L508.2326965332031 589.298583984375C508.1203918457031 589.666748046875 507.9982604980469 590.0374755859375 507.8661193847656 590.4107666015625L506.4319152832031 594.3472290039062C506.3090515136719 594.76318359375 506.1737365722656 595.1825561523438 506.02557373046875 595.605224609375L503.9600830078125 601.43359375C503.8520202636719 601.7410888671875 503.7397766113281 602.0430297851562 503.6234130859375 602.33935546875L502.6442565917969 605.367919921875C502.46929931640625 605.9719848632812 502.2674865722656 606.5830078125 502.0377197265625 607.2006225585938L502.0363464355469 607.2042846679688L501.7472839355469 607.9705200195312L500.374267578125 611.6104125976562C500.2461242675781 612.0255126953125 500.10540771484375 612.4439086914062 499.9517822265625 612.8654174804688L498.5781555175781 616.4761352539062C498.5410461425781 616.5770874023438 498.503173828125 616.6781005859375 498.4645080566406 616.7793579101562C498.3493347167969 617.0887451171875 498.22979736328125 617.392333984375 498.1061096191406 617.690185546875L496.2911376953125 622.2930908203125C496.2223815917969 622.4627685546875 496.1523742675781 622.630615234375 496.0811462402344 622.796630859375L494.53240966796875 626.771728515625C494.2868957519531 627.395263671875 494.0245056152344 627.9945068359375 493.7463684082031 628.5698852539062L492.61004638671875 631.2504272460938L492.5650634765625 631.3533325195312L490.8546142578125 635.5518188476562C490.7682800292969 635.7730102539062 490.6779479980469 635.9947509765625 490.5835876464844 636.2171020507812L490.52410888671875 636.363037109375C490.03857421875 637.5541381835938 489.4915771484375 638.654541015625 488.89111328125 639.6674194335938L487.3745422363281 642.6288452148438C487.039306640625 643.3587036132812 486.6583557128906 644.0926513671875 486.2295227050781 644.8295288085938L483.54290771484375 649.4700317382812C483.31109619140625 649.91943359375 483.06158447265625 650.3699951171875 482.7938232421875 650.821533203125L479.99212646484375 655.4432983398438C479.9064025878906 655.588134765625 479.81988525390625 655.7312622070312 479.7325744628906 655.8727416992188L477.7425537109375 659.43115234375C477.5535583496094 659.7625122070312 477.3601989746094 660.085205078125 477.1627502441406 660.3994140625L475.8453674316406 662.7752075195312C475.66363525390625 663.1253662109375 475.4712829589844 663.476318359375 475.26806640625 663.8280029296875L474.5575256347656 665.0875854492188C474.35797119140625 665.4652099609375 474.14520263671875 665.8430786132812 473.9189147949219 666.2210083007812L473.89703369140625 666.2575073242188C473.40863037109375 667.1004028320312 472.89263916015625 667.8870849609375 472.3522644042969 668.6195068359375C472.0452880859375 669.1022338867188 471.7154235839844 669.5843505859375 471.36199951171875 670.0654296875L470.01226806640625 671.9059448242188C469.7312927246094 672.2879028320312 469.4452209472656 672.6559448242188 469.1544189453125 673.0103149414062L467.1287536621094 675.6483764648438L467.079345703125 675.7128295898438L465.2379455566406 678.1158447265625C464.8177795410156 678.7349243164062 464.3578796386719 679.3511962890625 463.856689453125 679.9634399414062L460.8095703125 683.64453125C459.92535400390625 684.7259521484375 459.00323486328125 685.6837768554688 458.05181884765625 686.525146484375L457.11700439453125 687.4873046875C456.9671936035156 687.6453857421875 456.8142395019531 687.8027954101562 456.6581115722656 687.9595947265625L456.6063232421875 688.011474609375L456.603759765625 688.0140380859375L456.5763244628906 688.0413818359375L453.46783447265625 691.1498413085938C453.05560302734375 691.560791015625 452.6390075683594 691.9497680664062 452.2185974121094 692.3173217773438L449.6231384277344 694.9127197265625C449.2450256347656 695.2844848632812 448.8633728027344 695.6378784179688 448.4786376953125 695.9734497070312L446.0443115234375 698.3484497070312C445.50946044921875 698.8594360351562 444.9683532714844 699.3348388671875 444.4220886230469 699.7757568359375L444.0632629394531 700.107177734375C443.5132141113281 700.6776733398438 442.9197692871094 701.2372436523438 442.28143310546875 701.7841186523438L439.2802734375 704.2967529296875C438.87890625 704.651611328125 438.4584655761719 705.00048828125 438.0185546875 705.3428955078125L437.96636962890625 705.3834228515625C437.8125305175781 705.505615234375 437.6580505371094 705.624755859375 437.5032958984375 705.7412719726562L434.3670959472656 708.1646728515625C433.71026611328125 708.673828125 433.0502014160156 709.1372680664062 432.38836669921875 709.5570068359375L430.9361572265625 710.558837890625C430.4054870605469 710.97265625 429.8451843261719 711.374755859375 429.25445556640625 711.7639770507812L427.6671447753906 712.77587890625C426.5742492675781 713.5942993164062 425.35577392578125 714.3507080078125 424.00543212890625 715.0325927734375L423.9986877441406 715.0360107421875L422.99102783203125 715.5477905273438L418.80426025390625 717.6741333007812C417.7108459472656 718.2282104492188 416.6292724609375 718.683349609375 415.5628967285156 719.0462646484375L413.8877258300781 719.7495727539062C413.26519775390625 720.065185546875 412.6138000488281 720.3623046875 411.93292236328125 720.6394653320312L407.0151672363281 722.5785522460938L403.22100830078125 724.21826171875C402.60711669921875 724.4804077148438 401.9986267089844 724.7136840820312 401.3960266113281 724.919189453125L397.5228271484375 726.4005737304688L392.2250061035156 728.7015991210938C391.9291076660156 728.84033203125 391.6270751953125 728.9752197265625 391.3188171386719 729.10595703125L386.36981201171875 731.2532348632812C385.9175109863281 731.4448852539062 385.4681701660156 731.6209106445312 385.0220031738281 731.7816772460938L383.0579528808594 732.6458740234375C382.53314208984375 732.91748046875 381.987548828125 733.1761474609375 381.4208068847656 733.4210205078125L375.34698486328125 736.0591430664062C374.3767395019531 736.4772338867188 373.4197082519531 736.8225708007812 372.4778137207031 737.099609375L367.4326477050781 739.0858154296875C367.3520812988281 739.1167602539062 367.2715759277344 739.147216796875 367.19122314453125 739.1771850585938L360.80670166015625 741.9692993164062C360.28973388671875 742.1896362304688 359.776611328125 742.3895263671875 359.267578125 742.5695190429688L355.77587890625 744.1166381835938C355.5422668457031 744.2161865234375 355.3094482421875 744.3116455078125 355.0774230957031 744.4028930664062L350.1705627441406 746.598876953125L344.8144226074219 749.5564575195312C344.19921875 749.8977661132812 343.58673095703125 750.20654296875 342.9776306152344 750.48388671875L340.5048828125 751.759765625C339.71575927734375 752.2153930664062 338.8751220703125 752.6401977539062 337.9816589355469 753.0304565429688C337.6043701171875 753.2035522460938 337.2286071777344 753.364990234375 336.8544616699219 753.5147705078125L333.6557312011719 754.887451171875C333.2390441894531 755.0797119140625 332.81005859375 755.26318359375 332.36883544921875 755.4374389648438C331.5252990722656 755.787109375 330.69207763671875 756.0821533203125 329.8704528808594 756.3255004882812L326.8253173828125 757.3748779296875C325.8560485839844 757.7727661132812 324.8247375488281 758.1201782226562 323.72998046875 758.4114990234375L317.9642333984375 759.9232177734375C317.6820068359375 760.0094604492188 317.395263671875 760.091796875 317.1040344238281 760.1702270507812L311.5650329589844 761.6588134765625C311.2624816894531 761.7533569335938 310.9547119140625 761.8434448242188 310.64166259765625 761.928955078125L304.0770568847656 763.687744140625C303.71484375 763.7869873046875 303.3555908203125 763.8773193359375 302.99932861328125 763.958984375L298.739501953125 765.1192626953125C298.0318603515625 765.3079833984375 297.3356018066406 765.4632568359375 296.65118408203125 765.5865478515625L291.4443359375 766.831298828125C291.266845703125 766.8756713867188 291.0877380371094 766.9185180664062 290.9069519042969 766.9597778320312L290.70050048828125 767.0054321289062L284.5843505859375 768.35791015625C283.6780090332031 768.6336059570312 282.7250671386719 768.8643188476562 281.7247009277344 769.0457763671875L276.6607666015625 769.9271850585938C276.4024658203125 769.984375 276.1408386230469 770.0382690429688 275.8758544921875 770.0887451171875L269.0110168457031 771.3651123046875C268.3433837890625 771.523193359375 267.6528015136719 771.6572265625 266.9389953613281 771.7656860351562L258.30889892578125 773.0335693359375C258.2096862792969 773.048583984375 258.1107482910156 773.06298828125 258.0121154785156 773.0767822265625L250.43771362304688 774.5078735351562L243.1971893310547 776.0372924804688C242.45645141601562 776.2388305664062 241.6858673095703 776.4108276367188 240.8850860595703 776.5510864257812L235.05044555664062 777.5538940429688C234.84332275390625 777.5966796875 234.6340789794922 777.6373901367188 234.4227294921875 777.6758422851562L226.43785095214844 779.1212158203125C225.91624450683594 779.2401733398438 225.3808135986328 779.3449096679688 224.83145141601562 779.4345703125L216.98236083984375 780.6421508789062L211.27622985839844 781.8833618164062L211.1705322265625 781.9091186523438L203.47891235351562 783.7112426757812C203.1250762939453 783.8053588867188 202.76454162597656 783.8931884765625 202.39727783203125 783.974609375L195.85975646972656 785.4195556640625C195.66864013671875 785.471435546875 195.47555541992188 785.521484375 195.28050231933594 785.5697631835938L187.2025604248047 787.5738525390625C186.32810974121094 787.790283203125 185.47183227539062 787.9561157226562 184.6344451904297 788.0742797851562L179.14508056640625 789.1690063476562L179.13877868652344 789.1704711914062L173.95065307617188 790.3756103515625C173.27310180664062 790.5240478515625 172.6071014404297 790.6427612304688 171.95297241210938 790.733154296875L167.2783966064453 791.6249389648438L162.02163696289062 792.8987426757812L158.44918823242188 793.811279296875C157.35646057128906 794.09521484375 156.2913055419922 794.2999267578125 155.25514221191406 794.430908203125L154.0182647705078 794.6611328125C153.21189880371094 794.8642578125 152.3712921142578 795.0317993164062 151.49603271484375 795.1610107421875L148.71279907226562 795.5635375976562C147.3453369140625 795.8671875 145.8854522705078 796.0545654296875 144.3328094482422 796.1102905273438C143.64662170410156 796.1524047851562 142.97549438476562 796.1646118164062 142.31971740722656 796.1484375L139.67169189453125 796.1921997070312C139.59146118164062 796.1964721679688 139.51097106933594 796.2003784179688 139.43023681640625 796.2039794921875L136.61328125 796.2726440429688C136.54356384277344 796.2772827148438 136.47366333007812 796.2816772460938 136.403564453125 796.2857666015625L131.6181640625 796.592529296875C131.4954833984375 796.599853515625 131.37332153320312 796.6062622070312 131.25164794921875 796.61181640625L126.81229400634766 797.0015258789062C126.73599243164062 797.0082397460938 126.65988159179688 797.0146484375 126.58395385742188 797.0206909179688L122.35408782958984 797.5537109375C122.10794830322266 797.5813598632812 121.86366271972656 797.60546875 121.6212387084961 797.6259765625L118.50530242919922 798.0541381835938C118.19096374511719 798.1106567382812 117.87194061279297 798.1620483398438 117.54822540283203 798.2081298828125L111.24948120117188 799.0875244140625C110.61714935302734 799.1751098632812 109.99650573730469 799.2384643554688 109.38771057128906 799.2786254882812L107.53456115722656 799.5094604492188C106.27223205566406 799.7630615234375 104.93353271484375 799.9160766601562 103.51860809326172 799.9562377929688C102.5955810546875 800.0114135742188 101.70032501220703 800.0137939453125 100.83328247070312 799.9668579101562H99.57225036621094C99.517822265625 799.9675903320312 99.46328735351562 799.96728515625 99.40864562988281 799.9668579101562H97.38957214355469C97.08445739746094 799.9722290039062 96.77586364746094 799.9722290039062 96.46378326416016 799.9668579101562L93.69488525390625 799.9009399414062C93.36746215820312 799.90185546875 93.0361328125 799.8966674804688 92.70088958740234 799.8850708007812L90.27333068847656 799.7666625976562C89.81527709960938 799.76416015625 89.3497085571289 799.749267578125 88.87664794921875 799.7214965820312L86.18104553222656 799.5652465820312C85.29361724853516 799.5590209960938 84.37874603271484 799.5031127929688 83.43682098388672 799.394287109375L79.61257934570312 798.9238891601562C78.0754623413086 798.746826171875 76.64041900634766 798.449462890625 75.30571746826172 798.0466918945312C74.57025909423828 797.8882446289062 73.82344818115234 797.6895141601562 73.06607055664062 797.4483642578125C71.97714233398438 797.1389770507812 70.95340728759766 796.7703857421875 69.99345397949219 796.3490600585938C69.83819580078125 796.2923583984375 69.68256378173828 796.2338256835938 69.5265884399414 796.17333984375L69.38734436035156 796.1221923828125C68.99703979492188 795.9757690429688 68.61605834960938 795.8226318359375 68.24430847167969 795.6630859375C58.38972091674805 798.3727416992188 46.54164505004883 794.30224609375 42.96220397949219 783.1068115234375C39.325904846191406 776.9768676757812 39.03744888305664 768.932861328125 42.09682846069336 762.4993286132812L42.29045486450195 758.8204956054688C42.358558654785156 757.765625 42.48527145385742 756.7554931640625 42.66584014892578 755.7897338867188L42.807899475097656 754.5111694335938L43.030609130859375 751.3097534179688C43.044403076171875 750.8616943359375 43.07022476196289 750.4067993164062 43.10847473144531 749.9450073242188L43.495521545410156 745.7379760742188C43.51460647583008 745.3590698242188 43.54229736328125 744.9754028320312 43.578834533691406 744.5869750976562L44.32484817504883 737.00537109375C44.348670959472656 736.4284057617188 44.3928337097168 735.8402709960938 44.45820617675781 735.2410888671875L45.50117874145508 725.97705078125L45.508060455322266 725.9159545898438L46.49651336669922 717.1361083984375L46.71998596191406 712.0111083984375C46.72426986694336 711.56103515625 46.74051284790039 711.1036987304688 46.769107818603516 710.63916015625L47.34272766113281 701.3872680664062C47.35356903076172 700.9932250976562 47.37359619140625 700.59375 47.403076171875 700.18896484375L48.165470123291016 690.3540649414062C48.178985595703125 690.0631713867188 48.19749069213867 689.7694702148438 48.221092224121094 689.472900390625L48.71935272216797 683.3169555664062C48.72414016723633 682.8477172851562 48.7419548034668 682.3706665039062 48.773258209228516 681.8858032226562L49.489383697509766 671.6947021484375L49.56806945800781 661.2488403320312C49.5672492980957 661.0735473632812 49.56815719604492 660.8970947265625 49.570823669433594 660.7195434570312L49.6483154296875 654.5975952148438C49.648643493652344 654.4575805664062 49.65007781982422 654.3168334960938 49.652626037597656 654.1754150390625L49.810333251953125 647.5517578125C49.81162643432617 647.4423217773438 49.81359100341797 647.33251953125 49.81623077392578 647.2222290039062L50.106380462646484 634.06884765625C50.10562515258789 633.739990234375 50.111106872558594 633.4072265625 50.122989654541016 633.0704956054688L50.51313781738281 623.18017578125C50.51682662963867 622.9678955078125 50.523101806640625 622.7539672851562 50.53199768066406 622.5385131835938L51.13533401489258 608.0973510742188C51.13945770263672 607.77490234375 51.14961624145508 607.44873046875 51.16596221923828 607.1188354492188L51.963531494140625 591.4537353515625L51.96541213989258 591.4168090820312L52.76110076904297 575.8091430664062C52.76839828491211 575.6640625 52.776817321777344 575.519775390625 52.78634262084961 575.3763427734375L53.170108795166016 564.1318969726562V548.7940673828125L53.17014694213867 548.7394409179688L53.17015075683594 548.7366943359375L53.1701545715332 548.73388671875L53.17015838623047 548.73095703125L53.170162200927734 548.7279052734375V548.6834106445312C53.17018127441406 548.6643676757812 53.170196533203125 548.647705078125 53.170108795166016 548.6304321289062L53.2495231628418 534.3754272460938C53.24814224243164 534.1795043945312 53.24892807006836 533.982177734375 53.25191116333008 533.7833862304688L53.38714599609375 522.6942749023438C53.383846282958984 522.3724975585938 53.386436462402344 522.0469360351562 53.39506530761719 521.7175903320312L53.696075439453125 511.4268493652344C53.69562530517578 511.0317077636719 53.70426940917969 510.63092041015625 53.72227478027344 510.2244567871094L54.274436950683594 497.5860595703125C54.31074905395508 496.8183288574219 54.378456115722656 496.0736999511719 54.47574234008789 495.35211181640625L55.14356994628906 485.03961181640625C55.15228271484375 484.4419860839844 55.18263626098633 483.8318786621094 55.2356071472168 483.2093505859375L56.34138488769531 470.1087341308594C56.361297607421875 469.6363220214844 56.39474105834961 469.15643310546875 56.44218826293945 468.6690673828125L57.56696319580078 457.80987548828125L59.080299377441406 442.00164794921875C59.111732482910156 441.6885070800781 59.148231506347656 441.3795166015625 59.189674377441406 441.07464599609375L60.090850830078125 427.53936767578125C60.099586486816406 427.3509521484375 60.110382080078125 427.1613464355469 60.12327575683594 426.9705505371094L61.00264358520508 413.30963134765625C61.01511764526367 413.1235046386719 61.029422760009766 412.9387512207031 61.045536041259766 412.75543212890625L61.6366081237793 400.60986328125C61.64608383178711 400.4295349121094 61.65729522705078 400.2504577636719 61.67020797729492 400.07269287109375L62.31507110595703 386.6226806640625C62.32081985473633 386.2855529785156 62.33319854736328 385.94439697265625 62.35237503051758 385.5992126464844L63.12205123901367 371.7253112792969C63.12916946411133 371.53173828125 63.138458251953125 371.3368835449219 63.14994430541992 371.1407165527344L63.947513580322266 356.7640380859375C63.9559440612793 356.6200866699219 63.96546936035156 356.4769592285156 63.976078033447266 356.33465576171875L64.27471923828125 346.9273681640625V306.3536071777344C64.27459716796875 306.32635498046875 64.2746353149414 306.2991027832031 64.27471923828125 306.27178955078125V297.7205810546875C64.27325439453125 297.5589294433594 64.27324676513672 297.39630126953125 64.27471923828125 297.2326965332031L64.35214233398438 286.5100402832031C64.34906005859375 286.2288513183594 64.3504867553711 285.94476318359375 64.35652160644531 285.65771484375L64.486572265625 280.8646240234375C64.48831176757812 280.65069580078125 64.49266815185547 280.43511962890625 64.49967956542969 280.2178955078125L64.6446762084961 275.831787109375C64.64698028564453 275.57159423828125 64.65316009521484 275.3089599609375 64.66328430175781 275.0439147949219L64.87982177734375 268.4033203125C64.8827133178711 268.06463623046875 64.89227294921875 267.72186279296875 64.90868377685547 267.3749694824219L65.29724884033203 258.6630859375C65.33247375488281 257.9183654785156 65.39730072021484 257.1954345703125 65.49006652832031 256.49420166015625L65.97044372558594 247.81732177734375C65.97756958007812 247.3369903564453 65.9984130859375 246.84849548339844 66.03346252441406 246.3518829345703L66.78682708740234 235.18670654296875C66.79804229736328 234.94305419921875 66.81275177001953 234.69737243652344 66.8310317993164 234.44970703125L67.71040344238281 222.87472534179688C67.7213134765625 222.725341796875 67.73340606689453 222.57687377929688 67.74665069580078 222.4293212890625L68.01715850830078 215.5943603515625V158.3330078125C68.01715850830078 142.2281494140625 82.22824096679688 135.61630249023438 93.89696502685547 138.49745178222656C94.73306274414062 137.44801330566406 95.70751953125 136.44247436523438 96.8291015625 135.49462890625C97.99250793457031 134.48214721679688 99.32463836669922 133.5487518310547 100.83543395996094 132.71478271484375C101.68049621582031 132.210693359375 102.58653259277344 131.7435760498047 103.5554428100586 131.3180389404297C104.16912078857422 131.03762817382812 104.77859497070312 130.787841796875 105.38325500488281 130.5675048828125C105.609619140625 130.47564697265625 105.83931732177734 130.3862762451172 106.0723876953125 130.29946899414062C106.76531219482422 130.02528381347656 107.45073699951172 129.7874755859375 108.12801361083984 129.58447265625L109.32713317871094 129.17062377929688C110.23546600341797 128.87046813964844 111.12776184082031 128.62872314453125 112.00288391113281 128.44200134277344C113.02064514160156 128.1204071044922 114.09842681884766 127.8567886352539 115.23731994628906 127.65728759765625L116.88341522216797 127.35950469970703C118.14635467529297 127.02692413330078 119.49201202392578 126.7989273071289 120.92037200927734 126.68924713134766C122.47376251220703 126.51578521728516 123.95584869384766 126.49650573730469 125.36360168457031 126.61431121826172H126.65618133544922C126.87013244628906 126.6117172241211 127.08577728271484 126.61170196533203 127.30310821533203 126.61431121826172L127.5048828125 126.61935424804688C127.60022735595703 126.62122344970703 127.69522857666016 126.62360382080078 127.78988647460938 126.62648010253906L130.11959838867188 126.68472290039062C130.35130310058594 126.68543243408203 130.5849609375 126.68921661376953 130.82058715820312 126.69611358642578L134.06503295898438 126.80029296875C134.64801025390625 126.79280853271484 135.2434844970703 126.80549621582031 135.85140991210938 126.83927154541016L140.7186279296875 127.08467864990234C141.41946411132812 127.12373352050781 142.10072326660156 127.18895721435547 142.7624969482422 127.2789535522461C143.230224609375 125.90442657470703 143.86997985839844 124.56244659423828 144.6956329345703 123.27706146240234C144.7050323486328 123.26028442382812 144.71446228027344 123.24353790283203 144.72390747070312 123.226806640625C145.1495819091797 122.43614959716797 145.640380859375 121.65582275390625 146.19964599609375 120.88973236083984C147.62472534179688 118.58519744873047 149.60443115234375 116.5290298461914 152.1891326904297 114.89569854736328C152.5790252685547 114.63021087646484 152.97425842285156 114.38226318359375 153.37413024902344 114.15148162841797C155.47865295410156 112.77957153320312 157.9197540283203 111.80520629882812 160.67221069335938 111.37184143066406C161.7974853515625 111.1666488647461 162.9154052734375 111.07099914550781 164.01815795898438 111.07562255859375C167.52745056152344 110.75814056396484 171.19473266601562 111.4246826171875 174.72430419921875 113.37065887451172C179.0023956298828 115.3001480102539 181.99868774414062 118.37528228759766 183.82252502441406 121.97323608398438C186.75555419921875 126.5296401977539 187.45286560058594 131.37828063964844 186.57020568847656 135.86346435546875L187.52976989746094 136.0419921875ZM474.8794860839844 536.6669311523438V526.278076171875L474.803955078125 520.9526977539062L474.7976989746094 520.5110473632812C474.7962341308594 520.347900390625 474.7962341308594 520.185791015625 474.7976989746094 520.0245971679688V516.2164306640625L474.7239074707031 510.8675231933594C474.7191467285156 510.6750183105469 474.7164611816406 510.4811096191406 474.71588134765625 510.2857971191406C474.7152404785156 510.1769714355469 474.7152404785156 510.0685729980469 474.71588134765625 509.96063232421875V504.9482116699219L474.71575927734375 504.8664245605469L474.71588134765625 504.7847595214844V496.236328125C474.7157897949219 496.2090148925781 474.71575927734375 496.1817626953125 474.71588134765625 496.1545104980469V492.1397399902344L474.23748779296875 488.353515625L473.36614990234375 482.9026184082031C473.3155822753906 482.57623291015625 473.2715759277344 482.25286865234375 473.23394775390625 481.9325866699219L472.8913879394531 479.6309509277344C472.7892150878906 479.105712890625 472.70184326171875 478.56707763671875 472.62994384765625 478.01495361328125L472.0777893066406 473.8634948730469C472.0052795410156 473.3052978515625 471.9515075683594 472.75640869140625 471.915771484375 472.21685791015625C471.819580078125 471.61016845703125 471.74371337890625 470.9865417480469 471.689208984375 470.34600830078125L471.5865478515625 468.65191650390625C471.51885986328125 468.0592956542969 471.470947265625 467.4515075683594 471.4438171386719 466.8285217285156L471.2777404785156 462.884521484375C471.18988037109375 462.1244201660156 471.1354675292969 461.33953857421875 471.1166076660156 460.52978515625L471.0474548339844 455.1204833984375C471.0429992675781 455.0559387207031 471.0387878417969 454.9912414550781 471.0347900390625 454.9263610839844L470.74945068359375 449.88494873046875L470.3343811035156 447.0487365722656L469.4252624511719 443.39996337890625C469.4025573730469 443.3294982910156 469.3800964355469 443.2587890625 469.35784912109375 443.1877746582031L467.7928161621094 438.1716613769531L466.55963134765625 434.5293884277344C466.3616638183594 434.02349853515625 466.1762390136719 433.50128173828125 466.0039978027344 432.9625244140625L464.4429626464844 428.0885925292969C464.40380859375 427.9824523925781 464.36517333984375 427.8756103515625 464.3270568847656 427.7680969238281L462.46099853515625 422.354736328125C462.3343505859375 422.0123291015625 462.2132568359375 421.66265869140625 462.0979309082031 421.3057556152344L460.4134216308594 416.1212158203125L459.39501953125 413.3815002441406L457.067138671875 408.27880859375C456.7862243652344 407.6548156738281 456.53582763671875 407.035888671875 456.3147888183594 406.4225158691406L454.8760986328125 403.035888671875L453.140625 399.4237365722656C452.8678283691406 398.8460388183594 452.62164306640625 398.27227783203125 452.40118408203125 397.7029113769531L450.7479248046875 394.0657043457031C450.5838623046875 393.6986083984375 450.4303894042969 393.3332824707031 450.2872619628906 392.9698486328125L449.0269775390625 390.2338562011719C448.6697998046875 389.52703857421875 448.3371276855469 388.78277587890625 448.03125 388.0002136230469C448.0301513671875 387.9974670410156 448.0290222167969 387.99468994140625 448.02801513671875 387.9919128417969L447.64227294921875 386.9715881347656L446.4090881347656 383.7095947265625C446.2833557128906 383.41143798828125 446.1617126464844 383.107421875 446.0443115234375 382.7974853515625L445.0241394042969 380.0901184082031C444.8232421875 379.6495666503906 444.6314392089844 379.1955261230469 444.4491882324219 378.72784423828125L443.15899658203125 375.30450439453125L441.9968566894531 372.96917724609375L440.3619079589844 370.31402587890625C440.0588073730469 369.8586730957031 439.7645263671875 369.384521484375 439.4797058105469 368.89117431640625L437.7945251464844 365.983154296875C437.494384765625 365.51318359375 437.20379638671875 365.0238342285156 436.92340087890625 364.5147705078125L435.9219970703125 362.64630126953125C435.6104736328125 362.1455993652344 435.3100280761719 361.62335205078125 435.0215148925781 361.0791015625L433.4576110839844 358.08477783203125L432.90716552734375 357.0726623535156C432.88934326171875 357.0448303222656 432.87152099609375 357.0169372558594 432.853759765625 356.9889831542969L431.3404235839844 354.5962829589844C431.10321044921875 354.2196044921875 430.8790283203125 353.8432312011719 430.66766357421875 353.4674072265625L429.2242736816406 351.2209167480469C428.8823547363281 350.71990966796875 428.55126953125 350.1955261230469 428.23193359375 349.64727783203125L428.19378662109375 349.5801696777344C428.0655212402344 349.3619079589844 427.94158935546875 349.1438293457031 427.8219299316406 348.9259338378906L425.8264465332031 345.4150695800781C425.6068115234375 345.0509338378906 425.392822265625 344.67572021484375 425.184814453125 344.28924560546875L421.8309326171875 338.1336364746094C421.71331787109375 337.916015625 421.5997314453125 337.69879150390625 421.4901123046875 337.48193359375L418.7284851074219 332.7589416503906C418.67156982421875 332.6629943847656 418.6150207519531 332.5663146972656 418.5588684082031 332.4688720703125L416.05938720703125 328.1464538574219L412.32147216796875 322.1618347167969C412.30242919921875 322.1311340332031 412.2834777832031 322.1004333496094 412.26458740234375 322.0697326660156L408.88580322265625 317.29461669921875C408.7816162109375 317.1437072753906 408.6796569824219 316.99273681640625 408.57989501953125 316.8417663574219L406.1380920410156 313.6623229980469L402.996826171875 309.9331359863281C402.7206726074219 309.6304931640625 402.44769287109375 309.3167419433594 402.17803955078125 308.99169921875L399.1513671875 305.31060791015625C398.758544921875 304.83709716796875 398.3905944824219 304.3609924316406 398.0467529296875 303.88287353515625L395.9406433105469 301.1591796875L393.0613098144531 297.423828125L390.3639221191406 294.1568298339844L388.656982421875 292.4969482421875L385.73193359375 289.8984375C385.5418701171875 289.74322509765625 385.352294921875 289.5839538574219 385.1632385253906 289.42059326171875L380.602783203125 285.41229248046875C380.3793029785156 285.218994140625 380.161376953125 285.0241394042969 379.948974609375 284.82781982421875L377.1670837402344 282.4674377441406C376.7667236328125 282.1165771484375 376.3843688964844 281.7608337402344 376.0196838378906 281.4006652832031L372.6304626464844 278.3829040527344L368.8694763183594 275.38916015625C368.6833801269531 275.2504577636719 368.49755859375 275.1081237792969 368.3120422363281 274.96209716796875L363.3630065917969 271.117431640625C362.92584228515625 270.7716979980469 362.5081787109375 270.4196472167969 362.1095275878906 270.06182861328125L360.8885192871094 269.11328125C360.7001037597656 268.9629821777344 360.515380859375 268.8115234375 360.334228515625 268.658935546875L358.41400146484375 267.12957763671875C357.8708801269531 266.6913146972656 357.3585510253906 266.24334716796875 356.8761291503906 265.7867126464844L355.912353515625 264.9781799316406L351.685791015625 261.8533630371094L351.6581726074219 261.83294677734375L347.3707275390625 258.6630859375C346.8949279785156 258.312255859375 346.4409484863281 257.9534606933594 346.00823974609375 257.5874328613281L342.8307189941406 255.1455841064453C342.171142578125 254.6309814453125 341.5555114746094 254.10177612304688 340.98236083984375 253.559814453125L340.4908752441406 253.15798950195312C339.93048095703125 252.7374267578125 339.3739929199219 252.28240966796875 338.82244873046875 251.79171752929688L334.905517578125 248.32749938964844L332.21075439453125 246.1739959716797L327.6564636230469 243.243408203125C327.18780517578125 242.93865966796875 326.7381286621094 242.625732421875 326.3070373535156 242.3052215576172L324.2691955566406 241.02427673339844L319.4967346191406 238.21258544921875C319.10321044921875 237.977294921875 318.7222595214844 237.7360076904297 318.3536376953125 237.48907470703125L316.7768249511719 236.53565979003906C316.49407958984375 236.36502075195312 316.2178649902344 236.19131469726562 315.9481201171875 236.0146484375L313.99554443359375 234.8587188720703C313.63446044921875 234.63339233398438 313.2842102050781 234.40313720703125 312.9447021484375 234.168212890625L309.8441162109375 232.22059631347656C309.7259826660156 232.14620971679688 309.60906982421875 232.0712890625 309.4932861328125 231.99586486816406L306.76983642578125 230.3059539794922C306.66986083984375 230.24974060058594 306.5698547363281 230.19264221191406 306.46978759765625 230.13465881347656L302.0206604003906 227.50328063964844C301.561767578125 227.25424194335938 301.1018981933594 226.986328125 300.6413879394531 226.698974609375L295.44696044921875 223.50869750976562C294.7127990722656 223.05276489257812 294.02362060546875 222.57635498046875 293.3780212402344 222.08168029785156L291.1742248535156 220.61248779296875L291.070556640625 220.5433807373047L285.5489196777344 216.8827362060547C285.5197448730469 216.86322021484375 285.4906921386719 216.84368896484375 285.461669921875 216.82411193847656L282.279541015625 215.00575256347656C281.8773498535156 214.79368591308594 281.47418212890625 214.56736755371094 281.0702819824219 214.32643127441406L277.2539978027344 212.01495361328125L272.76739501953125 210.01138305664062C272.4836730957031 209.88458251953125 272.2053527832031 209.7543487548828 271.932373046875 209.6208038330078L269.73431396484375 208.6099395751953C269.70916748046875 208.59996032714844 269.6840515136719 208.5899200439453 269.6589050292969 208.57984924316406L266.073486328125 207.0932159423828L262.4857177734375 206.0798797607422C261.92523193359375 205.947021484375 261.35772705078125 205.7921600341797 260.78338623046875 205.61451721191406L257.73193359375 204.62399291992188C257.11749267578125 204.44818115234375 256.4958801269531 204.244384765625 255.86752319335938 204.01141357421875C255.6387176513672 203.93031311035156 255.41305541992188 203.84671020507812 255.19053649902344 203.7606658935547L250.67617797851562 202.09747314453125C250.42018127441406 202.0078582763672 250.1631317138672 201.91319274902344 249.90509033203125 201.81338500976562L249.84239196777344 201.790283203125C249.16355895996094 201.5325927734375 248.51307678222656 201.25460815429688 247.890380859375 200.95777893066406L244.6613006591797 199.54440307617188C243.5536346435547 199.16787719726562 242.42994689941406 198.69195556640625 241.29409790039062 198.10919189453125L235.13848876953125 194.91893005371094C234.4945068359375 194.5868682861328 233.8809051513672 194.2378387451172 233.2969970703125 193.8732147216797L228.62550354003906 191.30006408691406L225.54425048828125 189.72071838378906L222.7886505126953 188.49440002441406L218.83946228027344 186.92279052734375C218.8042449951172 186.90890502929688 218.7690887451172 186.8949737548828 218.73402404785156 186.8809814453125L215.6035919189453 185.7860870361328L211.08872985839844 184.5300750732422C210.94297790527344 184.48741149902344 210.7983856201172 184.44375610351562 210.6549530029297 184.39913940429688L207.5758819580078 183.696044921875L204.33912658691406 183.1728057861328C203.63133239746094 183.08831787109375 202.9096221923828 182.96946716308594 202.1744384765625 182.81446838378906C201.3870391845703 182.66688537597656 200.6293487548828 182.48760986328125 199.901123046875 182.27882385253906L197.3724365234375 181.67234802246094C196.9722442626953 181.5927734375 196.5680389404297 181.5024871826172 196.15988159179688 181.40115356445312L192.36964416503906 180.42930603027344L191.5550079345703 180.2566375732422C190.05596923828125 180.0706329345703 188.5054168701172 179.71505737304688 186.9110107421875 179.17044067382812C186.54229736328125 179.05740356445312 186.18125915527344 178.93722534179688 185.82789611816406 178.81016540527344C185.84095764160156 179.0969696044922 185.84913635253906 179.38099670410156 185.85252380371094 179.66220092773438L186.11936950683594 183.8782196044922L186.768310546875 188.40696716308594C186.94384765625 189.33644104003906 187.06956481933594 190.30723571777344 187.14122009277344 191.31964111328125L187.15174865722656 191.48944091796875C187.16891479492188 191.71644592285156 187.182861328125 191.9418487548828 187.1936492919922 192.1656036376953L187.44796752929688 196.26866149902344C187.45896911621094 196.43092346191406 187.46844482421875 196.59231567382812 187.47640991210938 196.75283813476562L188.08193969726562 202.8946075439453C188.11497497558594 203.22447204589844 188.1416015625 203.55093383789062 188.16195678710938 203.8739776611328L188.6538543701172 208.88861083984375C188.75001525878906 209.57150268554688 188.81741333007812 210.27488708496094 188.85427856445312 210.99868774414062C188.95668029785156 212.36746215820312 188.94833374023438 213.67559814453125 188.8399658203125 214.92208862304688L188.76556396484375 218.62075805664062C188.78160095214844 219.2730255126953 188.77230834960938 219.9412078857422 188.73635864257812 220.62518310546875L188.56216430664062 223.06382751464844C188.55274963378906 223.55148315429688 188.52919006347656 224.0474395751953 188.49095153808594 224.55166625976562L188.31399536132812 226.7340545654297L188.26710510253906 228.79759216308594L188.54591369628906 234.25189208984375C188.5556182861328 234.3717803955078 188.5645751953125 234.49224853515625 188.57275390625 234.61331176757812L189.0248260498047 241.13906860351562L189.40589904785156 243.98654174804688C189.48367309570312 244.372314453125 189.5537109375 244.76536560058594 189.61572265625 245.16575622558594L190.56263732910156 251.6012725830078C190.654541015625 252.07644653320312 190.73443603515625 252.5625457763672 190.80184936523438 253.0596466064453L191.73643493652344 260.078125C191.8120574951172 260.55047607421875 191.87562561035156 261.03314208984375 191.9266357421875 261.5261535644531L192.80599975585938 269.6040954589844C192.8603057861328 270.1446838378906 192.89730834960938 270.6761474609375 192.91766357421875 271.1983947753906L193.2763671875 275.26885986328125C193.34503173828125 276.0978698730469 193.37362670898438 276.90478515625 193.36447143554688 277.68939208984375L193.68536376953125 283.8989562988281C193.70875549316406 284.3709411621094 193.71945190429688 284.8353271484375 193.7178955078125 285.2920837402344L193.93077087402344 291.73150634765625C193.94285583496094 292.14434814453125 193.94537353515625 292.5512390136719 193.93858337402344 292.9521179199219L193.9815216064453 297.8606262207031C194.01754760742188 298.591796875 194.02169799804688 299.34368896484375 193.99212646484375 300.1162109375L193.80813598632812 305.21783447265625C193.8057403564453 305.90911865234375 193.77389526367188 306.61724853515625 193.7110595703125 307.3419189453125C193.68309020996094 307.7120056152344 193.6475830078125 308.07647705078125 193.60475158691406 308.4353942871094L193.0888214111328 313.644775390625L192.97882080078125 318.8616943359375L193.11276245117188 325.2907409667969C193.13412475585938 326.4761657714844 193.0771026611328 327.611328125 192.94842529296875 328.6961669921875L192.80599975585938 331.4259033203125C192.76658630371094 332.176025390625 192.69728088378906 332.90386962890625 192.59979248046875 333.6094970703125L192.18701171875 337.9370422363281C192.16358947753906 338.3182067871094 192.13140869140625 338.70416259765625 192.09022521972656 339.0948181152344L191.62722778320312 343.334228515625L191.76303100585938 348.35888671875C191.7676239013672 348.5164489746094 191.77084350585938 348.673095703125 191.77268981933594 348.82891845703125L191.9266357421875 353.7169189453125C191.95469665527344 354.9227294921875 191.9013671875 356.0771789550781 191.7737579345703 357.1801452636719L191.72084045410156 358.8604736328125C191.72689819335938 359.42474365234375 191.71397399902344 360.0007019042969 191.6812286376953 360.5882873535156L191.43028259277344 366.008544921875L191.6812286376953 370.97711181640625C191.69264221191406 371.19439697265625 191.7013702392578 371.4100646972656 191.70745849609375 371.6241760253906L191.98428344726562 374.6969909667969L192.0084228515625 374.9649658203125L192.5605926513672 381.6727294921875C192.60073852539062 382.1448059082031 192.6278839111328 382.6097106933594 192.64247131347656 383.0674133300781L193.11276245117188 389.198486328125C193.15061950683594 389.75714111328125 193.17042541503906 390.3055114746094 193.1728973388672 390.8434753417969L193.33419799804688 394.4325256347656C193.506103515625 395.73046875 193.5726776123047 397.1012268066406 193.52175903320312 398.54437255859375L193.31109619140625 403.0037536621094C193.3024444580078 403.3813781738281 193.28504943847656 403.763916015625 193.2586669921875 404.1512451171875C193.22625732421875 404.7914733886719 193.17152404785156 405.41552734375 193.0955810546875 406.0233459472656L192.5605926513672 411.95989990234375C192.495849609375 412.6244201660156 192.4081573486328 413.270263671875 192.29872131347656 413.8975524902344L191.76303100585938 418.74945068359375C191.73583984375 418.98626708984375 191.70579528808594 419.2206115722656 191.67291259765625 419.45257568359375L191.27081298828125 422.95465087890625C191.25527954101562 423.2273864746094 191.23532104492188 423.5025939941406 191.2108612060547 423.7802734375L190.80184936523438 428.48388671875C190.78395080566406 428.6872253417969 190.76390075683594 428.8888244628906 190.7417449951172 429.0887145996094L190.5564422607422 432.65576171875C190.54168701171875 432.88702392578125 190.52410888671875 433.11614990234375 190.50376892089844 433.3431091308594L190.40525817871094 435.5462646484375C190.4178924560547 435.9600830078125 190.42066955566406 436.3804016113281 190.41329956054688 436.8072204589844L190.24969482421875 442.39019775390625V446.3780517578125Q190.24673461914062 446.624755859375 190.23939514160156 446.868408203125L190.20877075195312 448.7516784667969C190.34742736816406 450.461669921875 190.28907775878906 452.28277587890625 190.00428771972656 454.2105712890625L189.9395751953125 454.61212158203125C189.89096069335938 454.9654541015625 189.83482360839844 455.31329345703125 189.7714080810547 455.6556091308594L189.47882080078125 457.4711608886719C189.40533447265625 458.2868347167969 189.28822326660156 459.12249755859375 189.12490844726562 459.9776306152344L188.3378143310547 463.8215637207031L188.3273468017578 463.8836669921875L187.69337463378906 467.7897033691406C187.68067932128906 467.86444091796875 187.66770935058594 467.9388732910156 187.6544647216797 468.0130920410156L187.301025390625 471.0026550292969L186.9776153564453 475.78582763671875C186.96051025390625 476.00860595703125 186.94078063964844 476.2293701171875 186.91851806640625 476.4480895996094L186.73220825195312 480.0190734863281C186.72377014160156 480.1894836425781 186.71377563476562 480.3587341308594 186.70225524902344 480.52685546875L186.6385040283203 482.3037414550781L187.05941772460938 485.1317138671875C187.28672790527344 486.73626708984375 187.3574676513672 488.2655029296875 187.28863525390625 489.7170715332031L187.32933044433594 490.831298828125C187.35137939453125 491.2095947265625 187.36502075195312 491.5935363769531 187.3699951171875 491.9831237792969C187.3852081298828 492.617431640625 187.3777313232422 493.237548828125 187.34861755371094 493.8434753417969L187.30006408691406 496.5013427734375C187.30337524414062 496.8847961425781 187.29823303222656 497.27362060546875 187.28436279296875 497.6678466796875L187.21670532226562 499.21453857421875C187.23562622070312 500.2615661621094 187.1851348876953 501.34820556640625 187.05941772460938 502.4737243652344L186.62806701660156 505.9553527832031C186.57118225097656 506.6325988769531 186.48428344726562 507.3238220214844 186.36590576171875 508.0284729003906C186.28756713867188 508.5587158203125 186.19435119628906 509.076171875 186.08694458007812 509.5809631347656L185.58250427246094 512.384765625C185.52586364746094 512.7783203125 185.45928955078125 513.1761474609375 185.38247680664062 513.5783081054688L184.509765625 517.99755859375L184.5030975341797 518.0365600585938L184.10604858398438 520.1707153320312C184.07859802246094 520.4186401367188 184.04737854003906 520.6683959960938 184.01229858398438 520.9200439453125L183.54193115234375 524.355712890625C183.50535583496094 524.612548828125 183.4654541015625 524.866455078125 183.42230224609375 525.1173706054688L183.29652404785156 526.5848388671875C183.2667236328125 526.8516235351562 183.2332763671875 527.1153564453125 183.19625854492188 527.3760375976562C183.1614227294922 528.387939453125 183.06024169921875 529.4332885742188 182.88751220703125 530.5113525390625L182.0579071044922 535.82470703125L181.9841766357422 536.84228515625C181.96604919433594 537.7124633789062 181.90011596679688 538.6085205078125 181.78318786621094 539.5299682617188L181.2105712890625 544.0128173828125V547.2807006835938L181.483154296875 551.9998779296875C181.50375366210938 552.2109375 181.52197265625 552.4238891601562 181.53778076171875 552.6387329101562L181.864990234375 557.117431640625C181.88619995117188 557.4202880859375 181.902099609375 557.7201538085938 181.9127960205078 558.0169677734375L182.01351928710938 559.912353515625C182.08824157714844 560.5318603515625 182.141357421875 561.1680908203125 182.1717529296875 561.821044921875L182.4171600341797 567.9766235351562C182.43478393554688 568.349365234375 182.4445343017578 568.7173461914062 182.44659423828125 569.08056640625L182.66256713867188 574.9297485351562C182.67062377929688 575.2051391601562 182.6744384765625 575.4778442382812 182.67405700683594 575.7479248046875L182.74436950683594 579.8787841796875C182.75027465820312 580.1326293945312 182.75257873535156 580.3840942382812 182.7513427734375 580.6333618164062L182.8001251220703 584.7688598632812C182.9164276123047 586.1470336914062 182.90872192382812 587.6001586914062 182.76222229003906 589.126708984375C182.72596740722656 589.62890625 182.67489624023438 590.1210327148438 182.6096649169922 590.6029663085938L182.1968536376953 594.5763549804688C182.15982055664062 595.1277465820312 182.10398864746094 595.6888427734375 182.02859497070312 596.2596435546875L181.2624053955078 601.8190307617188L181.14923095703125 605.360107421875Q181.14471435546875 605.4617919921875 181.1394805908203 605.56298828125L181.0674285888672 608.8775634765625C181.0372772216797 609.811767578125 180.96005249023438 610.7123413085938 180.83905029296875 611.5795288085938L180.80918884277344 612.0174560546875C180.7978515625 612.4569702148438 180.7749786376953 612.9032592773438 180.74021911621094 613.356201171875L180.49481201171875 617.0986938476562C180.44403076171875 617.740966796875 180.3716583251953 618.3662109375 180.27879333496094 618.974609375L180.10031127929688 621.3607177734375L180.04994201660156 624.2059936523438L180.25376892089844 627.3991088867188C180.2819366455078 627.6106567382812 180.30776977539062 627.8241577148438 180.33120727539062 628.0396728515625L180.9784393310547 634.0467529296875L180.98562622070312 634.1134643554688L181.6195831298828 640.023681640625C181.6793670654297 640.6031494140625 181.71934509277344 641.1721801757812 181.74032592773438 641.730712890625L182.02859497070312 644.8295288085938C182.0939483642578 645.5975952148438 182.1248779296875 646.3467407226562 182.1232147216797 647.0768432617188L182.4171600341797 652.0894165039062C182.44496154785156 652.5899658203125 182.45848083496094 653.08203125 182.4582061767578 653.5657348632812L182.66256713867188 658.8790283203125C182.67469787597656 659.1959228515625 182.68115234375 659.5093383789062 182.68206787109375 659.8192749023438L182.78468322753906 663.47509765625C182.84671020507812 664.3592529296875 182.86167907714844 665.2744750976562 182.82615661621094 666.220703125L182.82501220703125 666.24462890625L182.77052307128906 667.3798217773438L182.65093994140625 669.8713989257812C182.65695190429688 670.8115234375 182.60765075683594 671.782958984375 182.49896240234375 672.7853393554688L181.94679260253906 678.1229248046875C181.87893676757812 678.7281494140625 181.7924346923828 679.3176879882812 181.6881866455078 679.8916015625L181.0674285888672 685.2396850585938C181.0243682861328 685.5927124023438 180.9749298095703 685.9402465820312 180.91928100585938 686.2823486328125L180.47781372070312 690.1206665039062C180.46112060546875 690.406494140625 180.43954467773438 690.6950073242188 180.4130096435547 690.9862670898438L179.94264221191406 695.9557495117188C179.83721923828125 697.1128540039062 179.66233825683594 698.2139892578125 179.42428588867188 699.2597045898438L178.84390258789062 702.7191772460938C178.77694702148438 703.22509765625 178.6934814453125 703.73828125 178.59291076660156 704.2586059570312L177.4681396484375 709.9234008789062C177.39627075195312 710.2880859375 177.31793212890625 710.6463012695312 177.23333740234375 710.9981689453125L176.79306030273438 713.5885620117188C176.7801971435547 713.69580078125 176.76663208007812 713.8033447265625 176.7523651123047 713.9112548828125L176.29522705078125 716.8826904296875C176.28506469726562 717.0164184570312 176.2738494873047 717.1506958007812 176.26156616210938 717.2855834960938L175.88682556152344 721.1632690429688Q175.880615234375 721.2996826171875 175.8730010986328 721.43701171875L175.63662719726562 725.01220703125C175.63783264160156 725.2833862304688 175.6348419189453 725.5573120117188 175.62759399414062 725.8338623046875L175.4639892578125 731.1714477539062C175.42208862304688 732.765869140625 175.24253845214844 734.2633666992188 174.9416961669922 735.6643676757812L174.72247314453125 737.375732421875C174.69805908203125 737.58935546875 174.6705322265625 737.8043212890625 174.63987731933594 738.0205078125L174.58462524414062 738.4518432617188C174.39227294921875 739.8096313476562 174.1071014404297 741.0848388671875 173.73941040039062 742.27880859375L173.15309143066406 744.7505493164062C172.8518829345703 746.014892578125 172.47463989257812 747.197265625 172.03001403808594 748.2999267578125L171.8245086669922 748.9351806640625L178.34750366210938 747.6340942382812L178.43504333496094 747.6166381835938L185.38247680664062 745.8753662109375C185.93931579589844 745.7378540039062 186.4888153076172 745.6207885742188 187.03076171875 745.5233764648438L193.52175903320312 744.0347900390625Q193.6337890625 744.010009765625 193.74542236328125 743.9862670898438L201.6610565185547 742.1124877929688C202.19668579101562 741.983642578125 202.7253875732422 741.8735961914062 203.2469940185547 741.78173828125L208.45062255859375 740.59912109375C209.33441162109375 740.4114990234375 210.1984100341797 740.27392578125 211.04197692871094 740.1834716796875L218.28729248046875 739.0039672851562C218.3998565673828 738.985595703125 218.51206970214844 738.968017578125 218.62391662597656 738.951171875L227.16281127929688 737.4088745117188C227.5180206298828 737.3444213867188 227.86981201171875 737.2879028320312 228.2181396484375 737.2390747070312L233.78875732421875 736.2022705078125C233.99655151367188 736.1658325195312 234.2031707763672 736.1321411132812 234.40859985351562 736.10107421875L241.6466522216797 734.5720825195312C241.9735870361328 734.4964599609375 242.30596923828125 734.4263305664062 242.64382934570312 734.3617553710938L251.5193328857422 732.684814453125C252.46583557128906 732.5069580078125 253.38836669921875 732.3855590820312 254.28623962402344 732.3171997070312L259.3838195800781 731.5562133789062C259.6092224121094 731.5072021484375 259.8371276855469 731.4607543945312 260.067626953125 731.4168701171875L266.9875793457031 730.1302490234375C267.46405029296875 730.0154418945312 267.9522705078125 729.9124145507812 268.45233154296875 729.8217163085938L273.4168701171875 728.9575805664062L273.483154296875 728.9423217773438L281.6679992675781 727.04736328125L281.7860412597656 727.02001953125L281.99517822265625 726.97314453125L288.9028015136719 725.4248657226562C289.050537109375 725.3916015625 289.19775390625 725.3597412109375 289.3443908691406 725.3292846679688L292.2359313964844 724.5335083007812C292.5835266113281 724.4224243164062 292.9380798339844 724.3173217773438 293.2996520996094 724.21826171875L299.84381103515625 722.4595336914062C300.158447265625 722.3735961914062 300.47088623046875 722.2943115234375 300.7810363769531 722.2216186523438L306.46978759765625 720.6394653320312C306.8883361816406 720.5261840820312 307.3028869628906 720.4248046875 307.71343994140625 720.3348388671875L311.99737548828125 719.2116088867188L317.5975036621094 717.3071899414062L320.4490966796875 716.08349609375L320.4579162597656 716.0789794921875L324.5431823730469 714.036376953125C324.6996154785156 713.9459228515625 324.8580017089844 713.8565063476562 325.01837158203125 713.76806640625L329.8001708984375 711.1539916992188C330.5523681640625 710.694091796875 331.3536376953125 710.2623291015625 332.2054138183594 709.8619995117188C332.6846923828125 709.6241455078125 333.1622314453125 709.4058227539062 333.6375427246094 709.20654296875L339.2314453125 706.6513061523438C339.6575012207031 706.4601440429688 340.0811462402344 706.2830810546875 340.50225830078125 706.119873046875L344.6712646484375 704.3403930664062L352.09478759765625 701.1296997070312C352.9906921386719 700.7474975585938 353.8751220703125 700.427001953125 354.74658203125 700.164794921875L358.3064880371094 698.8042602539062C358.5757751464844 698.6763305664062 358.8501892089844 698.5516357421875 359.1297607421875 698.4302368164062L364.22845458984375 696.2843017578125C364.5201416015625 696.1436767578125 364.8179016113281 696.0068359375 365.12176513671875 695.8739013671875L370.152587890625 693.6243896484375C370.5552062988281 693.449462890625 370.95562744140625 693.2870483398438 371.3536376953125 693.1368408203125L375.34698486328125 691.47705078125C375.5120544433594 691.4070434570312 375.67669677734375 691.339111328125 375.8409729003906 691.2732543945312L380.55419921875 689.2261352539062C380.91668701171875 689.0597534179688 381.2882995605469 688.8995361328125 381.669189453125 688.7457885742188C382.0129089355469 688.6032104492188 382.3551330566406 688.4696044921875 382.69561767578125 688.344970703125L387.15576171875 686.6148681640625L387.1673889160156 686.60986328125L390.0746154785156 685.3873291015625C390.5290832519531 685.1715087890625 390.9982604980469 684.9652709960938 391.482421875 684.769287109375L395.7297058105469 683.0364379882812C395.9335021972656 682.9441528320312 396.1401672363281 682.8536987304688 396.3496398925781 682.76513671875L401.38751220703125 680.6367797851562L404.835693359375 678.885498046875L405.2392272949219 678.6181640625C405.58984375 678.345947265625 405.95318603515625 678.0784912109375 406.3294677734375 677.816162109375L410.1741638183594 675.1780395507812C410.208984375 675.1538696289062 410.2438049316406 675.1297607421875 410.27862548828125 675.1058349609375L412.9554443359375 673.01025390625C413.01007080078125 672.968017578125 413.064697265625 672.9260864257812 413.1193542480469 672.8844604492188L414.9756774902344 671.2380981445312C415.0514221191406 671.1674194335938 415.12786865234375 671.096923828125 415.2049865722656 671.026611328125L418.1498718261719 668.3884887695312C418.250732421875 668.2972412109375 418.3517761230469 668.2071533203125 418.4529724121094 668.1182861328125L421.1969909667969 665.5049438476562L424.4896240234375 662.2123413085938L424.5508728027344 662.1510620117188L424.6326599121094 662.0692749023438C424.7181091308594 661.985595703125 424.8037414550781 661.90283203125 424.8895568847656 661.821044921875L427.6976013183594 659.0850219726562L429.7664489746094 656.955810546875L431.53515625 654.8211669921875C431.5989990234375 654.7354125976562 431.6636047363281 654.649658203125 431.7289733886719 654.56396484375L434.61248779296875 650.821533203125L434.61553955078125 650.8175659179688L436.8417663574219 647.9182739257812C436.8956604003906 647.843017578125 436.95013427734375 647.7677612304688 437.00518798828125 647.6925659179688L438.1606750488281 646.1404418945312L438.761474609375 645.26171875L439.549560546875 643.9445190429688C439.60711669921875 643.83740234375 439.6656188964844 643.730224609375 439.7251281738281 643.6229248046875L441.69281005859375 640.0743408203125C441.8533935546875 639.7649536132812 442.02227783203125 639.4548950195312 442.1996154785156 639.144287109375L444.310791015625 635.5325927734375C444.4779357910156 635.2236328125 444.6535339355469 634.9141845703125 444.8377380371094 634.6043090820312L447.5576477050781 629.9620361328125C447.65399169921875 629.8001098632812 447.7513427734375 629.6401977539062 447.8497009277344 629.4824829101562L450.7486877441406 624.49560546875L452.94317626953125 620.195556640625L454.7247314453125 615.8479614257812Q454.8513488769531 615.5279541015625 454.98858642578125 615.2059936523438C455.08319091796875 614.9799194335938 455.1800537109375 614.7572021484375 455.2790832519531 614.5377197265625L456.3013610839844 612.1939086914062C456.3377685546875 612.0974731445312 456.3749084472656 612.0009765625 456.4127197265625 611.9042358398438L457.91619873046875 608.06201171875C458.0456237792969 607.6953125 458.1851501464844 607.3263549804688 458.3350524902344 606.9552001953125L459.7791748046875 603.4722900390625C459.8773193359375 603.1693115234375 459.9821472167969 602.8646850585938 460.0937805175781 602.558349609375L461.1904296875 599.69140625C461.29461669921875 599.3741455078125 461.4062194824219 599.0550537109375 461.52532958984375 598.734130859375L463.6930847167969 592.90576171875C463.7218322753906 592.8284301757812 463.7508544921875 592.7515258789062 463.7801513671875 592.6749267578125L465.2064208984375 588.2634887695312C465.3608703613281 587.7957153320312 465.5251770019531 587.3406372070312 465.6989440917969 586.89794921875L467.3741760253906 582.0260620117188C467.5472717285156 581.5323486328125 467.73126220703125 581.0530395507812 467.9256286621094 580.5880126953125L469.1543884277344 577.0399169921875L469.27606201171875 576.6885375976562L469.29351806640625 576.639892578125L470.8946228027344 572.1771850585938L472.2705078125 567.3463745117188L473.5093078613281 561.4119873046875C473.5690002441406 561.1367797851562 473.6323547363281 560.8653564453125 473.69927978515625 560.5977172851562L474.0001220703125 558.9375C474.01556396484375 558.85400390625 474.0313415527344 558.7708740234375 474.0474853515625 558.6880493164062L474.2026062011719 557.504150390625L474.5467224121094 553.8685302734375C474.5484619140625 553.8267822265625 474.5503234863281 553.7849731445312 474.5522766113281 553.7431030273438L474.7976989746094 548.6304321289062Q474.80255126953125 548.53271484375 474.80804443359375 548.4356079101562L474.8794860839844 542.5770874023438V536.6669311523438ZM153.08384704589844 298.80596923828125 153.03375244140625 293.06292724609375C153.0323486328125 293.0213623046875 153.03103637695312 292.9797668457031 153.02981567382812 292.9380798339844L152.78440856933594 285.41229248046875C152.77345275878906 284.995361328125 152.77224731445312 284.5845642089844 152.78050231933594 284.1799011230469L152.53553771972656 279.4889831542969C152.50582885742188 279.23040771484375 152.4796905517578 278.96893310546875 152.4571990966797 278.7045593261719L152.1453399658203 274.42071533203125C152.11721801757812 274.20111083984375 152.0916290283203 273.9793701171875 152.06863403320312 273.7555236816406L151.3088836669922 266.0799560546875L150.5133819580078 260.0435791015625C150.43807983398438 259.6654052734375 150.3701629638672 259.2802429199219 150.3098907470703 258.8880310058594L149.3543701171875 252.51211547851562C149.25759887695312 252.01800537109375 149.17372131347656 251.5120391845703 149.1033172607422 250.994140625L148.60536193847656 247.20960998535156C148.42352294921875 246.25204467773438 148.29483032226562 245.25047302246094 148.2239532470703 244.20458984375L147.7535858154297 237.33322143554688C147.72633361816406 236.91111755371094 147.7092742919922 236.494873046875 147.70213317871094 236.08456420898438L147.52462768554688 232.62327575683594C147.39976501464844 231.60011291503906 147.337890625 230.53196716308594 147.34457397460938 229.41888427734375L147.3836212158203 227.70108032226562C147.32899475097656 226.66505432128906 147.3413543701172 225.58782958984375 147.42637634277344 224.46986389160156L147.67178344726562 221.36138916015625C147.6867218017578 221.1722412109375 147.7035369873047 220.9845733642578 147.72219848632812 220.79835510253906L147.83538818359375 218.47787475585938C147.8404998779297 218.38577270507812 147.8460693359375 218.2940216064453 147.85208129882812 218.2025909423828L147.95535278320312 213.08343505859375L147.48361206054688 207.49874877929688C147.462890625 207.3219451904297 147.4438018798828 207.14378356933594 147.42637634277344 206.96426391601562L146.8529052734375 201.14761352539062C146.7523193359375 200.4757843017578 146.67713928222656 199.7834014892578 146.62881469726562 199.07037353515625L146.34597778320312 194.79244995117188L145.6081085205078 189.58035278320312C145.58441162109375 189.4239959716797 145.56210327148438 189.26651000976562 145.54122924804688 189.10792541503906L145.5040283203125 188.84512329101562C145.33470153808594 187.64892578125 145.25225830078125 186.49456787109375 145.24966430664062 185.38307189941406L144.95187377929688 180.6035919189453C144.93368530273438 180.276123046875 144.92161560058594 179.95228576660156 144.91551208496094 179.63206481933594L144.66810607910156 176.57046508789062C144.62059020996094 176.2427520751953 144.57879638671875 175.91018676757812 144.54286193847656 175.57276916503906L144.13552856445312 171.33360290527344C144.08204650878906 171.01979064941406 144.0337371826172 170.70138549804688 143.99069213867188 170.3783416748047L143.7736053466797 168.59596252441406L142.21966552734375 168.35354614257812L137.6101531982422 167.90383911132812C137.40675354003906 167.8840789794922 137.205078125 167.8621826171875 137.00515747070312 167.8381805419922L133.6018524169922 167.6788787841797C133.51971435546875 167.67425537109375 133.4378204345703 167.66928100585938 133.35621643066406 167.6639404296875L129.69581604003906 167.59707641601562C129.5101776123047 167.59164428710938 129.3258514404297 167.5843505859375 129.14285278320312 167.57521057128906L126.7304916381836 167.51527404785156H124.5633544921875L123.88145446777344 167.6352081298828L121.38154602050781 168.27244567871094L120.91297912597656 168.43856811523438L120.55043029785156 168.58265686035156C116.54447174072266 170.89053344726562 112.58935546875 171.7340850830078 108.91812133789062 171.47943115234375V214.97488403320312C108.96251678466797 215.82164001464844 108.96350860595703 216.69622802734375 108.91812133789062 217.5985107421875L108.5995101928711 223.9539337158203C108.6008071899414 224.588623046875 108.57788848876953 225.23779296875 108.5295639038086 225.90139770507812L107.65019226074219 237.41502380371094C107.64046478271484 237.54725646972656 107.62982177734375 237.6787872314453 107.61827087402344 237.80958557128906L106.85262298583984 249.2353973388672C106.83705139160156 249.45538330078125 106.81892395019531 249.67340087890625 106.79829406738281 249.8894500732422L106.19821166992188 260.72857666015625C106.19143676757812 260.8504638671875 106.18388366699219 260.9717712402344 106.17554473876953 261.09246826171875L105.80964660644531 269.2768859863281C105.80132293701172 269.452880859375 105.79135131835938 269.62762451171875 105.77973937988281 269.8011779785156L105.4824447631836 276.6390380859375C105.4783706665039 276.7475280761719 105.47367095947266 276.8555908203125 105.46833801269531 276.9631652832031L105.33928680419922 281.4244689941406C105.33781433105469 281.4736022949219 105.33621215820312 281.52264404296875 105.33447265625 281.57159423828125L105.25748443603516 286.5370788574219C105.25647735595703 286.5849304199219 105.2553482055664 286.6326904296875 105.25409698486328 286.6803894042969L105.1756820678711 297.55987548828125V346.49578857421875C105.19774627685547 347.102783203125 105.19808959960938 347.72381591796875 105.1756820678711 348.35888671875L104.84848022460938 358.5841369628906C104.82075500488281 359.3705139160156 104.75979614257812 360.1330871582031 104.66755676269531 360.87188720703125L103.96910858154297 373.5334167480469Q103.95713806152344 373.7371826171875 103.9422378540039 373.938720703125L103.17153930664062 387.9101257324219C103.16273498535156 388.06805419921875 103.1526107788086 388.22503662109375 103.14116668701172 388.3809814453125L102.57044982910156 401.8388671875C102.56511688232422 402.1484069824219 102.55419921875 402.4613037109375 102.5375747680664 402.7776184082031L101.87554931640625 414.8076171875C101.86730194091797 415.2092590332031 101.8494873046875 415.6165771484375 101.82180786132812 416.029541015625L100.86063385009766 429.6904602050781L99.89945983886719 445.35552978515625C99.85296630859375 446.0436096191406 99.78160858154297 446.7125549316406 99.68669128417969 447.36248779296875L98.22251892089844 461.7976989746094L97.17955017089844 472.6773681640625C97.15080261230469 472.9643859863281 97.11782836914062 473.2479248046875 97.08070373535156 473.5279541015625L95.97296905517578 486.7268371582031C95.95262145996094 486.9659729003906 95.9292984008789 487.20269775390625 95.90304565429688 487.43707275390625L95.20068359375 498.47430419921875C95.19800567626953 498.7882080078125 95.18961334228516 499.10565185546875 95.17539978027344 499.4266052246094L94.62323760986328 512.0445556640625C94.61637115478516 512.1920166015625 94.60835266113281 512.3385620117188 94.59918212890625 512.4843139648438L94.29602813720703 522.9241943359375C94.29415130615234 522.9881591796875 94.29206085205078 523.052001953125 94.28974914550781 523.1156616210938L94.15287780761719 534.4173583984375C94.15229034423828 534.4566040039062 94.151611328125 534.4957885742188 94.1508560180664 534.534912109375L94.071533203125 548.7940673828125L94.07107543945312 564.7863159179688C94.0682601928711 565.7263793945312 94.01704406738281 566.6340942382812 93.92076873779297 567.50927734375L93.61395263671875 576.4990234375C93.61479187011719 576.9501953125 93.60369873046875 577.4087524414062 93.58026123046875 577.8746337890625L92.7892837524414 593.4102783203125L92.7826919555664 593.5397338867188L92.77873229980469 593.617431640625L92.08140563964844 607.2957153320312C92.09599304199219 607.8653564453125 92.0914535522461 608.4472045898438 92.06692504882812 609.0411987304688L91.4329605102539 624.2972412109375C91.42595672607422 624.4553833007812 91.41761016845703 624.6126098632812 91.40795135498047 624.768798828125L91.0239486694336 634.5224609375C91.0205078125 634.620361328125 91.01654815673828 634.7178955078125 91.0120849609375 634.8150634765625L90.71719360351562 648.1834106445312C90.71463012695312 648.2901000976562 90.7114486694336 648.3964233398438 90.70765686035156 648.5022583007812L90.5535888671875 654.9729614257812C90.55278778076172 655.0172729492188 90.55188751220703 655.0615234375 90.55087280273438 655.1056518554688L90.47178649902344 661.353515625C90.47116088867188 661.3953857421875 90.4704360961914 661.437255859375 90.46961212158203 661.47900390625L90.40442657470703 670.1483154296875C90.46247863769531 671.1456298828125 90.45933532714844 672.1815185546875 90.38998413085938 673.2556762695312L89.6606216430664 683.6350708007812C89.64751434326172 684.034912109375 89.62487030029297 684.4403076171875 89.59241485595703 684.8511352539062L88.95845031738281 692.6632080078125C88.95111083984375 692.759033203125 88.94329833984375 692.8544921875 88.93500518798828 692.9495239257812L88.24268341064453 703.2156372070312C88.22213745117188 703.4940795898438 88.197509765625 703.7693481445312 88.16889190673828 704.0414428710938L87.58827209472656 713.1137084960938C87.58038330078125 713.2418823242188 87.57162475585938 713.369384765625 87.56201171875 713.4962158203125L87.35205841064453 718.353271484375C87.35503387451172 719.2697143554688 87.30550384521484 720.2159423828125 87.19971466064453 721.1915893554688L86.15673828125 730.4556884765625L86.14435577392578 730.566650390625L85.11376190185547 739.8015747070312C85.08028411865234 740.109375 85.04192352294922 740.4131469726562 84.99880981445312 740.7128295898438L84.31619262695312 748.431640625C84.30155181884766 748.587158203125 84.28565979003906 748.74169921875 84.2685317993164 748.8952026367188L83.9276351928711 753.3806762695312C83.91010284423828 753.5848999023438 83.89039611816406 753.7874145507812 83.8685531616211 753.9882202148438L83.67053985595703 756.8470458984375C83.6596908569336 757.131103515625 83.64385223388672 757.41796875 83.62291717529297 757.7074584960938C83.82124328613281 757.81103515625 84.01666259765625 757.916259765625 84.20922088623047 758.02294921875L85.07853698730469 758.3424682617188L85.17106628417969 758.3649291992188L87.91340637207031 758.707763671875L91.26935577392578 758.9022827148438C91.37003326416016 758.908203125 91.47030639648438 758.9146118164062 91.57017517089844 758.9215698242188L94.07107543945312 758.984130859375C94.21283721923828 758.989013671875 94.35381317138672 758.9949951171875 94.49402618408203 759.0020141601562L97.17955017089844 759.06591796875H101.35942840576172L105.89144897460938 758.4932861328125C106.2408447265625 758.4500122070312 106.5865707397461 758.4140014648438 106.92860412597656 758.3851928710938L110.14057922363281 757.938232421875C110.75724792480469 757.809326171875 111.39268493652344 757.7008666992188 112.04705047607422 757.6139526367188L117.3846206665039 756.8981323242188C118.06329345703125 756.8097534179688 118.72828674316406 756.7491455078125 119.37943267822266 756.715087890625L121.54069519042969 756.4779052734375C122.1104965209961 756.3885498046875 122.69518280029297 756.3170776367188 123.29481506347656 756.2642211914062L124.3203125 756.1702880859375C125.21640014648438 752.034912109375 127.2828369140625 748.1768798828125 130.51666259765625 745.32568359375C130.7635955810547 744.14306640625 131.0903778076172 743.029541015625 131.4882354736328 741.9842529296875L131.6474609375 741.1517333984375C131.67872619628906 740.9775390625 131.712158203125 740.8026733398438 131.747802734375 740.6270751953125L131.84310913085938 740.1287841796875C132.17437744140625 738.4985961914062 132.63417053222656 736.9979858398438 133.20440673828125 735.6231689453125L133.50015258789062 734.7135620117188L134.2537841796875 731.488037109375L134.6046600341797 728.7036743164062L134.68824768066406 725.9664916992188C134.67958068847656 725.3695678710938 134.69204711914062 724.7595825195312 134.7266387939453 724.136474609375L134.94558715820312 720.77001953125C134.94659423828125 720.023681640625 134.98202514648438 719.2575073242188 135.0538330078125 718.4716796875L135.41592407226562 714.6619262695312C135.4517822265625 714.0031127929688 135.5146942138672 713.3301391601562 135.6060028076172 712.643310546875L136.1581573486328 708.4100952148438C136.25677490234375 707.6869506835938 136.38180541992188 706.9869995117188 136.5316925048828 706.3101806640625L137.20114135742188 702.4180908203125C137.2909393310547 701.9226684570312 137.39279174804688 701.4388427734375 137.5061798095703 700.966552734375L138.32138061523438 696.8609008789062L138.32591247558594 696.8350830078125L139.2858123779297 691.4134521484375L139.53005981445312 688.801025390625C139.552734375 688.159423828125 139.60084533691406 687.5039672851562 139.67564392089844 686.8348388671875L140.39141845703125 680.4542846679688C140.4644317626953 679.8223876953125 140.55784606933594 679.207763671875 140.67062377929688 678.6102294921875L141.27078247070312 673.5010986328125C141.29762268066406 673.279052734375 141.3269500732422 673.0592041015625 141.3587646484375 672.8414306640625L141.79202270507812 668.7874145507812L141.90579223632812 665.232177734375L141.77882385253906 660.7722778320312C141.772216796875 660.646240234375 141.76646423339844 660.5195922851562 141.7615966796875 660.392333984375L141.61521911621094 654.6837768554688C141.6090087890625 654.5896606445312 141.60325622558594 654.4951782226562 141.59799194335938 654.4003295898438L141.18898010253906 647.6925659179688C141.17816162109375 647.4979248046875 141.1695098876953 647.3045654296875 141.16299438476562 647.1124877929688L141.0030059814453 645.3104858398438C140.957275390625 644.9911499023438 140.91697692871094 644.667236328125 140.88223266601562 644.3386840820312L140.3096160888672 638.4285278320312L140.30377197265625 638.3724975585938L139.84397888183594 633.967529296875C139.7348175048828 633.294189453125 139.6509552001953 632.5997924804688 139.59384155273438 631.8843383789062L139.3646697998047 629.00146484375C139.19207763671875 627.798583984375 139.1083984375 626.5316162109375 139.1232147216797 625.2006225585938C139.12330627441406 625.192626953125 139.12339782714844 625.1846313476562 139.1229705810547 625.1766357421875C139.11849975585938 624.7169189453125 139.1267852783203 624.2646484375 139.14739990234375 623.8199462890625L139.20529174804688 620.5343627929688C139.21621704101562 619.5611572265625 139.27865600585938 618.623291015625 139.38888549804688 617.7206420898438L139.67564392089844 613.8265991210938C139.69805908203125 613.5559692382812 139.7242889404297 613.2884521484375 139.7542724609375 613.0238647460938L139.87594604492188 611.6549682617188C139.88320922851562 611.2927856445312 139.89817810058594 610.9259643554688 139.92105102539062 610.5545043945312L140.1664581298828 606.9552001953125C140.17276000976562 606.8529663085938 140.17959594726562 606.7511596679688 140.18699645996094 606.6497192382812L140.22598266601562 604.8658447265625C140.2232666015625 604.45068359375 140.2305908203125 604.0291748046875 140.24826049804688 603.6013793945312L140.413330078125 600.2549438476562C140.4217987060547 599.6854858398438 140.4509735107422 599.1049194335938 140.5017547607422 598.5133666992188C140.56993103027344 597.4470825195312 140.69972229003906 596.4263916015625 140.885986328125 595.451171875L141.44705200195312 591.3279418945312L141.9158477783203 586.6703491210938L141.84854125976562 580.9500732421875C141.8466033935547 580.8862915039062 141.8448944091797 580.8223266601562 141.84339904785156 580.7581787109375L141.76742553710938 576.2948608398438C141.76528930664062 576.2353515625 141.7633514404297 576.1757202148438 141.7615966796875 576.1159057617188L141.6168670654297 570.254150390625C141.60983276367188 570.1362915039062 141.60353088378906 570.0178833007812 141.59799194335938 569.89892578125L141.27078247070312 563.7433471679688C141.25741577148438 563.4365234375 141.2493896484375 563.1329345703125 141.24656677246094 562.83251953125L141.05531311035156 560.1930541992188L141.04583740234375 560.062255859375L141.0387420654297 559.9634399414062L140.7186279296875 555.5018310546875C140.68209838867188 555.0067138671875 140.65977478027344 554.5196533203125 140.65121459960938 554.0407104492188L140.5101776123047 551.6253662109375C140.38148498535156 550.623046875 140.31288146972656 549.5770263671875 140.3096160888672 548.4873046875V544.3731689453125C140.25991821289062 543.4524536132812 140.2655029296875 542.5000610351562 140.3306427001953 541.5167236328125C140.3807830810547 540.263427734375 140.51983642578125 539.07080078125 140.73916625976562 537.9388427734375L141.18898010253906 534.4173583984375C141.19921875 534.336669921875 141.2097930908203 534.2562866210938 141.22068786621094 534.1761474609375L141.27560424804688 533.4183349609375C141.2744140625 532.155517578125 141.3783416748047 530.8383178710938 141.59799194335938 529.4683227539062L142.42127990722656 524.2988891601562L142.5591583251953 522.6787719726562C142.6005401611328 522.1730346679688 142.65518188476562 521.6779174804688 142.72259521484375 521.1932983398438C142.75491333007812 520.380859375 142.8291015625 519.546630859375 142.94772338867188 518.6909790039062L143.43853759765625 515.2552490234375C143.54611206054688 514.4953002929688 143.68272399902344 513.7611694335938 143.84657287597656 513.052734375L144.154296875 511.10382080078125C144.2366485595703 510.6274719238281 144.33023071289062 510.1617431640625 144.43460083007812 509.70654296875L145.19728088378906 505.9093933105469L145.8638153076172 502.2047119140625L146.3280029296875 498.37091064453125L146.38340759277344 496.1545104980469C146.38661193847656 496.06378173828125 146.39024353027344 495.9733581542969 146.3943328857422 495.8832702636719L146.4525146484375 492.6983947753906L146.327392578125 489.2732849121094L146.27780151367188 488.9293518066406C146.01190185546875 487.74871826171875 145.83836364746094 486.4998779296875 145.7681427001953 485.18310546875C145.589111328125 483.3076171875 145.62869262695312 481.54107666015625 145.85760498046875 479.8876037597656L145.87637329101562 479.3642578125C145.87548828125 478.89520263671875 145.88755798339844 478.41815185546875 145.9130401611328 477.9331359863281L146.08694458007812 474.5421447753906C146.0882568359375 473.9337463378906 146.1117401123047 473.3121337890625 146.158447265625 472.6773681640625L146.51748657226562 468.337646484375C146.54318237304688 467.56158447265625 146.60682678222656 466.76531982421875 146.7106170654297 465.94915771484375L147.04371643066406 463.4447021484375C147.09971618652344 462.6235656738281 147.19911193847656 461.7812805175781 147.34457397460938 460.9183349609375L147.8533935546875 457.8489990234375C147.9114990234375 457.4384765625 147.9803924560547 457.0232238769531 148.0603485107422 456.603271484375L148.8444061279297 452.7741394042969L149.34872436523438 449.2726745605469V446.6363830566406C149.34613037109375 446.4224548339844 149.3461151123047 446.2068176269531 149.34872436523438 445.9894714355469V442.6397705078125C149.34291076660156 442.32177734375 149.34286499023438 442.0 149.34872436523438 441.6744384765625L149.4927520751953 436.75970458984375C149.491943359375 436.4051818847656 149.49839782714844 436.0461120605469 149.5123291015625 435.68243408203125L149.65548706054688 430.651611328125C149.68325805664062 429.92633056640625 149.73928833007812 429.2214660644531 149.822021484375 428.5368957519531L149.98269653320312 425.45721435546875C150.02781677246094 424.724365234375 150.10125732421875 424.01312255859375 150.20144653320312 423.32330322265625L150.32669067382812 421.8765563964844C150.3444366455078 421.1714782714844 150.392822265625 420.449462890625 150.47349548339844 419.71063232421875L151.0099334716797 415.0384826660156C151.0355987548828 414.704345703125 151.06805419921875 414.36663818359375 151.1074676513672 414.025390625L151.75042724609375 408.8816833496094C151.76925659179688 408.5814514160156 151.79348754882812 408.2782287597656 151.82322692871094 407.9720458984375L152.47537231445312 401.6369323730469L152.5849151611328 398.21405029296875L152.2117919921875 391.5912170410156C152.1890106201172 391.1314392089844 152.1782684326172 390.6788635253906 152.17916870117188 390.2334899902344L151.88510131835938 385.7458801269531C151.8621063232422 385.5352783203125 151.8414764404297 385.3227844238281 151.82322692871094 385.1083984375L151.27212524414062 378.4134216308594L151.2710723876953 378.400634765625L151.0226593017578 375.5936279296875C150.90750122070312 374.8246154785156 150.82595825195312 374.0288391113281 150.78025817871094 373.2062072753906L150.56375122070312 368.91937255859375C150.46022033691406 367.9481506347656 150.41603088378906 366.9377746582031 150.43617248535156 365.8885192871094C150.4299774169922 364.901123046875 150.4808807373047 363.94879150390625 150.58462524414062 363.03167724609375L150.862060546875 358.3591613769531C150.87034606933594 358.2100524902344 150.8798065185547 358.06182861328125 150.8904266357422 357.91448974609375L151.0069580078125 354.1565856933594L150.8848419189453 350.21832275390625C150.87527465820312 350.0293884277344 150.86767578125 349.83905029296875 150.862060546875 349.64727783203125L150.76148986816406 345.8631286621094C150.6127471923828 344.4640197753906 150.59320068359375 342.9858093261719 150.71884155273438 341.4302062988281C150.76132202148438 340.58721923828125 150.8457794189453 339.77197265625 150.9693603515625 338.98443603515625L151.4142303466797 334.7797546386719C151.44219970703125 334.51629638671875 151.47373962402344 334.2557678222656 151.5087432861328 333.9981994628906L151.99240112304688 329.1614990234375L152.1907501220703 324.9964294433594L152.0874786376953 320.03997802734375C152.0633544921875 319.4925537109375 152.05665588378906 318.93353271484375 152.068115234375 318.3630065917969L152.0684814453125 318.33758544921875Q152.0710906982422 318.1613464355469 152.07603454589844 317.9866638183594L152.2117919921875 311.54803466796875C152.24290466308594 310.2528381347656 152.36500549316406 309.02142333984375 152.56930541992188 307.8535461425781L152.88400268554688 304.3469543457031L153.08384704589844 298.80596923828125Z" fill="black"/>
</svg>
