<svg xmlns="http://www.w3.org/2000/svg" viewBox="0 0 634 1000">
  <path d="M239.7432403564453 111.07452392578125 239.99014282226562 111.08173370361328C241.21470642089844 111.12455749511719 242.40374755859375 111.21685791015625 243.557373046875 111.35584259033203C243.85226440429688 111.38753509521484 244.1487579345703 111.42263793945312 244.4468231201172 111.461181640625C245.66868591308594 111.59974670410156 246.85107421875 111.78610229492188 247.99420166015625 112.017333984375C248.4750213623047 112.0904541015625 248.95980834960938 112.1726303100586 249.4485321044922 112.26403045654297L251.78854370117188 112.74183654785156L253.1699676513672 112.97541809082031C254.58299255371094 113.0641860961914 256.0333251953125 113.23582458496094 257.5197448730469 113.49584197998047C258.947509765625 113.71086120605469 260.3183898925781 113.99214935302734 261.6328125 114.33477783203125C261.7413024902344 114.35892486572266 261.8500061035156 114.38356018066406 261.9588928222656 114.4086685180664L264.56866455078125 115.01176452636719L266.567626953125 115.3649673461914L266.851318359375 115.39710235595703C268.3619384765625 115.49192810058594 269.9163818359375 115.67814636230469 271.5135192871094 115.96215057373047L276.0227355957031 116.77326202392578C276.62646484375 116.88057708740234 277.2196044921875 116.99890899658203 277.8022766113281 117.12791442871094L278.5834045410156 117.26811981201172L279.32708740234375 117.38634490966797C280.0628967285156 117.48126220703125 280.8082275390625 117.59745788574219 281.56304931640625 117.73560333251953L283.2173156738281 118.06228637695312C284.0116882324219 118.17992401123047 284.8167419433594 118.32278442382812 285.6323547363281 118.4917221069336L287.2898254394531 118.86079406738281C288.08807373046875 118.99573516845703 288.8966979980469 119.15653991699219 289.7154235839844 119.34407806396484L292.6520690917969 120.05685424804688C293.2081604003906 120.16854858398438 293.76904296875 120.29288482666016 294.3346252441406 120.43013763427734L297.9863586425781 121.33207702636719C298.3973083496094 121.42681884765625 298.8106384277344 121.52875518798828 299.226318359375 121.63800811767578C300.1406555175781 121.86663055419922 301.02825927734375 122.11971282958984 301.88946533203125 122.39603424072266L304.5408630371094 123.16426849365234C304.6853942871094 123.20062255859375 304.8302001953125 123.23783111572266 304.9753112792969 123.27590942382812L309.53717041015625 124.51283264160156C310.0701599121094 124.6429672241211 310.60711669921875 124.7850570678711 311.14801025390625 124.93936920166016L315.3410339355469 126.12167358398438C315.83734130859375 126.26310729980469 316.3254089355469 126.41154479980469 316.8052978515625 126.56678771972656L321.095458984375 127.7962875366211C321.635986328125 127.94121551513672 322.18035888671875 128.09881591796875 322.7283020019531 128.26931762695312C323.0751037597656 128.37435913085938 323.41778564453125 128.48287963867188 323.75634765625 128.59478759765625L329.8310852050781 130.5209197998047C330.4366455078125 130.71450805664062 331.02935791015625 130.91831970214844 331.609375 131.13201904296875L337.03485107421875 132.9405059814453C337.20135498046875 132.99627685546875 337.36688232421875 133.05282592773438 337.53143310546875 133.11012268066406L341.5565490722656 134.38681030273438C342.12127685546875 134.55050659179688 342.6899719238281 134.7281951904297 343.2625427246094 134.920166015625L350.5625305175781 137.39474487304688C350.6789855957031 137.4338836669922 350.7949523925781 137.47340393066406 350.9104309082031 137.51329040527344L358.4537048339844 139.9105682373047C358.8597412109375 140.04156494140625 359.260009765625 140.17715454101562 359.654541015625 140.3172149658203L365.3454284667969 142.26535034179688C366.12060546875 142.49356079101562 366.9029235839844 142.74859619140625 367.6921081542969 143.03128051757812L371.7923278808594 144.52593994140625C372.6405334472656 144.8008575439453 373.4964904785156 145.10879516601562 374.3597412109375 145.4508819580078L381.4947814941406 148.29664611816406C382.2513427734375 148.5976104736328 382.98577880859375 148.9138641357422 383.6983947753906 149.24464416503906L388.9597473144531 151.5135955810547C389.7759704589844 151.86575317382812 390.5652770996094 152.23536682128906 391.3280944824219 152.62142944335938L395.29742431640625 154.4143524169922C396.4579162597656 154.94680786132812 397.5621337890625 155.51400756835938 398.6114196777344 156.1130828857422L401.01922607421875 157.36619567871094C401.2059631347656 157.45738220214844 401.3929138183594 157.5503387451172 401.580078125 157.64505004882812L404.8000793457031 159.31387329101562L406.82891845703125 160.23728942871094C407.6178283691406 160.5568084716797 408.4117126464844 160.9067840576172 409.2100524902344 161.28817749023438L413.7192687988281 163.48779296875C413.8920593261719 163.57040405273438 414.0635681152344 163.6537628173828 414.23382568359375 163.73788452148438L416.19384765625 164.67010498046875C416.6131286621094 164.87384033203125 417.0248107910156 165.08203125 417.4289855957031 165.29454040527344L418.5447082519531 165.85240173339844C419.0426940917969 166.09771728515625 419.5298767089844 166.34925842285156 420.00634765625 166.60684204101562C421.50262451171875 167.32095336914062 423.00579833984375 168.1576690673828 424.51116943359375 169.1243438720703L425.840576171875 169.98822021484375C427.4612731933594 170.90182495117188 429.0782775878906 171.97154235839844 430.6838684082031 173.2073974609375L433.6275939941406 175.52821350097656C434.31732177734375 176.03384399414062 435.0043640136719 176.57057189941406 435.6880187988281 177.13922119140625L438.5750427246094 179.54505920410156Q438.71917724609375 179.66476440429688 438.86151123046875 179.78501892089844L441.9921569824219 182.27737426757812L444.06683349609375 183.7827911376953C444.7257995605469 184.22216796875 445.3836975097656 184.68821716308594 446.0400085449219 185.1815948486328L450.0780029296875 188.24574279785156C450.1296691894531 188.28277587890625 450.1813659667969 188.31996154785156 450.2330322265625 188.35731506347656L453.8899230957031 190.9831085205078C454.566162109375 191.47203063964844 455.2159423828125 191.97080993652344 455.8397521972656 192.4787139892578L459.21990966796875 195.00291442871094L462.55938720703125 197.4176025390625C463.8298034667969 198.2488250732422 465.0931701660156 199.18179321289062 466.3453063964844 200.22154235839844L466.4377136230469 200.29885864257812C466.7875061035156 200.58192443847656 467.1292419433594 200.8678741455078 467.4629211425781 201.1565704345703L469.3918762207031 202.7703857421875C470.6156311035156 203.7000732421875 471.8243713378906 204.73355102539062 473.0133361816406 205.87574768066406C473.4376220703125 206.27029418945312 473.84820556640625 206.668701171875 474.2452392578125 207.07070922851562L475.2395935058594 208.03582763671875C475.8472900390625 208.59446716308594 476.4486389160156 209.1820068359375 477.04296875 209.7991180419922C477.77655029296875 210.54110717773438 478.46612548828125 211.29237365722656 479.1130065917969 212.0515899658203L481.4296875 214.60289001464844C481.8309020996094 215.02398681640625 482.22857666015625 215.4588165283203 482.6225280761719 215.90760803222656L485.9011535644531 219.66741943359375L487.8421325683594 221.6083984375C488.4817810058594 222.2081298828125 489.1130065917969 222.84107971191406 489.7347412109375 223.50804138183594C490.91546630859375 224.72628784179688 491.9805603027344 225.96669006347656 492.9353942871094 227.2239532470703L495.0779113769531 229.76524353027344C495.5394287109375 230.31906127929688 495.97998046875 230.87513732910156 496.4000244140625 231.43309020996094L498.7210388183594 234.3294677734375C498.8864440917969 234.53565979003906 499.0490417480469 234.7421112060547 499.2088317871094 234.94879150390625L501.896728515625 238.24755859375C501.978271484375 238.3478546142578 502.0591125488281 238.44821166992188 502.1393127441406 238.5486297607422L504.0413818359375 240.87335205078125C504.4736022949219 241.4153289794922 504.8863830566406 241.958984375 505.2801818847656 242.5039825439453L506.2409973144531 243.7191162109375C506.6617736816406 244.2657012939453 507.06329345703125 244.8135986328125 507.4459533691406 245.36251831054688L508.7122802734375 247.01425170898438L511.1919860839844 250.10537719726562L515.2182006835938 254.73098754882812C515.2432861328125 254.76023864746094 515.2683715820312 254.7895050048828 515.2933349609375 254.8187713623047L518.8063354492188 258.7590637207031C519.322998046875 259.3343200683594 519.815673828125 259.91302490234375 520.2848510742188 260.4947204589844L521.3719482421875 261.76214599609375L525.3090209960938 266.0040588378906C525.9140014648438 266.6509094238281 526.4876708984375 267.3029479980469 527.03076171875 267.95941162109375L529.9832153320312 271.2694091796875C530.3778076171875 271.7189025878906 530.7579956054688 272.17034912109375 531.1240234375 272.62347412109375L533.5850830078125 275.46246337890625C533.7753295898438 275.68182373046875 533.962158203125 275.901611328125 534.1456298828125 276.121826171875L536.1008911132812 278.3082275390625C536.2694702148438 278.4982604980469 536.4354248046875 278.6886291503906 536.5988159179688 278.8793640136719L538.5177612304688 280.9599914550781C538.9273071289062 281.3865966796875 539.3329467773438 281.82769775390625 539.7343139648438 282.2835388183594C540.3460693359375 282.963623046875 540.9241333007812 283.6488952636719 541.4692993164062 284.3384704589844L543.5794677734375 286.8658142089844C543.8287353515625 287.1556701660156 544.0762939453125 287.4513244628906 544.322021484375 287.75286865234375L546.4285888671875 290.3545837402344C547.0634155273438 291.0804443359375 547.68603515625 291.84429931640625 548.2951049804688 292.64703369140625L549.2139892578125 293.889892578125C550.0845336914062 294.9552307128906 550.9252319335938 296.09814453125 551.7319946289062 297.32122802734375L554.687744140625 301.7754821777344C554.9930419921875 302.2381591796875 555.2859497070312 302.7007751464844 555.5665283203125 303.1631774902344L557.2396850585938 305.7007141113281L558.0365600585938 306.8419494628906C559.067138671875 308.1494140625 560.0448608398438 309.57232666015625 560.96142578125 311.115234375C561.7308349609375 312.3373107910156 562.412109375 313.5600891113281 563.0093994140625 314.7806396484375L563.9811401367188 316.54046630859375C564.4984741210938 317.487060546875 564.9688110351562 318.42950439453125 565.3937377929688 319.36688232421875C565.7171020507812 319.9834289550781 566.030029296875 320.61761474609375 566.33203125 321.2696533203125L567.5692749023438 323.950439453125C567.6060180664062 324.0297546386719 567.6425170898438 324.1090393066406 567.6786499023438 324.1882629394531L568.600341796875 326.0538330078125C568.6236572265625 326.1033020019531 568.6467895507812 326.1527404785156 568.6698608398438 326.2021484375L569.5076904296875 327.8685302734375C569.767822265625 328.3890075683594 570.0143432617188 328.9078063964844 570.2474975585938 329.42474365234375L571.0790405273438 331.1121520996094C571.2637329101562 331.47491455078125 571.4449462890625 331.8436279296875 571.6224975585938 332.2183532714844L571.65234375 332.2815246582031L571.8596801757812 332.71893310546875L572.7506713867188 334.598388671875C573.05859375 335.1848449707031 573.3570556640625 335.7872619628906 573.645751953125 336.40582275390625L575.13720703125 339.6372985839844C575.6353759765625 340.6104431152344 576.1058349609375 341.6272277832031 576.5465087890625 342.6885070800781L577.4664306640625 344.9883117675781C578.1629028320312 346.4703674316406 578.7891845703125 348.0491638183594 579.3372802734375 349.727294921875L580.5195922851562 353.2742004394531C580.6146850585938 353.5653991699219 580.7061157226562 353.8555603027344 580.7939453125 354.14471435546875L581.798095703125 357.13726806640625C581.8471069335938 357.2829895019531 581.895263671875 357.428466796875 581.9424438476562 357.5736999511719L582.1621704101562 358.15472412109375C582.7225341796875 359.44561767578125 583.2305908203125 360.80609130859375 583.6815185546875 362.2376708984375L584.3853149414062 364.500732421875C584.8756103515625 365.8448181152344 585.3071899414062 367.2575988769531 585.6749267578125 368.74029541015625L586.0392456054688 370.25634765625C586.3519287109375 371.35809326171875 586.623046875 372.5009460449219 586.8497924804688 373.6852722167969C587.132080078125 375.00909423828125 587.3427124023438 376.306396484375 587.4855346679688 377.5761413574219L587.9295043945312 380.3983154296875L587.9300537109375 380.4013977050781L588.4393920898438 383.2463684082031C588.6102294921875 384.0286865234375 588.7613525390625 384.8298034667969 588.8919067382812 385.6499328613281L589.6480102539062 390.3791198730469C589.8375244140625 391.5714111328125 589.9733276367188 392.739013671875 590.0581665039062 393.8815002441406L590.148193359375 394.6497497558594C590.326416015625 395.7532958984375 590.4629516601562 396.8913269042969 590.5553588867188 398.0640563964844L590.9196166992188 402.77838134765625L591.627685546875 407.7836608886719C591.720947265625 408.4309387207031 591.798583984375 409.0707702636719 591.8609619140625 409.70306396484375L592.19775390625 412.09759521484375C592.3134155273438 412.8126220703125 592.4122924804688 413.54217529296875 592.4937744140625 414.2862854003906L592.9052734375 418.0950012207031C593.0256958007812 418.9323425292969 593.1226196289062 419.7890319824219 593.1949462890625 420.6651916503906L593.554443359375 425.5118103027344L593.5663452148438 425.6693115234375L593.5690307617188 425.70562744140625C593.6236572265625 426.3845520019531 593.661865234375 427.0543212890625 593.68408203125 427.71490478515625L593.8007202148438 429.9246520996094C593.86669921875 430.69091796875 593.9124755859375 431.47210693359375 593.9373168945312 432.2682189941406L594.102294921875 437.69854736328125C594.1107177734375 437.95745849609375 594.1168212890625 438.21490478515625 594.12060546875 438.4709167480469L594.1754760742188 440.0006103515625C594.1858520507812 440.2353820800781 594.1942749023438 440.4714660644531 594.2008666992188 440.7088623046875L594.2122192382812 441.0254821777344C594.218505859375 441.2989196777344 594.22216796875 441.5707702636719 594.2233276367188 441.8409729003906L594.2672119140625 444.242431640625C594.2742919921875 444.6996765136719 594.2742309570312 445.15234375 594.2672119140625 445.60040283203125V447.95428466796875C594.2686767578125 448.1103515625 594.2694091796875 448.265869140625 594.2692260742188 448.42083740234375L594.3148803710938 453.10369873046875C594.3193969726562 453.35174560546875 594.3218994140625 453.6011962890625 594.3222045898438 453.85205078125V453.85394287109375C594.3222045898438 453.8900146484375 594.3220825195312 453.926025390625 594.3220825195312 453.9620361328125L594.3179321289062 454.4644470214844L594.2672119140625 460.46466064453125V463.7088623046875C594.281982421875 464.3429260253906 594.28173828125 464.9861145019531 594.2659912109375 465.63818359375C594.25390625 467.1750183105469 594.1620483398438 468.6580810546875 593.9959716796875 470.0874328613281L593.7069702148438 474.1496887207031L593.62646484375 478.938720703125L593.6722412109375 484.43365478515625Q593.67431640625 484.533203125 593.6760864257812 484.633056640625L593.7669677734375 488.35986328125C593.7750244140625 488.58282470703125 593.7813720703125 488.8069763183594 593.7860717773438 489.03228759765625L593.8273315429688 493.3352966308594C593.8400268554688 493.94708251953125 593.8399047851562 494.5506896972656 593.8273315429688 495.1461486816406V497.01190185546875C593.8300170898438 497.28326416015625 593.8300170898438 497.5563049316406 593.8273315429688 497.8309631347656V498.0507507324219C593.8220825195312 498.9449157714844 593.7899169921875 499.8209533691406 593.7320556640625 500.6788635253906L593.6648559570312 502.3423156738281C593.6536254882812 502.770751953125 593.6357421875 503.203125 593.6110229492188 503.639404296875C593.5806274414062 504.2507019042969 593.5379028320312 504.8530578613281 593.4832763671875 505.4464111328125L593.1373901367188 510.09356689453125C593.1011962890625 510.8146667480469 593.0452270507812 511.5462646484375 592.96875 512.288330078125C592.8994140625 513.0570068359375 592.8107299804688 513.8106079101562 592.7034912109375 514.5491333007812L592.2738037109375 518.1361083984375C592.1993408203125 518.7359008789062 592.1136474609375 519.3260498046875 592.01708984375 519.9065551757812L591.4583740234375 523.77001953125C591.3614501953125 524.6034545898438 591.2363891601562 525.4490356445312 591.0821533203125 526.3065795898438C590.884521484375 527.49755859375 590.6423950195312 528.648193359375 590.358642578125 529.7587280273438L589.7313232421875 532.636962890625C589.6558837890625 533.065673828125 589.5731811523438 533.4973754882812 589.4830322265625 533.93212890625L588.1907958984375 540.1048583984375C587.9628295898438 541.198974609375 587.6994018554688 542.257080078125 587.402587890625 543.2794799804688L586.4172973632812 547.2398681640625C586.3294067382812 547.5819702148438 586.2380981445312 547.9202880859375 586.1434936523438 548.2548828125L585.5087280273438 550.8250732421875L585.1107177734375 552.6844482421875C584.945068359375 553.6679077148438 584.7396850585938 554.6668090820312 584.49267578125 555.680908203125L583.25537109375 560.726318359375C583.1233520507812 561.2645874023438 582.9829711914062 561.7936401367188 582.8343505859375 562.3136596679688L582.0730590820312 565.29052734375C581.9671020507812 565.702880859375 581.8562622070312 566.1096801757812 581.7406005859375 566.5111083984375L581.3515014648438 567.9916381835938C581.1197509765625 569.0108642578125 580.8430786132812 570.0444946289062 580.5195922851562 571.092041015625L578.9111328125 576.3986206054688C578.7799682617188 576.8215942382812 578.6438598632812 577.2384643554688 578.5028076171875 577.649169921875L577.5638427734375 580.921630859375C577.3242797851562 581.7227783203125 577.0665893554688 582.5021362304688 576.7916870117188 583.2598876953125C576.3554077148438 584.79736328125 575.8086547851562 586.360595703125 575.1442260742188 587.9466552734375L574.1939697265625 590.1731567382812C573.7431640625 591.4075317382812 573.2179565429688 592.65478515625 572.6146850585938 593.9131469726562L571.3327026367188 596.5411987304688C570.760986328125 597.8562622070312 570.0992431640625 599.1807861328125 569.3427124023438 600.5120239257812L569.3242797851562 600.5442504882812L568.668212890625 601.6924438476562L567.8924560546875 603.0499877929688C567.4179077148438 603.9569702148438 566.8983154296875 604.866455078125 566.33203125 605.7774047851562L564.8258666992188 608.1524658203125C564.489501953125 608.7214965820312 564.134765625 609.2908325195312 563.7611694335938 609.8604125976562L561.506591796875 613.29736328125C561.380859375 613.4889526367188 561.2543334960938 613.6785278320312 561.126953125 613.8662109375L559.0869750976562 617.064208984375C558.7630615234375 617.5703735351562 558.4331665039062 618.0631713867188 558.0977172851562 618.5426635742188L555.9800415039062 621.7246704101562C555.2490234375 622.8076171875 554.4917602539062 623.8265380859375 553.7110595703125 624.7832641601562L553.6369018554688 624.8834228515625C553.3858642578125 625.246826171875 553.126708984375 625.6099853515625 552.8593139648438 625.9727172851562L550.2899169921875 629.4259033203125C549.8311157226562 630.0822143554688 549.3451538085938 630.7368774414062 548.8312377929688 631.3892822265625L545.0231323242188 636.283447265625C544.9019165039062 636.4373168945312 544.7802124023438 636.5897827148438 544.6580200195312 636.74072265625L543.0996704101562 638.8053588867188C542.2481079101562 640.0511474609375 541.2962036132812 641.2877807617188 540.2389526367188 642.5111083984375L540.0722045898438 642.7023315429688C539.8331909179688 642.9839477539062 539.5923461914062 643.2601318359375 539.3497924804688 643.53076171875L537.1929931640625 646.0040893554688C536.678466796875 646.6356201171875 536.1359252929688 647.2632446289062 535.5647583007812 647.886474609375L532.7739868164062 650.9384155273438C532.1947021484375 651.5696411132812 531.6083374023438 652.1719360351562 531.0155639648438 652.7459716796875L530.19091796875 653.603759765625C530.0011596679688 653.8110961914062 529.8082275390625 654.0178833007812 529.6119995117188 654.22412109375L527.7675170898438 656.1387939453125C527.681884765625 656.23388671875 527.5955810546875 656.328857421875 527.5086059570312 656.4237670898438L525.3618774414062 658.7466430664062C525.240234375 658.8844604492188 525.1171875 659.0220947265625 524.9927978515625 659.1595458984375L521.0609741210938 663.5037841796875C520.628173828125 663.9812622070312 520.1912841796875 664.4423828125 519.7505493164062 664.887451171875L517.7108154296875 667.1194458007812C517.3722534179688 667.5106811523438 517.0225830078125 667.9002685546875 516.6617431640625 668.2879638671875L512.478271484375 672.8090209960938L507.53326416015625 678.4337768554688L507.5241394042969 678.4442138671875L504.52154541015625 681.8815307617188C503.9407653808594 682.5862426757812 503.32440185546875 683.2853393554688 502.6714172363281 683.9779052734375C502.2651062011719 684.4196166992188 501.85498046875 684.8469848632812 501.4412841796875 685.2600708007812L496.7963562011719 690.0917358398438C496.6385803222656 690.2550048828125 496.4803771972656 690.4161987304688 496.32171630859375 690.5753784179688L493.11126708984375 694.028564453125C492.398681640625 694.8556518554688 491.6341247558594 695.6716918945312 490.8158874511719 696.474853515625C489.80853271484375 697.5018310546875 488.7822265625 698.4453735351562 487.74041748046875 699.3087158203125L483.8048095703125 702.8770751953125C483.5416564941406 703.1148681640625 483.27777099609375 703.3475952148438 483.01318359375 703.5753784179688L481.4376220703125 705.0253295898438C480.71319580078125 705.7413940429688 479.9446105957031 706.4447021484375 479.1307373046875 707.1337280273438C478.1480712890625 707.9985961914062 477.1548767089844 708.7933959960938 476.1535949707031 709.520751953125L471.8718566894531 712.912841796875C470.6078186035156 713.9049682617188 469.3356018066406 714.7927856445312 468.0591735839844 715.5811157226562L465.64764404296875 717.2484130859375C465.14404296875 717.6195068359375 464.6251525878906 717.9845581054688 464.0906982421875 718.3432006835938L458.7153625488281 721.986328125C458.15191650390625 722.364013671875 457.58843994140625 722.7230224609375 457.025146484375 723.0637817382812L456.21868896484375 723.5995483398438C455.5490417480469 724.07421875 454.85247802734375 724.5360107421875 454.12847900390625 724.984130859375C452.7857971191406 725.8523559570312 451.44366455078125 726.6156616210938 450.10565185546875 727.2794189453125L446.58990478515625 729.2451171875C446.14276123046875 729.4901123046875 445.696533203125 729.7246704101562 445.25128173828125 729.9488525390625L441.1046142578125 732.2008056640625C440.4028015136719 732.5780639648438 439.7033996582031 732.9297485351562 439.0068054199219 733.2564086914062L435.7842712402344 734.9916381835938C434.58270263671875 735.6228637695312 433.3888854980469 736.1798095703125 432.20458984375 736.6658325195312L431.50006103515625 736.9898071289062C430.62200927734375 737.4371337890625 429.7086181640625 737.8622436523438 428.75921630859375 738.2635498046875L424.6761474609375 739.9819946289062C423.9090270996094 740.3057250976562 423.1471862792969 740.6018676757812 422.39093017578125 740.8712158203125L420.39678955078125 741.6590576171875C419.9169921875 741.858154296875 419.427978515625 742.05078125 418.92962646484375 742.2366333007812L413.0731201171875 744.4362182617188C412.9170227050781 744.49462890625 412.76116943359375 744.552001953125 412.6055603027344 744.6082153320312L410.38861083984375 745.498779296875L407.6977844238281 746.6358642578125Q407.22418212890625 746.8336181640625 406.7533264160156 747.0174560546875L405.4767150878906 747.556396484375C404.88934326171875 747.8321533203125 404.28704833984375 748.0982666015625 403.66973876953125 748.3543090820312L396.5569152832031 751.2752075195312C396.10870361328125 751.47119140625 395.6522521972656 751.66162109375 395.18743896484375 751.8462524414062L387.0213317871094 755.1181640625C386.3713073730469 755.3758544921875 385.7254638671875 755.6141357421875 385.08392333984375 755.8335571289062L380.5324401855469 757.5927734375C380.30621337890625 757.6795043945312 380.08050537109375 757.7638549804688 379.8553161621094 757.845947265625L372.5312805175781 760.7135009765625C371.5485534667969 761.0927734375 370.57562255859375 761.4281005859375 369.61309814453125 761.72119140625L363.2378845214844 764.0404052734375C362.8210754394531 764.18896484375 362.40618896484375 764.329833984375 361.9932556152344 764.463134765625L354.3291931152344 767.050537109375C354.2743835449219 767.0691528320312 354.2194519042969 767.0877075195312 354.1644287109375 767.1061401367188L353.9676513671875 767.172607421875L350.21417236328125 768.4402465820312C349.7651062011719 768.6063232421875 349.30841064453125 768.7665405273438 348.8440856933594 768.9208374023438L343.9636535644531 770.5430297851562C343.4907531738281 770.6993408203125 343.02056884765625 770.845947265625 342.5530700683594 770.9830322265625C342.46905517578125 771.0153198242188 342.384765625 771.04736328125 342.3002014160156 771.0792236328125L336.45013427734375 773.2511596679688C335.75274658203125 773.54052734375 335.0357971191406 773.8157958984375 334.299072265625 774.076171875L328.0163879394531 776.28955078125C327.040771484375 776.6334228515625 326.0758361816406 776.9352416992188 325.12213134765625 777.1964721679688L321.53546142578125 778.3187255859375C321.15765380859375 778.4484252929688 320.774658203125 778.5740356445312 320.3864440917969 778.6954345703125L312.7565002441406 781.0599975585938C312.3684997558594 781.1808471679688 311.98236083984375 781.2952270507812 311.59814453125 781.4032592773438L307.5201110839844 782.6838989257812C306.4961853027344 783.0557861328125 305.4327392578125 783.39501953125 304.32916259765625 783.6995239257812L298.77001953125 785.2238159179688Q298.3572082519531 785.3516845703125 297.9365234375 785.4730224609375L291.3788757324219 787.3427124023438C290.8337707519531 787.4998168945312 290.2926330566406 787.6444702148438 289.7555236816406 787.7769775390625L286.6439514160156 788.6434936523438C286.15460205078125 788.7899169921875 285.65704345703125 788.9292602539062 285.15118408203125 789.0611572265625L279.67962646484375 790.5183715820312C279.38116455078125 790.5958251953125 279.0839538574219 790.669677734375 278.78802490234375 790.7398681640625L274.4515075683594 791.8745727539062C273.8424072265625 792.05712890625 273.2205505371094 792.2284545898438 272.5858459472656 792.3880615234375L267.5010986328125 793.6449584960938C266.951416015625 793.7943725585938 266.3917541503906 793.9346313476562 265.8219909667969 794.0653076171875L260.25408935546875 795.3593139648438L259.8521423339844 795.4527587890625L259.37432861328125 795.5637817382812C257.9271545410156 795.895751953125 256.5117492675781 796.1441040039062 255.129150390625 796.3137817382812L249.00860595703125 797.3372192382812C247.69187927246094 797.5565795898438 246.4048309326172 797.7099609375 245.14804077148438 797.8009033203125L238.54664611816406 798.5745239257812C237.71763610839844 798.6692504882812 236.90155029296875 798.7388916015625 236.0984344482422 798.7842407226562L232.71572875976562 799.063232421875C231.71214294433594 799.1832885742188 230.68173217773438 799.2684326171875 229.62440490722656 799.31689453125L221.95143127441406 799.6347045898438C221.17881774902344 799.6962280273438 220.39122009277344 799.7372436523438 219.588623046875 799.7568359375L212.77749633789062 799.91162109375C211.3359375 800.0075073242188 209.8439483642578 800.0264892578125 208.3018035888672 799.9630126953125L207.81658935546875 799.9407348632812L207.3522491455078 799.91943359375L200.7166748046875 799.6146850585938C199.96710205078125 799.609375 199.20518493652344 799.5836791992188 198.4309844970703 799.536865234375L190.54725646972656 799.0659790039062L190.37484741210938 799.0556640625L189.8238525390625 799.0182495117188L183.340576171875 798.5777587890625C182.82974243164062 798.5520629882812 182.3135986328125 798.5167236328125 181.79226684570312 798.471435546875C181.27471923828125 798.4313354492188 180.76393127441406 798.3824462890625 180.25987243652344 798.324951171875L172.20465087890625 797.5477294921875L171.7330322265625 797.502197265625L171.3278045654297 797.4583129882812L163.1140899658203 796.5693359375L156.535400390625 796.0035400390625L148.6383819580078 795.5752563476562L139.30230712890625 795.6737670898438C139.1189422607422 795.67578125 138.9363250732422 795.6766357421875 138.7544403076172 795.6763305664062L131.75950622558594 795.9528198242188C131.53465270996094 795.9668579101562 131.3085479736328 795.979248046875 131.08120727539062 795.9899291992188L122.4339370727539 796.4161376953125C121.68323516845703 796.4517211914062 120.94432830810547 796.4675903320312 120.21722412109375 796.4645385742188L117.47266387939453 796.5514526367188C117.2451171875 796.560546875 117.01634216308594 796.5677490234375 116.78634643554688 796.5731811523438L116.53619384765625 796.5811157226562C115.56746673583984 796.6068725585938 114.6189956665039 796.6004028320312 113.6908187866211 796.5630493164062L110.62470245361328 796.526123046875C109.15254211425781 796.5065307617188 107.73006439208984 796.4144897460938 106.3572006225586 796.2548217773438C105.19615173339844 796.2118530273438 104.00764465332031 796.116455078125 102.79209899902344 795.965576171875C102.45145416259766 795.928955078125 102.11377716064453 795.8885498046875 101.77914428710938 795.8442993164062C99.67236328125 795.70703125 97.488037109375 795.3759765625 95.23171997070312 794.8316650390625C94.1605453491211 794.6053466796875 93.12431335449219 794.3413696289062 92.12276458740234 794.0418701171875C90.36897277832031 793.6232299804688 88.58165740966797 793.0579223632812 86.76592254638672 792.3345947265625C86.30097198486328 792.163330078125 85.84417724609375 791.9852294921875 85.39554595947266 791.8006591796875C84.5692367553711 791.46533203125 83.77019500732422 791.1082153320312 82.99822998046875 790.73046875C81.89510345458984 790.2510375976562 80.78634643554688 789.7067260742188 79.67375183105469 789.0947875976562C78.89608001708984 788.6954956054688 78.14603424072266 788.279541015625 77.42320251464844 787.8478393554688C76.89637756347656 787.544189453125 76.36988067626953 787.223876953125 75.84415435791016 786.8865356445312C74.42609405517578 786.0303955078125 73.02574157714844 785.0433959960938 71.6507797241211 783.9182739257812C70.87796020507812 783.3043823242188 70.14509582519531 782.6735229492188 69.4513931274414 782.0272216796875C66.33245849609375 779.2568969726562 63.92338562011719 776.2660522460938 62.147796630859375 773.1531982421875C60.64483642578125 770.6830444335938 59.52726745605469 768.1800537109375 58.757450103759766 765.677978515625C57.66236877441406 765.064208984375 56.58526611328125 764.3720703125 55.53086853027344 763.598388671875C53.899444580078125 762.5233154296875 52.41978454589844 761.331787109375 51.088157653808594 760.0436401367188C50.10228729248047 759.1014404296875 49.16389465332031 758.0762329101562 48.28044891357422 756.9658813476562C44.852745056152344 753.0711059570312 42.67169189453125 748.70751953125 41.56232833862305 744.1860961914062C40.264469146728516 740.2066040039062 39.81462478637695 736.2951049804688 40.06736755371094 732.5511474609375C40.06974792480469 731.6206665039062 40.11078643798828 730.7066040039062 40.188629150390625 729.8093872070312C40.21107482910156 729.3761596679688 40.24072265625 728.947265625 40.27741622924805 728.5228271484375C40.28959274291992 728.1028442382812 40.30806350708008 727.6791381835938 40.33293533325195 727.2516479492188L40.53915023803711 723.8697509765625C40.593414306640625 722.9383544921875 40.67586898803711 722.0281982421875 40.785282135009766 721.1392211914062L40.953372955322266 719.295654296875L41.07258605957031 717.9881591796875L41.07530975341797 717.958251953125C41.17046356201172 716.96728515625 41.29679489135742 716.001708984375 41.45280075073242 715.0614624023438L41.813804626464844 712.4059448242188C41.911529541015625 711.493896484375 42.042381286621094 710.5667724609375 42.20768356323242 709.625C42.34270477294922 708.7996215820312 42.49928665161133 707.9937133789062 42.67649841308594 707.2069702148438L43.05276107788086 705.301513671875C43.200313568115234 704.3612060546875 43.38386535644531 703.4063110351562 43.60487747192383 702.4371337890625L45.00963592529297 696.37451171875C45.18409729003906 695.4570922851562 45.39360809326172 694.5266723632812 45.639530181884766 693.5836791992188L47.675193786621094 685.8110961914062C47.79185104370117 685.289794921875 47.91974639892578 684.7645263671875 48.05911636352539 684.2352905273438L50.666717529296875 674.4977416992188L52.024620056152344 668.2799682617188C52.04491424560547 668.1591796875 52.065765380859375 668.0380859375 52.087181091308594 667.9168090820312L53.97325897216797 657.3646240234375L55.03169631958008 647.6021728515625C55.05152893066406 647.3544311523438 55.07359313964844 647.1055297851562 55.09791564941406 646.8554077148438L56.06025314331055 637.1907958984375C56.1389274597168 636.3829345703125 56.23835372924805 635.5919799804688 56.35771560668945 634.81787109375L57.1987190246582 628.2437133789062C57.24489974975586 627.8397827148438 57.29730987548828 627.4328002929688 57.356048583984375 627.0230102539062C57.410152435302734 626.62451171875 57.46925354003906 626.2304077148438 57.53324890136719 625.8406372070312L58.206939697265625 621.3760375976562L58.21863555908203 621.2985229492188L58.745609283447266 617.7951049804688C58.792823791503906 617.3895263671875 58.846256256103516 616.9808959960938 58.9060173034668 616.5692749023438L59.61186981201172 611.885986328125C59.62791442871094 611.747314453125 59.64466857910156 611.6083374023438 59.662139892578125 611.4689331054688L60.38536071777344 605.8670043945312C60.39596939086914 605.7685546875 60.40693664550781 605.6699829101562 60.41825866699219 605.5711669921875L61.40414810180664 597.0267944335938C61.43031692504883 596.7601318359375 61.4591178894043 596.4921264648438 61.490577697753906 596.2227783203125L62.554447174072266 586.8944702148438L63.37400817871094 576.8385620117188C63.420692443847656 576.2792358398438 63.47737121582031 575.7278442382812 63.54377746582031 575.1843872070312L64.14877319335938 568.433349609375C64.16925048828125 568.0486450195312 64.19508361816406 567.6609497070312 64.22636413574219 567.2702026367188L65.0374755859375 557.4544067382812C65.05653381347656 557.2153930664062 65.0774154663086 556.9778442382812 65.10011291503906 556.7417602539062L65.78838348388672 547.250244140625C65.8117446899414 546.716552734375 65.8454818725586 546.1769409179688 65.88982391357422 545.6314086914062L66.87177276611328 533.8353881835938C66.88212585449219 533.634765625 66.8939208984375 533.4332885742188 66.90715026855469 533.2310180664062L67.77325439453125 520.1295166015625C67.83843994140625 519.15234375 67.9345474243164 518.1989135742188 68.06015014648438 517.26904296875L68.71357727050781 510.30902099609375C68.75006866455078 509.8608093261719 68.79402160644531 509.40869140625 68.84557342529297 508.95263671875L68.85494995117188 508.8719787597656L68.90203094482422 508.46697998046875L70.19158172607422 497.37457275390625C70.24232482910156 496.6791687011719 70.3113021850586 495.9742736816406 70.39905548095703 495.2599792480469L71.98902893066406 482.57965087890625L73.21714782714844 470.4270935058594C73.23837280273438 470.0106201171875 73.2658920288086 469.5905456542969 73.29981231689453 469.16693115234375L74.0674057006836 459.9314270019531C74.09235382080078 459.4674377441406 74.12513732910156 458.9990234375 74.1659164428711 458.5262451171875L75.31107330322266 445.6114501953125C75.32221984863281 445.4261779785156 75.3345947265625 445.2402038574219 75.34821319580078 445.05352783203125L76.23422241210938 433.03253173828125C76.25846099853516 432.3076171875 76.30201721191406 431.5716552734375 76.36553955078125 430.82470703125L77.46139526367188 418.5024108886719C77.48272705078125 418.04986572265625 77.51148986816406 417.59307861328125 77.54783630371094 417.1320495605469L78.26026153564453 408.4479064941406C78.29470825195312 407.8756408691406 78.34124755859375 407.2967834472656 78.40019226074219 406.7113342285156L79.49932861328125 395.8369140625C79.55265045166016 394.96307373046875 79.63497924804688 394.07403564453125 79.74746704101562 393.1698913574219L81.0103530883789 382.89923095703125C81.03630828857422 382.6578369140625 81.0644302368164 382.41534423828125 81.09473419189453 382.1717529296875L82.2455062866211 373.2162170410156C82.29319763183594 372.6246337890625 82.35400390625 372.0262451171875 82.42826080322266 371.4211120605469L83.84503936767578 360.2027587890625C83.85797119140625 360.07940673828125 83.8714599609375 359.95574951171875 83.88550567626953 359.8318176269531L85.03409576416016 349.837890625C85.09300994873047 349.0967712402344 85.17276000976562 348.3450012207031 85.2740249633789 347.5826721191406L86.19511413574219 340.7638244628906C86.23751068115234 340.4443054199219 86.2830810546875 340.1275329589844 86.33177185058594 339.8135681152344L86.855224609375 335.75262451171875C86.89434814453125 335.3321838378906 86.94005584716797 334.9083557128906 86.99247741699219 334.48114013671875L87.802490234375 327.9164733886719C87.82005310058594 327.7406921386719 87.8387451171875 327.5643310546875 87.85858154296875 327.3873596191406L88.61346435546875 320.98162841796875C88.65245819091797 320.41943359375 88.70318603515625 319.8509521484375 88.76593017578125 319.2762451171875L89.99992370605469 308.5090026855469C90.05586242675781 307.8135986328125 90.13009643554688 307.1087951660156 90.22317504882812 306.3946838378906L91.67229461669922 295.1736755371094C91.68797302246094 295.0284118652344 91.70442962646484 294.8827209472656 91.72167205810547 294.7366638183594L93.02146911621094 283.9805603027344C93.084228515625 283.22796630859375 93.1685562133789 282.4644470214844 93.27516174316406 281.6901550292969L94.45745849609375 273.0428771972656C94.51911926269531 272.60003662109375 94.58683776855469 272.16259765625 94.66048431396484 271.7304992675781L95.96969604492188 261.4948425292969C96.05638885498047 260.8297424316406 96.15680694580078 260.1766052246094 96.27051544189453 259.5354309082031L97.61284637451172 250.55792236328125C97.61949920654297 250.50091552734375 97.62627410888672 250.44384765625 97.63316345214844 250.38673400878906L99.01012420654297 239.09835815429688L99.72280883789062 231.85488891601562C99.77070617675781 231.3904571533203 99.8254165649414 230.93165588378906 99.88677978515625 230.4784698486328L100.90510559082031 221.59913635253906C100.9292984008789 221.3894805908203 100.95486450195312 221.18099975585938 100.98179626464844 220.9736785888672L101.5411605834961 214.69644165039062C101.57630920410156 213.91213989257812 101.63438415527344 213.11521911621094 101.71621704101562 212.30572509765625L102.46377563476562 205.2039337158203L103.04974365234375 198.076904296875C103.08248138427734 197.6973114013672 103.11981964111328 197.32139587402344 103.16166687011719 196.9491424560547L103.50006866455078 192.25086975097656C103.5150146484375 191.63922119140625 103.54350280761719 191.01959228515625 103.58589935302734 190.3919677734375L104.05606842041016 183.94393920898438L104.23204040527344 178.58273315429688C104.23780059814453 178.4290008544922 104.24433898925781 178.27581787109375 104.25164794921875 178.1232147216797L104.32344055175781 173.67193603515625C104.31865692138672 173.11622619628906 104.32475280761719 172.55352783203125 104.3420181274414 171.98385620117188L104.50699615478516 165.6874237060547C104.53317260742188 164.81480407714844 104.58450317382812 163.96009826660156 104.65998840332031 163.12327575683594L104.80704498291016 160.8023681640625C104.82781219482422 160.35792541503906 104.8560562133789 159.9094696044922 104.89192199707031 159.45703125C104.95930480957031 158.40817260742188 105.06259155273438 157.38653564453125 105.1999740600586 156.39202880859375C105.27891540527344 155.47085571289062 105.39178466796875 154.5338592529297 105.53997802734375 153.5814208984375C105.62638854980469 152.95375061035156 105.72541809082031 152.33688354492188 105.83666229248047 151.73086547851562C106.01984405517578 150.5446319580078 106.26359558105469 149.33648681640625 106.57109832763672 148.10740661621094C106.6184310913086 147.8977813720703 106.6671371459961 147.68951416015625 106.71720123291016 147.4826202392578C106.75324249267578 147.32595825195312 106.7904281616211 147.1690216064453 106.82876586914062 147.0117950439453C108.60813903808594 115.45733642578125 145.30258178710938 108.0685043334961 163.43345642089844 124.8453140258789C168.82762145996094 116.75144958496094 178.0417938232422 111.02674102783203 191.07598876953125 111.02674102783203H235.09298706054688C236.0749969482422 110.9913558959961 237.07960510253906 110.99080657958984 238.10671997070312 111.02674102783203L238.5703887939453 111.040283203125C238.9581298828125 111.04597473144531 239.34909057617188 111.0573501586914 239.7432403564453 111.07452392578125ZM527.6185913085938 453.90704345703125V448.5454406738281L527.5748901367188 445.8125915527344C527.5701904296875 445.64727783203125 527.56640625 445.4813537597656 527.5635986328125 445.31475830078125L527.5086059570312 442.3177490234375C527.5017700195312 441.8856201171875 527.5013427734375 441.45758056640625 527.5071411132812 441.0336608886719L527.50439453125 440.9579772949219C527.4828491210938 440.5896911621094 527.4659423828125 440.2181091308594 527.45361328125 439.8431701660156L527.3024291992188 434.3578796386719C527.2985229492188 434.23370361328125 527.2951049804688 434.10986328125 527.292236328125 433.9863586425781L527.1233520507812 430.92095947265625L526.7179565429688 426.1738586425781L526.2451171875 421.7973327636719L525.5839233398438 417.0220642089844C525.5426635742188 416.7170104980469 525.5048217773438 416.41363525390625 525.4703979492188 416.1119689941406L525.2120971679688 414.3169860839844C524.9070434570312 412.782470703125 524.6849365234375 411.1777038574219 524.5528564453125 409.5021057128906L524.08056640625 403.3887634277344L523.5905151367188 399.56256103515625C523.5764770507812 399.4434509277344 523.5628662109375 399.3245849609375 523.5498657226562 399.20599365234375L523.2705688476562 397.43865966796875Q523.2159423828125 397.1617126464844 523.1643676757812 396.8817443847656L522.429931640625 392.7793273925781C522.2825317382812 392.0679626464844 522.1513061523438 391.34124755859375 522.0370483398438 390.5990905761719L521.4451293945312 386.7967529296875L521.2677001953125 386.0583801269531L520.173828125 382.6220397949219L519.71923828125 381.4197692871094C519.3184204101562 380.47021484375 518.94482421875 379.4837951660156 518.6001586914062 378.45989990234375L517.4390258789062 375.033447265625C517.3186645507812 374.695068359375 517.2015991210938 374.35247802734375 517.087890625 374.0056457519531L516.3543701171875 371.6977844238281L515.2234497070312 369.00286865234375L513.1697998046875 364.6022644042969C512.9845581054688 364.2041320800781 512.8070068359375 363.80718994140625 512.6370849609375 363.4114685058594L511.77374267578125 361.5902099609375C511.739501953125 361.5221252441406 511.7053527832031 361.4538269042969 511.67132568359375 361.38531494140625L509.78790283203125 357.57720947265625Q509.669677734375 357.3389892578125 509.55517578125 357.1012268066406L509.09002685546875 356.1761169433594C508.82012939453125 355.6609191894531 508.55743408203125 355.1334228515625 508.30218505859375 354.5935363769531L508.2893981933594 354.56646728515625C508.02130126953125 354.0078430175781 507.7690734863281 353.4511413574219 507.53216552734375 352.89666748046875L507.3716125488281 352.5426330566406C507.28253173828125 352.3572082519531 507.1943359375 352.1702880859375 507.1070861816406 351.9819030761719L506.2864074707031 350.2037353515625L506.2409973144531 350.11224365234375L505.17388916015625 347.9569091796875L504.2057189941406 346.2035827636719L502.4328918457031 343.6645812988281C501.876953125 342.8705749511719 501.3591613769531 342.07568359375 500.8783874511719 341.2806396484375L499.05096435546875 338.50921630859375L496.29095458984375 334.4259033203125L495.9021911621094 333.9229431152344L495.8752746582031 333.8899841308594L493.51776123046875 330.9380798339844C493.2847900390625 330.67144775390625 493.05328369140625 330.3998107910156 492.8232727050781 330.1231384277344L489.8988952636719 326.5866394042969L486.5406188964844 322.93310546875C486.00762939453125 322.3495178222656 485.49969482421875 321.7620849609375 485.0162353515625 321.1712951660156L483.4198913574219 319.38623046875C483.09661865234375 319.0216369628906 482.7828674316406 318.65570068359375 482.4785461425781 318.28857421875L479.7217712402344 315.1519470214844C479.3858947753906 314.7640380859375 479.0605773925781 314.3747863769531 478.7456970214844 313.9843444824219L476.97418212890625 311.9983215332031C476.8494873046875 311.8685302734375 476.7251281738281 311.7374267578125 476.6010437011719 311.60504150390625L472.51800537109375 307.1920471191406C471.63421630859375 306.24749755859375 470.8172607421875 305.2919006347656 470.0648193359375 304.3275146484375L469.0136413574219 303.0782775878906L466.0098571777344 299.76513671875C465.5250549316406 299.2549743652344 465.0455627441406 298.7245788574219 464.57183837890625 298.173583984375L460.3788146972656 293.2381896972656C459.7995910644531 292.5632019042969 459.2522277832031 291.8843078613281 458.73590087890625 291.2022705078125L457.10552978515625 289.20635986328125L456.9222717285156 288.9820251464844L456.6257019042969 288.61895751953125C456.2607421875 288.1629333496094 455.9095458984375 287.7057189941406 455.5719299316406 287.2474670410156L453.40875244140625 284.4259338378906L451.580322265625 282.06134033203125C451.52569580078125 281.99041748046875 451.4714050292969 281.9194641113281 451.4174499511719 281.8485107421875L449.9718322753906 280.0816650390625C449.7668151855469 279.8245849609375 449.5661926269531 279.567138671875 449.369873046875 279.3093566894531L447.1994934082031 276.6816101074219L446.96673583984375 276.3998107910156L446.85113525390625 276.25982666015625C446.6086730957031 275.9612121582031 446.37213134765625 275.6620788574219 446.14154052734375 275.3623962402344L443.9735107421875 272.6106262207031C443.9290771484375 272.557861328125 443.88470458984375 272.5048828125 443.84039306640625 272.45172119140625L441.14288330078125 269.2026672363281L439.1504821777344 267.1770324707031C438.44598388671875 266.50537109375 437.75103759765625 265.79364013671875 437.0669860839844 265.040771484375C436.5311279296875 264.468505859375 436.0203552246094 263.89154052734375 435.5341796875 263.3104553222656L432.88885498046875 260.3130187988281L429.36602783203125 256.444580078125L427.8247985839844 254.95516967773438L424.3550720214844 252.0604705810547L421.2615051269531 249.84048461914062C420.7170104980469 249.46823120117188 420.17333984375 249.07762145996094 419.6307678222656 248.66827392578125L414.25543212890625 244.6402130126953C413.9488220214844 244.4082794189453 413.6478576660156 244.1743621826172 413.35247802734375 243.9385528564453L412.24169921875 243.14097595214844C411.71148681640625 242.77833557128906 411.1820068359375 242.39834594726562 410.6535339355469 242.0006561279297L405.9793395996094 238.50875854492188C405.7603759765625 238.3440704345703 405.5442810058594 238.17837524414062 405.3310546875 238.01170349121094L403.1051940917969 236.40150451660156C402.5407409667969 236.0122833251953 401.97760009765625 235.60289001464844 401.41619873046875 235.1729278564453C400.78936767578125 234.70419311523438 400.1861572265625 234.22683715820312 399.6060791015625 233.74147033691406L396.4247131347656 231.20875549316406C395.9490966796875 230.82814025878906 395.4878234863281 230.44296264648438 395.04071044921875 230.05348205566406L393.2832336425781 228.6148223876953L391.3072509765625 227.08392333984375L389.62701416015625 225.99813842773438L388.0411071777344 225.14419555664062C387.7019958496094 224.99012756347656 387.362060546875 224.8303680419922 387.0213317871094 224.6648712158203L385.4032897949219 223.85585021972656C385.2462463378906 223.78305053710938 385.08905029296875 223.7090301513672 384.9316711425781 223.6337890625L381.4293212890625 221.9253387451172Q381.2491455078125 221.8457794189453 381.068603515625 221.7641143798828L376.87554931640625 219.8806915283203C375.86444091796875 219.4219970703125 374.895751953125 218.9368896484375 373.9686584472656 218.42723083496094L372.0692443847656 217.47752380371094C371.84771728515625 217.3692626953125 371.62591552734375 217.2584991455078 371.40399169921875 217.1448974609375C371.3395690917969 217.11216735839844 371.2753601074219 217.079345703125 371.2113037109375 217.04640197753906C371.13311767578125 217.00619506835938 371.05523681640625 216.96583557128906 370.97760009765625 216.92532348632812C370.797119140625 216.8311309814453 370.6181335449219 216.73611450195312 370.44061279296875 216.64028930664062L366.64727783203125 214.63021850585938L363.0040283203125 212.9534454345703C362.8302001953125 212.8810272216797 362.6560974121094 212.80718994140625 362.48175048828125 212.73190307617188L356.5774230957031 210.1642608642578L350.73980712890625 207.83596801757812L345.92108154296875 206.08477783203125C345.85980224609375 206.06436157226562 345.7984924316406 206.0437774658203 345.73712158203125 206.02304077148438L338.6786193847656 203.6107940673828Q338.3388671875 203.50735473632812 337.9971923828125 203.39724731445312L331.27978515625 201.20654296875C330.64154052734375 201.02455139160156 329.9981994628906 200.82469177246094 329.34991455078125 200.60647583007812L323.6263122558594 198.66627502441406C323.2265625 198.55007934570312 322.8248291015625 198.42698669433594 322.42108154296875 198.29685974121094L316.2483825683594 196.30345153808594C315.4969482421875 196.061279296875 314.7652893066406 195.8033905029297 314.0531921386719 195.53048706054688L310.4408874511719 194.32638549804688C310.1415710449219 194.23776245117188 309.8410949707031 194.14524841308594 309.5395202636719 194.04884338378906L302.8683166503906 191.93357849121094L296.919189453125 190.24073791503906C296.4847106933594 190.11497497558594 296.0565490722656 189.98387145996094 295.63470458984375 189.84754943847656L294.2651672363281 189.4613800048828C294.2498779296875 189.6632843017578 294.2332763671875 189.8641815185547 294.2153625488281 190.06405639648438L294.1344909667969 191.25999450683594C294.1229248046875 191.7536163330078 294.1026306152344 192.25247192382812 294.07342529296875 192.75656127929688L293.8572082519531 195.71844482421875C293.8559875488281 195.75303649902344 293.8547668457031 195.7876434326172 293.85345458984375 195.82228088378906L293.6344909667969 202.21885681152344C293.6243591308594 202.89422607421875 293.59759521484375 203.5794677734375 293.5537414550781 204.2745361328125C293.52862548828125 204.7207489013672 293.49688720703125 205.16217041015625 293.4586181640625 205.59872436523438L293.1853942871094 209.3297119140625C293.1647033691406 209.81727600097656 293.13543701171875 210.30978393554688 293.09735107421875 210.80723571777344L292.499267578125 218.20556640625C292.4806213378906 218.7575225830078 292.4509582519531 219.31590270996094 292.4099426269531 219.8806915283203L292.0250244140625 224.7611083984375C292.0049133300781 225.0332489013672 291.9824523925781 225.30352783203125 291.9576110839844 225.57196044921875L291.7950744628906 228.02432250976562C291.78692626953125 228.2779083251953 291.7765197753906 228.53285217285156 291.7638244628906 228.78916931152344L291.3869323730469 236.4849090576172C291.3758850097656 236.87220764160156 291.3594970703125 237.26271057128906 291.337646484375 237.65640258789062L291.06268310546875 242.5368194580078C291.0262451171875 243.1759796142578 290.9765319824219 243.80514526367188 290.9139099121094 244.4243621826172L290.7598876953125 246.8014678955078C290.7428283691406 247.1223907470703 290.721923828125 247.44540405273438 290.6971130371094 247.7705078125L290.6914978027344 247.85716247558594C290.6287536621094 248.74893188476562 290.5404357910156 249.6208953857422 290.4275207519531 250.47311401367188L289.900390625 255.38023376464844C289.877685546875 255.63003540039062 289.85272216796875 255.8810272216797 289.8254089355469 256.13323974609375L288.5331115722656 267.83251953125C288.46527099609375 268.453857421875 288.3852844238281 269.0650634765625 288.2935485839844 269.6661376953125L286.924072265625 279.9604797363281C286.86810302734375 280.4337463378906 286.8035888671875 280.91107177734375 286.7303161621094 281.3924560546875C286.7120361328125 281.51812744140625 286.6932678222656 281.6433410644531 286.6739807128906 281.76812744140625L285.37115478515625 290.50238037109375C285.3117980957031 290.88787841796875 285.2478942871094 291.2691955566406 285.17950439453125 291.6463928222656L283.75909423828125 300.93951416015625L282.4666442871094 311.8875732421875C282.4207763671875 312.3439636230469 282.3670959472656 312.8042907714844 282.305419921875 313.2685241699219L280.84429931640625 324.09979248046875L280.0903625488281 330.4798278808594C280.0386047363281 331.0378112792969 279.97509765625 331.6017150878906 279.89959716796875 332.1715393066406L278.4755554199219 342.66351318359375L277.2600402832031 352.79302978515625C277.16278076171875 353.6000061035156 277.0451965332031 354.3895568847656 276.9080810546875 355.16180419921875L275.76153564453125 363.5849304199219C275.7456970214844 363.6985778808594 275.72943115234375 363.8119201660156 275.7127990722656 363.92486572265625L274.905517578125 370.3149719238281L274.0430908203125 379.9584045410156C274.0392150878906 380.0005187988281 274.0352478027344 380.0426025390625 274.03125 380.0846252441406L273.4519348144531 389.04559326171875C273.41375732421875 389.64056396484375 273.3641357421875 390.2267761230469 273.3033447265625 390.8042297363281L272.5308532714844 400.09869384765625C272.47271728515625 400.7953186035156 272.3990478515625 401.4795837402344 272.3103942871094 402.15155029296875L271.6583251953125 408.0927429199219C271.6315002441406 408.3822021484375 271.6015625 408.67327880859375 271.5685119628906 408.9659423828125L270.2762145996094 420.29400634765625C270.1932373046875 421.0201110839844 270.09368896484375 421.7322082519531 269.9781799316406 422.430419921875L268.6677551269531 432.0482482910156C268.5506896972656 432.8987731933594 268.4112548828125 433.7294921875 268.2503967285156 434.54052734375L266.6880798339844 443.9262390136719C266.65423583984375 444.1275329589844 266.619140625 444.3276672363281 266.58282470703125 444.5266418457031L265.32861328125 452.4914855957031C265.23974609375 453.14666748046875 265.1336975097656 453.80926513671875 265.0100402832031 454.47906494140625C264.8729553222656 455.2678527832031 264.7165222167969 456.0386962890625 264.54156494140625 456.79168701171875L263.5910339355469 461.385986328125C263.5329895019531 461.7366943359375 263.4701232910156 462.0895080566406 263.40240478515625 462.4443359375L261.5105895996094 472.2641906738281L259.9252624511719 482.41033935546875C259.8907165527344 482.6643371582031 259.8537292480469 482.91949462890625 259.81427001953125 483.17578125L258.7049255371094 490.327392578125C258.69903564453125 490.3768005371094 258.6930236816406 490.4263000488281 258.68695068359375 490.4757995605469L257.38458251953125 500.88299560546875C257.3303527832031 501.52569580078125 257.26055908203125 502.1763610839844 257.1747131347656 502.8349304199219L255.73178100585938 513.90185546875L255.7255401611328 513.9498291015625L254.38394165039062 525.2848510742188C254.36868286132812 525.4140625 254.35292053222656 525.5428466796875 254.3366241455078 525.6712036132812L253.74903869628906 531.6004028320312C253.7145538330078 531.998779296875 253.67417907714844 532.4002685546875 253.62782287597656 532.8048095703125L252.5027313232422 542.7081909179688L252.50018310546875 542.7305908203125L251.48460388183594 552.9720458984375L251.48345947265625 552.9863891601562L250.84902954101562 560.9571533203125C250.83030700683594 561.2722778320312 250.80799865722656 561.5894775390625 250.7820587158203 561.9086303710938L250.1761016845703 569.4119873046875C250.15280151367188 569.7362060546875 250.1256866455078 570.0625 250.09466552734375 570.3909301757812L249.52792358398438 576.18212890625C249.46124267578125 577.3239135742188 249.34400939941406 578.4913940429688 249.173583984375 579.684326171875L247.93629455566406 588.2216186523438C247.8912353515625 588.5347290039062 247.84315490722656 588.8450927734375 247.7921142578125 589.1527709960938L246.7539825439453 596.64892578125C246.7235870361328 596.8657836914062 246.69174194335938 597.081298828125 246.658447265625 597.2955932617188L246.1485595703125 601.6746826171875L245.5304412841797 609.1043090820312Q245.52374267578125 609.1832275390625 245.51675415039062 609.261962890625L245.1455078125 616.088134765625C245.12872314453125 616.377685546875 245.10923767089844 616.6651611328125 245.0870361328125 616.9505615234375L244.94674682617188 620.701416015625C244.94871520996094 621.0579833984375 244.94625854492188 621.4173583984375 244.93930053710938 621.7796630859375L244.77432250976562 628.5985107421875C244.77267456054688 628.6834716796875 244.77078247070312 628.7681884765625 244.76864624023438 628.852783203125L244.74761962890625 630.7605590820312C244.80545043945312 632.248046875 244.7797393798828 633.7867431640625 244.6643524169922 635.3760986328125L244.23291015625 640.8631591796875C244.20884704589844 641.4063720703125 244.1740264892578 641.9556884765625 244.12818908691406 642.5111083984375L243.62872314453125 648.4581298828125C243.58749389648438 649.0972290039062 243.53091430664062 649.7445068359375 243.4585723876953 650.3998413085938C243.42562866210938 650.7223510742188 243.3892822265625 651.042236328125 243.349609375 651.3594360351562L243.02842712402344 654.1885986328125C242.9384002685547 655.4225463867188 242.7882843017578 656.6856079101562 242.57470703125 657.9772338867188L241.41851806640625 664.7146606445312C241.2926483154297 665.7451782226562 241.1241912841797 666.7943115234375 240.91123962402344 667.86181640625L239.07752990722656 676.8027954101562C238.99533081054688 677.2374267578125 238.90545654296875 677.6749877929688 238.80783081054688 678.1154174804688C238.7157745361328 678.5487670898438 238.61805725097656 678.9764404296875 238.5148162841797 679.3983764648438L236.8920440673828 686.4879150390625C236.73696899414062 687.285400390625 236.5555877685547 688.0926513671875 236.34701538085938 688.9094848632812L234.83177185058594 694.7425537109375C234.67372131347656 695.4220581054688 234.49618530273438 696.1080932617188 234.29861450195312 696.8005981445312L231.6728057861328 706.0390625C231.36752319335938 707.1094360351562 231.02969360351562 708.1415405273438 230.6613311767578 709.135986328125L228.60708618164062 715.5936889648438C228.53208923339844 715.8243408203125 228.4556121826172 716.0531005859375 228.37767028808594 716.2799682617188L226.58413696289062 722.2771606445312L225.67921447753906 725.8470458984375L225.17747497558594 728.4981079101562C225.0448455810547 729.3580322265625 224.88238525390625 730.2303466796875 224.68899536132812 731.11474609375L224.3177490234375 732.785400390625L226.41720581054688 732.6891479492188L231.1138916015625 732.2815551757812L238.61968994140625 731.4618530273438L245.12960815429688 730.3715209960938L250.52362060546875 729.1741333007812L256.3773498535156 727.6778564453125Q256.87554931640625 727.5531616210938 257.3688659667969 727.4418334960938L262.2580261230469 726.1228637695312L262.6600341796875 726.014404296875C262.7288818359375 725.99609375 262.79766845703125 725.9779663085938 262.8662414550781 725.9594116210938L268.3515625 724.515869140625C268.54425048828125 724.4658203125 268.7364196777344 724.4172973632812 268.92803955078125 724.3702392578125L272.11285400390625 723.4810791015625C272.3960266113281 723.3929443359375 272.6820068359375 723.30712890625 272.97076416015625 723.2236328125L279.45965576171875 721.3952026367188C279.9722595214844 721.2470092773438 280.4813537597656 721.10986328125 280.9869079589844 720.9834594726562L284.890869140625 719.9051513671875C285.06817626953125 719.846435546875 285.2466125488281 719.7886352539062 285.4261474609375 719.731689453125L292.3232727050781 717.56591796875C292.52935791015625 717.4984741210938 292.73699951171875 717.4321899414062 292.94610595703125 717.3671264648438L300.5210876464844 715.0162353515625C300.8095703125 714.926513671875 301.0970153808594 714.8402709960938 301.3834228515625 714.757568359375L307.0649719238281 712.9678344726562C307.1280517578125 712.9482421875 307.1910705566406 712.9288940429688 307.2540588378906 712.90966796875L311.1598815917969 711.5300903320312C311.26092529296875 711.4912109375 311.36236572265625 711.4526977539062 311.4642028808594 711.4143676757812L318.87420654296875 708.6235961914062C319.7060241699219 708.3108520507812 320.53057861328125 708.029296875 321.3475341796875 707.7780151367188L322.75103759765625 707.2763061523438C323.2185974121094 707.1182861328125 323.68359375 706.9697875976562 324.14599609375 706.8306274414062L327.8514099121094 705.6128540039062Q328.2784118652344 705.4715576171875 328.7024841308594 705.3407592773438L332.5181884765625 704.0419921875C332.6074523925781 704.0109252929688 332.6969909667969 703.9800415039062 332.7868347167969 703.9494018554688L340.787841796875 701.2132568359375L340.8210144042969 701.201904296875L349.270263671875 698.202880859375Q349.34716796875 698.1754150390625 349.4239807128906 698.1483154296875L355.35614013671875 695.8358154296875C355.7898864746094 695.652587890625 356.2312316894531 695.4746704101562 356.68023681640625 695.3021240234375L362.7567138671875 692.9924926757812C363.093017578125 692.86328125 363.42816162109375 692.7391967773438 363.76214599609375 692.6201782226562L369.8108215332031 690.1864624023438C369.92889404296875 690.1361694335938 370.0475158691406 690.0863037109375 370.16668701171875 690.0367431640625L378.1130676269531 686.765380859375L378.2176818847656 686.7215576171875L380.1884460449219 685.8964233398438C380.76959228515625 685.621826171875 381.3653564453125 685.356689453125 381.9759216308594 685.1013793945312L384.4847717285156 684.0853881835938C384.9986267089844 683.862060546875 385.5233459472656 683.6461791992188 386.0589904785156 683.4379272460938L388.1349182128906 682.6075439453125C388.651123046875 682.3909301757812 389.1780700683594 682.181884765625 389.7158508300781 681.9806518554688L389.97528076171875 681.8856201171875L390.22406005859375 681.7945556640625L394.9800109863281 680.0529174804688L399.3254699707031 678.2825317382812C399.47509765625 678.2227783203125 399.62451171875 678.1640014648438 399.7737121582031 678.1062622070312L401.7541198730469 677.2727661132812L401.800048828125 677.25146484375L405.6824645996094 675.47802734375L409.8011779785156 673.2783813476562C410.0152893066406 673.1658935546875 410.2291564941406 673.0557861328125 410.4427795410156 672.947998046875L414.7915954589844 670.5975952148438C415.0059814453125 670.482666015625 415.2201232910156 670.3700561523438 415.43402099609375 670.2598876953125L419.0325012207031 668.2882690429688L421.6654052734375 666.5145263671875C421.9949951171875 666.2957763671875 422.3245544433594 666.0833129882812 422.654052734375 665.8771362304688L426.9307556152344 662.9676513671875C427.0400695800781 662.894287109375 427.1494140625 662.8217163085938 427.25872802734375 662.749755859375L431.8978576660156 659.5422973632812L435.7830505371094 656.4553833007812L437.953125 654.4583740234375C438.3150329589844 654.1073608398438 438.687255859375 653.7588500976562 439.0699462890625 653.4130249023438L443.6525573730469 649.3018188476562L448.4595947265625 644.11962890625C448.920166015625 643.6282348632812 449.38494873046875 643.1547241210938 449.85357666015625 642.6987915039062L454.2024841308594 638.175048828125L456.98809814453125 634.9486694335938L457.2718505859375 634.6199951171875L462.3722229003906 628.7634887695312C463.0217590332031 628.0194702148438 463.6817321777344 627.3136596679688 464.3509826660156 626.6451416015625L467.49853515625 623.2799072265625C467.544677734375 623.2288818359375 467.5910339355469 623.1779174804688 467.6375732421875 623.126953125L471.0852966308594 619.3193359375C471.2575988769531 619.1217041015625 471.4327087402344 618.9244995117188 471.61065673828125 618.7276611328125L474.5478210449219 615.5059814453125C474.91619873046875 615.0702514648438 475.2980651855469 614.6363525390625 475.6936950683594 614.2047119140625L478.37451171875 611.3176879882812C478.8524475097656 610.7980346679688 479.3351745605469 610.2979736328125 479.82232666015625 609.8171997070312L481.3302307128906 608.251953125C481.4361267089844 608.140625 481.5422058105469 608.0302734375 481.6485290527344 607.9208374023438L484.12103271484375 605.2962036132812C484.16162109375 605.2539672851562 484.2022705078125 605.2118530273438 484.242919921875 605.169921875L486.4306335449219 602.7666625976562L486.5172119140625 602.6725463867188L488.9501953125 599.8493041992188L492.1221618652344 595.631591796875C492.56866455078125 595.0379638671875 493.0225524902344 594.4653930664062 493.4833679199219 593.9135131835938L496.3883972167969 590.193359375L498.46875 587.3973999023438C498.7275695800781 587.025634765625 498.9949035644531 586.6541748046875 499.27093505859375 586.283203125L501.2227783203125 583.6575317382812L502.7500915527344 581.3861694335938C502.8043212890625 581.3001098632812 502.8589782714844 581.2139892578125 502.9140625 581.1278686523438L504.75823974609375 578.275146484375C505.0757751464844 577.7415771484375 505.4095458984375 577.2076416015625 505.75982666015625 576.673583984375L507.36383056640625 574.267578125C507.4198303222656 574.176025390625 507.476318359375 574.0844116210938 507.53326416015625 573.9927978515625L509.5697021484375 570.7293090820312L510.8955383300781 568.3782958984375L512.0411987304688 565.9693603515625L513.0923461914062 563.4884033203125L513.6138916015625 561.923828125C513.626220703125 561.8821411132812 513.6385498046875 561.8403930664062 513.6510009765625 561.7986450195312L514.71630859375 558.3011474609375C514.8539428710938 557.7886352539062 515.0028076171875 557.2726440429688 515.1632080078125 556.7532348632812L516.4636840820312 552.5939331054688L517.52783203125 548.5321655273438C517.6690063476562 547.9935302734375 517.8184814453125 547.46435546875 517.97607421875 546.9444580078125L518.4691162109375 545.0165405273438L518.4901733398438 544.9302368164062L519.391845703125 541.2535400390625C519.4116821289062 541.1549072265625 519.431884765625 541.05615234375 519.4525146484375 540.9572143554688L520.0162353515625 538.2011108398438C520.1721801757812 537.3262939453125 520.3596801757812 536.4393310546875 520.5797729492188 535.5405883789062L520.742431640625 534.8899536132812L521.7070922851562 531.0313720703125C521.839599609375 530.4937744140625 521.98046875 529.9652709960938 522.1294555664062 529.4459228515625L523.06005859375 525.705322265625L524.1817016601562 520.335693359375C524.297119140625 519.7825317382812 524.4215698242188 519.2385864257812 524.5548706054688 518.7037963867188L525.3056030273438 515.080078125L526.193603515625 509.32012939453125L526.60546875 505.910400390625L527.0427856445312 500.0906066894531L527.1370239257812 497.7584228515625L527.137451171875 497.6795654296875L527.1842041015625 494.3972473144531L527.0824584960938 490.37957763671875C527.0765380859375 490.0906677246094 527.0735473632812 489.8035888671875 527.0733032226562 489.518310546875L527.0274658203125 485.7603454589844C527.0219116210938 485.4340515136719 527.02001953125 485.1100769042969 527.0216674804688 484.7884521484375L526.9820556640625 480.037841796875C526.9623413085938 479.3577880859375 526.958984375 478.6669921875 526.9724731445312 477.9654235839844L527.0824584960938 471.4215393066406C527.1087646484375 470.0504150390625 527.1978149414062 468.7228698730469 527.345703125 467.43878173828125L527.5750732421875 464.21380615234375L527.6185913085938 460.2996826171875V453.90704345703125ZM191.07598876953125 177.67538452148438C182.8936004638672 177.67538452148438 176.21664428710938 175.4193572998047 171.0450897216797 171.73744201660156L170.99066162109375 174.0185089111328C170.98648071289062 174.15606689453125 170.981689453125 174.2931671142578 170.9762725830078 174.42984008789062L170.90475463867188 178.86306762695312C170.9154052734375 179.5827178955078 170.9075927734375 180.3141326904297 170.88067626953125 181.0572967529297L170.6954345703125 186.30203247070312C170.68626403808594 186.73170471191406 170.67037963867188 187.16537475585938 170.6476593017578 187.6029815673828C170.61676025390625 188.29466247558594 170.5700225830078 188.974853515625 170.5079345703125 189.6436004638672L170.1833038330078 194.0956268310547C170.16744995117188 194.41700744628906 170.1478729248047 194.74050903320312 170.1245574951172 195.066162109375L169.5334014892578 203.28726196289062C169.488525390625 203.91665649414062 169.43089294433594 204.53616333007812 169.36087036132812 205.14581298828125L168.88726806640625 210.91720581054688C168.84962463378906 211.361572265625 168.80564880371094 211.8009033203125 168.75550842285156 212.2352294921875L168.2034149169922 217.85838317871094C168.18603515625 218.10055541992188 168.1665496826172 218.34390258789062 168.1448974609375 218.58840942382812L167.3936309814453 226.56080627441406C167.34791564941406 227.43482971191406 167.27334594726562 228.32431030273438 167.16880798339844 229.22909545898438L166.04150390625 239.09991455078125C165.99435424804688 239.5080108642578 165.9419708251953 239.9116668701172 165.8844757080078 240.31092834472656L165.29913330078125 246.41366577148438C165.20457458496094 247.31813049316406 165.08416748046875 248.20123291015625 164.93902587890625 249.0630645751953L164.0193328857422 256.8335266113281C163.94778442382812 257.62396240234375 163.8522491455078 258.4262390136719 163.7318878173828 259.240234375L162.2101287841797 269.369140625C162.183349609375 269.607421875 162.15444946289062 269.84674072265625 162.1234130859375 270.0871276855469L160.56993103027344 281.91009521484375C160.4981689453125 282.4659423828125 160.41680908203125 283.0133972167969 160.3260955810547 283.5525207519531L159.5277557373047 289.3916015625C159.5018768310547 289.6506042480469 159.47349548339844 289.910888671875 159.442626953125 290.1724548339844L158.0125274658203 301.91229248046875C157.9759063720703 302.258544921875 157.934814453125 302.6070251464844 157.88914489746094 302.957763671875L156.50125122070312 313.65924072265625C156.4800262451172 313.88543701171875 156.45689392089844 314.1126403808594 156.431884765625 314.3408203125L155.10252380371094 325.9532470703125C155.08016967773438 326.18280029296875 155.05587768554688 326.41339111328125 155.02963256835938 326.6449890136719L154.34800720214844 332.769287109375C154.29669189453125 333.56121826171875 154.2217254638672 334.3655700683594 154.12228393554688 335.1822814941406L153.32904052734375 341.3355712890625C153.2821807861328 341.8367614746094 153.2258758544922 342.34271240234375 153.15994262695312 342.85345458984375L152.42843627929688 348.43841552734375C152.38877868652344 348.8104553222656 152.3439483642578 349.1850891113281 152.29383850097656 349.56231689453125L151.38650512695312 356.3948974609375C151.3591766357422 356.6003723144531 151.33053588867188 356.8046875 151.30059814453125 357.0078430175781L150.1492156982422 367.29681396484375C150.0892791748047 367.8275146484375 150.02049255371094 368.35076904296875 149.94309997558594 368.8665771484375L148.75550842285156 378.7178955078125C148.7240753173828 379.02423095703125 148.6891632080078 379.3323059082031 148.6507110595703 379.6421813964844L147.48370361328125 388.6236267089844C147.43629455566406 389.2023010253906 147.37632751464844 389.7874755859375 147.30345153808594 390.3791198730469L146.04945373535156 400.1773986816406C146.03733825683594 400.3111877441406 146.0245819091797 400.44537353515625 146.01116943359375 400.5798645019531L144.7247772216797 413.306884765625L144.1314239501953 421.07550048828125C144.1068115234375 421.5616760253906 144.0735626220703 422.052734375 144.03150939941406 422.5486145019531L142.84921264648438 436.46124267578125C142.82008361816406 436.79876708984375 142.78733825683594 437.13336181640625 142.75100708007812 437.465087890625L141.8731231689453 449.87896728515625C141.8377227783203 450.3583068847656 141.794921875 450.8319091796875 141.74490356445312 451.2997741699219L140.74057006835938 462.62640380859375C140.718505859375 463.1017761230469 140.688232421875 463.58184814453125 140.6495819091797 464.0665588378906L139.80584716796875 474.2046813964844L139.78350830078125 474.4735412597656L139.7831268310547 474.4779052734375C139.7474365234375 474.9231262207031 139.7053985595703 475.3633728027344 139.65713500976562 475.798583984375L138.33998107910156 489.3484802246094C138.262939453125 490.1211242675781 138.16702270507812 490.8782653808594 138.0529327392578 491.6199951171875L136.62152099609375 503.42608642578125C136.56329345703125 503.8946533203125 136.49822998046875 504.3573303222656 136.42649841308594 504.8141174316406L135.13619995117188 516.1803588867188L134.25692749023438 525.5460815429688C134.24838256835938 525.6339721679688 134.23959350585938 525.7216796875 134.23056030273438 525.8091430664062L133.44581604003906 537.6302490234375C133.4073486328125 538.2075805664062 133.35812377929688 538.7766723632812 133.29843139648438 539.3375244140625L132.3734893798828 551.0617065429688C132.35084533691406 551.3359375 132.3258056640625 551.6082763671875 132.2983856201172 551.8787231445312L131.52113342285156 562.6097412109375C131.46963500976562 563.29248046875 131.40313720703125 563.9635009765625 131.32211303710938 564.6228637695312L130.71002197265625 572.5355834960938C130.65878295898438 573.176513671875 130.5944061279297 573.8070678710938 130.5172882080078 574.42724609375L129.9240264892578 581.1541748046875C129.90264892578125 581.5364990234375 129.8759765625 581.9218139648438 129.8439178466797 582.3101196289062L129.0020294189453 592.1832885742188C128.97828674316406 592.5057983398438 128.95066833496094 592.8303833007812 128.91908264160156 593.1568603515625C128.859130859375 593.8438720703125 128.78404235839844 594.5188598632812 128.69427490234375 595.1818237304688L127.69928741455078 603.8939819335938C127.67440795898438 604.1093139648438 127.6480712890625 604.3234252929688 127.62030029296875 604.5362548828125L126.86085510253906 611.1083984375C126.80684661865234 611.8991088867188 126.72916412353516 612.7020874023438 126.62696838378906 613.517333984375L125.81585693359375 619.7449951171875C125.7476806640625 620.2888793945312 125.67028045654297 620.82470703125 125.58390808105469 621.3526611328125L124.90851593017578 626.1376953125C124.8183364868164 626.7581176757812 124.71629333496094 627.3678588867188 124.60275268554688 627.967041015625L124.2027587890625 630.5560913085938C124.16990661621094 630.8006591796875 124.13479614257812 631.0463256835938 124.09740447998047 631.2930297851562L123.3709487915039 636.1777954101562L122.3399658203125 644.63720703125L122.3381118774414 644.6558227539062L121.47160339355469 653.3580322265625C121.411865234375 653.966552734375 121.34040832519531 654.5654907226562 121.25757598876953 655.1548461914062L120.34107208251953 663.6080932617188C120.26827239990234 664.5833740234375 120.15754699707031 665.5767211914062 120.0072021484375 666.5877075195312C119.8687973022461 667.6443481445312 119.6944808959961 668.670654296875 119.48617553710938 669.6668090820312L117.77348327636719 679.56103515625C117.57042694091797 680.7012939453125 117.32814025878906 681.803955078125 117.0489273071289 682.869384765625L115.72508239746094 689.1294555664062C115.49513244628906 690.193359375 115.23174285888672 691.2227783203125 114.93682098388672 692.2181396484375L112.56311798095703 701.2686157226562C112.4556655883789 701.6756591796875 112.34344482421875 702.0772705078125 112.2265625 702.4735717773438L110.19852447509766 710.3970336914062C110.14412689208984 710.6052856445312 110.08848571777344 710.8121948242188 110.03160095214844 711.0176391601562L108.68009185791016 716.9998779296875L108.1063461303711 720.0546264648438C109.71381378173828 723.1160888671875 110.8946533203125 726.4102783203125 111.59967803955078 729.7963256835938L112.27847290039062 729.845703125L116.05502319335938 729.8912353515625L116.10519409179688 729.8919067382812L118.58050537109375 729.820068359375C118.80970001220703 729.8053588867188 119.0401840209961 729.7924194335938 119.27197265625 729.78125L127.9742431640625 729.3963012695312C128.4210968017578 729.375244140625 128.86376953125 729.3612060546875 129.30226135253906 729.3539428710938L135.57273864746094 729.10498046875C136.54034423828125 729.026611328125 137.531494140625 728.9811401367188 138.5461883544922 728.9701538085938L147.09552001953125 728.88037109375C148.08583068847656 728.8372802734375 149.09910583496094 728.8306884765625 150.13519287109375 728.8622436523438C151.2520294189453 728.878662109375 152.34033203125 728.9382934570312 153.4000244140625 729.0388793945312L157.44915771484375 729.2810668945312C157.52232360839844 727.3133544921875 157.75830078125 725.2713012695312 158.1725616455078 723.158447265625C158.38372802734375 721.8972778320312 158.64845275878906 720.6815795898438 158.96311950683594 719.5111083984375L159.54507446289062 716.865234375L159.98886108398438 714.5203857421875C160.18875122070312 713.1691284179688 160.46493530273438 711.7880249023438 160.82191467285156 710.37841796875L160.83114624023438 710.342041015625C160.93016052246094 709.9273071289062 161.03504943847656 709.51806640625 161.14520263671875 709.1143188476562L161.80191040039062 706.5471801757812C162.04653930664062 705.3796997070312 162.34979248046875 704.1927490234375 162.71456909179688 702.987060546875L164.54542541503906 697.0032958984375C164.72296142578125 696.3500366210938 164.91905212402344 695.6912841796875 165.1341552734375 695.0271606445312L167.86993408203125 686.599853515625C167.88607788085938 686.5502319335938 167.90228271484375 686.5006713867188 167.91856384277344 686.4512329101562L169.82098388671875 679.7977905273438C169.85275268554688 679.668701171875 169.8852081298828 679.5393676757812 169.9183349609375 679.4098510742188L171.7330322265625 672.3710327148438C171.761474609375 672.2598266601562 171.79026794433594 672.1489868164062 171.8194122314453 672.03857421875L173.6731719970703 663.9746704101562L175.49989318847656 654.8153076171875C175.52151489257812 654.7069091796875 175.5435028076172 654.598876953125 175.56582641601562 654.4912109375L176.67300415039062 647.7959594726562L177.1584014892578 643.5204467773438L177.57521057128906 638.5282592773438C177.59288024902344 638.1405639648438 177.61595153808594 637.749755859375 177.64451599121094 637.3557739257812L178.08731079101562 631.0808715820312L178.11776733398438 628.3463745117188C178.11680603027344 628.02490234375 178.1194305419922 627.7010498046875 178.1256866455078 627.3749389648438L178.2356719970703 620.5423583984375C178.2510223388672 619.7418212890625 178.2877197265625 618.9560546875 178.34498596191406 618.1851806640625L178.5106201171875 612.9261474609375C178.53732299804688 612.2131958007812 178.5807647705078 611.5123291015625 178.640380859375 610.8235473632812L178.95001220703125 605.9210815429688C178.97189331054688 605.116943359375 179.01760864257812 604.2991943359375 179.08802795410156 603.4677734375L179.65631103515625 596.77099609375C179.7061309814453 595.8712768554688 179.7866668701172 594.9552612304688 179.89913940429688 594.0231323242188L180.4695281982422 589.4807739257812C180.53187561035156 588.7994995117188 180.6119384765625 588.109375 180.7102508544922 587.4105224609375L181.89254760742188 578.8732299804688C181.9733428955078 578.2969360351562 182.0643768310547 577.729736328125 182.16539001464844 577.171630859375L183.11306762695312 570.248046875L183.1151885986328 570.2258911132812L183.6640167236328 564.50390625L183.66636657714844 564.4794921875L184.2983856201172 556.478271484375C184.3202667236328 556.2092895507812 184.34445190429688 555.9420776367188 184.37094116210938 555.6767578125L184.97079467773438 548.1403198242188C185.00462341308594 547.5628051757812 185.05075073242188 546.978515625 185.1094970703125 546.3875122070312L186.1268310546875 536.1317749023438C186.16761779785156 535.7227783203125 186.2136993408203 535.3180541992188 186.2649688720703 534.917724609375L187.34945678710938 525.359130859375L187.9387969970703 519.412109375C187.98414611816406 518.779296875 188.04449462890625 518.1384887695312 188.1202392578125 517.4899291992188L189.5087432861328 506.10687255859375C189.55416870117188 505.7179260253906 189.6043243408203 505.3330383300781 189.6591339111328 504.9521484375L190.9113006591797 495.3902893066406C190.94390869140625 495.06475830078125 190.98045349121094 494.7371826171875 191.02099609375 494.4076232910156L192.27548217773438 484.33721923828125C192.35580444335938 483.3587951660156 192.4732666015625 482.3620910644531 192.6294708251953 481.34735107421875L193.9217529296875 472.97503662109375C193.9687042236328 472.6701354980469 194.01849365234375 472.3678283691406 194.07110595703125 472.0681457519531L195.4877471923828 462.9449462890625C195.54917907714844 462.5041809082031 195.6182861328125 462.0600280761719 195.69517517089844 461.6126403808594C195.80499267578125 460.9303894042969 195.92919921875 460.2613525390625 196.06727600097656 459.6054382324219L197.8948211669922 449.87896728515625C198.0265655517578 449.19207763671875 198.17247009277344 448.5191345214844 198.3319854736328 447.8599853515625L199.368408203125 442.8506164550781L200.89181518554688 433.1893005371094C200.9339141845703 432.9226989746094 200.97816467285156 432.65814208984375 201.0245819091797 432.3955383300781L202.6359405517578 422.7880554199219L204.0109405517578 412.78814697265625L204.0125274658203 412.7740478515625L205.3048095703125 401.44598388671875L206.15716552734375 393.5548095703125C206.18165588378906 393.3388366699219 206.2075958251953 393.1240539550781 206.23500061035156 392.9105529785156L206.90817260742188 384.76837158203125L206.9132843017578 384.6875915527344L207.55941772460938 374.706787109375C207.62606811523438 373.6875 207.726318359375 372.69390869140625 207.85853576660156 371.7259216308594L208.44906616210938 365.12261962890625C208.5024871826172 364.30255126953125 208.58140563964844 363.46917724609375 208.68673706054688 362.6225891113281L209.5154266357422 355.91015625C209.56814575195312 355.3939208984375 209.63095092773438 354.8727111816406 209.7040557861328 354.34649658203125L210.9883575439453 345.4049377441406C211.00807189941406 345.2195739746094 211.02906799316406 345.0335388183594 211.05133056640625 344.84686279296875L212.1416778564453 335.7607116699219C212.19296264648438 335.21160888671875 212.25559997558594 334.6567687988281 212.32986450195312 334.0962219238281L213.74949645996094 323.6363830566406L214.59117126464844 316.41851806640625L214.62623596191406 316.1177673339844L214.63946533203125 316.0043029785156C214.68382263183594 315.63623046875 214.73243713378906 315.2717590332031 214.78518676757812 314.9109191894531L216.1699676513672 304.7264099121094L217.54022216796875 293.0182189941406C217.65744018554688 292.0355224609375 217.80487060546875 291.07861328125 217.9810333251953 290.1473083496094L219.2804412841797 281.4151916503906C219.32383728027344 281.078125 219.37155151367188 280.739013671875 219.42364501953125 280.3978576660156L220.710693359375 272.1204528808594L220.71592712402344 272.0805358886719L222.32440185546875 259.8863525390625C222.35574340820312 259.6504211425781 222.38880920410156 259.4160461425781 222.42356872558594 259.1831359863281L223.50669860839844 248.9294891357422C223.5312042236328 248.70571899414062 223.55726623535156 248.4832763671875 223.58489990234375 248.26214599609375L224.17971801757812 242.76815795898438L224.4690399169922 238.3025360107422C224.494140625 237.94610595703125 224.52334594726562 237.59286499023438 224.5565948486328 237.24276733398438L224.74398803710938 233.9445343017578C224.75755310058594 233.69973754882812 224.7730712890625 233.45640563964844 224.79051208496094 233.21453857421875L225.07577514648438 227.38973999023438C225.08209228515625 226.56503295898438 225.1132354736328 225.7254638671875 225.170166015625 224.87107849121094L225.48635864257812 220.10064697265625C225.5287322998047 219.476318359375 225.5836944580078 218.86166381835938 225.65084838867188 218.25665283203125L225.8112335205078 215.87767028808594C225.8278045654297 215.56883239746094 225.8478240966797 215.25804138183594 225.87130737304688 214.94528198242188L226.50399780273438 207.21485900878906C226.52066040039062 206.8028106689453 226.54342651367188 206.38722229003906 226.5724334716797 205.9680633544922L226.9593048095703 200.46453857421875L227.20481872558594 193.292724609375C227.2347412109375 192.50064086914062 227.2853240966797 191.72349548339844 227.35581970214844 190.96124267578125L227.41046142578125 190.02545166015625C227.42576599121094 189.56103515625 227.44882202148438 189.09205627441406 227.4797821044922 188.61851501464844L227.6912384033203 185.64759826660156C227.7076416015625 185.28421020507812 227.72877502441406 184.91807556152344 227.75473022460938 184.54920959472656L228.23590087890625 177.82659912109375C228.239501953125 177.77613830566406 228.24317932128906 177.72572326660156 228.2469482421875 177.67538452148438H191.07598876953125Z" fill="black"/>
</svg>
