<svg xmlns="http://www.w3.org/2000/svg" viewBox="0 0 599 1000">
  <path d="M128.17974853515625 111.00861358642578C128.5120849609375 111.0112533569336 128.8419189453125 111.01774597167969 129.16921997070312 111.02803802490234L136.96517944335938 111.17677307128906C137.6664581298828 111.19367980957031 138.35621643066406 111.22698974609375 139.03448486328125 111.27616119384766L145.67367553710938 111.4365234375C145.83065795898438 111.4412841796875 145.987060546875 111.44686126708984 146.14288330078125 111.4532470703125L155.0247344970703 111.70994567871094C155.13748168945312 111.71294403076172 155.2499237060547 111.71636199951172 155.36207580566406 111.72020721435547L166.6588592529297 111.9286880493164C166.7335662841797 111.93021392822266 166.80812072753906 111.93192291259766 166.882568359375 111.93382263183594L179.00387573242188 112.07907104492188C179.0792236328125 112.08016967773438 179.15443420410156 112.08145141601562 179.22952270507812 112.08292388916016L188.39593505859375 112.18843841552734C188.47923278808594 112.18923950195312 188.5623779296875 112.19026947021484 188.64535522460938 112.19153594970703L202.8189697265625 112.29780578613281H218.73214721679688L218.78683471679688 112.29798889160156L218.952880859375 112.29853057861328L235.34255981445312 112.35231018066406L235.39724731445312 112.35249328613281H263.9050598144531C264.9143371582031 112.31480407714844 265.9476318359375 112.31419372558594 267.0048828125 112.35249328613281L283.3557434082031 112.95428466796875C283.8292236328125 112.9598159790039 284.3076477050781 112.97334289550781 284.791015625 112.99503326416016L302.8368835449219 113.78795623779297C303.0491638183594 113.79774475097656 303.2603759765625 113.80902099609375 303.4704895019531 113.82176208496094L316.2676086425781 114.40396881103516C316.7882385253906 114.4030990600586 317.3149719238281 114.411865234375 317.8477783203125 114.43049621582031L332.0010986328125 114.93690490722656C332.2875061035156 114.94424438476562 332.57568359375 114.9545669555664 332.8656005859375 114.96790313720703C333.5703430175781 114.99441528320312 334.2633361816406 115.03746795654297 334.9444580078125 115.09649658203125L350.740478515625 116.13938903808594C350.93505859375 116.15259552001953 351.128662109375 116.16702270507812 351.32135009765625 116.18267059326172L366.7630310058594 117.15105438232422C367.0643005371094 117.17037963867188 367.3633117675781 117.19265747070312 367.6600646972656 117.21784973144531L378.4787902832031 117.81433868408203C378.7835388183594 117.8282699584961 379.09027099609375 117.84558868408203 379.3988952636719 117.86632537841797C379.8386535644531 117.89390563964844 380.2737731933594 117.9278793334961 380.7041320800781 117.96807861328125L395.3642272949219 119.15673828125C395.8822021484375 119.17555236816406 396.4058837890625 119.20413970947266 396.9352111816406 119.24273681640625L414.24285888671875 120.51414489746094C414.56719970703125 120.53817749023438 414.888916015625 120.56560516357422 415.2079772949219 120.59638214111328L430.361083984375 121.48479461669922C430.60577392578125 121.49925994873047 430.8489990234375 121.51567840576172 431.0907287597656 121.53402709960938L437.8938903808594 121.79923248291016C438.0290832519531 121.80496215820312 438.16387939453125 121.8113021850586 438.2981872558594 121.8182373046875L443.9808044433594 121.90089416503906L452.5043640136719 121.76451873779297C452.655517578125 121.7571029663086 452.8072204589844 121.75044250488281 452.95947265625 121.74455261230469L466.3071594238281 121.24544525146484C466.5186767578125 121.23258972167969 466.7312927246094 121.22122955322266 466.94500732421875 121.21137237548828L479.5497741699219 120.6781997680664C479.6720886230469 120.67259216308594 479.7940979003906 120.66751861572266 479.915771484375 120.66295623779297L487.3195495605469 120.30036926269531L493.39263916015625 119.58531951904297C493.9254150390625 119.51264953613281 494.46600341796875 119.44966888427734 495.0143737792969 119.39663696289062C495.87298583984375 119.30433654785156 496.7176513671875 119.23934173583984 497.5482482910156 119.2006607055664L501.4422302246094 118.91810607910156C501.5951843261719 118.9061508178711 501.7487487792969 118.89501190185547 501.90289306640625 118.88468170166016L502.24383544921875 118.85993957519531C503.12335205078125 118.79943084716797 503.9871520996094 118.76643371582031 504.8351745605469 118.7598876953125C506.15277099609375 118.67381286621094 507.5127258300781 118.6522445678711 508.9148254394531 118.69947814941406C509.4305725097656 118.70879364013672 509.94024658203125 118.72757720947266 510.44378662109375 118.755615234375L510.6789245605469 118.76424407958984C516.2037353515625 118.98995208740234 520.99560546875 120.22344207763672 525.0650634765625 122.20561218261719C553.7117919921875 136.04568481445312 546.697021484375 186.7666778564453 507.9583740234375 185.02816772460938H507.8489990234375C507.74774169921875 185.02365112304688 507.6467590332031 185.018798828125 507.5459899902344 185.01361083984375L506.4996032714844 185.04806518554688L501.5262145996094 185.3976593017578L496.1363220214844 186.0238037109375C494.5735778808594 186.28366088867188 492.9411315917969 186.45558166503906 491.23858642578125 186.531982421875L491.0638732910156 186.53939819335938C490.68023681640625 186.5611114501953 490.299560546875 186.57723999023438 489.921875 186.58787536621094L482.91656494140625 186.88528442382812C482.810791015625 186.89093017578125 482.70477294921875 186.89620971679688 482.59844970703125 186.90110778808594L469.9936828613281 187.4889678955078C469.5320739746094 187.51011657714844 469.074951171875 187.5238037109375 468.622314453125 187.53018188476562L455.5159606933594 188.0221405029297C454.6981506347656 188.0537567138672 453.8945617675781 188.0620880126953 453.1053161621094 188.0480194091797L445.4714050292969 188.170166015625C444.9489440917969 188.18675231933594 444.4200744628906 188.19371032714844 443.8849792480469 188.1907958984375C443.4712219238281 188.1912841796875 443.0613098144531 188.1858673095703 442.6552429199219 188.17465209960938L435.96624755859375 188.0768280029297C435.0699157714844 188.0626983642578 434.19219970703125 188.0216064453125 433.33306884765625 187.9546661376953L426.99798583984375 187.70770263671875C426.22808837890625 187.675048828125 425.4724426269531 187.622802734375 424.7310791015625 187.55169677734375L409.8544006347656 186.682373046875C409.2091064453125 186.6441650390625 408.5740966796875 186.59234619140625 407.9493408203125 186.52731323242188L392.08197021484375 185.4109649658203C391.38677978515625 185.3594207763672 390.70379638671875 185.29222106933594 390.0329284667969 185.20989990234375L375.11883544921875 184.0517578125L364.07037353515625 183.44326782226562C363.5652770996094 183.42945861816406 363.0546875 183.4064178466797 362.5386657714844 183.37396240234375L347.127197265625 182.3543701171875C346.8566589355469 182.34141540527344 346.5846252441406 182.3258514404297 346.31103515625 182.3076171875L329.8782043457031 181.22268676757812L316.44219970703125 180.741943359375C316.0572509765625 180.73594665527344 315.6690673828125 180.72470092773438 315.2776184082031 180.70809936523438L300.4295349121094 180.0877685546875C300.23480224609375 180.08169555664062 300.03924560546875 180.07431030273438 299.8428955078125 180.0655517578125L283.50836181640625 179.28594970703125C283.0340881347656 179.28497314453125 282.5547790527344 179.27603149414062 282.0704650878906 179.2589569091797L264.6534423828125 178.6164093017578H257.3151550292969L257.33001708984375 179.8656768798828C257.3336486816406 179.98663330078125 257.3367614746094 180.10794067382812 257.3393859863281 180.22959899902344L257.3883972167969 183.34088134765625C257.39044189453125 183.406494140625 257.392333984375 183.47219848632812 257.3940734863281 183.5380096435547L257.46307373046875 186.7027130126953C257.5108642578125 187.38165283203125 257.542724609375 188.0720977783203 257.5581359863281 188.7740478515625L257.63311767578125 193.16648864746094C257.6498107910156 193.64060974121094 257.658203125 194.12001037597656 257.658203125 194.6045684814453C257.6835632324219 196.10963439941406 257.63055419921875 197.56472778320312 257.5044860839844 198.9697723388672L257.42877197265625 200.64968872070312C257.41680908203125 201.0093994140625 257.400146484375 201.37185668945312 257.3786926269531 201.73707580566406C257.3528137207031 202.233642578125 257.3187561035156 202.72421264648438 257.2767639160156 203.20875549316406L256.9849853515625 207.27716064453125C256.9704284667969 207.7622528076172 256.9473571777344 208.2523956298828 256.91558837890625 208.74755859375L256.3824157714844 216.96389770507812C256.3598327636719 217.31578063964844 256.333251953125 217.66458129882812 256.30267333984375 218.01031494140625L256.01092529296875 223.3896942138672C255.9982147216797 223.89447021484375 255.97628784179688 224.4047393798828 255.9449462890625 224.92050170898438L255.5779266357422 230.86611938476562C255.5616912841797 231.61550903320312 255.52476501464844 232.3769989013672 255.46644592285156 233.1505126953125L254.99209594726562 239.29690551757812C254.95542907714844 240.4427032470703 254.86837768554688 241.6158447265625 254.72821044921875 242.8159942626953L253.497802734375 253.1240234375C253.45274353027344 253.5098419189453 253.4029998779297 253.89166259765625 253.34864807128906 254.26951599121094L252.4743194580078 262.2665100097656C252.46092224121094 262.422119140625 252.44664001464844 262.5782165527344 252.43145751953125 262.73480224609375L251.7723846435547 269.4215087890625C251.73281860351562 269.9263916015625 251.6837158203125 270.436279296875 251.62486267089844 270.951171875L250.50680541992188 280.8057861328125L250.50344848632812 280.8353576660156L249.43748474121094 291.3074645996094C249.36300659179688 292.04718017578125 249.27113342285156 292.7725524902344 249.16249084472656 293.4836730957031L248.17092895507812 301.1101989746094C248.14828491210938 301.3278503417969 248.1239013671875 301.5464172363281 248.09771728515625 301.765869140625L247.35321044921875 308.1902770996094L246.38882446289062 318.5403137207031L246.38531494140625 318.57916259765625L245.88563537597656 326.30816650390625C245.85797119140625 327.0168151855469 245.81173706054688 327.7359619140625 245.7462921142578 328.465576171875L244.99139404296875 336.7350769042969C244.9683074951172 337.1960144042969 244.9374542236328 337.66131591796875 244.898681640625 338.13104248046875L244.0920867919922 347.9058837890625C244.0656280517578 348.2229919433594 244.0359344482422 348.5375061035156 244.0030517578125 348.8494873046875L243.66830444335938 353.78448486328125L243.668212890625 353.78564453125L243.18978881835938 363.9284362792969C243.17820739746094 364.1746520996094 243.1646270751953 364.41937255859375 243.14907836914062 364.6626281738281L242.91497802734375 372.8954772949219C242.92477416992188 373.4093017578125 242.92530822753906 373.92919921875 242.91636657714844 374.4552001953125L242.76597595214844 382.9449768066406C242.74847412109375 383.90289306640625 242.7001495361328 384.8394775390625 242.62232971191406 385.7547607421875L242.1466827392578 395.9538879394531C242.14013671875 396.137451171875 242.13238525390625 396.32171630859375 242.12344360351562 396.5067138671875L241.53558349609375 409.7540588378906C241.4803466796875 410.8977355957031 241.38211059570312 412.0096435546875 241.24319458007812 413.08990478515625L240.41455078125 424.1087341308594C240.36619567871094 424.74322509765625 240.30484008789062 425.3675231933594 240.2309112548828 425.9816589355469H241.65789794921875C242.52084350585938 425.9550476074219 243.4009246826172 425.9566955566406 244.29800415039062 425.9878845214844C245.76943969726562 426.0127868652344 247.19081115722656 426.1120910644531 248.56210327148438 426.28070068359375L252.2674102783203 426.56951904296875C252.8357696533203 426.6135559082031 253.3959503173828 426.66796875 253.94798278808594 426.7325439453125L258.24169921875 427.1026916503906C258.5386657714844 427.12933349609375 258.8333435058594 427.1587829589844 259.1257629394531 427.1910095214844L263.69647216796875 427.5811767578125C264.24029541015625 427.6274108886719 264.77655029296875 427.6831359863281 265.3052673339844 427.74810791015625L272.2033386230469 428.4330749511719C272.88104248046875 428.4735107421875 273.5680236816406 428.5311584472656 274.2642517089844 428.60650634765625L281.7373962402344 429.4482421875C282.3202209472656 429.49200439453125 282.90972900390625 429.5485534667969 283.50592041015625 429.6181945800781L292.8569641113281 430.7392272949219C293.7337951660156 430.84271240234375 294.59002685546875 430.97039794921875 295.4257507324219 431.1212463378906L303.2264099121094 432.2958679199219C303.6087951660156 432.34100341796875 303.9939270019531 432.3917236328125 304.3817138671875 432.4480895996094L312.447998046875 433.65087890625C313.29144287109375 433.73675537109375 314.1481018066406 433.8504333496094 315.0178527832031 433.9929504394531L322.0584716796875 435.1686706542969C322.70550537109375 435.27490234375 323.3406066894531 435.3939208984375 323.9637756347656 435.52532958984375L326.0584411621094 435.9028625488281C326.6781311035156 435.9981689453125 327.30438232421875 436.1087646484375 327.93707275390625 436.2350158691406L330.72894287109375 436.8052978515625C331.7410888671875 436.9642028808594 332.7701416015625 437.1654052734375 333.8156433105469 437.4107360839844L340.91094970703125 439.06494140625C341.8082580566406 439.2755126953125 342.6802978515625 439.509765625 343.5273132324219 439.7664794921875L345.14703369140625 440.1859130859375C345.8469543457031 440.3427429199219 346.55401611328125 440.5202941894531 347.2680358886719 440.7191467285156L350.4260559082031 441.5804138183594C351.1072998046875 441.7710266113281 351.7730407714844 441.97491455078125 352.4234924316406 442.1916198730469C352.6818542480469 442.26751708984375 352.941162109375 442.3463134765625 353.2012939453125 442.4280090332031L353.39300537109375 442.4932861328125C353.72857666015625 442.5994873046875 354.0602111816406 442.70892333984375 354.3879089355469 442.8215026855469C395.8601989746094 456.4400634765625 375.93182373046875 519.1201171875 333.9797058105469 505.8757019042969L333.5000305175781 505.7252197265625L331.88800048828125 505.287841796875C331.6684265136719 505.2210693359375 331.45050048828125 505.1529235839844 331.2342224121094 505.08343505859375L329.4272155761719 504.5906066894531C329.39013671875 504.5802917480469 329.3531494140625 504.5699157714844 329.316162109375 504.55950927734375L325.1767883300781 503.48760986328125L319.4073486328125 502.1451110839844L319.3926086425781 502.1434631347656Q318.8385314941406 502.03204345703125 318.2967224121094 501.908447265625L316.7138671875 501.5851135253906C316.3288269042969 501.5263977050781 315.9411926269531 501.4619445800781 315.551025390625 501.3915710449219L310.7934875488281 500.5302734375C310.401123046875 500.4594421386719 310.0132751464844 500.3839111328125 309.6299133300781 500.3038024902344L305.0064697265625 499.5376892089844C304.9623107910156 499.5314025878906 304.9180908203125 499.5250549316406 304.8738708496094 499.51861572265625L294.8802795410156 498.0831604003906C294.3254089355469 498.00250244140625 293.77911376953125 497.91229248046875 293.2413330078125 497.8128356933594L284.7687683105469 496.5386962890625L277.0941467285156 495.6118469238281C276.7591247558594 495.58306884765625 276.4219055175781 495.5501403808594 276.0824890136719 495.5129699707031L267.1142578125 494.5559997558594C266.7554626464844 494.5167236328125 266.4000549316406 494.473388671875 266.0480651855469 494.426025390625L257.6261291503906 493.600341796875L257.6128234863281 493.59918212890625L253.62844848632812 493.2590637207031C253.19679260253906 493.23345947265625 252.76133728027344 493.20098876953125 252.3220977783203 493.16156005859375L247.8580780029297 492.7327575683594C247.6201171875 492.71826171875 247.38101196289062 492.7016906738281 247.14073181152344 492.6830749511719L242.40545654296875 492.3139343261719H240.92059326171875C237.7213134765625 493.8946838378906 234.46507263183594 494.84625244140625 231.23397827148438 495.250732421875L231.0534210205078 502.1048583984375L231.6513671875 513.1350708007812C231.65647888183594 513.2310180664062 231.66127014160156 513.3268432617188 231.6657257080078 513.4224243164062L232.15838623046875 520.057861328125C232.18812561035156 520.35009765625 232.215087890625 520.6445922851562 232.2392120361328 520.9412841796875L233.10049438476562 531.727783203125C233.15415954589844 532.4005737304688 233.1915740966797 533.0643310546875 233.21322631835938 533.7190551757812L233.72891235351562 541.138916015625C233.8002166748047 541.8309326171875 233.855224609375 542.5354614257812 233.89341735839844 543.2525634765625L234.2938232421875 551.6151733398438C234.3555450439453 552.32373046875 234.40000915527344 553.0450439453125 234.4265899658203 553.779296875L234.75469970703125 562.96630859375C234.7973175048828 564.1444091796875 234.79173278808594 565.2927856445312 234.740478515625 566.411376953125L234.70001220703125 571.5107421875C234.6862030029297 572.5494995117188 234.63609313964844 573.5633544921875 234.55142211914062 574.5523681640625L234.2255401611328 580.8370971679688C234.21376037597656 581.3009643554688 234.1942596435547 581.7694702148438 234.16683959960938 582.2425537109375L233.6336669921875 590.9510498046875C233.62159729003906 591.158447265625 233.6081085205078 591.3648071289062 233.59324645996094 591.570068359375L233.3852996826172 595.5992431640625C233.364501953125 596.3546142578125 233.3222198486328 597.1220703125 233.25767517089844 597.9013671875C233.20982360839844 598.56591796875 233.14732360839844 599.2193603515625 233.07061767578125 599.8617553710938L232.4164581298828 606.5404663085938C232.39610290527344 606.7884521484375 232.37347412109375 607.0376586914062 232.3485870361328 607.2880859375L231.5419921875 615.61376953125C231.534423828125 615.6898193359375 231.52667236328125 615.7656860351562 231.51873779296875 615.8414306640625L230.96392822265625 622.7164916992188C230.9607696533203 622.773193359375 230.95751953125 622.8300170898438 230.95413208007812 622.8868408203125L230.53033447265625 630.3512573242188C230.51744079589844 630.5691528320312 230.50299072265625 630.7858276367188 230.4870147705078 631.0013427734375L230.27056884765625 637.1868286132812C230.26220703125 637.39013671875 230.25245666503906 637.5924682617188 230.2413787841797 637.7938232421875L230.0518341064453 645.1980590820312C230.04916381835938 645.3145751953125 230.04603576660156 645.4307861328125 230.04246520996094 645.546630859375L229.94247436523438 653.2093505859375V658.3115234375L230.19525146484375 662.2042236328125L230.77548217773438 667.086181640625L231.81541442871094 673.032470703125C231.88624572753906 673.4307861328125 231.95094299316406 673.8263549804688 232.00962829589844 674.2192993164062L232.37037658691406 676.24609375L233.36024475097656 680.2371826171875C233.40780639648438 680.4293823242188 233.453857421875 680.62109375 233.49842834472656 680.8121948242188L234.38943481445312 684.21044921875C235.22314453125 686.6209106445312 235.81610107421875 689.2418823242188 236.1272430419922 692.0746459960938C236.52694702148438 694.6580200195312 236.65065002441406 697.131103515625 236.52938842773438 699.4863891601562C236.55764770507812 700.6909790039062 236.5352325439453 701.8639526367188 236.4648895263672 703.0052490234375C236.44766235351562 703.6438598632812 236.41493225097656 704.2911376953125 236.36624145507812 704.9468994140625C236.3118133544922 705.8845825195312 236.22781372070312 706.80078125 236.11557006835938 707.6954345703125C236.10609436035156 707.7784423828125 236.09629821777344 707.8617553710938 236.0862274169922 707.9452514648438C235.8890838623047 710.2391967773438 235.44964599609375 712.6151123046875 234.7409210205078 715.0631713867188C234.2962646484375 716.7979736328125 233.75698852539062 718.4347534179688 233.1326446533203 719.9754028320312L241.59027099609375 719.7056884765625C242.08384704589844 719.6913452148438 242.5721435546875 719.6854248046875 243.05519104003906 719.687744140625L256.3771057128906 719.205322265625C256.5919189453125 719.1928100585938 256.807861328125 719.181884765625 257.02496337890625 719.1724853515625L264.2086486816406 718.8856811523438C264.4286193847656 718.8703002929688 264.6498107910156 718.8565673828125 264.8721923828125 718.8444213867188L272.1083068847656 718.4641723632812C272.3290100097656 718.447998046875 272.5509338378906 718.4335327148438 272.7740783691406 718.4205932617188L286.8128356933594 717.5903930664062C287.1521301269531 717.5579833984375 287.494384765625 717.5293579101562 287.83966064453125 717.504638671875L300.5948181152344 716.6023559570312C300.93798828125 716.5782470703125 301.27874755859375 716.5582275390625 301.61712646484375 716.5424194335938L316.65478515625 715.1076049804688C317.2919616699219 715.0225219726562 317.94024658203125 714.9509887695312 318.5997009277344 714.8934326171875L337.1787414550781 713.2939453125C337.88739013671875 713.2328491210938 338.58612060546875 713.1897583007812 339.2748718261719 713.1641845703125L349.8291931152344 712.3712768554688Q350.30816650390625 712.32177734375 350.795166015625 712.2822875976562L366.8113098144531 710.9813232421875C367.4935607910156 710.8978271484375 368.1883544921875 710.8300170898438 368.895751953125 710.7784423828125L385.7795715332031 709.5480346679688C386.6481018066406 709.486083984375 387.5013732910156 709.4510498046875 388.3393249511719 709.4418334960938L402.81378173828125 708.645751953125C403.2972717285156 708.6199951171875 403.7759094238281 708.6024780273438 404.2496643066406 708.593017578125L412.5811767578125 708.0693359375C413.2816162109375 707.9939575195312 413.9949951171875 707.935302734375 414.7213439941406 707.8938598632812L431.91961669921875 706.9368896484375C432.1436767578125 706.9243774414062 432.3667297363281 706.9136352539062 432.5887145996094 706.9046630859375L446.439697265625 705.9042358398438C447.1370849609375 705.8217163085938 447.8475036621094 705.755615234375 448.5710144042969 705.7064819335938L465.2361145019531 704.58544921875C465.77349853515625 704.5496215820312 466.30499267578125 704.5241088867188 466.8305969238281 704.508544921875L478.5928039550781 703.6284790039062C478.9131164550781 703.6055297851562 479.2313537597656 703.586181640625 479.5475158691406 703.5704956054688L490.3560791015625 702.6607055664062L490.3909912109375 702.6577758789062L501.9294128417969 701.7008056640625C502.47723388671875 701.6550903320312 503.01910400390625 701.6201171875 503.55499267578125 701.595703125L509.30169677734375 701.2477416992188C509.8805847167969 701.200927734375 510.4678955078125 701.1659545898438 511.0635986328125 701.143310546875C512.0669555664062 701.0927734375 513.04931640625 701.0780639648438 514.0105590820312 701.0975341796875L515.3419189453125 701.0844116210938C516.8653564453125 700.9976196289062 518.4442138671875 700.9993286132812 520.0779418945312 701.0963134765625C520.9833984375 701.1351928710938 521.869384765625 701.202880859375 522.7356567382812 701.2982788085938C524.0238037109375 701.3482055664062 525.345947265625 701.462890625 526.7014770507812 701.6461181640625L526.7306518554688 701.64990234375L527.1588745117188 701.7057495117188C528.0228881835938 701.791015625 528.9002075195312 701.9072265625 529.79052734375 702.0556640625C531.1381225585938 702.2560424804688 532.434814453125 702.5137329101562 533.6810302734375 702.8247680664062C535.1851806640625 703.17138671875 536.6185913085938 703.58544921875 537.9825439453125 704.0614013671875C576.2305297851562 717.1766357421875 560.3721313476562 777.4052124023438 518.7864990234375 767.4683837890625L517.6156616210938 767.3905639648438H513.7267456054688L507.0872802734375 767.7926025390625L495.9819641113281 768.7223510742188L495.88677978515625 768.7303466796875L495.8567810058594 768.7328491210938L485.2491760253906 769.6148071289062C484.6222229003906 769.688720703125 483.9847412109375 769.74951171875 483.3367004394531 769.7966918945312L469.8843078613281 770.753662109375C469.46722412109375 770.783935546875 469.0536193847656 770.8079833984375 468.6435852050781 770.825927734375L454.0989074707031 771.8018798828125C453.807861328125 771.8289184570312 453.5146179199219 771.853271484375 453.2192077636719 771.8746948242188L437.6534423828125 772.9990234375C436.9975280761719 773.0673217773438 436.3303527832031 773.12109375 435.6518249511719 773.1597900390625L419.43243408203125 774.0623168945312C419.1806640625 774.0825805664062 418.9272766113281 774.1007080078125 418.67230224609375 774.1167602539062L406.6553649902344 774.86865234375C406.1259765625 774.9013061523438 405.60235595703125 774.9240112304688 405.0845031738281 774.9370727539062L389.9355773925781 775.7709350585938C389.8240051269531 775.77685546875 389.7126770019531 775.7824096679688 389.60162353515625 775.7874755859375L373.7079772949219 776.9466552734375C373.2613830566406 776.9786376953125 372.81884765625 777.0035400390625 372.3803405761719 777.0214233398438L357.97906494140625 778.1956787109375C357.32318115234375 778.2769165039062 356.6556701660156 778.3438110351562 355.9765319824219 778.3958129882812L342.5651550292969 779.407470703125C342.237060546875 779.4320678710938 341.9111328125 779.452880859375 341.5873718261719 779.4698486328125L325.5261535644531 780.8516235351562C325.21142578125 780.888427734375 324.89404296875 780.9219970703125 324.573974609375 780.9523315429688L306.0906066894531 782.7158813476562C305.4233093261719 782.7791137695312 304.76470947265625 782.8262329101562 304.11480712890625 782.857666015625L292.52886962890625 783.6728515625C291.8484802246094 783.7216186523438 291.177490234375 783.75390625 290.51593017578125 783.7700805664062L278.6768493652344 784.4701538085938C277.96661376953125 784.5453491210938 277.2431335449219 784.6033325195312 276.5063171386719 784.6434936523438L268.4540100097656 785.0673217773438C267.90203857421875 785.0967407226562 267.3564453125 785.1154174804688 266.81719970703125 785.1236572265625L259.8548889160156 785.4364624023438C259.427490234375 785.45458984375 259.0039367675781 785.46630859375 258.58428955078125 785.4718017578125L245.8179931640625 785.9010009765625C245.09642028808594 785.9602661132812 244.3616180419922 786.0015869140625 243.61358642578125 786.0242919921875L226.89381408691406 786.5028076171875C226.0061798095703 786.5297241210938 225.13555908203125 786.5293579101562 224.28201293945312 786.5028076171875H159.03036499023438L158.92100524902344 786.5033569335938L148.4719696044922 786.5555419921875L148.3395538330078 786.5574951171875L140.0996856689453 786.7030639648438C139.93048095703125 786.7101440429688 139.76060485839844 786.71630859375 139.59002685546875 786.7214965820312L133.98487854003906 786.8855590820312C133.64451599121094 786.895751953125 133.30667114257812 786.9019775390625 132.97132873535156 786.9042358398438L128.3869171142578 787.1216430664062L124.4487075805664 787.4147338867188L124.41509246826172 787.4187622070312L121.28958892822266 787.785888671875C119.13951110839844 788.373291015625 116.839111328125 788.7722778320312 114.3884048461914 788.9564819335938C111.68195343017578 789.2762451171875 109.10574340820312 789.30029296875 106.66694641113281 789.0641479492188C106.16797637939453 789.0540771484375 105.67479705810547 789.035400390625 105.18740844726562 789.0083618164062C104.14851379394531 790.1203002929688 103.00666809082031 791.1710205078125 101.75922393798828 792.1494140625C98.12712097167969 795.365234375 93.68172454833984 797.7636108398438 88.49835968017578 798.9348754882812C84.81378936767578 799.9517211914062 80.83515167236328 800.2804565429688 76.64888000488281 799.7471923828125C70.25696563720703 799.3633422851562 64.7350845336914 797.1650390625 60.23577880859375 793.7822265625C58.2574348449707 792.4888305664062 56.50123977661133 791.0201416015625 54.96061325073242 789.4120483398438C53.88347244262695 788.392578125 52.90460205078125 787.32861328125 52.02045822143555 786.227294921875C51.01786804199219 785.0797119140625 50.119590759277344 783.90478515625 49.321006774902344 782.7083740234375C48.873252868652344 782.103759765625 48.449989318847656 781.496337890625 48.050724029541016 780.8867797851562C47.39881896972656 779.9427490234375 46.78194808959961 778.9444580078125 46.20368194580078 777.8909301757812C45.570865631103516 776.7542724609375 44.98354721069336 775.552734375 44.44626235961914 774.2848510742188C43.70351791381836 772.716796875 43.092655181884766 771.1593627929688 42.6054573059082 769.617431640625C41.794795989990234 767.4207763671875 41.1805305480957 765.0419921875 40.79387283325195 762.4791870117188C40.26841735839844 759.8517456054688 40.04583740234375 757.3233032226562 40.09170913696289 754.9046020507812C40.04256820678711 754.1129150390625 40.01715087890625 753.30615234375 40.01641845703125 752.4843139648438C39.95952224731445 750.4584350585938 40.0514030456543 748.5204467773438 40.278358459472656 746.6712646484375L40.47441101074219 743.2473754882812C40.51707077026367 742.52685546875 40.57671356201172 741.8191528320312 40.65275192260742 741.1242065429688L40.90316390991211 737.0460205078125C40.91234588623047 736.593017578125 40.92887496948242 736.135498046875 40.95289993286133 735.673583984375L41.318843841552734 728.8042602539062C41.33652114868164 727.802734375 41.393836975097656 726.7802124023438 41.49269104003906 725.7369384765625C41.60200881958008 724.284912109375 41.78152847290039 722.885986328125 42.02632141113281 721.5398559570312L42.71647644042969 716.4382934570312C42.82615661621094 715.6417236328125 42.9555778503418 714.8626098632812 43.10395431518555 714.100830078125L44.34193420410156 706.0693359375C44.3841552734375 705.7542114257812 44.43017578125 705.437255859375 44.48004913330078 705.1185913085938L46.33860778808594 693.1609497070312L46.33914566040039 693.1563720703125L47.219173431396484 685.6272583007812C47.24480438232422 685.2731323242188 47.275047302246094 684.9164428710938 47.30997085571289 684.5572509765625L48.25310516357422 675.1621704101562C48.257537841796875 675.09033203125 48.262149810791016 675.0184326171875 48.26694869995117 674.9464111328125L48.67744064331055 669.2229614257812C48.681514739990234 669.121337890625 48.685951232910156 669.01953125 48.69075393676758 668.91748046875L49.01885986328125 661.9178466796875C49.02922821044922 661.6917724609375 49.04128646850586 661.4669189453125 49.05501174926758 661.2432861328125L49.33799362182617 651.7896118164062C49.33351135253906 651.4992065429688 49.331932067871094 651.2069091796875 49.33329772949219 650.91259765625L49.43919372558594 638.5625L49.23381805419922 624.5202026367188C49.23003387451172 624.39990234375 49.22673416137695 624.2791748046875 49.22392654418945 624.158203125L48.92641830444336 609.76123046875C48.92002868652344 609.61181640625 48.91438293457031 609.4619140625 48.90949249267578 609.3114013671875L48.376319885253906 594.4645385742188C48.36014938354492 593.9717407226562 48.35240936279297 593.4841918945312 48.35292434692383 593.0018310546875L47.82793426513672 580.9605712890625C47.81297302246094 580.7284545898438 47.799808502197266 580.4950561523438 47.78845977783203 580.26025390625L47.14591598510742 567.395751953125C47.130069732666016 567.0757446289062 47.11781692504883 566.7579345703125 47.109100341796875 566.4422607421875L46.55805969238281 554.6268920898438C46.5194091796875 553.741455078125 46.508155822753906 552.8726196289062 46.52323913574219 552.0203857421875L46.40778350830078 546.0072021484375C46.399200439453125 545.71630859375 46.39359664916992 545.4235229492188 46.391014099121094 545.128662109375C46.37864303588867 544.390380859375 46.38503646850586 543.6640014648438 46.40958023071289 542.9496459960938L46.473411560058594 538.1782836914062C46.43866729736328 537.0857543945312 46.447879791259766 535.9654541015625 46.50337600708008 534.8174438476562L46.92527389526367 526.3915405273438C46.944881439208984 525.705810546875 46.981788635253906 525.0101318359375 47.03654861450195 524.3043823242188L47.75080108642578 515.529296875C47.77866744995117 514.7794189453125 47.82743835449219 514.0177612304688 47.897830963134766 513.2444458007812L49.33329772949219 497.54998779296875C49.3719367980957 497.1311950683594 49.41618347167969 496.7169494628906 49.46592712402344 496.3072204589844L50.52958679199219 483.3805236816406C50.5590934753418 482.68182373046875 50.606727600097656 481.9729919433594 50.673065185546875 481.2539978027344L52.120792388916016 465.9353332519531C52.14540481567383 465.4771728515625 52.1777229309082 465.0146789550781 52.21790313720703 464.5478820800781L53.13328170776367 454.2792663574219C53.16609573364258 453.5967102050781 53.21623992919922 452.9045715332031 53.28425216674805 452.202880859375L54.77578353881836 437.121826171875C54.795318603515625 436.8459777832031 54.817630767822266 436.568603515625 54.84275817871094 436.2897033691406L56.223541259765625 420.7456359863281C56.28431701660156 420.078125 56.35936737060547 419.4221496582031 56.44822692871094 418.777587890625L57.24869155883789 410.7338562011719C57.27431106567383 410.3196105957031 57.30623245239258 409.90185546875 57.344573974609375 409.4806213378906L58.65542221069336 395.4693908691406C58.68921661376953 394.8967590332031 58.73521041870117 394.31744384765625 58.7937126159668 393.73150634765625L60.3332633972168 378.4040832519531L61.131473541259766 367.98876953125C61.15459060668945 367.6999816894531 61.18039321899414 367.413330078125 61.2088508605957 367.1287841796875L61.75318908691406 359.5400695800781C61.7841796875 358.96356201171875 61.82747268676758 358.3802490234375 61.883384704589844 357.7901306152344L61.916751861572266 357.45025634765625L61.92612075805664 357.3548278808594L62.34041213989258 353.1347961425781C62.37372589111328 352.60955810546875 62.417259216308594 352.0787658691406 62.47124481201172 351.54241943359375L63.11378479003906 345.4997863769531L63.11779022216797 345.4607238769531L64.16885375976562 335.20672607421875Q64.17433166503906 335.1241455078125 64.18013763427734 335.0413818359375L64.98673248291016 323.6123046875C65.00961303710938 323.29132080078125 65.03582000732422 322.972900390625 65.06531524658203 322.6570739746094L65.63532257080078 313.4475402832031L65.67562103271484 307.6650085449219L65.13711547851562 297.44580078125C65.10143280029297 296.7724914550781 65.08171081542969 296.1086120605469 65.07746887207031 295.4541931152344L64.73036193847656 286.9668273925781L64.1353988647461 279.6974792480469C64.10092163085938 279.3310241699219 64.07096099853516 278.9610900878906 64.04560852050781 278.587646484375C64.00989532470703 278.1108703613281 63.98237991333008 277.638671875 63.962890625 277.1710205078125L63.56429672241211 270.0985412597656C63.499332427978516 269.3489990234375 63.453731536865234 268.5850830078125 63.42822265625 267.8067932128906L63.05910110473633 256.6921691894531C63.034122467041016 255.9227752685547 63.02964401245117 255.1661376953125 63.04496765136719 254.42225646972656L62.958229064941406 245.35789489746094C62.95392608642578 245.1222381591797 62.95165252685547 244.88531494140625 62.9514274597168 244.64712524414062L62.94973373413086 244.47019958496094C62.93880844116211 243.1612091064453 62.98626708984375 241.8904571533203 63.08867645263672 240.65797424316406L63.53759002685547 230.908447265625C63.5751953125 230.15000915527344 63.63174057006836 229.40557861328125 63.7065544128418 228.67510986328125L64.05668640136719 223.96871948242188C64.08036804199219 223.2841796875 64.121337890625 222.58975219726562 64.18013763427734 221.88551330566406L65.09609985351562 211.13999938964844C65.14610290527344 210.54983520507812 65.2072982788086 209.9685821533203 65.27936553955078 209.39620971679688L65.9486083984375 202.41404724121094L66.31269073486328 196.0367889404297C66.32596588134766 195.66493225097656 66.3442153930664 195.2901153564453 66.36751556396484 194.91238403320312L66.71862030029297 189.5580596923828C66.72643280029297 189.28016662597656 66.73698425292969 189.00059509277344 66.75030517578125 188.71937561035156L66.95536804199219 184.83395385742188V181.70150756835938L66.91141510009766 180.87376403808594C66.88653564453125 180.57025146484375 66.8647232055664 180.26438903808594 66.84600067138672 179.9561767578125L66.70711517333984 177.82655334472656C66.68234252929688 177.54052734375 66.66027069091797 177.25242614746094 66.64093780517578 176.9622039794922L66.31282806396484 171.68515014648438C66.29991912841797 171.490478515625 66.2883529663086 171.29656982421875 66.27812194824219 171.1034393310547L66.0531005859375 167.6864471435547C64.85853576660156 165.95852661132812 63.8553581237793 164.1206817626953 63.0394287109375 162.20606994628906C58.438716888427734 152.96778869628906 57.984107971191406 141.76014709472656 64.54618835449219 131.45545959472656C67.0063705444336 126.83016967773438 70.5178451538086 122.78438568115234 75.01465606689453 119.84579467773438C83.5576171875 112.5219955444336 93.04694366455078 110.59866333007812 101.69920349121094 112.29317474365234C101.8030776977539 112.29429626464844 101.90670776367188 112.29584503173828 102.0101089477539 112.29780578613281H104.66032409667969C104.82118225097656 112.2962646484375 104.9814682006836 112.29560852050781 105.14117431640625 112.29582214355469L107.63518524169922 112.263427734375L109.26274871826172 112.12034606933594L113.45217895507812 111.64576721191406C114.89314270019531 111.40755462646484 116.39292907714844 111.246826171875 117.95162200927734 111.16985321044922C119.4038314819336 111.0635986328125 120.81419372558594 111.03644561767578 122.18212127685547 111.08329772949219L125.61475372314453 111.0345230102539C126.45303344726562 111.00023651123047 127.30804443359375 110.99125671386719 128.17974853515625 111.00861358642578ZM191.22586059570312 190.3735809326172 191.11648559570312 185.3562774658203C191.11122131347656 185.15811157226562 191.10731506347656 184.96080017089844 191.104736328125 184.76434326171875L191.0071258544922 181.66506958007812C190.9972686767578 181.20953369140625 190.99453735351562 180.758544921875 190.9988250732422 180.31210327148438L190.98294067382812 178.53237915039062L188.30197143554688 178.52235412597656C188.10179138183594 178.523193359375 187.90069580078125 178.52264404296875 187.69869995117188 178.5207061767578L178.50872802734375 178.41493225097656C178.368896484375 178.41441345214844 178.22862243652344 178.41322326660156 178.08790588378906 178.41134643554688L166.17434692382812 178.25559997558594C165.89556884765625 178.2555389404297 165.6150360107422 178.25277709960938 165.33274841308594 178.24728393554688L154.1984405517578 178.00242614746094C153.88816833496094 178.00083923339844 153.5757293701172 177.9958953857422 153.2611541748047 177.98753356933594L144.26470947265625 177.72752380371094Q143.98602294921875 177.72262573242188 143.70504760742188 177.714111328125L135.20159912109375 177.49537658691406C135.04849243164062 177.49078369140625 134.89593505859375 177.4853973388672 134.74392700195312 177.479248046875L133.10031127929688 177.44004821777344L133.2329559326172 179.3136444091797C133.30072021484375 180.61529541015625 133.308837890625 181.88156127929688 133.26071166992188 183.11227416992188L133.27484130859375 184.2329864501953C133.2769317626953 184.35499572753906 133.27847290039062 184.47735595703125 133.27947998046875 184.6000518798828L133.2876434326172 185.2469024658203C133.2910919189453 186.64149475097656 133.2284393310547 187.99229431152344 133.1038360595703 189.29933166503906L133.03431701660156 190.5611572265625C133.02272033691406 191.1651611328125 132.99790954589844 191.77708435058594 132.95953369140625 192.3968963623047L132.53573608398438 199.0273895263672C132.51828002929688 199.3103485107422 132.4982147216797 199.59133911132812 132.47557067871094 199.87033081054688L132.239013671875 204.04458618164062C132.22604370117188 205.1571502685547 132.16627502441406 206.29652404785156 132.0572509765625 207.4624786376953L131.25698852539062 215.93795776367188C131.23934936523438 216.2100830078125 131.21900939941406 216.48370361328125 131.1959686279297 216.7588348388672L130.29367065429688 227.49066162109375C130.2643280029297 227.8369140625 130.23114013671875 228.1800994873047 130.1941680908203 228.5202178955078L129.83047485351562 233.88232421875Q129.823486328125 234.0491943359375 129.815185546875 234.21685791015625L129.28594970703125 244.6538848876953L129.33224487304688 254.37474060058594C129.33380126953125 254.4180450439453 129.3352813720703 254.46141052246094 129.33670043945312 254.5048065185547L129.705810546875 265.6741027832031C129.7083740234375 265.7524108886719 129.71072387695312 265.8305969238281 129.71287536621094 265.90863037109375L130.1553955078125 273.7601318359375L130.93621826171875 282.65362548828125C131.0472412109375 283.9972229003906 131.09326171875 285.30487060546875 131.07801818847656 286.57635498046875L131.31158447265625 293.09912109375C131.32986450195312 293.3524475097656 131.3460235595703 293.6073913574219 131.36001586914062 293.86395263671875L131.8343048095703 302.9084777832031C131.9472198486328 304.1289978027344 132.00552368164062 305.3875427246094 132.00576782226562 306.68408203125C132.01971435546875 307.500244140625 132.00967407226562 308.30194091796875 131.9765167236328 309.08905029296875L131.91387939453125 313.5833740234375C131.92660522460938 314.50640869140625 131.90789794921875 315.4486999511719 131.85635375976562 316.4102478027344C131.83563232421875 316.89129638671875 131.80697631835938 317.366943359375 131.77053833007812 317.8370056152344L131.24269104003906 326.49359130859375C131.22589111328125 327.0753479003906 131.19676208496094 327.664306640625 131.1549530029297 328.260498046875L130.34835815429688 339.6895446777344C130.28045654296875 340.64202880859375 130.18316650390625 341.57177734375 130.05784606933594 342.4788513183594L129.0632781982422 352.2396545410156L128.4754180908203 358.26861572265625C128.4341278076172 358.67340087890625 128.38760375976562 359.0738830566406 128.3359832763672 359.4700927734375L128.06167602539062 362.2643127441406C128.04470825195312 362.62042236328125 128.02313232421875 362.97918701171875 127.9969253540039 363.340576171875L127.330322265625 371.9094543457031C127.3088150024414 372.343994140625 127.28042602539062 372.7824401855469 127.24501037597656 373.2248229980469L126.39739990234375 384.2710876464844C126.3225326538086 385.206298828125 126.21947479248047 386.1192932128906 126.08948516845703 387.01019287109375L124.79788208007812 400.29364013671875C124.76226806640625 400.6507568359375 124.72260284423828 401.0045166015625 124.67894744873047 401.3549499511719L123.40342712402344 415.52325439453125C123.3449935913086 416.1650390625 123.27335357666016 416.7961730957031 123.18891906738281 417.41668701171875L122.28239440917969 426.9933166503906C122.24356842041016 427.3839111328125 122.19988250732422 427.7705383300781 122.15143585205078 428.1531677246094L120.901611328125 442.22296142578125C120.84393310546875 442.8659973144531 120.77301788330078 443.4983825683594 120.68927764892578 444.1201171875L119.41056060791016 457.4007568359375C119.39122772216797 457.69427490234375 119.36875915527344 457.9895324707031 119.34310150146484 458.2865295410156L118.37506866455078 469.1458740234375C118.3487777709961 469.56463623046875 118.31604766845703 469.9869384765625 118.2767562866211 470.4128112792969L116.73191833496094 487.337646484375C116.69408416748047 487.7422790527344 116.65100860595703 488.1426696777344 116.60281372070312 488.5388488769531L115.5289535522461 501.6005859375C115.50003814697266 502.2690124511719 115.45459747314453 502.9466857910156 115.39215087890625 503.6336364746094L114.05014038085938 518.3062744140625C114.03839111328125 518.4867553710938 114.02547454833984 518.6678466796875 114.01136779785156 518.849609375L113.17575073242188 529.11572265625L112.78096771240234 538.0301513671875C112.77474975585938 538.1557006835938 112.76801300048828 538.2808227539062 112.7607650756836 538.4055786132812L112.68043518066406 544.4100952148438L112.81107330322266 551.2138671875C112.82013702392578 551.375732421875 112.82833099365234 551.5381469726562 112.83565521240234 551.7012939453125L113.34144592285156 563.6458129882812C113.35147094726562 563.810546875 113.36060333251953 563.9759521484375 113.36882781982422 564.1420288085938L114.01136779785156 577.0065307617188C114.02796936035156 577.3499755859375 114.0404281616211 577.69091796875 114.0488052368164 578.0293579101562L114.6539077758789 591.9080810546875C114.67384338378906 592.3680419921875 114.68638610839844 592.823486328125 114.69168853759766 593.2744750976562L115.18708801269531 607.0693359375C115.20341491699219 607.5716552734375 115.21098327636719 608.0685424804688 115.2099838256836 608.56005859375L115.50151824951172 622.6680908203125C115.50953674316406 623.0181274414062 115.5133285522461 623.3655395507812 115.5129623413086 623.710205078125L115.72026062011719 637.884033203125C115.72748565673828 638.3807983398438 115.72624206542969 638.8720703125 115.71671295166016 639.3578491210938L115.67220306396484 649.7946166992188C115.69141387939453 650.563720703125 115.68946075439453 651.3464965820312 115.66557312011719 652.1430053710938L115.28278350830078 664.488037109375C115.26126098632812 665.1764526367188 115.22395324707031 665.8536376953125 115.17138671875 666.5196533203125L114.91365814208984 672.0071411132812C114.88150024414062 672.709228515625 114.83309936523438 673.3994140625 114.76900482177734 674.07763671875L114.57048797607422 677.2283325195312C114.5482177734375 678.26318359375 114.48553466796875 679.3208618164062 114.38048553466797 680.4012451171875L113.43563842773438 689.8133544921875C113.39103698730469 690.4236450195312 113.33244323730469 691.041259765625 113.25945281982422 691.6661987304688L112.1997299194336 700.7210083007812C112.12593841552734 701.52587890625 112.02685546875 702.3429565429688 111.90156555175781 703.172119140625C111.84370422363281 703.5848999023438 111.78035736083984 703.9929809570312 111.71165466308594 704.3963623046875L110.00572967529297 715.3719482421875C109.96661376953125 715.6216430664062 109.92557525634766 715.8695678710938 109.88264465332031 716.1157836914062L108.88668823242188 722.5783081054688L110.06041717529297 722.37158203125C111.5963363647461 722.0923461914062 113.09278106689453 721.9044189453125 114.5487060546875 721.8021240234375L114.97502899169922 721.7520751953125C115.9617691040039 721.6057739257812 116.97571563720703 721.4926147460938 118.01700592041016 721.41455078125L118.26435089111328 721.3961181640625L118.65950775146484 721.3666381835938L123.00315856933594 721.0426635742188C123.40913391113281 721.0068359375 123.8193359375 720.9765625 124.23370361328125 720.9520874023438C124.74920654296875 720.9175415039062 125.25930786132812 720.892578125 125.76398468017578 720.8768920898438L131.46939086914062 720.6079711914062C132.0330810546875 720.5821533203125 132.590087890625 720.5673828125 133.14036560058594 720.5635375976562L137.60772705078125 720.3892211914062C138.23587036132812 720.3711547851562 138.85548400878906 720.36669921875 139.466552734375 720.3755493164062L147.437255859375 720.2935180664062C147.72796630859375 720.2896728515625 148.0167999267578 720.2886352539062 148.3037567138672 720.29052734375L158.6475830078125 720.2388916015625C158.68406677246094 720.2386474609375 158.72052001953125 720.2384643554688 158.75694274902344 720.2388916015625L158.93601989746094 720.238037109375L166.6980743408203 720.2015991210938C164.94802856445312 713.2535400390625 165.56039428710938 705.6216430664062 169.54710388183594 698.2044067382812L169.3050994873047 697.2814331054688C169.20263671875 696.9090576171875 169.10433959960938 696.531982421875 169.01028442382812 696.1503295898438L168.2176055908203 692.9880981445312C167.9581756591797 692.07861328125 167.72650146484375 691.140869140625 167.5241241455078 690.1747436523438C167.2548828125 688.9849243164062 167.0435028076172 687.8163452148438 166.88719177246094 686.6697387695312L166.72695922851562 685.7528076171875C166.6497039794922 685.3768310546875 166.5768280029297 684.9965209960938 166.5084686279297 684.6119384765625L165.42845153808594 678.5829467773438C165.17481994628906 677.1561279296875 164.99966430664062 675.7636108398438 164.8983917236328 674.4061889648438L164.6580047607422 672.540283203125C164.4321746826172 671.2171630859375 164.26809692382812 669.8435668945312 164.17025756835938 668.4193115234375C164.1328887939453 667.9712524414062 164.10308837890625 667.5270385742188 164.0807647705078 667.0867919921875L163.74620056152344 662.1149291992188C163.7247314453125 661.8389282226562 163.70603942871094 661.5609741210938 163.6901092529297 661.2811279296875L163.6648712158203 660.9061889648438C163.55889892578125 659.2214965820312 163.55345153808594 657.5949096679688 163.64117431640625 656.0269165039062L163.6617431640625 653.0234985351562C163.661376953125 652.8220825195312 163.66241455078125 652.6196899414062 163.6648712158203 652.4164428710938L163.7633056640625 644.8617553710938C163.76132202148438 644.4625244140625 163.7649383544922 644.0596923828125 163.7742462158203 643.6532592773438L163.9588623046875 636.441650390625C163.95582580566406 635.8103637695312 163.96705627441406 635.170166015625 163.99298095703125 634.5209350585938L164.23556518554688 628.7518310546875C164.23861694335938 627.9987182617188 164.2623291015625 627.2330932617188 164.3074188232422 626.4549560546875L164.74490356445312 618.9768676757812C164.7839813232422 618.3169555664062 164.83729553222656 617.667724609375 164.90440368652344 617.029296875L165.3991241455078 610.8057861328125C165.43283081054688 610.2278442382812 165.4789581298828 609.6431274414062 165.53782653808594 609.0516357421875L166.20652770996094 602.5769653320312C166.2392120361328 601.9808959960938 166.28504943847656 601.3775634765625 166.34442138671875 600.7669677734375L167.1326446533203 592.732177734375L167.4214324951172 587.9363403320312C167.43295288085938 587.6397705078125 167.44761657714844 587.3414306640625 167.4654541015625 587.0411376953125L167.94393920898438 578.3463134765625C167.9599609375 578.0756225585938 167.97837829589844 577.8067626953125 167.99916076660156 577.5396728515625L168.37290954589844 570.3206176757812L168.45912170410156 564.8468017578125L168.1626739501953 556.1854248046875C168.15170288085938 555.8847045898438 168.1438751220703 555.5859375 168.13914489746094 555.2891235351562L167.75904846191406 548.343017578125C167.7252655029297 547.9847412109375 167.69573974609375 547.6231079101562 167.67051696777344 547.2581787109375L167.069580078125 537.9197998046875C167.0390167236328 537.6171875 167.01145935058594 537.3121948242188 166.98695373535156 537.0048217773438L166.1256866455078 526.2730102539062C166.0867919921875 525.78662109375 166.05636596679688 525.3049926757812 166.03421020507812 524.8280639648438L165.58834838867188 518.7853393554688C165.519287109375 518.10791015625 165.46580505371094 517.4183959960938 165.42845153808594 516.7169189453125L164.9295654296875 507.3139953613281C164.7867431640625 505.8790588378906 164.72055053710938 504.3912658691406 164.7367401123047 502.8508605957031C164.73104858398438 502.0942687988281 164.74606323242188 501.3503112792969 164.78102111816406 500.6190490722656L165.00465393066406 489.9078369140625C165.0431365966797 488.22821044921875 165.17604064941406 486.614501953125 165.39608764648438 485.066650390625L166.28973388671875 474.6371765136719C166.38937377929688 473.5260009765625 166.52845764160156 472.4466247558594 166.7049102783203 471.3987731933594L167.67051696777344 463.4678649902344C167.74798583984375 462.84515380859375 167.83763122558594 462.2329406738281 167.93907165527344 461.63116455078125L169.70751953125 449.4276428222656C169.8452911376953 448.4958801269531 170.0098876953125 447.5883483886719 170.20004272460938 446.7048645019531L171.19766235351562 440.7191467285156C171.24644470214844 440.4328308105469 171.2977294921875 440.14886474609375 171.3514862060547 439.86724853515625L172.31570434570312 434.1845397949219C172.3342742919922 434.0526123046875 172.35350036621094 433.92041015625 172.37338256835938 433.7878723144531L173.55819702148438 425.86273193359375L174.3157501220703 418.8955078125L175.28936767578125 405.9488220214844L175.90052795410156 393.34869384765625C175.9101104736328 393.15020751953125 175.92100524902344 392.9526672363281 175.93316650390625 392.7560729980469L176.42831420898438 382.1046142578125C176.42953491210938 381.9749755859375 176.4313201904297 381.844970703125 176.43370056152344 381.7145690917969L176.5823211669922 374.07354736328125C176.58262634277344 373.70257568359375 176.58773803710938 373.3285217285156 176.59776306152344 372.9513854980469L176.9121856689453 361.4676513671875C176.93338012695312 360.6705322265625 176.97576904296875 359.8883972167969 177.03854370117188 359.1211853027344L177.39068603515625 350.6811218261719C177.4258575439453 349.9384765625 177.4791717529297 349.2091979980469 177.54998779296875 348.4932556152344L177.8647003173828 344.297119140625C177.8883514404297 343.67620849609375 177.92616271972656 343.04718017578125 177.97854614257812 342.41009521484375L178.73919677734375 333.77734375C178.76528930664062 333.3278503417969 178.7987823486328 332.8742370605469 178.83982849121094 332.41650390625L179.58163452148438 324.30145263671875C179.59500122070312 323.98272705078125 179.61203002929688 323.6618957519531 179.63275146484375 323.3388977050781L180.27528381347656 313.4136657714844C180.3424530029297 312.3864440917969 180.4439239501953 311.38543701171875 180.57803344726562 310.41058349609375L181.1885223388672 303.4765625C181.2370147705078 302.73944091796875 181.30604553222656 301.991455078125 181.3963165283203 301.2326965332031L182.25759887695312 293.91864013671875C182.33273315429688 293.2886657714844 182.4203643798828 292.66937255859375 182.52008056640625 292.0606689453125L183.51112365722656 284.4380187988281L184.49966430664062 274.21856689453125C184.53488159179688 273.8686218261719 184.57400512695312 273.5218811035156 184.616943359375 273.1783447265625L185.73007202148438 263.4320373535156C185.73553466796875 263.3847351074219 185.74105834960938 263.3374938964844 185.7466583251953 263.2903137207031L186.35784912109375 257.033935546875C186.389404296875 256.6584777832031 186.4261932373047 256.2802429199219 186.4683074951172 255.89926147460938L187.58934020996094 245.6459197998047C187.6544647216797 245.05775451660156 187.73052978515625 244.478759765625 187.81719970703125 243.90892028808594L188.81973266601562 235.11915588378906C188.82525634765625 235.0718231201172 188.83084106445312 235.02455139160156 188.8365020751953 234.9773406982422L189.2603302001953 229.3938751220703C189.2708740234375 229.15260314941406 189.28350830078125 228.9101104736328 189.29823303222656 228.6663818359375L189.69015502929688 222.49359130859375C189.69920349121094 222.08041381835938 189.71435546875 221.66354370117188 189.73570251464844 221.2429656982422L190.15951538085938 213.122314453125C190.19851684570312 212.3550262451172 190.25685119628906 211.6020965576172 190.3338623046875 210.86349487304688L190.66412353515625 205.7993927001953C190.68231201171875 205.2883758544922 190.70999145507812 204.77183532714844 190.7473602294922 204.249755859375L191.1830596923828 198.17495727539062L191.3501739501953 194.4568328857422L191.2532958984375 191.1470489501953C191.24191284179688 190.89080810546875 191.23277282714844 190.63299560546875 191.22586059570312 190.3735809326172Z" fill="black"/>
</svg>
