<svg xmlns="http://www.w3.org/2000/svg" viewBox="0 0 541 1000">
  <path d="M92.46444702148438 112.70523834228516C93.37361907958984 112.53911590576172 94.26158142089844 112.42237854003906 95.12781524658203 112.35220336914062L97.6048583984375 112.03569030761719C98.62738037109375 111.9113540649414 99.62005615234375 111.84638214111328 100.58238983154297 111.83686065673828L101.09618377685547 111.80458068847656C101.8998031616211 111.70169067382812 102.7302474975586 111.63397216796875 103.58760833740234 111.60372161865234L108.57683563232422 111.43093872070312C109.05455017089844 111.4140853881836 109.52477264404297 111.40941619873047 109.98748779296875 111.41654205322266L114.9915542602539 111.34454345703125C115.32112884521484 111.33885192871094 115.64701080322266 111.33889770507812 115.96920776367188 111.34454345703125H122.65897369384766C122.6968765258789 111.34431457519531 122.73473358154297 111.34416198730469 122.77253723144531 111.34408569335938L125.73579406738281 111.29428100585938C126.72518920898438 111.22695922851562 127.75054931640625 111.21841430664062 128.81143188476562 111.27325439453125C129.83839416503906 111.30699920654297 130.82728576660156 111.39694213867188 131.77796936035156 111.53887939453125L137.57347106933594 112.11695098876953L143.3089599609375 112.23340606689453C144.26885986328125 112.19178009033203 145.26182556152344 112.20375061035156 146.28759765625 112.27326965332031L155.7476806640625 112.94282531738281C155.81956481933594 112.9478988647461 155.89125061035156 112.9532241821289 155.96273803710938 112.95880889892578L161.5904083251953 113.02294158935547L171.3711395263672 112.81281280517578C172.07662963867188 112.77747344970703 172.80038452148438 112.7698974609375 173.54238891601562 112.79156494140625L173.54473876953125 112.79161834716797C173.78746032714844 112.79680633544922 174.02809143066406 112.80519104003906 174.26663208007812 112.81671142578125L184.48486328125 113.17163848876953C184.87893676757812 113.17312622070312 185.2783203125 113.18316650390625 185.68301391601562 113.2020034790039L197.2605438232422 113.6990737915039L207.36058044433594 113.47294616699219C207.50979614257812 113.4683837890625 207.65980529785156 113.46502685546875 207.8106231689453 113.46287536621094L207.88613891601562 113.461181640625C208.33604431152344 113.45307922363281 208.77911376953125 113.45565795898438 209.21534729003906 113.4686050415039L217.15184020996094 113.54757690429688C218.01673889160156 113.55731964111328 218.85525512695312 113.60580444335938 219.66741943359375 113.6906967163086L228.91160583496094 113.94235229492188C229.1297607421875 113.94497680664062 229.3495330810547 113.95015716552734 229.57090759277344 113.95794677734375L241.36361694335938 114.3899154663086C241.4430389404297 114.39271545410156 241.52223205566406 114.39584350585938 241.60118103027344 114.39928436279297L250.2405548095703 114.64909362792969Q250.35903930664062 114.65255737304688 250.4768524169922 114.65699005126953L262.37884521484375 114.88667297363281C262.43951416015625 114.88813018798828 262.50006103515625 114.8897705078125 262.56048583984375 114.89160919189453L274.603515625 115.05946350097656C274.6704406738281 115.06046295166016 274.7372131347656 115.06169891357422 274.8038024902344 115.06315612792969L286.9361877441406 115.23224639892578H297.4761962890625L297.5960388183594 115.23321533203125L306.4940490722656 115.30496978759766C307.4504699707031 115.2554702758789 308.4402770996094 115.25873565673828 309.4632873535156 115.31864166259766L321.19866943359375 116.02437591552734C321.53094482421875 116.03490447998047 321.8668212890625 116.05159759521484 322.2063293457031 116.0745849609375L335.53253173828125 117.0033187866211C335.6365966796875 117.01036834716797 335.7402648925781 117.0179672241211 335.843505859375 117.0261001586914L344.7591247558594 117.1698989868164L355.60858154296875 116.9336166381836C355.7481384277344 116.92704772949219 355.8883972167969 116.92147827148438 356.0293884277344 116.91692352294922L368.3404541015625 116.50655364990234L368.4356994628906 116.50364685058594L379.6579895019531 116.16098022460938C379.7723693847656 116.1566162109375 379.88629150390625 116.15294647216797 379.9997863769531 116.14996337890625L387.75738525390625 115.8154067993164C389.2427062988281 115.7674560546875 390.6551208496094 115.83712768554688 391.9942932128906 116.01252746582031L399.3988952636719 116.3337631225586C400.1602783203125 116.37149047851562 400.9000244140625 116.43841552734375 401.61822509765625 116.5329360961914L409.26934814453125 117.08970642089844C409.9363708496094 117.14445495605469 410.5860290527344 117.22119140625 411.21844482421875 117.31884765625L416.7895202636719 117.7894287109375C417.03826904296875 117.80467987060547 417.2889404296875 117.82339477539062 417.5415344238281 117.84564971923828L421.2564697265625 118.19122314453125Q421.3902282714844 118.20341491699219 421.5230712890625 118.21676635742188L424.4530029296875 118.4288101196289C424.667236328125 118.44784545898438 424.879638671875 118.4691390991211 425.09027099609375 118.4926528930664L428.6647033691406 118.77438354492188C428.9315185546875 118.79541778564453 429.1955871582031 118.81996154785156 429.4568786621094 118.84793853759766L430.996826171875 118.95793151855469C431.484619140625 118.9789810180664 431.9798278808594 119.0143051147461 432.48236083984375 119.06441497802734C433.13177490234375 119.11630249023438 433.7648010253906 119.18959045410156 434.38140869140625 119.28324890136719C435.6069641113281 119.37470245361328 436.87200927734375 119.56861877441406 438.1737365722656 119.87425994873047C439.47076416015625 120.13445281982422 440.69012451171875 120.4782943725586 441.8331298828125 120.89662170410156L442.3364562988281 121.0422134399414C442.6922302246094 121.1478042602539 443.0413513183594 121.25892639160156 443.3839416503906 121.37539672851562C443.7663269042969 121.48480224609375 444.15155029296875 121.60404205322266 444.53948974609375 121.73336029052734L445.87860107421875 122.2301254272461H445.9649963378906C446.50311279296875 122.41177368164062 447.0252685546875 122.60578918457031 447.5316162109375 122.8115234375C447.79290771484375 122.893798828125 448.0554504394531 122.98075866699219 448.3192138671875 123.07245635986328L449.9390869140625 123.5908203125C450.3865966796875 123.74639892578125 450.8229064941406 123.91050720214844 451.248046875 124.08274841308594C451.794921875 124.28012084960938 452.32476806640625 124.4902572631836 452.8377990722656 124.71247100830078C478.6758728027344 134.9434356689453 464.1866149902344 174.5104522705078 437.36883544921875 165.01649475097656L437.2123718261719 164.93826293945312C437.0347595214844 164.88011169433594 436.85650634765625 164.81979370117188 436.6777038574219 164.75730895996094C436.39007568359375 164.65548706054688 436.10711669921875 164.5501708984375 435.82879638671875 164.4414520263672L435.74896240234375 164.4117431640625L434.94366455078125 164.1471405029297C434.7091369628906 164.07350158691406 434.4736328125 163.9961395263672 434.2370910644531 163.91497802734375L433.21722412109375 163.5615692138672C432.8825378417969 163.4638214111328 432.54571533203125 163.3584747314453 432.2068176269531 163.24542236328125L432.0556335449219 163.15904235839844L430.6949462890625 162.72706604003906C430.3577575683594 162.61325073242188 430.02685546875 162.49456787109375 429.7021789550781 162.37120056152344L429.0876159667969 162.18736267089844L428.37371826171875 162.0861053466797L426.4734802246094 161.95037841796875C426.08563232421875 161.93699645996094 425.6929016113281 161.91517639160156 425.29534912109375 161.88473510742188L421.831787109375 161.6117401123047C421.4713439941406 161.59494018554688 421.1068115234375 161.57080078125 420.73809814453125 161.53915405273438L417.3687438964844 161.21517944335938L417.09033203125 161.1892852783203L413.6538391113281 160.86961364746094L405.6408386230469 160.20005798339844C405.41339111328125 160.17933654785156 405.18798828125 160.15606689453125 404.9646301269531 160.13031005859375L397.9459228515625 159.5536651611328C397.7262878417969 159.548583984375 397.50506591796875 159.54087829589844 397.2822570800781 159.53050231933594L388.0868835449219 159.04759216308594L381.5805358886719 159.258056640625C381.4728698730469 159.26307678222656 381.36480712890625 159.2675018310547 381.25628662109375 159.27133178710938L369.8739318847656 159.7032928466797C369.7255554199219 159.7084197998047 369.5779113769531 159.71237182617188 369.43096923828125 159.7151641845703L357.4548645019531 160.11366271972656C357.1192932128906 160.12449645996094 356.7874755859375 160.1293182373047 356.4593505859375 160.12828063964844L345.8096008300781 160.3602294921875C345.5683288574219 160.36834716796875 345.324951171875 160.37330627441406 345.0794982910156 160.3750457763672C344.54327392578125 160.3814697265625 344.0168151855469 160.3727569580078 343.5001525878906 160.34947204589844L335.4696960449219 160.15673828125C334.5355224609375 160.19435119628906 333.570068359375 160.1811981201172 332.57354736328125 160.11366271972656L319.2473449707031 159.1849365234375C318.9963073730469 159.1679229736328 318.7476806640625 159.14776611328125 318.5014953613281 159.12449645996094L308.36590576171875 158.51495361328125C308.2784118652344 158.5155029296875 308.1906433105469 158.51564025878906 308.10260009765625 158.515380859375L297.30340576171875 158.42898559570312H287.0179748535156C286.8477478027344 158.43052673339844 286.6764831542969 158.4305419921875 286.50421142578125 158.42898559570312L274.31549072265625 158.25912475585938C274.2174377441406 158.2586669921875 274.1190490722656 158.2576904296875 274.0203552246094 158.25621032714844L262.1214599609375 158.09152221679688C261.8710632324219 158.09222412109375 261.61846923828125 158.08953857421875 261.36370849609375 158.0834197998047L249.76202392578125 157.85794067382812C249.47088623046875 157.85850524902344 249.1768341064453 157.85450744628906 248.87985229492188 157.84584045410156L240.33567810058594 157.59817504882812C240.17523193359375 157.59571838378906 240.013916015625 157.59188842773438 239.8517303466797 157.58665466308594L228.0374298095703 157.15469360351562C227.9068145751953 157.15008544921875 227.77682495117188 157.14459228515625 227.6474609375 157.1382598876953L216.22311401367188 156.74432373046875C216.14906311035156 156.74215698242188 216.07522583007812 156.73971557617188 216.00157165527344 156.7369842529297L208.45753479003906 156.66209411621094L198.77191162109375 156.8809814453125C198.33871459960938 156.9112548828125 197.89849853515625 156.93077087402344 197.45127868652344 156.9391632080078C197.51858520507812 157.4256134033203 197.57212829589844 157.905517578125 197.61236572265625 158.3788299560547L198.17930603027344 161.93865966796875L198.2062530517578 162.10787963867188L198.25326538085938 162.40309143066406C198.3314208984375 162.90972900390625 198.3946075439453 163.40943908691406 198.44334411621094 163.90213012695312L199.02618408203125 168.56475830078125C199.12586975097656 169.16598510742188 199.2069091796875 169.78306579589844 199.26840209960938 170.4160919189453L199.87315368652344 176.830810546875C199.9275665283203 177.40890502929688 199.96343994140625 177.97703552246094 199.98146057128906 178.5351104736328L200.2835235595703 182.1439971923828C200.3301544189453 182.75108337402344 200.35647583007812 183.34678649902344 200.3633270263672 183.93104553222656L200.54269409179688 187.02523803710938C200.5591583251953 187.32150268554688 200.5708770751953 187.614990234375 200.57794189453125 187.90567016601562L200.71548461914062 190.3297882080078C200.73646545410156 190.81146240234375 200.74496459960938 191.28558349609375 200.74142456054688 191.75213623046875L200.78028869628906 193.52635192871094C200.79238891601562 193.9010009765625 200.7969970703125 194.27099609375 200.7943115234375 194.63633728027344L200.86666870117188 198.5803680419922C200.8709716796875 198.8671112060547 200.87094116210938 199.1510772705078 200.86666870117188 199.43223571777344V203.4832000732422L200.86679077148438 203.5047607421875C200.8673553466797 203.61244201660156 200.8673095703125 203.71971130371094 200.86666870117188 203.82659912109375V219.76837158203125C200.86578369140625 219.93621826171875 200.8634490966797 220.1030731201172 200.85964965820312 220.26895141601562L200.81736755371094 223.28164672851562C200.9443817138672 224.8562469482422 200.9170379638672 226.52249145507812 200.71548461914062 228.2781219482422L200.0957489013672 233.32212829589844L199.9379425048828 240.26522827148438V245.75120544433594L200.10641479492188 251.58470153808594L200.11073303222656 251.7339630126953L200.11135864257812 251.76136779785156L200.2835235595703 259.3365783691406C200.28781127929688 259.49981689453125 200.29067993164062 259.66217041015625 200.2921600341797 259.8236083984375L200.41510009765625 265.525390625C200.5043487548828 266.6473388671875 200.520263671875 267.81707763671875 200.456298828125 269.03424072265625L200.42398071289062 269.57159423828125L200.40750122070312 269.84564208984375L200.19664001464844 273.351318359375C200.1977996826172 273.4883117675781 200.1979522705078 273.6259765625 200.19712829589844 273.7642822265625L200.11354064941406 281.0983581542969L200.19712829589844 288.5159912109375C200.21868896484375 289.9562072753906 200.13157653808594 291.3260192871094 199.94650268554688 292.6253356933594L199.62966918945312 296.802734375C199.6129913330078 297.3497314453125 199.5791778564453 297.90643310546875 199.52757263183594 298.47283935546875L198.8631134033203 306.04766845703125C198.8614959716797 306.085693359375 198.85980224609375 306.1237487792969 198.8580322265625 306.161865234375L198.5359344482422 312.92578125L198.68524169921875 318.99127197265625C198.68861389160156 319.13616943359375 198.6908721923828 319.2803649902344 198.69203186035156 319.4238586425781L199.01502990722656 324.1424255371094C199.04571533203125 324.41656494140625 199.07260131835938 324.6937561035156 199.09561157226562 324.9740295410156L199.47698974609375 329.436279296875Q199.50439453125 329.687255859375 199.52757263183594 329.941650390625L199.87315368652344 334.1749267578125C199.90541076660156 334.5411071777344 199.9302520751953 334.9032287597656 199.94784545898438 335.26129150390625L200.11073303222656 337.1123046875C200.1590576171875 337.74200439453125 200.1856231689453 338.3595275878906 200.1913299560547 338.96478271484375L200.24176025390625 339.853515625L200.88648986816406 344.62725830078125C201.08555603027344 345.67230224609375 201.22474670410156 346.76690673828125 201.29864501953125 347.9114990234375L201.5449676513672 351.8219909667969C201.65078735351562 352.76470947265625 201.70672607421875 353.7434387207031 201.70901489257812 354.7581787109375V363.35595703125C201.7173614501953 363.7459716796875 201.71743774414062 364.1413879394531 201.70901489257812 364.542236328125L201.56764221191406 372.82318115234375C201.56768798828125 373.07012939453125 201.56443786621094 373.3192138671875 201.55783081054688 373.57037353515625L201.38504028320312 383.0952453613281C201.38311767578125 383.1683044433594 201.38092041015625 383.24114990234375 201.3784637451172 383.3138122558594L201.21224975585938 391.0218505859375C201.21034240722656 391.1040344238281 201.2080841064453 391.1859436035156 201.20547485351562 391.26763916015625L201.03945922851562 398.8836669921875C201.0365753173828 399.0509338378906 201.0322265625 399.2171936035156 201.02647399902344 399.3824768066406L200.86666870117188 407.652587890625V416.4215393066406C200.85757446289062 417.52349853515625 200.78543090820312 418.582763671875 200.65513610839844 419.599365234375L200.3699188232422 423.9377746582031C200.3618927001953 424.0561218261719 200.35317993164062 424.1739196777344 200.34376525878906 424.2911682128906L200.2003173828125 432.2705383300781L200.2800750732422 440.28607177734375C200.2814483642578 440.35125732421875 200.2825927734375 440.4166259765625 200.2835235595703 440.48211669921875L200.3699188232422 448.64630126953125L200.4210205078125 451.0221252441406H204.50677490234375C206.04261779785156 450.8763427734375 207.65963745117188 450.8926086425781 209.35276794433594 451.09246826171875C211.10874938964844 451.2189636230469 212.7470703125 451.5133056640625 214.26773071289062 451.9530029296875C215.02381896972656 451.9787292480469 215.79798889160156 452.0389709472656 216.58990478515625 452.1357116699219C217.08648681640625 452.18365478515625 217.57322692871094 452.2445068359375 218.0501251220703 452.3178405761719L219.8516387939453 452.5340270996094C220.6490936279297 452.64752197265625 221.41957092285156 452.791259765625 222.163330078125 452.9633483886719L224.66807556152344 453.3763427734375C224.8225555419922 453.4035339355469 224.97596740722656 453.4318542480469 225.12832641601562 453.4612731933594L228.22491455078125 453.8432312011719L230.9582061767578 454.10821533203125C231.10702514648438 454.1150207519531 231.25653076171875 454.123046875 231.40676879882812 454.1322937011719L235.8652801513672 454.45306396484375C236.66859436035156 454.4742431640625 237.4920654296875 454.5355224609375 238.3353271484375 454.63934326171875C239.4514923095703 454.7487487792969 240.51785278320312 454.9222412109375 241.53463745117188 455.1543273925781L244.57749938964844 455.6727294921875C244.8859100341797 455.7151184082031 245.19692993164062 455.7631530761719 245.51051330566406 455.81695556640625L250.65342712402344 456.7372741699219C250.87442016601562 456.7659912109375 251.0967559814453 456.7975769042969 251.32046508789062 456.83209228515625L255.98675537109375 457.5469055175781L260.5758361816406 458.1025085449219L264.5536193847656 458.4364318847656C264.67059326171875 458.44085693359375 264.7879943847656 458.446044921875 264.9058532714844 458.45196533203125L270.5646057128906 458.6895446777344C270.7989501953125 458.7013244628906 271.03125 458.7159118652344 271.2615051269531 458.7331848144531L274.603515625 458.8623352050781C274.6864013671875 458.8647766113281 274.76904296875 458.8675537109375 274.8514099121094 458.87066650390625L279.43792724609375 458.9287109375L283.5726013183594 458.5028991699219C283.6781921386719 458.4853820800781 283.78424072265625 458.4684143066406 283.89080810546875 458.45196533203125L289.0583190917969 457.7243957519531L292.5950012207031 457.0016784667969C292.702392578125 456.9734191894531 292.8103942871094 456.9456787109375 292.9189453125 456.9184875488281L297.97296142578125 455.665771484375C298.3937683105469 455.55999755859375 298.8106384277344 455.4653625488281 299.22344970703125 455.38153076171875L302.85662841796875 454.4943542480469C303.3151550292969 454.3719177246094 303.7843933105469 454.2596740722656 304.2643737792969 454.1581115722656C304.45404052734375 454.1163330078125 304.64288330078125 454.07684326171875 304.83087158203125 454.0395812988281L309.5496826171875 453.0523681640625C310.3390808105469 452.888916015625 311.11322021484375 452.76324462890625 311.8717956542969 452.67352294921875L315.3596496582031 452.1236572265625C316.0940246582031 452.00823974609375 316.8138427734375 451.9242248535156 317.5189208984375 451.87017822265625L318.7862548828125 451.71929931640625C319.1753234863281 451.6612854003906 319.5709228515625 451.61114501953125 319.9730529785156 451.5690612792969C321.7862854003906 451.1609802246094 323.73388671875 450.98834228515625 325.80633544921875 451.0937194824219C328.3799743652344 451.07806396484375 330.7314758300781 451.44464111328125 332.8545837402344 452.1221008300781C333.584228515625 452.31591796875 334.3211364746094 452.5509033203125 335.0641784667969 452.8290710449219C337.6348876953125 453.6399841308594 339.84539794921875 454.7772521972656 341.7137145996094 456.15985107421875C342.4105224609375 456.58966064453125 343.06787109375 457.0398254394531 343.6867980957031 457.5083312988281C344.7387390136719 458.2085876464844 345.7718505859375 459.0246276855469 346.778076171875 459.9637451171875C348.036376953125 461.0680236816406 349.12164306640625 462.2235107421875 350.0453186035156 463.41607666015625C350.26763916015625 463.67889404296875 350.4875183105469 463.94921875 350.70477294921875 464.2270202636719C350.7442321777344 464.2749938964844 350.783447265625 464.3229675292969 350.8224182128906 464.3710021972656C351.3323669433594 464.97674560546875 351.8257751464844 465.6231384277344 352.3006286621094 466.3113098144531C352.31695556640625 466.33392333984375 352.3332824707031 466.3565673828125 352.34954833984375 466.3792724609375C353.47308349609375 467.8738708496094 354.45306396484375 469.5939636230469 355.251220703125 471.551513671875C357.0357360839844 475.5706787109375 357.59539794921875 479.4042053222656 357.22314453125 482.911865234375C355.802734375 501.00408935546875 331.0598449707031 508.8955383300781 319.35821533203125 495.2296142578125L317.3034973144531 495.5579833984375C317.16900634765625 495.5790710449219 317.0350341796875 495.5990905761719 316.9015197753906 495.61810302734375L314.1304626464844 496.20025634765625C314.0652160644531 496.21673583984375 313.9997863769531 496.2330322265625 313.93414306640625 496.2491149902344L309.25067138671875 497.3746032714844C308.98675537109375 497.4490661621094 308.7192687988281 497.5202941894531 308.4481506347656 497.5882263183594L303.37255859375 498.8625183105469C302.3500671386719 499.1189270019531 301.3509826660156 499.30963134765625 300.3763122558594 499.4387512207031L299.8102722167969 499.5539245605469C298.7529602050781 499.8600769042969 297.6368713378906 500.1067810058594 296.4610595703125 500.28802490234375L292.1067810058594 500.90106201171875C291.2859802246094 501.0714416503906 290.4336853027344 501.206298828125 289.5495910644531 501.3031311035156L285.692626953125 501.7003479003906C284.08465576171875 502.01165771484375 282.3608703613281 502.1675720214844 280.521484375 502.1454772949219L274.45098876953125 502.0688781738281C274.060791015625 502.0740051269531 273.6652526855469 502.0708312988281 273.264404296875 502.05908203125L269.7799987792969 501.9217529296875C269.342529296875 501.920654296875 268.8985290527344 501.9089660644531 268.4479675292969 501.88629150390625L264.3135986328125 501.648681640625C263.5995178222656 501.6497802734375 262.8681945800781 501.6214904785156 262.1196594238281 501.56231689453125L257.4194641113281 501.14910888671875C256.6985778808594 501.116455078125 255.96144104003906 501.0531311035156 255.2081756591797 500.9575500488281L250.39173889160156 500.3744201660156C249.9817657470703 500.3223876953125 249.5788116455078 500.2623291015625 249.1828155517578 500.1944274902344L244.7545623779297 499.5320739746094C244.1024169921875 499.4315490722656 243.46868896484375 499.3108825683594 242.85321044921875 499.1711120605469L239.97315979003906 498.6628723144531C239.40895080566406 498.60491943359375 238.83567810058594 498.5277099609375 238.2534637451172 498.4305419921875L233.40475463867188 497.5865173339844L230.4400177001953 497.3724670410156C229.60482788085938 497.37066650390625 228.7462921142578 497.3282165527344 227.86463928222656 497.2426452636719L224.4091339111328 496.90594482421875C223.93910217285156 496.86932373046875 223.46249389648438 496.8197326660156 222.97933959960938 496.7567443847656C222.76744079589844 496.73040771484375 222.5574188232422 496.70184326171875 222.3492431640625 496.67108154296875L217.9941864013672 496.0763244628906C217.1917266845703 495.9668884277344 216.41639709472656 495.8266906738281 215.66795349121094 495.6575622558594L213.11294555664062 495.2340087890625C213.04580688476562 495.2221984863281 212.9788818359375 495.2101745605469 212.91213989257812 495.19793701171875L212.391845703125 495.13134765625C210.4930877685547 495.2166442871094 208.47793579101562 495.0601806640625 206.35519409179688 494.6245422363281C205.70301818847656 494.5123291015625 205.06961059570312 494.3766784667969 204.4549102783203 494.2188720703125H200.78028869628906V592.7506713867188L200.91598510742188 595.53271484375L201.21224975585938 597.7398681640625C201.22789001464844 597.8627319335938 201.24267578125 597.9852294921875 201.256591796875 598.1072387695312L201.6442108154297 600.2669067382812C201.71463012695312 600.6843872070312 201.77484130859375 601.0972290039062 201.82508850097656 601.5054931640625L202.10018920898438 603.2579956054688C202.18057250976562 603.685302734375 202.2518768310547 604.1209106445312 202.3137664794922 604.56494140625L202.7208251953125 607.4724731445312C203.08995056152344 609.1063842773438 203.30067443847656 610.86572265625 203.32888793945312 612.750732421875V612.9920654296875C203.34165954589844 613.454345703125 203.34152221679688 613.909912109375 203.32888793945312 614.3585815429688V616.4656372070312L203.48507690429688 620.4555053710938C203.6220245361328 621.7361450195312 203.66062927246094 623.0811157226562 203.5905303955078 624.4896850585938C203.57470703125 625.1578369140625 203.5338592529297 625.81005859375 203.46920776367188 626.4464111328125L203.15609741210938 631.39013671875C203.1146240234375 632.0637817382812 203.0504913330078 632.7201538085938 202.9647979736328 633.3593139648438L202.57656860351562 637.5291137695312C202.55323791503906 637.8694458007812 202.52330017089844 638.2133178710938 202.48655700683594 638.560791015625L201.9681854248047 642.9668579101562C201.95407104492188 643.1007080078125 201.9390869140625 643.23388671875 201.92324829101562 643.3662719726562L201.6442108154297 646.9193725585938C201.62332153320312 647.1279907226562 201.60031127929688 647.3347778320312 201.57521057128906 647.5399169921875L201.38504028320312 649.9647216796875C201.3536834716797 650.3206176757812 201.31610107421875 650.6715087890625 201.27243041992188 651.0174560546875L201.2286376953125 651.5611572265625C201.2252197265625 651.7548828125 201.2197723388672 651.9498901367188 201.21224975585938 652.1461791992188L200.95306396484375 658.2368774414062C200.90585327148438 659.4945678710938 200.7781524658203 660.6941528320312 200.57717895507812 661.8359375L200.386474609375 663.5523071289062C200.33982849121094 664.0762939453125 200.2769012451172 664.6083374023438 200.19712829589844 665.1483764648438L200.13963317871094 665.530029296875L199.37831115722656 670.5839233398438C199.3007049560547 671.2667236328125 199.19338989257812 671.9620361328125 199.05496215820312 672.6695556640625C198.92327880859375 673.4140014648438 198.76454162597656 674.1337280273438 198.58041381835938 674.8289184570312L197.3245391845703 680.41845703125C197.2198028564453 680.8726806640625 197.1057586669922 681.3170776367188 196.9827423095703 681.7516479492188L196.48748779296875 683.834228515625L196.39581298828125 684.2197265625C196.3315887451172 684.4859008789062 196.26416015625 684.7486572265625 196.19358825683594 685.0079345703125L195.80914306640625 686.5062866210938L194.62474060058594 692.81591796875C194.57562255859375 693.069091796875 194.52352905273438 693.3193359375 194.46853637695312 693.566650390625L193.9168243408203 697.3862915039062L193.50869750976562 701.2013549804688L193.11285400390625 706.228515625C193.05819702148438 706.9691772460938 192.97621154785156 707.6885375976562 192.86837768554688 708.3867797851562L192.7869110107422 709.1093139648438C192.744140625 710.3555908203125 192.6038055419922 711.6492919921875 192.35691833496094 712.98876953125L191.78656005859375 715.7821044921875C191.71298217773438 716.3052368164062 191.6225128173828 716.8356323242188 191.51458740234375 717.3732299804688L190.58584594726562 721.8441162109375C190.57000732421875 721.9231567382812 190.55389404296875 722.0018920898438 190.53749084472656 722.0803833007812L190.15328979492188 724.23193359375C190.12745666503906 724.4497680664062 190.098876953125 724.6689453125 190.06748962402344 724.8894653320312L189.7457733154297 726.9596557617188L189.74351501464844 726.9844970703125L189.41079711914062 730.3617553710938C189.40689086914062 730.4453125 189.40260314941406 730.529052734375 189.39793395996094 730.613037109375L189.13876342773438 734.6735229492188C189.13475036621094 734.7457885742188 189.13046264648438 734.8178100585938 189.1259307861328 734.8897094726562L189.07395935058594 738.2156982421875Q189.06698608398438 738.4487915039062 189.05633544921875 738.6793212890625L188.98756408691406 741.4986572265625V752.3842163085938L189.03518676757812 754.0985107421875C189.3076171875 754.14013671875 189.5768585205078 754.1859741210938 189.84292602539062 754.2357788085938L197.67225646972656 755.0969848632812L204.06935119628906 755.5728149414062C204.1820831298828 755.5747680664062 204.29522705078125 755.5774536132812 204.4088134765625 755.5807495117188L215.2943878173828 755.9263305664062C216.2576446533203 755.9545288085938 217.187255859375 756.0302124023438 218.0832977294922 756.150146484375L225.8223876953125 756.7217407226562L236.0504150390625 756.185546875C236.2236785888672 756.1768188476562 236.39596557617188 756.1697387695312 236.5673065185547 756.1642456054688L244.68748474121094 755.477294921875C244.84561157226562 755.4601440429688 245.0047607421875 755.4442138671875 245.16493225097656 755.4295654296875L254.83665466308594 754.4844970703125L267.636474609375 752.8131103515625L279.3426818847656 750.7451171875L292.3357849121094 747.8269653320312C292.9351806640625 747.69384765625 293.5260925292969 747.5826416015625 294.1083068847656 747.49267578125L302.2926330566406 745.7103271484375C303.18145751953125 745.5242309570312 304.0511169433594 745.3861083984375 304.9010925292969 745.2933349609375L314.6794738769531 743.5484619140625L314.7764892578125 743.5288696289062L324.73602294921875 741.5864868164062C325.2545166015625 741.4574584960938 325.78631591796875 741.3416137695312 326.33160400390625 741.2394409179688L332.53717041015625 740.1111450195312C333.3049011230469 739.9234619140625 334.1016540527344 739.76611328125 334.9277648925781 739.6411743164062L343.44482421875 738.4030151367188C343.61383056640625 738.3679809570312 343.7841796875 738.3343505859375 343.95587158203125 738.3020629882812L353.0704040527344 736.5958251953125C353.6751403808594 736.4840087890625 354.2705993652344 736.39404296875 354.8565673828125 736.3250122070312L363.0272521972656 734.9974975585938C363.6515808105469 734.8993530273438 364.2654724121094 734.8239135742188 364.8687438964844 734.770263671875L372.1417541503906 733.89599609375C372.77545166015625 733.8157958984375 373.397705078125 733.7586059570312 374.0084533691406 733.723388671875L380.91070556640625 733.0536499023438C381.82928466796875 732.9754638671875 382.7223815917969 732.9439697265625 383.58966064453125 732.9562377929688L389.45489501953125 732.6591186523438C390.26580810546875 732.5595092773438 391.1038513183594 732.495849609375 391.96905517578125 732.4705200195312L401.5803527832031 732.2113037109375C401.9671325683594 732.199951171875 402.34893798828125 732.1965942382812 402.72576904296875 732.2009887695312L407.54052734375 732.14501953125C407.6126403808594 732.1380615234375 407.6849365234375 732.1314086914062 407.7574768066406 732.1249389648438L415.9248962402344 731.4708251953125C416.73760986328125 731.3724975585938 417.57733154296875 731.3103637695312 418.4441833496094 731.286865234375C418.89019775390625 731.267578125 419.33001708984375 731.2596435546875 419.7633972167969 731.2625732421875L426.4941101074219 731.1444702148438C426.833984375 731.1322021484375 427.17803955078125 731.1262817382812 427.5260314941406 731.1268310546875C427.903564453125 731.1226806640625 428.2762145996094 731.1260986328125 428.6440124511719 731.1369018554688L434.803955078125 731.18896484375C435.17181396484375 731.1839599609375 435.5444030761719 731.1863403320312 435.9217529296875 731.1962280273438L439.5620422363281 731.3544921875C439.7299499511719 731.3577880859375 439.8988342285156 731.3626708984375 440.0686340332031 731.3690185546875L442.60919189453125 731.4324951171875Q443.1044006347656 731.4348754882812 443.61077880859375 731.4553833007812L446.8073425292969 731.628173828125L449.6722717285156 731.7274169921875C450.6199035644531 731.7072143554688 451.5966796875 731.7451782226562 452.60174560546875 731.8456420898438C454.2752380371094 731.9627075195312 455.8413391113281 732.2249145507812 457.3006896972656 732.6141967773438L458.25360107421875 732.7870483398438C459.009765625 732.8966064453125 459.7805480957031 733.04248046875 460.56549072265625 733.2264404296875L460.7157897949219 733.2649536132812C461.1221618652344 733.3592529296875 461.5205383300781 733.4614868164062 461.9109802246094 733.5712890625L464.8635559082031 734.3279418945312L467.3598937988281 734.9027709960938C469.2974853515625 735.0836791992188 471.3088073730469 735.5466918945312 473.3738098144531 736.3330688476562C473.91558837890625 736.5081787109375 474.4410400390625 736.6983032226562 474.9504089355469 736.9025268554688C485.0846252441406 734.6936645507812 496.7572937011719 739.05029296875 500.4034423828125 750.6670532226562C501.02532958984375 752.5633544921875 501.41546630859375 754.65283203125 501.5267639160156 756.935791015625C501.5385437011719 757.0934448242188 501.5486755371094 757.2520751953125 501.55706787109375 757.4114990234375C501.7974853515625 759.6189575195312 501.6650085449219 761.94873046875 501.0857238769531 764.3619384765625C500.60595703125 767.2824096679688 499.44305419921875 770.1737670898438 497.46826171875 772.8643188476562C497.2572021484375 773.18359375 497.039306640625 773.4938354492188 496.81494140625 773.7951049804688C495.76470947265625 775.2999267578125 494.4853210449219 776.6797485351562 492.968017578125 777.8838500976562C490.7877197265625 779.7333374023438 488.3776550292969 780.9923706054688 485.8704528808594 781.7305297851562C482.34979248046875 783.07861328125 478.8656311035156 783.36328125 475.6007995605469 782.828369140625C473.6060791015625 782.6710205078125 471.7512512207031 782.2533569335938 470.04412841796875 781.6187133789062C469.17205810546875 781.3538208007812 468.3407897949219 781.0473022460938 467.54986572265625 780.7025756835938C466.927978515625 780.4627685546875 466.3291931152344 780.205078125 465.7532653808594 779.9307861328125C465.676025390625 779.8973388671875 465.5987243652344 779.8634033203125 465.5213623046875 779.8291015625C465.21661376953125 779.697509765625 464.91741943359375 779.5618896484375 464.6240234375 779.4224853515625C464.45233154296875 779.3536376953125 464.2801818847656 779.2825927734375 464.1076354980469 779.2094116210938L463.7422790527344 779.0422973632812C463.076171875 778.859619140625 462.4034423828125 778.6434936523438 461.724853515625 778.3925170898438C460.6490783691406 778.0422973632812 459.6368713378906 777.63818359375 458.68670654296875 777.1858520507812C458.5502624511719 777.1559448242188 458.41339111328125 777.1249389648438 458.27606201171875 777.0927734375L455.2519836425781 776.3964233398438L454.99310302734375 776.3367919921875L450.7456359863281 775.3533935546875L448.5957946777344 774.9234008789062L445.0362548828125 774.738525390625L441.8396911621094 774.652099609375C441.5652770996094 774.6409912109375 441.29364013671875 774.6259765625 441.0247802734375 774.6072998046875L438.4487609863281 774.4793701171875C438.36962890625 774.4766235351562 438.2907409667969 774.4735717773438 438.2120666503906 774.47021484375L434.75543212890625 774.3929443359375L434.6529235839844 774.3900756835938L427.8358154296875 774.3324584960938L420.08367919921875 774.468505859375L411.4508056640625 775.2568969726562C410.0895080566406 775.3727416992188 408.7844543457031 775.3861083984375 407.53643798828125 775.3063354492188L403.211669921875 775.3953857421875C403.0931701660156 775.4003295898438 402.97418212890625 775.4046020507812 402.8546447753906 775.4080810546875L394.1490173339844 775.642822265625C394.013427734375 775.6519165039062 393.87713623046875 775.6600341796875 393.7401428222656 775.667236328125L383.9560546875 776.1856079101562C383.8497314453125 776.1912231445312 383.7437744140625 776.1961669921875 383.6381530761719 776.2005615234375L377.272216796875 776.8010864257812L369.7075500488281 777.7103881835938L361.2420654296875 779.0758056640625C361.1606750488281 779.0918579101562 361.0790100097656 779.1076049804688 360.99700927734375 779.1229858398438L351.9040832519531 780.8076782226562C351.1043395996094 780.9561157226562 350.32086181640625 781.0664672851562 349.5540466308594 781.1405029296875L341.34246826171875 782.4275512695312C341.0927429199219 782.4644165039062 340.8446960449219 782.4977416992188 340.598388671875 782.5274658203125L335.6814880371094 783.4214477539062C335.30059814453125 783.5147094726562 334.91259765625 783.60107421875 334.51739501953125 783.6802368164062L323.1998596191406 785.9696655273438C322.75439453125 786.0574340820312 322.3138427734375 786.13330078125 321.8782653808594 786.1974487304688L310.4784240722656 788.151123046875C310.40850830078125 788.1634521484375 310.3387451171875 788.1754150390625 310.2690734863281 788.1871337890625L301.4502868652344 790.094970703125C301.2731628417969 790.1320190429688 301.0968322753906 790.1671752929688 300.9212341308594 790.200439453125L288.620849609375 792.967529296875C287.8797912597656 793.1321411132812 287.15167236328125 793.2631225585938 286.4369201660156 793.362060546875L275.67010498046875 795.26416015625C274.9236755371094 795.4281005859375 274.150634765625 795.5631103515625 273.3507995605469 795.6673583984375L261.0235900878906 797.2539672851562C260.5919494628906 797.318603515625 260.1523132324219 797.373779296875 259.7049865722656 797.4190063476562C259.3688659667969 797.4560546875 259.0360107421875 797.486572265625 258.7064208984375 797.5106811523438L249.22543334960938 798.3671264648438C248.9839324951172 798.3898315429688 248.74417114257812 798.4093627929688 248.50616455078125 798.4256591796875L240.8491668701172 799.1337280273438C240.04067993164062 799.2525634765625 239.20428466796875 799.336181640625 238.33984375 799.3822631835938L227.10870361328125 799.9653930664062C225.1828155517578 800.0610961914062 223.3760223388672 799.9560546875 221.68971252441406 799.67626953125L214.37725830078125 799.1309814453125C214.2658233642578 799.1290283203125 214.15396118164062 799.1264038085938 214.04168701171875 799.1231079101562L205.05313110351562 798.8377685546875C204.11367797851562 798.8701171875 203.1428680419922 798.8512573242188 202.14097595214844 798.7775268554688L194.30076599121094 798.1943359375C193.5204620361328 798.1367797851562 192.7637481689453 798.048828125 192.03050231933594 797.9323120117188L183.9125518798828 796.9906005859375L180.4818878173828 796.8853759765625C174.54112243652344 799.8585815429688 167.39215087890625 800.3040161132812 161.0156707763672 796.6594848632812L155.71580505371094 796.4706420898438C155.11949157714844 796.4751586914062 154.5109405517578 796.4596557617188 153.8902130126953 796.4232788085938L143.004638671875 795.7537231445312C142.90870666503906 795.747802734375 142.81312561035156 795.741455078125 142.71788024902344 795.734619140625L134.42684936523438 795.5944213867188C134.1947784423828 795.5935668945312 133.96087646484375 795.589599609375 133.72518920898438 795.58251953125L133.63095092773438 795.5809326171875C132.55441284179688 795.5592041015625 131.5193328857422 795.4781494140625 130.52560424804688 795.3422241210938L123.764404296875 794.72900390625L118.84168243408203 794.6578979492188C118.68229675292969 794.6573486328125 118.52203369140625 794.655517578125 118.36089324951172 794.6522216796875L110.26150512695312 794.5657958984375C109.50236511230469 794.5504760742188 108.76378631591797 794.505615234375 108.04572296142578 794.432861328125L103.14816284179688 794.3212280273438C102.87955474853516 794.3203125 102.60847473144531 794.3154907226562 102.33490753173828 794.306640625L97.51498413085938 794.1580200195312L97.43207550048828 794.1554565429688L91.53572082519531 793.982666015625H88.0023193359375C87.10137176513672 794.0868530273438 86.16770935058594 794.1452026367188 85.20149993896484 794.154541015625C84.784912109375 794.16455078125 84.37401580810547 794.164794921875 83.96882629394531 794.1554565429688H83.09075927734375C82.1219711303711 794.146728515625 81.18609619140625 794.0892944335938 80.28311920166016 793.9865112304688C79.07383728027344 794.260009765625 77.80007934570312 794.4342651367188 76.46332550048828 794.4976196289062C75.98542022705078 794.555908203125 75.51300811767578 794.5986328125 75.04630279541016 794.6262817382812C64.57292175292969 797.4220581054688 53.954288482666016 790.8819580078125 49.75734329223633 781.5728759765625C47.50336837768555 780.1124877929688 45.50959396362305 778.1630249023438 43.93793487548828 775.6984252929688C43.59328842163086 775.1858520507812 43.269927978515625 774.6515502929688 42.96966552734375 774.0956420898438C41.646095275878906 771.9130859375 40.718223571777344 769.4824829101562 40.313236236572266 766.8734130859375C39.77318572998047 763.919189453125 39.95062255859375 760.9840698242188 40.6978759765625 758.2125854492188C40.72639846801758 758.063720703125 40.75642776489258 757.9157104492188 40.787940979003906 757.7686767578125C41.10626220703125 755.8661499023438 41.61551284790039 754.1229858398438 42.28542709350586 752.5366821289062L42.507415771484375 751.5418701171875C42.649993896484375 750.9088134765625 42.810768127441406 750.2948608398438 42.98877716064453 749.6997680664062L43.07971954345703 749.3541870117188C43.20444107055664 748.7664184570312 43.35176467895508 748.1708984375 43.52254104614258 747.5677490234375L44.045223236083984 745.768798828125C44.13716506958008 745.3641967773438 44.23982238769531 744.9559326171875 44.35348129272461 744.544189453125L44.31256866455078 743.0712890625C44.292423248291016 742.6682739257812 44.28097915649414 742.2592163085938 44.27848434448242 741.8441772460938V730.9993286132812C44.277183532714844 730.8426513671875 44.27717971801758 730.68505859375 44.27848434448242 730.5266723632812V728.980224609375C44.2728385925293 728.6570434570312 44.27279281616211 728.3302001953125 44.27848434448242 727.9996337890625L44.341819763183594 725.7669677734375C44.340518951416016 725.3648681640625 44.348121643066406 724.9571533203125 44.36487579345703 724.5438842773438L44.451271057128906 721.6713256835938C44.48253631591797 720.9141235351562 44.54290008544922 720.1781616210938 44.63079071044922 719.4631958007812L44.64326858520508 719.213623046875C44.65030288696289 718.6954956054688 44.672508239746094 718.16845703125 44.71044921875 717.6324462890625L45.05602264404297 712.7296142578125C45.104583740234375 712.0648193359375 45.175174713134766 711.4170532226562 45.26673126220703 710.7863159179688L45.51060104370117 707.9716796875C45.53237533569336 707.373291015625 45.57494354248047 706.7633666992188 45.63917922973633 706.14208984375L46.23846435546875 700.6629028320312C46.26869201660156 700.0530395507812 46.32060241699219 699.4315795898438 46.39512252807617 698.7986450195312L47.07781219482422 693.2671508789062C47.09757614135742 692.982421875 47.12196350097656 692.6951904296875 47.151065826416016 692.405517578125L47.663429260253906 687.6844482421875L47.66942596435547 687.589111328125L48.04802703857422 681.8607177734375C48.058658599853516 680.6893920898438 48.153202056884766 679.473876953125 48.3389778137207 678.2153930664062L49.516841888427734 670.5999145507812L50.110042572021484 663.7876586914062C50.16914749145508 663.093017578125 50.25205993652344 662.4173583984375 50.357547760009766 661.760498046875L50.62444305419922 659.3683471679688C50.65886688232422 658.827392578125 50.71037292480469 658.2774047851562 50.77959442138672 657.7185668945312L51.49370193481445 651.6588134765625L51.70832443237305 649.3113403320312V646.5089721679688C51.70901870727539 646.39306640625 51.71041488647461 646.2776489257812 51.712501525878906 646.1627197265625L51.650611877441406 644.8939819335938C51.64008331298828 644.75634765625 51.63051986694336 644.617919921875 51.62192916870117 644.478759765625L51.4157829284668 641.0304565429688C51.40422821044922 640.8848266601562 51.39374542236328 640.7383422851562 51.38434600830078 640.591064453125L50.96678924560547 634.4737548828125L50.9523811340332 634.2626953125L50.52041244506836 627.7615966796875C50.471466064453125 626.9968872070312 50.4544677734375 626.2506103515625 50.4677848815918 625.5228271484375L50.34087371826172 621.738525390625C50.26786422729492 620.8275146484375 50.2426643371582 619.8848266601562 50.268714904785156 618.9105834960938C50.272850036621094 618.3087158203125 50.296775817871094 617.7193603515625 50.33964538574219 617.1426391601562L50.513572692871094 613.0L50.45561599731445 606.5087890625C50.45561599731445 604.9171752929688 50.58782958984375 603.413330078125 50.83763122558594 601.997314453125L51.22146987915039 598.0150146484375L51.43949508666992 593.1390991210938L51.38770294189453 586.5267944335938C51.3824348449707 586.2852783203125 51.38031768798828 586.0416259765625 51.381404876708984 585.796142578125C51.380332946777344 585.55419921875 51.38236999511719 585.3143310546875 51.38745880126953 585.076416015625L51.44914245605469 576.81103515625C51.4652214050293 575.7402954101562 51.5405387878418 574.7102661132812 51.6706428527832 573.7210083007812L52.10225296020508 567.0927124023438L51.90842819213867 560.163330078125C51.89750289916992 559.9759521484375 51.888389587402344 559.7872314453125 51.88111114501953 559.59716796875L51.64756393432617 553.2135620117188C51.63792037963867 553.0671997070312 51.629371643066406 552.9200439453125 51.62192916870117 552.7720336914062L51.12516784667969 542.9879760742188C51.1126823425293 542.7398071289062 51.103515625 542.4935913085938 51.09761047363281 542.2493286132812L50.45561599731445 534.8021850585938C50.428306579589844 534.4466552734375 50.4079475402832 534.094970703125 50.39437484741211 533.7471923828125L49.59168243408203 525.514892578125C49.54582977294922 525.0116577148438 49.514034271240234 524.5160522460938 49.495826721191406 524.028076171875L49.18166732788086 521.0181884765625C49.070648193359375 520.3413696289062 48.98368835449219 519.6444702148438 48.92213439941406 518.9274291992188L48.37485885620117 511.7598876953125C48.252098083496094 510.79718017578125 48.18190383911133 509.7962341308594 48.16844940185547 508.757080078125C48.14794158935547 508.16314697265625 48.147464752197266 507.58056640625 48.16619110107422 507.00946044921875V499.7017822265625C48.16464614868164 499.5310363769531 48.16463851928711 499.3592834472656 48.16619110107422 499.1864929199219L48.24847412109375 490.5876770019531C48.247859954833984 490.3954772949219 48.24921798706055 490.2019958496094 48.25258255004883 490.0072021484375L48.33268737792969 480.9953918457031C48.32952880859375 480.68377685546875 48.33158874511719 480.3687438964844 48.3389778137207 480.05035400390625L48.65696716308594 469.0995178222656C48.65605545043945 468.6739501953125 48.66514587402344 468.24212646484375 48.68455123901367 467.8040771484375L49.20942687988281 456.6456298828125C49.21046829223633 456.0780029296875 49.229644775390625 455.4993896484375 49.26770782470703 454.90985107421875L50.110042572021484 441.47564697265625C50.15899658203125 440.7174377441406 50.23659896850586 439.9811706542969 50.34128189086914 439.2666931152344L50.98119354248047 432.4657897949219C51.00551223754883 431.8316955566406 51.05315399169922 431.184814453125 51.12516784667969 430.5252685546875L52.499725341796875 418.3899230957031C52.53218078613281 417.9134826660156 52.57781219482422 417.43011474609375 52.637054443359375 416.9399108886719L54.07985305786133 405.0465393066406C54.09840393066406 404.7657470703125 54.12140655517578 404.4825134277344 54.1489372253418 404.1968688964844L54.933982849121094 396.7115173339844C54.96323776245117 396.14947509765625 55.01089096069336 395.5776062011719 55.077667236328125 394.9959411621094L56.46003723144531 383.46246337890625C56.479305267333984 383.2620544433594 56.50086975097656 383.0604553222656 56.52476119995117 382.857666015625L57.90916061401367 370.96441650390625L58.669586181640625 359.85052490234375C58.679447174072266 359.64471435546875 58.6916389465332 359.43756103515625 58.70619583129883 359.22906494140625L59.54853057861328 346.9827880859375C59.564720153808594 346.7533874511719 59.58352279663086 346.5260009765625 59.60489273071289 346.3006286621094L59.903072357177734 339.9494323730469C59.897743225097656 339.7396545410156 59.894744873046875 339.52825927734375 59.89410400390625 339.3153381347656V299.07757568359375L59.89411163330078 299.0487365722656L59.89410400390625 298.9911804199219L59.896339416503906 298.7200622558594L59.9793586730957 288.65447998046875C59.97944641113281 288.5797119140625 59.97982406616211 288.5047607421875 59.980499267578125 288.4295959472656L60.062870025634766 275.41455078125C60.059478759765625 275.1195068359375 60.060787200927734 274.8214111328125 60.066890716552734 274.5202331542969L60.1413688659668 269.71649169921875C60.14006805419922 269.4060363769531 60.14400100708008 269.0922546386719 60.15328598022461 268.77508544921875L60.30332565307617 264.6114807128906C60.306182861328125 264.3175964355469 60.3137321472168 264.0207824707031 60.326072692871094 263.7210388183594L60.5291633605957 257.517578125C60.530269622802734 257.0863342285156 60.54166030883789 256.64874267578125 60.563655853271484 256.204833984375L60.949546813964844 249.27806091308594C60.95770263671875 248.92022705078125 60.972999572753906 248.55813598632812 60.99562072753906 248.1918182373047L61.57877731323242 238.49415588378906C61.62497329711914 237.77867126464844 61.69668197631836 237.0826416015625 61.79258346557617 236.406005859375L62.28567123413086 229.3278045654297C62.298187255859375 229.0664825439453 62.31451416015625 228.802978515625 62.334720611572266 228.5373077392578L63.0258674621582 219.94114685058594C63.036277770996094 219.80909729003906 63.04754638671875 219.67771911621094 63.05966567993164 219.54701232910156L63.177059173583984 214.95193481445312C63.20787811279297 214.07850646972656 63.277496337890625 213.23300170898438 63.383506774902344 212.41531372070312L63.811988830566406 206.67669677734375L63.60902404785156 201.12896728515625C63.59782409667969 200.7024383544922 63.59627151489258 200.28196716308594 63.60408401489258 199.86756896972656L63.48817825317383 197.6363525390625C63.46847152709961 197.4201202392578 63.451141357421875 197.2020263671875 63.43623733520508 196.98208618164062L62.939476013183594 189.81143188476562C62.935020446777344 189.74549865722656 62.93080139160156 189.67970275878906 62.92681884765625 189.61402893066406L62.42500305175781 184.78402709960938L62.42111587524414 184.7574005126953L61.49238586425781 178.60186767578125C61.4835205078125 178.5392303466797 61.474876403808594 178.47671508789062 61.466461181640625 178.41429138183594L60.92023849487305 175.08615112304688C60.736087799072266 174.26051330566406 60.587562561035156 173.40228271484375 60.47726058959961 172.51112365722656L59.980499267578125 168.29945373535156C59.80672073364258 166.90072631835938 59.744606018066406 165.55784606933594 59.78403854370117 164.2720489501953L59.692142486572266 162.38812255859375C59.66981887817383 162.13641357421875 59.650726318359375 161.88223266601562 59.634925842285156 161.62554931640625L59.45104217529297 157.3795623779297C59.43148422241211 157.1979522705078 59.413578033447266 157.01499938964844 59.397342681884766 156.83071899414062L59.04871368408203 152.54258728027344C58.15580368041992 151.0355224609375 57.437103271484375 149.35792541503906 56.932029724121094 147.5098114013672C55.37126159667969 143.06674194335938 55.21078109741211 138.16075134277344 57.01810836791992 133.50149536132812C56.992340087890625 131.0377655029297 57.432716369628906 128.61361694335938 58.254329681396484 126.32166290283203C60.11099624633789 119.9073715209961 64.74647521972656 114.35557556152344 72.1607437133789 112.24812316894531C75.50826263427734 111.02365112304688 79.16595458984375 110.63542938232422 82.86747741699219 111.3740234375C85.7658920288086 111.50804138183594 88.353759765625 112.09423065185547 90.63106536865234 113.03567504882812L92.46444702148438 112.70523834228516ZM160.13214111328125 617.7399291992188V614.9407348632812L159.5273895263672 610.5692749023438C159.5159912109375 610.4869384765625 159.50497436523438 610.4048461914062 159.4943389892578 610.3228759765625L159.14930725097656 608.1760864257812C159.1074981689453 607.9608154296875 159.06793212890625 607.743408203125 159.03062438964844 607.52392578125L158.44747924804688 604.0681762695312C158.31549072265625 603.2886352539062 158.2191162109375 602.5250854492188 158.1566162109375 601.77783203125C157.95297241210938 600.667236328125 157.8180389404297 599.5014038085938 157.7584228515625 598.2801513671875L157.75633239746094 598.2366333007812C157.73611450195312 597.9376220703125 157.72195434570312 597.6412963867188 157.7129669189453 597.3477172851562L157.5835418701172 594.6945190429688C157.54750061035156 593.8667602539062 157.54818725585938 593.0611572265625 157.5835418701172 592.2778930664062V482.5773620605469L157.52044677734375 476.8160705566406L157.51873779296875 476.6593933105469C157.51805114746094 476.54412841796875 157.51805114746094 476.4293518066406 157.51873779296875 476.31500244140625V469.57513427734375L157.44105529785156 465.94293212890625C157.4372100830078 465.8080139160156 157.43429565429688 465.6724548339844 157.43235778808594 465.5362243652344L157.35755920410156 462.0205383300781C157.3524932861328 461.8685607910156 157.34861755371094 461.7157897949219 157.34596252441406 461.5621337890625V461.4757385253906C157.34320068359375 461.2461853027344 157.3432159423828 461.0184631347656 157.34596252441406 460.7925109863281V457.3504638671875L157.1731719970703 449.33746337890625C157.17120361328125 449.20611572265625 157.17015075683594 449.0753173828125 157.16998291015625 448.94512939453125L157.08677673339844 440.9788818359375C157.08457946777344 440.8248596191406 157.08363342285156 440.671630859375 157.08392333984375 440.51922607421875L157.00833129882812 432.9227294921875C156.99545288085938 432.4902648925781 156.99270629882812 432.05108642578125 157.00038146972656 431.6051940917969L157.21202087402344 423.75701904296875C157.18008422851562 422.8595886230469 157.1948699951172 421.9334411621094 157.2595672607422 420.9787902832031L157.66993713378906 414.73687744140625V407.7967834472656C157.6675262451172 407.584716796875 157.66751098632812 407.3710632324219 157.66993713378906 407.15582275390625L157.67196655273438 407.0511779785156L157.67684936523438 406.79791259765625L157.8386688232422 398.4230041503906C157.8391571044922 398.29632568359375 157.84051513671875 398.1690979003906 157.84271240234375 398.04132080078125L158.00979614257812 390.439453125C158.01107788085938 390.33160400390625 158.01296997070312 390.2233581542969 158.0155029296875 390.1147155761719L158.1861114501953 382.1817321777344L158.18829345703125 382.08013916015625L158.361083984375 372.55523681640625Q158.36276245117188 372.4916076660156 158.3647003173828 372.42816162109375L158.51226806640625 363.6999206542969V355.0287170410156L158.23272705078125 351.2917175292969L157.5323486328125 346.1655578613281C157.37960815429688 345.3048400878906 157.26722717285156 344.4111633300781 157.19818115234375 343.48431396484375C157.1529998779297 342.9715881347656 157.12315368652344 342.4666442871094 157.10809326171875 341.9695129394531L157.06419372558594 341.1958923339844C157.04026794433594 340.9671325683594 157.01898193359375 340.73626708984375 157.00038146972656 340.5032653808594L156.86892700195312 338.3835144042969C156.85414123535156 338.2413635253906 156.84036254882812 338.0984191894531 156.8275909423828 337.95465087890625L156.63404846191406 335.4385986328125C156.542236328125 334.8316650390625 156.4696502685547 334.2088928222656 156.41722106933594 333.5701904296875L155.98526000976562 328.4297790527344C155.94552612304688 327.9272155761719 155.91969299316406 327.43243408203125 155.9073028564453 326.9454040527344L155.48849487304688 320.8271484375C155.4293212890625 319.91064453125 155.41578674316406 319.0205383300781 155.44509887695312 318.1570129394531L155.35549926757812 314.5171203613281C155.28262329101562 313.5121765136719 155.26783752441406 312.4692687988281 155.31570434570312 311.388671875L155.66128540039062 304.131591796875C155.69943237304688 303.3120422363281 155.77154541015625 302.5174560546875 155.87564086914062 301.747802734375L156.5036163330078 294.6067199707031C156.52899169921875 294.3281555175781 156.55819702148438 294.0526428222656 156.59112548828125 293.78021240234375L156.99331665039062 288.4920959472656L156.91796875 281.7860107421875C156.91575622558594 281.6684265136719 156.91427612304688 281.5503234863281 156.9139862060547 281.4317321777344L156.91326904296875 281.3776550292969C156.90834045410156 280.97967529296875 156.91177368164062 280.5871276855469 156.92332458496094 280.199951171875L156.98150634765625 275.0793151855469C156.9439697265625 274.2144470214844 156.94932556152344 273.3224792480469 157.00038146972656 272.4035949707031L157.2555389404297 268.1777038574219L157.09335327148438 260.6565856933594C157.0908966064453 260.5839538574219 157.0886993408203 260.5111389160156 157.08677673339844 260.4381103515625L156.9139862060547 252.83547973632812C156.9112548828125 252.7316131591797 156.9091033935547 252.62811279296875 156.9075164794922 252.52496337890625L156.74119567871094 246.76632690429688C156.73086547851562 246.32139587402344 156.73097229003906 245.88308715820312 156.74119567871094 245.45140075683594V240.64007568359375C156.7281951904297 240.15634155273438 156.72804260253906 239.66421508789062 156.74119567871094 239.16371154785156L156.85800170898438 234.03890991210938C156.78109741210938 232.64129638671875 156.82412719726562 231.174072265625 157.00038146972656 229.63882446289062L157.5982666015625 224.70205688476562L157.66993713378906 219.5955810546875V215.4249725341797C157.66941833496094 215.32522583007812 157.66940307617188 215.2251434326172 157.66993713378906 215.1247100830078V199.18511962890625L157.5977325439453 195.2321319580078C157.5922393798828 195.11045837402344 157.58750915527344 194.98822021484375 157.5835418701172 194.86544799804688L157.52857971191406 192.3742218017578C157.52505493164062 192.30487060546875 157.5217742919922 192.2353515625 157.51873779296875 192.1656494140625L157.44615173339844 189.69723510742188C157.44125366210938 189.62033081054688 157.43666076660156 189.543212890625 157.43235778808594 189.46585083007812L157.23812866210938 186.06686401367188C157.21356201171875 185.8270721435547 157.19189453125 185.58497619628906 157.1731719970703 185.34056091308594L156.91500854492188 181.74249267578125C156.8824920654297 181.483154296875 156.85333251953125 181.2210235595703 156.8275909423828 180.9561004638672L156.24444580078125 174.45498657226562C156.2330322265625 174.3337860107422 156.22244262695312 174.21302795410156 156.21266174316406 174.0926971435547L155.5625 168.89146423339844L154.6461639404297 163.15904235839844C154.57814025878906 162.7163848876953 154.5214385986328 162.27903747558594 154.4757537841797 161.8470001220703L154.07798767089844 159.18763732910156C154.02203369140625 158.86045837402344 153.9723358154297 158.5286102294922 153.9290771484375 158.19207763671875L153.8902130126953 157.93223571777344C153.7994384765625 157.322265625 153.73028564453125 156.72247314453125 153.68190002441406 156.1329803466797C152.88172912597656 156.11099243164062 152.10458374023438 156.0559539794922 151.35043334960938 155.96969604492188L144.56271362304688 155.47378540039062C144.48989868164062 155.47280883789062 144.41690063476562 155.4715576171875 144.34373474121094 155.4700164794922L136.8325653076172 155.26031494140625C136.26541137695312 155.26168823242188 135.68739318847656 155.2443389892578 135.0985870361328 155.20745849609375C134.3659210205078 155.17295837402344 133.6531982421875 155.11032104492188 132.9604034423828 155.02105712890625L127.05513763427734 154.47030639648438L123.64534759521484 154.52761840820312C123.40503692626953 154.53524780273438 123.16264343261719 154.53982543945312 122.91815185546875 154.54129028320312H115.66110229492188L110.28677368164062 154.6200408935547C110.22091674804688 154.62281799316406 110.15489959716797 154.62535095214844 110.0887222290039 154.627685546875L106.44718933105469 154.75433349609375C106.258544921875 154.77151489257812 106.06849670410156 154.7869110107422 105.87703704833984 154.8004608154297L102.56814575195312 155.0083465576172L102.67298889160156 157.42929077148438C102.7513198852539 158.11068725585938 102.80465698242188 158.8110809326172 102.8316650390625 159.53050231933594L102.9769515991211 163.9980926513672L103.4364242553711 167.19793701171875C103.45406341552734 167.34034729003906 103.47055053710938 167.482177734375 103.48589324951172 167.62342834472656L104.07160186767578 171.192138671875C104.14877319335938 171.59556579589844 104.21791076660156 172.0064239501953 104.27875518798828 172.42474365234375L105.20748901367188 178.60186767578125C105.31365203857422 179.3512725830078 105.38753509521484 180.08522033691406 105.43069458007812 180.8035125732422L105.8590087890625 185.05905151367188C105.94249725341797 185.669921875 106.00642395019531 186.29649353027344 106.0498275756836 186.9388427734375L106.54658508300781 194.02310180664062C106.5840835571289 194.5780487060547 106.60481262207031 195.12335205078125 106.6093978881836 195.6589813232422L106.80577087402344 199.42269897460938C106.83612823486328 200.03543090820312 106.8462905883789 200.6361083984375 106.83708190917969 201.2246856689453L106.91688537597656 204.49696350097656C107.08771514892578 206.03292846679688 107.11443328857422 207.6609649658203 106.97855377197266 209.37954711914062L106.37403106689453 216.46383666992188L106.37359619140625 216.46893310546875L106.20877075195312 220.51451110839844C106.23014831542969 221.3909454345703 106.20693969726562 222.29421997070312 106.13621520996094 223.22410583496094L105.445068359375 231.90664672851562C105.4290771484375 232.10885620117188 105.41107177734375 232.30947875976562 105.39105987548828 232.5084991455078L104.68912506103516 241.453125C104.67337799072266 241.66867065429688 104.65531921386719 241.88243103027344 104.63497924804688 242.09437561035156L104.10597229003906 250.89161682128906C104.0965576171875 251.04403686523438 104.08598327636719 251.195556640625 104.07424926757812 251.34620666503906L103.7603988647461 258.4078674316406C103.74951171875 258.61505126953125 103.73646545410156 258.82061767578125 103.72129821777344 259.0245666503906L103.4364242553711 265.4057312011719C103.43462371826172 265.4528503417969 103.43270874023438 265.4999084472656 103.4306869506836 265.546875L103.35002899169922 269.9629821777344C103.34844970703125 270.01690673828125 103.34672546386719 270.0707092285156 103.3448486328125 270.1244201660156L103.26363372802734 275.3625793457031C103.26293182373047 275.3972473144531 103.26216125488281 275.431884765625 103.26133728027344 275.46649169921875L103.17723846435547 288.7751770019531C103.17668914794922 288.8357849121094 103.17595672607422 288.8962707519531 103.17503356933594 288.95660400390625L103.09085083007812 299.1639709472656V337.7873840332031C103.1274185180664 338.583251953125 103.12814331054688 339.40216064453125 103.09085083007812 340.24407958984375L102.74797058105469 347.931884765625C102.75243377685547 348.6147155761719 102.73037719726562 349.3134765625 102.68048095703125 350.02813720703125L101.81654357910156 362.2528381347656L101.80814361572266 362.3651428222656L101.00526428222656 373.1013488769531C100.987060546875 373.9405212402344 100.92715454101562 374.8025207519531 100.8230209350586 375.68701171875L99.37593078613281 387.91168212890625C99.3524169921875 388.1164855957031 99.32687377929688 388.3195495605469 99.29932403564453 388.5209045410156L98.03682708740234 399.98516845703125C97.9969253540039 400.3304748535156 97.95124053955078 400.6708984375 97.89993286132812 401.00640869140625L97.19449615478516 408.49493408203125C97.12907409667969 409.14813232421875 97.04287719726562 409.78424072265625 96.9369125366211 410.4033508300781L95.69270324707031 420.5063171386719C95.66571807861328 420.9668273925781 95.6264877319336 421.43389892578125 95.57461547851562 421.90753173828125L94.22313690185547 433.89703369140625C94.20481872558594 434.2311096191406 94.1801986694336 434.5686950683594 94.14912414550781 434.9097595214844L93.22039031982422 444.8666076660156C93.19184875488281 445.1689147949219 93.15880584716797 445.4675598144531 93.12135314941406 445.7625732421875L92.37805938720703 457.6744384765625C92.3673324584961 457.8405456542969 92.35523223876953 458.005615234375 92.3417739868164 458.1696472167969L91.88129425048828 469.6615295410156C91.87397766113281 469.82666015625 91.86528778076172 469.9908142089844 91.855224609375 470.1539306640625L91.53572082519531 481.2166442871094C91.53475952148438 481.2532958984375 91.53372192382812 481.2898864746094 91.53262329101562 481.3264465332031L91.44932556152344 490.6767272949219C91.44841003417969 490.7295227050781 91.44735717773438 490.7822265625 91.44615936279297 490.8348388671875L91.36293029785156 499.5320739746094V507.53204345703125L92.03247833251953 515.2988891601562C92.06256866455078 515.6497192382812 92.08586120605469 515.9967651367188 92.10249328613281 516.340087890625L92.63723754882812 521.30322265625C92.6826400756836 521.74658203125 92.71709442138672 522.1841430664062 92.74089050292969 522.6159057617188L93.56596374511719 531.1737060546875C93.61239624023438 531.6832885742188 93.64441680908203 532.1851196289062 93.66252136230469 532.6790161132812L94.10652160644531 538.5082397460938C94.2078628540039 539.2443237304688 94.28023529052734 540.0032348632812 94.32190704345703 540.7849731445312L94.65673065185547 548.8382568359375C94.7354507446289 549.5119018554688 94.78986358642578 550.2039794921875 94.81867218017578 550.9146118164062L95.07785034179688 557.9124755859375C95.09552001953125 558.3740234375 95.10179138183594 558.82861328125 95.09701538085938 559.2761840820312L95.21148681640625 565.3575439453125C95.3248519897461 566.6365356445312 95.34123992919922 567.9779663085938 95.25064086914062 569.3812255859375L94.64588165283203 578.5820922851562C94.64291381835938 578.62646484375 94.63985443115234 578.6707763671875 94.6366958618164 578.7149658203125L94.58373260498047 585.8303833007812L94.63310241699219 592.1344604492188C94.69232940673828 593.097412109375 94.69792938232422 594.0947875976562 94.64588165283203 595.12646484375L94.44772338867188 598.376220703125C94.46533966064453 599.3687744140625 94.42484283447266 600.3950805664062 94.32190704345703 601.4547729492188L93.66374969482422 607.6978759765625L93.71715545654297 613.679443359375C93.71715545654297 614.5284423828125 93.67976379394531 615.3524780273438 93.607177734375 616.151611328125L93.50061798095703 619.5883178710938L93.6263198852539 624.695068359375C93.63574981689453 624.8167114257812 93.6444320678711 624.9390258789062 93.65235900878906 625.0618286132812L94.06272888183594 631.4765014648438L94.48112487792969 637.6060180664062L94.49469757080078 637.8048706054688L94.51158905029297 638.0873413085938L94.7322769165039 641.7789306640625C94.75252532958984 642.1068115234375 94.76690673828125 642.4312744140625 94.77555084228516 642.7523803710938L94.90506744384766 645.407470703125C94.97003173828125 646.5135498046875 94.9683837890625 647.5807495117188 94.90506744384766 648.6087036132812V648.6423950195312C94.93492889404297 649.3781127929688 94.93269348144531 650.1331787109375 94.89653778076172 650.9072265625C94.8721694946289 651.893798828125 94.7966537475586 652.8453979492188 94.67359924316406 653.761962890625L94.58146667480469 654.8429565429688C94.54833221435547 655.4093017578125 94.49632263183594 655.985595703125 94.42472076416016 656.5715942382812C94.40558624267578 656.7434692382812 94.38496398925781 656.9141845703125 94.36287689208984 657.0836791992188L93.65235900878906 663.03173828125C93.61781311035156 663.3089599609375 93.57957458496094 663.5829467773438 93.53772735595703 663.853759765625L93.1503677368164 667.2155151367188C93.14515686035156 667.2822875976562 93.13970947265625 667.3491821289062 93.13400268554688 667.4161987304688L92.46444702148438 675.191650390625C92.37972259521484 676.1873168945312 92.24607849121094 677.1439208984375 92.06710052490234 678.0618286132812L91.20667266845703 683.9284057617188L90.77977752685547 690.461669921875C90.73462677001953 691.1588745117188 90.66510009765625 691.8375244140625 90.57243347167969 692.4976196289062L90.17501831054688 696.70361328125C90.11278533935547 697.3297119140625 90.03140258789062 697.9400024414062 89.9317626953125 698.53466796875L89.33268737792969 703.9606323242188C89.29798126220703 704.247802734375 89.25930786132812 704.5315551757812 89.21674346923828 704.8119506835938L88.66313934326172 710.5265502929688C88.6357650756836 710.7921142578125 88.60496520996094 711.0548095703125 88.57080078125 711.314697265625L88.16637420654297 716.1853637695312C88.14436340332031 716.43310546875 88.11933135986328 716.6784057617188 88.09133911132812 716.9213256835938L87.82080078125 720.7426147460938C87.80735778808594 720.9248046875 87.7922592163086 721.1057739257812 87.7755355834961 721.285400390625L87.64801025390625 723.7879638671875C87.64168548583984 723.8959350585938 87.63477325439453 724.0035400390625 87.62728881835938 724.1106567382812L87.5616226196289 726.2285766601562C87.55401611328125 726.4168090820312 87.54462432861328 726.6036987304688 87.53346252441406 726.789306640625L87.47522735595703 728.8419799804688V741.67138671875L87.52752685546875 743.55419921875C87.53861236572266 743.7760009765625 87.54707336425781 743.9996948242188 87.55284881591797 744.2251586914062C87.81443786621094 746.2626953125 87.78038024902344 748.44091796875 87.39627838134766 750.7437744140625L87.39310455322266 750.7716674804688C87.77071380615234 750.768310546875 88.14353942871094 750.7731323242188 88.51155853271484 750.7859497070312H91.22560119628906C91.76496124267578 750.7698364257812 92.31470489501953 750.7695922851562 92.87481689453125 750.7859497070312L98.79277038574219 751.0234985351562L103.67400360107422 751.1099243164062C103.82965850830078 751.1149291992188 103.98442840576172 751.1212158203125 104.13832092285156 751.1287231445312L111.19023895263672 751.3690795898438C111.23188781738281 751.3700561523438 111.27346801757812 751.37109375 111.31499481201172 751.3722534179688L119.03045654296875 751.45458984375L119.11683654785156 751.4555053710938C119.16450500488281 751.4564819335938 119.21209716796875 751.45751953125 119.25960540771484 751.458740234375L124.18470001220703 751.528564453125C124.52085876464844 751.5267944335938 124.8608627319336 751.5316772460938 125.20466613769531 751.5431518554688C126.32893371582031 751.5624389648438 127.4081802368164 751.6472778320312 128.44244384765625 751.7923583984375L135.08157348632812 752.39453125L144.68931579589844 752.5570068359375C145.06153869628906 752.5656127929688 145.42880249023438 752.5814208984375 145.79112243652344 752.60400390625L145.79083251953125 752.5570068359375V741.6834716796875C145.78656005859375 741.4014892578125 145.78652954101562 741.11669921875 145.79083251953125 740.8291015625L145.8644561767578 737.810791015625C145.8642120361328 737.5238037109375 145.86843872070312 737.2340087890625 145.87722778320312 736.9413452148438L145.98594665527344 733.9746704101562C145.98121643066406 733.3983154296875 145.9951171875 732.810546875 146.02841186523438 732.2113037109375L146.17333984375 729.9529418945312C146.17120361328125 729.1302490234375 146.20849609375 728.2847290039062 146.28759765625 727.41650390625L146.5372772216797 724.9196166992188C146.56524658203125 723.979736328125 146.64639282226562 723.011962890625 146.7843475341797 722.0169067382812L147.16217041015625 719.6712646484375C147.22216796875 719.1643676757812 147.29763793945312 718.6503295898438 147.3891143798828 718.1292114257812L147.93492126464844 715.0881958007812C148.0126190185547 714.5054321289062 148.11119079589844 713.91357421875 148.2314453125 713.312744140625L148.9926300048828 709.6484375C149.01828002929688 709.495361328125 149.04531860351562 709.3417358398438 149.0737762451172 709.1874389648438L149.63180541992188 706.1422729492188L150.00790405273438 702.9611206054688L150.36148071289062 698.3084716796875C150.3849639892578 697.8916625976562 150.4185333251953 697.4694213867188 150.46243286132812 697.0421752929688C150.5130615234375 696.5065307617188 150.57814025878906 695.9822998046875 150.65707397460938 695.4694213867188L151.02505493164062 692.5912475585938C151.06558227539062 692.2037963867188 151.1150360107422 691.81201171875 151.1736297607422 691.4159545898438C151.19952392578125 691.2239990234375 151.22726440429688 691.033447265625 151.25680541992188 690.8444213867188L151.85328674316406 686.7150268554688C151.93211364746094 686.0050659179688 152.04183959960938 685.2811889648438 152.18394470214844 684.543701171875L153.37185668945312 678.2153930664062C153.5436248779297 677.3308715820312 153.75161743164062 676.482177734375 153.99322509765625 675.6687622070312L154.33604431152344 674.2191162109375L154.38697814941406 674.0037231445312L154.3883819580078 673.9979858398438L155.22930908203125 670.5479736328125C155.32846069335938 670.1370849609375 155.43519592285156 669.7344970703125 155.5492401123047 669.3400268554688L156.72654724121094 663.9412841796875L157.31793212890625 659.6503295898438C157.32688903808594 659.5681762695312 157.3362274169922 659.4857788085938 157.34596252441406 659.4031982421875L157.78274536132812 655.9898071289062L157.95310974121094 651.9434814453125C157.94558715820312 651.2431640625 157.96591186523438 650.5259399414062 158.0155029296875 649.7919311523438L158.1898651123047 647.6416015625C158.20614624023438 647.1844482421875 158.23428344726562 646.720458984375 158.27468872070312 646.2498168945312L158.51022338867188 643.8629760742188C158.53140258789062 643.482421875 158.56082153320312 643.0972900390625 158.59866333007812 642.7077026367188L158.94174194335938 639.4141235351562C158.96502685546875 639.0826416015625 158.99461364746094 638.747802734375 159.03062438964844 638.4096069335938L159.5273895263672 634.0035400390625C159.54405212402344 633.8471069335938 159.56190490722656 633.6915893554688 159.58094787597656 633.537109375L160.03817749023438 628.81787109375C160.0406036376953 628.775390625 160.0431365966797 628.73291015625 160.04576110839844 628.6903076171875L160.39944458007812 623.0311279296875L160.29519653320312 620.36767578125C160.20030212402344 619.5208129882812 160.14505004882812 618.6449584960938 160.13214111328125 617.7399291992188Z" fill="black"/>
</svg>
