<svg xmlns="http://www.w3.org/2000/svg" viewBox="0 0 547 1000">
  <path d="M310.208740234375 153.34092712402344 299.516357421875 153.92881774902344C299.2861022949219 153.9402313232422 299.0576171875 153.94871520996094 298.83087158203125 153.9542999267578L288.0232849121094 154.41207885742188C287.7008361816406 154.42636108398438 287.3818664550781 154.43492126464844 287.0663757324219 154.4378662109375L275.962890625 154.83229064941406C275.69873046875 154.83999633789062 275.43695068359375 154.8439178466797 275.17755126953125 154.8441162109375L255.16522216796875 155.2274169921875C255.12216186523438 155.2288818359375 255.07904052734375 155.23023986816406 255.0358428955078 155.23150634765625L235.09629821777344 155.81982421875L235.06471252441406 155.8207244873047L218.2664031982422 156.30307006835938C217.85630798339844 156.31631469726562 217.45193481445312 156.32032775878906 217.05331420898438 156.31539916992188L207.78012084960938 156.45590209960938C207.21151733398438 156.47959899902344 206.6307830810547 156.48495483398438 206.03793334960938 156.47116088867188L192.90599060058594 156.13497924804688C192.81591796875 156.1328887939453 192.7261505126953 156.13038635253906 192.6366729736328 156.12744140625L186.70802307128906 156.05355834960938L184.711669921875 156.07850646972656V170.27987670898438L185.0266876220703 173.4481658935547L185.02713012695312 173.45095825195312L185.71426391601562 177.74960327148438C185.73074340820312 177.84915161132812 185.74673461914062 177.94912719726562 185.76222229003906 178.04957580566406Q185.78282165527344 178.1835174560547 185.802001953125 178.3167724609375L186.40054321289062 182.33778381347656C186.50352478027344 182.8633270263672 186.59213256835938 183.4019317626953 186.6656951904297 183.9536895751953L187.16795349121094 187.7677001953125C187.26022338867188 188.29071044921875 187.33815002441406 188.82630920410156 187.40109252929688 189.3745574951172L187.7372589111328 192.33712768554688C187.78997802734375 192.79644775390625 187.8304443359375 193.24948120117188 187.85903930664062 193.69618225097656C187.9952850341797 194.57029724121094 188.08663940429688 195.47802734375 188.12962341308594 196.41934204101562C188.19285583496094 197.39649963378906 188.20089721679688 198.34307861328125 188.15748596191406 199.2587432861328V200.26205444335938C188.1757354736328 200.81861877441406 188.1752471923828 201.38638305664062 188.1551971435547 201.96530151367188C188.13809204101562 203.1912078857422 188.03904724121094 204.36260986328125 187.86538696289062 205.47933959960938L187.7372589111328 206.8053741455078V211.33421325683594C187.748046875 211.7541046142578 187.7482147216797 212.18031311035156 187.73744201660156 212.6128387451172L187.73707580566406 212.62718200683594C187.7233123779297 213.7256317138672 187.6454620361328 214.78041076660156 187.50856018066406 215.7915802001953L187.06190490722656 220.80572509765625C187.04617309570312 221.0769805908203 187.0261993408203 221.35061645507812 187.0018768310547 221.62660217285156L186.4345703125 228.3711700439453C186.40614318847656 228.68052673339844 186.37289428710938 228.98599243164062 186.33493041992188 229.28756713867188L185.961669921875 233.98016357421875C185.95677185058594 234.29229736328125 185.94635009765625 234.6077880859375 185.93031311035156 234.9266357421875L185.44705200195312 244.52870178222656C185.44020080566406 244.65721130371094 185.4324951171875 244.78509521484375 185.4239501953125 244.91233825683594L185.11087036132812 254.38291931152344C185.10458374023438 254.56126403808594 185.09661865234375 254.73843383789062 185.08702087402344 254.91439819335938L184.91897583007812 259.84417724609375C184.94085693359375 260.3397521972656 184.948974609375 260.8445739746094 184.9427947998047 261.3586120605469L184.7747039794922 271.4439392089844C184.77427673339844 271.47412109375 184.7738037109375 271.5042724609375 184.7732696533203 271.5343933105469L184.711669921875 281.7183532714844V299.2836608886719C184.7081298828125 300.4599914550781 184.63052368164062 301.5868835449219 184.48504638671875 302.6643371582031L183.8712158203125 310.52459716796875C183.82772827148438 311.0981750488281 183.7675018310547 311.65863037109375 183.6912841796875 312.20599365234375L183.03575134277344 318.9253234863281L182.9047088623047 324.55999755859375C182.87661743164062 325.4299621582031 182.80880737304688 326.2716064453125 182.7037811279297 327.0849914550781L182.35948181152344 332.8521423339844C182.35006713867188 333.14581298828125 182.3357391357422 333.4423828125 182.31640625 333.7418518066406L181.9382781982422 339.5945739746094L182.23236083984375 346.7897644042969C182.26673889160156 347.6876220703125 182.25685119628906 348.5584716796875 182.20545959472656 349.40216064453125L182.09669494628906 355.2908630371094C182.0984649658203 355.60528564453125 182.09469604492188 355.9232482910156 182.0852813720703 356.2447509765625L181.9464874267578 361.1892395019531L182.31640625 368.704345703125C182.36839294433594 369.7377624511719 182.36126708984375 370.7359619140625 182.2992706298828 371.6986999511719L182.24073791503906 377.4058837890625C182.247314453125 377.8121337890625 182.24461364746094 378.2243957519531 182.23236083984375 378.6426086425781L182.10154724121094 384.34197998046875C182.10061645507812 384.6245422363281 182.09523010253906 384.909912109375 182.0852813720703 385.19805908203125L181.8415069580078 389.971923828125C181.83909606933594 390.0542907714844 181.8363037109375 390.13690185546875 181.83314514160156 390.2197265625L181.66505432128906 395.1363220214844C181.66287231445312 395.19830322265625 181.6604766845703 395.2601623535156 181.6578826904297 395.3218688964844L181.49696350097656 401.3766174316406C181.49209594726562 401.5146789550781 181.48622131347656 401.65203857421875 181.4793701171875 401.7886657714844L181.2448272705078 410.64251708984375C181.24354553222656 410.697509765625 181.2421112060547 410.75238037109375 181.2405242919922 410.8071594238281L181.09776306152344 421.1480712890625C181.09683227539062 421.2102966308594 181.09568786621094 421.2723693847656 181.09434509277344 421.3343200683594L181.03359985351562 427.2568054199219C181.08795166015625 428.25115966796875 181.08290100097656 429.2826232910156 181.0137176513672 430.3509216308594L180.26611328125 441.2773132324219C180.25291442871094 441.7052001953125 180.2290802001953 442.1392517089844 180.19427490234375 442.5793762207031L179.83840942382812 447.0733337402344C179.89053344726562 447.06146240234375 179.94264221191406 447.0498352050781 179.99472045898438 447.0384216308594C181.63059997558594 446.6206970214844 183.2206573486328 446.404541015625 184.7548370361328 446.3673400878906C185.5606231689453 446.2720642089844 186.39366149902344 446.2132568359375 187.25401306152344 446.19329833984375H188.38861083984375C188.8201446533203 446.1832580566406 189.24526977539062 446.183349609375 189.66395568847656 446.19329833984375H191.18309020996094L191.22511291503906 446.1932067871094L191.2671356201172 446.19329833984375H194.2296905517578C194.25767517089844 446.19317626953125 194.2856903076172 446.1932067871094 194.31373596191406 446.19329833984375H246.2657928466797L250.85462951660156 445.85711669921875C251.0015411376953 445.84716796875 251.1477508544922 445.8384094238281 251.29327392578125 445.83087158203125L259.13299560546875 445.0376892089844C259.4361877441406 445.00726318359375 259.7366027832031 444.98211669921875 260.0341796875 444.962158203125L268.083740234375 444.21826171875C268.4879455566406 444.1802062988281 268.8871154785156 444.1514892578125 269.28125 444.1318664550781L276.38311767578125 443.4828796386719C277.5787353515625 443.3847351074219 278.7296447753906 443.3676452636719 279.835205078125 443.425048828125L281.9849548339844 443.369384765625C283.2036437988281 443.2578125 284.481201171875 443.236572265625 285.8171081542969 443.3147888183594L290.8007507324219 443.5945739746094C291.3787536621094 443.61077880859375 291.9678649902344 443.6469421386719 292.5679626464844 443.70391845703125C292.93682861328125 443.7347106933594 293.3001708984375 443.772705078125 293.6580810546875 443.8176574707031L297.7225646972656 444.2476806640625C298.2351379394531 444.27801513671875 298.7560119628906 444.32403564453125 299.28521728515625 444.3863525390625L304.7691345214844 445.0376892089844C305.05950927734375 445.0718688964844 305.3463439941406 445.1102600097656 305.6296081542969 445.1527404785156L308.9713439941406 445.4579162597656Q309.319091796875 445.49169921875 309.6602783203125 445.5335388183594L313.97198486328125 445.7730712890625C314.1473083496094 445.7849426269531 314.3214111328125 445.79840087890625 314.49432373046875 445.81341552734375L320.2122802734375 446.02520751953125C320.3378601074219 446.030029296875 320.462890625 446.0356750488281 320.5872802734375 446.0421142578125L325.4328308105469 446.1726379394531L329.76123046875 445.9830627441406L335.3822937011719 445.4579162597656C335.61138916015625 445.43499755859375 335.8388977050781 445.4150390625 336.0648193359375 445.3980712890625L340.20220947265625 444.887451171875L343.9833679199219 443.9587707519531L346.64886474609375 442.942138671875L349.3973693847656 441.56109619140625L350.3793029785156 440.9662170410156L351.35247802734375 440.2906799316406L351.56085205078125 440.12109375C351.652587890625 440.0459899902344 351.744384765625 439.9718017578125 351.8363037109375 439.89849853515625C372.7797546386719 422.34564208984375 399.9001159667969 453.49176025390625 379.06439208984375 471.8688659667969L378.946044921875 471.9576110839844C378.69171142578125 472.182373046875 378.4300537109375 472.40496826171875 378.1609191894531 472.6252746582031L377.2574462890625 473.4447021484375C376.2665710449219 474.2541198730469 375.2652893066406 474.95855712890625 374.25872802734375 475.56414794921875C373.8449401855469 475.84527587890625 373.41583251953125 476.11944580078125 372.9711608886719 476.3862609863281L371.7471618652344 477.124267578125C370.8389892578125 477.7457580566406 369.8542175292969 478.3280944824219 368.78997802734375 478.8655700683594L368.206787109375 479.1501159667969L368.0243225097656 479.2391357421875L366.1766357421875 480.14068603515625C365.045166015625 480.7944030761719 363.80950927734375 481.38140869140625 362.4656066894531 481.89117431640625L362.31854248046875 481.9752197265625C361.8749084472656 482.1436462402344 361.43450927734375 482.29791259765625 360.9974670410156 482.43841552734375L359.2282409667969 483.1008605957031C358.5296630859375 483.3999938964844 357.7987060546875 483.6722412109375 357.0349426269531 483.9154357910156C355.62774658203125 484.40826416015625 354.25439453125 484.75885009765625 352.9195861816406 484.979736328125L351.067138671875 485.4284362792969C350.12548828125 485.7152404785156 349.1346435546875 485.9512634277344 348.093994140625 486.13153076171875C347.0257568359375 486.35076904296875 345.9853515625 486.4958190917969 344.9741516113281 486.5718078613281L340.1518249511719 487.2279968261719C339.3752136230469 487.3265380859375 338.6161804199219 487.38983154296875 337.8749694824219 487.4197082519531L334.5987243652344 487.7699279785156L333.58026123046875 487.8788146972656L333.5753479003906 487.87933349609375C332.5423278808594 487.9827880859375 331.54180908203125 488.025146484375 330.5742492675781 488.01068115234375L328.7108154296875 488.0653076171875C327.59600830078125 488.19146728515625 326.42999267578125 488.24383544921875 325.2129211425781 488.21551513671875L319.72039794921875 488.06756591796875C319.37042236328125 488.06781005859375 319.01611328125 488.0611572265625 318.657470703125 488.04742431640625L312.9137878417969 487.7680969238281C312.3463134765625 487.7680358886719 311.76751708984375 487.74932861328125 311.1775207519531 487.71124267578125L307.3081359863281 487.4379577636719C306.5115051269531 487.4348449707031 305.693115234375 487.3936462402344 304.8531799316406 487.3120422363281L301.67083740234375 486.9617004394531C301.0760803222656 486.9320068359375 300.4699401855469 486.8809814453125 299.8525390625 486.8077697753906L294.3476257324219 486.15643310546875C294.0377502441406 486.11993408203125 293.7319030761719 486.0786437988281 293.43011474609375 486.0326843261719L289.0194396972656 485.5660095214844L283.986572265625 485.2834777832031L280.3861389160156 485.3766784667969C280.22943115234375 485.3927307128906 280.07171630859375 485.4075012207031 279.9129943847656 485.4210205078125L272.7684326171875 485.99334716796875C272.52606201171875 486.0227355957031 272.28118896484375 486.0491027832031 272.0338134765625 486.0723876953125L263.7394714355469 486.83892822265625C263.57781982421875 486.85791015625 263.4150695800781 486.8755187988281 263.2511901855469 486.8918151855469L255.81930541992188 487.57220458984375C255.14410400390625 487.6719665527344 254.44874572753906 487.7467956542969 253.733154296875 487.7952880859375L247.97610473632812 488.21551513671875C246.73716735839844 488.2994689941406 245.5475616455078 488.2970275878906 244.4077911376953 488.21551513671875H197.5914764404297L197.58444213867188 488.2154846191406C197.55874633789062 488.21539306640625 197.5330810546875 488.21533203125 197.50743103027344 488.21551513671875H192.67926025390625Q192.54664611816406 488.2853088378906 192.412353515625 488.35345458984375C191.786376953125 488.722900390625 191.12808227539062 489.0662536621094 190.43701171875 489.3810729980469C190.1171875 489.55670166015625 189.79635620117188 489.7221984863281 189.47471618652344 489.8777770996094C188.16590881347656 490.52264404296875 186.74049377441406 491.0411071777344 185.1985321044922 491.41064453125C182.48451232910156 492.2933349609375 179.82203674316406 492.5510559082031 177.29002380371094 492.2998046875L177.14767456054688 498.97320556640625C177.14596557617188 499.057861328125 177.14385986328125 499.1422424316406 177.1414031982422 499.2263488769531L177.06362915039062 504.45709228515625V546.3112182617188L177.13861083984375 551.5220336914062Q177.14671325683594 551.8347778320312 177.14767456054688 552.1522827148438V565.6318969726562L177.70030212402344 570.5740356445312L178.20274353027344 574.4498901367188C178.3092498779297 575.0146484375 178.39906311035156 575.5943603515625 178.47137451171875 576.1890258789062L179.1738739013672 581.8491821289062L180.3413543701172 587.9342041015625C180.41726684570312 588.33740234375 180.4832305908203 588.736328125 180.5395050048828 589.1309814453125L181.333251953125 593.2789916992188C181.45677185058594 593.78173828125 181.56756591796875 594.29736328125 181.66505432128906 594.8258666992188L182.26100158691406 597.971923828125C182.4573974609375 598.8006591796875 182.61688232421875 599.6638793945312 182.7366180419922 600.5618896484375L183.55606079101562 606.88623046875C183.63092041015625 607.4611206054688 183.68637084960938 608.0264892578125 183.72314453125 608.5821533203125L184.2073974609375 613.69384765625C184.29412841796875 614.6464233398438 184.3291778564453 615.5709228515625 184.31590270996094 616.4671630859375L184.4808807373047 619.4057006835938L184.76248168945312 622.1360473632812C184.9473876953125 623.2125854492188 185.0656280517578 624.3414916992188 185.11087036132812 625.5230712890625L185.36300659179688 631.847412109375C185.3900909423828 632.554931640625 185.3896484375 633.2455444335938 185.36300659179688 633.9192504882812V638.5291137695312C185.3705596923828 638.8953857421875 185.37063598632812 639.2665405273438 185.36300659179688 639.642578125L185.20162963867188 645.5531616210938C185.20005798339844 645.6626586914062 185.19781494140625 645.7725219726562 185.19491577148438 645.8828735351562L185.11802673339844 648.8812866210938C185.11643981933594 649.0018920898438 185.1140594482422 649.1229858398438 185.11087036132812 649.24462890625L185.02684020996094 652.2072143554688C185.02500915527344 652.27685546875 185.02291870117188 652.3463134765625 185.0205841064453 652.4155883789062L184.9427947998047 656.05224609375C184.94091796875 656.1329345703125 184.93870544433594 656.2134399414062 184.9361572265625 656.2936401367188L184.85874938964844 660.0863647460938C184.85723876953125 660.1612548828125 184.8554229736328 660.2359008789062 184.8533172607422 660.3103637695312L184.789794921875 664.8995971679688L184.95254516601562 666.7413330078125C185.09085083007812 667.7304077148438 185.1732177734375 668.7617797851562 185.19491577148438 669.8355102539062L185.27896118164062 675.6765747070312C185.29017639160156 676.2296752929688 185.2847442626953 676.772216796875 185.26333618164062 677.3040771484375L185.2039031982422 681.01904296875C185.20579528808594 681.315185546875 185.2028350830078 681.6144409179688 185.19491577148438 681.9168701171875L185.12266540527344 686.0709838867188C185.12228393554688 686.3229370117188 185.11837768554688 686.5770874023438 185.11087036132812 686.83349609375L185.03280639648438 689.956787109375L185.02684020996094 690.1952514648438L184.9427947998047 693.1578369140625C184.9361572265625 693.3633422851562 184.9273223876953 693.5673217773438 184.91629028320312 693.7697143554688L184.85874938964844 695.2799682617188C184.85202026367188 695.535888671875 184.84185791015625 695.7893676757812 184.82830810546875 696.0404052734375L184.7747039794922 697.6752319335938V702.4237060546875C184.7735595703125 702.5256958007812 184.77186584472656 702.6273193359375 184.7696075439453 702.7285766601562L184.711669921875 708.0967407226562V770.7098388671875C184.711669921875 798.6965942382812 142.689453125 798.6965942382812 142.689453125 770.7098388671875V729.1078491210938L142.68948364257812 729.0657348632812L142.689453125 729.0238037109375V712.2779541015625L142.68948364257812 712.2659301757812C142.68954467773438 712.241943359375 142.68959045410156 712.2178955078125 142.689453125 712.1939086914062V707.9286499023438L142.68948364257812 707.9239501953125L142.6894989013672 707.9215087890625C142.68963623046875 707.8958740234375 142.68975830078125 707.8702392578125 142.689453125 707.8446044921875L142.750732421875 702.2686767578125C142.75067138671875 702.15966796875 142.75125122070312 702.05029296875 142.7524871826172 701.9404907226562L142.8309783935547 697.3294067382812C142.8314666748047 697.1724243164062 142.83331298828125 697.0145263671875 142.83653259277344 696.8557739257812V695.50732421875C142.82656860351562 695.0877685546875 142.8264617919922 694.6618041992188 142.83653259277344 694.2294311523438L142.91445922851562 692.1644897460938C142.9161376953125 692.0825805664062 142.9181671142578 692.00048828125 142.9205780029297 691.9181518554688L143.0034942626953 689.01611328125L143.00462341308594 688.9766235351562L143.0886688232422 685.5938110351562C143.09439086914062 685.3983764648438 143.1021270751953 685.204345703125 143.11184692382812 685.01171875L143.19659423828125 682.5753784179688C143.17649841308594 682.1118774414062 143.16839599609375 681.6402587890625 143.17271423339844 681.1605224609375L143.25184631347656 676.155029296875L143.17869567871094 671.0711059570312L143.05308532714844 669.7459106445312C142.85391235351562 668.4916381835938 142.74961853027344 667.16845703125 142.750732421875 665.7766723632812C142.74046325683594 665.23779296875 142.74725341796875 664.708740234375 142.7704315185547 664.1896362304688L142.83084106445312 659.8248291015625C142.83071899414062 659.6331787109375 142.83261108398438 659.440185546875 142.83653259277344 659.2459106445312L142.9141845703125 655.460205078125C142.9153594970703 655.3289794921875 142.91749572753906 655.1971435546875 142.9205780029297 655.064697265625L142.9984130859375 651.3483276367188L143.00462341308594 651.0515747070312L143.0079345703125 650.9348754882812L143.0886688232422 648.0889892578125C143.09121704101562 648.0021362304688 143.0941619873047 647.9155883789062 143.0974884033203 647.8292846679688L143.17271423339844 644.8953247070312C143.17613220214844 644.7645874023438 143.1804656982422 644.6344604492188 143.1856689453125 644.5049438476562L143.34080505371094 638.8231201171875V633.4022216796875L143.10389709472656 627.4599609375L142.689453125 624.0523071289062C142.5714874267578 623.03076171875 142.51402282714844 622.0401000976562 142.51290893554688 621.0809936523438L142.26922607421875 616.7404174804688C142.2662353515625 616.6834716796875 142.263427734375 616.6266479492188 142.2607879638672 616.5699462890625L141.89059448242188 612.6074829101562C141.87623596191406 612.5078125 141.8623809814453 612.40771484375 141.84901428222656 612.30712890625L141.08778381347656 606.5100708007812L140.6043243408203 603.7456665039062C140.52317810058594 603.4046020507812 140.44775390625 603.0577392578125 140.37823486328125 602.7050170898438L139.3565673828125 597.365966796875C139.22039794921875 596.8349609375 139.09848022460938 596.2894287109375 138.9915008544922 595.7293090820312L137.92617797851562 589.9122924804688C137.7185516357422 589.0195922851562 137.55419921875 588.0872802734375 137.43667602539062 587.1148071289062L136.879150390625 582.218994140625C136.83753967285156 581.962890625 136.7992401123047 581.7037963867188 136.7643280029297 581.4417724609375L136.18211364746094 576.967041015625C136.08705139160156 576.4202270507812 136.00772094726562 575.8598022460938 135.94488525390625 575.2855224609375L135.20950317382812 568.7300415039062C135.0305633544922 567.0847778320312 135.00830078125 565.520751953125 135.12545776367188 564.039794921875V552.1522827148438L135.05078125 547.0369873046875C135.04519653320312 546.8247680664062 135.04205322265625 546.61083984375 135.04141235351562 546.395263671875V519.6481323242188L135.04139709472656 519.4833984375L135.04103088378906 511.9370422363281L135.04141235351562 511.8529968261719V504.5973815917969C135.0390625 504.3910827636719 135.03904724121094 504.1832275390625 135.04141235351562 503.9738464355469L135.121337890625 498.5792541503906C135.12152099609375 498.4311828613281 135.1228790283203 498.2823486328125 135.12545776367188 498.13275146484375L135.27919006347656 490.92645263671875C135.27896118164062 490.6282653808594 135.28372192382812 490.3269348144531 135.29354858398438 490.0224609375L135.60447692871094 481.977294921875C135.6078338623047 481.6785583496094 135.61622619628906 481.376708984375 135.62973022460938 481.0717468261719L135.982177734375 472.0934143066406C135.9831085205078 471.5931091308594 135.99851989746094 471.08404541015625 136.0289306640625 470.5661926269531L136.61367797851562 460.8329772949219C136.6231231689453 460.3658447265625 136.6451873779297 459.8912658691406 136.68028259277344 459.4092712402344L137.29568481445312 451.5243835449219C137.3095703125 451.22802734375 137.32852172851562 450.92877197265625 137.35263061523438 450.62664794921875L138.25611877441406 439.2176208496094C138.2775421142578 438.9566955566406 138.30239868164062 438.698486328125 138.33067321777344 438.4430236816406L138.99163818359375 428.7828369140625L139.0724334716797 420.885498046875C139.0725555419922 420.7565002441406 139.07359313964844 420.62689208984375 139.07554626464844 420.4967041015625L139.21536254882812 410.4301452636719C139.21434020996094 410.18096923828125 139.21673583984375 409.9295959472656 139.22262573242188 409.6759948730469L139.46136474609375 400.64373779296875C139.46322631835938 400.42742919921875 139.46766662597656 400.20947265625 139.47476196289062 399.9898681640625L139.71469116210938 393.9712219238281C139.7178192138672 393.8418884277344 139.72189331054688 393.71197509765625 139.7268829345703 393.58148193359375L139.88717651367188 388.89306640625L139.8949737548828 388.6648864746094L140.0630645751953 383.64324951171875C140.06585693359375 383.56231689453125 140.06900024414062 383.4815979003906 140.07247924804688 383.4011535644531L140.21014404296875 377.4029541015625C140.2119598388672 377.34649658203125 140.21395874023438 377.2901916503906 140.2161102294922 377.2339782714844L140.294189453125 369.5237731933594Q140.29592895507812 369.3794860839844 140.29913330078125 369.2362060546875L140.09632873535156 365.1054382324219C139.92381286621094 363.8056945800781 139.85289001464844 362.43487548828125 139.8949737548828 360.9932556152344L140.0713653564453 356.4231872558594C140.06150817871094 356.0672302246094 140.0586700439453 355.70660400390625 140.0630645751953 355.3412780761719L140.19677734375 348.1016540527344L139.98355102539062 342.8847961425781C139.8420867919922 341.58416748046875 139.80511474609375 340.2154846191406 139.88421630859375 338.7796325683594C139.901123046875 338.2388916015625 139.93487548828125 337.70892333984375 139.98477172851562 337.1898193359375L140.37823486328125 331.03143310546875C140.391357421875 330.8280944824219 140.4066162109375 330.6263732910156 140.4239501953125 330.42626953125L140.8824920654297 322.66900634765625C140.88877868652344 322.56201171875 140.89566040039062 322.4554443359375 140.9031219482422 322.3493347167969L140.99172973632812 318.5391845703125C140.9750518798828 317.6588134765625 141.00567626953125 316.7510681152344 141.0867919921875 315.8165283203125C141.1246795654297 315.29437255859375 141.17727661132812 314.7829895019531 141.2439727783203 314.2823791503906L141.8784942626953 308.2322998046875C141.8913116455078 307.9278869628906 141.90945434570312 307.62042236328125 141.9330596923828 307.3099060058594L142.689453125 297.644775390625V291.88714599609375L142.6893310546875 291.8036804199219C142.6893310546875 291.77569580078125 142.68936157226562 291.7477111816406 142.689453125 291.71966552734375V281.80029296875C142.68894958496094 281.7171936035156 142.68882751464844 281.63385009765625 142.689453125 281.5502624511719L142.68948364257812 281.5382385253906C142.68954467773438 281.5141906738281 142.68959045410156 281.4902038574219 142.689453125 281.4662170410156L142.75013732910156 271.4332275390625C142.74905395507812 271.2489318847656 142.74981689453125 271.0633850097656 142.7524871826172 270.87664794921875L142.91119384765625 261.3541259765625C142.91026306152344 261.0850524902344 142.9133758544922 260.81341552734375 142.9205780029297 260.5391845703125L143.07452392578125 253.76535034179688C143.07562255859375 253.51123046875 143.080322265625 253.25485229492188 143.0886688232422 252.99618530273438L143.39031982421875 243.8524932861328C143.38885498046875 243.3784637451172 143.40020751953125 242.896484375 143.4248504638672 242.40658569335938L143.90809631347656 232.720458984375C143.94627380371094 231.99610900878906 144.01174926757812 231.29200744628906 144.10302734375 230.60806274414062L144.47540283203125 224.9253387451172C144.5286407470703 224.23020935058594 144.60641479492188 223.55430603027344 144.70745849609375 222.8975372314453L145.1477508544922 217.86561584472656C145.16368103027344 217.68478393554688 145.18125915527344 217.50526428222656 145.2004852294922 217.32708740234375L145.71505737304688 210.63778686523438V207.12718200683594C145.69654846191406 206.5620574951172 145.69732666015625 205.98536682128906 145.71824645996094 205.39720153808594C145.73779296875 204.2888946533203 145.8232421875 203.2256317138672 145.96926879882812 202.2073516845703L146.13526916503906 200.39877319335938V198.90516662597656L145.88314819335938 196.6023712158203C145.85948181152344 196.34262084960938 145.83966064453125 196.0849609375 145.82362365722656 195.8293914794922L145.63101196289062 194.14407348632812C145.60658264160156 193.93130493164062 145.5847930908203 193.71986389160156 145.56558227539062 193.50979614257812L144.9796600341797 189.45860290527344C144.9620819091797 189.3267364501953 144.9455108642578 189.19537353515625 144.9299774169922 189.06451416015625L144.24427795410156 184.4579620361328L143.34080505371094 178.7849578857422C143.1918487548828 177.81637573242188 143.09873962402344 176.8739013671875 143.05792236328125 175.95809936523438C142.8169708251953 174.58323669433594 142.689453125 173.1232452392578 142.689453125 171.57815551757812V154.96583557128906L136.60723876953125 154.7848358154297L130.3831787109375 155.09042358398438C130.18661499023438 155.11143493652344 129.98841857910156 155.13046264648438 129.78863525390625 155.1474609375L122.7289047241211 155.73577880859375C122.59159088134766 155.74746704101562 122.45486450195312 155.75807189941406 122.31873321533203 155.7676239013672L116.25748443603516 156.47116088867188C115.99579620361328 156.49960327148438 115.73616790771484 156.52407836914062 115.47859954833984 156.544677734375L112.53475189208984 156.85614013671875C109.23544311523438 161.1153564453125 104.29513549804688 164.10647583007812 99.00300598144531 165.1856231689453L99.2594985961914 166.72457885742188C99.3880615234375 167.49534606933594 99.48072814941406 168.2500457763672 99.53932189941406 168.9883270263672L99.9237289428711 171.98916625976562C99.96367645263672 172.2681121826172 99.99955749511719 172.5504608154297 100.03128814697266 172.8362274169922C100.06759643554688 173.1401824951172 100.09844207763672 173.44143676757812 100.12394714355469 173.73995971679688L100.58319854736328 178.2176513671875C100.60089874267578 178.40512084960938 100.6165771484375 178.5915069580078 100.63025665283203 178.7768096923828L100.95364379882812 181.39984130859375C100.9634017944336 181.4595489501953 100.97299194335938 181.5194091796875 100.98240661621094 181.57943725585938L101.56153106689453 185.716064453125C101.65325164794922 186.18959045410156 101.73351287841797 186.67367553710938 101.80184173583984 187.16839599609375L102.66201782226562 193.0980682373047C102.7457046508789 193.59654235839844 102.81635284423828 194.10629272460938 102.8734130859375 194.62733459472656L102.88200378417969 194.7127227783203C102.90452575683594 194.91384887695312 102.92462158203125 195.11380004882812 102.94232940673828 195.3125457763672L103.4792709350586 200.6513671875C103.57228088378906 201.28030395507812 103.64385223388672 201.92666625976562 103.69284057617188 202.59054565429688L104.26013946533203 210.3856658935547C104.29907989501953 210.91329956054688 104.32228088378906 211.4320831298828 104.330322265625 211.94195556640625L104.40826416015625 213.39039611816406C104.4985580444336 214.0906982421875 104.561767578125 214.81201171875 104.59632110595703 215.5543975830078L104.76441192626953 219.98773193359375C104.77542877197266 220.22442626953125 104.7833480834961 220.45924377441406 104.78821563720703 220.69219970703125L104.9324951171875 223.43356323242188C104.94844055175781 223.9274444580078 104.95103454589844 224.4130859375 104.94075775146484 224.8904571533203L105.00975036621094 232.84161376953125C105.02608489990234 233.33839416503906 105.02852630615234 233.84429931640625 105.01654052734375 234.3593292236328L105.01183319091797 234.53070068359375C105.00965881347656 234.6301727294922 105.0069351196289 234.72926330566406 105.00366973876953 234.8280029296875L104.80660247802734 242.00469970703125C104.82744598388672 242.76885986328125 104.81405639648438 243.55421447753906 104.76441192626953 244.36061096191406L104.14676666259766 253.8643798828125C104.13780212402344 254.0639190673828 104.12657928466797 254.26478576660156 104.11306762695312 254.4669647216797L103.34004974365234 265.6307373046875C103.34309387207031 266.191650390625 103.327880859375 266.763671875 103.29363250732422 267.3467712402344L102.72871398925781 275.7676086425781C102.7295150756836 276.1560363769531 102.7218017578125 276.5497741699219 102.705322265625 276.9488525390625L102.0539779663086 291.488525390625C102.04904174804688 291.5999755859375 102.04346466064453 291.7109375 102.03723907470703 291.8214416503906L101.63375091552734 305.92315673828125C101.63070678710938 306.01751708984375 101.62718963623047 306.1115417480469 101.62321472167969 306.2052307128906L101.31858825683594 319.2231750488281C101.31787109375 319.2630615234375 101.31706237792969 319.30291748046875 101.31617736816406 319.3426818847656L101.23454284667969 331.9349060058594C101.23403930664062 331.9769592285156 101.23343658447266 332.0189208984375 101.23274993896484 332.06085205078125L101.15049743652344 341.705078125C101.14149475097656 342.7071533203125 101.07926940917969 343.6730041503906 100.96763610839844 344.6026916503906L100.39298248291016 354.73291015625C100.38375091552734 355.1742248535156 100.36323547363281 355.62213134765625 100.33106231689453 356.07666015625L99.4275894165039 368.2210998535156C99.41472625732422 368.4034118652344 99.40016174316406 368.5844421386719 99.38392639160156 368.7641296386719L98.76534271240234 378.8381042480469C98.75565338134766 379.3387756347656 98.7314453125 379.847900390625 98.69219970703125 380.3655090332031L97.87276458740234 390.7029724121094C97.82203674316406 391.3404235839844 97.75074768066406 391.9616394042969 97.65989685058594 392.56671142578125L96.80120086669922 401.6287536621094C96.77291107177734 401.910400390625 96.74060821533203 402.1888122558594 96.70439147949219 402.46392822265625L95.78777313232422 411.96343994140625C95.77568817138672 412.3173522949219 95.7563705444336 412.67547607421875 95.7296371459961 413.03778076171875L94.82615661621094 425.09814453125C94.81073760986328 425.3092041015625 94.79303741455078 425.5184631347656 94.7730941772461 425.7259826660156L94.42694854736328 430.918212890625C94.4114990234375 431.15679931640625 94.39311218261719 431.39312744140625 94.3718490600586 431.6272277832031L94.13494873046875 435.6693115234375C94.12555694580078 435.9734802246094 94.11087036132812 436.2807922363281 94.09076690673828 436.5912170410156L93.52346801757812 445.941162109375C93.47461700439453 446.69781494140625 93.39642333984375 447.4320068359375 93.29056549072266 448.1438903808594L92.61998748779297 455.7953796386719L91.7936782836914 465.5528564453125C91.7888412475586 466.14727783203125 91.76342010498047 466.7538757324219 91.71651458740234 467.37249755859375L91.2711410522461 472.2080078125C91.26384735107422 472.66900634765625 91.24434661865234 473.13726806640625 91.21224212646484 473.61279296875L90.85488891601562 478.1496887207031C90.85264587402344 478.5984191894531 90.83882141113281 479.0541687011719 90.81303405761719 479.51690673828125L90.49391174316406 483.8730163574219C90.4931640625 484.1688232421875 90.48751831054688 484.46771240234375 90.47686004638672 484.7696838378906L90.07764434814453 496.0106201171875C90.0733871459961 496.13134765625 90.068359375 496.2515563964844 90.06257629394531 496.3711853027344L89.85942840576172 505.7670593261719C89.88401794433594 506.5411071777344 89.8734130859375 507.337158203125 89.82551574707031 508.1550598144531L89.32124328613281 516.9376831054688C89.285400390625 517.5497436523438 89.23027801513672 518.1472778320312 89.1567611694336 518.7302856445312L88.354736328125 529.0820922851562C88.34381103515625 529.2189331054688 88.33193969726562 529.3550415039062 88.3191146850586 529.4903564453125L87.5353012084961 540.3230590820312C87.48258972167969 541.0093383789062 87.40585327148438 541.6768798828125 87.30633544921875 542.3257446289062L86.61859130859375 548.3399047851562C86.58521270751953 548.8868408203125 86.53382873535156 549.4432983398438 86.46373748779297 550.0091552734375L85.26073455810547 559.5433959960938C85.23307800292969 560.0006103515625 85.19298553466797 560.4644775390625 85.1400375366211 560.9349365234375L84.00543975830078 571.4404907226562C83.96705627441406 571.7815551757812 83.9228744506836 572.11767578125 83.87303161621094 572.448974609375L83.16499328613281 580.538330078125C83.13948059082031 580.8182983398438 83.11001586914062 581.0950927734375 83.07667541503906 581.3687133789062L82.706787109375 587.5745849609375C82.71267700195312 588.0708618164062 82.70449829101562 588.575927734375 82.6817398071289 589.08984375L82.3455581665039 595.8973999023438C82.3409423828125 596.0033569335938 82.33574676513672 596.1089477539062 82.32996368408203 596.2140502929688L82.19847869873047 601.717529296875C82.19570922851562 601.8032836914062 82.19255828857422 601.8887939453125 82.18901824951172 601.9739990234375L82.11443328857422 605.9827880859375C82.1121597290039 606.0775146484375 82.10941314697266 606.1719360351562 82.10619354248047 606.2659912109375L82.0303955078125 610.4160766601562V633.2695922851562L82.6817398071289 640.5460205078125C82.68721771240234 640.6127319335938 82.69243621826172 640.6793212890625 82.6974105834961 640.7457275390625L83.50116729736328 647.6057739257812C83.54314422607422 647.971435546875 83.57737731933594 648.3330688476562 83.60403442382812 648.6907958984375L84.07994842529297 652.9332275390625C84.18080139160156 653.549560546875 84.26136779785156 654.1829833984375 84.32060241699219 654.8335571289062L84.7660140991211 659.7967529296875C84.86895751953125 660.5615234375 84.93649291992188 661.3508911132812 84.9662857055664 662.1649169921875C85.04431915283203 663.4730834960938 85.02349853515625 664.7263793945312 84.91287231445312 665.9238891601562L84.7408218383789 671.7265014648438C84.71182250976562 672.624755859375 84.64056396484375 673.4927978515625 84.52979278564453 674.330810546875L84.11737823486328 679.8541259765625C84.1045150756836 680.0985107421875 84.08822631835938 680.3449096679688 84.06846618652344 680.5932006835938L83.72525787353516 684.7266845703125C83.72144317626953 685.2310791015625 83.70295715332031 685.7442016601562 83.66925811767578 686.2661743164062L83.10195922851562 694.37646484375C83.088134765625 694.5810546875 83.07217407226562 694.7839965820312 83.0541000366211 694.9852905273438L82.6817398071289 701.520263671875C82.67417907714844 701.6563110351562 82.6656723022461 701.7916259765625 82.65621185302734 701.92626953125L82.42960357666016 708.327880859375Q82.42351531982422 708.489990234375 82.41559600830078 708.65087890625L82.28252410888672 713.9168090820312C82.28022003173828 713.9934692382812 82.2776107788086 714.0698852539062 82.27469635009766 714.1461181640625L82.19847869873047 718.8334350585938C82.19691467285156 718.92041015625 82.19495391845703 719.007080078125 82.19259643554688 719.093505859375L82.11443328857422 724.5064086914062V727.0673217773438L82.6817398071289 731.3140258789062C82.6916275024414 731.38818359375 82.70118713378906 731.462158203125 82.7104263305664 731.5359497070312L83.50116729736328 736.4827270507812C83.57528686523438 736.9542846679688 83.6360855102539 737.419677734375 83.68397521972656 737.87890625L84.12437438964844 740.8374633789062C84.23617553710938 741.421875 84.32990264892578 742.0223388671875 84.40464782714844 742.6389770507812L84.8425521850586 746.5639038085938C84.929443359375 747.1054077148438 85.00082397460938 747.6600341796875 85.05599212646484 748.2279663085938L85.25728607177734 750.391845703125C85.3560791015625 751.0719604492188 85.42953491210938 751.7724609375 85.47621154785156 752.4932250976562L85.6573715209961 755.7992553710938C85.7225112915039 756.4049682617188 85.76750183105469 757.0258178710938 85.7913818359375 757.6619262695312L85.84255981445312 760.25927734375C85.9076919555664 760.9365844726562 85.94712829589844 761.6326293945312 85.95947265625 762.347412109375V766.444580078125C85.96199035644531 766.5848999023438 85.96344757080078 766.724609375 85.96385955810547 766.8635864257812L86.01509857177734 768.810791015625L86.04283905029297 769.8648071289062L86.04351043701172 769.890380859375C86.04339599609375 769.9276123046875 86.0434341430664 769.9649658203125 86.04347229003906 770.0023193359375L86.04351043701172 770.0584716796875V772.7689208984375L86.04338073730469 772.8529663085938L86.04348754882812 774.6406860351562C86.04476165771484 774.7794799804688 86.04498291015625 774.9189453125 86.04414367675781 775.0591430664062L86.04351043701172 775.1431884765625V776.2012329101562C86.04584503173828 776.3934936523438 86.04615020751953 776.5870971679688 86.04439544677734 776.7820434570312L86.04351043701172 776.8660888671875L86.04244995117188 776.8806762695312C86.03730010986328 777.292724609375 86.02313232421875 777.6986083984375 86.00020599365234 778.0982666015625C86.0071792602539 778.7716064453125 85.9865951538086 779.4608764648438 85.93702697753906 780.1659545898438C85.68242645263672 784.9143676757812 84.23082733154297 788.7933959960938 82.00886535644531 791.8178100585938C75.89543151855469 800.3382568359375 64.00906372070312 802.0213623046875 55.12944412231445 797.7178955078125C53.08738708496094 796.7379150390625 51.20463562011719 795.4342041015625 49.5882682800293 793.8104858398438C45.90031051635742 790.134033203125 43.59406280517578 784.8646850585938 43.93597412109375 778.12548828125L43.937042236328125 778.0391235351562L43.937259674072266 778.0216674804688V777.370361328125C43.94770812988281 776.7905883789062 43.97597122192383 776.22314453125 44.02130126953125 775.6680297851562V767.179931640625L43.95322036743164 763.8610229492188C43.947059631347656 763.7352905273438 43.94173812866211 763.6089477539062 43.937259674072266 763.4819946289062L43.81562805175781 760.3347778320312C43.7979850769043 760.1318359375 43.78248596191406 759.92724609375 43.769168853759766 759.7210083007812L43.606712341308594 756.4866333007812C43.581581115722656 756.2779541015625 43.55868148803711 756.0673828125 43.538047790527344 755.85498046875L43.20186996459961 752.2410888671875C43.186912536621094 752.0875854492188 43.173316955566406 751.934814453125 43.16106033325195 751.7827758789062L42.63457107543945 747.7236938476562C42.62357711791992 747.6327514648438 42.613067626953125 747.5419921875 42.6030387878418 747.4515380859375L41.8991813659668 742.7230224609375C41.83946228027344 742.313720703125 41.78974914550781 741.9091186523438 41.74977111816406 741.50927734375L41.26222229003906 738.4479370117188C41.15852737426758 737.918212890625 41.06946563720703 737.375244140625 40.995704650878906 736.8189086914062L40.50927734375 733.2332763671875C40.35041046142578 732.3892822265625 40.23497009277344 731.5126342773438 40.16633987426758 730.6035766601562C40.00893783569336 729.082763671875 39.98898696899414 727.6310424804688 40.09222412109375 726.2503051757812V724.6699829101562C40.090972900390625 724.5321044921875 40.09075927734375 724.3935546875 40.09222412109375 724.2542724609375L40.09225845336914 724.2487182617188C40.0924186706543 724.2225341796875 40.09257507324219 724.1963500976562 40.09222412109375 724.1702270507812L40.171836853027344 718.6571655273438C40.17142105102539 718.4719848632812 40.172889709472656 718.28564453125 40.17626953125 718.0980224609375L40.250450134277344 713.5359497070312C40.249244689941406 713.2525024414062 40.252498626708984 712.9662475585938 40.26031494140625 712.6771240234375L40.388023376464844 707.6964111328125C40.38823318481445 707.364501953125 40.39463806152344 707.0286865234375 40.40739059448242 706.68896484375L40.7034797668457 700.3970947265625C40.70832443237305 700.01318359375 40.72160720825195 699.6241455078125 40.743568420410156 699.2300415039062L41.08761978149414 692.8560180664062C41.09611129760742 692.4441528320312 41.114402770996094 692.0264892578125 41.14278030395508 691.60302734375L41.66687774658203 684.2843627929688C41.68109130859375 683.9335327148438 41.70243453979492 683.57861328125 41.7310905456543 683.2196044921875L42.058685302734375 679.2172241210938C42.06158447265625 678.62353515625 42.08515548706055 678.0176391601562 42.13030242919922 677.3995361328125L42.71537399291992 670.543212890625Q42.716861724853516 670.483642578125 42.71861267089844 670.423828125L42.915523529052734 663.7825927734375L42.57781219482422 659.817626953125C42.536312103271484 659.5256958007812 42.499168395996094 659.2301025390625 42.46648025512695 658.9307250976562L41.804203033447266 653.008056640625C41.77803039550781 652.8197021484375 41.7536506652832 652.6297607421875 41.7310905456543 652.4382934570312L40.827613830566406 644.6431884765625C40.72814178466797 643.7767333984375 40.67229080200195 642.9326782226562 40.65753173828125 642.1112060546875L40.25825119018555 637.6962890625C40.10695266723633 636.632080078125 40.02195358276367 635.51904296875 40.00933074951172 634.3573608398438C39.99721908569336 633.906982421875 39.99696350097656 633.46337890625 40.008182525634766 633.0266723632812V610.5154418945312C40.005516052246094 610.2949829101562 40.00550079345703 610.07275390625 40.008182525634766 609.8488159179688L40.086219787597656 605.5760498046875C40.086727142333984 605.4114379882812 40.088722229003906 605.245849609375 40.09222412109375 605.0792846679688L40.161930084228516 601.3326416015625C40.16154479980469 601.0299682617188 40.16628646850586 600.7239990234375 40.17626953125 600.414794921875L40.297725677490234 595.3310546875C40.295406341552734 594.896240234375 40.303829193115234 594.4546508789062 40.32334899902344 594.0064086914062L40.614952087402344 588.1015014648438C40.62024688720703 587.6942749023438 40.635009765625 587.2813110351562 40.65952682495117 586.8626708984375L41.22682571411133 577.4286499023438C41.27254104614258 576.6578369140625 41.348812103271484 575.9102172851562 41.453880310058594 575.1856079101562L42.13030242919922 567.25927734375C42.18958282470703 566.5916137695312 42.2713737487793 565.9420166015625 42.374534606933594 565.3104248046875L43.22899627685547 557.6046752929688C43.26088333129883 557.104736328125 43.30769348144531 556.5969848632812 43.369956970214844 556.0813598632812L44.756690979003906 544.8404541015625C44.796470642089844 544.5142822265625 44.84156036376953 544.1926879882812 44.891822814941406 543.8756103515625L45.5609245300293 537.4335327148438C45.56568908691406 537.3603515625 45.57075500488281 537.2869873046875 45.57612609863281 537.2134399414062L46.41984558105469 526.6375122070312C46.4344596862793 526.3348388671875 46.45433807373047 526.029052734375 46.4796028137207 525.7203369140625L47.383079528808594 514.0591430664062C47.40422439575195 513.7942504882812 47.4289436340332 513.5321655273438 47.457176208496094 513.2728881835938L47.79961395263672 507.3087463378906C47.79779815673828 507.0745544433594 47.79901123046875 506.8383483886719 47.80330276489258 506.6002197265625L48.03863525390625 495.63763427734375C48.03682327270508 495.2763671875 48.0423583984375 494.9104309082031 48.05543518066406 494.53985595703125L48.408626556396484 484.576171875C48.40411376953125 483.99432373046875 48.41917037963867 483.40045166015625 48.454647064208984 482.7946472167969L48.79082489013672 477.0586242675781C48.83359909057617 476.3298034667969 48.90382766723633 475.6217041015625 49.00001907348633 474.9342041015625L49.203025817871094 471.7608947753906C49.21632766723633 471.340576171875 49.23991012573242 470.914306640625 49.274078369140625 470.4821472167969L49.730472564697266 464.6060791015625C49.743507385253906 464.3812561035156 49.75945281982422 464.1547546386719 49.77834701538086 463.9266662597656L50.71727752685547 452.8393249511719C50.73073196411133 452.6215515136719 50.74691390991211 452.4022521972656 50.765869140625 452.18145751953125L51.58530044555664 442.7474670410156C51.6067008972168 442.50457763671875 51.63108444213867 442.2640686035156 51.65839767456055 442.0259704589844L52.1525993347168 433.88079833984375C52.168731689453125 433.63165283203125 52.18806838989258 433.38494873046875 52.210540771484375 433.14068603515625L52.44014358520508 429.2087707519531C52.448997497558594 428.8514404296875 52.465145111083984 428.48974609375 52.48877716064453 428.1237487792969L52.83277893066406 422.9637451171875C52.84495544433594 422.63525390625 52.863311767578125 422.30316162109375 52.88798904418945 421.9674987792969L53.68816375732422 411.36053466796875C53.702579498291016 410.7822265625 53.736732482910156 410.1926574707031 53.791465759277344 409.5919494628906L54.86589431762695 398.43743896484375C54.88667678833008 398.1108703613281 54.913692474365234 397.7809143066406 54.947078704833984 397.4475402832031L55.87836456298828 388.3720397949219C55.891483306884766 388.0596618652344 55.910186767578125 387.7440490722656 55.934600830078125 387.42523193359375L56.754032135009766 377.0877685546875C56.767967224121094 376.9110107421875 56.78348159790039 376.7355041503906 56.80055618286133 376.5612487792969L57.435508728027344 366.2205505371094C57.446617126464844 365.8758239746094 57.464534759521484 365.5271301269531 57.48942184448242 365.1744689941406L58.39289855957031 353.1141052246094C58.406558990478516 352.9205322265625 58.4221305847168 352.72845458984375 58.4395866394043 352.537841796875L59.12828826904297 340.3183288574219Q59.13361358642578 340.2320556640625 59.13945770263672 340.1461181640625L59.21039581298828 331.8466796875C59.210105895996094 331.71563720703125 59.210750579833984 331.5839538574219 59.21233367919922 331.45166015625L59.37435531616211 318.9555969238281C59.37393569946289 318.7452087402344 59.375946044921875 318.53326416015625 59.38042068481445 318.3197021484375L59.59973907470703 305.5394592285156C59.59920120239258 305.2569885253906 59.60310363769531 304.9716491699219 59.611541748046875 304.6835021972656L60.0084228515625 290.7331848144531C60.009395599365234 290.3868713378906 60.01711654663086 290.03631591796875 60.03176498413086 289.68157958984375L60.63747024536133 276.1606750488281C60.64158630371094 275.7226867675781 60.656681060791016 275.27801513671875 60.683109283447266 274.82672119140625L61.29201889038086 265.53594970703125C61.30200958251953 265.2665100097656 61.31612777709961 264.9946594238281 61.33445358276367 264.7203674316406L62.15388488769531 251.6724853515625C62.16624450683594 251.48956298828125 62.18031692504883 251.3079376220703 62.196075439453125 251.1276397705078L62.73488235473633 243.0960235595703C62.73553466796875 242.91636657714844 62.73796463012695 242.735595703125 62.7421989440918 242.5536651611328L62.98948287963867 233.5483856201172L62.915958404541016 225.07473754882812C62.913936614990234 225.0250244140625 62.91204833984375 224.97523498535156 62.91028594970703 224.9253387451172L62.7421989440918 221.62660217285156C62.72722244262695 221.1626434326172 62.72401428222656 220.7059783935547 62.73220443725586 220.25665283203125L62.635292053222656 218.58489990234375C62.61118698120117 218.31997680664062 62.59076690673828 218.0522003173828 62.5741081237793 217.7815704345703L62.363033294677734 213.92945861816406C62.34794235229492 213.76483154296875 62.334251403808594 213.59910583496094 62.32197570800781 213.43226623535156L61.754676818847656 205.72119140625C61.74838638305664 205.63563537597656 61.74250793457031 205.55030822753906 61.737037658691406 205.46522521972656L61.019287109375 199.0606689453125C60.9758415222168 198.65272521972656 60.9420166015625 198.24981689453125 60.91754913330078 197.85195922851562L60.43860626220703 194.55029296875C60.349609375 194.12252807617188 60.2699089050293 193.6859893798828 60.199851989746094 193.2406005859375L59.71206283569336 189.75637817382812C59.5378532409668 188.9532928466797 59.3984489440918 188.11874389648438 59.2963752746582 187.25242614746094L58.924930572509766 183.8011016845703C58.835819244384766 183.24266052246094 58.76327133178711 182.6702117919922 58.708065032958984 182.0836944580078L58.26031494140625 177.50881958007812L57.657508850097656 172.88084411621094C57.64741516113281 172.80130004882812 57.637691497802734 172.72195434570312 57.62833786010742 172.6427764892578L57.13053512573242 169.65597534179688L56.854270935058594 168.25416564941406C56.69004821777344 167.65142822265625 56.544227600097656 167.0295867919922 56.41785430908203 166.38841247558594L56.21392059326172 165.23716735839844C55.765098571777344 163.65106201171875 55.47905731201172 161.9342041015625 55.382633209228516 160.08660888671875C55.25313186645508 158.7098388671875 55.2450065612793 157.38809204101562 55.34628677368164 156.123779296875V148.17178344726562C55.34628677368164 135.5826873779297 63.84906768798828 128.6564483642578 73.20515441894531 127.39307403564453C73.41327667236328 127.00921630859375 73.63645935058594 126.62857818603516 73.87506103515625 126.25165557861328C74.53697967529297 125.08919525146484 75.29704284667969 124.03207397460938 76.13834381103516 123.07879638671875C77.02113342285156 122.05866241455078 78.03458404541016 121.10993957519531 79.18407440185547 120.25154113769531C81.63660430908203 118.20198059082031 84.37919616699219 116.9107894897461 87.21671295166016 116.274658203125C90.15947723388672 115.3814697265625 93.04624938964844 115.2258071899414 95.76976776123047 115.6573715209961C96.0324935913086 115.68383026123047 96.29286193847656 115.71529388427734 96.55084228515625 115.75164031982422H97.62074279785156Q97.70455932617188 115.75138854980469 97.7887191772461 115.75164031982422H98.19419860839844C98.87492370605469 115.62687683105469 99.57693481445312 115.52928924560547 100.30027770996094 115.46054077148438C101.86514282226562 115.26578521728516 103.3595199584961 115.22000122070312 104.78094482421875 115.30735778808594L106.12421417236328 115.28515625L111.0018539428711 114.7596206665039C111.2178955078125 114.730712890625 111.43595886230469 114.70417785644531 111.65605163574219 114.6800765991211L118.71578216552734 113.86064147949219C119.52999114990234 113.77208709716797 120.32431030273438 113.72190856933594 121.0985107421875 113.7080078125L124.55953216552734 113.42988586425781C125.2718276977539 113.32782745361328 126.00629425048828 113.25374603271484 126.7630386352539 113.20929718017578L134.1387176513672 112.76981353759766C134.2725067138672 112.76074981689453 134.406982421875 112.75273895263672 134.5421600341797 112.74577331542969L134.87332153320312 112.72604370117188C136.16612243652344 112.65422058105469 137.40432739257812 112.67520904541016 138.5874481201172 112.7807388305664L147.26988220214844 113.04120635986328C148.10166931152344 113.07046508789062 148.9075927734375 113.13568115234375 149.68772888183594 113.23468017578125L159.09912109375 113.797607421875C159.20501708984375 113.8038101196289 159.31048583984375 113.81059265136719 159.41551208496094 113.81793975830078L168.257080078125 114.266845703125L179.53076171875 114.11603546142578C179.6116180419922 114.1146011352539 179.69271850585938 114.11351013183594 179.77406311035156 114.11277770996094L186.150146484375 114.03307342529297L186.49559020996094 114.02875518798828L186.4976043701172 114.02873229980469C186.5538330078125 114.02839660644531 186.6099395751953 114.02822875976562 186.6659393310547 114.02822875976562C186.7220001220703 114.02822875976562 186.7779541015625 114.02840423583984 186.8337860107422 114.02873229980469L186.83482360839844 114.02874755859375L187.1873321533203 114.03314971923828L193.03070068359375 114.10619354248047C193.31539916992188 114.10385131835938 193.60301208496094 114.10601806640625 193.89352416992188 114.11277770996094L206.85728454589844 114.44464874267578L216.8372344970703 114.368896484375C216.87933349609375 114.36746978759766 216.92149353027344 114.36614227294922 216.96371459960938 114.36490631103516L233.6172332763672 113.80564880371094C233.69679260253906 113.8026351928711 233.77659606933594 113.7999496459961 233.8566436767578 113.797607421875L233.8928985595703 113.79653930664062L253.88021850585938 113.20929718017578C254.0669708251953 113.20439147949219 254.25254821777344 113.2013931274414 254.43692016601562 113.20025634765625L274.43389892578125 112.81763458251953C274.5091247558594 112.8148193359375 274.5845642089844 112.81230163574219 274.66021728515625 112.81008911132812L286.46844482421875 112.38986206054688C286.97747802734375 112.37496185302734 287.4776916503906 112.37422943115234 287.96905517578125 112.38716125488281L297.56231689453125 111.90660858154297C298.1773376464844 111.87936401367188 298.77978515625 111.87301635742188 299.3695373535156 111.88666534423828L309.70672607421875 111.31829833984375C310.43695068359375 111.28211212158203 311.1495361328125 111.27542877197266 311.8443603515625 111.29674530029297L330.948974609375 111.00312805175781C331.272705078125 110.99828338623047 331.5927734375 110.99907684326172 331.9091796875 111.0053939819336L351.1492614746094 111.08615112304688C351.2580261230469 111.08584594726562 351.3671875 111.08618927001953 351.476806640625 111.08717346191406L365.667724609375 111.16931915283203C365.8043212890625 111.16893768310547 365.94158935546875 111.16956329345703 366.07952880859375 111.17121887207031L383.552490234375 111.38313293457031C384.331298828125 111.3533706665039 385.13250732421875 111.35906219482422 385.9560241699219 111.40234375L402.9330139160156 112.30581665039062C403.6714172363281 112.34517669677734 404.3887939453125 112.41275024414062 405.0852355957031 112.50698852539062L417.6158142089844 113.35438537597656C417.7287902832031 113.361328125 417.8421630859375 113.36898803710938 417.9559631347656 113.37738800048828L418.2392578125 113.39889526367188L427.6420593261719 114.11277770996094L435.94146728515625 114.6800765991211C436.69696044921875 114.73355102539062 437.4298095703125 114.81632232666016 438.1401672363281 114.92672729492188L440.07763671875 115.093994140625C440.9430236816406 115.10546112060547 441.8335876464844 115.16259765625 442.7490539550781 115.26838684082031L448.169921875 115.91973114013672C448.6853942871094 115.98046875 449.18963623046875 116.05439758300781 449.6827392578125 116.1409912109375L455.9668273925781 117.05292510986328C456.23724365234375 117.08399963378906 456.5097961425781 117.11946105957031 456.78448486328125 117.15938568115234L460.48431396484375 117.7459487915039C461.329833984375 117.83694458007812 462.19482421875 117.97583770751953 463.07855224609375 118.16555786132812C463.9195556640625 118.32341003417969 464.72747802734375 118.5171890258789 465.5027160644531 118.7442855834961L469.3323059082031 119.67227935791016C469.6024475097656 119.73304748535156 469.87420654296875 119.79872131347656 470.1476135253906 119.86939239501953L470.2051086425781 119.88431549072266C470.721923828125 120.01498413085938 471.2251281738281 120.15796661376953 471.7149658203125 120.31271362304688L475.70458984375 121.47491455078125L475.8205261230469 121.50868225097656L475.9780578613281 121.55593872070312L479.6025390625 122.64328002929688C479.8059997558594 122.70366668701172 480.00726318359375 122.76591491699219 480.206298828125 122.82998657226562L480.553955078125 122.92733001708984C481.37542724609375 123.03714752197266 482.21270751953125 123.19540405273438 483.0647277832031 123.405029296875C497.9516296386719 120.90496826171875 513.0827026367188 136.86997985839844 506.3359069824219 152.2862091064453C505.7980651855469 153.5666961669922 505.1047058105469 154.83151245117188 504.2430419921875 156.06614685058594C503.6696472167969 156.9305419921875 503.0137634277344 157.77491760253906 502.27105712890625 158.5933380126953C501.3879089355469 159.62005615234375 500.36895751953125 160.5951690673828 499.20635986328125 161.50428771972656C498.1011657714844 162.40573120117188 496.9639892578125 163.16233825683594 495.8062744140625 163.7838897705078C493.831787109375 165.07705688476562 491.5285339355469 166.05567932128906 488.8941345214844 166.61643981933594C485.59765625 167.64691162109375 481.9159240722656 167.800537109375 478.0153503417969 166.75357055664062C475.0780029296875 166.2080841064453 472.53173828125 165.1262969970703 470.3800964355469 163.6536407470703C470.1844177246094 163.60032653808594 469.99078369140625 163.54510498046875 469.79913330078125 163.48802185058594L469.3917236328125 163.38699340820312C469.0399475097656 163.30746459960938 468.68536376953125 163.2196044921875 468.32806396484375 163.12319946289062L468.2775573730469 163.1106719970703C467.994140625 163.0350341796875 467.71484375 162.9557342529297 467.439697265625 162.8728790283203L464.5918273925781 162.07737731933594C464.3716735839844 162.0188446044922 464.1504821777344 161.9570770263672 463.9282531738281 161.89202880859375C463.75146484375 161.839599609375 463.5763854980469 161.78578186035156 463.4029541015625 161.73057556152344L459.89892578125 160.65357971191406L459.89410400390625 160.65237426757812L454.77783203125 159.34231567382812L450.62823486328125 158.76136779785156C450.39520263671875 158.72686767578125 450.1645812988281 158.689697265625 449.9363098144531 158.64993286132812L442.9117431640625 157.6411895751953L438.8097839355469 157.14833068847656C438.70147705078125 157.14039611816406 438.59283447265625 157.1317901611328 438.4837951660156 157.1225128173828L432.6427001953125 156.63925170898438C432.39544677734375 156.61727905273438 432.15069580078125 156.59222412109375 431.90838623046875 156.5641326904297L425.129638671875 156.0884246826172C424.9318542480469 156.07815551757812 424.7327880859375 156.065673828125 424.5324401855469 156.05093383789062L414.8463134765625 155.3155517578125Q414.56072998046875 155.29446411132812 414.2794189453125 155.26785278320312L401.97320556640625 154.36610412597656C401.5635986328125 154.3630828857422 401.14813232421875 154.35049438476562 400.7268371582031 154.32803344726562L383.7288513183594 153.424560546875C383.6517333984375 153.42027282714844 383.5748596191406 153.4156951904297 383.4981994628906 153.41079711914062L365.5962829589844 153.1934356689453L351.140625 153.10939025878906L351.0806884765625 153.10877990722656L331.5307922363281 153.0267333984375L311.0094299316406 153.34051513671875C310.739990234375 153.3445587158203 310.47308349609375 153.3446807861328 310.208740234375 153.34092712402344Z" fill="black"/>
</svg>
