<svg xmlns="http://www.w3.org/2000/svg" viewBox="0 0 607 1000">
  <path d="M432.48675537109375 177.20494079589844C432.187744140625 177.23081970214844 431.8864440917969 177.25372314453125 431.58282470703125 177.27357482910156L421.20989990234375 177.92262268066406C420.8656921386719 177.95819091796875 420.5183410644531 177.9898223876953 420.1678161621094 178.01744079589844L405.5879821777344 179.18057250976562C405.3432312011719 179.19985961914062 405.0997009277344 179.21697998046875 404.8573913574219 179.23194885253906L393.916015625 180.2355194091797C393.6809997558594 180.2572021484375 393.4470520019531 180.27685546875 393.2142333984375 180.29452514648438L376.7034912109375 181.79888916015625C376.23004150390625 181.84889221191406 375.7506103515625 181.89137268066406 375.26519775390625 181.92613220214844L355.61004638671875 183.32823181152344C355.3292541503906 183.3549041748047 355.04638671875 183.3789520263672 354.7614440917969 183.4003448486328L333.671142578125 184.98085021972656C333.0344543457031 185.049560546875 332.3869323730469 185.1044464111328 331.72857666015625 185.14505004882812L315.38763427734375 186.11866760253906C315.2538146972656 186.1283416748047 315.1195068359375 186.1374053955078 314.9847717285156 186.14588928222656L292.91943359375 187.53604125976562C292.2219543457031 187.60362243652344 291.5117492675781 187.6543731689453 290.7887268066406 187.68772888183594L268.4320983886719 188.68856811523438C268.2152404785156 188.69850158691406 267.9993896484375 188.706787109375 267.7845458984375 188.71340942382812L256.8683166503906 189.21604919433594C256.3974609375 189.2364501953125 255.9313507080078 189.24903869628906 255.46998596191406 189.2539520263672L246.62020874023438 189.56629943847656C246.4976043701172 189.57177734375 246.37461853027344 189.57675170898438 246.25128173828125 189.5812225341797L235.89120483398438 189.94639587402344L229.96920776367188 190.1553497314453C230.04368591308594 190.53492736816406 230.11183166503906 190.91238403320312 230.1737518310547 191.28765869140625L230.23780822753906 191.59642028808594C230.35595703125 192.1731719970703 230.46087646484375 192.7445526123047 230.55288696289062 193.3104705810547C230.7003631591797 194.12594604492188 230.82559204101562 194.96115112304688 230.92758178710938 195.81619262695312L230.99594116210938 196.5054168701172C231.0424041748047 196.7339324951172 231.0872344970703 196.96401977539062 231.1304473876953 197.1957244873047L231.7397918701172 200.4592742919922L232.7263946533203 204.2692413330078C232.87318420410156 204.84625244140625 233.0061798095703 205.41839599609375 233.12571716308594 205.98562622070312L233.40599060058594 207.19461059570312C233.6673583984375 208.18165588378906 233.89642333984375 209.20130920410156 234.0912628173828 210.25389099121094C234.18450927734375 210.7269287109375 234.2685546875 211.19651794433594 234.3435821533203 211.6624755859375L235.0164031982422 215.43199157714844C235.0713348388672 215.72122192382812 235.1234130859375 216.01295471191406 235.17262268066406 216.30722045898438L235.20144653320312 216.46868896484375C235.46929931640625 217.9835205078125 235.64776611328125 219.4591827392578 235.7424774169922 220.8946990966797L236.00186157226562 223.25790405273438C236.16470336914062 224.3426513671875 236.28639221191406 225.4607391357422 236.3645782470703 226.61236572265625L236.89205932617188 234.01046752929688C236.95889282226562 234.99517822265625 236.99087524414062 235.95994567871094 236.9895477294922 236.90464782714844L237.0744171142578 238.7294158935547C237.14810180664062 239.58554077148438 237.19589233398438 240.4605712890625 237.21664428710938 241.3544921875L237.36541748046875 249.33416748046875C237.37518310546875 249.75502014160156 237.3787841796875 250.17196655273438 237.37632751464844 250.58499145507812L237.47361755371094 258.0036315917969C237.47628784179688 258.2822265625 237.47628784179688 258.55908203125 237.47361755371094 258.83416748046875V273.85479736328125L237.4735870361328 273.9089050292969L237.47361755371094 290.81500244140625L237.4724578857422 291.04376220703125L237.41952514648438 301.4320373535156V352.29913330078125C237.41934204101562 352.4424743652344 237.41847229003906 352.5853271484375 237.41688537597656 352.72772216796875L237.36541748046875 362.1317443847656V384.2178955078125L237.6900177001953 392.7791442871094C237.72154235839844 393.6492614746094 237.72640991210938 394.5030212402344 237.7056884765625 395.34033203125L237.7982177734375 405.1949768066406Q237.80221557617188 405.6137390136719 237.7982177734375 406.0271911621094V415.9797668457031C237.80023193359375 416.2200622558594 237.8002471923828 416.4617004394531 237.7982177734375 416.70465087890625L237.6914520263672 427.2338562011719C237.6911163330078 427.2991027832031 237.69064331054688 427.36444091796875 237.6900177001953 427.4299011230469L237.6516571044922 432.75225830078125C237.6940155029297 434.05377197265625 237.672119140625 435.3949890136719 237.58181762695312 436.7756042480469L237.5646209716797 437.0302734375C237.55104064941406 437.2601318359375 237.53561401367188 437.48870849609375 237.51832580566406 437.7159423828125L236.9849090576172 445.61505126953125L236.96823120117188 446.5491027832031C237.0140380859375 446.5526428222656 237.05979919433594 446.5562438964844 237.10549926757812 446.5599365234375L241.2662811279297 446.71783447265625L247.5644989013672 446.4405517578125C247.8282928466797 446.42193603515625 248.09384155273438 446.4056701660156 248.3611602783203 446.39178466796875L255.5969696044922 446.026611328125C255.9770050048828 446.0068664550781 256.3539733886719 445.9922180175781 256.7279052734375 445.9826354980469L267.6748046875 445.45611572265625L281.22662353515625 444.4983215332031L281.3009033203125 444.4930725097656L294.0325927734375 443.1663513183594C294.3195495605469 443.1297607421875 294.6087951660156 443.0958557128906 294.9002990722656 443.0646667480469L306.0583190917969 441.8474426269531C306.6069641113281 441.7896423339844 307.1497802734375 441.7429504394531 307.686767578125 441.7070617675781L316.62127685546875 440.79248046875C317.0792541503906 440.7469482421875 317.5331115722656 440.7091369628906 317.98284912109375 440.6788635253906L324.4927673339844 440.0621337890625C324.9732971191406 440.0166015625 325.44927978515625 439.97955322265625 325.9206848144531 439.9507751464844L333.1081237792969 439.3182678222656Q333.2055358886719 439.30950927734375 333.30267333984375 439.3012390136719L348.1237487792969 437.7539978027344C348.75616455078125 437.6623229980469 349.39984130859375 437.583984375 350.0547790527344 437.51947021484375L361.5827331542969 436.4273376464844C362.13629150390625 436.35723876953125 362.6982421875 436.2973937988281 363.26861572265625 436.2481384277344L377.3877868652344 435.0755615234375C378.34185791015625 434.966064453125 379.32037353515625 434.8890380859375 380.3232421875 434.84613037109375C380.9920654296875 434.80816650390625 381.6515808105469 434.7867431640625 382.3017883300781 434.7814025878906L392.08575439453125 434.4756774902344C393.1752624511719 434.3915100097656 394.2947998046875 434.3503723144531 395.4443054199219 434.3546447753906L406.2777404785156 434.40875244140625C407.17169189453125 434.41290283203125 408.0472412109375 434.4443664550781 408.9044189453125 434.5020446777344L413.8941345214844 434.6023864746094C414.0462646484375 434.6046447753906 414.1989440917969 434.60772705078125 414.35211181640625 434.6116027832031H414.67669677734375C415.4745178222656 434.6318359375 416.25726318359375 434.67352294921875 417.0249328613281 434.73583984375L421.4932556152344 434.93621826171875C422.1883544921875 434.96978759765625 422.87158203125 435.0194091796875 423.5429992675781 435.0845642089844L423.99700927734375 435.11700439453125C424.90325927734375 435.14678955078125 425.82696533203125 435.20782470703125 426.7679748535156 435.3013916015625L428.13702392578125 435.4567565917969C428.35150146484375 435.47540283203125 428.5668640136719 435.4957275390625 428.7831726074219 435.5177917480469L428.849609375 435.5355224609375C430.3141174316406 435.68707275390625 431.7216491699219 435.90777587890625 433.07275390625 436.1927490234375C471.2760925292969 444.0179443359375 464.6853942871094 502.7162170410156 424.789794921875 500.9950866699219C423.931884765625 500.9636535644531 423.05841064453125 500.9043273925781 422.16949462890625 500.8159484863281L420.2984313964844 500.60211181640625L417.5845642089844 500.4507751464844C417.2862854003906 500.4294128417969 416.9902648925781 500.4051513671875 416.6965026855469 500.3780212402344L412.29632568359375 500.1802673339844C412.18304443359375 500.1748046875 412.0700988769531 500.16888427734375 411.95745849609375 500.1625671386719L405.3174743652344 500.0179748535156C405.26678466796875 500.0167541503906 405.21612548828125 500.01544189453125 405.1655578613281 500.0140380859375L396.1269226074219 499.9689025878906L383.5946350097656 500.3731689453125L370.36456298828125 501.4756774902344C369.9912109375 501.5218811035156 369.61407470703125 501.5634765625 369.23309326171875 501.60040283203125L357.6242370605469 502.7013244628906C357.2906799316406 502.7437438964844 356.9540710449219 502.7825622558594 356.6143798828125 502.817626953125L339.3836669921875 504.6164245605469C338.6252136230469 504.69476318359375 337.8779296875 504.75189208984375 337.1418762207031 504.7884826660156L330.5113220214844 505.4143981933594C329.9664611816406 505.46331787109375 329.4275207519531 505.50140380859375 328.8945007324219 505.52886962890625L324.25677490234375 505.96820068359375C323.8971862792969 506.0133056640625 323.5340270996094 506.05413818359375 323.1673278808594 506.09063720703125L313.99761962890625 506.9896240234375C313.6758117675781 507.031494140625 313.3511657714844 507.0699768066406 313.0236511230469 507.1050109863281L301.879150390625 508.322265625C301.5190734863281 508.3602294921875 301.1614990234375 508.3934020996094 300.8064270019531 508.421875L288.46099853515625 509.6970520019531C287.6329040527344 509.80810546875 286.7858581542969 509.89569091796875 285.9197692871094 509.9587707519531L272.76763916015625 510.8883361816406C272.1615295410156 510.9429016113281 271.5458984375 510.9848327636719 270.9206848144531 511.0137023925781L259.6399230957031 511.5052490234375C259.43841552734375 511.5185852050781 259.23583984375 511.53057861328125 259.03228759765625 511.5411682128906L251.7423858642578 511.9063415527344C251.26646423339844 511.9311218261719 250.7953338623047 511.9478454589844 250.3289794921875 511.9566650390625L244.94874572753906 512.1935424804688C243.9757843017578 512.2703857421875 242.97906494140625 512.3114624023438 241.95863342285156 512.31494140625C240.51344299316406 512.3469848632812 239.11419677734375 512.3042602539062 237.76112365722656 512.1917724609375L235.0341033935547 512.0882568359375L234.74049377441406 512.0889892578125L234.619873046875 518.4118041992188L234.61734008789062 518.5347900390625L234.56576538085938 526.540283203125C234.55569458007812 527.3755493164062 234.5219268798828 528.194580078125 234.4653778076172 528.9974365234375L234.32884216308594 534.04931640625L234.31727600097656 534.4771118164062L234.30880737304688 534.7904663085938C234.28240966796875 535.5667724609375 234.23582458496094 536.3285522460938 234.16978454589844 537.075927734375L233.80625915527344 542.5753784179688C233.78842163085938 543.0546875 233.76214599609375 543.5388793945312 233.72723388671875 544.0279541015625L233.14566040039062 551.5997924804688V558.82421875L233.23768615722656 564.2195434570312C233.2435760498047 564.3412475585938 233.2489776611328 564.46337890625 233.2538604736328 564.5858154296875L233.56492614746094 572.66015625L233.7893524169922 578.0370483398438C233.8888702392578 579.2318725585938 233.9341278076172 580.4627075195312 233.92173767089844 581.7293701171875C233.93450927734375 583.0372924804688 233.88597106933594 584.3069458007812 233.77984619140625 585.5380859375L233.63992309570312 588.750732421875C233.63720703125 589.523193359375 233.6124725341797 590.3089599609375 233.56492614746094 591.1080932617188L233.22361755371094 596.3414916992188C233.21636962890625 596.4810791015625 233.20840454101562 596.6210327148438 233.1997528076172 596.761474609375L232.78330993652344 603.7698364257812C232.77127075195312 604.0081176757812 232.75704956054688 604.2474975585938 232.74063110351562 604.4880981445312L232.7263946533203 604.7276611328125C232.64976501464844 605.964111328125 232.5227813720703 607.162353515625 232.34840393066406 608.322509765625L231.80908203125 613.0839233398438C231.7610321044922 613.7256469726562 231.697265625 614.3755493164062 231.61734008789062 615.0336303710938L230.6029815673828 623.1755981445312C230.55990600585938 623.5303344726562 230.5128173828125 623.8816528320312 230.46182250976562 624.2294921875L230.1897735595703 626.5733032226562C230.17129516601562 626.7788696289062 230.1512451171875 626.9852905273438 230.12960815429688 627.1925048828125L229.71034240722656 631.5204467773438C229.7001495361328 631.6179809570312 229.68963623046875 631.71533203125 229.6788330078125 631.8123779296875L229.38250732421875 635.913330078125L229.0746612548828 641.826416015625C229.01910400390625 642.9207153320312 228.923828125 643.9854125976562 228.7908935546875 645.0208129882812L228.18202209472656 652.0647583007812C228.1672821044922 652.2353515625 228.151611328125 652.4052124023438 228.13499450683594 652.5742797851562L227.71617126464844 657.4734497070312C227.69956970214844 657.8007202148438 227.67906188964844 658.1302490234375 227.65455627441406 658.4620361328125L226.96478271484375 667.9159545898438C226.94058227539062 668.2437744140625 226.91285705566406 668.5689086914062 226.8816680908203 668.8912353515625L226.5717010498047 674.2933959960938C226.55067443847656 674.8591918945312 226.51731872558594 675.431640625 226.4713134765625 676.0108032226562C226.39353942871094 677.1737060546875 226.2708282470703 678.302490234375 226.105712890625 679.3972778320312L225.48626708984375 684.7188720703125L225.05783081054688 689.2651977539062L224.94677734375 691.7525024414062L224.91409301757812 694.3570556640625L224.93548583984375 696.0049438476562C224.94061279296875 696.1181030273438 224.9453125 696.2315063476562 224.94956970214844 696.3452758789062L225.1659698486328 701.8904418945312C225.1827850341797 702.3549194335938 225.19203186035156 702.8147583007812 225.19383239746094 703.2698974609375L225.32827758789062 705.7991333007812C225.341064453125 706.1098022460938 225.35044860839844 706.4183349609375 225.35647583007812 706.724853515625L225.48077392578125 710.0891723632812L225.70651245117188 711.6958618164062C225.72036743164062 711.7723999023438 225.73403930664062 711.8490600585938 225.74754333496094 711.9259033203125L226.242919921875 714.8801879882812C226.37460327148438 715.5062866210938 226.49365234375 716.1444702148438 226.599609375 716.7948608398438L227.0799560546875 719.7998657226562C227.1153564453125 720.0096435546875 227.1493377685547 720.2206420898438 227.1818389892578 720.4329833984375L227.19432067871094 720.5150146484375C227.3574676513672 721.53857421875 227.48025512695312 722.543701171875 227.56442260742188 723.5302124023438L227.58053588867188 723.6705322265625C227.71728515625 724.5441284179688 227.82801818847656 725.4395751953125 227.91152954101562 726.3569946289062L228.1026611328125 728.4048461914062C228.1983642578125 728.5941772460938 228.2923583984375 728.7850952148438 228.38453674316406 728.9773559570312C229.56594848632812 731.3599853515625 230.46932983398438 733.9848022460938 231.03623962402344 736.8485717773438C231.09291076660156 737.1240844726562 231.14625549316406 737.4017333984375 231.1962432861328 737.6815185546875C231.4452667236328 738.9461669921875 231.62046813964844 740.2531127929688 231.71591186523438 741.6009521484375C231.7333221435547 741.7808837890625 231.7491455078125 741.9616088867188 231.76339721679688 742.1429443359375C231.82968139648438 742.9758911132812 231.86241149902344 743.8220825195312 231.85997009277344 744.6808471679688C231.99520874023438 747.2733764648438 231.7881622314453 749.929443359375 231.1905975341797 752.6097412109375C239.92417907714844 772.0288696289062 230.0084228515625 800.0 201.44332885742188 800.0H197.3182373046875C171.16253662109375 800.0 160.64764404296875 776.5339965820312 165.77352905273438 757.666748046875C164.40939331054688 754.4640502929688 163.64471435546875 751.2544555664062 163.3984375 748.1055908203125C163.03648376464844 745.6023559570312 162.97254943847656 743.1852416992188 163.17137145996094 740.8685302734375L163.13516235351562 739.7870483398438C163.11720275878906 739.5540771484375 163.10104370117188 739.3197021484375 163.08673095703125 739.0839233398438L162.93821716308594 736.3411865234375L162.93795776367188 736.33837890625L162.55926513671875 732.267333984375L162.549560546875 732.1577758789062L162.37045288085938 730.7760620117188L161.91078186035156 727.900390625C161.89683532714844 727.8233642578125 161.88307189941406 727.7462158203125 161.86949157714844 727.6688842773438L161.08505249023438 723.2327270507812C160.90769958496094 722.21435546875 160.77061462402344 721.2137451171875 160.6720733642578 720.231201171875L160.58285522460938 719.59619140625C160.39276123046875 718.5488891601562 160.2434844970703 717.46923828125 160.13746643066406 716.3572998046875C159.91563415527344 714.48828125 159.8267822265625 712.6846923828125 159.86019897460938 710.9481811523438L159.78892517089844 709.1395874023438C159.77784729003906 708.9422607421875 159.76806640625 708.7439575195312 159.75961303710938 708.544677734375L159.59732055664062 704.4736938476562C159.5850372314453 704.173095703125 159.575927734375 703.8743896484375 159.56997680664062 703.5776977539062L159.39443969726562 698.7797241210938C159.36598205566406 698.0198974609375 159.3578338623047 697.2725830078125 159.36932373046875 696.5377197265625L159.35440063476562 695.6793823242188C159.3468780517578 695.41162109375 159.34190368652344 695.1421508789062 159.34034729003906 694.8710327148438C159.33961486816406 694.8206176757812 159.33895874023438 694.7702026367188 159.33840942382812 694.7199096679688C159.3343048095703 694.3487548828125 159.33497619628906 693.9806518554688 159.34034729003906 693.6156616210938V690.800048828125C159.35165405273438 689.755615234375 159.4000701904297 688.736572265625 159.48382568359375 687.7428588867188L159.5049591064453 687.2694702148438C159.50994873046875 686.0148315429688 159.57559204101562 684.7255249023438 159.7055206298828 683.4019165039062L160.1819305419922 678.7233276367188C160.2126007080078 678.3826293945312 160.24761962890625 678.0396728515625 160.28707885742188 677.6944580078125L161.0764617919922 670.9788818359375L161.39979553222656 665.3528442382812C161.41343688964844 664.60107421875 161.44802856445312 663.8369140625 161.50433349609375 663.0604858398438L162.13031005859375 655.1504516601562C162.15541076660156 654.53564453125 162.194580078125 653.9127807617188 162.24819946289062 653.281982421875L162.7808380126953 646.9895629882812C162.79559326171875 646.7841796875 162.81190490722656 646.577880859375 162.82977294921875 646.3707885742188L163.6142120361328 637.336181640625C163.61924743652344 637.2786865234375 163.62437438964844 637.2212524414062 163.62962341308594 637.1639404296875L163.8497314453125 632.9360961914062C163.86439514160156 632.5736083984375 163.88388061523438 632.2083740234375 163.9082794189453 631.8405151367188C163.9282989501953 631.5099487304688 163.95196533203125 631.1820678710938 163.97921752929688 630.85693359375L164.3580780029297 625.650634765625C164.42237854003906 624.8074340820312 164.50985717773438 623.982421875 164.6195831298828 623.1754760742188L164.8855438232422 620.4300537109375C164.92967224121094 620.00732421875 164.97950744628906 619.58935546875 165.0349578857422 619.1761474609375L165.29661560058594 616.9218139648438C165.341796875 616.3705444335938 165.39852905273438 615.813232421875 165.4671173095703 615.25L166.46795654296875 607.1080322265625C166.51693725585938 606.7057495117188 166.57106018066406 606.3078002929688 166.63021850585938 605.914306640625L167.3007354736328 600.0875244140625L167.7393035888672 592.74462890625C167.7457275390625 592.6403198242188 167.75250244140625 592.536376953125 167.7596435546875 592.4326171875L168.0503692626953 587.1994018554688C168.0647430419922 586.9627075195312 168.08096313476562 586.7274169921875 168.09901428222656 586.4935302734375L168.27474975585938 581.6962890625L168.0606231689453 575.551025390625C168.05699157714844 575.47119140625 168.05357360839844 575.3911743164062 168.0503692626953 575.31103515625L167.68519592285156 567.1690673828125C167.65968322753906 566.5302124023438 167.6485595703125 565.900146484375 167.65142822265625 565.2789306640625L167.5229034423828 560.2984008789062C167.50929260253906 559.670654296875 167.50942993164062 559.0516967773438 167.5229034423828 558.44140625V550.5875244140625C167.5269775390625 548.942626953125 167.62380981445312 547.3597412109375 167.806396484375 545.8389282226562L168.2667694091797 539.3348388671875C168.29019165039062 539.0123291015625 168.31700134277344 538.6924438476562 168.34718322753906 538.3751831054688L168.7493896484375 532.2905883789062L168.95654296875 525.0661010742188C168.9608154296875 524.9393310546875 168.96563720703125 524.81298828125 168.9709930419922 524.68701171875L169.05654907226562 518.0349731445312C169.05616760253906 517.7388305664062 169.0588836669922 517.440673828125 169.0647430419922 517.1405029296875L169.1957550048828 509.6009216308594C169.19471740722656 509.16107177734375 169.20059204101562 508.716796875 169.21351623535156 508.2681579589844L169.4840087890625 499.3282165527344C169.50669860839844 498.57928466796875 169.54823303222656 497.8437805175781 169.60792541503906 497.1216125488281L169.73219299316406 494.1326599121094C169.73910522460938 493.51513671875 169.75994873046875 492.8891296386719 169.7950897216797 492.25469970703125L170.17771911621094 485.9053039550781C170.19049072265625 485.5760803222656 170.20718383789062 485.2445373535156 170.22787475585938 484.9106750488281L170.7012481689453 477.566650390625C170.71678161621094 477.3144226074219 170.7344207763672 477.0637512207031 170.75411987304688 476.814697265625L171.1254119873047 470.0149230957031L171.2797393798828 461.7319641113281L171.23663330078125 454.5765075683594C171.21681213378906 453.88818359375 171.2139892578125 453.1886901855469 171.2287139892578 452.4779968261719L171.3961181640625 444.9336853027344C171.3889617919922 443.95794677734375 171.4174041748047 442.9606018066406 171.4830780029297 441.9418029785156C171.48394775390625 441.9283752441406 171.48480224609375 441.9149475097656 171.48524475097656 441.9014892578125C171.5057830810547 441.5238037109375 171.53126525878906 441.149658203125 171.5615997314453 440.7790222167969L172.01681518554688 434.0478210449219L172.12164306640625 426.7942199707031L172.12196350097656 426.7308044433594L172.1754608154297 416.17718505859375C172.17588806152344 416.1254577636719 172.17642211914062 416.0737609863281 172.17703247070312 416.02215576171875L172.22821044921875 405.672607421875L172.13172912597656 395.41009521484375C172.12802124023438 395.3222351074219 172.1245574951172 395.2342224121094 172.12136840820312 395.14599609375L171.81028747558594 386.5982666015625C171.77239990234375 385.552001953125 171.7729949951172 384.5293884277344 171.81028747558594 383.5305480957031V331.8089294433594L171.810302734375 331.7818908691406L171.81028747558594 331.7548522949219V309.4523010253906C171.81048583984375 309.2948913574219 171.8115234375 309.1380615234375 171.81341552734375 308.9818115234375L171.86439514160156 301.3238525390625V290.7068176269531L171.86441040039062 290.68878173828125L171.86439514160156 290.6527099609375V280.34674072265625Q171.86495971679688 280.0833435058594 171.8686981201172 279.8220520019531L171.9180450439453 273.8006896972656L171.91848754882812 273.74658203125V266.9841613769531L171.8671875 258.814208984375C171.86605834960938 258.7380065917969 171.86512756347656 258.66168212890625 171.86439514160156 258.585205078125L171.81454467773438 251.03358459472656C171.81301879882812 250.97662353515625 171.8115997314453 250.9196014404297 171.81028747558594 250.86248779296875L171.6726531982422 244.06085205078125C171.66354370117188 243.89874267578125 171.65533447265625 243.73597717285156 171.6479949951172 243.57257080078125L171.4156036376953 238.27635192871094L170.92776489257812 231.43409729003906L170.3206787109375 226.37171936035156L169.65089416503906 222.65347290039062L169.126220703125 220.35604858398438L168.46124267578125 217.760498046875C168.10337829589844 216.5668487548828 167.79380798339844 215.32293701171875 167.53616333007812 214.02806091308594C167.3749542236328 213.2828826904297 167.23696899414062 212.54612731933594 167.12147521972656 211.81800842285156L166.73556518554688 209.74456787109375C166.42564392089844 208.4292755126953 166.17623901367188 207.05845642089844 165.99208068847656 205.63156127929688C165.03781127929688 203.439208984375 164.30291748046875 201.05198669433594 163.82638549804688 198.4698944091797C163.15248107910156 195.87026977539062 162.80667114257812 193.34361267089844 162.7516326904297 190.9066619873047H114.48606872558594C114.59761047363281 191.4241943359375 114.69683074951172 191.9381561279297 114.78398895263672 192.44845581054688C114.96294403076172 193.21376037597656 115.12152099609375 193.99778747558594 115.2587890625 194.80067443847656C115.55378723144531 196.3193817138672 115.75489807128906 197.80091857910156 115.86808776855469 199.24391174316406L116.12832641601562 201.25318908691406C116.30870819091797 202.721435546875 116.4083480834961 204.14920043945312 116.43229675292969 205.53582763671875L116.50316619873047 206.59588623046875C116.5764389038086 207.3908233642578 116.62761688232422 208.20217895507812 116.65579986572266 209.02999877929688L116.66864013671875 209.59490966796875L116.67457580566406 209.8561248779297L116.73149108886719 212.3605194091797C116.7383041381836 212.4807586669922 116.74462890625 212.60134887695312 116.75047302246094 212.72230529785156L116.87889099121094 215.77210998535156L117.05816650390625 217.9906768798828L117.4476547241211 220.61781311035156C117.55142974853516 221.2259521484375 117.64248657226562 221.84490966796875 117.72039031982422 222.47459411621094C117.87747955322266 223.61911010742188 117.98445892333984 224.73977661132812 118.04378509521484 225.8362274169922L118.48465728759766 230.80685424804688C118.50757598876953 231.0124969482422 118.52912902832031 231.21929931640625 118.54927825927734 231.42721557617188L118.65747833251953 232.37396240234375C118.6795883178711 232.60134887695312 118.6998062133789 232.82772827148438 118.7181396484375 233.05308532714844L119.55012512207031 240.6241455078125C119.60717010498047 241.15097045898438 119.65393829345703 241.6724395751953 119.69068145751953 242.18853759765625L120.45629119873047 249.60467529296875C120.51258850097656 250.16384887695312 120.5573959350586 250.71693420410156 120.59098815917969 251.26388549804688L121.20015716552734 258.6933898925781C121.2511978149414 259.3332824707031 121.28739166259766 259.96490478515625 121.30916595458984 260.5882568359375L121.78173065185547 268.2554931640625C121.826171875 269.0389099121094 121.84870910644531 269.8094787597656 121.85010528564453 270.5671691894531L122.09280395507812 276.70855712890625C122.1192626953125 277.3709716796875 122.1302490234375 278.02392578125 122.12623596191406 278.6674499511719L122.36329650878906 288.43463134765625C122.37139129638672 288.8084716796875 122.37461853027344 289.17919921875 122.37307739257812 289.5468444824219L122.51206970214844 300.16070556640625C122.52772521972656 301.607177734375 122.47110748291016 303.0066223144531 122.34696960449219 304.3589782714844L122.00265502929688 311.6337585449219C121.99458312988281 312.2901306152344 121.97068786621094 312.9560546875 121.93050384521484 313.6315002441406L121.34893035888672 322.9772033691406Q121.33804321289062 323.16107177734375 121.32567596435547 323.3438720703125L120.88006591796875 331.1478576660156L120.9255599975586 341.00946044921875C120.92700958251953 341.05780029296875 120.92837524414062 341.106201171875 120.9296646118164 341.1546325683594L121.22151947021484 351.8647155761719C121.22881317138672 352.02691650390625 121.23522186279297 352.18975830078125 121.24073028564453 352.3532409667969L121.61943054199219 363.132568359375C121.62956237792969 363.4443359375 121.63628387451172 363.75396728515625 121.6396484375 364.0615234375L121.82230377197266 371.4774475097656C121.83268737792969 371.8064270019531 121.83927917480469 372.1330261230469 121.84213256835938 372.457275390625L122.09280395507812 382.1080017089844C122.09906768798828 382.36767578125 122.10298156738281 382.6258544921875 122.10457611083984 382.882568359375L122.30919647216797 392.8197021484375C122.3144760131836 393.1354675292969 122.31629180908203 393.448974609375 122.31468963623047 393.7602844238281L122.35181427001953 399.0233459472656C122.38199615478516 399.6245422363281 122.39947509765625 400.2345886230469 122.40387725830078 400.8534851074219L122.45797729492188 411.47052001953125C122.45852661132812 411.5597839355469 122.45880889892578 411.6488342285156 122.45880889892578 411.73773193359375L122.51103210449219 421.6869201660156L122.51197052001953 421.88470458984375L122.51206970214844 421.9388122558594V430.9476623535156L122.98544311523438 439.4805908203125Q123.00236511230469 439.7710876464844 123.01528930664062 440.0592041015625L123.5992431640625 447.75360107421875L124.25694274902344 454.8448486328125L124.25788879394531 454.8550720214844L124.97306823730469 461.4517822265625C125.12750244140625 462.5304260253906 125.24117279052734 463.64166259765625 125.31172180175781 464.78564453125L125.74452209472656 472.0214538574219C125.81267547607422 473.1493835449219 125.83535766601562 474.2508239746094 125.81481170654297 475.3256530761719L125.94739532470703 483.4905700683594C125.95580291748047 483.98486328125 125.95574188232422 484.4737243652344 125.94739532470703 484.9571228027344V494.1617126464844C125.93982696533203 495.79400634765625 125.84114837646484 497.36492919921875 125.6581802368164 498.87457275390625L125.28966522216797 504.1737976074219C125.26885223388672 504.92681884765625 125.22686004638672 505.6920166015625 125.16294860839844 506.4693603515625L124.76685333251953 510.7604064941406C124.74244689941406 511.1571960449219 124.71221160888672 511.55718994140625 124.67605590820312 511.96044921875L124.25678253173828 516.924072265625C124.22246551513672 517.3062744140625 124.18341827392578 517.6846923828125 124.13972473144531 518.0592651367188L123.8756103515625 521.3223266601562L123.38884735107422 529.6312255859375C123.38290405273438 529.8843994140625 123.37468719482422 530.138916015625 123.36414337158203 530.3948974609375L122.93134307861328 540.5926513671875C122.92417907714844 540.7679443359375 122.9159927368164 540.9424438476562 122.90679168701172 541.1162109375L122.72846984863281 547.5714721679688C122.72484588623047 547.686279296875 122.72077178955078 547.80078125 122.71626281738281 547.9149780273438L122.5925064086914 555.6497802734375C122.60630798339844 556.6835327148438 122.58016204833984 557.7417602539062 122.51206970214844 558.82421875L122.50952911376953 558.8628540039062L122.44969940185547 559.7730102539062L121.915771484375 567.8956298828125L121.78173065185547 576.4741821289062V582.073486328125L121.92332458496094 590.4148559570312C121.92609405517578 590.5194702148438 121.9284896850586 590.6243286132812 121.93050384521484 590.7294311523438L122.09280395507812 599.3988647460938C122.09697723388672 599.6275634765625 122.09933471679688 599.8551635742188 122.09989929199219 600.08154296875L122.1712646484375 605.8622436523438C122.26521301269531 607.3336181640625 122.27717590332031 608.8580322265625 122.20100402832031 610.4351806640625L121.78173065185547 618.9423217773438C121.74735260009766 619.6322631835938 121.69718933105469 620.3104858398438 121.63175201416016 620.97705078125L121.15596771240234 628.456787109375L121.14605712890625 628.6126098632812L121.14586639404297 628.6155395507812L120.67269134521484 635.8484497070312C120.65702819824219 636.0880126953125 120.63948059082031 636.3261108398438 120.62006378173828 636.5628051757812L120.29399108886719 642.2457275390625C120.28035736083984 642.4713134765625 120.2650375366211 642.6956787109375 120.24806213378906 642.918701171875L120.03701782226562 648.6835327148438C120.03019714355469 648.8444213867188 120.02251434326172 649.004638671875 120.01397705078125 649.1642456054688L119.82061767578125 657.6234741210938C119.78724670410156 658.9395751953125 119.69551849365234 660.2145385742188 119.54900360107422 661.4485473632812L119.12873840332031 667.0767211914062C119.10498046875 667.6339111328125 119.06971740722656 668.1976928710938 119.02265167236328 668.7680053710938L118.29230499267578 677.5321655273438C118.2661361694336 677.8446044921875 118.2367935180664 678.1544799804688 118.2043228149414 678.4618530273438L117.74885559082031 684.3248291015625C117.7381820678711 684.5615234375 117.72547912597656 684.7993774414062 117.71073913574219 685.0384521484375L117.33203887939453 691.0570068359375C117.31586456298828 691.3141479492188 117.2975082397461 691.5696411132812 117.27700805664062 691.823486328125L117.02096557617188 698.346923828125C117.01095581054688 698.5830078125 116.99908447265625 698.8177490234375 116.9853744506836 699.0511474609375L116.85417938232422 703.7907104492188C116.86182403564453 704.8410034179688 116.82795715332031 705.916259765625 116.75047302246094 707.0164184570312L116.38529968261719 712.723876953125C116.31663513183594 713.7039794921875 116.21648406982422 714.6597290039062 116.08633422851562 715.5912475585938L115.72982025146484 719.2818603515625C115.69990539550781 719.8703002929688 115.65702819824219 720.4659423828125 115.6008529663086 721.0687255859375L114.95426177978516 727.56005859375L114.62213134765625 732.0621948242188C114.57713317871094 733.2122192382812 114.48052215576172 734.3897705078125 114.32951354980469 735.594482421875L114.32007598876953 735.6659545898438C114.2683334350586 736.1139526367188 114.20985412597656 736.5565795898438 114.144775390625 736.9937744140625L113.88617706298828 738.9525146484375C113.81072235107422 739.7418823242188 113.7108383178711 740.5430908203125 113.58564758300781 741.3560791015625L113.56401062011719 741.4957275390625C114.86212158203125 743.226806640625 115.98930358886719 745.1311645507812 116.91004943847656 747.2066650390625C117.77942657470703 749.0654907226562 118.47171020507812 751.0551147460938 118.95854949951172 753.1705932617188C119.53728485107422 755.46923828125 119.8570327758789 757.90625 119.87736511230469 760.4700317382812C119.91156005859375 761.6909790039062 119.87268829345703 762.936767578125 119.7558364868164 764.2051391601562C119.62346649169922 766.6337890625 119.1866455078125 769.1168823242188 118.40740203857422 771.628173828125C117.20484924316406 776.7012329101562 114.61688232421875 781.6107177734375 110.36968231201172 785.9258422851562C109.60623168945312 786.7922973632812 108.81269073486328 787.5994873046875 107.99273681640625 788.3489379882812C103.39541625976562 792.9514770507812 97.41519165039062 796.1754760742188 90.3746109008789 797.0291137695312C89.883056640625 797.0908203125 89.38645935058594 797.140869140625 88.88494110107422 797.1788940429688C81.26041412353516 798.2681274414062 74.13690185546875 796.3390502929688 68.22567749023438 792.5098876953125C67.67790985107422 792.1779174804688 67.1336441040039 791.82568359375 66.59349822998047 791.4526977539062C61.62538528442383 788.434326171875 58.00611114501953 784.5341796875 55.58964538574219 780.168212890625C55.162071228027344 779.4931030273438 54.76579666137695 778.8118286132812 54.40001678466797 778.1255493164062C53.224334716796875 776.1233520507812 52.29924011230469 774.1062622070312 51.60466003417969 772.0914916992188C51.135501861572266 770.908447265625 50.73886489868164 769.7347412109375 50.411251068115234 768.5723876953125C50.04563522338867 767.460693359375 49.73655319213867 766.363037109375 49.48149490356445 765.280517578125C49.182098388671875 764.2312622070312 48.918983459472656 763.1439819335938 48.69451141357422 762.0183715820312C48.66411590576172 761.8778076171875 48.63456344604492 761.737548828125 48.6058464050293 761.5975341796875C48.101348876953125 759.6853637695312 47.74000549316406 757.6527709960938 47.53933334350586 755.4989013671875C47.258277893066406 753.294921875 47.17334747314453 751.1778564453125 47.265438079833984 749.1513671875L47.2325439453125 747.8480224609375C47.20063400268555 746.3096313476562 47.25115966796875 744.8236694335938 47.37839889526367 743.3901977539062L47.382110595703125 743.2974243164062C47.38088607788086 742.2311401367188 47.42622375488281 741.140380859375 47.52059555053711 740.0255737304688C47.650604248046875 737.8518676757812 47.939796447753906 735.7960815429688 48.37150573730469 733.8572998046875L48.53888702392578 732.7667846679688C48.5577392578125 732.600830078125 48.5776252746582 732.434326171875 48.59856033325195 732.267333984375L49.155982971191406 728.0570068359375L49.5588264465332 722.3941650390625C49.59894561767578 721.8685302734375 49.648094177246094 721.3499755859375 49.70603561401367 720.8384399414062L50.235069274902344 714.99609375C50.29264831542969 714.3795166015625 50.362491607666016 713.7728881835938 50.44422149658203 713.1762084960938L50.978939056396484 707.2733764648438C50.992027282714844 707.1387939453125 51.00570297241211 707.0046997070312 51.019954681396484 706.87109375L51.251304626464844 703.8201904296875L51.41473388671875 697.522705078125C51.41182327270508 696.8738403320312 51.424190521240234 696.21533203125 51.452308654785156 695.5473022460938L51.750404357910156 689.3086547851562C51.755615234375 688.54736328125 51.7822265625 687.7731323242188 51.83100891113281 686.9860229492188L52.14507293701172 682.4776611328125C52.16420364379883 681.8256225585938 52.19911575317383 681.1644287109375 52.25027847290039 680.4940795898438L52.787025451660156 673.5848999023438C52.81096649169922 673.0933837890625 52.8438720703125 672.5968017578125 52.885948181152344 672.0951538085938L53.61629104614258 663.3175048828125C53.643798828125 662.9892578125 53.6748046875 662.6637573242188 53.709259033203125 662.341064453125L54.20707321166992 655.66455078125L54.432106018066406 647.7885131835938C54.430667877197266 647.1800537109375 54.442623138427734 646.563232421875 54.468360900878906 645.93798828125L54.70537185668945 640.5897827148438C54.708770751953125 639.8335571289062 54.73320770263672 639.0646362304688 54.77943420410156 638.2828979492188L55.16122817993164 632.5082397460938C55.17473220825195 632.1990356445312 55.191715240478516 631.8878173828125 55.21223068237305 631.5745849609375L55.68560028076172 624.3387451171875L56.26716995239258 615.1959228515625C56.28815841674805 614.8749389648438 56.31253433227539 614.5565185546875 56.34024429321289 614.24072265625L56.6180534362793 608.6038818359375L56.47886276245117 601.0411376953125C56.47540283203125 600.9178466796875 56.47246170043945 600.794189453125 56.47004318237305 600.670166015625L56.32126998901367 591.9466552734375C56.31708908081055 591.7178344726562 56.31473159790039 591.490234375 56.31417465209961 591.2637329101562L56.213069915771484 583.0743408203125C56.20777893066406 582.739013671875 56.20638656616211 582.4061889648438 56.20883560180664 582.075927734375L56.15896987915039 575.892578125C56.15896987915039 574.9404296875 56.19009780883789 574.0089721679688 56.25100326538086 573.0982666015625L56.3454475402832 567.589111328125C56.33073425292969 566.5620727539062 56.35555648803711 565.5109252929688 56.421875 564.4357299804688C56.43534469604492 564.1642456054688 56.45136642456055 563.8945922851562 56.469913482666016 563.6267700195312L56.9825439453125 554.89990234375L57.13899612426758 547.0355224609375C57.13735580444336 546.5478515625 57.144229888916016 546.0548095703125 57.159812927246094 545.5562744140625L57.34049606323242 539.4244384765625C57.34324645996094 538.92236328125 57.355079650878906 538.4146118164062 57.37621307373047 537.9011840820312L57.79548263549805 527.7575073242188C57.8267936706543 526.9970703125 57.8774299621582 526.2506713867188 57.946693420410156 525.518310546875L58.4052619934082 517.6906127929688L58.43115234375 517.2486572265625C58.45504379272461 516.8358764648438 58.48455810546875 516.4273071289062 58.51958084106445 516.02294921875L58.850425720214844 511.3788757324219C58.89632034301758 510.8143310546875 58.952579498291016 510.2579345703125 59.018924713134766 509.7097473144531L59.323795318603516 506.09063720703125C59.352027893066406 505.7762756347656 59.38346481323242 505.4645080566406 59.41805648803711 505.1553039550781L59.756591796875 501.0188293457031C59.784629821777344 500.6830139160156 59.81632995605469 500.35009765625 59.85163879394531 500.0201110839844L60.344566345214844 492.3154296875L60.37653732299805 484.4510192871094L60.24260711669922 475.4046936035156L59.83385467529297 469.1565856933594L59.137413024902344 462.64593505859375C59.09364700317383 462.2787170410156 59.05434799194336 461.9078369140625 59.019596099853516 461.5332946777344L59.01272201538086 461.4585266113281C58.9953498840332 461.28466796875 58.97956848144531 461.11138916015625 58.964908599853516 460.9386901855469L58.3671989440918 454.43994140625C58.30636215209961 453.8975524902344 58.25545883178711 453.3472900390625 58.21475601196289 452.7890625L57.538509368896484 443.75445556640625C57.483917236328125 443.0050354003906 57.44955825805664 442.2670593261719 57.43477249145508 441.5406188964844L57.070655822753906 435.6216125488281C56.98772430419922 434.7129211425781 56.93489074707031 433.78289794921875 56.91357421875 432.8316345214844C56.88300704956055 431.9604187011719 56.87978744506836 431.10552978515625 56.90283966064453 430.26702880859375V422.1011047363281L56.902557373046875 422.0469970703125L56.85065460205078 412.1602783203125C56.849857330322266 412.0927734375 56.849220275878906 412.025146484375 56.84873962402344 411.9574279785156L56.79597091674805 401.5359191894531L56.794639587402344 401.43505859375L56.69353103637695 394.28143310546875C56.69073486328125 394.168701171875 56.68836975097656 394.0556335449219 56.68644332885742 393.9422912597656L56.5318717956543 383.97259521484375C56.528995513916016 383.8787536621094 56.52642059326172 383.78466796875 56.52414321899414 383.6903991699219L56.28367233276367 373.9449768066406C56.27740478515625 373.79473876953125 56.27190017700195 373.64398193359375 56.26716995239258 373.4926452636719L56.06114959716797 365.6379699707031C56.0573844909668 365.54241943359375 56.053924560546875 365.4466552734375 56.05077362060547 365.3506774902344L55.68560028076172 354.5172424316406C55.674285888671875 354.18505859375 55.66685104370117 353.85528564453125 55.66323471069336 353.52789306640625L55.36100387573242 342.89935302734375C55.34141540527344 342.1884765625 55.33952331542969 341.48870849609375 55.35475158691406 340.800048828125L55.3153076171875 332.2508850097656C55.28019332885742 331.27716064453125 55.280738830566406 330.2810974121094 55.31866455078125 329.26287841796875C55.3384895324707 328.4273681640625 55.382728576660156 327.6082763671875 55.45040512084961 326.8056640625L55.85627365112305 319.6873474121094C55.865482330322266 319.4819641113281 55.8762092590332 319.27569580078125 55.88847351074219 319.0685119628906L56.41041946411133 310.68096923828125C56.41584396362305 310.5199279785156 56.42219161987305 310.35833740234375 56.42947006225586 310.1961669921875L56.897212982177734 300.3136291503906L56.800350189208984 290.143310546875Q56.79718780517578 290.02630615234375 56.794639587402344 289.9088439941406L56.552677154541016 279.9399719238281C56.54185104370117 279.742919921875 56.5323371887207 279.54486083984375 56.52414321899414 279.34588623046875L56.213069915771484 271.47442626953125C56.20277404785156 271.21624755859375 56.19482421875 270.95953369140625 56.18918991088867 270.7042236328125L55.747013092041016 263.345947265625L55.204017639160156 256.125244140625L54.46766662597656 248.99258422851562C54.40779113769531 248.5660400390625 54.353878021240234 248.1343994140625 54.306060791015625 247.69766235351562L53.52666473388672 240.12808227539062C53.46311950683594 239.6461639404297 53.40727233886719 239.15782165527344 53.359317779541016 238.6630401611328L53.251121520996094 237.77040100097656C53.21424102783203 237.3849334716797 53.18280029296875 237.00238037109375 53.156707763671875 236.6227569580078L52.599143981933594 230.80381774902344L52.03388214111328 226.99105834960938C51.800254821777344 225.4076385498047 51.662071228027344 223.86929321289062 51.61298370361328 222.37698364257812C51.514549255371094 221.5054168701172 51.44255828857422 220.6134796142578 51.39821243286133 219.70114135742188L51.30632019042969 217.32034301757812C51.25486373901367 216.67735290527344 51.217716217041016 216.0238037109375 51.19533920288086 215.35964965820312L51.092979431152344 211.4188690185547L50.90561294555664 208.6162109375L50.81955337524414 207.89242553710938C48.71577835083008 205.6375274658203 47.028656005859375 203.27806091308594 45.72135543823242 200.85794067382812C43.981536865234375 198.254638671875 42.6851692199707 195.6118621826172 41.7864990234375 192.9695281982422C39.908546447753906 187.6335906982422 39.410430908203125 181.8157958984375 40.776493072509766 176.0004119873047C41.66222381591797 171.74240112304688 43.466976165771484 167.84524536132812 45.93672561645508 164.434326171875C42.73723220825195 146.214599609375 53.48866271972656 125.28389739990234 78.1910171508789 125.28389739990234H205.7712860107422C206.0276641845703 125.28389739990234 206.28253173828125 125.2861557006836 206.53590393066406 125.2906494140625L214.94419860839844 125.05040740966797C215.127197265625 125.04144287109375 215.31103515625 125.03361511230469 215.4956817626953 125.02692413330078L233.51083374023438 124.3912582397461L243.9250030517578 124.01255798339844C244.0753173828125 124.00711059570312 244.2251434326172 124.0024642944336 244.37448120117188 123.99860382080078L253.24095153808594 123.6856689453125C253.4793701171875 123.67098236083984 253.71920776367188 123.65821838378906 253.96046447753906 123.64738464355469L265.1497497558594 123.18772888183594C265.2427978515625 123.18286895751953 265.3360900878906 123.17829132080078 265.4295654296875 123.17401123046875L287.7726745605469 122.11907196044922C288.0424499511719 122.10662841796875 288.3106384277344 122.09676361083984 288.5773010253906 122.08943939208984L310.91375732421875 120.68543243408203C311.09429931640625 120.674072265625 311.274169921875 120.66387939453125 311.453369140625 120.65484619140625L327.711669921875 119.6304931640625C327.9757995605469 119.61453247070312 328.2384948730469 119.60106658935547 328.4997253417969 119.5900650024414L349.7978210449219 117.99398040771484C350.189697265625 117.96458435058594 350.57843017578125 117.94072723388672 350.96405029296875 117.92231750488281L370.419189453125 116.53357696533203L387.2702941894531 114.9981918334961C387.4737243652344 114.97655487060547 387.67828369140625 114.95626831054688 387.8839111328125 114.9373550415039L398.5914611816406 113.95632934570312C399.187255859375 113.88352966308594 399.7927551269531 113.82270050048828 400.407958984375 113.77421569824219L413.3416748046875 112.74240112304688C414.0177917480469 112.66480255126953 414.70623779296875 112.60281372070312 415.40704345703125 112.55697631835938L425.8830261230469 111.90445709228516C426.5364990234375 111.84113311767578 427.2011413574219 111.79248809814453 427.87701416015625 111.7590103149414L437.7637023925781 111.28563690185547C438.2729187011719 111.26104736328125 438.7765808105469 111.24563598632812 439.2747802734375 111.23921203613281L442.63311767578125 111.10315704345703C443.2793273925781 111.06080627441406 443.9358215332031 111.03427124023438 444.6025390625 111.02409362792969C446.5057067871094 110.96034240722656 448.33038330078125 111.02399444580078 450.0761413574219 111.20416259765625L453.2330017089844 111.35604095458984C454.2525939941406 111.3647689819336 455.2951354980469 111.41279602050781 456.36041259765625 111.50203704833984L463.7044372558594 112.13770294189453C463.8549499511719 112.1502685546875 464.0048522949219 112.16357421875 464.1541748046875 112.17760467529297L470.9943542480469 112.71927642822266C471.3485412597656 112.74839782714844 471.699462890625 112.7815933227539 472.04718017578125 112.81880950927734L474.46539306640625 112.97652435302734C474.8869323730469 112.98796844482422 475.31231689453125 113.00586700439453 475.7415771484375 113.03034973144531L479.4956359863281 113.2784652709961C479.69061279296875 113.2845687866211 479.8864440917969 113.29202270507812 480.08306884765625 113.30084991455078L484.72210693359375 113.50372314453125C484.9039306640625 113.5121078491211 485.0849304199219 113.52159118652344 485.26513671875 113.53216552734375L489.7939453125 113.666015625C489.8978576660156 113.66939544677734 490.0014953613281 113.67313385009766 490.1048889160156 113.67723083496094L497.3543395996094 113.77421569824219C497.43658447265625 113.77558898925781 497.5186767578125 113.77719116210938 497.6005859375 113.77902221679688L501.79052734375 113.82831573486328C501.87493896484375 113.82933807373047 501.9591979980469 113.83059692382812 502.0433044433594 113.83209991455078L506.0779113769531 113.86888885498047H531.9645385742188L532.3787231445312 113.8594741821289C532.7999267578125 113.84286499023438 533.2254028320312 113.83243560791016 533.6551513671875 113.82831573486328H533.7498168945312C533.9656372070312 113.82671356201172 534.1803588867188 113.82672119140625 534.39404296875 113.82831573486328H534.6018676757812C578.3413696289062 113.39552307128906 578.9229736328125 179.01828002929688 535.1834716796875 179.4375457763672L534.2908325195312 179.4371337890625C534.2727661132812 179.43728637695312 534.2547607421875 179.4374237060547 534.2366943359375 179.4380340576172C533.9759521484375 179.44021606445312 533.7167358398438 179.44003295898438 533.4590454101562 179.4375457763672H532.4379272460938C532.420654296875 179.4373321533203 532.4033813476562 179.4374237060547 532.3861083984375 179.43753051757812L532.3837890625 179.4375457763672C532.1839599609375 179.43914794921875 531.9849853515625 179.4390106201172 531.7869873046875 179.4375L529.3136596679688 179.43731689453125L529.2595825195312 179.4375457763672L529.218505859375 179.4380340576172L525.3526000976562 179.48365783691406L524.6959838867188 179.49139404296875L524.6746215820312 179.4916534423828C524.6580810546875 179.49156188964844 524.6415405273438 179.49159240722656 524.625 179.49163818359375L524.6205444335938 179.4916534423828H520.968505859375L517.6416625976562 179.4916229248047L517.5875854492188 179.4916534423828H511.2444152832031C511.19488525390625 179.49195861816406 511.1452941894531 179.49183654785156 511.09564208984375 179.4916534423828H506.20867919921875C506.0395202636719 179.49285888671875 505.86968994140625 179.4930877685547 505.69921875 179.49229431152344L505.59100341796875 179.4916534423828L505.47705078125 179.49026489257812L505.1834411621094 179.48667907714844L501.3977355957031 179.4405059814453C501.2675476074219 179.4401092529297 501.13702392578125 179.43911743164062 501.0060729980469 179.4375457763672L496.9106750488281 179.3887939453125C496.7078552246094 179.38845825195312 496.50408935546875 179.38668823242188 496.2994079589844 179.38345336914062L489.3847961425781 179.25625610351562C488.8250732421875 179.2604217529297 488.2581481933594 179.2533416748047 487.6840515136719 179.23468017578125L482.1929626464844 179.07237243652344C481.3898010253906 179.04605102539062 480.6020812988281 178.99810791015625 479.8298034667969 178.92935180664062L478.4691162109375 178.8653106689453C477.90509033203125 178.85589599609375 477.3340148925781 178.83485412597656 476.7559509277344 178.8018798828125L473.6553649902344 178.63259887695312C473.0074462890625 178.61900329589844 472.350341796875 178.58993530273438 471.6841125488281 178.54490661621094L467.6239929199219 178.2310791015625C466.9580993652344 178.20811462402344 466.28271484375 178.1686248779297 465.597900390625 178.1121063232422L458.758056640625 177.5326690673828Q458.4866943359375 177.51312255859375 458.21331787109375 177.48995971679688L450.86932373046875 176.9084014892578L450.8221740722656 176.9043731689453L445.445068359375 176.6461181640625L440.5633544921875 176.8542938232422C440.11212158203125 176.87063598632812 439.6653137207031 176.8798065185547 439.222900390625 176.88197326660156L432.48675537109375 177.20494079589844Z" fill="black"/>
</svg>
