<svg xmlns="http://www.w3.org/2000/svg" viewBox="0 0 644 1000">
  <path d="M313.89178466796875 111.0322494506836H317.5138244628906C317.5446472167969 111.03235626220703 317.57550048828125 111.03231811523438 317.6063537597656 111.03227233886719L317.6228942871094 111.0322494506836H323.4740905761719C323.654296875 111.0311279296875 323.83526611328125 111.0311279296875 324.0169677734375 111.0322494506836L329.14520263671875 111.07876586914062C329.6121520996094 111.07369995117188 330.0840759277344 111.0763168334961 330.5610046386719 111.08678436279297L336.20526123046875 111.18221282958984C336.9790954589844 111.19825744628906 337.7388916015625 111.23442840576172 338.48468017578125 111.2900161743164L341.4268493652344 111.40035247802734C342.4385070800781 111.44921112060547 343.4252624511719 111.53180694580078 344.38714599609375 111.64653015136719L347.7663879394531 111.87751770019531C349.2262268066406 111.99079132080078 350.63189697265625 112.17311096191406 351.9837951660156 112.41964721679688L352.9908142089844 112.55770874023438C353.7479248046875 112.63990783691406 354.5152587890625 112.74561309814453 355.292724609375 112.87564086914062C356.6749267578125 113.08036804199219 358.0034484863281 113.34566497802734 359.2788391113281 113.66722106933594C360.56463623046875 113.8851089477539 361.8763732910156 114.17340087890625 363.21307373046875 114.53604125976562L366.0627746582031 115.321533203125C366.9117736816406 115.52791595458984 367.77069091796875 115.76560974121094 368.6391906738281 116.03571319580078L373.0007629394531 117.38632202148438L375.8182678222656 118.22760009765625C377.0643005371094 118.54350280761719 378.3299865722656 118.9295883178711 379.61407470703125 119.38954162597656L383.5459289550781 120.77157592773438C383.8205261230469 120.86480712890625 384.09588623046875 120.96158599853516 384.37200927734375 121.06193542480469L384.6175537109375 121.14824676513672C385.7686767578125 121.56057739257812 386.8706970214844 122.0093994140625 387.9245300292969 122.4920425415039L389.0811462402344 122.97323608398438L393.1384582519531 124.44754028320312C393.8443298339844 124.70732879638672 394.5315856933594 124.98074340820312 395.20025634765625 125.26715087890625C397.0799255371094 125.87529754638672 398.9857177734375 126.66453552246094 400.9095458984375 127.6493911743164C402.2923583984375 128.3060760498047 403.59075927734375 129.01870727539062 404.8070983886719 129.7814178466797L404.8876647949219 129.82601928710938C405.51580810546875 130.15530395507812 406.14520263671875 130.50631713867188 406.7755432128906 130.87957763671875C406.95263671875 130.98193359375 407.1282043457031 131.08506774902344 407.3022155761719 131.18898010253906C408.86895751953125 132.03213500976562 410.4320983886719 133.02203369140625 411.9842834472656 134.1679229736328C413.275390625 135.07113647460938 414.4690246582031 136.01702880859375 415.5686340332031 136.99984741210938C415.6903076171875 137.0911407470703 415.81195068359375 137.18338012695312 415.93353271484375 137.27659606933594L418.91925048828125 139.56700134277344C419.48809814453125 140.0041961669922 420.03704833984375 140.4481964111328 420.5663757324219 140.89852905273438C421.38665771484375 141.51963806152344 422.199951171875 142.18795776367188 423.00469970703125 142.9049530029297C424.18109130859375 143.91000366210938 425.2618408203125 144.94369506835938 426.2507019042969 146.0013427734375C426.9823303222656 146.7139892578125 427.7024841308594 147.47129821777344 428.4095764160156 148.27450561523438C429.0333557128906 148.95204162597656 429.6216735839844 149.63638305664062 430.1754455566406 150.3265838623047L430.1980895996094 150.3529052734375C430.63385009765625 150.83372497558594 431.0632629394531 151.33253479003906 431.48583984375 151.84963989257812L431.6392517089844 152.0279541015625C432.6056823730469 153.177734375 433.4805603027344 154.33770751953125 434.26788330078125 155.50448608398438C435.2738342285156 156.82760620117188 436.2210998535156 158.26663208007812 437.1005554199219 159.8258819580078C438.1920166015625 161.6240692138672 439.09429931640625 163.42152404785156 439.8205261230469 165.20913696289062C440.2508544921875 166.11050415039062 440.656982421875 167.04795837402344 441.0372619628906 168.0220947265625C441.3535461425781 168.75721740722656 441.6518249511719 169.5150909423828 441.9310302734375 170.29595947265625C453.09722900390625 185.86912536621094 449.3639221191406 211.1744384765625 430.7310791015625 220.23988342285156C429.6700439453125 220.94105529785156 428.5761413574219 221.56517028808594 427.455810546875 222.11456298828125C422.0426330566406 224.87632751464844 415.6009826660156 226.06973266601562 408.3775634765625 224.9344024658203C400.5086975097656 224.2317352294922 392.92950439453125 220.87974548339844 387.4269714355469 214.5067596435547C383.7720947265625 210.68348693847656 381.3855285644531 206.16993713378906 380.1293640136719 201.39170837402344C379.4454650878906 198.91966247558594 379.0664367675781 196.29397583007812 379.0445251464844 193.53334045410156C379.02337646484375 193.1393585205078 379.0100402832031 192.7434539794922 379.0047607421875 192.34579467773438L378.9105529785156 192.2707977294922C378.8041687011719 192.19073486328125 378.6978759765625 192.10995483398438 378.5915832519531 192.02842712402344L376.78924560546875 190.6063995361328C376.28912353515625 190.24676513671875 375.7900390625 189.87106323242188 375.29229736328125 189.47897338867188L373.611572265625 188.128662109375L373.4066467285156 188.006591796875L371.88739013671875 187.1683807373047L369.60064697265625 186.2779083251953L369.59344482421875 186.27529907226562L367.0284423828125 185.34324645996094C366.3368835449219 185.10958862304688 365.6404113769531 184.853515625 364.939208984375 184.57435607910156C364.36212158203125 184.35098266601562 363.7977600097656 184.11822509765625 363.2461853027344 183.8765106201172L360.8739318847656 182.89181518554688L358.1824645996094 181.9353485107422L354.3104553222656 180.84902954101562C353.664306640625 180.65940856933594 353.0323486328125 180.45785522460938 352.41448974609375 180.2448272705078L349.2268981933594 179.25494384765625L346.7263488769531 178.56790161132812L344.3427734375 178.0957489013672L341.1390075683594 177.68988037109375L339.02532958984375 177.5240020751953C338.7773742675781 177.51658630371094 338.5281066894531 177.5070037841797 338.27752685546875 177.4951934814453L333.91485595703125 177.27706909179688C333.74554443359375 177.26889038085938 333.5769348144531 177.259765625 333.40899658203125 177.2497100830078L329.17041015625 177.16799926757812C329.0711669921875 177.1659698486328 328.97210693359375 177.1636199951172 328.8733215332031 177.1609344482422L323.7159729003906 177.1146697998047L318.3144836425781 177.16236877441406Q318.0515441894531 177.16676330566406 317.7864990234375 177.16799926757812H312.8102722167969L310.5176696777344 177.3460693359375L306.1058654785156 177.8516845703125C305.7939147949219 177.8950653076172 305.4792785644531 177.935302734375 305.1619567871094 177.9723663330078L300.52325439453125 178.4939422607422L299.77783203125 178.6400604248047L296.4774475097656 179.67654418945312C296.13970947265625 179.78216552734375 295.8033752441406 179.8828582763672 295.4685363769531 179.9787139892578L291.28082275390625 181.2406005859375L287.7497863769531 182.41761779785156C287.67803955078125 182.4447784423828 287.6060791015625 182.4718017578125 287.533935546875 182.49867248535156L284.603759765625 183.5842742919922L278.9549255371094 185.92710876464844L273.6278381347656 188.347412109375C273.53759765625 188.3882598876953 273.44744873046875 188.42869567871094 273.3573303222656 188.46875L268.0926513671875 190.96502685546875C267.95751953125 191.0291748046875 267.822509765625 191.09242248535156 267.6876525878906 191.15475463867188L265.8172607421875 192.0515899658203C265.2937316894531 192.33766174316406 264.757080078125 192.61634826660156 264.2071228027344 192.88734436035156L261.78839111328125 194.04306030273438C261.2066345214844 194.35800170898438 260.60870361328125 194.66366577148438 259.9944152832031 194.95962524414062L257.73577880859375 196.03199768066406C257.27587890625 196.26657104492188 256.80633544921875 196.49542236328125 256.3270263671875 196.71832275390625L253.2855682373047 198.10183715820312C253.02090454101562 198.22877502441406 252.75318908691406 198.35386657714844 252.48239135742188 198.47703552246094L246.58766174316406 201.15542602539062L242.75828552246094 203.10939025878906C242.4064178466797 203.3045196533203 242.04856872558594 203.49642944335938 241.68470764160156 203.6850128173828L233.79095458984375 207.734130859375L226.223876953125 211.67698669433594L220.64834594726562 214.9871368408203L220.64495849609375 214.98915100097656L214.42007446289062 218.7338104248047L213.61474609375 219.26846313476562C212.65103149414062 221.115234375 211.47412109375 222.9410400390625 210.0679931640625 224.72982788085938C209.49542236328125 225.71949768066406 208.8646240234375 226.70840454101562 208.17333984375 227.6948699951172C208.11671447753906 227.77952575683594 208.059814453125 227.8638458251953 208.0027618408203 227.94775390625C207.94143676757812 228.96487426757812 207.8399658203125 230.002685546875 207.6965789794922 231.06092834472656L207.64456176757812 231.44137573242188C207.6309814453125 231.5435028076172 207.6170654296875 231.64535522460938 207.60279846191406 231.7469024658203L206.99270629882812 236.2096710205078L206.3741455078125 241.3950653076172C206.3483428955078 241.60455322265625 206.32115173339844 241.81283569335938 206.2926025390625 242.0199432373047L205.89697265625 246.45306396484375C205.87548828125 246.6769256591797 205.85238647460938 246.89947509765625 205.8277130126953 247.1207275390625L205.5204315185547 252.40615844726562C205.51881408691406 252.4622039794922 205.51707458496094 252.51829528808594 205.51522827148438 252.57447814941406L205.20166015625 262.7041015625Q205.19473266601562 262.92376708984375 205.18563842773438 263.14190673828125L205.0767364501953 268.71484375C205.0965576171875 269.65399169921875 205.0841522216797 270.6134338378906 205.03807067871094 271.5931091308594L204.43798828125 283.3592834472656C204.42562866210938 284.3511657714844 204.37628173828125 285.36444091796875 204.28822326660156 286.3990173339844L203.02032470703125 301.4093933105469Q202.98548889160156 301.81903076171875 202.94351196289062 302.2229309082031L201.73876953125 317.333251953125C201.69131469726562 317.9170837402344 201.63284301757812 318.49224853515625 201.56369018554688 319.0587158203125L200.56629943847656 330.1759338378906C200.5287628173828 330.5773010253906 200.486083984375 330.9744873046875 200.43832397460938 331.36749267578125L199.1010284423828 347.8077392578125L197.9486846923828 366.7544250488281C197.93138122558594 367.0295715332031 197.91159057617188 367.3028259277344 197.88937377929688 367.57421875L197.15794372558594 384.9141540527344C197.14675903320312 385.16351318359375 197.13351440429688 385.4113464355469 197.1182403564453 385.6576843261719L196.73388671875 396.9468078613281L196.7353057861328 397.0615234375L196.93980407714844 416.5027770996094C196.9445343017578 416.9396057128906 196.94271850585938 417.3721618652344 196.9344940185547 417.8004455566406L197.38015747070312 433.8667297363281L198.8538360595703 451.223388671875L200.4263458251953 464.07647705078125L202.796142578125 479.5327453613281C202.8757781982422 479.92706298828125 202.95054626464844 480.32611083984375 203.02032470703125 480.7298583984375L205.95367431640625 497.70697021484375C205.98556518554688 497.8686218261719 206.0166473388672 498.03106689453125 206.04693603515625 498.19427490234375L209.25079345703125 515.6041870117188C209.35369873046875 516.16259765625 209.4445037841797 516.7158813476562 209.52345275878906 517.2638549804688L211.3776092529297 527.43798828125C211.50106811523438 528.12744140625 211.60614013671875 528.8088989257812 211.69332885742188 529.4822387695312L213.13632202148438 538.1401977539062C213.28240966796875 539.031494140625 213.39810180664062 539.9089965820312 213.48455810546875 540.7725830078125L214.3633270263672 547.1383056640625C214.5113525390625 548.2332763671875 214.6144561767578 549.306396484375 214.67469787597656 550.3572998046875L215.16671752929688 555.1446533203125C215.24819946289062 555.7645874023438 215.31683349609375 556.3950805664062 215.37220764160156 557.0361328125L216.5417022705078 570.9954223632812C216.63473510742188 571.846435546875 216.7026824951172 572.7166748046875 216.7444305419922 573.6060791015625C216.76309204101562 573.9375610351562 216.77774047851562 574.2669677734375 216.7884063720703 574.5941162109375L217.19796752929688 583.82470703125C217.27906799316406 584.813720703125 217.32546997070312 585.8275146484375 217.33541870117188 586.8660888671875L217.44219970703125 602.9758911132812L217.44520568847656 603.3216552734375C217.4454345703125 603.3710327148438 217.4456024169922 603.4205322265625 217.44566345214844 603.4698486328125C217.44773864746094 603.8047485351562 217.4459686279297 604.1371459960938 217.44039916992188 604.4669799804688L217.33897399902344 619.6679077148438C217.33993530273438 619.91650390625 217.33876037597656 620.1665649414062 217.33541870117188 620.41796875L217.1354522705078 635.9887084960938L217.13174438476562 636.341796875L217.13092041015625 636.3963012695312L216.97096252441406 646.8604125976562L216.9681396484375 647.0985717773438L216.96731567382812 647.153076171875L216.8037109375 656.2056884765625V660.841064453125L216.9228973388672 665.0322875976562L217.7489013671875 671.8014526367188L218.52076721191406 675.8837890625L219.70852661132812 680.8466796875C222.51473999023438 683.9093627929688 224.599365234375 687.4808959960938 225.98309326171875 691.3104858398438C226.108642578125 691.620849609375 226.228515625 691.9324951171875 226.3427734375 692.2451782226562C229.35853576660156 699.8316650390625 229.70269775390625 708.417236328125 226.11270141601562 716.428466796875L229.06016540527344 717.7742309570312C229.36717224121094 717.913818359375 229.6702117919922 718.0558471679688 229.96934509277344 718.2002563476562L231.8571014404297 719.051025390625C232.5886688232422 719.3574829101562 233.32431030273438 719.6905517578125 234.06362915039062 720.051025390625L237.5810546875 721.7551879882812C237.91632080078125 721.9194946289062 238.24664306640625 722.0866088867188 238.57208251953125 722.2565307617188L238.68927001953125 722.3069458007812L242.8026580810547 723.513916015625C243.724609375 723.790771484375 244.6173858642578 724.0917358398438 245.4813995361328 724.4155883789062L246.8733367919922 724.8703002929688L250.3521728515625 725.836181640625L255.30770874023438 726.8567504882812L259.7353820800781 727.4539794921875C260.185302734375 727.5182495117188 260.6296081542969 727.5888671875 261.0682678222656 727.6655883789062L263.64544677734375 728.0051879882812C264.1461181640625 728.0616455078125 264.6514892578125 728.1278076171875 265.1614685058594 728.2037963867188L270.4921569824219 729.0081787109375C270.8523864746094 729.061767578125 271.2090148925781 729.119384765625 271.5619812011719 729.1809692382812L274.6883239746094 729.6189575195312C274.780029296875 729.628662109375 274.87188720703125 729.6386108398438 274.9638977050781 729.64892578125L279.08770751953125 730.1255493164062C279.8318176269531 730.1931762695312 280.58642578125 730.2826538085938 281.3514099121094 730.39453125C282.0669860839844 730.4908447265625 282.7685546875 730.6036987304688 283.4560546875 730.732421875L286.25238037109375 731.1895141601562C286.7912902832031 731.2766723632812 287.3219299316406 731.3727416992188 287.84429931640625 731.4774780273438L290.6170349121094 731.9707641601562C290.7614440917969 731.9913330078125 290.9062194824219 732.0126342773438 291.0513610839844 732.0347900390625L295.96563720703125 732.7938232421875L298.6513977050781 733.0869140625C298.9385070800781 733.1058349609375 299.2272644042969 733.1278076171875 299.5177001953125 733.1527709960938L302.33282470703125 733.4332885742188L307.3432922363281 733.6844482421875C307.5033264160156 733.692626953125 307.6627197265625 733.70166015625 307.8215026855469 733.7115478515625L311.8695983886719 733.7935180664062C311.9590148925781 733.7957763671875 312.0482177734375 733.79833984375 312.13726806640625 733.8011474609375L316.3958740234375 733.8480224609375H332.3472900390625L332.8473815917969 733.7958374023438L335.5644836425781 733.3163452148438C336.1186828613281 733.2212524414062 336.6676330566406 733.1380004882812 337.2113037109375 733.0662231445312L340.1998596191406 732.5665283203125C341.1161193847656 732.4231567382812 342.01763916015625 732.3117065429688 342.90423583984375 732.2308959960938L345.09423828125 731.9393920898438L345.21112060546875 731.9244384765625L348.2435607910156 731.4485473632812C348.37017822265625 731.4299926757812 348.49652099609375 731.412109375 348.62255859375 731.394775390625L350.13067626953125 731.1383666992188L352.71612548828125 730.4954223632812Q353.37384033203125 730.302001953125 354.0514221191406 730.1260986328125L359.1639404296875 728.7900390625C359.2579345703125 728.7657470703125 359.3517761230469 728.7418823242188 359.4455261230469 728.7183227539062L360.08233642578125 728.5256958007812C360.9354553222656 728.236328125 361.8153076171875 727.9695434570312 362.7222595214844 727.7266235351562L366.5137634277344 726.7379760742188C367.5054626464844 726.4310913085938 368.53192138671875 726.1555786132812 369.593505859375 725.9133911132812L373.8558654785156 724.9813842773438L377.8039245605469 723.9188232421875L378.87213134765625 723.5413208007812C379.44317626953125 723.3270874023438 380.0267639160156 723.1223754882812 380.6229553222656 722.9276733398438L384.9216613769531 721.5267333984375L388.2849426269531 720.1600952148438Q388.42852783203125 720.1029052734375 388.5718688964844 720.0469360351562L391.5433349609375 718.837646484375C392.069580078125 718.62353515625 392.59320068359375 718.4223022460938 393.1140441894531 718.2337646484375C394.72344970703125 717.372314453125 396.4597473144531 716.6027221679688 398.32672119140625 715.937744140625C399.7423400878906 715.3782348632812 401.1416015625 714.91748046875 402.5218505859375 714.5499877929688L402.6136779785156 714.515869140625C402.842041015625 714.4307861328125 403.06988525390625 714.34814453125 403.297119140625 714.2677612304688C403.88983154296875 714.0476684570312 404.4962158203125 713.8396606445312 405.1163330078125 713.64404296875C405.46337890625 713.314208984375 405.81976318359375 712.9866943359375 406.1856384277344 712.6616821289062L408.8760681152344 710.3063354492188L411.51629638671875 707.590087890625C412.3479309082031 706.7396850585938 413.1915588378906 705.9458618164062 414.0453186035156 705.2068481445312L414.0626525878906 705.1905517578125C414.6065673828125 704.6392211914062 415.17547607421875 704.0936279296875 415.7699279785156 703.5545654296875L418.72784423828125 700.8924560546875C418.97772216796875 700.6561279296875 419.23236083984375 700.4210205078125 419.4918518066406 700.1871337890625L422.0453186035156 697.8984375L423.89251708984375 695.9026489257812L424.8094482421875 694.8003540039062L425.224853515625 694.1802978515625C425.3034362792969 694.0557861328125 425.3829040527344 693.9312744140625 425.4632873535156 693.8067016601562L426.51336669921875 692.1893920898438L426.8490295410156 691.514892578125L426.9267272949219 691.340576171875C427.15264892578125 690.8021850585938 427.3933410644531 690.2617797851562 427.64910888671875 689.7196044921875L427.75372314453125 689.48486328125C428.2371826171875 688.448974609375 428.7484130859375 687.4588012695312 429.28533935546875 686.5133056640625L430.02642822265625 685.0960083007812L431.32568359375 682.300048828125C431.4613342285156 682.008056640625 431.59918212890625 681.7196655273438 431.73919677734375 681.4348754882812L432.7852478027344 679.0753784179688L433.0166015625 678.4983520507812L433.3194885253906 677.3684692382812C433.4849548339844 676.691650390625 433.67034912109375 676.0084838867188 433.87628173828125 675.3192749023438C433.99676513671875 674.901611328125 434.12237548828125 674.4896850585938 434.25299072265625 674.0836791992188L435.215087890625 670.9212036132812L435.70574951171875 669.0675048828125C435.8977966308594 668.1817016601562 436.12335205078125 667.2845458984375 436.3836669921875 666.376220703125L437.4221496582031 662.7464599609375L437.436279296875 662.6692504882812L437.5579528808594 660.9004516601562L437.6106872558594 655.0877685546875C437.6253967285156 653.7296142578125 437.7024841308594 652.4139404296875 437.8380432128906 651.1406860351562L437.9072265625 649.9644775390625C437.9327697753906 649.3001708984375 437.9746398925781 648.6266479492188 438.0333251953125 647.94384765625L438.5650329589844 641.5634155273438C438.594482421875 641.2261352539062 438.6275939941406 640.8917236328125 438.664306640625 640.560302734375L438.9459533691406 637.2888793945312L438.8349914550781 633.0258178710938L438.65423583984375 629.9057006835938L438.5052795410156 627.9534301757812C438.2998352050781 626.4068603515625 438.1864929199219 624.7962646484375 438.1731262207031 623.1219482421875C438.1282653808594 621.8114013671875 438.14691162109375 620.5371704101562 438.2252197265625 619.2996826171875L438.12738037109375 618.7020874023438L438.0919189453125 618.5276489257812C437.8557434082031 617.5614013671875 437.65399169921875 616.565185546875 437.48858642578125 615.5388793945312C437.1571350097656 613.76904296875 436.9489440917969 612.0508422851562 436.8550109863281 610.385986328125L436.81201171875 610.2281494140625L436.2901306152344 608.6680908203125L435.32025146484375 606.1983032226562C435.0888671875 605.607666015625 434.8735046386719 605.0205078125 434.67388916015625 604.4370727539062L434.5859375 604.208984375C434.13446044921875 603.1644897460938 433.7192687988281 602.073974609375 433.34307861328125 600.9366455078125C432.8252258300781 599.4652099609375 432.40576171875 598.0172119140625 432.0790710449219 596.594970703125L431.8167724609375 595.6593627929688C431.7182312011719 595.34033203125 431.6226806640625 595.017822265625 431.5301818847656 594.691650390625L430.889404296875 592.455810546875C430.8660888671875 592.3731079101562 430.8430480957031 592.29052734375 430.8203125 592.2080688476562L430.79998779296875 592.1455078125L430.0943298339844 590.1270141601562L430.04412841796875 590.0017700195312L429.5699157714844 588.7731323242188C429.5323791503906 588.6876220703125 429.4950256347656 588.601806640625 429.4578857421875 588.5157470703125L428.8171081542969 587.0296630859375C428.7860412597656 586.9573974609375 428.7552185058594 586.88525390625 428.72467041015625 586.8131103515625C423.7209167480469 576.2135620117188 424.34234619140625 566.401611328125 428.29754638671875 558.4891967773438L424.4208068847656 558.5310668945312C424.1875305175781 558.5355834960938 423.9530029296875 558.5381469726562 423.7171936035156 558.538818359375C423.2376403808594 558.54296875 422.7630920410156 558.5391235351562 422.293701171875 558.527587890625L418.9700622558594 558.4921264648438C418.4947509765625 558.4965209960938 418.0142822265625 558.4929809570312 417.5286560058594 558.4812622070312L408.4264221191406 558.2135620117188L402.9148254394531 558.2477416992188C401.6766052246094 558.3086547851562 400.4021911621094 558.310302734375 399.0919189453125 558.2490844726562C397.85394287109375 558.216796875 396.65191650390625 558.1312255859375 395.48583984375 557.995361328125L389.9482116699219 557.5814819335938C389.3083801269531 557.5286865234375 388.67901611328125 557.462646484375 388.06005859375 557.3838500976562L385.4364318847656 557.1346435546875C385.23699951171875 557.1214599609375 385.0367431640625 557.1068115234375 384.835693359375 557.0906982421875L379.53643798828125 556.6680297851562H362.99493408203125C318.9044494628906 556.6680297851562 318.9044494628906 490.53228759765625 362.99493408203125 490.53228759765625H378.4033203125C379.8065490722656 490.4688415527344 381.25592041015625 490.4811096191406 382.7509460449219 490.574462890625C383.66595458984375 490.61529541015625 384.5608215332031 490.68548583984375 385.435546875 490.7837219238281L390.0981750488281 491.159423828125C390.7042541503906 491.20794677734375 391.3009338378906 491.268310546875 391.8883056640625 491.3402404785156L394.88885498046875 491.6173400878906C395.0320739746094 491.6275634765625 395.17572021484375 491.6385192871094 395.3197937011719 491.6502380371094L401.66455078125 492.1723327636719L407.52056884765625 492.1359558105469C408.3018798828125 492.1109924316406 409.0975341796875 492.1078796386719 409.9075622558594 492.1274108886719L419.17828369140625 492.3319091796875C419.2541809082031 492.3338317871094 419.3299865722656 492.3359375 419.4056091308594 492.3382568359375L423.46356201171875 492.38153076171875L427.35845947265625 492.33953857421875C427.435546875 492.3367919921875 427.51275634765625 492.3342590332031 427.5901184082031 492.3319091796875L433.1892395019531 492.1938171386719C433.2948913574219 492.1894836425781 433.40081787109375 492.1855163574219 433.50701904296875 492.18194580078125L445.7498474121094 491.74566650390625C446.09051513671875 491.7341613769531 446.42864990234375 491.7267150878906 446.7643127441406 491.7232360839844L460.9783630371094 491.3230285644531C461.2569885253906 491.3152770996094 461.533935546875 491.3102111816406 461.8092041015625 491.30780029296875L472.4849853515625 491.0639953613281Q472.9736328125 491.05267333984375 473.4553527832031 491.0522766113281L488.99505615234375 490.79132080078125C489.1966857910156 490.78839111328125 489.3974609375 490.786865234375 489.5972900390625 490.7867126464844L504.7007751464844 490.6277160644531C504.7371520996094 490.62738037109375 504.7735290527344 490.6270446777344 504.8098449707031 490.6268005371094C504.96783447265625 490.62567138671875 505.1252746582031 490.62542724609375 505.28216552734375 490.6260070800781L519.8338623046875 490.57318115234375C519.85205078125 490.57305908203125 519.8702392578125 490.572998046875 519.888427734375 490.57318115234375L520.0526733398438 490.57244873046875L528.9409790039062 490.53228759765625L528.9773559570312 490.5323181152344L528.9955444335938 490.53228759765625L529.0568237304688 490.5318603515625L536.6778564453125 490.4794921875L536.93017578125 490.4777526855469L536.9483642578125 490.47772216796875L536.9847412109375 490.4777526855469H564.9337158203125L565.0968627929688 490.4776611328125L565.1513671875 490.4777526855469L565.1640625 490.4779357910156L566.1932983398438 490.493896484375L568.6492309570312 490.531982421875L568.6688232421875 490.53228759765625C568.68701171875 490.5321044921875 568.705078125 490.5321960449219 568.7233276367188 490.53228759765625H571.5454711914062C615.5814208984375 490.7367858886719 615.267822265625 556.8316650390625 571.21826171875 556.613525390625H537.1347045898438L537.0801391601562 556.6138916015625L529.4813842773438 556.6657104492188L529.2000122070312 556.6676635742188L529.1455078125 556.6680297851562H520.2019653320312L520.1474609375 556.66845703125L505.5080871582031 556.7752075195312L505.341552734375 556.7764282226562L490.21258544921875 556.9369506835938C490.1431579589844 556.9383544921875 490.0736083984375 556.9396362304688 490.0039367675781 556.9407348632812L487.71234130859375 556.9771728515625C488.0852966308594 557.6691284179688 488.4449462890625 558.384033203125 488.7905578613281 559.1220703125L488.9371643066406 559.458740234375C489.15789794921875 559.92333984375 489.3726806640625 560.3972778320312 489.581298828125 560.8807983398438L490.2220764160156 562.312255859375C490.5599365234375 563.0988159179688 490.86834716796875 563.8799438476562 491.14825439453125 564.6552734375L491.50360107421875 565.51611328125C491.8979187011719 566.5070190429688 492.24676513671875 567.4883422851562 492.5517578125 568.4593505859375C492.8730773925781 569.2794799804688 493.1739501953125 570.1260986328125 493.45318603515625 570.9996948242188C493.4844055175781 571.09375 493.51519775390625 571.1876831054688 493.54559326171875 571.2815551757812L493.5758972167969 571.3648681640625Q493.673095703125 571.6744384765625 493.7647705078125 571.9822998046875C494.0390625 572.766845703125 494.2945556640625 573.5744018554688 494.5302429199219 574.4051513671875L494.53271484375 574.4140014648438L494.74920654296875 575.1878662109375L495.1709899902344 576.695556640625C495.29400634765625 577.1312255859375 495.4090576171875 577.5643310546875 495.51629638671875 577.9948120117188L495.9927673339844 579.6371459960938L497.0387878417969 582.4488525390625C497.1118469238281 582.6420288085938 497.1831970214844 582.834716796875 497.25286865234375 583.0270385742188C497.75408935546875 584.1608276367188 498.21551513671875 585.3492431640625 498.6338806152344 586.5933837890625L499.9154357910156 590.3834838867188C500.1590576171875 591.10791015625 500.3796081542969 591.826171875 500.5777893066406 592.5379028320312C501.31591796875 594.60205078125 501.883056640625 596.8257446289062 502.2540283203125 599.2106323242188C502.6961975097656 601.4462280273438 502.92669677734375 603.6058349609375 502.9656982421875 605.68408203125C503.09820556640625 606.3202514648438 503.2177429199219 606.96875 503.32379150390625 607.6297607421875L503.392333984375 608.0484619140625C503.9128723144531 610.1215209960938 504.25494384765625 612.328857421875 504.3948059082031 614.66943359375C504.6652526855469 617.3564453125 504.6535339355469 619.9082641601562 504.3931884765625 622.3193969726562L504.6053466796875 624.72607421875C504.6531066894531 625.31591796875 504.6883544921875 625.8988647460938 504.71142578125 626.474853515625L504.8314514160156 628.5469970703125C504.90594482421875 629.4215698242188 504.95367431640625 630.3156127929688 504.97344970703125 631.229248046875L505.0389709472656 635.0064697265625C505.12200927734375 636.29541015625 505.1402587890625 637.6243286132812 505.08935546875 638.9927368164062C505.0693664550781 640.5769653320312 504.96087646484375 642.103515625 504.7705078125 643.572265625L504.49627685546875 647.153076171875C504.44024658203125 647.8316650390625 504.369384765625 648.49853515625 504.28411865234375 649.1536254882812L503.93731689453125 653.3152465820312L503.73809814453125 656.701904296875L503.71044921875 659.7484741210938C503.7429504394531 660.9370727539062 503.72259521484375 662.1582641601562 503.646240234375 663.4118041992188C503.6221923828125 663.9208984375 503.5892028808594 664.4237060546875 503.5473937988281 664.9202270507812L503.44580078125 666.463134765625C503.42291259765625 667.6859130859375 503.3377685546875 668.9390869140625 503.1866760253906 670.221923828125C503.02490234375 672.03515625 502.75372314453125 673.7634887695312 502.3829650878906 675.4075927734375C502.1934814453125 676.485595703125 501.9538269042969 677.5814819335938 501.6616516113281 678.6944580078125C501.4032287597656 679.7741088867188 501.1077575683594 680.8165893554688 500.777587890625 681.8222045898438L500.1193542480469 684.1228637695312L499.3477783203125 687.164306640625C499.251220703125 687.5709228515625 499.1474609375 687.9798583984375 499.036376953125 688.3909301757812C498.71539306640625 689.6383666992188 498.3489990234375 690.8353271484375 497.9403381347656 691.9825439453125L497.5260009765625 693.2926025390625L497.5159606933594 693.3295288085938L497.040283203125 695.0095825195312C496.663818359375 696.7557373046875 496.1446838378906 698.539794921875 495.4719543457031 700.3572387695312C495.0337219238281 701.6485595703125 494.5439147949219 702.8786010742188 494.0068359375 704.0484008789062C493.7749938964844 704.626220703125 493.5269470214844 705.2069702148438 493.2623291015625 705.7904663085938L491.4490661621094 709.8804931640625C491.14892578125 710.5422973632812 490.8373718261719 711.1858520507812 490.51495361328125 711.811279296875L490.3735046386719 712.11572265625C489.9482116699219 713.122802734375 489.47125244140625 714.1367797851562 488.9405212402344 715.1566162109375L487.3690490722656 718.1840209960938L487.195556640625 718.5552368164062C486.8509216308594 719.35400390625 486.4740295410156 720.1572875976562 486.0638732910156 720.9644775390625L485.9175109863281 721.247802734375C485.1552429199219 722.975830078125 484.22979736328125 724.7144165039062 483.1297302246094 726.4561767578125C482.5458068847656 727.4263916015625 481.9356689453125 728.3475952148438 481.3016357421875 729.220947265625C481.08709716796875 729.5590209960938 480.8658142089844 729.8971557617188 480.63775634765625 730.2351684570312L480.35699462890625 730.6511840820312C479.45587158203125 732.1596069335938 478.4146728515625 733.6613159179688 477.2250061035156 735.1497192382812C476.8148193359375 735.683349609375 476.3975830078125 736.1987915039062 475.9737243652344 736.6964111328125L475.2351989746094 737.6084594726562C475.04364013671875 737.8507080078125 474.8479309082031 738.0924682617188 474.6480712890625 738.3335571289062L474.5708923339844 738.4288940429688C473.548583984375 739.6921997070312 472.4942321777344 740.8526000976562 471.4129638671875 741.9141845703125L470.9972229003906 742.3617553710938C470.35699462890625 743.1026000976562 469.674560546875 743.8345336914062 468.9486999511719 744.5560302734375C467.8356628417969 745.7098999023438 466.69854736328125 746.759765625 465.542236328125 747.7100830078125L463.80047607421875 749.2947387695312Q463.6834716796875 749.400146484375 463.5662841796875 749.5042114257812L460.1876220703125 752.593994140625C459.8888244628906 752.864013671875 459.5890808105469 753.1275024414062 459.2884216308594 753.3844604492188L458.16064453125 754.4677734375L457.1272277832031 755.5180053710938C456.12298583984375 756.6402587890625 455.0197448730469 757.7402954101562 453.813232421875 758.8131713867188C453.41851806640625 759.176513671875 453.02142333984375 759.52783203125 452.6221618652344 759.8671875L450.4302978515625 761.8064575195312L450.3522033691406 761.8826293945312C449.66168212890625 762.6029663085938 448.9283142089844 763.3125 448.15093994140625 764.009765625C448.0290222167969 764.122314453125 447.9069519042969 764.2337646484375 447.78466796875 764.3440551757812C446.0409240722656 766.1367797851562 444.0122375488281 767.814697265625 441.67999267578125 769.3438720703125C439.68023681640625 770.779296875 437.65667724609375 771.9512939453125 435.62664794921875 772.8802490234375C433.18768310546875 774.248291015625 430.4478454589844 775.3783569335938 427.39556884765625 776.2179565429688C426.335205078125 776.55615234375 425.28619384765625 776.8404541015625 424.24951171875 777.0733642578125C423.4350280761719 777.377197265625 422.59503173828125 777.6607055664062 421.7291564941406 777.9229125976562L421.2505798339844 778.1566772460938C419.65228271484375 778.9240112304688 418.0719909667969 779.56396484375 416.51348876953125 780.084228515625L416.1159973144531 780.2432250976562L413.0020751953125 781.509765625C412.9115905761719 781.5465698242188 412.82080078125 781.5831909179688 412.72967529296875 781.6195678710938L412.5020446777344 781.7105102539062L410.0472717285156 782.6909790039062C408.77532958984375 783.2589721679688 407.4341125488281 783.7760009765625 406.02203369140625 784.2371826171875L406.0059509277344 784.242431640625L405.04119873046875 784.5568237304688L401.12762451171875 785.832275390625C400.7959899902344 785.940185546875 400.4656982421875 786.043212890625 400.13677978515625 786.1416015625L400.0576477050781 786.1680908203125C398.67718505859375 786.70654296875 397.22113037109375 787.1828002929688 395.6878967285156 787.5910034179688L390.52081298828125 788.968017578125C389.6083068847656 789.2109375 388.7075500488281 789.4193725585938 387.8188781738281 789.5945434570312L384.3408203125 790.3922119140625L380.1874084472656 791.52587890625L376.88739013671875 792.4854125976562C376.0528869628906 792.7349243164062 375.22747802734375 792.9547729492188 374.4114685058594 793.1459350585938L372.0013732910156 793.7808837890625C371.5115051269531 793.9244384765625 371.01336669921875 794.0607299804688 370.5069580078125 794.1895751953125L365.28533935546875 795.525634765625C363.52789306640625 795.9727172851562 361.815185546875 796.2927856445312 360.1495361328125 796.494873046875C359.3930969238281 796.6497192382812 358.6192626953125 796.785888671875 357.827880859375 796.9026489257812L354.1604919433594 797.434326171875C353.476318359375 797.5346069335938 352.800537109375 797.6171875 352.1331787109375 797.6826782226562L350.72796630859375 797.8716430664062C350.64532470703125 797.8851318359375 350.5625 797.8984375 350.4794616699219 797.9114990234375L347.2723083496094 798.40576171875C347.1015625 798.4373168945312 346.92999267578125 798.4679565429688 346.7575378417969 798.4977416992188L344.8458557128906 798.8075561523438C343.5402526855469 799.0794067382812 342.1825256347656 799.2918701171875 340.772216796875 799.4405517578125C340.3943176269531 799.4873657226562 340.01885986328125 799.528564453125 339.64605712890625 799.564208984375C338.3901672363281 799.7390747070312 337.0911560058594 799.8553466796875 335.7489929199219 799.9089965820312C334.4231872558594 799.9935302734375 333.1330261230469 800.0125732421875 331.87890625 799.9700317382812L330.2582092285156 799.9891357421875C330.0241394042969 799.9937744140625 329.7887878417969 799.99658203125 329.5521545410156 799.9974365234375H329.2512512207031L324.60321044921875 799.997314453125L324.5486755371094 799.9974365234375H319.80426025390625L319.7314147949219 799.9973754882812H319.6950378417969L319.58612060546875 799.9974365234375H316.5377197265625C316.2245788574219 800.0008544921875 315.9091491699219 800.0008544921875 315.5915222167969 799.9974365234375L315.36199951171875 799.9923706054688L314.87750244140625 799.981689453125L311.3410339355469 799.9037475585938C310.9704284667969 799.9035034179688 310.59674072265625 799.8983764648438 310.2199401855469 799.8883666992188L304.78021240234375 799.779296875C303.9234924316406 799.7564697265625 303.0840759277344 799.7091064453125 302.261962890625 799.6381225585938L300.80914306640625 799.5653076171875C299.77911376953125 799.5545043945312 298.7259826660156 799.5037841796875 297.6499328613281 799.4111938476562L295.2196960449219 799.1690673828125C294.512939453125 799.1278686523438 293.7960510253906 799.06787109375 293.069091796875 798.988525390625L289.5259704589844 798.6018676757812C288.4743347167969 798.5248413085938 287.4012145996094 798.4044799804688 286.3069152832031 798.2387084960938L281.0307922363281 797.434326171875C280.31658935546875 797.3252563476562 279.61676025390625 797.2003173828125 278.9312438964844 797.0602416992188L275.0729675292969 796.3709106445312C274.7488708496094 796.31201171875 274.4278564453125 796.2498779296875 274.1098937988281 796.1846313476562L272.3967590332031 795.9274291992188L268.8802795410156 795.5162963867188C268.1330871582031 795.4503173828125 267.37518310546875 795.36279296875 266.60662841796875 795.2529907226562L260.9623718261719 794.4622802734375C260.3962707519531 794.3807983398438 259.8390808105469 794.2894287109375 259.290771484375 794.1884155273438L255.41357421875 793.6033325195312C255.26744079589844 793.58154296875 255.12191772460938 793.5590209960938 254.97698974609375 793.535888671875L252.53433227539062 793.2097778320312C251.83558654785156 793.1463623046875 251.1274871826172 793.0641479492188 250.4101104736328 792.9625854492188L244.5477294921875 792.1173095703125C243.072265625 791.9067993164062 241.6573028564453 791.628662109375 240.3021240234375 791.2879638671875L237.91683959960938 790.7966918945312C237.3907928466797 790.6991577148438 236.86050415039062 790.58984375 236.3260498046875 790.4684448242188C234.88742065429688 790.1638793945312 233.511962890625 789.7970581054688 232.1987762451172 789.3729248046875L230.2152862548828 788.822998046875C229.27403259277344 788.5926513671875 228.32077026367188 788.3233642578125 227.35598754882812 788.013671875L227.13409423828125 787.9423828125L226.66262817382812 787.7908935546875L224.27500915527344 787.023681640625C224.1298065185547 786.98193359375 223.9843292236328 786.9392700195312 223.83856201171875 786.8956909179688L220.5631103515625 785.9345703125C219.5133056640625 785.672607421875 218.45094299316406 785.3585205078125 217.3770294189453 784.98974609375C215.30648803710938 784.3326416015625 213.3870086669922 783.5516967773438 211.61398315429688 782.66259765625C211.48081970214844 782.6021118164062 211.3474884033203 782.5407104492188 211.21400451660156 782.4784545898438L209.03265380859375 781.4559936523438C208.36788940429688 781.1449584960938 207.7219696044922 780.8224487304688 207.09458923339844 780.4891357421875L205.9483184814453 779.9337768554688C205.89486694335938 779.9096069335938 205.84140014648438 779.8853149414062 205.78790283203125 779.86083984375L202.55075073242188 778.3749389648438C202.26260375976562 778.251708984375 201.9737548828125 778.1244506835938 201.6842498779297 777.9931030273438L197.98011779785156 776.27001953125C196.8958740234375 775.8233642578125 195.80337524414062 775.3170166015625 194.7039337158203 774.7483520507812L191.55966186523438 773.1282958984375C190.57725524902344 772.6719970703125 189.59214782714844 772.162109375 188.60574340820312 771.596435546875C186.81983947753906 770.630126953125 185.18429565429688 769.5814819335938 183.69308471679688 768.4625244140625L181.1795654296875 766.8136596679688C180.7976837158203 766.5610961914062 180.4237060546875 766.30517578125 180.0575408935547 766.046142578125L177.5350341796875 764.344970703125C177.3820037841797 764.2467041015625 177.2289581298828 764.1470947265625 177.07591247558594 764.0460815429688L171.26806640625 760.215087890625C170.6258087158203 759.791259765625 170.005859375 759.3580322265625 169.4078369140625 758.9159545898438L165.46548461914062 756.2544555664062L158.80711364746094 752.0077514648438C158.4942169189453 751.8070678710938 158.18649291992188 751.6040649414062 157.8839111328125 751.39892578125L155.6457977294922 749.9605712890625C154.67662048339844 749.3857421875 153.70761108398438 748.7554931640625 152.74024963378906 748.0676879882812L147.29653930664062 744.2364501953125L143.90577697753906 742.0008544921875C143.74508666992188 741.8958129882812 143.58578491210938 741.7901611328125 143.4278564453125 741.6838989257812L141.39706420898438 740.3406982421875C140.8106689453125 739.9739379882812 140.22438049316406 739.5867309570312 139.63851928710938 739.1787109375L136.28469848632812 736.8883056640625C135.15005493164062 736.09765625 134.0882568359375 735.2783813476562 133.09695434570312 734.433837890625C132.1818084716797 733.7806396484375 131.27154541015625 733.072509765625 130.3677978515625 732.3074951171875L126.49053955078125 729.0189208984375C126.0002212524414 728.6233520507812 125.51299285888672 728.2102661132812 125.02921295166016 727.7792358398438C123.42288970947266 726.4087524414062 121.99239349365234 724.98779296875 120.72830200195312 723.5276489257812L119.752197265625 722.5327758789062C118.73056030273438 721.58349609375 117.73128509521484 720.5488891601562 116.75852966308594 719.425537109375C115.91026306152344 718.4826049804688 115.12885284423828 717.5281372070312 114.41191864013672 716.5643920898438L111.41732788085938 712.8662109375C110.83914947509766 712.1564331054688 110.29505157470703 711.443359375 109.78411102294922 710.7278442382812L109.20110321044922 709.9580078125C108.07374572753906 708.626220703125 106.9963150024414 707.1661376953125 105.97759246826172 705.5723266601562L105.95857238769531 705.5426025390625L105.22959899902344 704.4029541015625L102.90061950683594 700.761962890625C102.32971954345703 699.9305419921875 101.778076171875 699.0587158203125 101.2473373413086 698.1455078125C100.77902221679688 697.36572265625 100.3453140258789 696.5868530273438 99.9451904296875 695.8096923828125L97.50621795654297 691.3967895507812C97.43936920166016 691.2781982421875 97.37287902832031 691.1589965820312 97.30673217773438 691.0390625L95.31846618652344 687.4515991210938C95.06742858886719 687.020751953125 94.82122802734375 686.58056640625 94.58004760742188 686.1310424804688L90.96719360351562 679.4234008789062C90.2605972290039 678.1045532226562 89.6449966430664 676.7944946289062 89.1158676147461 675.4957275390625L88.26004791259766 673.6834106445312C87.4549560546875 672.2027587890625 86.7233657836914 670.6139526367188 86.07456970214844 668.9136352539062C85.603271484375 667.7594604492188 85.19729614257812 666.6161499023438 84.85367584228516 665.4851684570312L83.08706665039062 660.4592895507812C82.77095031738281 659.5476684570312 82.49168395996094 658.6455688476562 82.24794006347656 657.7534790039062L80.73060607910156 652.8026733398438C80.48624420166016 652.0750122070312 80.25806427001953 651.3280029296875 80.04681396484375 650.5614624023438L78.67871856689453 645.4866333007812C78.6010513305664 645.2264404296875 78.52537536621094 644.9639282226562 78.45170593261719 644.6990966796875L76.60269165039062 637.943115234375L76.58392333984375 637.8823852539062L74.35609436035156 630.7484130859375C74.22545623779297 630.34814453125 74.09961700439453 629.942138671875 73.97869873046875 629.5303344726562C73.86434936523438 629.1483154296875 73.75623321533203 628.7679443359375 73.65428924560547 628.3894653320312L71.68952941894531 621.4268188476562C71.4338607788086 620.526611328125 71.21233367919922 619.6373901367188 71.02371215820312 618.759521484375L70.21234130859375 615.4494018554688C70.07491302490234 614.9640502929688 69.94464874267578 614.470703125 69.82174682617188 613.9693603515625L68.23198699951172 607.3784790039062C68.1745376586914 607.1818237304688 68.11820983886719 606.9838256835938 68.06303405761719 606.7845458984375L65.77262115478516 598.42724609375C65.65158081054688 597.9899291992188 65.53853607177734 597.5552368164062 65.43334197998047 597.1232299804688L64.10990142822266 592.1348876953125L64.06844329833984 591.9786376953125L62.1572151184082 584.7012939453125L60.11050796508789 577.7731323242188C59.8894157409668 577.11181640625 59.68159866333008 576.4345092773438 59.48760986328125 575.7412109375L57.08812713623047 567.1112670898438C56.8956184387207 566.4198608398438 56.72312927246094 565.7349243164062 56.57010269165039 565.0567626953125L55.11735534667969 559.4937744140625C54.97172164916992 559.0054931640625 54.83329391479492 558.5089721679688 54.70227813720703 558.0040893554688L53.44835662841797 553.138916015625C53.13410568237305 552.08203125 52.855987548828125 550.986328125 52.616363525390625 549.851318359375L51.45929718017578 544.267578125C50.92022705078125 542.3173828125 50.5186653137207 540.2391967773438 50.27141571044922 538.0311279296875L50.246917724609375 537.8096313476562C50.19085693359375 537.3699951171875 50.142669677734375 536.9337158203125 50.10219955444336 536.5009155273438L49.317073822021484 529.4011840820312C49.28656768798828 529.1279907226562 49.25880432128906 528.8562622070312 49.2337532043457 528.5858764648438L48.656402587890625 523.8008422851562C48.53888702392578 523.0391845703125 48.440738677978516 522.2611083984375 48.362735748291016 521.466552734375L47.6954345703125 514.7328491210938C47.6424446105957 514.265625 47.59669494628906 513.7926025390625 47.5583610534668 513.313720703125L46.98691940307617 506.00823974609375C46.92158508300781 505.4523620605469 46.8665657043457 504.8881530761719 46.82215881347656 504.315673828125L46.1813850402832 495.8493347167969C46.086669921875 494.6072692871094 46.047210693359375 493.396240234375 46.06004333496094 492.216552734375L45.90871810913086 487.6011047363281C45.9026985168457 487.39422607421875 45.89816665649414 487.18829345703125 45.89510726928711 486.9832763671875L45.6810188293457 482.7294616699219L45.22087860107422 476.96173095703125L45.21341323852539 476.89886474609375L44.44133377075195 470.32373046875L43.643165588378906 465.3281555175781C43.596927642822266 465.10113525390625 43.552276611328125 464.87255859375 43.50923538208008 464.6424255371094L42.500362396240234 459.3117370605469C42.390350341796875 458.7189636230469 42.29399490356445 458.1320495605469 42.210968017578125 457.551025390625L41.531341552734375 453.89630126953125C41.38411331176758 453.20849609375 41.25365447998047 452.506103515625 41.14063262939453 451.78912353515625C40.781272888183594 449.74554443359375 40.58369445800781 447.7724914550781 40.53425598144531 445.87249755859375L40.43346405029297 444.67236328125C40.19264221191406 442.9610290527344 40.06023406982422 441.1695861816406 40.04634475708008 439.2978820800781L40.00544357299805 433.9671936035156C40.00432205200195 433.78570556640625 40.00432586669922 433.6049499511719 40.00544357299805 433.4249267578125V427.0360107421875C39.99821090698242 426.58355712890625 39.9981575012207 426.1263732910156 40.00544357299805 425.6644592285156L40.11874008178711 419.6288757324219C40.09617614746094 418.6629333496094 40.10786819458008 417.6753845214844 40.15541076660156 416.6663818359375L40.48762893676758 410.5411376953125C40.50191879272461 409.380859375 40.567474365234375 408.19140625 40.68711471557617 406.9730224609375L41.281986236572266 400.863037109375C41.34736251831055 399.757080078125 41.46226119995117 398.6273498535156 41.629241943359375 397.4743347167969C41.793277740478516 396.1729736328125 42.01274490356445 394.9176940917969 42.28398132324219 393.7081604003906L42.74654006958008 391.1528015136719C42.772315979003906 390.9734191894531 42.799320220947266 390.79345703125 42.82756423950195 390.6129150390625L44.15000534057617 382.0920104980469C44.29454040527344 381.1684265136719 44.46538543701172 380.26904296875 44.66129684448242 379.3936462402344L45.963253021240234 372.6167907714844C46.0355110168457 372.2428894042969 46.111995697021484 371.8731384277344 46.192626953125 371.507568359375L47.40839385986328 365.05023193359375C47.68222427368164 363.62261962890625 48.017642974853516 362.255615234375 48.40998840332031 360.9482727050781L49.03070831298828 358.37750244140625C49.170772552490234 357.7394104003906 49.328250885009766 357.0954284667969 49.503578186035156 356.4457702636719C49.67757797241211 355.777587890625 49.86478805541992 355.1239929199219 50.0647087097168 354.4848327636719L51.77530288696289 348.5880432128906L53.58203125 341.6748046875L55.23398208618164 334.9612731933594L56.501888275146484 329.7532958984375C56.808719635009766 328.5016784667969 57.16144943237305 327.3000183105469 57.5568733215332 326.1476135253906L58.6286506652832 322.49945068359375C58.82427215576172 321.7663269042969 59.043941497802734 321.0263671875 59.288368225097656 320.2799377441406C59.530906677246094 319.50726318359375 59.79079055786133 318.7555847167969 60.067203521728516 318.024658203125L61.476036071777344 313.9902648925781L62.67586135864258 309.7593078613281C63.001461029052734 308.346923828125 63.4198112487793 306.9100036621094 63.93659973144531 305.4508056640625C64.40948486328125 304.015625 64.94403839111328 302.65478515625 65.53472137451172 301.36663818359375L66.1932373046875 299.7223815917969C66.42357635498047 299.1069030761719 66.67240905761719 298.4881286621094 66.94017791748047 297.86627197265625C67.3046875 296.9884948730469 67.69027709960938 296.1415710449219 68.09569549560547 295.3249816894531L70.83061981201172 289.3847351074219C71.26055145263672 288.45721435546875 71.71278381347656 287.5661926269531 72.1858139038086 286.7109375L74.51707458496094 282.1520080566406C74.7485580444336 281.6694030761719 74.99208068847656 281.1854553222656 75.24784851074219 280.7002258300781L78.50624084472656 274.5242919921875C78.8455581665039 273.8807678222656 79.19519805908203 273.2562561035156 79.55464172363281 272.65045166015625L81.40596008300781 269.26910400390625C81.61636352539062 268.8539733886719 81.83584594726562 268.4379577636719 82.06455993652344 268.0211486816406L85.3027572631836 262.1812438964844L88.56771087646484 255.35569763183594C88.77487182617188 254.9192657470703 88.9869384765625 254.49102783203125 89.20375061035156 254.07089233398438L92.34416961669922 247.68006896972656C92.87775421142578 246.60621643066406 93.44073486328125 245.5833740234375 94.03070831298828 244.61033630371094L95.2496109008789 242.41140747070312C95.44609832763672 242.03688049316406 95.65005493164062 241.66171264648438 95.86158752441406 241.28599548339844L99.43354797363281 234.9464569091797C99.69758605957031 234.4788360595703 99.9669418334961 234.021728515625 100.24141693115234 233.57501220703125L100.84750366210938 232.51559448242188C101.82445526123047 230.4075927734375 103.061767578125 228.3042449951172 104.58212280273438 226.22421264648438C105.7835693359375 224.44918823242188 107.0699691772461 222.85488891601562 108.4261245727539 221.43260192871094L109.44048309326172 220.19508361816406C110.0331039428711 219.47413635253906 110.63603210449219 218.78721618652344 111.2483139038086 218.133544921875L112.3505630493164 216.8744659423828C112.94226837158203 216.148681640625 113.57154846191406 215.4283447265625 114.23944854736328 214.71444702148438L118.43854522705078 210.1881561279297C119.17750549316406 209.3997344970703 119.92738342285156 208.6577606201172 120.68675231933594 207.9609375L122.5363998413086 206.13816833496094C123.3828125 205.2345428466797 124.29519653320312 204.34666442871094 125.27583312988281 203.4771728515625C125.7197036743164 203.0707244873047 126.16637420654297 202.6793670654297 126.61557006835938 202.30284118652344L130.74952697753906 198.68154907226562C130.96026611328125 198.49813842773438 131.1714324951172 198.31788635253906 131.38296508789062 198.14077758789062L134.41258239746094 195.4634552001953L139.063720703125 191.2563934326172C139.3000946044922 191.0373992919922 139.540771484375 190.81964111328125 139.78570556640625 190.6032257080078C140.70188903808594 189.77281188964844 141.62734985351562 189.00425720214844 142.56015014648438 188.29541015625L144.85604858398438 186.41847229003906C145.81619262695312 185.56336975097656 146.8463592529297 184.7330322265625 147.94883728027344 183.9308624267578C148.85873413085938 183.24391174316406 149.77316284179688 182.61154174804688 150.69058227539062 182.03184509277344L154.4105224609375 179.48373413085938C154.66781616210938 179.29652404785156 154.92906188964844 179.11083984375 155.1942596435547 178.9267120361328L158.74319458007812 176.47134399414062C159.3296661376953 176.04049682617188 159.9370880126953 175.61813354492188 160.56582641601562 175.2047882080078L165.811279296875 171.74990844726562C165.9967498779297 171.61920166015625 166.18421936035156 171.48927307128906 166.37367248535156 171.3601531982422L172.9722442626953 166.88839721679688C173.4744415283203 166.54632568359375 173.97679138183594 166.2193603515625 174.47911071777344 165.90721130371094L176.21434020996094 164.7647247314453C177.1873016357422 164.0464324951172 178.21922302246094 163.3537139892578 179.31179809570312 162.68930053710938L185.65782165527344 158.85935974121094C186.00379943847656 158.64239501953125 186.35609436035156 158.4284210205078 186.71473693847656 158.217529296875L194.0631561279297 153.89573669433594C195.291015625 153.175048828125 196.51416015625 152.53704833984375 197.73031616210938 151.97792053222656L203.4429473876953 149.0013427734375C203.79864501953125 148.81736755371094 204.15359497070312 148.63990783691406 204.50779724121094 148.46888732910156L211.21400451660156 144.95220947265625C211.8310546875 144.6324005126953 212.44593811035156 144.3322296142578 213.05844116210938 144.05123901367188L215.1020050048828 142.99026489257812C215.84893798828125 142.5758056640625 216.62327575683594 142.17742919921875 217.42544555664062 141.79617309570312C218.12998962402344 141.45028686523438 218.83152770996094 141.12989807128906 219.52969360351562 140.83428955078125L224.65023803710938 138.51217651367188Q224.775634765625 138.4530792236328 224.90196228027344 138.39453125L228.4739227294922 136.6903533935547C228.72787475585938 136.57269287109375 228.9813232421875 136.45819091796875 229.23426818847656 136.34683227539062L230.32957458496094 135.82679748535156C230.55845642089844 135.7088165283203 230.78970336914062 135.59219360351562 231.02337646484375 135.4769744873047L233.9054412841797 134.09005737304688C234.32269287109375 133.8705291748047 234.74803161621094 133.65565490722656 235.1815643310547 133.4456024169922L239.48973083496094 131.37332153320312C239.90713500976562 131.171142578125 240.32334899902344 130.97767639160156 240.73828125 130.7927703857422L244.3336944580078 129.05564880371094C244.98939514160156 128.71620178222656 245.66505432128906 128.3887939453125 246.36097717285156 128.07403564453125L251.7899627685547 125.64461517333984C252.10671997070312 125.49842071533203 252.42779541015625 125.35501861572266 252.75318908691406 125.21446990966797C253.2244110107422 125.00756072998047 253.6938018798828 124.81140899658203 254.1613006591797 124.62582397460938L257.0204772949219 123.43999481201172C258.0716247558594 122.94168853759766 259.1716613769531 122.47681427001953 260.32159423828125 122.04805755615234L264.52069091796875 120.50747680664062C265.2827453613281 120.2243423461914 266.0386047363281 119.96754455566406 266.7879638671875 119.73629760742188L269.4856262207031 118.81449127197266C270.2744140625 118.5234375 271.08697509765625 118.25125122070312 271.92364501953125 117.99893188476562L272.1868591308594 117.91962432861328L272.2725524902344 117.89379119873047L277.03619384765625 116.4583511352539C277.24859619140625 116.39431762695312 277.46038818359375 116.33220672607422 277.6716003417969 116.27200317382812L279.1849060058594 115.80091094970703C280.4074401855469 115.35574340820312 281.6872863769531 114.96315002441406 283.0251770019531 114.6275634765625C284.6014099121094 114.19071197509766 286.1449279785156 113.86146545410156 287.6536865234375 113.63296508789062C288.84375 113.36991882324219 290.0779113769531 113.15562438964844 291.3565368652344 112.99342346191406C292.1936950683594 112.87251281738281 293.0186462402344 112.77947998046875 293.8312072753906 112.71331787109375L295.8329162597656 112.4903793334961C296.4284973144531 112.39704895019531 297.0341491699219 112.31533813476562 297.6499328613281 112.24562072753906L302.62286376953125 111.6868667602539C303.27471923828125 111.6010513305664 303.938232421875 111.5295639038086 304.61328125 111.47290802001953C304.9693603515625 111.44048309326172 305.32293701171875 111.41278076171875 305.674072265625 111.38970184326172L307.2157897949219 111.26995849609375C308.1059265136719 111.17314147949219 309.0168151855469 111.10511016845703 309.9484558105469 111.06721496582031C311.30072021484375 110.99059295654297 312.6152648925781 110.98026275634766 313.89178466796875 111.0322494506836ZM151.36114501953125 603.6943359375 151.1996612548828 587.4523315429688 151.19911193847656 587.3834228515625 150.78671264648438 578.088134765625 150.7770233154297 577.9771118164062 149.63294982910156 564.3698120117188C149.58200073242188 563.9745483398438 149.5361328125 563.5750122070312 149.4954833984375 563.1712036132812L148.8123016357422 556.0614624023438L148.80018615722656 555.9727172851562L147.89962768554688 549.160888671875Q147.87220764160156 549.0021362304688 147.84584045410156 548.8424682617188L146.19619750976562 538.6173706054688C146.1759490966797 538.4940185546875 146.1562957763672 538.3709716796875 146.13720703125 538.2481689453125L144.16482543945312 527.43798828125C144.1024932861328 527.0902099609375 144.0448455810547 526.7444458007812 143.9918212890625 526.4007568359375L141.38279724121094 512.1626586914062C141.2102508544922 511.4143371582031 141.0557403564453 510.6483154296875 140.92005920410156 509.864501953125L137.8252716064453 491.96380615234375C137.6890411376953 491.1744384765625 137.57681274414062 490.3956604003906 137.48777770996094 489.627685546875L134.94862365722656 473.43597412109375C134.80856323242188 472.54071044921875 134.69895935058594 471.6595153808594 134.6186981201172 470.7925720214844L133.14901733398438 458.780029296875C133.04498291015625 457.9168395996094 132.96852111816406 457.06756591796875 132.91864013671875 456.23236083984375L131.68540954589844 441.6969909667969C131.46267700195312 440.1627197265625 131.3255615234375 438.5632629394531 131.28123474121094 436.8984069824219L130.80406188964844 417.72979736328125C130.79074096679688 417.2041320800781 130.78695678710938 416.6844787597656 130.79249572753906 416.1708679199219L130.6068878173828 399.6752014160156C130.55691528320312 398.5998840332031 130.54917907714844 397.4968566894531 130.58592224121094 396.3662109375L131.02386474609375 383.5158386230469C131.02789306640625 383.0149841308594 131.04090881347656 382.508544921875 131.06309509277344 381.99658203125L131.84109497070312 365.01641845703125C131.8450469970703 364.22796630859375 131.87173461914062 363.42578125 131.9219970703125 362.60986328125L133.09544372558594 344.2259216308594C133.1181182861328 343.7375793457031 133.14955139160156 343.2442321777344 133.18991088867188 342.7459411621094L134.5472869873047 326.2106628417969C134.57676696777344 325.52008056640625 134.6240234375 324.81951904296875 134.68959045410156 324.10906982421875L135.7505645751953 312.82073974609375C135.76695251464844 312.55401611328125 135.7859344482422 312.28582763671875 135.80752563476562 312.0162048339844L136.2357940673828 306.87701416015625L133.77615356445312 311.5390319824219C133.74130249023438 311.6051330566406 133.7063446044922 311.67108154296875 133.67127990722656 311.7367858886719L130.7564239501953 317.4580993652344L127.85845184326172 323.7061462402344L126.56261444091797 326.9619445800781L125.59935760498047 330.2654113769531C125.28418731689453 331.5987243652344 124.88923645019531 332.9554748535156 124.40998077392578 334.3341369628906L122.26361083984375 340.4683532714844L120.42127227783203 346.7394104003906L119.54866790771484 350.37054443359375L119.46105194091797 350.7351379394531L119.4347152709961 350.84197998046875L117.89045715332031 357.10546875C117.81938171386719 357.4062805175781 117.74452209472656 357.70843505859375 117.66584014892578 358.0118713378906C117.60721588134766 358.2424621582031 117.54701232910156 358.4713134765625 117.48526763916016 358.6984558105469L115.61642456054688 365.8000793457031C115.42997741699219 366.5003967285156 115.22932434082031 367.1846008300781 115.01504516601562 367.85284423828125L113.47001647949219 373.3495788574219L112.17005920410156 378.54937744140625L110.9401626586914 385.13226318359375C110.8165512084961 385.7758483886719 110.68043518066406 386.40716552734375 110.53224182128906 387.0262145996094L109.40779113769531 392.8791198730469L108.40533447265625 399.3382568359375C108.31324768066406 400.07830810546875 108.19953918457031 400.8282165527344 108.06350708007812 401.58782958984375L107.18339538574219 406.44989013671875L106.57292938232422 412.7510986328125L106.25025939941406 419.8020935058594C106.2442398071289 419.92669677734375 106.2376937866211 420.0509033203125 106.23065185546875 420.17474365234375L106.14119720458984 426.72784423828125V433.5445861816406L106.18497467041016 437.81365966796875L106.50882720947266 441.3415832519531L107.58633422851562 447.38250732421875C107.63329315185547 447.64483642578125 107.67759704589844 447.9059753417969 107.7192611694336 448.16595458984375L108.54067993164062 452.4950256347656C108.6962890625 453.3280944824219 108.82489776611328 454.14959716796875 108.92742919921875 454.95941162109375L109.60814666748047 459.1624755859375C109.74262237548828 459.88623046875 109.85961151123047 460.6255187988281 109.95841217041016 461.3804016113281C110.03984832763672 461.9568176269531 110.10851287841797 462.5274658203125 110.16468048095703 463.0921630859375L110.88562774658203 469.168701171875C111.00209045410156 470.1554260253906 111.08256530761719 471.1238098144531 111.12855529785156 472.0736999511719L111.42417907714844 475.779296875C111.53990936279297 476.72808837890625 111.6244888305664 477.70111083984375 111.67636108398438 478.698486328125L112.0035629272461 484.928955078125C112.04679107666016 485.780517578125 112.06449890136719 486.6169128417969 112.0576400756836 487.43804931640625L112.19481658935547 491.90081787109375L112.68533325195312 498.5228576660156C112.70488739013672 498.7303161621094 112.7230453491211 498.93890380859375 112.7397689819336 499.14862060546875L113.4690933227539 507.80767822265625L114.1849136352539 515.0179443359375C114.2038803100586 515.213623046875 114.22145080566406 515.4085083007812 114.23764038085938 515.6026611328125L114.89263916015625 520.9501342773438C114.94281005859375 521.3140258789062 114.98868560791016 521.6815795898438 115.03018951416016 522.0527954101562L115.84244537353516 529.2944946289062L117.2080078125 535.6904907226562L118.71121215820312 541.3304443359375C118.82650756835938 541.7747192382812 118.93366241455078 542.2162475585938 119.0328140258789 542.6548461914062L120.75599670410156 549.2218017578125L120.78349304199219 549.3196411132812L122.81256103515625 556.5712280273438C122.90196228027344 556.8506469726562 122.98908996582031 557.1329345703125 123.07390594482422 557.4179077148438L125.63699340820312 566.0478515625C125.86595916748047 566.8212890625 126.06950378417969 567.5868530273438 126.24840545654297 568.3443603515625L128.03646850585938 575.1549682617188L128.0523223876953 575.2152709960938L129.48561096191406 580.6666870117188C129.4979705810547 580.7108154296875 129.51028442382812 580.7549438476562 129.52252197265625 580.7991943359375L131.47662353515625 587.9293823242188C131.69088745117188 588.638916015625 131.8895721435547 589.3660278320312 132.0719757080078 590.11083984375L133.7286376953125 596.9431762695312C133.84017944335938 597.3416137695312 133.9469451904297 597.745361328125 134.04881286621094 598.154541015625L135.3309326171875 603.4305419921875L135.33453369140625 603.4453735351562L137.41017150878906 610.7360229492188L139.74758911132812 618.3456420898438C139.94451904296875 618.9812622070312 140.1240692138672 619.6117553710938 140.28668212890625 620.2369995117188L142.20159912109375 627.0165405273438C142.33143615722656 627.4854736328125 142.4520721435547 627.951416015625 142.56370544433594 628.4142456054688L143.74560546875 632.7984008789062L145.62950134277344 638.9531860351562L147.51963806152344 644.36083984375L149.5023956298828 648.5845947265625L150.76690673828125 650.9591674804688L150.81448364257812 646.4190673828125L150.81793212890625 646.0896606445312L150.82398986816406 645.7921142578125L151.0352325439453 635.4283447265625L151.03607177734375 635.387451171875L151.03921508789062 635.198974609375L151.2541961669922 619.5045166015625C151.25494384765625 619.44775390625 151.2558135986328 619.3910522460938 151.2567901611328 619.3344116210938L151.36114501953125 603.6943359375Z" fill="black"/>
</svg>
