<svg xmlns="http://www.w3.org/2000/svg" viewBox="0 0 580 1000">
  <path d="M342.9077453613281 152.20745849609375H336.64483642578125L335.2623291015625 152.24903869628906C334.8441467285156 152.2725830078125 334.4190979003906 152.2863006591797 333.9872131347656 152.2898712158203H333.9048156738281C333.7951965332031 152.29052734375 333.6860046386719 152.29052734375 333.5772705078125 152.2898712158203H331.4119873046875C331.3023681640625 152.29052734375 331.1932067871094 152.29052734375 331.0844421386719 152.2898712158203H328.25994873046875C328.14825439453125 152.29054260253906 328.0369873046875 152.29054260253906 327.92620849609375 152.2898406982422L325.04608154296875 152.2895050048828C325.0186462402344 152.2896728515625 324.99114990234375 152.289794921875 324.9636535644531 152.2898712158203H309.5123291015625L308.65447998046875 152.3778533935547C307.6479797363281 152.5467071533203 306.59490966796875 152.656494140625 305.49505615234375 152.701904296875L303.3478088378906 152.79949951171875L303.111328125 152.84649658203125C302.89208984375 152.9036407470703 302.6703186035156 152.95846557617188 302.4460144042969 153.01092529296875L299.2115478515625 153.75259399414062C298.6919250488281 153.87242126464844 298.1788635253906 153.97483825683594 297.6724853515625 154.06040954589844L296.6404113769531 154.26681518554688L295.2566223144531 154.84584045410156C294.6992492675781 155.10194396972656 294.12017822265625 155.34266662597656 293.5190734863281 155.5669403076172C292.8861389160156 155.81597900390625 292.2591552734375 156.0344696044922 291.638671875 156.22364807128906L291.589599609375 156.2405548095703C290.6275634765625 156.6365203857422 289.6046142578125 156.98330688476562 288.5192565917969 157.27548217773438L286.59307861328125 157.83583068847656L285.80523681640625 158.13304138183594C285.1521301269531 158.41128540039062 284.47064208984375 158.66847229003906 283.76025390625 158.90301513671875L281.34613037109375 159.6852569580078C280.555908203125 159.9795379638672 279.72686767578125 160.2411346435547 278.8585205078125 160.46722412109375C278.5317687988281 160.55807495117188 278.20721435546875 160.64138793945312 277.8849182128906 160.71730041503906L274.9221496582031 161.4782257080078C273.7427062988281 161.7774200439453 272.5955810546875 161.98509216308594 271.4825134277344 162.10818481445312L270.314208984375 162.30609130859375L270.2508544921875 162.3236083984375L269.03656005859375 162.88406372070312C268.2749328613281 163.2758331298828 267.46966552734375 163.63909912109375 266.6196594238281 163.9710235595703L266.4473571777344 164.03778076171875Q266.224365234375 164.12655639648438 266.0023193359375 164.21017456054688L262.04608154296875 165.74278259277344L262.0032043457031 165.7595672607422L259.2236328125 167.02008056640625C258.6397399902344 167.27549743652344 258.060546875 167.50474548339844 257.48638916015625 167.70872497558594L253.74359130859375 169.28627014160156C252.76063537597656 169.6869354248047 251.79232788085938 170.01512145996094 250.84048461914062 170.2751922607422L249.1039276123047 170.88259887695312L247.8445587158203 171.48765563964844C247.36370849609375 171.7533416748047 246.8648223876953 172.00865173339844 246.3475799560547 172.25291442871094L243.63540649414062 173.50729370117188C243.42401123046875 173.60887145996094 243.2093963623047 173.708251953125 242.99156188964844 173.80540466308594C242.1142578125 174.21495056152344 241.24610900878906 174.5635986328125 240.388671875 174.85458374023438C239.19796752929688 175.38185119628906 237.90957641601562 175.830078125 236.52056884765625 176.18783569335938L234.84735107421875 176.60614013671875L234.60386657714844 176.70701599121094C234.20985412597656 176.89138793945312 233.8049774169922 177.06866455078125 233.38909912109375 177.238525390625L232.3460235595703 177.6572723388672L231.8645782470703 177.95957946777344C230.6355743408203 178.72323608398438 229.41104125976562 179.34934997558594 228.19729614257812 179.84820556640625L226.54933166503906 180.94683837890625C225.8885040283203 181.39659118652344 225.22726440429688 181.80441284179688 224.5667724609375 182.17198181152344L224.51622009277344 182.20281982421875C223.49179077148438 182.9244384765625 222.36419677734375 183.59109497070312 221.12899780273438 184.19314575195312C220.8022003173828 184.36209106445312 220.47601318359375 184.52166748046875 220.1505584716797 184.67205810546875C218.7674560546875 185.44863891601562 217.22866821289062 186.1162567138672 215.52743530273438 186.65350341796875L213.81753540039062 187.1749725341797L213.20762634277344 187.44180297851562L213.1788330078125 187.45697021484375L211.01565551757812 188.59005737304688C210.7899169921875 188.70884704589844 210.5646209716797 188.8234100341797 210.3397979736328 188.9337921142578L209.99160766601562 189.138427734375C209.8538360595703 189.22421264648438 209.7144775390625 189.3092498779297 209.5735321044922 189.39352416992188L208.49380493164062 190.02528381347656Q208.4261932373047 190.07005310058594 208.3580322265625 190.11459350585938L207.00323486328125 190.96495056152344C206.52662658691406 191.28662109375 206.0292205810547 191.5985107421875 205.5106964111328 191.8998260498047C205.3369903564453 192.003662109375 205.16334533691406 192.10472106933594 204.98977661132812 192.20303344726562L202.65065002441406 193.56752014160156C202.0941925048828 194.01612854003906 201.50416564941406 194.4519500732422 200.87962341308594 194.8735809326172L197.93258666992188 196.8190155029297L195.57301330566406 198.57742309570312L192.57713317871094 200.99229431152344C191.72645568847656 201.67941284179688 190.86849975585938 202.28811645507812 190.00656127929688 202.82249450683594L188.97183227539062 203.5675048828125C188.5225372314453 203.88449096679688 188.07272338867188 204.18165588378906 187.62278747558594 204.45956420898438L185.84002685546875 205.7094268798828C185.75839233398438 205.7716827392578 185.6761016845703 205.83370971679688 185.59315490722656 205.89549255371094L182.1638946533203 208.44879150390625L178.9286651611328 211.07850646972656L176.4349365234375 213.2224884033203C176.3234100341797 213.32826232910156 176.2103729248047 213.43368530273438 176.0957794189453 213.53872680664062L173.8204345703125 215.5973663330078C173.09478759765625 216.32789611816406 172.2954864501953 217.03717041015625 171.419189453125 217.7208709716797L171.3706817626953 217.7587127685547C171.15223693847656 217.93502807617188 170.93307495117188 218.10594177246094 170.71327209472656 218.2715606689453L168.22122192382812 220.21563720703125C167.9299774169922 220.45846557617188 167.62942504882812 220.69822692871094 167.31944274902344 220.9347381591797L166.0513458251953 221.90370178222656C166.2826690673828 222.82716369628906 166.4664306640625 223.79502868652344 166.598388671875 224.807861328125L166.66885375976562 225.35397338867188L166.9898223876953 226.16757202148438C167.345947265625 227.11671447753906 167.63645935058594 228.05044555664062 167.86524963378906 228.96730041503906C168.16346740722656 229.8274688720703 168.42080688476562 230.73204040527344 168.6334686279297 231.68170166015625C168.84584045410156 232.5594940185547 169.00570678710938 233.41973876953125 169.11610412597656 234.2615509033203L169.2698516845703 235.11817932128906C169.30833435058594 235.3131103515625 169.34475708007812 235.50987243652344 169.37908935546875 235.70838928222656C169.52330017089844 236.4621124267578 169.631591796875 237.20091247558594 169.70574951171875 237.92445373535156L170.05947875976562 240.34153747558594C170.18832397460938 241.3785858154297 170.25277709960938 242.38357543945312 170.25738525390625 243.35592651367188L170.27980041503906 243.7368621826172L171.0277557373047 247.737548828125C171.119140625 248.23338317871094 171.19522094726562 248.72262573242188 171.25650024414062 249.20521545410156L171.97543334960938 253.3000030517578C172.08554077148438 253.92539978027344 172.17138671875 254.5401611328125 172.23397827148438 255.14410400390625L172.4953155517578 256.93267822265625C172.65541076660156 257.7497863769531 172.7783203125 258.5989990234375 172.86129760742188 259.48052978515625L173.5205535888672 266.4026794433594C173.5929412841797 267.1971130371094 173.6286163330078 267.9716491699219 173.62960815429688 268.72613525390625L173.99440002441406 274.29315185546875C174.03182983398438 274.93243408203125 174.04608154296875 275.55816650390625 174.03817749023438 276.17022705078125L174.2416229248047 282.59564208984375C174.253662109375 282.9367370605469 174.25918579101562 283.2738037109375 174.2583465576172 283.6068420410156L174.40643310546875 289.8268127441406C174.41085815429688 290.04473876953125 174.41262817382812 290.2610168457031 174.4118194580078 290.4755859375L174.48318481445312 296.8797302246094L175.03347778320312 303.5776672363281C175.068603515625 303.84600830078125 175.0999755859375 304.1175537109375 175.1274871826172 304.3922424316406L175.77999877929688 311.4527282714844C175.8784942626953 312.06256103515625 175.95663452148438 312.6894226074219 176.01336669921875 313.3333740234375L176.43606567382812 318.5936584472656C176.5671844482422 319.57000732421875 176.6407012939453 320.5877380371094 176.6516876220703 321.646728515625C176.67294311523438 322.3027038574219 176.66854858398438 322.94403076171875 176.6397705078125 323.57061767578125L176.56973266601562 331.57269287109375L176.56961059570312 331.58648681640625L176.49168395996094 340.8791198730469L176.72349548339844 350.53790283203125C176.72764587402344 350.6343994140625 176.7312774658203 350.7312316894531 176.7344207763672 350.8284606933594L176.9549102783203 357.7923889160156C176.97726440429688 358.1992492675781 176.98997497558594 358.612548828125 176.99270629882812 359.0322570800781C177.00819396972656 359.7812194824219 176.99217224121094 360.51043701171875 176.9463653564453 361.2198791503906L176.68150329589844 370.40771484375C176.6846923828125 370.8778991699219 176.67501831054688 371.3560485839844 176.6520233154297 371.8421936035156L176.0957794189453 383.6675720214844L175.5189208984375 395.328125C175.51380920410156 395.4378967285156 175.508056640625 395.5472106933594 175.50167846679688 395.6560363769531L175.1274871826172 406.35003662109375C175.12229919433594 406.4755554199219 175.1162872314453 406.6004333496094 175.10943603515625 406.7247314453125L174.79786682128906 415.6826171875C174.79637145996094 415.73345947265625 174.7947540283203 415.7841796875 174.79298400878906 415.8348388671875L174.633056640625 428.2496643066406C174.6164093017578 429.21685791015625 174.54945373535156 430.149169921875 174.435791015625 431.04669189453125L173.74717712402344 442.0115966796875C173.73915100097656 442.1355285644531 173.73031616210938 442.25885009765625 173.72068786621094 442.3815612792969L173.5205535888672 450.62310791015625C173.4952850341797 451.40570068359375 173.43724060058594 452.16497802734375 173.3483123779297 452.9010009765625L172.79949951171875 463.416748046875V473.0789489746094L173.0949249267578 483.3794860839844C173.1000213623047 483.4822082519531 173.10455322265625 483.5852966308594 173.1085205078125 483.6888427734375L173.35574340820312 489.7251281738281C173.37831115722656 490.36663818359375 173.37796020507812 490.9939880371094 173.3557586669922 491.60711669921875L173.5205535888672 495.3699951171875C173.52655029296875 495.5299377441406 173.5311279296875 495.6889953613281 173.53428649902344 495.8471984863281L173.6853790283203 500.1907958984375C173.6946258544922 500.43695068359375 173.70045471191406 500.6810302734375 173.7029571533203 500.92303466796875L173.99440002441406 510.32684326171875C174.0008087158203 510.5708312988281 174.00390625 510.812744140625 174.00375366210938 511.05255126953125L174.15921020507812 520.3804931640625C174.16192626953125 520.5151977539062 174.1636505126953 520.6493530273438 174.1643829345703 520.7827758789062L174.31492614746094 527.6886596679688L174.3240203857422 528.1060791015625C174.32606506347656 528.2494506835938 174.3269805908203 528.3920288085938 174.32676696777344 528.533935546875L174.40643310546875 538.57177734375C174.4060821533203 538.5972900390625 174.40623474121094 538.622802734375 174.40640258789062 538.6483154296875L174.40643310546875 538.6541748046875V548.3988037109375L174.48597717285156 557.3267822265625L174.4888458251953 557.64892578125V580.9082641601562L174.48471069335938 581.3077392578125L174.41799926757812 587.7619018554688C174.43966674804688 588.414306640625 174.4362335205078 589.0826416015625 174.40643310546875 589.7670288085938L174.21554565429688 594.857421875C174.2203826904297 595.7555541992188 174.17530822753906 596.68212890625 174.07681274414062 597.6368408203125L173.4381561279297 603.9203491210938C173.37120056152344 604.549072265625 173.28402709960938 605.1610107421875 173.17764282226562 605.7562866210938L172.70339965820312 609.1091918945312L172.64630126953125 612.9637451171875L172.79502868652344 616.384765625L172.98687744140625 618.5153198242188C173.032470703125 618.8239135742188 173.07305908203125 619.1368408203125 173.1085205078125 619.4540405273438L173.2787322998047 620.8839111328125C175.5783233642578 623.4961547851562 177.2411346435547 626.8858032226562 177.89755249023438 631.0703125C178.33441162109375 633.1514282226562 178.4362335205078 635.403076171875 178.13079833984375 637.8037109375C178.11248779296875 638.1214599609375 178.08596801757812 638.437255859375 178.05152893066406 638.7507934570312C177.83627319335938 641.2864379882812 177.17123413085938 643.7758178710938 176.01602172851562 646.0665283203125L176.53311157226562 648.1879272460938C176.92568969726562 648.7327270507812 177.2952117919922 649.3067626953125 177.6393585205078 649.9105834960938C180.07794189453125 653.5213623046875 181.03648376464844 657.4925537109375 180.84393310546875 661.3716430664062C180.84278869628906 661.6141967773438 180.83750915527344 661.858642578125 180.82801818847656 662.1049194335938C180.8329620361328 662.2781372070312 180.8359832763672 662.4503173828125 180.8370819091797 662.62158203125C181.27272033691406 663.9312744140625 181.59219360351562 665.3379516601562 181.7783203125 666.8414916992188C182.21090698242188 669.1550903320312 182.2523193359375 671.3501586914062 181.96725463867188 673.4032592773438V673.6983032226562C181.96205139160156 674.2761840820312 181.93869018554688 674.8417358398438 181.89791870117188 675.39501953125L181.89785766601562 675.3978881835938C181.93284606933594 676.7163696289062 181.83131408691406 678.0789184570312 181.5774383544922 679.4779663085938C181.24769592285156 683.0357666015625 179.896728515625 686.574951171875 177.2784881591797 689.7449340820312C176.86489868164062 690.2879028320312 176.42864990234375 690.7999267578125 175.97210693359375 691.2813720703125C175.4672393798828 691.8753662109375 174.941162109375 692.4266357421875 174.39663696289062 692.9365234375C172.5221710205078 694.7523803710938 170.27149963378906 696.204833984375 167.6802520751953 697.1286010742188L167.773681640625 697.1990966796875C168.44480895996094 697.6604614257812 169.11123657226562 698.1695556640625 169.77113342285156 698.7283325195312C170.17996215820312 699.0628051757812 170.5709991455078 699.4031372070312 170.9446258544922 699.7488403320312L172.6346893310547 701.2222290039062C172.9175262451172 701.4729614257812 173.19126892089844 701.7261352539062 173.45608520507812 701.9815673828125L176.3223876953125 704.3536376953125C176.52590942382812 704.5245361328125 176.72499084472656 704.69677734375 176.91969299316406 704.8702392578125L178.23648071289062 705.98046875C178.8798065185547 706.47265625 179.51498413085938 707.012451171875 180.13998413085938 707.6019287109375C180.96194458007812 708.3394775390625 181.70509338378906 709.0987548828125 182.37306213378906 709.8755493164062L185.3038330078125 712.9154052734375L187.71009826660156 715.1712646484375L190.88778686523438 717.1473388671875C191.7686767578125 717.7118530273438 192.58370971679688 718.3052978515625 193.33535766601562 718.9239501953125L196.69747924804688 721.3294677734375C196.89926147460938 721.4752807617188 197.09722900390625 721.62255859375 197.29144287109375 721.7711791992188L198.5433807373047 722.6033935546875L201.49168395996094 724.1635131835938C201.84962463378906 724.3342895507812 202.20875549316406 724.5158081054688 202.56895446777344 724.7081298828125L206.99832153320312 727.0567626953125C207.58193969726562 727.3692016601562 208.14027404785156 727.6951904296875 208.67385864257812 728.03369140625L211.01565551757812 729.3847045898438C211.23777770996094 729.5166015625 211.45594787597656 729.6504516601562 211.67019653320312 729.7861328125L214.55914306640625 731.3212890625C215.1180419921875 731.6245727539062 215.6534881591797 731.9402465820312 216.16595458984375 732.2673950195312L219.4623565673828 734.2055053710938C220.47280883789062 734.8126831054688 221.40110778808594 735.4586181640625 222.25059509277344 736.1378784179688L224.42391967773438 737.6202392578125L225.43836975097656 738.27783203125C225.99331665039062 738.5816650390625 226.5492706298828 738.9132690429688 227.1055908203125 739.2735595703125L230.4098358154297 741.4482421875L233.0466766357422 742.9058227539062L234.18075561523438 743.3522338867188L235.21206665039062 743.6380615234375C236.1173858642578 743.8201904296875 237.04150390625 744.0603637695312 237.9832763671875 744.3621826171875L240.7851104736328 745.3098754882812C240.88601684570312 745.3422241210938 240.98635864257812 745.375 241.08612060546875 745.4082641601562L242.65257263183594 745.8839111328125C243.73880004882812 746.1456298828125 244.84716796875 746.4967651367188 245.97483825683594 746.944091796875C246.48326110839844 747.1331176757812 246.975830078125 747.3346557617188 247.45269775390625 747.5479736328125L250.4473114013672 748.7709350585938C250.73561096191406 748.8931274414062 251.01852416992188 749.018798828125 251.29612731933594 749.14794921875L252.70213317871094 749.6715698242188L255.2618865966797 750.4690551757812L256.8615417480469 750.8369140625L259.9398193359375 751.3262329101562L262.93194580078125 751.5933837890625C263.1435546875 751.6139526367188 263.3532409667969 751.6367797851562 263.56109619140625 751.661865234375C264.59783935546875 751.6514282226562 265.67254638671875 751.7091674804688 266.7844543457031 751.840576171875L269.16888427734375 752.1522216796875C269.7660827636719 752.2064819335938 270.37335205078125 752.2852783203125 270.990478515625 752.3895874023438C272.2688293457031 752.5692749023438 273.4744567871094 752.8333129882812 274.60833740234375 753.1729125976562L276.1994323730469 753.5299072265625C276.4945068359375 753.6038208007812 276.78509521484375 753.681884765625 277.07122802734375 753.763916015625L278.6098327636719 754.086181640625L280.54638671875 754.4158325195312L284.2709655761719 754.82177734375L288.18963623046875 755.1368408203125Q288.49969482421875 755.1622314453125 288.80450439453125 755.1941528320312L288.91473388671875 755.199951171875C289.97222900390625 755.1956176757812 291.06768798828125 755.2652587890625 292.2001037597656 755.4152221679688C293.14105224609375 755.5186157226562 294.0445251464844 755.6703491210938 294.91064453125 755.8666381835938L298.1608581542969 756.4347534179688C298.56878662109375 756.5037231445312 298.968994140625 756.5809326171875 299.3615417480469 756.666015625L302.48748779296875 757.221435546875C302.65826416015625 757.245849609375 302.829833984375 757.2720336914062 303.00225830078125 757.300048828125L306.50421142578125 757.8986206054688C306.8644104003906 757.9381713867188 307.228515625 757.98583984375 307.596435546875 758.0416870117188L308.99017333984375 758.2680053710938C309.2176208496094 758.2924194335938 309.4466247558594 758.3199462890625 309.6772155761719 758.3507080078125L311.65576171875 758.6411743164062L312.3106689453125 758.6939086914062L315.0499572753906 758.467529296875L318.8236389160156 757.9991455078125C319.7953796386719 757.825439453125 320.81121826171875 757.7073974609375 321.871337890625 757.6497802734375C322.4736328125 757.6036376953125 323.0644226074219 757.5796508789062 323.6436462402344 757.576904296875L324.9532165527344 757.5253295898438C325.817626953125 757.45263671875 326.7120056152344 757.4251098632812 327.63604736328125 757.4461669921875C328.2427062988281 757.449462890625 328.83599853515625 757.4738159179688 329.4158630371094 757.5183715820312L332.2276306152344 757.6419677734375C332.9531555175781 757.6331176757812 333.6976623535156 757.6559448242188 334.4610595703125 757.7120971679688L338.99444580078125 758.0867309570312C339.171630859375 758.0973510742188 339.3498229980469 758.1098022460938 339.5290832519531 758.1240844726562L344.2056579589844 758.43310546875H344.42584228515625L346.1422119140625 758.268310546875Q346.1967468261719 758.2633056640625 346.2394714355469 758.2595825195312C346.47222900390625 758.211669921875 346.7076416015625 758.16650390625 346.9456787109375 758.1240844726562L348.4722595214844 757.887451171875C348.9150390625 757.791259765625 349.3675842285156 757.7052001953125 349.8299255371094 757.629638671875L353.291015625 757.0734252929688C353.7029724121094 757.0061645507812 354.11016845703125 756.9493408203125 354.5126037597656 756.902587890625L357.47314453125 756.49658203125C358.3806457519531 756.3763427734375 359.26397705078125 756.3056030273438 360.1226806640625 756.28125L362.7000427246094 756.0338134765625L362.750732421875 756.0222778320312C363.97930908203125 755.645263671875 365.2926025390625 755.361572265625 366.691650390625 755.1832885742188C367.84112548828125 754.9996337890625 368.955078125 754.9019775390625 370.0318908691406 754.8836059570312L370.7761535644531 754.8228759765625C371.3841247558594 754.7536010742188 372.00787353515625 754.7056884765625 372.6471252441406 754.6802978515625C373.13348388671875 754.654052734375 373.6119689941406 754.6415405273438 374.08258056640625 754.642333984375L375.4049377441406 754.6092529296875L376.9005432128906 754.4021606445312C377.0234375 754.3784790039062 377.14703369140625 754.3555297851562 377.2713928222656 754.3333740234375L380.4497375488281 753.809326171875C380.8056335449219 753.7371215820312 381.1676940917969 753.6713256835938 381.53594970703125 753.6123046875L384.155029296875 753.1710815429688C384.6895446777344 753.0625610351562 385.2380065917969 752.9690551757812 385.8005065917969 752.8912963867188L387.2568359375 752.6846923828125C387.87908935546875 752.5673828125 388.5198059082031 752.4710693359375 389.1791687011719 752.3968505859375L391.6083068847656 752.1708374023438L392.00518798828125 752.096923828125L393.4237365722656 751.6956176757812L394.64013671875 751.2147216796875C395.2354736328125 750.870849609375 395.85968017578125 750.5433959960938 396.51336669921875 750.233642578125L398.2792663574219 749.39453125L401.0884704589844 747.8338623046875L401.1072998046875 747.8228149414062L403.74456787109375 746.2781372070312C403.9609069824219 746.1502685546875 404.1770324707031 746.0265502929688 404.3929138183594 745.9069213867188L406.5738830566406 744.6041870117188L409.7808837890625 742.5079956054688C410.2633361816406 742.19140625 410.74566650390625 741.896728515625 411.2273864746094 741.6232299804688L411.4112548828125 741.5046997070312C412.03851318359375 741.0656127929688 412.7033386230469 740.64404296875 413.4067687988281 740.2418212890625L413.5885314941406 740.1392822265625C413.7289733886719 740.058349609375 413.86932373046875 739.9791870117188 414.0096130371094 739.9017944335938L414.6246032714844 739.5548706054688C414.7259521484375 739.4881591796875 414.82818603515625 739.421875 414.9313049316406 739.35595703125L416.29052734375 738.5096435546875L417.2530212402344 737.7282104492188L418.4673156738281 736.5493774414062L419.2181396484375 735.7565307617188C420.0496826171875 734.7291870117188 421.0078125 733.7284545898438 422.1006774902344 732.763427734375L423.4621887207031 731.615478515625L425.3145446777344 729.6319580078125Q425.45501708984375 729.4874267578125 425.59625244140625 729.3463134765625L427.0045471191406 727.7783203125L427.04400634765625 727.733642578125L428.8580627441406 725.6764526367188C429.27813720703125 725.2047729492188 429.7048034667969 724.7583618164062 430.13739013671875 724.3366088867188C430.991455078125 723.4019165039062 431.9618835449219 722.5027465820312 433.0552978515625 721.648681640625L433.5745544433594 720.4342651367188C433.6316223144531 720.2974853515625 433.690185546875 720.1604614257812 433.75030517578125 720.0232543945312L433.8436584472656 719.804931640625C434.2335205078125 718.9160766601562 434.65667724609375 718.0791625976562 435.1097717285156 717.292724609375L435.9932861328125 715.604248046875L437.30474853515625 712.57373046875C437.39971923828125 712.3589477539062 437.49664306640625 712.1471557617188 437.5954895019531 711.9384155273438L438.2098388671875 710.5193481445312C438.35650634765625 710.1282958984375 438.51483154296875 709.7349243164062 438.68505859375 709.3392944335938L439.7275390625 706.9725952148438L441.1778564453125 702.9939575195312C441.3691711425781 702.4548950195312 441.5733642578125 701.9330444335938 441.7897644042969 701.4281616210938L441.9923400878906 700.9053955078125C442.29461669921875 699.953125 442.6671447753906 698.9867553710938 443.11444091796875 698.0083618164062L443.9875793457031 696.1430053710938Q444.0344543457031 696.025146484375 444.08270263671875 695.906982421875L445.2776184082031 692.9197387695312C445.4731750488281 692.4409790039062 445.6785583496094 691.9767456054688 445.8932800292969 691.52685546875L446.55096435546875 689.9869384765625C446.7933349609375 689.3358154296875 447.0688781738281 688.6788330078125 447.37896728515625 688.0165405273438L448.98590087890625 684.555419921875C449.3465270996094 683.786376953125 449.7317199707031 683.057861328125 450.1392822265625 682.3687744140625L451.23150634765625 680.2908935546875C451.3235778808594 680.1204223632812 451.4167785644531 679.9521484375 451.5111389160156 679.7860717773438L452.0650329589844 678.5702514648438L452.8090515136719 676.7279052734375L453.3594970703125 674.9740600585938C453.454345703125 673.9271850585938 453.6289367675781 672.8521118164062 453.8896789550781 671.7512817382812C454.22637939453125 670.0648803710938 454.712158203125 668.5164184570312 455.32476806640625 667.1027221679688L455.9809265136719 665.1177978515625L456.2756042480469 663.8536376953125L456.63629150390625 661.8057861328125L456.89666748046875 659.5147705078125L457.10296630859375 656.0632934570312C457.1098327636719 655.9617919921875 457.1172180175781 655.8607177734375 457.1251525878906 655.760009765625L457.1853942871094 653.8176879882812C457.1943664550781 653.6399536132812 457.20501708984375 653.4634399414062 457.2173156738281 653.2881469726562L457.2677917480469 651.7987060546875V649.7179565429688C457.27117919921875 649.5310668945312 457.27642822265625 649.3453979492188 457.2835388183594 649.1611938476562C457.2130432128906 647.730712890625 457.27728271484375 646.2252807617188 457.4924011230469 644.6473999023438C457.5630798339844 643.9844970703125 457.6593933105469 643.3401489257812 457.7799072265625 642.7141723632812L458.1083984375 640.5179443359375L458.2189025878906 638.0316772460938L458.16754150390625 634.8724975585938C458.1623840332031 634.77392578125 458.1577453613281 634.6749877929688 458.1536560058594 634.57568359375L457.9888610839844 629.8372802734375L457.7622375488281 624.6868896484375C457.7550964355469 624.5258178710938 457.74945068359375 624.3655395507812 457.7452087402344 624.2062377929688L457.597412109375 620.751953125C457.5890197753906 620.5330810546875 457.5833435058594 620.31591796875 457.5802917480469 620.100341796875L457.5150146484375 617.9295043945312C457.5086975097656 617.7501831054688 457.504150390625 617.5719604492188 457.50140380859375 617.3948364257812L457.4766845703125 616.57275390625L456.8763732910156 612.28466796875C456.8510437011719 612.1028442382812 456.82769775390625 611.9219970703125 456.8063049316406 611.7421264648438L456.3274841308594 609.0565795898438C456.1977844238281 608.4871826171875 456.08514404296875 607.9014282226562 455.990478515625 607.299072265625L455.24884033203125 602.64306640625C455.12823486328125 601.875732421875 455.0436096191406 601.125 454.9931335449219 600.3912353515625L454.7176208496094 598.1279296875L453.72430419921875 593.7843017578125C453.5764465332031 593.0975952148438 453.4585876464844 592.4226684570312 453.36944580078125 591.7598876953125L452.8022155761719 589.0509033203125C452.758056640625 588.8858642578125 452.7151794433594 588.7194213867188 452.6736145019531 588.551513671875L451.7745056152344 584.6134643554688L450.75897216796875 581.4686279296875L450.7576599121094 581.4645385742188L450.7419738769531 581.416015625L449.8500061035156 578.6551513671875C449.8296813964844 578.6029052734375 449.8094482421875 578.5504760742188 449.78936767578125 578.4978637695312L448.8221740722656 575.9896850585938L448.01763916015625 574.3157348632812C447.9402770996094 574.1547241210938 447.8649597167969 573.9939575195312 447.7917175292969 573.8335571289062L446.9950866699219 572.2149658203125L446.85906982421875 571.9385986328125L446.8021240234375 571.8229370117188C446.5070495605469 571.2278442382812 446.24066162109375 570.6364135742188 446.0019836425781 570.0492553710938L445.2776184082031 568.4442138671875L445.25482177734375 568.3905639648438C444.654541015625 567.4636840820312 444.0969543457031 566.4594116210938 443.5882568359375 565.3745727539062L442.8218078613281 563.6763305664062L442.7847900390625 563.6028442382812L441.7811279296875 561.6124877929688C441.1884765625 560.7164306640625 440.6352844238281 559.7463989257812 440.1271667480469 558.6996459960938L440.0267333984375 558.490234375C439.900146484375 558.2374267578125 439.7791442871094 557.985107421875 439.66363525390625 557.733154296875L439.1589050292969 556.6806640625C439.13336181640625 556.6278076171875 439.1080017089844 556.5750732421875 439.0828857421875 556.5222778320312L439.0765075683594 556.515869140625C438.6604309082031 555.6527709960938 438.3041687011719 554.7979125976562 438.0046081542969 553.9528198242188L437.6343688964844 553.0547485351562C437.43280029296875 552.5651245117188 437.249267578125 552.0791015625 437.0832214355469 551.5969848632812C436.8763122558594 551.0835571289062 436.6820373535156 550.5532836914062 436.50128173828125 550.0057373046875L436.1098327636719 548.8726196289062C435.994140625 548.5224609375 435.8870544433594 548.1746826171875 435.7884216308594 547.829345703125L435.69781494140625 547.5953369140625C435.2651672363281 546.1173706054688 434.98089599609375 544.685791015625 434.8311767578125 543.3046875L423.8176574707031 543.2504272460938C423.6243896484375 543.2518310546875 423.4297790527344 543.2511596679688 423.2337951660156 543.2483520507812L411.9199523925781 543.0072021484375C411.79803466796875 543.0060424804688 411.67559814453125 543.0040283203125 411.5526123046875 543.0011596679688L397.1305236816406 542.7080078125C396.7916259765625 542.7093505859375 396.4485778808594 542.7041015625 396.1013488769531 542.692138671875L381.3917236328125 542.1976928710938C380.6455993652344 542.17138671875 379.9207763671875 542.1152954101562 379.2171630859375 542.0311279296875L368.1153564453125 541.5250244140625C367.6919860839844 541.5194702148438 367.2622985839844 541.5034790039062 366.8263244628906 541.4766235351562L356.2768859863281 540.8428344726562L356.19586181640625 540.8379516601562L356.10888671875 540.8324584960938L347.08990478515625 540.2611083984375C346.970703125 540.25341796875 346.85205078125 540.2449340820312 346.7339782714844 540.2357788085938L342.7496337890625 540.127685546875L339.2214050292969 540.17431640625L335.03790283203125 540.50830078125C334.7887268066406 540.526611328125 334.54156494140625 540.5414428710938 334.2964172363281 540.552734375L332.4248962402344 540.7479858398438C332.03924560546875 540.8132934570312 331.6466979980469 540.870849609375 331.2471923828125 540.9203491210938L325.95538330078125 541.527587890625C325.8927917480469 541.5382690429688 325.8300476074219 541.5487670898438 325.7671203613281 541.5590209960938L320.5343017578125 542.4448852539062C320.212158203125 542.4974975585938 319.89288330078125 542.5437622070312 319.5765686035156 542.5838012695312C318.00762939453125 543.0213012695312 316.308837890625 543.296875 314.4803161621094 543.3836059570312C313.2283935546875 543.4909057617188 312.0238952636719 543.4976806640625 310.8684997558594 543.4131469726562H306.5457458496094C279.0218811035156 543.4131469726562 279.0218811035156 502.20977783203125 306.5457458496094 502.20977783203125H311.0733337402344L312.49017333984375 501.9798278808594C312.9366149902344 501.8812561035156 313.3929748535156 501.7929382324219 313.8593444824219 501.71533203125L317.4997863769531 501.1563720703125C318.2687683105469 500.9868469238281 319.0672912597656 500.8496398925781 319.8956604003906 500.7470397949219L326.1791687011719 499.9435729980469C326.9801940917969 499.8467712402344 327.7620849609375 499.7880859375 328.5245361328125 499.76544189453125L329.8929748535156 499.6291809082031C330.564208984375 499.52313232421875 331.2559509277344 499.4420471191406 331.9682312011719 499.3873291015625L335.52032470703125 499.1524963378906C336.3208923339844 499.0557556152344 337.1489562988281 498.9958801269531 338.0045471191406 498.9753112792969L341.578857421875 498.9280700683594C342.2885437011719 498.8926086425781 343.0176696777344 498.8868713378906 343.76617431640625 498.91253662109375C343.7752990722656 498.912841796875 343.7844543457031 498.91314697265625 343.7936096191406 498.9130859375C343.9234619140625 498.915771484375 344.05267333984375 498.9194030761719 344.1812744140625 498.92401123046875L349.1088562011719 499.0577087402344C349.9593505859375 499.08770751953125 350.7821044921875 499.1563720703125 351.57720947265625 499.26123046875L358.77105712890625 499.7169494628906L369.3191223144531 500.3556213378906C369.4736328125 500.3651428222656 369.627197265625 500.37591552734375 369.7798156738281 500.3879089355469L383.0810546875 500.9942626953125C383.24285888671875 501.0019226074219 383.40362548828125 501.0109558105469 383.5633850097656 501.0213623046875L397.5640563964844 501.48870849609375C397.653076171875 501.4917907714844 397.7418212890625 501.49530029296875 397.8302307128906 501.49920654296875L412.4385070800781 501.7977294921875Q412.57275390625 501.80084228515625 412.70611572265625 501.80523681640625L423.8724365234375 502.0449523925781L423.9483642578125 502.046142578125L440.3743896484375 502.126953125L440.4568176269531 502.1278076171875L440.5596618652344 502.1283874511719L454.9397888183594 502.2093200683594L455.022216796875 502.20977783203125H500.9631652832031C501.3359680175781 502.2018127441406 501.7139587402344 502.20172119140625 502.09710693359375 502.20977783203125L507.2475280761719 502.29217529296875C508.0965576171875 502.3119201660156 508.91845703125 502.37054443359375 509.71331787109375 502.46551513671875L510.56646728515625 502.5327453613281C511.7953186035156 502.538330078125 513.0736083984375 502.64556884765625 514.3993530273438 502.864501953125C515.2659301757812 502.9866027832031 516.0990600585938 503.14959716796875 516.8990478515625 503.35052490234375L519.629150390625 503.89910888671875C520.8984985351562 504.1521911621094 522.0903930664062 504.4828796386719 523.2064819335938 504.8826904296875C524.4050903320312 505.2368469238281 525.6201782226562 505.7102966308594 526.8457641601562 506.3130187988281C528.7224731445312 507.14129638671875 530.3594360351562 508.1423645019531 531.7697143554688 509.2781677246094C551.6246337890625 523.66552734375 532.4730224609375 555.6822509765625 510.02386474609375 544.056884765625L508.33367919921875 543.7250366210938L505.2285461425781 543.49560546875C505.13714599609375 543.4888305664062 505.0461120605469 543.481689453125 504.95538330078125 543.4740600585938L501.2112121582031 543.4131469726562H478.82183837890625C478.9648132324219 543.7107543945312 479.1001892089844 544.0078125 479.2280578613281 544.3041381835938L479.6412353515625 545.1025390625C479.91949462890625 545.65673828125 480.1726379394531 546.2078247070312 480.4015808105469 546.7554321289062L480.4561462402344 546.8720703125C480.9963684082031 547.7152099609375 481.5022277832031 548.6217041015625 481.96923828125 549.5936889648438L482.8551025390625 551.4478149414062C483.1566467285156 552.0786743164062 483.4264221191406 552.7050170898438 483.6656494140625 553.3262939453125L484.0315246582031 554.1441040039062L484.90496826171875 555.9326782226562C484.97796630859375 556.0775146484375 485.0500793457031 556.2238159179688 485.1213073730469 556.3716430664062L485.18963623046875 556.5171508789062L485.3454284667969 556.8488159179688L485.76788330078125 557.7482299804688C486.26348876953125 558.6713256835938 486.7158508300781 559.6607666015625 487.1196594238281 560.7186279296875L487.1627197265625 560.83447265625C487.287353515625 561.1500244140625 487.4040832519531 561.46435546875 487.5130615234375 561.7772827148438L487.7186584472656 562.3305053710938C488.06622314453125 563.1173095703125 488.382568359375 563.9462890625 488.664794921875 564.818359375L489.9421081542969 568.835693359375L491.239990234375 572.7705688476562C491.57611083984375 573.8117065429688 491.8366394042969 574.8314819335938 492.02655029296875 575.8281860351562L492.7645263671875 578.806884765625C492.9461364746094 579.5499877929688 493.091552734375 580.2799682617188 493.2025146484375 580.9964599609375L493.7737121582031 583.8947143554688C493.8697509765625 584.2587890625 493.9591979980469 584.6298828125 494.0418395996094 585.0079956054688L494.80517578125 588.5888061523438C495.08837890625 589.6214599609375 495.3100891113281 590.7117919921875 495.4639892578125 591.8604736328125C495.5622863769531 592.4852294921875 495.6351318359375 593.0995483398438 495.68365478515625 593.703125L496.00787353515625 596.4649658203125L496.699462890625 600.871337890625C496.73175048828125 601.07666015625 496.761474609375 601.2807006835938 496.78863525390625 601.483642578125L497.5853271484375 605.85693359375C497.7170104980469 606.6047973632812 497.8139343261719 607.3374633789062 497.8778076171875 608.0545043945312L498.0411071777344 609.2023315429688C498.38140869140625 610.68359375 498.58624267578125 612.2739868164062 498.6360168457031 613.9739990234375L498.7015380859375 616.1527099609375C498.7080993652344 616.2841796875 498.7137145996094 616.4163818359375 498.7184143066406 616.5491943359375L498.78558349609375 618.7826538085938C498.7913513183594 618.8961181640625 498.7964172363281 619.010009765625 498.8008117675781 619.1244506835938L498.8797607421875 622.8336181640625L498.88323974609375 622.9151611328125L499.1015625 627.8768310546875L499.10986328125 628.0655517578125L499.3570861816406 632.8245849609375C499.3800964355469 633.3820190429688 499.3856506347656 633.9288330078125 499.3744201660156 634.4650268554688L499.4394836425781 638.53125C499.45684814453125 639.6883544921875 499.4002380371094 640.797607421875 499.27581787109375 641.8589477539062C499.2767639160156 642.76123046875 499.2254638671875 643.691650390625 499.1181640625 644.6495361328125C499.0447998046875 645.4225463867188 498.93927001953125 646.1707763671875 498.8034362792969 646.894287109375L498.5119934082031 648.8760375976562L498.47540283203125 650.0560913085938C498.47491455078125 650.1831665039062 498.4735107421875 650.310791015625 498.47119140625 650.4390258789062V651.3699340820312C498.4898376464844 651.9335327148438 498.4901123046875 652.5090942382812 498.47119140625 653.0966186523438L498.4188232421875 654.62841796875C498.41802978515625 655.0255126953125 498.4081115722656 655.4282836914062 498.3887939453125 655.836669921875L498.2796630859375 657.541748046875C498.2713317871094 657.956298828125 498.25286865234375 658.3767700195312 498.2239685058594 658.8032836914062L498.0617980957031 661.57470703125C498.0470886230469 661.9937744140625 498.0216064453125 662.418701171875 497.98504638671875 662.8494873046875C497.9195556640625 663.7326049804688 497.81292724609375 664.584228515625 497.66796875 665.4044189453125L497.5896301269531 665.9887084960938C497.5276794433594 666.7944946289062 497.4240417480469 667.6202392578125 497.27630615234375 668.4655151367188L496.699462890625 672.0089721679688C496.49383544921875 673.1819458007812 496.2207336425781 674.2908325195312 495.8868103027344 675.3367919921875L495.6487731933594 676.35595703125C495.42413330078125 677.2280883789062 495.163818359375 678.0606689453125 494.8706970214844 678.8543701171875L494.7818603515625 679.1539306640625L494.6683349609375 679.53662109375L494.5362854003906 679.9818725585938C494.4435729980469 680.2688598632812 494.3471374511719 680.5511474609375 494.2471008300781 680.8287963867188L494.2187805175781 680.9136962890625L494.2066345214844 681.011962890625C494.0762634277344 681.9329223632812 493.903564453125 682.8160400390625 493.69171142578125 683.6618041992188C493.53875732421875 684.47314453125 493.3397216796875 685.3001098632812 493.0920104980469 686.1419067382812C492.9350280761719 686.7151489257812 492.7615661621094 687.270751953125 492.5725402832031 687.8088989257812L492.2874450683594 688.71728515625C492.22979736328125 688.90966796875 492.1694030761719 689.1026611328125 492.1062316894531 689.29638671875C491.76300048828125 690.4154663085938 491.3623046875 691.46484375 490.9103088378906 692.4461059570312L490.5208435058594 693.426025390625L490.271728515625 694.0527954101562L490.2694091796875 694.05859375C489.9436340332031 694.8778686523438 489.588623046875 695.6553344726562 489.20709228515625 696.3917236328125L488.0055236816406 698.9559936523438C487.6850280761719 699.6282348632812 487.3459167480469 700.269287109375 486.9896240234375 700.8798217773438L485.84234619140625 703.0763549804688L485.825927734375 703.1068115234375L484.7092590332031 705.5691528320312Q484.63323974609375 705.7313232421875 484.55572509765625 705.8910522460938L483.5877990722656 708.1456298828125C483.537109375 708.2754516601562 483.48516845703125 708.405517578125 483.43194580078125 708.5358276367188L482.6319274902344 710.44775390625C482.41143798828125 711.0416259765625 482.1634216308594 711.640625 481.8868408203125 712.244140625L480.8856201171875 714.4437866210938L480.0824890136719 716.516357421875C480.0461120605469 716.6234741210938 480.0088806152344 716.7307739257812 479.9708557128906 716.8383178710938L479.0656433105469 719.3754272460938C478.7894592285156 720.307861328125 478.4470520019531 721.2550659179688 478.0343017578125 722.21533203125L477.0235595703125 724.510009765625C476.8896789550781 724.869384765625 476.7459716796875 725.2307739257812 476.5921936035156 725.593994140625L475.12945556640625 728.9727172851562C474.9455261230469 729.4042358398438 474.753662109375 729.82373046875 474.5542907714844 730.2312622070312L473.44012451171875 732.8458251953125C473.0262451171875 733.7818603515625 472.57537841796875 734.6597900390625 472.0914001464844 735.4814453125L471.55499267578125 736.5543212890625L471.0059814453125 737.7521362304688C470.5838928222656 738.8657836914062 470.0587158203125 739.9923706054688 469.42279052734375 741.127685546875L469.351318359375 741.2498168945312C469.2240295410156 741.4861450195312 469.0941467285156 741.7180786132812 468.961669921875 741.9457397460938C468.8846740722656 742.100830078125 468.80560302734375 742.256103515625 468.7244567871094 742.4114990234375C467.9792785644531 744.1873168945312 466.93353271484375 745.9415893554688 465.5517272949219 747.63818359375C464.26397705078125 749.4140625 462.8296813964844 750.8757934570312 461.2944641113281 752.048828125C460.4847106933594 752.7772216796875 459.6609802246094 753.4264526367188 458.8271789550781 754.0005493164062L458.8111877441406 754.0186767578125C458.43292236328125 754.5046997070312 458.0285949707031 754.987548828125 457.597412109375 755.4664916992188L456.22296142578125 756.9317016601562C455.82220458984375 757.4092407226562 455.3947448730469 757.8825073242188 454.9397888183594 758.3507080078125L452.61181640625 760.7611083984375C451.7967224121094 761.599853515625 450.9626770019531 762.3511352539062 450.1142578125 763.019287109375L449.9002990722656 763.20703125L449.04339599609375 764.1119384765625C448.5547790527344 764.6715698242188 448.02789306640625 765.2238159179688 447.4613952636719 765.767333984375L446.212158203125 766.970947265625C445.31256103515625 767.974365234375 444.28271484375 768.9431762695312 443.11444091796875 769.8670654296875L442.2303771972656 770.5430908203125C441.4815368652344 771.1867065429688 440.66607666015625 771.804443359375 439.7814025878906 772.39208984375C439.2401123046875 772.771484375 438.6968078613281 773.1210327148438 438.1524963378906 773.441650390625L437.6265869140625 773.7794189453125L437.2803039550781 774.0018310546875L437.078125 774.1316528320312C436.3516540527344 774.5975952148438 435.62603759765625 775.0144653320312 434.9026794433594 775.3844604492188L433.967041015625 775.9157104492188L433.359375 776.294921875C433.04937744140625 776.5184936523438 432.7301330566406 776.7382202148438 432.40155029296875 776.9540405273438L429.78472900390625 778.6842651367188C429.1452331542969 779.1426391601562 428.46588134765625 779.5829467773438 427.74554443359375 780.0031127929688C427.3179626464844 780.2599487304688 426.8907165527344 780.4999389648438 426.4640808105469 780.7234497070312L425.0492858886719 781.5186767578125C424.95306396484375 781.5769653320312 424.8560485839844 781.6348876953125 424.75830078125 781.6924438476562L422.96923828125 782.7535400390625C422.51300048828125 783.0543823242188 422.0381774902344 783.346435546875 421.54443359375 783.6290283203125L419.6385498046875 784.7003173828125C418.8811340332031 785.174072265625 418.0734558105469 785.6201171875 417.2141418457031 786.0350341796875C416.7665100097656 786.261474609375 416.32037353515625 786.470703125 415.87591552734375 786.6632690429688L414.5851745605469 787.2674560546875L414.3521423339844 787.3868408203125C413.171630859375 788.1154174804688 411.869384765625 788.76953125 410.44012451171875 789.335693359375L409.0498962402344 789.8853149414062C408.5307922363281 790.1115112304688 407.99334716796875 790.3232421875 407.43743896484375 790.5196533203125C406.2545471191406 790.9674072265625 405.09442138671875 791.3111572265625 403.9600830078125 791.5585327148438L402.7144775390625 791.910888671875C401.5131530761719 792.250244140625 400.3432922363281 792.4925537109375 399.2070007324219 792.6452026367188C398.2961120605469 792.8530883789062 397.34344482421875 793.0147705078125 396.34857177734375 793.1264038085938L394.0596923828125 793.3278198242188L392.9763488769531 793.474853515625C392.6033020019531 793.5513305664062 392.2234802246094 793.6206665039062 391.8367919921875 793.6826171875L389.2679748535156 794.0616455078125C388.97479248046875 794.1250610351562 388.6773986816406 794.1842041015625 388.3757019042969 794.2388916015625L384.6055908203125 794.8981323242188C383.96392822265625 795.0125122070312 383.3333435058594 795.1012573242188 382.7140808105469 795.1656494140625L381.7742614746094 795.3143310546875C381.1542053222656 795.439453125 380.51568603515625 795.5409545898438 379.858642578125 795.6173095703125L379.8465881347656 795.6192016601562C378.0931091308594 795.8729248046875 376.4283142089844 795.940673828125 374.85528564453125 795.8443603515625L374.30377197265625 795.858154296875L372.7322998046875 795.9784545898438L372.0356750488281 796.1336059570312C370.8583679199219 796.4868774414062 369.60394287109375 796.7546997070312 368.2715148925781 796.9264526367188C367.0707092285156 797.1209716796875 365.9084777832031 797.2216186523438 364.7865295410156 797.236083984375L362.9015808105469 797.3868408203125L362.87078857421875 797.3909301757812L359.5708312988281 797.7554931640625L358.08740234375 798.0027465820312C357.65191650390625 798.1039428710938 357.20684814453125 798.1954345703125 356.7521057128906 798.2767944335938L354.9300537109375 798.545166015625C354.5553894042969 798.6209716796875 354.1738586425781 798.6895751953125 353.78546142578125 798.7506713867188L352.58526611328125 798.9426879882812C351.90911865234375 799.0773315429688 351.21075439453125 799.1863403320312 350.4902038574219 799.2681884765625C349.9215087890625 799.3436279296875 349.3622131347656 799.3990478515625 348.8125 799.4352416992188C348.00836181640625 799.5406494140625 347.1763000488281 799.6067504882812 346.31646728515625 799.6307373046875C345.3936767578125 799.6821899414062 344.4989929199219 799.6829833984375 343.6327819824219 799.6365356445312H343.3428649902344C343.1583557128906 799.6386108398438 342.9726257324219 799.6386108398438 342.78564453125 799.6365356445312H342.1866760253906C341.0914001464844 799.6176147460938 340.0409851074219 799.5338134765625 339.0353698730469 799.390380859375L336.3152160644531 799.1627197265625C336.2048645019531 799.154296875 336.0950012207031 799.1452026367188 335.9856262207031 799.135498046875L331.4119873046875 798.8330688476562C331.2102355957031 798.8182373046875 331.0101013183594 798.80126953125 330.8116455078125 798.7822265625L327.1488342285156 798.6212158203125L324.83074951171875 798.7139282226562L320.8082580566406 799.264404296875L319.9184265136719 799.3861694335938L319.8956604003906 799.3892822265625C319.1876525878906 799.4815063476562 318.4944763183594 799.5436401367188 317.81634521484375 799.5771484375L316.5949401855469 799.6781005859375C315.1253662109375 799.9322509765625 313.56097412109375 800.0415649414062 311.9037170410156 799.9857177734375C310.7068786621094 799.9895629882812 309.5605163574219 799.9064331054688 308.4654541015625 799.7442626953125C307.811767578125 799.7078857421875 307.14434814453125 799.6448974609375 306.4633483886719 799.5541381835938L304.1971435546875 799.2451171875C303.7027282714844 799.1776733398438 303.2190856933594 799.0979614257812 302.7462158203125 799.0065307617188L301.47772216796875 798.8330688476562C300.82061767578125 798.7340698242188 300.1830139160156 798.6136474609375 299.564697265625 798.4730224609375L298.2915344238281 798.2608642578125C297.54351806640625 798.193115234375 296.7787780761719 798.0892333984375 295.9976806640625 797.9472045898438L292.1009216308594 797.1904296875C291.8226013183594 797.1522827148438 291.5420227050781 797.1092529296875 291.25927734375 797.0613403320312L287.28564453125 796.3582153320312L286.9754333496094 796.3419799804688C286.29766845703125 796.3419799804688 285.6036071777344 796.3143920898438 284.89337158203125 796.2578735351562L281.9364318847656 796.0201416015625C281.32733154296875 795.9921875 280.70599365234375 795.9412231445312 280.07257080078125 795.8663940429688L279.5314025878906 795.7945556640625L279.4100646972656 795.7784423828125L277.38665771484375 795.5099487304688C276.5329284667969 795.4566650390625 275.65631103515625 795.3567504882812 274.75732421875 795.2071533203125L270.8841857910156 794.5685424804688C269.96478271484375 794.4127197265625 269.0843811035156 794.2155151367188 268.2425231933594 793.97998046875L266.7844543457031 793.6826171875C266.036865234375 793.5211181640625 265.31689453125 793.3328247070312 264.6241455078125 793.119384765625L264.4858703613281 793.0850219726562L262.2873229980469 792.833740234375L259.7798767089844 792.71435546875C259.0830993652344 792.675537109375 258.4054870605469 792.6110229492188 257.7469787597656 792.522216796875L255.5153350830078 792.3229370117188C254.7167205810547 792.245361328125 253.94476318359375 792.1351318359375 253.19927978515625 791.9943237304688L250.36489868164062 791.6018676757812C249.1749267578125 791.4210205078125 248.04898071289062 791.169677734375 246.98602294921875 790.854736328125L244.90545654296875 790.3863525390625C243.783203125 790.1224365234375 242.7244110107422 789.7989501953125 241.7277069091797 789.4217529296875L240.20724487304688 788.9404296875C239.73480224609375 788.8050537109375 239.25831604003906 788.6528930664062 238.77809143066406 788.483642578125C237.794189453125 788.153076171875 236.86624145507812 787.7781982421875 235.9928741455078 787.3634643554688L235.9100799560547 787.3287963867188C235.42367553710938 787.1575317382812 234.93348693847656 786.96826171875 234.43978881835938 786.760498046875L231.41407775878906 785.4682006835938L228.48590087890625 784.5972900390625C228.2608642578125 784.5281982421875 228.0386505126953 784.4568481445312 227.81924438476562 784.3832397460938L225.4774627685547 783.6482543945312L224.59988403320312 783.4276733398438C223.76443481445312 783.2637329101562 222.9147186279297 783.0471801757812 222.05203247070312 782.7748413085938C220.6328887939453 782.3670654296875 219.32330322265625 781.8634643554688 218.1199188232422 781.2769165039062L217.90061950683594 781.18896484375C217.08297729492188 780.9072875976562 216.2572784423828 780.571044921875 215.4251708984375 780.17724609375C214.4418182373047 779.7407836914062 213.52345275878906 779.2605590820312 212.6682586669922 778.7415771484375L210.04737854003906 777.3455200195312C208.91519165039062 776.7301635742188 207.87908935546875 776.0640258789062 206.93502807617188 775.3546752929688L205.20755004882812 774.2119140625C205.0765838623047 774.1317749023438 204.94558715820312 774.050048828125 204.81454467773438 773.966796875L202.87933349609375 772.75732421875C202.29510498046875 772.4168090820312 201.71067810058594 772.0443115234375 201.12684631347656 771.6387939453125L201.08441162109375 771.609130859375L200.66281127929688 771.314453125L197.85618591308594 769.3527221679688L194.12225341796875 767.1270751953125C193.96441650390625 767.0320434570312 193.80859375 766.93603515625 193.65476989746094 766.839111328125L192.3184814453125 766.1032104492188C191.55007934570312 765.7477416992188 190.7773895263672 765.34130859375 190.00192260742188 764.8814697265625L187.4581298828125 763.3486328125L183.1621551513672 761.0907592773438Q183.0205078125 761.0149536132812 182.8808135986328 760.9380493164062L178.75338745117188 758.7627563476562C177.38558959960938 758.0475463867188 176.15513610839844 757.2568969726562 175.05523681640625 756.40380859375L174.470947265625 756.015380859375C173.85818481445312 755.64892578125 173.2457733154297 755.2466430664062 172.6346893310547 754.8072509765625L167.93328857421875 751.4434814453125L165.8557891845703 750.1079711914062C164.73336791992188 749.5079345703125 163.6214599609375 748.7822265625 162.52880859375 747.9215698242188C160.9835205078125 746.8023681640625 159.6697235107422 745.5863037109375 158.57077026367188 744.2994995117188L157.88119506835938 743.640380859375C157.17678833007812 743.0547485351562 156.48318481445312 742.4103393554688 155.8031005859375 741.7045288085938L152.09201049804688 737.8553466796875L149.7667999267578 735.8948974609375C149.4157257080078 735.5963745117188 149.07806396484375 735.2940063476562 148.7535400390625 734.9880981445312L146.82958984375 733.3958740234375C146.30801391601562 733.0020751953125 145.78973388671875 732.5787353515625 145.27561950683594 732.124755859375L142.96710205078125 730.0592041015625C142.6856231689453 729.8697509765625 142.4044189453125 729.6724243164062 142.12356567382812 729.4671630859375L140.38619995117188 728.1517333984375C139.70486450195312 727.697509765625 139.0267333984375 727.1958618164062 138.35345458984375 726.6447143554688L135.98480224609375 724.6757202148438C135.53587341308594 724.3375854492188 135.08914184570312 723.977783203125 134.6451416015625 723.5956420898438L130.56141662597656 720.0529174804688C130.39096069335938 719.91845703125 130.22079467773438 719.7808837890625 130.05096435546875 719.64013671875L125.52679443359375 715.8450927734375C125.4002914428711 715.7452392578125 125.27394104003906 715.6436767578125 125.14776611328125 715.5404052734375L120.95094299316406 712.0892944335938C120.54864501953125 711.7809448242188 120.14823913574219 711.4550170898438 119.75011444091797 711.1110229492188L117.09249877929688 708.8654174804688C116.39418029785156 708.2614135742188 115.74980163574219 707.642333984375 115.1573257446289 707.0106201171875L115.0244140625 706.8859252929688C114.55484771728516 706.4739990234375 114.09024810791016 706.0353393554688 113.63141632080078 705.5691528320312L111.13860321044922 703.0763549804688C110.80765533447266 702.73828125 110.4911117553711 702.3975219726562 110.18867492675781 702.0542602539062L108.69440460205078 700.46435546875C108.54707336425781 700.314697265625 108.40038299560547 700.1621704101562 108.2543716430664 700.0067138671875L105.44880676269531 697.0404052734375C104.89752197265625 696.5172729492188 104.3557357788086 695.9544677734375 103.82500457763672 695.3507080078125L101.18006896972656 692.2862548828125C100.93228149414062 692.0101318359375 100.68714141845703 691.7249755859375 100.44481658935547 691.4306640625C100.16870880126953 691.1007080078125 99.90470886230469 690.7691040039062 99.65274047851562 690.4361572265625L98.20458221435547 688.6068725585938C97.75995635986328 688.0907592773438 97.32565307617188 687.5440673828125 96.90283203125 686.9658203125L94.86358642578125 684.1687622070312C94.25411987304688 683.4262084960938 93.6690673828125 682.6219482421875 93.11212158203125 681.7536010742188L90.76582336425781 678.0443725585938C90.45649719238281 677.5844116210938 90.15617370605469 677.1051635742188 89.8655014038086 676.6063232421875C89.74535369873047 676.4053955078125 89.62882232666016 676.204345703125 89.51593780517578 676.0034790039062L87.57025909423828 672.6476440429688C87.38912963867188 672.3341674804688 87.216552734375 672.0213012695312 87.05237579345703 671.7090454101562L86.25242614746094 670.3484497070312C85.87503051757812 669.8038330078125 85.51045227050781 669.2313232421875 85.15985870361328 668.6303100585938L82.79718017578125 664.4556884765625C82.55476379394531 664.0611572265625 82.31897735595703 663.653564453125 82.0902099609375 663.232666015625L79.66801452636719 658.8125610351562L77.51663208007812 655.2598266601562C76.77005004882812 654.041259765625 76.15768432617188 652.827880859375 75.66959381103516 651.6257934570312L73.97313690185547 648.1934204101562C73.69023132324219 647.610107421875 73.43461608886719 647.030517578125 73.20530700683594 646.4551391601562L71.31552124023438 642.1571044921875C70.90966033935547 641.2391967773438 70.56906127929688 640.3325805664062 70.2900161743164 639.4389038085938L69.04933166503906 636.120849609375C68.94195556640625 635.8236083984375 68.84093475341797 635.5278930664062 68.74616241455078 635.2338256835938L67.92950439453125 633.0497436523438C67.73049926757812 632.6102905273438 67.54051208496094 632.1575927734375 67.35999298095703 631.6914672851562L65.27922058105469 626.21142578125L63.35676193237305 621.2899169921875C62.8892822265625 620.270751953125 62.477115631103516 619.1787109375 62.127159118652344 618.0119018554688L60.213951110839844 611.463623046875C60.126708984375 611.1787109375 60.04335021972656 610.8893432617188 59.96398162841797 610.5953369140625L58.666072845458984 605.85693359375C58.56827163696289 605.4893798828125 58.47943115234375 605.1248779296875 58.39935302734375 604.7634887695312L56.9149284362793 599.6558227539062L55.666542053222656 595.438720703125C55.563968658447266 595.1597900390625 55.46501922607422 594.8761596679688 55.36980056762695 594.5877685546875L53.537723541259766 588.8271484375C53.45198059082031 588.5809326171875 53.369056701660156 588.3310546875 53.28902816772461 588.07763671875L52.05786895751953 584.2344360351562C51.95518493652344 583.9346313476562 51.857093811035156 583.6294555664062 51.76374816894531 583.3189086914062L51.74820327758789 583.2669677734375C51.477256774902344 582.4052124023438 51.25774383544922 581.5582885742188 51.086910247802734 580.7271728515625L50.33528137207031 577.7105102539062C50.02663040161133 576.7114868164062 49.77322006225586 575.65576171875 49.58072280883789 574.5423583984375L48.563133239746094 568.7760009765625L48.53003692626953 568.5884399414062L47.5617561340332 563.0465698242188C47.41374588012695 562.1685180664062 47.313072204589844 561.3115844726562 47.25698471069336 560.476318359375L46.94727325439453 558.1190795898438C46.83934020996094 557.552001953125 46.74858856201172 556.9695434570312 46.67588424682617 556.3716430664062L45.87241744995117 549.6760864257812C45.85181427001953 549.505615234375 45.83293914794922 549.3359985351562 45.81577682495117 549.167236328125L44.924739837646484 543.8870239257812C44.911903381347656 543.8069458007812 44.89945602416992 543.7271118164062 44.88740158081055 543.6473999023438L43.70923614501953 536.8824462890625C43.642303466796875 536.5023193359375 43.5843391418457 536.1260986328125 43.53511047363281 535.7538452148438L43.110374450683594 533.4029541015625C42.91659927368164 532.5337524414062 42.764854431152344 531.6266479492188 42.65855026245117 530.6813354492188L42.65226364135742 530.6224365234375L42.578678131103516 529.9328002929688L42.050479888916016 524.9827880859375C42.00909423828125 524.7155151367188 41.971405029296875 524.4450073242188 41.93749237060547 524.1712036132812L41.13402557373047 517.1666259765625C41.09513854980469 516.8536376953125 41.06212615966797 516.5435791015625 41.03485870361328 516.2364501953125L40.719303131103516 513.5390014648438C40.52760314941406 512.5177001953125 40.396156311035156 511.4470520019531 40.33055877685547 510.32684326171875L40.1710205078125 507.1094665527344C40.06198501586914 506.1790771484375 40.003944396972656 505.21197509765625 40.00093078613281 504.2081298828125V498.9753112792969L40.00095748901367 498.9271545410156C40.0009880065918 498.8951110839844 40.001014709472656 498.8630676269531 40.00093078613281 498.8310852050781V495.07818603515625C40.000144958496094 494.9834899902344 39.99985122680664 494.88848876953125 40.000064849853516 494.79315185546875C40.000186920166016 494.7383117675781 40.0004768371582 494.6833801269531 40.00093078613281 494.6283264160156L40.07604217529297 490.15924072265625C40.07559585571289 489.9339599609375 40.0780143737793 489.70684814453125 40.08333969116211 489.4779052734375L40.221920013427734 484.8874816894531C40.22032165527344 484.46685791015625 40.22895812988281 484.03985595703125 40.24815368652344 483.6064453125L40.4953727722168 477.65252685546875C40.53390121459961 476.8247375488281 40.60868835449219 476.0236511230469 40.717472076416016 475.24908447265625L40.897857666015625 473.07659912109375C40.907833099365234 472.2688903808594 40.958251953125 471.43865966796875 41.05161666870117 470.5861511230469L41.65142059326172 465.2907409667969C41.69744110107422 464.7041931152344 41.7650260925293 464.1069641113281 41.85508346557617 463.4991760253906L42.43156433105469 459.6285400390625C42.49106979370117 459.1268310546875 42.56654357910156 458.6177978515625 42.65855026245117 458.1015319824219L43.79164505004883 451.8179931640625L43.839168548583984 451.55877685546875L44.72953796386719 446.70220947265625L45.13455581665039 443.12237548828125C45.16600799560547 442.4443664550781 45.2260627746582 441.75128173828125 45.31616973876953 441.0433044433594L46.28445053100586 433.2352600097656C46.3996467590332 432.3511962890625 46.55420684814453 431.5013122558594 46.74533462524414 430.6852722167969L47.72657012939453 424.6237487792969C47.80171585083008 424.17218017578125 47.88689041137695 423.7300109863281 47.98170852661133 423.297119140625L49.023067474365234 417.6589050292969C49.04859161376953 417.4613952636719 49.07651901245117 417.2627258300781 49.10688400268555 417.06292724609375L50.301780700683594 409.1724853515625C50.50013732910156 407.8865966796875 50.78071212768555 406.6755676269531 51.13480758666992 405.53814697265625L51.737552642822266 402.9132995605469C51.813232421875 402.5503234863281 51.897891998291016 402.1841735839844 51.99171829223633 401.8150939941406C52.11783218383789 401.29461669921875 52.25695037841797 400.78802490234375 52.40846633911133 400.2951354980469L53.96353530883789 394.7254638671875C54.0753059387207 394.2850341796875 54.20056915283203 393.8403625488281 54.33971405029297 393.3915710449219L56.10606384277344 387.62152099609375L57.30636215209961 382.61688232421875C57.36343002319336 382.3811340332031 57.42313003540039 382.1482238769531 57.485408782958984 381.91815185546875L58.442928314208984 377.3220520019531C58.53647994995117 376.80279541015625 58.648338317871094 376.2768249511719 58.779151916503906 375.7442932128906C58.915077209472656 375.16168212890625 59.06757736206055 374.59625244140625 59.23579406738281 374.0478515625L60.46527862548828 369.5758972167969C60.652122497558594 368.5819091796875 60.90915298461914 367.5650634765625 61.24128723144531 366.5269470214844L63.67228698730469 358.96612548828125C63.820430755615234 358.5072326660156 63.97802734375 358.0602722167969 64.14466094970703 357.6251220703125L66.00028228759766 351.46710205078125C66.29415130615234 350.5176086425781 66.62899017333984 349.6185607910156 67.00105285644531 348.76873779296875L68.41067504882812 344.95697021484375C68.45072937011719 344.8483581542969 68.4913101196289 344.7404479980469 68.53239440917969 344.6332702636719L70.47407531738281 339.202392578125C70.66573333740234 338.5263671875 70.8907699584961 337.8417053222656 71.15070343017578 337.14892578125L73.8989028930664 329.9965515136719C73.96831512451172 329.77886962890625 74.0411148071289 329.5603332519531 74.11734771728516 329.34088134765625L76.87017822265625 321.4239807128906L78.15528106689453 316.4648132324219C78.211669921875 316.2535400390625 78.2701187133789 316.0445861816406 78.33061218261719 315.8380126953125L80.09184265136719 308.73919677734375C80.28047180175781 307.9770202636719 80.49642944335938 307.2447814941406 80.73786163330078 306.5419921875L82.41983795166016 300.62213134765625C82.45498657226562 300.50067138671875 82.49081420898438 300.3800048828125 82.52730560302734 300.2601318359375L83.61473083496094 295.9455261230469C83.64116668701172 295.8453063964844 83.6680679321289 295.7456359863281 83.6954345703125 295.646484375L84.591064453125 292.2132263183594L85.07398986816406 289.88525390625C85.12358856201172 289.2334289550781 85.19985961914062 288.5683898925781 85.30406951904297 287.8902587890625L85.40092468261719 287.345458984375C85.47484588623047 286.6549987792969 85.57940673828125 285.95062255859375 85.71611022949219 285.2326354980469L86.3547592163086 282.1011962890625C86.52656555175781 281.2016296386719 86.73767852783203 280.34075927734375 86.985107421875 279.51800537109375L87.07025146484375 279.17742919921875C87.23637390136719 278.29547119140625 87.45686340332031 277.39495849609375 87.73507690429688 276.4769287109375L88.71023559570312 273.3002624511719C88.88538360595703 272.6425476074219 89.09246063232422 271.9764404296875 89.3328628540039 271.30267333984375C89.5828628540039 270.5582580566406 89.85899353027344 269.8460998535156 90.1593017578125 269.1656494140625L90.48824310302734 268.32940673828125C90.78034973144531 267.35858154296875 91.14521026611328 266.3722839355469 91.58759307861328 265.37261962890625L92.55587005615234 263.1888122558594C92.64762878417969 262.9812927246094 92.74119567871094 262.7766418457031 92.83654022216797 262.5747985839844L93.0029067993164 262.18017578125C93.09036254882812 261.9540710449219 93.18168640136719 261.7271423339844 93.27693176269531 261.4994812011719L94.71904754638672 258.03839111328125C94.8459243774414 257.7359619140625 94.97669219970703 257.43939208984375 95.11123657226562 257.14862060546875L95.83375549316406 255.35760498046875C95.99132537841797 254.9420623779297 96.16214752197266 254.52395629882812 96.34658813476562 254.1034698486328L97.62389373779297 251.19863891601562C97.95734405517578 250.44203186035156 98.31473541259766 249.72311401367188 98.69403839111328 249.0409698486328L99.5604476928711 247.26370239257812C99.66582489013672 247.04286193847656 99.77320861816406 246.8253936767578 99.88256072998047 246.61129760742188L101.5823974609375 243.15350341796875C101.62859344482422 243.04727172851562 101.67566680908203 242.94088745117188 101.7236328125 242.8343505859375L103.78630065917969 238.18460083007812C103.8858413696289 237.95057678222656 103.98988342285156 237.71597290039062 104.09849548339844 237.4808349609375L104.15463256835938 237.3542938232422C104.56364440917969 236.4441375732422 105.00749206542969 235.58941650390625 105.4825668334961 234.78854370117188L106.94807434082031 232.02867126464844C107.17208862304688 231.5532989501953 107.41505432128906 231.07594299316406 107.67752075195312 230.59693908691406L109.30896759033203 227.6918182373047C109.55348205566406 227.18560791015625 109.81977081298828 226.67738342285156 110.1085205078125 226.16757202148438L111.8169174194336 223.2618408203125C112.0583267211914 222.7828369140625 112.31959533691406 222.30230712890625 112.60132598876953 221.8206024169922L115.25894927978516 217.2470245361328C115.54005432128906 216.76852416992188 115.83001708984375 216.30821228027344 116.12824249267578 215.86575317382812L117.58235931396484 213.4862823486328L118.46936798095703 211.94949340820312C118.86548614501953 211.18670654296875 119.31491088867188 210.42262268066406 119.82025909423828 209.65902709960938C120.11800384521484 209.1914825439453 120.42466735839844 208.74273681640625 120.73959350585938 208.31246948242188L122.01630401611328 206.4517364501953C122.7989730834961 205.31903076171875 123.6277084350586 204.3016815185547 124.49394226074219 203.39381408691406C125.14392852783203 202.5272216796875 125.88170623779297 201.67852783203125 126.71204376220703 200.85325622558594C127.75917053222656 199.73768615722656 128.8473358154297 198.7762451171875 129.96470642089844 197.95883178710938C130.56272888183594 197.36936950683594 131.2089385986328 196.79345703125 131.90512084960938 196.23329162597656L134.72755432128906 193.9877166748047C135.28494262695312 193.5413818359375 135.84532165527344 193.12841796875 136.40780639648438 192.7477264404297L137.08145141601562 192.2114715576172C137.46142578125 191.88473510742188 137.85784912109375 191.56332397460938 138.2710418701172 191.2476806640625L142.2883758544922 188.1780242919922C142.58506774902344 187.95249938964844 142.88232421875 187.73605346679688 143.1800079345703 187.52850341796875L144.57870483398438 186.45033264160156C144.64566040039062 186.387451171875 144.71315002441406 186.32469177246094 144.78118896484375 186.26206970214844L148.24227905273438 183.11001586914062C148.8157196044922 182.58721923828125 149.39520263671875 182.10342407226562 149.97943115234375 181.6572723388672L150.71841430664062 181.0194549560547C151.29640197753906 180.44656372070312 151.9194793701172 179.8860626220703 152.5892333984375 179.33990478515625L156.4623565673828 176.18783569335938C157.15867614746094 175.62338256835938 157.8599395751953 175.11151123046875 158.5643768310547 174.6499786376953L160.95352172851562 172.8091583251953C161.54974365234375 172.36602783203125 162.14785766601562 171.95901489257812 162.74684143066406 171.58680725097656L164.5033721923828 170.38697814941406C164.70989990234375 170.23135375976562 164.920654296875 170.0773162841797 165.1356658935547 169.9249267578125L167.60910034179688 168.14404296875L169.2987518310547 166.8149871826172C169.7921600341797 166.39291381835938 170.3133087158203 165.98023986816406 170.86294555664062 165.5779571533203L172.9164276123047 164.0904998779297C173.4811553955078 163.63197326660156 174.0804901123047 163.18649291992188 174.7154541015625 162.75552368164062L177.7851104736328 160.6747589111328C177.84539794921875 160.63400268554688 177.90567016601562 160.59359741210938 177.96595764160156 160.5535430908203L178.9390106201172 159.84744262695312C179.02667236328125 159.7829132080078 179.11508178710938 159.71873474121094 179.2042999267578 159.65492248535156L179.70106506347656 159.29444885253906C180.98687744140625 158.37669372558594 182.27822875976562 157.623291015625 183.56593322753906 157.02137756347656L183.6107635498047 156.99594116210938C183.70762634277344 156.93081665039062 183.8052978515625 156.86605834960938 183.90382385253906 156.8016357421875L185.36578369140625 155.87416076660156C185.7508544921875 155.614013671875 186.14932250976562 155.35992431640625 186.56143188476562 155.1123046875L188.47740173339844 153.9792022705078C189.02560424804688 153.65219116210938 189.57244873046875 153.35191345214844 190.11740112304688 153.07745361328125L190.1619873046875 153.05259704589844C190.67637634277344 152.73150634765625 191.2134552001953 152.42202758789062 191.77366638183594 152.1250457763672L192.54530334472656 151.73194885253906C193.26722717285156 151.3016357421875 194.03282165527344 150.8961639404297 194.84332275390625 150.5181121826172L196.21556091308594 149.87120056152344C196.80853271484375 149.56048583984375 197.4287109375 149.26927185058594 198.0765380859375 148.99913024902344C199.4687957763672 148.37550354003906 200.83682250976562 147.9040985107422 202.1746063232422 147.5718231201172L203.9253387451172 146.533447265625L204.0295867919922 146.4619140625C205.24124145507812 145.4684600830078 206.62168884277344 144.55722045898438 208.18075561523438 143.74839782714844C208.96331787109375 143.31283569335938 209.74496459960938 142.933837890625 210.5237579345703 142.60861206054688L210.7059783935547 142.52101135253906C211.34933471679688 142.09625244140625 212.03128051757812 141.69424438476562 212.75277709960938 141.3173828125C214.2097930908203 140.4862518310547 215.65835571289062 139.845458984375 217.08787536621094 139.37783813476562C217.1851348876953 139.33447265625 217.2830352783203 139.29153442382812 217.38157653808594 139.24899291992188L218.14157104492188 138.93414306640625C219.46005249023438 138.24888610839844 220.91224670410156 137.6673583984375 222.5028076171875 137.20819091796875C223.4287872314453 136.9070281982422 224.34088134765625 136.67141723632812 225.23733520507812 136.49732971191406L226.80569458007812 135.89239501953125L227.16221618652344 135.7185821533203C227.6146697998047 135.46456909179688 228.08326721191406 135.2196807861328 228.56829833984375 134.98443603515625L231.1569061279297 133.78207397460938C231.75350952148438 133.4716339111328 232.37744140625 133.18023681640625 233.02911376953125 132.9093780517578C234.25392150878906 132.3561248779297 235.46112060546875 131.9231719970703 236.646240234375 131.60133361816406L239.03712463378906 130.76507568359375L241.9721221923828 129.58140563964844C242.191162109375 129.4780731201172 242.4135284423828 129.37684631347656 242.63926696777344 129.27777099609375L244.7703399658203 128.33331298828125C245.47218322753906 127.97801971435547 246.21054077148438 127.6466064453125 246.98622131347656 127.34120178222656L251.23533630371094 125.73140716552734L252.1104278564453 125.31906127929688C253.28977966308594 124.64176940917969 254.58456420898438 124.05008697509766 255.99864196777344 123.55884552001953C257.4775695800781 122.9864273071289 258.9263610839844 122.58509063720703 260.3374328613281 122.3386001586914C260.7501525878906 122.23046112060547 261.1719055175781 122.13135528564453 261.6026306152344 122.04169464111328C262.37457275390625 121.86572265625 263.1324768066406 121.7297134399414 263.875732421875 121.63162231445312L265.6885070800781 121.31636047363281L268.0689697265625 120.70830535888672L269.39794921875 120.27025604248047C269.675537109375 120.15834045410156 269.95806884765625 120.04995727539062 270.24554443359375 119.9451904296875L273.7890319824219 118.64728546142578C274.88677978515625 118.24594116210938 275.9634704589844 117.93205261230469 277.0168762207031 117.69961547851562L278.4794616699219 117.1917724609375L280.95843505859375 116.15447998046875C281.5225830078125 115.91382598876953 282.0821838378906 115.69744873046875 282.6368408203125 115.50453186035156C283.0417785644531 115.3393325805664 283.4575500488281 115.18375396728516 283.8841552734375 115.03824615478516L284.08990478515625 114.95957946777344C286.0095520019531 114.2599868774414 287.8647155761719 113.82611846923828 289.6437683105469 113.62620544433594L290.5176086425781 113.43505859375L290.5475769042969 113.42926025390625L292.05267333984375 113.0915756225586C292.60284423828125 112.94304656982422 293.1692810058594 112.81005096435547 293.7520751953125 112.69339752197266L294.6078796386719 112.52333068847656C295.90069580078125 112.15792846679688 297.2833557128906 111.89839172363281 298.7563171386719 111.7590103149414C299.9867248535156 111.59974670410156 301.1744689941406 111.53826904296875 302.31787109375 111.56612396240234L303.07708740234375 111.5316162109375C304.2998962402344 111.2914047241211 305.5931701660156 111.14401245117188 306.9569091796875 111.10016632080078C307.78668212890625 111.05429077148438 308.59417724609375 111.05056762695312 309.3790588378906 111.08646392822266H331.164794921875Q331.3292236328125 111.08547973632812 331.49237060546875 111.08646392822266H333.6575927734375L335.2901916503906 111.03736114501953C335.64447021484375 111.01949310302734 336.00360107421875 111.00862884521484 336.36761474609375 111.00495910644531L336.3976135253906 111.00405883789062C336.42510986328125 111.00391387939453 336.45257568359375 111.0038070678711 336.4800109863281 111.00374603271484L336.6844177246094 111.00405883789062H339.94110107421875C339.9686279296875 111.00397491455078 339.9961242675781 111.00393676757812 340.02362060546875 111.00393676757812C340.05108642578125 111.00393676757812 340.0785217285156 111.00397491455078 340.1059265136719 111.00405883789062H342.77862548828125C343.08599853515625 110.99867248535156 343.3968505859375 110.9986343383789 343.7112121582031 111.00405883789062L346.7808837890625 111.08646392822266C347.54278564453125 111.10247802734375 348.2829284667969 111.14981842041016 349.0013122558594 111.2267074584961L349.6033020019531 111.25127410888672C350.215087890625 111.2872085571289 350.81201171875 111.3428955078125 351.3941345214844 111.41742706298828C352.2239990234375 111.45482635498047 353.076171875 111.53588104248047 353.95025634765625 111.6633071899414L355.27691650390625 111.88125610351562C356.17779541015625 111.96684265136719 357.1023864746094 112.10590362548828 358.04998779296875 112.30196380615234L359.7406921386719 112.67180633544922C360.7323303222656 112.8286361694336 361.7486877441406 113.05396270751953 362.78839111328125 113.35264587402344L365.61083984375 114.15611267089844C366.2004089355469 114.32449340820312 366.7712097167969 114.50875854492188 367.323486328125 114.70803833007812L368.16998291015625 114.9560546875C368.46868896484375 115.03345489501953 368.7693176269531 115.11700439453125 369.0718994140625 115.20680236816406L372.4885559082031 116.25030517578125L374.5925598144531 116.69598388671875C375.1052551269531 116.78742980957031 375.6241455078125 116.89757537841797 376.14892578125 117.02706146240234C377.3519592285156 117.29476165771484 378.4828796386719 117.63270568847656 379.54327392578125 118.03343963623047L379.877685546875 118.1368408203125C380.2293701171875 118.23698425292969 380.58331298828125 118.34634399414062 380.9394226074219 118.46514129638672L381.0621032714844 118.5030746459961C382.0904235839844 118.83609771728516 383.0585021972656 119.21690368652344 383.96795654296875 119.64068603515625L385.4797058105469 120.25684356689453C386.2914123535156 120.5462646484375 387.1123352050781 120.88777923583984 387.9410400390625 121.28417205810547C388.26324462890625 121.43169403076172 388.578369140625 121.58406066894531 388.8864440917969 121.74102783203125L391.2033386230469 122.86104583740234C391.6048278808594 123.02989959716797 392.00830078125 123.21153259277344 392.41363525390625 123.40628051757812L394.5060119628906 124.39881134033203C394.876953125 124.56330871582031 395.2489013671875 124.73963165283203 395.6217041015625 124.92805480957031L395.62750244140625 124.9308090209961C396.8490295410156 125.51966857910156 397.9664611816406 126.17013549804688 398.984130859375 126.87325286865234L400.2966003417969 127.66580963134766C400.9192199707031 128.00706481933594 401.5415344238281 128.3850555419922 402.1624755859375 128.80126953125C403.04217529296875 129.36184692382812 403.8556823730469 129.95327758789062 404.6053466796875 130.57139587402344L406.2206115722656 131.76419067382812C406.7709655761719 132.14015197753906 407.3193664550781 132.54708862304688 407.86492919921875 132.98606872558594L410.69842529296875 135.19973754882812L410.9577331542969 135.38035583496094C412.173583984375 136.0880889892578 413.3767395019531 136.94607543945312 414.55645751953125 137.96607971191406C415.2172546386719 138.5003662109375 415.8306579589844 139.0524139404297 416.3981628417969 139.61981201171875C417.1427917480469 140.25547790527344 417.8725280761719 140.95956420898438 418.58367919921875 141.73519897460938C419.00006103515625 142.1677703857422 419.3920593261719 142.6058807373047 419.7603759765625 143.04879760742188L420.199462890625 143.54002380371094C421.0963134765625 144.27304077148438 421.9685974121094 145.1051483154297 422.80938720703125 146.04188537597656C423.5718078613281 146.8304901123047 424.2531433105469 147.6376190185547 424.8573303222656 148.45887756347656C424.8946533203125 148.49093627929688 424.9319152832031 148.52316284179688 424.9690856933594 148.55548095703125C426.1425476074219 149.51255798339844 427.170166015625 150.516845703125 428.0607604980469 151.55694580078125C428.9376220703125 152.26824951171875 429.79229736328125 153.07330322265625 430.6185302734375 153.97720336914062C431.68121337890625 155.0510711669922 432.5878601074219 156.1665496826172 433.348876953125 157.31092834472656C434.7880554199219 158.75511169433594 436.0577392578125 160.4979705810547 437.0956726074219 162.55882263183594C437.7894592285156 163.73663330078125 438.3446044921875 164.92303466796875 438.7715759277344 166.109130859375C439.29876708984375 167.2086181640625 439.7335205078125 168.38949584960938 440.0619201660156 169.65133666992188C440.5163269042969 171.0395965576172 440.81439208984375 172.5111846923828 440.93060302734375 174.0570068359375C441.5517578125 176.36346435546875 441.7418518066406 178.8515625 441.39208984375 181.4663848876953C441.1808776855469 184.94558715820312 440.056396484375 188.049560546875 438.3022766113281 190.68142700195312C436.9188232421875 193.0623016357422 435.02117919921875 195.16671752929688 432.59686279296875 196.79568481445312C429.60064697265625 199.05020141601562 426.1981506347656 200.2196807861328 422.744384765625 200.48336791992188C420.99383544921875 200.6508026123047 419.14324951171875 200.58580017089844 417.205322265625 200.2508544921875C414.1927795410156 199.92990112304688 411.5519104003906 199.04083251953125 409.2920227050781 197.73153686523438C407.8572082519531 196.98046875 406.4569396972656 196.01817321777344 405.1148376464844 194.8253631591797C404.5225830078125 194.3517608642578 403.9477233886719 193.83412170410156 403.3932189941406 193.27110290527344C401.6384582519531 191.57334899902344 400.3073425292969 189.71287536621094 399.35650634765625 187.76162719726562C399.30535888671875 187.6729736328125 399.2549743652344 187.5842742919922 399.2053527832031 187.49554443359375C399.0063171386719 187.24847412109375 398.8106689453125 186.99447631835938 398.61859130859375 186.73350524902344C397.1932067871094 185.052978515625 396.0121765136719 183.0506134033203 395.1630859375 180.71490478515625C394.9865417480469 180.46156311035156 394.8145751953125 180.2019805908203 394.6473083496094 179.9360809326172C394.2140197753906 179.3512725830078 393.8214111328125 178.75509643554688 393.46807861328125 178.1496124267578C392.6980285644531 176.9893798828125 392.0409851074219 175.7134246826172 391.5196228027344 174.32179260253906C391.2798156738281 173.74539184570312 391.0716857910156 173.16677856445312 390.89398193359375 172.5872344970703C390.6429138183594 172.3265380859375 390.3940124511719 172.05718994140625 390.1474609375 171.77906799316406L389.9893798828125 171.60064697265625C389.8448486328125 171.4417724609375 389.7035217285156 171.28219604492188 389.5653076171875 171.12197875976562L388.82647705078125 170.28807067871094L388.3393859863281 169.8501434326172L387.9945068359375 169.61541748046875C387.10009765625 169.07144165039062 386.2096252441406 168.44818115234375 385.32666015625 167.7411346435547L385.2251892089844 167.6572265625C384.8944091796875 167.3972930908203 384.5750732421875 167.13307189941406 384.2669677734375 166.86485290527344L382.3473205566406 165.27745056152344L379.6092529296875 163.241455078125L377.0573425292969 161.72967529296875L374.5519714355469 160.50994873046875L374.41741943359375 160.4449005126953L371.065185546875 158.8243865966797L367.09014892578125 157.2898406982422L366.435302734375 157.08328247070312L364.6310119628906 156.71719360351562C363.941650390625 156.60435485839844 363.2405090332031 156.45838928222656 362.5281982421875 156.27769470214844C361.5538330078125 156.04730224609375 360.627685546875 155.77047729492188 359.7488708496094 155.45127868652344L358.6476745605469 155.10952758789062C358.15838623046875 154.989990234375 357.663818359375 154.85374450683594 357.16412353515625 154.7002716064453L355.09039306640625 154.03561401367188C354.8421936035156 153.9729461669922 354.5926208496094 153.90609741210938 354.3417053222656 153.83499145507812L351.91009521484375 153.14517211914062L349.66510009765625 152.701904296875C349.6290283203125 152.69432067871094 349.5930480957031 152.6866912841797 349.5570983886719 152.67898559570312L347.97576904296875 152.45468139648438C347.86871337890625 152.43887329101562 347.7621765136719 152.4224853515625 347.6561584472656 152.40553283691406L347.4784240722656 152.3884735107422C347.3767395019531 152.3836669921875 347.2746887207031 152.37826538085938 347.17230224609375 152.3722686767578L345.1739501953125 152.2898712158203C344.998779296875 152.2796173095703 344.8248291015625 152.2677459716797 344.652099609375 152.25428771972656L342.9077453613281 152.20745849609375ZM137.65277099609375 666.2825317382812C137.12916564941406 664.2584838867188 136.89080810546875 662.1544189453125 136.93771362304688 660.0577392578125L136.33448791503906 657.5260009765625C136.25132751464844 657.1567993164062 136.17694091796875 656.7909545898438 136.11111450195312 656.428466796875L135.61343383789062 654.3739624023438C135.53782653808594 654.0484008789062 135.46910095214844 653.7254028320312 135.40711975097656 653.405029296875L135.09104919433594 652.2289428710938C135.0427703857422 652.0590209960938 134.9958953857422 651.8875732421875 134.95042419433594 651.7145385742188L133.3472442626953 646.1744384765625C133.2115478515625 645.694091796875 133.0913848876953 645.2188110351562 132.98626708984375 644.7486572265625L132.23475646972656 642.2395629882812C132.19212341308594 642.0972900390625 132.15087890625 641.9555053710938 132.1110076904297 641.8140869140625L131.43128967285156 639.664306640625L131.40142822265625 639.5693359375C131.2686004638672 639.2305908203125 131.14114379882812 638.8845825195312 131.0192413330078 638.53125L130.71022033691406 637.6453247070312C128.4649200439453 631.1163940429688 129.2401885986328 625.3798828125 131.8018341064453 620.861328125L131.65789794921875 619.3716430664062C131.57235717773438 618.4327392578125 131.5380859375 617.5215454101562 131.5518035888672 616.6383666992188L131.43128967285156 614.6332397460938C131.38833618164062 613.66357421875 131.39825439453125 612.7257690429688 131.4573974609375 611.8199462890625L131.48146057128906 610.1953735351562C131.3832244873047 608.6961059570312 131.43214416503906 607.1124877929688 131.64686584472656 605.447021484375C131.69381713867188 604.9903564453125 131.7528839111328 604.5424194335938 131.82359313964844 604.1032104492188L132.3723602294922 599.9326171875C132.3809356689453 599.8406372070312 132.38999938964844 599.7483520507812 132.39956665039062 599.6558227539062L133.00259399414062 593.722900390625L133.21041870117188 589.5142211914062C133.20550537109375 589.3048095703125 133.20303344726562 589.0938110351562 133.20303344726562 588.881103515625L133.28543090820312 580.8258666992188V557.7313232421875L133.28469848632812 557.64892578125L133.20664978027344 548.88671875L133.20376586914062 548.5635986328125L133.20303344726562 548.481201171875V538.9013671875L133.20237731933594 538.8189697265625L133.12196350097656 528.7679443359375L133.12062072753906 528.6829833984375L132.96543884277344 521.5640258789062C132.96145629882812 521.4447631835938 132.958251953125 521.3248901367188 132.955810546875 521.2045288085938L132.79714965820312 511.66461181640625C132.7948455810547 511.5965576171875 132.7928009033203 511.5283203125 132.79100036621094 511.4599304199219L132.55775451660156 502.05218505859375C132.55242919921875 501.9403991699219 132.54776000976562 501.8280944824219 132.5437774658203 501.71533203125L132.39956665039062 496.9769287109375L132.15234375 491.3320617675781C132.14773559570312 491.2113037109375 132.14393615722656 491.0910339355469 132.1409454345703 490.9712829589844L131.90512084960938 485.2133483886719C131.89697265625 484.9822998046875 131.8917999267578 484.75311279296875 131.8895721435547 484.5257568359375L131.59609985351562 474.27386474609375C131.57972717285156 473.7287292480469 131.57994079589844 473.1939392089844 131.59609985351562 472.6695251464844V463.95684814453125C131.54017639160156 463.0079650878906 131.5387725830078 462.0244140625 131.59609985351562 461.0063781738281L132.31715393066406 448.8513488769531Q132.3268585205078 448.685546875 132.33848571777344 448.5212097167969L132.5437774658203 439.99261474609375C132.57066345214844 439.1599426269531 132.63467407226562 438.3537292480469 132.73348999023438 437.5738830566406L133.4296417236328 426.5603332519531C133.43446350097656 426.48583984375 133.43959045410156 426.41156005859375 133.4449920654297 426.3375244140625L133.5855255126953 415.4295654296875C133.58392333984375 415.1460266113281 133.5868682861328 414.8595275878906 133.59446716308594 414.57012939453125L133.9066925048828 405.4957580566406C133.90968322753906 405.27410888671875 133.91546630859375 405.0506896972656 133.92408752441406 404.8255310058594L134.28717041015625 394.3726806640625C134.2897491455078 394.02923583984375 134.2991485595703 393.68157958984375 134.31552124023438 393.32977294921875L134.89236450195312 381.64862060546875L134.8936309814453 381.62176513671875L135.4486083984375 369.8232421875C135.4582061767578 369.6296691894531 135.4697723388672 369.4375305175781 135.48329162597656 369.24688720703125L135.83441162109375 359.4507141113281L135.553955078125 352.7373046875C135.54774475097656 352.6103515625 135.54241943359375 352.4827575683594 135.53797912597656 352.35455322265625L135.53102111816406 352.18817138671875C135.524658203125 351.9912109375 135.52047729492188 351.7956237792969 135.51841735839844 351.60137939453125L135.28379821777344 341.8255310058594C135.26907348632812 341.26483154296875 135.27183532714844 340.71514892578125 135.29136657714844 340.17645263671875L135.36590576171875 331.23077392578125L135.3662109375 331.1950378417969L135.43960571289062 322.8082580566406L134.89236450195312 316.8768615722656C134.85171508789062 316.4029235839844 134.8240509033203 315.9361267089844 134.80899047851562 315.4765319824219L134.08889770507812 308.4095458984375C134.03648376464844 307.8715515136719 134.00103759765625 307.34259033203125 133.98191833496094 306.82269287109375L133.4659881591797 300.66015625C133.38844299316406 300.01885986328125 133.33506774902344 299.35986328125 133.3071746826172 298.68316650390625C133.25863647460938 297.8910827636719 133.24676513671875 297.1195373535156 133.26953125 296.3688049316406L133.2081298828125 290.8411865234375C133.20616149902344 290.77105712890625 133.2044677734375 290.7007751464844 133.20303344726562 290.6302795410156L133.05587768554688 284.44964599609375C133.04898071289062 284.3130798339844 133.0430908203125 284.17578125 133.03822326660156 284.0377502441406L132.81874084472656 277.10577392578125C132.8085479736328 276.972412109375 132.79930114746094 276.8383483886719 132.79100036621094 276.70355224609375L132.65513610839844 274.2223205566406C132.6160125732422 274.31304931640625 132.57652282714844 274.4031982421875 132.53668212890625 274.4928283691406L131.87184143066406 276.0381164550781C131.6903076171875 276.5511779785156 131.48873901367188 277.068359375 131.26646423339844 277.58941650390625L130.73252868652344 278.8063049316406C130.59713745117188 279.15435791015625 130.4524383544922 279.504150390625 130.29818725585938 279.8555908203125L129.3299102783203 282.0187683105469C129.27793884277344 282.13629150390625 129.2253875732422 282.2529296875 129.17225646972656 282.3686218261719L128.38543701171875 284.4970703125L127.41645050048828 287.65362548828125L126.76868438720703 290.2447204589844L126.365966796875 292.21929931640625L126.36326599121094 292.2372131347656L126.22089385986328 293.0736389160156C126.21371459960938 293.1448974609375 126.20623016357422 293.2163391113281 126.19844818115234 293.28790283203125L126.0173110961914 294.70684814453125C125.99381256103516 294.91790771484375 125.96737670898438 295.1302490234375 125.93798828125 295.3437805175781C125.78775787353516 296.6707458496094 125.5472412109375 297.9220275878906 125.2259750366211 299.0986022949219L125.16860961914062 299.3795471191406C125.05014038085938 300.2017822265625 124.8861312866211 301.0419616699219 124.6739273071289 301.8994140625L123.59539031982422 305.9586486816406C123.5518569946289 306.13623046875 123.50621032714844 306.3145446777344 123.45842742919922 306.49359130859375L122.18112182617188 311.5616149902344C121.99665832519531 312.26092529296875 121.78936767578125 312.93450927734375 121.56070709228516 313.582763671875L120.1303939819336 318.4404602050781C120.11382293701172 318.5097351074219 120.09693908691406 318.5791320800781 120.07974243164062 318.64862060546875L118.19535827636719 326.224609375C118.1286392211914 326.5129089355469 118.05634307861328 326.8031311035156 117.9783706665039 327.0953063964844L117.93994140625 327.23590087890625C117.91104888916016 327.34429931640625 117.88158416748047 327.4520568847656 117.85157012939453 327.5592041015625L116.884521484375 331.0971984863281C116.66407012939453 332.30645751953125 116.33812713623047 333.54876708984375 115.89759826660156 334.8209533691406L113.07516479492188 342.8555908203125C112.7989501953125 343.6460266113281 112.49520111083984 344.3998718261719 112.16609954833984 345.1178894042969L110.18988037109375 350.3964538574219C110.08810424804688 350.7238464355469 109.97863006591797 351.05328369140625 109.8613052368164 351.38470458984375L107.1262435913086 358.952392578125L107.1213150024414 358.96612548828125L107.11830139160156 358.9745178222656C107.0690689086914 359.11346435546875 107.01896667480469 359.2512512207031 106.96803283691406 359.3879089355469L105.07958221435547 364.5907897949219L103.02153778076172 371.3477478027344C102.95191955566406 371.5722961425781 102.88001251220703 371.7940368652344 102.80587005615234 372.0129699707031L100.52873229980469 379.1557922363281C100.46346282958984 379.3594665527344 100.39632415771484 379.560791015625 100.32734680175781 379.759765625L98.98876953125 384.9346618652344L97.5414810180664 391.7022399902344C97.40165710449219 392.3515930175781 97.24172973632812 392.9802551269531 97.06285095214844 393.58843994140625L96.58206939697266 395.594482421875C96.40534210205078 396.55560302734375 96.16349792480469 397.5385437011719 95.85214233398438 398.5419921875L93.78814697265625 405.22540283203125L92.10565948486328 411.25146484375C92.09786224365234 411.286376953125 92.0899887084961 411.3212890625 92.08203125 411.35626220703125L90.88387298583984 416.4721984863281L89.89825439453125 423.2640380859375C89.7662353515625 424.119873046875 89.59780883789062 424.9425048828125 89.39551544189453 425.7323303222656L88.41716766357422 431.0293884277344C88.40318298339844 431.1189270019531 88.38870239257812 431.2087097167969 88.37372589111328 431.2987060546875L87.07582092285156 439.18914794921875C87.06525421142578 439.2541198730469 87.05447387695312 439.3189392089844 87.04349517822266 439.3835144042969L86.32878875732422 445.0859680175781C86.31244659423828 445.2890930175781 86.29364776611328 445.4935607910156 86.27235412597656 445.6993103027344L85.71611022949219 451.34417724609375C85.5911865234375 452.5550842285156 85.39140319824219 453.70404052734375 85.12387084960938 454.79180908203125L84.35639190673828 459.0697937011719L84.34497833251953 459.13311767578125L83.5085678100586 463.7713928222656C83.47420501708984 464.076171875 83.43409729003906 464.3837585449219 83.38811492919922 464.6940612792969L82.66705322265625 469.53546142578125C82.63653564453125 469.73687744140625 82.60401153564453 469.93646240234375 82.56951141357422 470.13421630859375L82.109375 474.18341064453125C82.10340118408203 474.26824951171875 82.0970230102539 474.35333251953125 82.0902099609375 474.43865966796875L81.7157974243164 479.0130615234375C81.71165466308594 479.1766662597656 81.70597839355469 479.3412170410156 81.69877624511719 479.5066833496094L81.45155334472656 485.4605712890625C81.44404602050781 485.6192932128906 81.4352035522461 485.7770080566406 81.425048828125 485.93377685546875L81.2867431640625 490.4461975097656C81.28430938720703 490.5506896972656 81.28128814697266 490.6548156738281 81.2776870727539 490.75848388671875L81.20433807373047 495.1227722167969V503.01324462890625L81.40767669677734 507.11395263671875L81.92725372314453 511.5722961425781C81.9561996459961 511.77337646484375 81.9830551147461 511.97625732421875 82.00779724121094 512.1809692382812L82.8936767578125 519.185546875C82.95807647705078 519.718505859375 83.00562286376953 520.242919921875 83.03691101074219 520.7587280273438L83.52616119384766 525.2877807617188L84.35639190673828 529.9602661132812C84.43853759765625 530.4550170898438 84.5055923461914 530.9430541992188 84.55804443359375 531.4241943359375L85.34346771240234 535.8706665039062C85.45284271240234 536.3607177734375 85.54976654052734 536.86279296875 85.63369750976562 537.3768920898438L86.38954162597656 542.119384765625C86.58362579345703 542.9674682617188 86.7378921508789 543.851806640625 86.84919738769531 544.7728881835938L87.45301055908203 550.3624267578125C87.49547576904297 550.6181640625 87.53458404541016 550.876953125 87.57025909423828 551.1387939453125L88.17079162597656 555.8229370117188C88.18376159667969 555.8956909179688 88.19647216796875 555.9686889648438 88.20891571044922 556.0419921875L89.17719268798828 561.5838623046875L90.09508514404297 566.80322265625L91.42277526855469 572.1319580078125L91.44561767578125 572.2246704101562L92.55587005615234 575.6754150390625L92.57210540771484 575.72705078125L94.57483673095703 581.7941284179688C94.78169250488281 582.4266967773438 94.96051788330078 583.0513916015625 95.1124267578125 583.66796875L96.42899322509766 588.07763671875C96.54006958007812 588.4570922851562 96.6413803100586 588.83349609375 96.73316192626953 589.2067260742188L97.8573226928711 593.0747680664062C98.0976333618164 593.7376098632812 98.31563568115234 594.42724609375 98.509765625 595.14404296875L99.76620483398438 599.8307495117188L101.43238067626953 605.5335693359375L103.09707641601562 609.8085327148438C103.32389068603516 610.3010864257812 103.53929138183594 610.8104858398438 103.74259948730469 611.3369750976562L105.8439712524414 616.7964477539062C106.03142547607422 617.2830810546875 106.2015151977539 617.7658081054688 106.35474395751953 618.244384765625L107.67752075195312 621.7820434570312C107.77986145019531 622.0548095703125 107.87678527832031 622.3262939453125 107.96839904785156 622.5964965820312L109.47472381591797 626.695068359375L111.26250457763672 630.713623046875L113.0979995727539 634.456298828125L114.07726287841797 636.0734252929688C114.57091522216797 636.7889404296875 115.04126739501953 637.5527954101562 115.48556518554688 638.3663940429688L118.30799865722656 643.5992431640625L118.35615539550781 643.688232421875L120.04373931884766 646.5706787109375C120.30257415771484 646.9605712890625 120.5550537109375 647.364013671875 120.8008041381836 647.7813720703125L123.12879943847656 651.881103515625C123.27137756347656 652.124267578125 123.40876770019531 652.3671264648438 123.54105377197266 652.6096801757812L125.26575469970703 655.557373046875L127.58964538574219 659.1873779296875L129.31210327148438 661.5499267578125C129.4008331298828 661.6563720703125 129.48916625976562 661.7640380859375 129.57713317871094 661.8729248046875L132.3449249267578 665.3478393554688L134.80996704101562 668.1358642578125C134.91400146484375 668.2546997070312 135.0164031982422 668.3737182617188 135.11720275878906 668.4929809570312L137.10610961914062 670.5543823242188C137.13052368164062 670.4561157226562 137.15573120117188 670.358154296875 137.1816864013672 670.2603759765625L137.22036743164062 669.8251953125C137.25149536132812 669.4187622070312 137.2911834716797 669.0189819335938 137.3391571044922 668.6259765625C137.40438842773438 667.8619384765625 137.50820922851562 667.0806884765625 137.65277099609375 666.2825317382812Z" fill="black"/>
</svg>
