<svg xmlns="http://www.w3.org/2000/svg" viewBox="0 0 643 1000">
  <path d="M142.25344848632812 149.49444580078125C142.15921020507812 148.83212280273438 142.0846710205078 148.1763916015625 142.0292205810547 147.52745056152344C141.4784393310547 142.22860717773438 142.081787109375 137.4292449951172 143.56259155273438 133.18960571289062C153.01907348632812 102.08511352539062 202.582275390625 103.68140411376953 207.92221069335938 137.9783935546875C208.04550170898438 138.26014709472656 208.16648864746094 138.54522705078125 208.2851104736328 138.83363342285156C208.7051544189453 139.82095336914062 209.07875061035156 140.79983520507812 209.4076690673828 141.76953125L209.9349822998047 143.17784118652344C210.03294372558594 143.4408416748047 210.12779235839844 143.70309448242188 210.21954345703125 143.96461486816406L210.50692749023438 144.70729064941406C210.89840698242188 145.622314453125 211.26480102539062 146.5719451904297 211.60443115234375 147.5567169189453L212.58290100097656 150.35650634765625C212.72947692871094 150.75616455078125 212.8712158203125 151.16188049316406 213.0079803466797 151.57369995117188C213.3803253173828 152.65713500976562 213.70083618164062 153.72708129882812 213.97166442871094 154.78271484375L214.10023498535156 155.2251739501953C214.6092529296875 156.68902587890625 215.04556274414062 158.23292541503906 215.4020538330078 159.8582763671875C215.61544799804688 160.74147033691406 215.79539489746094 161.61376953125 215.943115234375 162.4748077392578L216.27984619140625 164.1151580810547C216.7517852783203 165.85191345214844 217.11741638183594 167.68936157226562 217.36538696289062 169.6289520263672L218.27078247070312 176.89630126953125C218.31365966796875 177.18099975585938 218.35397338867188 177.4679718017578 218.3916778564453 177.75721740722656L219.29481506347656 184.76341247558594C219.3227996826172 184.97789001464844 219.3490753173828 185.1915283203125 219.3736572265625 185.40432739257812L220.89584350585938 195.34112548828125C220.99649047851562 196.0218505859375 221.0797119140625 196.69436645507812 221.14598083496094 197.35858154296875L222.451416015625 208.08099365234375C222.5574951171875 208.80963134765625 222.64584350585938 209.55307006835938 222.71580505371094 210.31137084960938L223.67369079589844 220.8890838623047C223.72386169433594 221.4328155517578 223.76333618164062 221.9707794189453 223.7923583984375 222.5029296875L225.0325927734375 237.0814208984375C225.11402893066406 237.73443603515625 225.18121337890625 238.3989715576172 225.23365783691406 239.0750732421875L226.08404541015625 250.4579620361328C226.1508026123047 251.06915283203125 226.2050018310547 251.69021606445312 226.24627685546875 252.32115173339844L226.975341796875 263.8101806640625C226.999267578125 264.0792541503906 227.02081298828125 264.3502197265625 227.03994750976562 264.623046875L228.01150512695312 278.0333251953125C228.03433227539062 278.35919189453125 228.05337524414062 278.6829528808594 228.06869506835938 279.0045166015625L229.18832397460938 292.4151611328125C229.23284912109375 292.9566345214844 229.266845703125 293.49224853515625 229.29058837890625 294.02203369140625L230.6798858642578 312.1337585449219C230.73904418945312 312.92169189453125 230.77603149414062 313.6971130371094 230.79159545898438 314.4599914550781L231.86199951171875 332.03076171875C231.93458557128906 332.7822570800781 231.98779296875 333.5483703613281 232.02090454101562 334.32916259765625L233.0882568359375 359.8771057128906C233.11404418945312 360.4851379394531 233.12693786621094 361.0853271484375 233.1272735595703 361.67767333984375L233.8135528564453 384.9234619140625C233.82403564453125 385.12615966796875 233.83314514160156 385.329833984375 233.84088134765625 385.5345458984375L234.5250701904297 403.70684814453125C234.52737426757812 403.7684326171875 234.52955627441406 403.8299255371094 234.53160095214844 403.8913269042969L235.9312286376953 426.552734375C235.94741821289062 426.759033203125 235.9622039794922 426.9664001464844 235.97557067871094 427.17486572265625L236.41795349121094 434.1687927246094C240.37742614746094 433.21746826171875 244.71998596191406 433.033447265625 249.37818908691406 433.8186950683594C252.04966735839844 434.2190246582031 254.80677795410156 434.9662780761719 257.6285705566406 436.1040954589844L257.9820556640625 436.14739990234375L258.6930847167969 436.2242431640625L260.3218078613281 436.3304748535156L266.0763854980469 436.44708251953125C266.42279052734375 436.44989013671875 266.7718505859375 436.4570617675781 267.1234130859375 436.46868896484375C267.939208984375 436.48944091796875 268.73944091796875 436.5323791503906 269.5240783691406 436.5967102050781L273.9422302246094 436.8604736328125L283.5410461425781 436.99993896484375C284.5147705078125 437.01409912109375 285.4665832519531 437.06005859375 286.39654541015625 437.13641357421875L293.6100158691406 437.487548828125C293.9773864746094 437.498046875 294.34765625 437.5133972167969 294.7208251953125 437.53363037109375L305.2985534667969 438.1220397949219C305.5378723144531 438.1353759765625 305.77581787109375 438.15057373046875 306.0123291015625 438.1676330566406L314.8636474609375 438.5599060058594C315.0938415527344 438.5704650878906 315.3227844238281 438.5827331542969 315.5504150390625 438.59674072265625L324.3686218261719 438.90435791015625L336.51165771484375 438.6146545410156C336.89105224609375 438.6068115234375 337.2673034667969 438.6038818359375 337.6404113769531 438.6058349609375L349.306640625 438.1447448730469C349.4790954589844 438.1361999511719 349.65228271484375 438.12860107421875 349.826171875 438.1220397949219L359.5335388183594 437.7762451171875L372.22186279296875 436.914794921875C372.4727478027344 436.89093017578125 372.72528076171875 436.869140625 372.97943115234375 436.84942626953125L379.0989685058594 436.37493896484375C379.3202819824219 436.3536071777344 379.5428466796875 436.3338623046875 379.7666931152344 436.31573486328125L386.0749816894531 435.8231201171875L386.5539245605469 435.7820739746094C386.8204040527344 435.7607421875 387.0854797363281 435.741943359375 387.34912109375 435.7256774902344L395.5853576660156 434.9747009277344C396.10260009765625 434.9295959472656 396.6145935058594 434.8941345214844 397.12127685546875 434.8680725097656L400.2580871582031 434.5703125C400.6396789550781 434.5224304199219 401.02520751953125 434.47930908203125 401.4147033691406 434.4410400390625L405.1504211425781 434.0715637207031C405.4333190917969 434.04400634765625 405.71466064453125 434.0193786621094 405.9944763183594 433.99761962890625L406.1705627441406 433.9792785644531C406.2808837890625 433.9659729003906 406.3915100097656 433.95306396484375 406.50250244140625 433.9405517578125L406.1353454589844 427.3841552734375C406.12567138671875 427.2419128417969 406.11663818359375 427.0991516113281 406.1083068847656 426.9559020996094L404.9872741699219 407.4029541015625C404.94464111328125 406.8536071777344 404.91229248046875 406.2966613769531 404.89044189453125 405.7320861816406L404.08819580078125 385.1316223144531L404.0830993652344 385.0008850097656L404.0768737792969 384.8254699707031L403.3991394042969 365.7132263183594C403.3339538574219 364.8888244628906 403.29248046875 364.04730224609375 403.2757263183594 363.1886291503906L402.9188232421875 341.96063232421875C402.91412353515625 341.8392333984375 402.9099426269531 341.7174377441406 402.90625 341.5953369140625L402.4527282714844 326.6540832519531C402.4430847167969 326.4673767089844 402.43463134765625 326.2798156738281 402.4273376464844 326.0914001464844L401.56524658203125 304.8128356933594C401.55078125 304.4393310546875 401.54119873046875 304.06878662109375 401.536376953125 303.70123291015625L400.5526123046875 285.4637145996094C400.5235595703125 284.9051513671875 400.5054626464844 284.3531188964844 400.498046875 283.8076171875L399.89306640625 273.4303283691406C399.835693359375 272.8213195800781 399.79083251953125 272.20269775390625 399.7589416503906 271.5744934082031L398.9331359863281 254.71731567382812L397.7239685058594 239.5900421142578L396.323486328125 227.38064575195312L395.23193359375 220.55226135253906C395.2077941894531 220.4187469482422 395.1841735839844 220.2847137451172 395.1611328125 220.150146484375L393.86810302734375 212.5186004638672L393.28643798828125 209.8324432373047C393.21917724609375 209.52166748046875 393.1557312011719 209.21238708496094 393.0960693359375 208.90463256835938L392.7245178222656 207.1123809814453C392.658447265625 206.82656860351562 392.5948791503906 206.53819274902344 392.5338134765625 206.2472381591797L391.4117431640625 201.00628662109375C391.39361572265625 200.91941833496094 391.37579345703125 200.83265686035156 391.3582763671875 200.74603271484375L391.0731201171875 199.63206481933594L390.9562072753906 199.2633056640625C390.74212646484375 198.8170166015625 390.5335388183594 198.36199951171875 390.33062744140625 197.898193359375C390.1939697265625 197.60427856445312 390.059814453125 197.30662536621094 389.9282531738281 197.00518798828125C388.1787414550781 193.65013122558594 386.96551513671875 189.7921142578125 386.44952392578125 185.43115234375C385.997802734375 182.55763244628906 385.90740966796875 179.81063842773438 386.1319274902344 177.20425415039062C386.1993408203125 176.15765380859375 386.3129577636719 175.13572692871094 386.47021484375 174.13905334472656C391.0500793457031 136.8790740966797 446.67999267578125 136.55941772460938 452.1356506347656 173.18016052246094C452.4148864746094 173.83663940429688 452.680908203125 174.5109100341797 452.93310546875 175.20310974121094C453.520263671875 176.6857147216797 453.99908447265625 178.150634765625 454.3760681152344 179.59475708007812C454.4686279296875 179.8871612548828 454.55853271484375 180.18264770507812 454.645751953125 180.48117065429688C455.03656005859375 181.73834228515625 455.3584899902344 182.97608947753906 455.61492919921875 184.19320678710938L455.62200927734375 184.22116088867188C455.9187316894531 185.23748779296875 456.1822814941406 186.28929138183594 456.4105529785156 187.37704467773438L457.4779052734375 192.61801147460938C457.5439758300781 192.93276977539062 457.6061096191406 193.2459716796875 457.6643981933594 193.55758666992188L458.1758117675781 195.98426818847656C458.1984558105469 196.09213256835938 458.2206115722656 196.19981384277344 458.2423400878906 196.3072967529297L458.92840576171875 199.29579162597656C459.1805725097656 200.46249389648438 459.3786926269531 201.60794067382812 459.52532958984375 202.73153686523438L460.5068054199219 208.51458740234375C460.5488586425781 208.7510528564453 460.5892028808594 208.98915100097656 460.62774658203125 209.2288818359375C460.6315002441406 209.25216674804688 460.63519287109375 209.27545166015625 460.63922119140625 209.29872131347656C460.6600341796875 209.42572021484375 460.68023681640625 209.55242919921875 460.6997985839844 209.67886352539062L461.6470947265625 215.5941619873047C461.80682373046875 216.45309448242188 461.9420166015625 217.3337860107422 462.0515441894531 218.23638916015625C462.10498046875 218.6464385986328 462.1519470214844 219.05361938476562 462.1925964355469 219.45774841308594L463.41949462890625 230.14306640625C463.60406494140625 231.26443481445312 463.7454528808594 232.42173767089844 463.8409729003906 233.61517333984375L464.8993225097656 247.4443817138672C465.0307312011719 248.47122192382812 465.1255798339844 249.52662658691406 465.1819763183594 250.61065673828125L465.98382568359375 267.2291259765625C466.00115966796875 267.462890625 466.0166931152344 267.6980285644531 466.0303955078125 267.9345397949219L466.8377380371094 281.78271484375C466.8622741699219 282.19775390625 466.8807373046875 282.6092224121094 466.89324951171875 283.01715087890625L467.90509033203125 301.7749938964844C467.93707275390625 302.389892578125 467.9557800292969 302.9969177246094 467.9615783691406 303.59600830078125L468.7671813964844 323.5188293457031C468.78399658203125 323.9537353515625 468.79425048828125 324.38458251953125 468.79803466796875 324.8114013671875L469.2461242675781 339.6111755371094C469.2602233886719 340.0811462402344 469.2666931152344 340.54632568359375 469.26568603515625 341.0067443847656L469.6703186035156 361.95709228515625C469.6763000488281 362.2853088378906 469.6785888671875 362.6111755371094 469.67724609375 362.9346618652344L470.4056701660156 382.0832824707031C470.4120178222656 382.2160949707031 470.4177551269531 382.349365234375 470.4229431152344 382.4830322265625L471.21661376953125 403.2279052734375C471.22247314453125 403.3843688964844 471.2275085449219 403.540283203125 471.2316589355469 403.6957092285156L472.3934326171875 423.1107177734375C472.4054870605469 423.3173828125 472.416015625 423.52313232421875 472.425048828125 423.72802734375L473.2555236816406 438.50518798828125C473.2676086425781 438.71844482421875 473.2781066894531 438.9307556152344 473.2869873046875 439.1421203613281L474.7470703125 458.97637939453125C474.7839660644531 459.48516845703125 474.8116760253906 459.98876953125 474.8303527832031 460.4870910644531L476.0539245605469 478.86468505859375C476.08721923828125 479.197509765625 476.11688232421875 479.533203125 476.1428527832031 479.8717956542969L477.293212890625 494.920166015625L479.23541259765625 515.3132934570312C479.3035888671875 516.032958984375 479.3530578613281 516.7424926757812 479.38433837890625 517.4419555664062L480.93719482421875 535.7841186523438C480.9811096191406 536.1546020507812 481.0205383300781 536.5287475585938 481.0553894042969 536.9065551757812L482.9848327636719 557.7061767578125C483.0458068847656 558.3689575195312 483.0908508300781 559.0231323242188 483.1204833984375 559.668701171875L484.3721618652344 574.87255859375C484.4377136230469 575.4808959960938 484.4908447265625 576.0989990234375 484.5311279296875 576.7269287109375L485.61346435546875 594.1103515625C485.6277160644531 594.285888671875 485.6409606933594 594.462158203125 485.6531982421875 594.6392211914062L486.9240417480469 613.852783203125C486.99420166015625 614.511474609375 487.0496826171875 615.1815185546875 487.09002685546875 615.863037109375L488.3215637207031 636.6489868164062C488.3424987792969 637.0084838867188 488.35888671875 637.3653564453125 488.37078857421875 637.7195434570312L489.19207763671875 649.0972290039062C489.2082214355469 649.2440185546875 489.2236633300781 649.391357421875 489.2384033203125 649.539306640625L490.9921875 667.3828735351562C491.01055908203125 667.5464477539062 491.0280456542969 667.7107543945312 491.044677734375 667.8757934570312L492.591064453125 683.6241455078125C492.6350402832031 683.9277954101562 492.67608642578125 684.2340698242188 492.714111328125 684.5428466796875L494.57513427734375 699.6773071289062C494.6369934082031 700.1854248046875 494.6893615722656 700.688720703125 494.7323913574219 701.1871948242188L495.714111328125 709.6736450195312L497.5172119140625 722.1190185546875L499.00360107421875 732.195068359375L500.51397705078125 739.9766235351562C500.56707763671875 740.25537109375 500.6171569824219 740.5328979492188 500.66424560546875 740.80908203125L501.54852294921875 745.0872802734375L502.190185546875 747.5912475585938L502.9855041503906 749.8094482421875L503.1087341308594 750.0469360351562C503.4979553222656 750.736572265625 503.8615417480469 751.4244384765625 504.20013427734375 752.110107421875C522.764404296875 789.276611328125 467.4244384765625 820.5068359375 445.5591735839844 783.1632080078125L445.50445556640625 783.0126953125C445.20306396484375 782.5010375976562 444.9086608886719 781.9761352539062 444.6215515136719 781.4378051757812C444.1563720703125 780.6133422851562 443.7115783691406 779.7548828125 443.2887268066406 778.86181640625C442.8594665527344 777.998779296875 442.4685974121094 777.139892578125 442.1148986816406 776.2859497070312C441.6049499511719 775.1746826171875 441.13275146484375 774.010009765625 440.7013854980469 772.790771484375L439.7818603515625 770.2161254882812C439.57708740234375 769.6807861328125 439.38153076171875 769.1341552734375 439.195556640625 768.5762939453125L439.18426513671875 768.5424194335938C438.6094055175781 766.9072265625 438.15338134765625 765.3021850585938 437.8086853027344 763.7300415039062L437.2803955078125 761.7888793945312C436.8927917480469 760.3400268554688 436.5918884277344 758.9205932617188 436.3727111816406 757.5318603515625L435.7423400878906 754.4821166992188C435.5793151855469 753.8121337890625 435.430419921875 753.1278076171875 435.29620361328125 752.4290161132812L434.00634765625 745.56396484375C433.75830078125 744.4862670898438 433.54888916015625 743.3719482421875 433.3804626464844 742.2207641601562L431.8752136230469 731.7388916015625C431.8448181152344 731.531494140625 431.8160400390625 731.3248901367188 431.7888488769531 731.1190185546875L430.0005187988281 719.1359252929688C429.85821533203125 718.1533813476562 429.7521057128906 717.1881103515625 429.6806945800781 716.2402954101562L428.8131103515625 708.788818359375C428.7626647949219 708.4461059570312 428.71600341796875 708.10009765625 428.67315673828125 707.7508544921875L427.0476989746094 694.2825317382812C426.9263610839844 693.5114135742188 426.82476806640625 692.7234497070312 426.7437438964844 691.9185180664062L424.9784851074219 674.5535888671875C424.9527587890625 674.298095703125 424.9294128417969 674.0438232421875 424.9084167480469 673.7908325195312L423.1585388183594 656.1076049804688C423.05401611328125 655.0562133789062 422.9896240234375 654.0261840820312 422.9635925292969 653.0176391601562L422.2202453613281 642.719970703125C422.1417236328125 642.0096435546875 422.0802307128906 641.2860107421875 422.03643798828125 640.5489501953125L420.8185729980469 619.7630004882812C420.79345703125 619.331787109375 420.7748718261719 618.9044799804688 420.76275634765625 618.48095703125L419.4228210449219 599.1275634765625C419.39813232421875 598.763671875 419.37811279296875 598.4024658203125 419.36273193359375 598.0439453125L418.2460021972656 580.9552612304688C418.23785400390625 580.8258666992188 418.2303161621094 580.6968383789062 418.2233581542969 580.568115234375L416.9831848144531 564.9298706054688C416.9388122558594 564.5555419921875 416.8990478515625 564.1774291992188 416.8639221191406 563.7955322265625L414.9344787597656 543.0096435546875C414.8792724609375 542.4112548828125 414.8370056152344 541.8199462890625 414.807373046875 541.235595703125L413.114501953125 521.2521362304688C413.08929443359375 520.9545288085938 413.0672912597656 520.65869140625 413.04840087890625 520.3646240234375L411.18505859375 500.9861755371094C411.1600646972656 500.724853515625 411.13751220703125 500.4648742675781 411.117431640625 500.2062072753906C410.8405456542969 500.2305908203125 410.56512451171875 500.2521667480469 410.2912292480469 500.27093505859375L407.92828369140625 500.5072326660156C407.4394836425781 500.5552062988281 406.955322265625 500.59454345703125 406.4757995605469 500.6253662109375L401.510498046875 501.09564208984375C401.0721740722656 501.1361083984375 400.6376037597656 501.16961669921875 400.2068176269531 501.1962890625L393.7384948730469 501.7608337402344C393.1148376464844 501.8395690917969 392.4806823730469 501.90533447265625 391.8359375 501.9577331542969L391.4117431640625 501.998779296875C391.1777648925781 502.0174865722656 390.9449157714844 502.0342712402344 390.713134765625 502.049072265625L385.0486755371094 502.49139404296875C384.7424621582031 502.51580810546875 384.4381408691406 502.536865234375 384.13568115234375 502.55462646484375L378.0561828613281 503.02508544921875C377.5700988769531 503.0627746582031 377.0887756347656 503.092041015625 376.6121826171875 503.1130065917969L364.8675231933594 503.9559631347656C364.38739013671875 503.998291015625 363.9013671875 504.03265380859375 363.409423828125 504.0589294433594C362.7214660644531 504.1021423339844 362.0430908203125 504.12841796875 361.37445068359375 504.1382751464844L352.2892761230469 504.4618835449219Q352.12066650390625 504.46795654296875 351.9529113769531 504.4727783203125L338.44110107421875 504.9955749511719C337.8390197753906 505.0166015625 337.2447204589844 505.02508544921875 336.6581726074219 505.0213623046875L326.6176452636719 505.2286071777344C325.390625 505.2983703613281 324.12725830078125 505.31304931640625 322.82769775390625 505.2692565917969L322.7535400390625 505.2665710449219C322.4056396484375 505.2583312988281 322.060546875 505.24578857421875 321.71826171875 505.22906494140625L313.4882507324219 504.9309387207031C312.94073486328125 504.92681884765625 312.3865661621094 504.9119567871094 311.8258056640625 504.8860778808594L303.0193176269531 504.45977783203125C302.5745849609375 504.4493713378906 302.1255798339844 504.431884765625 301.67230224609375 504.40716552734375L291.0809020996094 503.8187561035156C290.8740234375 503.8074645996094 290.6681823730469 503.7947692871094 290.4634094238281 503.78070068359375L282.5049743652344 503.3932800292969L273.5066833496094 503.2508544921875C272.8240661621094 503.2551574707031 272.1309814453125 503.24237060546875 271.4274597167969 503.21197509765625C270.76409912109375 503.1904296875 270.1110534667969 503.1539611816406 269.46844482421875 503.10296630859375L265.1215515136719 502.8505554199219L259.41015625 502.7243347167969C258.6959533691406 502.7237243652344 257.970458984375 502.70440673828125 257.233642578125 502.665771484375C256.80291748046875 502.6468200683594 256.3765563964844 502.6215515136719 255.9546356201172 502.5901184082031L254.3120880126953 502.49139404296875C253.1328582763672 502.4183044433594 251.98805236816406 502.2998962402344 250.87757873535156 502.13873291015625C250.79505920410156 502.12939453125 250.71241760253906 502.11981201171875 250.629638671875 502.1099548339844C250.3303985595703 502.0777282714844 250.03338623046875 502.0426025390625 249.73875427246094 502.0046081542969C248.286865234375 501.8804626464844 246.79588317871094 501.6705627441406 245.26698303222656 501.36932373046875L243.2441864013672 500.95318603515625C242.45822143554688 500.83392333984375 241.66485595703125 500.6846923828125 240.8646240234375 500.5043640136719L241.53126525878906 513.6575317382812C241.56544494628906 514.3468627929688 241.5829315185547 515.0261840820312 241.58424377441406 515.6956176757812L242.3933563232422 538.6718139648438C242.4110107421875 539.1957397460938 242.41915893554688 539.7137451171875 242.41802978515625 540.2258911132812L242.92703247070312 563.5355834960938C242.94036865234375 564.1885375976562 242.9390411376953 564.8320922851562 242.9234619140625 565.4663696289062L242.87229919433594 581.7626342773438C242.86802673339844 582.9122924804688 242.81910705566406 584.0319213867188 242.72784423828125 585.1215209960938L241.76480102539062 605.16943359375C241.75469970703125 605.7659301757812 241.73170471191406 606.3701782226562 241.69546508789062 606.982177734375L240.4639129638672 627.72705078125C240.4291534423828 628.3242797851562 240.38275146484375 628.9127807617188 240.32505798339844 629.4924926757812L239.3502960205078 642.497314453125C239.332275390625 642.7767944335938 239.31130981445312 643.057861328125 239.28738403320312 643.3404541015625L239.28392028808594 643.381103515625C239.22225952148438 644.1673583984375 239.14068603515625 644.9379272460938 239.03993225097656 645.6929321289062L237.1324920654297 662.737548828125C237.12144470214844 662.8626708984375 237.10984802246094 662.988037109375 237.09765625 663.11376953125L235.46957397460938 679.5508422851562L234.63470458984375 693.5692749023438L234.63455200195312 693.5742797851562L234.21034240722656 706.5740356445312C234.20745849609375 706.6693115234375 234.2042694091797 706.7643432617188 234.20077514648438 706.8591918945312L234.1008758544922 713.8402099609375C234.0994415283203 713.9149169921875 234.09780883789062 713.989501953125 234.09600830078125 714.0639038085938L234.046142578125 720.1485595703125V726.12841796875L234.09671020507812 731.7166748046875C234.0983123779297 731.796875 234.09970092773438 731.8773193359375 234.1008758544922 731.9578247070312L234.20668029785156 738.3589477539062L234.2096710205078 738.539794921875L234.21115112304688 738.5808715820312L234.3172607421875 743.9657592773438L234.31980895996094 744.095458984375C234.32208251953125 744.2318115234375 234.32373046875 744.3677978515625 234.32473754882812 744.5033569335938L234.41831970214844 748.3516845703125C234.4225616455078 748.4833984375 234.4262237548828 748.6155395507812 234.42929077148438 748.748046875L234.43008422851562 748.8027954101562L234.4685516357422 751.4576416015625L234.46954345703125 751.52587890625L234.4703369140625 751.5806274414062C234.4818878173828 752.1065673828125 234.4839324951172 752.62646484375 234.4766845703125 753.1403198242188L234.5250701904297 753.6605834960938C235.64715576171875 797.9144897460938 169.32098388671875 799.583984375 168.1441650390625 755.37109375V754.7826538085938C168.1427001953125 754.7247924804688 168.14134216308594 754.6669921875 168.14010620117188 754.6093139648438L168.08941650390625 753.1268920898438C168.08383178710938 752.8954467773438 168.08009338378906 752.6651000976562 168.07818603515625 752.4359741210938L168.03468322753906 750.1848754882812C168.02816772460938 749.8844604492188 168.02476501464844 749.5860595703125 168.02442932128906 749.2896118164062L168.00265502929688 747.5032958984375C167.9630126953125 746.8743286132812 167.9370574951172 746.2355346679688 167.9252166748047 745.5870361328125V745.2722778320312C167.9215850830078 745.05859375 167.9195098876953 744.8460083007812 167.9189910888672 744.6343383789062L167.8704833984375 739.661865234375C167.8683624267578 739.5437622070312 167.86671447753906 739.426025390625 167.8655548095703 739.3085327148438L167.76100158691406 732.9703979492188C167.75636291503906 732.6705932617188 167.7548065185547 732.372802734375 167.75628662109375 732.0769653320312L167.71995544433594 726.7716064453125C167.71826171875 726.60107421875 167.7175750732422 726.4312133789062 167.71786499023438 726.2620239257812L167.6725311279297 720.8560791015625C167.6647186279297 720.4641723632812 167.66226196289062 720.0686645507812 167.66522216796875 719.6696166992188L167.71365356445312 713.7003784179688C167.711181640625 713.3394165039062 167.7132568359375 712.9755859375 167.71995544433594 712.6087036132812L167.85098266601562 705.9505615234375C167.8497314453125 705.483642578125 167.85617065429688 705.0118408203125 167.8704833984375 704.53515625L168.294677734375 691.549072265625C168.31898498535156 690.7477416992188 168.3646697998047 689.9616088867188 168.43092346191406 689.1906127929688L169.1637725830078 676.1038818359375L169.2115020751953 675.25146484375L169.21240234375 675.2362670898438C169.26612854003906 674.3326416015625 169.346435546875 673.4491577148438 169.4521942138672 672.585693359375L171.03147888183594 656.6412353515625C171.08351135253906 656.1111450195312 171.1444854736328 655.58837890625 171.2141571044922 655.0729370117188L173.13462829589844 637.8995361328125L174.2335205078125 623.2387084960938C174.26243591308594 622.871826171875 174.29566955566406 622.5083618164062 174.3331756591797 622.1483154296875L175.36965942382812 604.689697265625C175.37722778320312 604.2807006835938 175.3907470703125 603.8680419921875 175.41033935546875 603.4517211914062L176.47872924804688 581.2107543945312L176.53024291992188 564.8064575195312L176.06846618652344 541.3084716796875C176.0629119873047 541.1780395507812 176.05792236328125 541.0471801757812 176.05349731445312 540.9159545898438L175.19140625 516.4353637695312C175.18026733398438 516.10546875 175.1729278564453 515.7779541015625 175.16929626464844 515.4527587890625L174.25599670410156 497.4327697753906C174.22669982910156 497.1056213378906 174.20094299316406 496.7757263183594 174.1787872314453 496.4430847167969L172.8514404296875 476.4508056640625C172.8333282470703 476.17926025390625 172.8178253173828 475.90924072265625 172.80491638183594 475.6407165527344L171.1820068359375 454.54278564453125C171.1251678466797 453.797119140625 171.08815002441406 453.0626220703125 171.07032775878906 452.3393249511719L169.74517822265625 431.3895263671875C169.73043823242188 431.1597900390625 169.71755981445312 430.93115234375 169.70654296875 430.7035827636719L168.3448028564453 408.45343017578125C168.2767791748047 407.7066345214844 168.22792053222656 406.94549560546875 168.1988983154297 406.16998291015625L167.50100708007812 388.0387268066406C167.48541259765625 387.6224365234375 167.47584533691406 387.2098388671875 167.47219848632812 386.80096435546875L166.74839782714844 362.2307434082031C166.73680114746094 361.83203125 166.73069763183594 361.436767578125 166.73001098632812 361.044921875L165.68104553222656 337.1617431640625C165.67095947265625 336.9239807128906 165.662841796875 336.68743896484375 165.6566925048828 336.4520568847656L164.44949340820312 316.6357727050781C164.43470764160156 316.39080810546875 164.4220428466797 316.1471252441406 164.41146850585938 315.9046325683594L163.01266479492188 297.6561279296875C162.9779052734375 297.1925964355469 162.9508056640625 296.7333984375 162.9311981201172 296.2785339355469L161.97943115234375 284.8363037109375C161.89727783203125 284.150390625 161.8309783935547 283.45184326171875 161.78111267089844 282.7406005859375L160.8232421875 269.330322265625C160.79039001464844 268.8633728027344 160.7653045654297 268.40081787109375 160.747802734375 267.9427185058594L160.11273193359375 258.10443115234375C160.07627868652344 257.74908447265625 160.04396057128906 257.3904113769531 160.01588439941406 257.0284423828125L159.1561737060547 245.4713134765625C159.1198272705078 245.13931274414062 159.0870819091797 244.8043975830078 159.05801391601562 244.466552734375L157.656005859375 227.98675537109375C157.61805725097656 227.65809631347656 157.5836181640625 227.32655334472656 157.55276489257812 226.99212646484375L156.63961791992188 216.89523315429688L155.23684692382812 205.37332153320312C155.22406005859375 205.29078674316406 155.21148681640625 205.20806884765625 155.19912719726562 205.12515258789062L153.54336547851562 193.904296875C153.42929077148438 193.13119506835938 153.33770751953125 192.36871337890625 153.2678985595703 191.61695861816406L152.82269287109375 188.19021606445312C152.71217346191406 187.5568084716797 152.61473083496094 186.91172790527344 152.53076171875 186.2549591064453L151.669677734375 179.2615966796875L150.84544372558594 175.2465362548828L150.05783081054688 172.61363220214844L148.85508728027344 169.2197723388672L148.4741668701172 168.2413330078125C148.2145233154297 167.6334991455078 147.96554565429688 167.010498046875 147.72767639160156 166.37216186523438L146.99807739257812 164.42359924316406L146.2771759033203 162.78697204589844C145.9680938720703 162.0784454345703 145.68296813964844 161.37417602539062 145.42115783691406 160.67446899414062C143.8194580078125 157.40664672851562 142.71685791015625 153.67991638183594 142.25344848632812 149.49444580078125ZM40.08625793457031 160.2710418701172C39.66719055175781 154.34266662597656 40.79531478881836 149.02304077148438 43.02912521362305 144.43936157226562C54.60445785522461 117.3543701171875 99.10476684570312 119.36955261230469 105.78076171875 150.48497009277344C105.95756530761719 150.9818115234375 106.12525177001953 151.48794555664062 106.28349304199219 152.00343322753906C106.83647918701172 153.6835174560547 107.24949645996094 155.33946228027344 107.53234100341797 156.96621704101562C107.86790466308594 158.59063720703125 108.08747100830078 160.17787170410156 108.19916534423828 161.72528076171875L108.81552124023438 165.81082153320312C109.03163146972656 166.88876342773438 109.20862579345703 168.00173950195312 109.34416198730469 169.15000915527344L110.14964294433594 175.98512268066406C110.2552490234375 176.72042846679688 110.3427734375 177.47076416015625 110.41151428222656 178.2361602783203L110.99992370605469 185.02340698242188C111.00948333740234 185.13148498535156 111.01861572265625 185.2393341064453 111.02733612060547 185.34695434570312L111.87550354003906 193.632080078125C112.00093078613281 194.48699951171875 112.1017074584961 195.3622589111328 112.17674255371094 196.25794982910156L113.02357482910156 206.98072814941406C113.14898681640625 207.96002197265625 113.24130249023438 208.9652862548828 113.298828125 209.99664306640625L114.0831298828125 224.8984832763672Q114.095458984375 225.08946228027344 114.1061782836914 225.28163146972656L114.58512115478516 233.24569702148438C114.61255645751953 233.7521209716797 114.63098907470703 234.25323486328125 114.64060974121094 234.74900817871094L115.06405639648438 241.155029296875C115.088134765625 241.54530334472656 115.1068115234375 241.9324493408203 115.12019348144531 242.3164520263672L115.7619400024414 253.7169189453125C115.78382873535156 254.11143493652344 115.80023193359375 254.50270080566406 115.81124114990234 254.8907470703125L117.11988830566406 274.3042907714844C117.17211151123047 274.9090270996094 117.21173095703125 275.5231018066406 117.23837280273438 276.1463928222656C117.26203918457031 276.60845947265625 117.27806091308594 277.0660705566406 117.2865982055664 277.5192565917969L118.06084442138672 300.3792419433594C118.09225463867188 301.3103942871094 118.09358215332031 302.2229309082031 118.0660629272461 303.1167907714844L118.1125717163086 318.9740905761719C118.12486267089844 319.5374450683594 118.12596893310547 320.108154296875 118.11558532714844 320.6862487792969L117.63301849365234 348.6484069824219C117.6318130493164 348.8959655761719 117.62846374511719 349.1448974609375 117.62296295166016 349.39520263671875L116.97981262207031 377.6252136230469C116.97786712646484 377.7150573730469 116.97564697265625 377.8047180175781 116.9731674194336 377.8941955566406L116.40509033203125 405.58154296875C116.4035873413086 405.6539001464844 116.40191650390625 405.72613525390625 116.40006256103516 405.7982482910156L116.2422103881836 422.9118347167969L116.29325866699219 437.8694763183594L116.29561614990234 437.97149658203125L116.59080505371094 452.5128479003906C116.59813690185547 452.6689147949219 116.60464477539062 452.8255615234375 116.61034393310547 452.9828186035156L117.17082214355469 468.8193359375C117.18138885498047 469.0131530761719 117.19070434570312 469.2079162597656 117.19876098632812 469.403564453125L118.32083892822266 497.1409606933594C118.3338394165039 497.45660400390625 118.3433609008789 497.7701416015625 118.34945678710938 498.08154296875L118.99691009521484 515.6448974609375C119.06111145019531 516.408935546875 119.1051254272461 517.1878662109375 119.1281967163086 517.9816284179688L119.92186737060547 546.6906127929688C119.93280029296875 547.0662841796875 119.9388427734375 547.4389038085938 119.9400863647461 547.8084716796875L120.5102767944336 574.2227172851562C120.51712036132812 574.5341796875 120.52062225341797 574.8434448242188 120.52082824707031 575.150634765625L120.89342498779297 600.673828125C120.89593505859375 600.84619140625 120.89741516113281 601.0178833007812 120.89789581298828 601.1889038085938L121.09868621826172 619.3934936523438C121.1005630493164 619.5831909179688 121.10121154785156 619.7720947265625 121.10063934326172 619.960205078125L121.20775604248047 642.8478393554688L121.20816040039062 642.957275390625L121.20863342285156 643.1450805664062L121.26272583007812 664.7569580078125L121.26289367675781 664.8242797851562V699.4583740234375L121.20816040039062 711.70556640625V725.019775390625L121.62935638427734 734.5993041992188L122.29908752441406 741.160400390625L122.32897186279297 741.3555908203125C123.71345520019531 742.9530029296875 124.94812774658203 744.7235107421875 126.00052642822266 746.6670532226562C127.23429107666016 748.7908325195312 128.22547912597656 751.10595703125 128.9239044189453 753.6024780273438C129.7992706298828 756.3190307617188 130.29872131347656 759.2135620117188 130.34866333007812 762.2525024414062C130.6651611328125 766.780517578125 129.96180725097656 771.4744262695312 127.99491882324219 776.1050415039062C126.45433807373047 780.5857543945312 123.85562133789062 784.7702026367188 120.07257080078125 788.292236328125C119.25623321533203 789.0924682617188 118.4032211303711 789.8359985351562 117.51834106445312 790.5236206054688C116.25748443603516 791.5902709960938 114.94170379638672 792.5291137695312 113.5827865600586 793.3453979492188C110.793701171875 795.12548828125 107.668701171875 796.4720458984375 104.24085998535156 797.2594604492188C101.40918731689453 797.99853515625 98.56371307373047 798.2945556640625 95.76234436035156 798.2018432617188C93.84568786621094 798.26025390625 91.9018783569336 798.1338500976562 89.94766235351562 797.8043212890625C85.1969223022461 797.1012573242188 80.92943572998047 795.3156127929688 77.25265502929688 792.7584838867188C72.3805923461914 789.9790649414062 68.7276840209961 786.288330078125 66.18801879882812 782.0890502929688C64.13258361816406 779.3023681640625 62.628379821777344 776.4150390625 61.61539840698242 773.4928588867188C61.58424377441406 773.4136352539062 61.55326843261719 773.3341064453125 61.522491455078125 773.2543334960938C60.14602279663086 770.1416625976562 59.27354049682617 767.0846557617188 58.84251403808594 764.1179809570312C58.82200241088867 764.0169677734375 58.80179977416992 763.9157104492188 58.78190994262695 763.8140869140625L58.775550842285156 763.780029296875L58.415950775146484 761.8551635742188L58.40348815917969 761.7884521484375C58.17197799682617 760.7849731445312 57.973628997802734 759.749755859375 57.81034851074219 758.6826171875L56.78425598144531 751.919189453125C56.62388229370117 751.0349731445312 56.490116119384766 750.1278076171875 56.38426208496094 749.1976928710938C56.30148696899414 748.545654296875 56.23493957519531 747.9013061523438 56.18415832519531 747.2647705078125L55.511444091796875 740.6744995117188C55.37865447998047 739.32177734375 55.31219482421875 738.0044555664062 55.30824279785156 736.7228393554688L54.944129943847656 728.4415893554688C54.86552429199219 727.3967895507812 54.82588577270508 726.3246459960938 54.82724380493164 725.2252807617188L54.82729721069336 725.2166748046875L54.83549880981445 723.8826904296875L54.8682975769043 718.5475463867188V664.9337768554688L54.868194580078125 664.8790283203125L54.827537536621094 643.276611328125L54.82724380493164 643.23095703125L54.82673263549805 643.1215209960938L54.71901321411133 620.136962890625L54.71847915649414 620.02294921875L54.556880950927734 601.8020629882812C54.555606842041016 601.731689453125 54.55450439453125 601.6612548828125 54.553565979003906 601.5906982421875L54.19121170043945 575.90380859375C54.188507080078125 575.8043823242188 54.186134338378906 575.7047119140625 54.18409729003906 575.6047973632812L53.61174774169922 549.0903930664062C53.60557556152344 548.9342041015625 53.6002197265625 548.7774047851562 53.59568786621094 548.6200561523438L52.810333251953125 520.693359375C52.80204772949219 520.5245361328125 52.79471206665039 520.35498046875 52.788333892822266 520.1847534179688L51.980979919433594 499.7546081542969C51.95854949951172 499.1353759765625 51.94944381713867 498.5243225097656 51.95329666137695 497.9214782714844L50.85889434814453 472.1266784667969C50.84538269042969 471.7959289550781 50.8356819152832 471.4674987792969 50.82973861694336 471.1413879394531L50.270484924316406 455.3912048339844C50.25007629394531 454.8277893066406 50.24070739746094 454.2711486816406 50.242103576660156 453.7213134765625L49.90101623535156 439.4083251953125C49.89006042480469 438.8714904785156 49.88899612426758 438.3409118652344 49.89759063720703 437.8166809082031L49.8486328125 423.4712829589844C49.84214401245117 423.0675048828125 49.84132385253906 422.6599426269531 49.846282958984375 422.2486267089844L50.05597686767578 405.2106628417969C50.05501937866211 404.87164306640625 50.058082580566406 404.530029296875 50.065223693847656 404.185791015625L50.647483825683594 376.4676818847656C50.64907455444336 376.3520812988281 50.651123046875 376.2361755371094 50.65363693237305 376.1199951171875L51.296783447265625 347.9583740234375C51.29836654663086 347.88525390625 51.30012893676758 347.8122253417969 51.302066802978516 347.7393493652344L51.77383804321289 319.6214599609375L51.724056243896484 302.65716552734375L51.720985412597656 302.56866455078125L50.92959976196289 279.25628662109375L49.64863204956055 259.52935791015625C49.57462692260742 258.8316955566406 49.51716232299805 258.1212158203125 49.47681427001953 257.39788818359375L48.82795715332031 245.92205810546875C48.809818267822266 245.6891326904297 48.7934684753418 245.45484924316406 48.7789306640625 245.21917724609375L48.299991607666016 237.1456298828125C48.270179748535156 236.66221618652344 48.248634338378906 236.18362426757812 48.23517608642578 235.7098388671875L47.875789642333984 228.96261596679688L47.05854034423828 214.42071533203125L46.07102966308594 202.5452880859375C46.065887451171875 202.4976043701172 46.060821533203125 202.44984436035156 46.055824279785156 202.40203857421875L45.003021240234375 192.1179656982422C44.9564323425293 191.71875 44.91505813598633 191.3152618408203 44.87900161743164 190.9075164794922L44.30255126953125 184.2582244873047L43.542144775390625 177.86436462402344L42.715965270996094 172.68399047851562C41.941951751708984 170.73300170898438 41.33543395996094 168.63685607910156 40.92133712768555 166.3955535888672C40.43470764160156 164.30702209472656 40.16300964355469 162.2621307373047 40.08625793457031 160.2710418701172ZM479.2505798339844 158.72885131835938C479.0697326660156 156.6686553955078 479.0513916015625 154.689697265625 479.1806945800781 152.7941436767578V149.965087890625C479.1806945800781 105.752197265625 545.5752563476562 105.752197265625 545.5752563476562 149.965087890625V153.9322509765625L545.6459350585938 154.44175720214844C545.693359375 154.7261199951172 545.7382202148438 155.0128173828125 545.780517578125 155.3018341064453L546.2503662109375 158.74029541015625L547.2857666015625 164.01852416992188L548.0288696289062 167.712646484375C548.1456909179688 168.2379150390625 548.2538452148438 168.77175903320312 548.3531494140625 169.31422424316406L548.9343872070312 172.545654296875C549.02978515625 172.9949188232422 549.118896484375 173.45037841796875 549.2015380859375 173.9120330810547L549.7489013671875 177.00460815429688L550.3783569335938 180.42559814453125C550.560302734375 181.44015502929688 550.70263671875 182.4374237060547 550.806884765625 183.41712951660156L551.61083984375 188.9368896484375L551.6336669921875 189.09352111816406L552.6224975585938 195.6147918701172C552.7152099609375 196.2157440185547 552.7942504882812 196.81033325195312 552.8599853515625 197.39852905273438L554.072998046875 206.78091430664062C554.1109008789062 207.07440185546875 554.1455688476562 207.36630249023438 554.1771240234375 207.6566162109375L555.728759765625 218.75437927246094C555.8348388671875 219.5299835205078 555.91845703125 220.29469299316406 555.9802856445312 221.0483856201172L557.329833984375 233.61517333984375C557.4200439453125 234.46827697753906 557.4837036132812 235.3074951171875 557.5217895507812 236.13272094726562L558.3013916015625 245.53390502929688C558.3853759765625 246.57122802734375 558.4308471679688 247.58712768554688 558.439453125 248.58148193359375L559.2045288085938 263.7609558105469C559.2263793945312 264.2132568359375 559.2410888671875 264.6612854003906 559.2487182617188 265.1050109863281L560.2718505859375 282.26165771484375C560.2986450195312 282.721923828125 560.3179931640625 283.17779541015625 560.3300170898438 283.6293029785156L561.2064208984375 301.1449279785156C561.2147827148438 301.2815246582031 561.2225952148438 301.4185485839844 561.229736328125 301.5560607910156L562.1465454101562 318.9346923828125C562.1760864257812 319.5160827636719 562.1937255859375 320.09039306640625 562.1998291015625 320.6576232910156L563.1041259765625 336.4638671875L563.105224609375 336.4783020019531L564.5960083007812 355.5940246582031C564.6119384765625 355.8023986816406 564.6263427734375 356.0098571777344 564.6392211914062 356.21649169921875L566.470703125 374.14947509765625C566.513916015625 374.5841979980469 566.55029296875 375.0152893066406 566.5799560546875 375.44268798828125L567.866455078125 388.90081787109375C567.8731079101562 388.9701232910156 567.8795166015625 389.03936767578125 567.8858032226562 389.1084899902344L570.112060546875 405.9001770019531C570.187255859375 406.3714904785156 570.2552490234375 406.84912109375 570.31591796875 407.3330993652344L572.7242431640625 426.64117431640625C572.762939453125 426.9523620605469 572.7980346679688 427.2617492675781 572.82958984375 427.5693359375L575.1326293945312 444.86822509765625C575.1544799804688 445.0311279296875 575.17529296875 445.1935729980469 575.1951904296875 445.3554992675781L577.2317504882812 459.5223388671875L579.5662231445312 474.370849609375C579.5810546875 474.46636962890625 579.5955200195312 474.5617370605469 579.6096801757812 474.65692138671875L582.230712890625 489.64862060546875L582.2893676757812 489.9842529296875C582.3827514648438 490.5205993652344 582.465087890625 491.0520935058594 582.5366821289062 491.5786437988281L584.6227416992188 505.3461608886719C584.7313232421875 505.91748046875 584.829345703125 506.49847412109375 584.9166870117188 507.0892028808594L586.681884765625 518.9531860351562C586.84423828125 520.0533447265625 586.9609985351562 521.1320190429688 587.0343017578125 522.1889038085938L588.6886596679688 536.581298828125L588.7071533203125 536.7423706054688L588.7159423828125 536.8208618164062L590.52001953125 552.907958984375C590.6430053710938 553.786865234375 590.7393188476562 554.68701171875 590.8078002929688 555.6085205078125C590.857177734375 556.1853637695312 590.8941650390625 556.7557983398438 590.9191284179688 557.3196411132812L591.9207153320312 573.0665893554688L591.9228515625 573.1006469726562L591.9237670898438 573.1158447265625L592.9354858398438 589.5624389648438C592.9947509765625 590.5233154296875 593.0213623046875 591.4651489257812 593.0166625976562 592.3880004882812L593.3870849609375 601.8482666015625C593.47216796875 602.8934936523438 593.5184936523438 603.9661865234375 593.52392578125 605.06640625L593.5748291015625 617.3011474609375C593.5866088867188 617.8457641601562 593.5879516601562 618.3972778320312 593.57861328125 618.9556274414062L593.315673828125 633.1806030273438C593.314208984375 633.4276733398438 593.3106689453125 633.6760864257812 593.304931640625 633.9259033203125L593.0963134765625 641.6195678710938C593.0938110351562 641.7821044921875 593.09033203125 641.9451904296875 593.0859985351562 642.10888671875L592.8807373046875 649.3750610351562L592.6618041992188 657.9275512695312C592.6602172851562 657.9869384765625 592.6585693359375 658.0462646484375 592.65673828125 658.10546875L592.5112915039062 666.3158569335938C592.5076904296875 666.4702758789062 592.5033569335938 666.6241455078125 592.4981689453125 666.7774047851562L592.3082275390625 676.4168701171875L592.5112915039062 683.803955078125L592.5122680664062 683.8461303710938L592.9967651367188 692.6564331054688C593.0147094726562 692.892578125 593.03076171875 693.1300659179688 593.0449829101562 693.3690185546875L593.5867309570312 702.8189086914062L594.4854736328125 710.5156860351562L595.2891235351562 715.7696533203125C595.29736328125 715.82470703125 595.3055419921875 715.8796997070312 595.3135986328125 715.9346313476562L595.89990234375 718.896240234375C595.94384765625 719.0980224609375 595.986572265625 719.3010864257812 596.028076171875 719.50537109375L596.8944091796875 723.7982177734375L596.9454345703125 724.04833984375C596.9637451171875 724.1393432617188 596.9818115234375 724.2306518554688 596.9996337890625 724.3221435546875L597.0070190429688 724.3619384765625L597.1386108398438 725.0696411132812L597.4885864257812 726.952392578125L598.7030029296875 731.2348022460938L599.1547241210938 732.4423217773438L599.5582885742188 733.3519287109375L599.5589599609375 733.3533935546875L599.5632934570312 733.3612060546875C620.1861572265625 771.8410034179688 562.4810791015625 803.526611328125 541.1964111328125 764.9361572265625L541.1407470703125 764.8283081054688C540.4457397460938 763.633544921875 539.7943725585938 762.3654174804688 539.1913452148438 761.0220336914062C538.9418334960938 760.4892578125 538.7066650390625 759.958251953125 538.485595703125 759.4292602539062C538.248046875 758.9071655273438 538.0186767578125 758.3734130859375 537.7976684570312 757.8278198242188C537.3568115234375 756.7753295898438 536.9685668945312 755.7325439453125 536.6307983398438 754.7005615234375C536.1450805664062 753.5042114257812 535.7042846679688 752.250244140625 535.3123168945312 750.9374389648438L534.98388671875 749.8701171875C534.8174438476562 749.310791015625 534.6641845703125 748.7555541992188 534.5239868164062 748.2044677734375L534.1432495117188 746.8961791992188C533.5846557617188 745.298583984375 533.1142578125 743.6055297851562 532.7415161132812 741.8152465820312C532.5007934570312 740.7576904296875 532.3074951171875 739.7161254882812 532.1597290039062 738.6912231445312L531.8418579101562 736.953857421875L531.8360595703125 736.9252319335938L531.3138427734375 734.3372802734375C531.1550903320312 733.6810913085938 531.0098266601562 733.0111083984375 530.8787231445312 732.3272705078125L529.8524169921875 726.935791015625C529.6503295898438 725.8820190429688 529.4915161132812 724.8464965820312 529.3740234375 723.8294677734375L528.7303466796875 719.6696166992188C528.5895385742188 718.73095703125 528.48193359375 717.807861328125 528.4061279296875 716.9005737304688L527.6889038085938 710.5502319335938C527.6217041015625 710.0396728515625 527.5635375976562 709.5220336914062 527.5145263671875 708.997314453125C527.4025268554688 707.9402465820312 527.3316040039062 706.9044799804688 527.300048828125 705.8901977539062L526.7598266601562 697.2689819335938Q526.7315673828125 696.793701171875 526.7138671875 696.32470703125L526.1714477539062 686.4722900390625C526.1141357421875 685.4203491210938 526.0957641601562 684.391357421875 526.1144409179688 683.3854370117188L525.9823608398438 678.5822143554688C525.966064453125 678.1900634765625 525.9552612304688 677.794189453125 525.9500122070312 677.3948364257812C525.9286499023438 676.4697265625 525.9368896484375 675.5632934570312 525.9735107421875 674.6755981445312L526.105224609375 665.7643432617188C526.105224609375 665.4351806640625 526.1090698242188 665.1035766601562 526.11669921875 664.76953125L526.3232421875 656.80419921875C526.3258056640625 656.5912475585938 526.3298950195312 656.3773193359375 526.3356323242188 656.162353515625L526.5353393554688 647.8405151367188L526.5408935546875 647.60986328125L526.5501708984375 647.3013305664062L526.7598266601562 640.3436889648438C526.7620239257812 640.26171875 526.764404296875 640.179931640625 526.7670288085938 640.0982666015625L526.9240112304688 632.3795776367188C526.9267578125 632.2646484375 526.9299926757812 632.1500854492188 526.9336547851562 632.0357666015625L527.1817016601562 617.9125366210938L527.1292724609375 605.326416015625L527.1290893554688 605.0517578125L526.6503295898438 592.8739624023438L526.64697265625 592.7855224609375L525.6486206054688 577.38720703125L525.6377563476562 577.2195434570312L525.6265869140625 577.0322875976562L524.7266845703125 561.9168090820312L524.720947265625 561.8661499023438L522.8295288085938 544.8829345703125C522.8016357421875 544.6657104492188 522.7752685546875 544.447265625 522.7504272460938 544.2274780273438L520.8837280273438 527.6316528320312L519.4876708984375 518.2378540039062C519.4111328125 517.820068359375 519.340087890625 517.3971557617188 519.2747192382812 516.9690551757812L516.8770751953125 501.157958984375L514.3161010742188 486.4728088378906C514.1912841796875 485.8531799316406 514.0787963867188 485.22198486328125 513.97900390625 484.5791015625L511.6778869628906 469.88946533203125L511.6253662109375 469.5541076660156C511.5851745605469 469.2951965332031 511.5475158691406 469.0374450683594 511.5123596191406 468.7808837890625L509.3811950683594 454.0091247558594C509.264404296875 453.19024658203125 509.1726989746094 452.3833923339844 509.1052551269531 451.58868408203125L506.8770446777344 435.138916015625C506.7834777832031 434.4355163574219 506.7083740234375 433.74114990234375 506.65118408203125 433.0558776855469L504.6535949707031 417.05255126953125C504.58636474609375 416.6365661621094 504.5246887207031 416.2156677246094 504.4686584472656 415.789794921875L501.89605712890625 396.38592529296875C501.74334716796875 395.2226867675781 501.6408996582031 394.084228515625 501.5863037109375 392.9707946777344L500.5125427246094 381.73834228515625C500.4732360839844 381.4191589355469 500.43719482421875 381.0971984863281 500.4045104980469 380.77252197265625L498.4750671386719 361.4781494140625C498.3982849121094 360.7152404785156 498.3426513671875 359.9635925292969 498.3074645996094 359.22320556640625L496.96258544921875 341.977783203125C496.90252685546875 341.376220703125 496.8546447753906 340.7652587890625 496.8193054199219 340.14483642578125L495.8614501953125 322.45147705078125C495.84100341796875 322.0930480957031 495.8251037597656 321.7372741699219 495.81365966796875 321.3841857910156L494.9582824707031 304.97705078125C494.9486999511719 304.79278564453125 494.9403076171875 304.6092224121094 494.93310546875 304.4263916015625L494.04046630859375 286.8505554199219Q494.0101318359375 286.4539794921875 493.9867248535156 286.0521240234375L492.91937255859375 267.2914123535156C492.88848876953125 266.7584533691406 492.86761474609375 266.23138427734375 492.8565673828125 265.7101745605469L492.1212463378906 250.88487243652344L491.2088928222656 239.8140106201172C491.1944885253906 239.63677978515625 491.18121337890625 239.4601593017578 491.1690368652344 239.2841796875L489.9521484375 227.94146728515625C489.942138671875 227.87147521972656 489.93231201171875 227.80133056640625 489.922607421875 227.73106384277344L488.4392395019531 216.82040405273438C488.35516357421875 216.31385803222656 488.2793884277344 215.79995727539062 488.21209716796875 215.27865600585938L486.884765625 204.9062042236328C486.8599853515625 204.71429443359375 486.83660888671875 204.52305603027344 486.8145446777344 204.33250427246094L485.9679260253906 199.03578186035156C485.9138488769531 198.68162536621094 485.8645324707031 198.32968139648438 485.8198547363281 197.97994995117188L485.005615234375 192.11337280273438L484.421630859375 188.71807861328125L483.8332214355469 185.5570831298828Q483.75042724609375 185.09197998046875 483.6786804199219 184.6317138671875L483.02587890625 181.2329559326172C482.9915771484375 181.04417419433594 482.9586181640625 180.8560028076172 482.92706298828125 180.6684112548828L482.2322082519531 177.00460815429688L481.0553894042969 171.2847137451172C480.7915954589844 169.9633026123047 480.59625244140625 168.6700897216797 480.4656066894531 167.40577697753906L480.0975036621094 164.880615234375L480.0874938964844 164.81137084960938C479.6585388183594 162.89552307128906 479.37396240234375 160.86801147460938 479.2505798339844 158.72885131835938Z" fill="black"/>
</svg>
