<svg xmlns="http://www.w3.org/2000/svg" viewBox="0 0 430 1000">
  <path d="M103.21228790283203 111.0C104.37224578857422 111.0 105.5018310546875 111.0455551147461 106.60105895996094 111.13428497314453L108.87151336669922 111.2159194946289C109.80233001708984 111.22102355957031 110.75218200683594 111.25819396972656 111.72097778320312 111.3288345336914L118.43266296386719 111.79866027832031L118.57177734375 111.80839538574219L127.72443389892578 112.4523696899414C128.0602264404297 112.47630310058594 128.3931884765625 112.5038833618164 128.7233428955078 112.53504180908203L136.1010284423828 112.94757080078125C136.5337371826172 112.95391082763672 136.97055053710938 112.9669189453125 137.41146850585938 112.98673248291016L144.96104431152344 113.30186462402344C145.19187927246094 113.31222534179688 145.42144775390625 113.32434844970703 145.64971923828125 113.33819580078125L154.5151824951172 113.60152435302734L165.88336181640625 113.24706268310547C166.68338012695312 113.2230453491211 167.46958923339844 113.2211685180664 168.24195861816406 113.24064636230469L178.72462463378906 113.1939468383789C178.77841186523438 113.19328308105469 178.83226013183594 113.19271850585938 178.8861846923828 113.19225311279297L185.5862579345703 113.137451171875C185.93748474121094 113.13495635986328 186.2859649658203 113.13665008544922 186.63168334960938 113.14247131347656L191.5738525390625 112.98673248291016C192.0412139892578 112.9754638671875 192.50381469726562 112.9717025756836 192.96168518066406 112.97528076171875L198.7145538330078 112.74401092529297C198.95449829101562 112.73163604736328 199.19583129882812 112.72119140625 199.43856811523438 112.71269989013672L213.63340759277344 112.23314666748047C213.93289184570312 112.22305297851562 214.23045349121094 112.21605682373047 214.52609252929688 112.21212005615234L228.77366638183594 111.80839538574219C229.05650329589844 111.79981231689453 229.33763122558594 111.79399871826172 229.6170196533203 111.7909164428711L239.584228515625 111.53436279296875C239.88555908203125 111.52672576904297 240.18492126464844 111.52220916748047 240.48231506347656 111.5207748413086L250.71092224121094 111.31598663330078C251.9781036376953 111.2418212890625 253.28402709960938 111.22659301757812 254.62857055664062 111.27403259277344L266.17901611328125 111.69878387451172C266.95428466796875 111.72686004638672 267.7152099609375 111.77481079101562 268.4618835449219 111.84193420410156L275.4527587890625 112.27696990966797C275.8565368652344 112.2929916381836 276.2637939453125 112.31488037109375 276.6744384765625 112.34275817871094L282.8812561035156 112.76750183105469C283.086669921875 112.78144073486328 283.2910461425781 112.79674530029297 283.4943542480469 112.81340789794922L288.6323547363281 113.13978576660156C289.393798828125 113.1675796508789 290.16717529296875 113.21782684326172 290.9523620605469 113.29132080078125C292.1373291015625 113.38302612304688 293.2868957519531 113.52088165283203 294.4011535644531 113.7022476196289L298.21478271484375 114.178955078125L303.2829284667969 114.42539978027344C303.53839111328125 114.43933868408203 303.7922668457031 114.45541381835938 304.0445251464844 114.47359466552734L304.6306457519531 114.4893798828125C304.91033935546875 114.4836196899414 305.1918640136719 114.48055267333984 305.4751892089844 114.4802017211914H311.03802490234375L312.7545471191406 114.41749572753906C313.1603088378906 114.39623260498047 313.570068359375 114.38056945800781 313.9838562011719 114.37059020996094L319.6015319824219 114.26097869873047C319.72705078125 114.25794982910156 319.85223388671875 114.25546264648438 319.97705078125 114.2535171508789L323.6373291015625 114.16839599609375L323.7804870605469 114.16506958007812L323.9813232421875 114.1611099243164L326.5619201660156 114.11026000976562L329.0144958496094 114.05545806884766C329.1793518066406 114.05204010009766 329.3435974121094 114.049560546875 329.50726318359375 114.04800415039062L332.2891845703125 114.00064849853516C332.3399963378906 113.9996566772461 332.3907470703125 113.9987564086914 332.4414367675781 113.99794006347656L333.7516784667969 113.96154022216797L334.1565856933594 113.9502944946289L334.3170166015625 113.94583892822266C334.7933349609375 113.93714904785156 335.26470947265625 113.93623352050781 335.7310485839844 113.94290924072266C336.03717041015625 113.9385757446289 336.3412170410156 113.93746948242188 336.64306640625 113.93954467773438C380.2545471191406 113.86223602294922 381.14447021484375 179.62008666992188 337.0997619628906 180.3711395263672L337.09844970703125 180.37120056152344C336.60650634765625 180.39781188964844 336.10870361328125 180.4161376953125 335.60498046875 180.42596435546875H335.5501708984375C335.058349609375 180.43417358398438 334.57183837890625 180.43411254882812 334.0906677246094 180.42596435546875H333.5634460449219C333.376220703125 180.42955017089844 333.1897888183594 180.43194580078125 333.0041198730469 180.43313598632812L330.49432373046875 180.46531677246094L330.4120788574219 180.46707153320312L328.416015625 180.51141357421875C328.2779846191406 180.51553344726562 328.1394958496094 180.51902770996094 328.0005798339844 180.52186584472656L325.21917724609375 180.57667541503906L321.7831115722656 180.6692352294922C321.5911560058594 180.67616271972656 321.3983154296875 180.68185424804688 321.20458984375 180.68629455566406L315.5321350097656 180.8507080078125C315.3432312011719 180.85504150390625 315.1551208496094 180.85813903808594 314.9677734375 180.86001586914062L312.4766845703125 180.905517578125C312.2413024902344 180.91061401367188 312.0071105957031 180.91380310058594 311.7741394042969 180.9151153564453L309.4349365234375 180.9603271484375C308.9796447753906 180.9673614501953 308.5289306640625 180.96731567382812 308.0827941894531 180.9603271484375H306.7082824707031C306.0558776855469 180.97557067871094 305.3936462402344 180.97572326660156 304.7215881347656 180.9603271484375L303.94354248046875 180.9390869140625L304.2620849609375 184.08375549316406C304.31488037109375 184.46359252929688 304.363037109375 184.847412109375 304.4064636230469 185.23521423339844L304.73577880859375 188.35914611816406C304.7691650390625 188.58155822753906 304.80096435546875 188.8053741455078 304.8312072753906 189.0305633544922L305.4203796386719 193.53839111328125C305.4613952636719 193.84677124023438 305.4988708496094 194.1534423828125 305.5328369140625 194.45835876464844L306.1602478027344 198.56686401367188C306.1805114746094 198.70143127441406 306.2000732421875 198.83566284179688 306.2189636230469 198.96958923339844L307.133056640625 204.66407775878906C307.2722473144531 205.55343627929688 307.3815002441406 206.42897033691406 307.4619140625 207.29051208496094L308.464111328125 215.16342163085938C308.52398681640625 215.58726501464844 308.57794189453125 216.0160675048828 308.6258544921875 216.44972229003906C308.681396484375 216.92202758789062 308.7286376953125 217.39016723632812 308.76776123046875 217.85414123535156L309.456787109375 224.8098602294922C309.4912109375 225.12139892578125 309.5223083496094 225.4355010986328 309.55010986328125 225.75218200683594C309.64190673828125 226.68789672851562 309.70196533203125 227.60678100585938 309.73150634765625 228.5085906982422L310.40447998046875 239.77806091308594C310.477294921875 240.56253051757812 310.5289001464844 241.36285400390625 310.5584716796875 242.1790313720703L311.09283447265625 257.3329772949219C311.11614990234375 257.9768981933594 311.1250915527344 258.6119689941406 311.1200256347656 259.2381591796875L311.407958984375 273.7611999511719C311.4142150878906 274.0633239746094 311.4173889160156 274.3634033203125 311.4173889160156 274.6615295410156L311.5556945800781 284.6536865234375C311.56182861328125 284.7857971191406 311.5674133300781 284.9183349609375 311.5723876953125 285.0513000488281L312.19268798828125 301.1390686035156C312.2015075683594 301.3066711425781 312.20941162109375 301.4749755859375 312.21636962890625 301.6439514160156L312.9151306152344 319.0997619628906L312.91827392578125 319.1806640625L313.9351806640625 334.7811584472656C313.952880859375 334.992431640625 313.9690856933594 335.204833984375 313.9838562011719 335.4183654785156L314.7015380859375 346.229736328125C314.7795715332031 346.91131591796875 314.84197998046875 347.605224609375 314.88818359375 348.3115539550781L315.59564208984375 359.42523193359375C315.6123962402344 359.629150390625 315.62774658203125 359.8341064453125 315.6417541503906 360.0401306152344L316.1734619140625 368.00347900390625C316.1944274902344 368.2386474609375 316.2135925292969 368.4752197265625 316.2309265136719 368.7132263183594L316.8749084472656 377.81109619140625C316.9089050292969 378.2792053222656 316.9350891113281 378.7428894042969 316.95361328125 379.2021484375L317.9984436035156 394.9380798339844C318.013427734375 395.1670837402344 318.0265197753906 395.3950500488281 318.0378112792969 395.6219177246094L318.9575500488281 406.9817810058594C318.9607849121094 407.02294921875 318.9639892578125 407.0640869140625 318.96710205078125 407.10516357421875L320.7545166015625 423.546875L322.7759094238281 438.3311767578125C322.8916931152344 438.9810485839844 322.9938049316406 439.6432189941406 323.08172607421875 440.3177490234375L325.10955810546875 456.0060729980469C325.2138977050781 456.8143005371094 325.2940368652344 457.61053466796875 325.35076904296875 458.39471435546875L326.45611572265625 468.416015625C326.56182861328125 469.18646240234375 326.6476135253906 469.9732360839844 326.712646484375 470.7763671875L327.7402648925781 483.51885986328125C327.8122253417969 484.4073181152344 327.8559265136719 485.2800598144531 327.8724060058594 486.1370544433594L328.398681640625 496.6825256347656C328.5301818847656 498.02398681640625 328.593017578125 499.4111022949219 328.5823669433594 500.8434753417969C328.60845947265625 502.4272155761719 328.5448303222656 503.9561767578125 328.39794921875 505.4300842285156L327.90380859375 515.76904296875C327.8890380859375 516.529541015625 327.85302734375 517.3025512695312 327.7950744628906 518.0879516601562L327.0773620605469 527.6371459960938C327.0552673339844 528.1078491210938 327.02508544921875 528.5830688476562 326.9866638183594 529.0629272460938L325.808349609375 543.94287109375C325.7294006347656 544.9288940429688 325.619140625 545.8901977539062 325.4790954589844 546.8269653320312L324.36981201171875 557.3799438476562C324.3326721191406 558.0659790039062 324.2779846191406 558.7616577148438 324.20526123046875 559.466796875L322.9330749511719 571.2763671875C322.9281005859375 571.367919921875 322.9228515625 571.4596557617188 322.91729736328125 571.5515747070312L322.3716125488281 580.3331909179688L322.22314453125 590.9238891601562L322.3171081542969 600.6148681640625L322.95391845703125 610.6068115234375C322.9809875488281 610.8950805664062 323.0053405761719 611.1854858398438 323.02691650390625 611.47802734375L323.6529235839844 620.0602416992188C323.7286376953125 620.7228393554688 323.7895812988281 621.3970947265625 323.8352966308594 622.0830688476562L324.5203857421875 632.6743774414062C324.53094482421875 632.832763671875 324.5406188964844 632.9906005859375 324.5494079589844 633.14794921875L325.6439208984375 644.457763671875C325.66607666015625 644.69140625 325.68621826171875 644.9239501953125 325.7044372558594 645.1554565429688L326.60955810546875 654.7695922851562C326.6947937011719 655.4220581054688 326.7658386230469 656.0861206054688 326.822265625 656.7617797851562L327.5210266113281 665.1197509765625C327.53302001953125 665.2648315429688 327.54425048828125 665.409423828125 327.55474853515625 665.5536499023438L328.6445617675781 674.423095703125C328.7073669433594 674.9552612304688 328.759765625 675.4820556640625 328.8019714355469 676.0036010742188L329.6217346191406 682.5315551757812Q329.6707763671875 682.8936767578125 329.714111328125 683.260498046875C329.7226867675781 683.3331298828125 329.7311096191406 683.4059448242188 329.7393493652344 683.4788208007812C329.76593017578125 683.7064208984375 329.7906494140625 683.9334716796875 329.8134765625 684.1595458984375L330.51727294921875 690.6611328125C330.58197021484375 691.1652221679688 330.6383056640625 691.6762084960938 330.68609619140625 692.194091796875L331.220458984375 697.9761352539062C331.286865234375 698.6990966796875 331.33441162109375 699.411865234375 331.3637390136719 700.1143798828125L331.5904235839844 703.4293823242188C331.6380920410156 704.07568359375 331.6708984375 704.713623046875 331.68927001953125 705.3430786132812L331.9055480957031 709.6910400390625C331.9365539550781 710.4219970703125 331.94891357421875 711.1416625976562 331.94329833984375 711.8500366210938L332.0151672363281 714.7332153320312C332.024169921875 715.1255493164062 332.0278625488281 715.5145874023438 332.0263366699219 715.9002075195312L332.0699768066406 718.8025512695312C332.07342529296875 719.12109375 332.0733947753906 719.4373168945312 332.0699768066406 719.7513427734375V720.9620971679688C332.1197509765625 722.1106567382812 332.11700439453125 723.289306640625 332.0586853027344 724.4976196289062C332.0112609863281 726.579345703125 331.8150939941406 728.5602416992188 331.48455810546875 730.4403686523438L331.47222900390625 730.7691040039062L336.19415283203125 730.35302734375L336.2183837890625 730.3509521484375L341.3870544433594 729.7638549804688Q341.80889892578125 729.7151489257812 342.2262268066406 729.675048828125L342.3349914550781 729.6602783203125C342.82958984375 729.581787109375 343.33111572265625 729.51123046875 343.8396301269531 729.44873046875L346.2510986328125 729.1746826171875C346.41400146484375 729.1546630859375 346.576416015625 729.1356811523438 346.73834228515625 729.1176147460938L349.5257873535156 728.7499389648438C349.7897644042969 728.7164916992188 350.052490234375 728.6856689453125 350.31390380859375 728.6574096679688C350.6014709472656 728.612548828125 350.89141845703125 728.5703125 351.1836853027344 728.5307006835938L351.70697021484375 728.4837646484375C351.8879089355469 728.4617309570312 352.0682678222656 728.4409790039062 352.2480163574219 728.42138671875L352.40313720703125 728.3800048828125C394.5386657714844 722.6777954101562 404.4969482421875 782.9806518554688 366.4999694824219 793.1768798828125C364.8069152832031 793.6409301757812 363.0177307128906 794.0045776367188 361.13104248046875 794.2572631835938L360.06231689453125 794.421630859375C359.6944885253906 794.4710083007812 359.3291015625 794.515380859375 358.9662170410156 794.5547485351562L357.97967529296875 794.6956787109375C357.63470458984375 794.7406616210938 357.2919006347656 794.7811889648438 356.9512939453125 794.8173828125L354.66387939453125 795.1204223632812C354.1058654785156 795.1910400390625 353.5535888671875 795.2501220703125 353.0071105957031 795.2979736328125L351.9783630371094 795.435546875Q351.48565673828125 795.4961547851562 350.9990234375 795.5448608398438L350.82623291015625 795.5653076171875C350.2204895019531 795.6620483398438 349.6043395996094 795.746826171875 348.97772216796875 795.8192138671875L344.28631591796875 796.3416137695312C343.5145568847656 796.4525756835938 342.7262878417969 796.5436401367188 341.9214172363281 796.6138916015625L336.69671630859375 797.0314331054688C335.7491149902344 797.1384887695312 334.77777099609375 797.2144775390625 333.78265380859375 797.2578735351562L327.1648254394531 797.53076171875C326.473388671875 797.5797729492188 325.77001953125 797.6123046875 325.05474853515625 797.6278076171875L314.6482238769531 797.8359375C314.5321350097656 797.840087890625 314.4157409667969 797.8438110351562 314.29901123046875 797.8470458984375L302.1111145019531 798.1997680664062C301.96331787109375 798.2062377929688 301.81500244140625 798.2119750976562 301.6661376953125 798.2169799804688L287.75238037109375 798.6904296875C287.5953369140625 798.6978759765625 287.43768310546875 798.7044677734375 287.2794494628906 798.7102661132812L275.71533203125 799.0802001953125C275.5864562988281 799.0848388671875 275.4579162597656 799.0889282226562 275.3297424316406 799.0924682617188L259.76666259765625 799.6693725585938C259.1679992675781 799.6895141601562 258.5770263671875 799.6973266601562 257.99371337890625 799.6930541992188L244.37725830078125 799.953369140625C243.4500732421875 799.99755859375 242.50234985351562 800.0106811523438 241.53419494628906 799.9913330078125C241.0341339111328 799.9871215820312 240.53977966308594 799.9740600585938 240.0511016845703 799.9525756835938L228.72573852539062 799.6492309570312C228.15969848632812 799.6492309570312 227.58651733398438 799.6377563476562 227.00616455078125 799.6145629882812L213.7293243408203 799.0802001953125C212.97537231445312 799.0491333007812 212.2350616455078 798.9993286132812 211.50836181640625 798.9314575195312L198.26022338867188 798.2169799804688C197.56126403808594 798.17822265625 196.87428283691406 798.1234741210938 196.19924926757812 798.05322265625L183.06515502929688 797.1482543945312C182.39479064941406 797.1004638671875 181.7356719970703 797.0381469726562 181.0877685546875 796.9617919921875L169.47512817382812 796.1184692382812L161.3316192626953 795.7059936523438C160.92506408691406 795.6948852539062 160.51495361328125 795.6778564453125 160.10130310058594 795.65478515625L149.832275390625 795.0507202148438C149.40904235839844 795.0438232421875 148.98190307617188 795.0305786132812 148.5508575439453 795.0108032226562L138.07969665527344 794.4798583984375L129.21282958984375 794.5283813476562L129.06719970703125 794.53125L124.26348114013672 794.6240844726562C124.11600494384766 794.6304321289062 123.96800231933594 794.635986328125 123.8194808959961 794.640869140625L117.70360565185547 794.8316040039062L113.33014678955078 795.1480102539062C110.7955551147461 796.112060546875 108.02155303955078 796.7967529296875 105.00812530517578 797.1492309570312C100.59720611572266 797.934814453125 96.47067260742188 797.8613891601562 92.68218231201172 797.0961303710938C54.66835021972656 792.209716796875 55.35348892211914 734.024658203125 94.73760223388672 731.0595703125C95.1622543334961 730.9445190429688 95.59294128417969 730.8352661132812 96.029541015625 730.7321166992188C97.29225158691406 730.397216796875 98.53376770019531 730.1312255859375 99.75298309326172 729.9305419921875C100.01652526855469 729.8786010742188 100.28218841552734 729.8289794921875 100.54993438720703 729.7817993164062L100.63639068603516 729.7638549804688C102.40113067626953 729.4254760742188 104.11489868164062 729.2081298828125 105.7760009765625 729.1030883789062C106.7497329711914 728.9705810546875 107.7494125366211 728.8705444335938 108.77513885498047 728.8047485351562L112.98172760009766 728.5547485351562C113.67289733886719 728.4982299804688 114.37617492675781 728.4580688476562 115.09156799316406 728.434814453125L121.68203735351562 728.215576171875C122.22320556640625 728.197998046875 122.75808715820312 728.1905517578125 123.28666687011719 728.1929931640625L127.83404541015625 728.10595703125C128.28228759765625 728.0973510742188 128.72613525390625 728.0956420898438 129.16555786132812 728.1007080078125L135.8694305419922 728.064208984375C137.2127227783203 727.991455078125 138.59912109375 727.9856567382812 140.02845764160156 728.0511474609375L151.6474151611328 728.5855102539062C152.36203002929688 728.6193237304688 153.0642852783203 728.669921875 153.7542266845703 728.7366943359375L159.8037109375 729.0646362304688L159.5669403076172 726.9276123046875L159.55764770507812 726.8455200195312L158.87733459472656 722.0638427734375L158.23788452148438 718.4189453125C158.1900634765625 718.152587890625 158.1449737548828 717.887451171875 158.1025848388672 717.6234741210938L157.80197143554688 716.036865234375C157.7085723876953 715.6079711914062 157.6208953857422 715.1734619140625 157.53909301757812 714.7332153320312L156.82814025878906 710.8613891601562C156.60108947753906 709.8128662109375 156.41075134277344 708.73046875 156.25927734375 707.6138916015625L156.2511444091797 707.5535888671875C156.19921875 707.20166015625 156.15283203125 706.8519287109375 156.11123657226562 706.5042724609375L155.6226043701172 702.8394165039062C155.4618682861328 701.8709716796875 155.33285522460938 700.8756713867188 155.2372283935547 699.853271484375L154.3740234375 690.4813842773438C154.25576782226562 689.229248046875 154.19419860839844 688.0076904296875 154.18626403808594 686.8169555664062L153.87913513183594 680.1080322265625C153.86419677734375 679.8768310546875 153.85104370117188 679.6443481445312 153.8396759033203 679.4105224609375L153.30531311035156 669.230224609375C153.28225708007812 668.7529907226562 153.26718139648438 668.280517578125 153.25990295410156 667.8128051757812L152.99017333984375 660.9407348632812C152.9645538330078 660.3364868164062 152.95164489746094 659.7399291992188 152.95111083984375 659.151123046875L152.74179077148438 652.1300048828125C152.62266540527344 650.7271728515625 152.57583618164062 649.2750244140625 152.6065216064453 647.7735595703125L152.88055419921875 635.5106201171875C152.88291931152344 635.4014282226562 152.88568115234375 635.2925415039062 152.8888397216797 635.1838989257812L153.0997772216797 622.6722412109375V612.8755493164062C153.10047912597656 612.5499267578125 153.10476684570312 612.2266845703125 153.1125946044922 611.9058227539062L152.8854217529297 599.3877563476562L152.01736450195312 586.9658813476562C152.00572204589844 586.7966918945312 151.99508666992188 586.628173828125 151.9854736328125 586.4601440429688L151.14788818359375 574.2554321289062C151.08062744140625 573.514404296875 151.03225708007812 572.75927734375 151.00343322753906 571.9900512695312L151.00238037109375 571.9624633789062L150.97962951660156 571.3666381835938L150.6334991455078 562.302978515625C150.58511352539062 561.0108642578125 150.59466552734375 559.7542724609375 150.6588897705078 558.5333862304688L150.7738800048828 549.4686889648438C150.75526428222656 548.4739990234375 150.77328491210938 547.456787109375 150.82969665527344 546.4172973632812C150.85305786132812 545.8460083007812 150.8876190185547 545.2825317382812 150.9330291748047 544.7268676757812L151.332275390625 538.2703857421875C151.37844848632812 537.5364379882812 151.442138671875 536.8157958984375 151.5227508544922 536.1084594726562L151.91839599609375 530.1229858398438L151.92144775390625 530.0768432617188L151.92645263671875 530.0014038085938L152.894775390625 515.4021606445312C152.90440368652344 515.0711669921875 152.91790771484375 514.7378540039062 152.93536376953125 514.4022216796875L153.5245361328125 502.9477233886719C153.53538513183594 502.7442626953125 153.54759216308594 502.54180908203125 153.56112670898438 502.3403625488281L153.89447021484375 488.0677795410156L153.89700317382812 487.9627380371094L153.9440460205078 474.03619384765625L153.30531311035156 460.50018310546875C153.2875213623047 460.11175537109375 153.27499389648438 459.7265319824219 153.26763916015625 459.3444519042969L152.5106201171875 446.8533935546875C152.4794464111328 446.3177490234375 152.4583740234375 445.7879943847656 152.44715881347656 445.2641906738281L151.48300170898438 430.6307067871094C151.45828247070312 430.2532958984375 151.43862915039062 429.8787841796875 151.4239501953125 429.5072021484375L150.55125427246094 415.13153076171875C150.4901580810547 414.3960266113281 150.4479522705078 413.64678955078125 150.42530822753906 412.8840026855469C150.40475463867188 412.35235595703125 150.39427185058594 411.82666015625 150.39364624023438 411.3069763183594L150.09913635253906 395.1983947753906C150.08651733398438 394.5893249511719 150.08663940429688 393.9884338378906 150.09913635253906 393.3956298828125V381.2912902832031C150.1031036376953 380.2207946777344 150.145751953125 379.17626953125 150.22520446777344 378.15771484375L150.72056579589844 363.1351623535156C150.72564697265625 362.8722839355469 150.73313903808594 362.6078796386719 150.74310302734375 362.34197998046875L151.3870849609375 344.4066162109375C151.3923797607422 344.26531982421875 151.39833068847656 344.12445068359375 151.40492248535156 343.9841003417969L151.86663818359375 328.78680419921875C151.8693084716797 328.7012634277344 151.87222290039062 328.6158752441406 151.87538146972656 328.5306701660156L152.0155029296875 314.09930419921875L151.92332458496094 297.23291015625C151.92262268066406 297.1869812011719 151.9219970703125 297.1410217285156 151.92144775390625 297.0950012207031L151.7022247314453 279.43365478515625C151.6962127685547 278.8784484863281 151.70071411132812 278.330078125 151.7154541015625 277.78857421875L151.4106903076172 263.72467041015625C151.4016876220703 263.5405578613281 151.39381408691406 263.3556213378906 151.3870849609375 263.16986083984375L151.0425262451172 252.9317169189453C151.02780151367188 252.7056427001953 151.01475524902344 252.47830200195312 151.00343322753906 252.24969482421875L150.30465698242188 238.21926879882812C150.30104064941406 238.14625549316406 150.297607421875 238.0733642578125 150.2943572998047 238.00057983398438L149.4551544189453 226.17556762695312C149.44570922851562 226.0436248779297 149.43687438964844 225.9120330810547 149.4286651611328 225.78079223632812L148.63758850097656 216.73992919921875C148.57998657226562 216.18467712402344 148.53271484375 215.62132263183594 148.4960479736328 215.0498809814453L148.00279235839844 208.03466796875C147.98094177246094 207.69415283203125 147.96319580078125 207.35598754882812 147.94949340820312 207.0202178955078L147.41217041015625 201.00765991210938L146.4459991455078 193.26541137695312L145.95668029785156 190.3993377685547C145.8864288330078 190.07420349121094 145.81942749023438 189.74583435058594 145.7557373046875 189.41419982910156L145.40264892578125 187.4984130859375C144.51043701171875 185.128662109375 143.8645477294922 182.55172729492188 143.50843811035156 179.76815795898438C143.0160369873047 179.76321411132812 142.51828002929688 179.74961853027344 142.01519775390625 179.72718811035156L134.4656219482422 179.39834594726562C133.69610595703125 179.36404418945312 132.94088745117188 179.3102569580078 132.1999053955078 179.2376708984375L125.43008422851562 178.85960388183594C124.63737487792969 178.8478546142578 123.83102416992188 178.8130645751953 123.0110855102539 178.75436401367188L113.80361938476562 178.0692901611328L106.95282745361328 177.58973693847656L106.94074249267578 177.5888671875L103.65019226074219 177.4779510498047C103.50470733642578 177.47940063476562 103.3587417602539 177.48011779785156 103.21228790283203 177.48011779785156H73.23320770263672C28.922264099121094 177.48011779785156 28.922264099121094 111.0 73.23320770263672 111.0H103.21228790283203ZM265.6035461425781 721.629150390625V716.281494140625L265.52520751953125 713.1477661132812C265.51336669921875 712.9419555664062 265.5029296875 712.735107421875 265.4939270019531 712.5272216796875L265.3023376464844 707.95263671875L264.9639587402344 703.54150390625L264.46630859375 698.2913208007812L264.4537048339844 698.15185546875L263.69366455078125 691.0171508789062L262.65771484375 682.3974609375C262.6051025390625 681.9696655273438 262.5592346191406 681.5452880859375 262.5199890136719 681.1243286132812L261.5083923339844 672.8812255859375C261.4571838378906 672.5084838867188 261.41064453125 672.1318969726562 261.36883544921875 671.75146484375L261.3566589355469 671.6392822265625C261.2688293457031 670.8782958984375 261.2022705078125 670.1281127929688 261.1563720703125 669.3888549804688L260.5613708496094 662.2835083007812C260.5365905761719 661.982177734375 260.51507568359375 661.6827392578125 260.49676513671875 661.385009765625L259.5582275390625 651.4160766601562C259.534912109375 651.2033081054688 259.5130310058594 650.9893188476562 259.4926452636719 650.774169921875L258.2594909667969 638.0316772460938C258.1706237792969 637.0907592773438 258.1138000488281 636.1670532226562 258.087646484375 635.2606811523438L257.59552001953125 627.6426391601562Q257.55316162109375 627.195556640625 257.5196228027344 626.7415771484375L256.88232421875 618.005126953125C256.8117980957031 617.37451171875 256.754638671875 616.7333984375 256.7112121582031 616.0817260742188L255.95762634277344 604.3120727539062C255.87391662597656 603.0319213867188 255.8482208251953 601.7850952148438 255.87733459472656 600.5718994140625L255.76548767089844 592.1521606445312C255.75074768066406 591.635986328125 255.74537658691406 591.1136474609375 255.74960327148438 590.5852661132812C255.7501678466797 590.286376953125 255.75381469726562 589.989501953125 255.76048278808594 589.6946411132812L255.8843231201172 580.0123291015625C255.87686157226562 579.2854614257812 255.8887939453125 578.5466918945312 255.92079162597656 577.7962646484375C255.94473266601562 577.0523071289062 255.9875030517578 576.3214721679688 256.0484313964844 575.6036376953125L256.45501708984375 569.0225219726562C256.4873046875 568.0668334960938 256.5539245605469 567.092041015625 256.6564025878906 566.0983276367188L256.6720886230469 565.9525756835938C256.698974609375 565.6776123046875 256.7284240722656 565.404541015625 256.7603454589844 565.1334838867188L258.0462646484375 553.1962890625C258.0654602050781 552.9854736328125 258.0862731933594 552.7737426757812 258.1087646484375 552.5611572265625L259.49481201171875 539.3751831054688Q259.51788330078125 539.0096435546875 259.5474548339844 538.640380859375L260.72576904296875 523.7604370117188C260.7522888183594 523.42919921875 260.7823486328125 523.1007080078125 260.81585693359375 522.7750244140625L261.50213623046875 513.5977172851562L262.0991516113281 501.119140625L261.47802734375 488.90032958984375L260.4731140136719 476.23016357421875L259.2785949707031 465.2977294921875C259.2430419921875 465.056640625 259.2093505859375 464.81390380859375 259.177490234375 464.5695495605469L257.1359558105469 448.8812255859375C257.0853271484375 448.489013671875 257.0404052734375 448.099609375 257.0010681152344 447.7130432128906L254.83409118652344 431.8638610839844C254.72828674316406 431.0811462402344 254.64529418945312 430.3095397949219 254.58438110351562 429.54913330078125L252.96115112304688 414.6637878417969C252.8514862060547 413.8697204589844 252.7630157470703 413.0583190917969 252.6966552734375 412.2294921875L251.84144592285156 401.0997009277344C251.77630615234375 400.49859619140625 251.72328186035156 399.8879699707031 251.68272399902344 399.26776123046875L250.5592041015625 382.3600158691406C250.52813720703125 381.8849182128906 250.50506591796875 381.4144592285156 250.4898223876953 380.9485778808594L249.91522216796875 373.4676818847656C249.8878173828125 373.08367919921875 249.8656463623047 372.7026672363281 249.84864807128906 372.3246154785156L249.3260498046875 364.53424072265625C249.3087158203125 364.27880859375 249.293701171875 364.024658203125 249.2809600830078 363.7718811035156L248.616455078125 353.3451232910156Q248.59262084960938 353.0562744140625 248.5724639892578 352.76458740234375L247.6681671142578 339.96728515625C247.6454315185547 339.6384582519531 247.6265411376953 339.3117980957031 247.61143493652344 338.98736572265625L246.62286376953125 323.82135009765625C246.5629425048828 323.149658203125 246.5184326171875 322.4664001464844 246.4898223876953 321.7715759277344L245.79104614257812 304.37054443359375C245.7814483642578 304.1373596191406 245.77374267578125 303.90533447265625 245.76791381835938 303.6744689941406L245.14706420898438 287.5724182128906C245.1151123046875 286.7191162109375 245.1084442138672 285.88134765625 245.12612915039062 285.0591125488281L245.00375366210938 275.4136047363281C245.0009307861328 275.3106384277344 244.9984588623047 275.2074279785156 244.99635314941406 275.10394287109375L244.6892547607422 260.2608337402344C244.6810302734375 260.08941650390625 244.67376708984375 259.91729736328125 244.66751098632812 259.7444763183594L244.13314819335938 244.59051513671875Q244.1260528564453 244.39492797851562 244.12074279785156 244.20045471191406L243.39144897460938 231.79071044921875L242.62786865234375 223.945556640625L241.49717712402344 215.16539001464844C241.4850616455078 215.09051513671875 241.47311401367188 215.0154571533203 241.4613494873047 214.9402618408203L240.62274169921875 209.49525451660156C240.560302734375 209.13995361328125 240.5018310546875 208.78097534179688 240.44741821289062 208.41831970214844L239.584228515625 202.84176635742188C239.478271484375 202.12969970703125 239.39137268066406 201.42662048339844 239.3229522705078 200.73257446289062L239.15663146972656 199.46388244628906C239.0282745361328 198.69766235351562 238.91934204101562 197.91458129882812 238.8306427001953 197.114501953125L238.4779815673828 193.769287109375C238.40921020507812 193.26988220214844 238.34857177734375 192.7635955810547 238.29627990722656 192.25042724609375L237.6113739013672 185.36337280273438L236.90711975097656 180.35885620117188C236.89027404785156 180.25364685058594 236.87376403808594 180.1481475830078 236.85760498046875 180.0423126220703L236.55531311035156 178.07501220703125L231.15367126464844 178.20643615722656C231.0229949951172 178.21153259277344 230.89190673828125 178.21604919433594 230.76040649414062 178.22000122070312L216.3737335205078 178.6408233642578C216.22808837890625 178.6474151611328 216.08193969726562 178.65328979492188 215.93527221679688 178.65846252441406L215.1724853515625 178.68423461914062C214.73101806640625 181.73483276367188 213.907470703125 184.72398376464844 212.70184326171875 187.5452423095703L213.359375 192.8944091796875C213.4833526611328 193.88340759277344 213.5711212158203 194.85433959960938 213.6242218017578 195.80702209472656L214.26368713378906 202.9513702392578C214.3200225830078 203.57879638671875 214.3621368408203 204.19850158691406 214.3904571533203 204.81045532226562L214.71963500976562 209.6165008544922Q214.73916625976562 209.8182373046875 214.75694274902344 210.02139282226562L215.71604919433594 220.94155883789062C215.7909698486328 221.8129425048828 215.83859252929688 222.6693572998047 215.8599853515625 223.51072692871094L216.52444458007812 232.90354919433594C216.59024047851562 233.57669067382812 216.64065551757812 234.2615966796875 216.6751708984375 234.9582977294922L217.3739471435547 248.9339141845703C217.4053955078125 249.56883239746094 217.42274475097656 250.1953125 217.42636108398438 250.8133544921875L217.79869079589844 260.7583923339844C217.8199462890625 261.34527587890625 217.82923889160156 261.9248352050781 217.82688903808594 262.49700927734375L218.18234252929688 278.36492919921875C218.18948364257812 278.71429443359375 218.1924285888672 279.0610046386719 218.1912384033203 279.405029296875L218.3878631591797 296.3414306640625C218.38990783691406 296.5302429199219 218.3907470703125 296.7182922363281 218.39036560058594 296.905517578125L218.49307250976562 313.35223388671875C218.5005340576172 313.7660827636719 218.50204467773438 314.18389892578125 218.4974822998047 314.60565185546875L218.49551391601562 314.74493408203125L218.49139404296875 315.0375671386719L218.29632568359375 328.8872375488281C218.3046875 329.52056884765625 218.29879760742188 330.16302490234375 218.2782440185547 330.81463623046875L217.82310485839844 345.8475036621094C217.81861877441406 346.16876220703125 217.81048583984375 346.4922790527344 217.79869079589844 346.8180847167969L217.15472412109375 364.75347900390625C217.149658203125 364.8888244628906 217.1439971923828 365.0237121582031 217.13772583007812 365.1581726074219L216.5655517578125 382.4696350097656C216.5640869140625 382.5149230957031 216.5625457763672 382.5601501464844 216.56094360351562 382.6053466796875L216.51345825195312 394.011962890625L216.8277587890625 410.525390625L217.74610900878906 425.64117431640625C217.76548767089844 425.8779602050781 217.78302001953125 426.11614990234375 217.79869079589844 426.3558044433594L218.86741638183594 442.7292175292969C218.89927673339844 443.2164306640625 218.9227294921875 443.6987609863281 218.93795776367188 444.17626953125L219.5703582763672 455.184326171875C219.64175415039062 455.9059753417969 219.6953887939453 456.64117431640625 219.73062133789062 457.3899230957031L220.3745880126953 471.0367126464844C220.44189453125 472.4675598144531 220.43765258789062 473.85540771484375 220.36631774902344 475.2000427246094L220.32388305664062 487.760009765625C220.3365936279297 488.38787841796875 220.3353729248047 489.0248107910156 220.31979370117188 489.6708679199219L219.9456329345703 505.1177978515625L219.94058227539062 505.32684326171875L219.93614196777344 505.5099182128906C219.9197235107422 506.1902160644531 219.8878631591797 506.85968017578125 219.841064453125 507.5183410644531L219.30587768554688 517.9235229492188C219.26712036132812 518.6505126953125 219.21107482910156 519.3646850585938 219.13833618164062 520.06591796875L218.18338012695312 534.50048828125L218.18234252929688 534.5161743164062L218.17599487304688 534.6114501953125L217.7600860595703 540.86083984375C217.74623107910156 541.3800048828125 217.72264099121094 541.9049682617188 217.6890869140625 542.4356689453125L217.2489471435547 549.56591796875L217.07806396484375 560.2862548828125L217.41314697265625 569.060302734375L218.24827575683594 581.9542236328125C218.2588653564453 582.0897216796875 218.26885986328125 582.2257080078125 218.2782440185547 582.3621215820312L219.08135986328125 593.8543701171875C219.24142456054688 595.2047119140625 219.3360595703125 596.6033935546875 219.3606719970703 598.0504760742188L219.5662078857422 612.39599609375C219.57472229003906 612.8956909179688 219.57464599609375 613.3899536132812 219.5662078857422 613.878662109375V622.3636474609375C219.573486328125 622.8179931640625 219.5735321044922 623.277099609375 219.5662078857422 623.740966796875L219.36949157714844 636.1860961914062C219.36854553222656 636.4254760742188 219.36561584472656 636.6661987304688 219.3606719970703 636.9081420898438L219.10743713378906 648.2275390625L219.4017791748047 658.529296875C219.4098663330078 658.807373046875 219.415283203125 659.083740234375 219.41806030273438 659.3584594726562L219.68460083007812 665.1828002929688C219.70220947265625 665.4432373046875 219.71754455566406 665.7053833007812 219.73062133789062 665.96923828125L220.21017456054688 676.1358032226562C220.22793579101562 676.4945678710938 220.2412109375 676.8506469726562 220.25003051757812 677.2039794921875L220.5953369140625 685.0348510742188L221.3671417236328 693.414306640625L221.8484344482422 696.9666748046875L221.86807250976562 697.0718383789062L222.88198852539062 702.5798950195312C222.8958282470703 702.6544799804688 222.90945434570312 702.7290649414062 222.92286682128906 702.803466796875L223.5807647705078 706.2244873046875C223.71319580078125 706.910400390625 223.82733154296875 707.5886840820312 223.9236602783203 708.2591552734375L224.16603088378906 709.613525390625C224.23123168945312 709.9532470703125 224.29269409179688 710.2965087890625 224.3502960205078 710.64306640625C224.50379943847656 711.5034790039062 224.62869262695312 712.3515014648438 224.72601318359375 713.1868896484375L225.24713134765625 716.7979736328125C225.39593505859375 717.637451171875 225.52134704589844 718.4974365234375 225.62229919433594 719.3780517578125L226.1566619873047 724.2009887695312C226.2563018798828 725.0834350585938 226.32745361328125 725.9512329101562 226.37118530273438 726.80419921875L226.54986572265625 729.115966796875C226.65672302246094 730.0093383789062 226.73617553710938 730.9240112304688 226.7869415283203 731.8601684570312L226.85386657714844 733.0750122070312L229.677978515625 733.1892700195312C229.87620544433594 733.1974487304688 230.073486328125 733.2068481445312 230.2698211669922 733.2175903320312L242.36398315429688 733.5548706054688L256.9776306152344 733.2633666992188C257.139404296875 733.2560424804688 257.3017883300781 733.2496337890625 257.4648132324219 733.2440795898438L264.935791015625 732.9928588867188C264.93072509765625 732.3905639648438 264.9385070800781 731.7800903320312 264.9595642089844 731.1614379882812L265.03302001953125 729.0243530273438C265.0283508300781 727.923095703125 265.0710754394531 726.7954711914062 265.1636962890625 725.6417846679688C265.2470397949219 724.2572021484375 265.3951110839844 722.9196166992188 265.6035461425781 721.629150390625Z" fill="black"/>
</svg>
