<svg xmlns="http://www.w3.org/2000/svg" viewBox="0 0 379 1000">
  <path d="M123.83251190185547 152.9489288330078 117.8228988647461 153.00746154785156C117.78180694580078 153.00897216796875 117.74064636230469 153.01039123535156 117.69942474365234 153.01171875L112.25377655029297 153.15841674804688C112.13680267333984 153.1660614013672 112.01929473876953 153.1729736328125 111.9012451171875 153.17918395996094L106.10307312011719 153.5140838623047C105.80582427978516 153.52880859375 105.51148986816406 153.53863525390625 105.22007751464844 153.5436553955078L100.78633880615234 153.91180419921875Q100.66297149658203 153.92127990722656 100.54024505615234 153.9296112060547L95.57624053955078 154.42282104492188L90.10335540771484 155.20181274414062L85.48502349853516 156.04685974121094C84.62700653076172 156.1953125 83.78884887695312 156.29881286621094 82.97099304199219 156.35987854003906C82.02867126464844 156.51715087890625 81.04669189453125 156.6212921142578 80.0250473022461 156.66783142089844C78.87828826904297 156.75404357910156 77.77259826660156 156.76121520996094 76.7088623046875 156.6957550048828H64.88789367675781C36.922698974609375 156.6957550048828 36.922698974609375 114.8316879272461 64.88789367675781 114.8316879272461H77.5099105834961L78.94318389892578 114.65252685546875L83.28715515136719 113.93161010742188C83.6527328491211 113.86882781982422 84.01470947265625 113.81414031982422 84.37305450439453 113.76734161376953L89.67142486572266 112.94780731201172C90.46639251708984 112.83277893066406 91.2434310913086 112.75536346435547 92.00225067138672 112.7136001586914L95.63488006591797 112.35266876220703C96.26668548583984 112.25684356689453 96.91627502441406 112.18272399902344 97.583740234375 112.13145446777344L101.75951385498047 111.84606170654297C102.44725799560547 111.75415802001953 103.15547943115234 111.68831634521484 103.88427734375 111.65001678466797L107.90046691894531 111.47665405273438C108.61264038085938 111.39388275146484 109.34616088867188 111.3394775390625 110.1010971069336 111.31510925292969L116.4016342163086 111.14765167236328C116.8599624633789 111.13285827636719 117.31111145019531 111.1296157836914 117.75506591796875 111.13755798339844L123.1836166381836 111.08485412597656C123.27661895751953 111.08317565917969 123.36931610107422 111.08197021484375 123.46171569824219 111.08123779296875L127.37964630126953 111.00834655761719C127.46127319335938 111.00646209716797 127.54315185546875 111.00493621826172 127.62527465820312 111.00377655029297L127.76773071289062 111.00112915039062C127.93468475341797 110.99962615966797 128.10064697265625 110.9996337890625 128.26564025878906 111.00112915039062H134.29852294921875L134.34031677246094 111.00103759765625L134.3822479248047 111.00112915039062H146.564697265625C147.54005432128906 111.00405883789062 148.48118591308594 111.05811309814453 149.38809204101562 111.15971374511719L153.03269958496094 111.31510925292969C154.21664428710938 111.3808822631836 155.34620666503906 111.51923370361328 156.42172241210938 111.72377014160156L158.5050506591797 111.9740982055664C159.01715087890625 112.01055145263672 159.53744506835938 112.06281280517578 160.06585693359375 112.13145446777344L166.51292419433594 112.94780731201172C167.6202392578125 113.0953369140625 168.674560546875 113.30345916748047 169.6765594482422 113.56684875488281L174.67642211914062 114.52050018310547L179.8466339111328 115.08287048339844C180.48721313476562 115.15641021728516 181.11045837402344 115.25049591064453 181.71649169921875 115.36409759521484L188.847412109375 116.234130859375Q189.10498046875 116.26681518554688 189.35873413085938 116.30384826660156L195.3822784423828 117.00960540771484C195.54751586914062 117.02165222167969 195.71360778808594 117.03527069091797 195.8805694580078 117.05048370361328L203.47889709472656 117.7831039428711C203.75259399414062 117.80886840820312 204.02322387695312 117.83842468261719 204.29078674316406 117.8716812133789L206.98452758789062 118.0797348022461C207.17530822753906 118.0834732055664 207.3673553466797 118.08924865722656 207.56065368652344 118.09708404541016L215.09617614746094 118.43199920654297C215.19683837890625 118.43645477294922 215.297119140625 118.44145202636719 215.3970184326172 118.44696044921875L221.87815856933594 118.59945678710938C221.94436645507812 118.60118865966797 222.01040649414062 118.60315704345703 222.07627868652344 118.6053466796875L228.01124572753906 118.68318176269531H231.61155700683594C231.9250030517578 118.68600463867188 232.23487854003906 118.694091796875 232.5412139892578 118.70731353759766L235.00445556640625 118.76596069335938L237.61427307128906 118.70922088623047C237.98056030273438 118.69306182861328 238.35194396972656 118.68431091308594 238.72845458984375 118.68318176269531H251.22486877441406C251.33624267578125 118.68251037597656 251.4471893310547 118.6825180053711 251.55767822265625 118.68318176269531H253.54176330566406C254.8282012939453 118.58326721191406 256.1756286621094 118.59332275390625 257.5821533203125 118.72541809082031C259.08978271484375 118.81114196777344 260.5096740722656 119.02424621582031 261.84161376953125 119.349853515625L263.0036315917969 119.53556823730469C263.3454895019531 119.58329010009766 263.6905212402344 119.63848114013672 264.03875732421875 119.70130920410156C264.52117919921875 119.78104400634766 264.9930419921875 119.8722152709961 265.4543762207031 119.97437286376953L268.9752502441406 120.65079498291016H269.2781982421875L271.340576171875 120.39961242675781C271.4252624511719 120.39036560058594 271.50970458984375 120.38153839111328 271.59393310546875 120.37311553955078L273.0248107910156 120.15848541259766C273.412353515625 120.09104919433594 273.80682373046875 120.03163146972656 274.208251953125 119.98097229003906L274.2648620605469 119.97335815429688C274.82177734375 119.89900207519531 275.3697204589844 119.84305572509766 275.90863037109375 119.80484008789062L279.1063537597656 119.4995346069336C279.8348388671875 119.42657470703125 280.5470886230469 119.38417053222656 281.24298095703125 119.37080383300781C283.2781677246094 119.00141143798828 285.4927062988281 118.90988159179688 287.88067626953125 119.14990234375C288.5736999511719 119.19739532470703 289.2483825683594 119.27417755126953 289.904541015625 119.37858581542969L291.1955261230469 119.52542877197266C292.0289611816406 119.58367919921875 292.883544921875 119.68579864501953 293.7587585449219 119.83444213867188L293.9048767089844 119.86157989501953C294.3134765625 119.92740631103516 294.7145080566406 120.00199127197266 295.1080322265625 120.08502197265625L298.1545104980469 120.65079498291016L298.4499816894531 120.69640350341797C300.0006408691406 120.80482482910156 301.6155700683594 121.08362579345703 303.2882995605469 121.55306243896484C304.2122802734375 121.78424072265625 305.0924072265625 122.05966186523438 305.9293212890625 122.37554168701172L307.0565490722656 122.73348236083984C307.70892333984375 122.90204620361328 308.36993408203125 123.1004867553711 309.0391540527344 123.33009338378906L312.72320556640625 124.64881134033203C313.0357360839844 124.75711822509766 313.3426513671875 124.86969757080078 313.64398193359375 124.98641204833984L314.34075927734375 125.22019958496094C314.53338623046875 125.27144622802734 314.726806640625 125.32518005371094 314.9210510253906 125.38143157958984L317.08795166015625 126.00822448730469C317.1330871582031 126.01547241210938 317.1783142089844 126.02283477783203 317.22357177734375 126.03032684326172L318.4904479980469 126.27752685546875L318.52130126953125 126.28150939941406H318.94000244140625C319.0518493652344 126.28805541992188 319.1632080078125 126.29525756835938 319.27398681640625 126.30308532714844C344.8201904296875 127.32596588134766 345.6953125 164.3900604248047 321.8995056152344 167.8822021484375C320.23712158203125 168.15481567382812 318.45465087890625 168.2515106201172 316.55377197265625 168.1455841064453L315.9217834472656 168.0867919921875C315.7502136230469 168.07530212402344 315.57977294921875 168.06216430664062 315.4105224609375 168.04739379882812C315.3911437988281 168.04579162597656 315.37176513671875 168.04415893554688 315.3523864746094 168.04251098632812C314.96038818359375 168.0151824951172 314.5743713378906 167.97979736328125 314.1944274902344 167.93658447265625C313.4753723144531 167.87864685058594 312.7406311035156 167.7883758544922 311.9905700683594 167.6641387939453L311.09857177734375 167.49009704589844C310.3970947265625 167.38534545898438 309.6825866699219 167.24851989746094 308.9554443359375 167.0780487060547L308.7685241699219 167.0341796875C308.6539306640625 167.0082550048828 308.53997802734375 166.98165893554688 308.4267578125 166.95396423339844L308.4188537597656 166.9525146484375C307.58160400390625 166.79885864257812 306.7275390625 166.597412109375 305.85748291015625 166.34542846679688L303.32470703125 165.61280822753906C302.6560974121094 165.4193115234375 302.0113525390625 165.20567321777344 301.3901062011719 164.97311401367188L300.6744689941406 164.73770141601562C300.14007568359375 164.58934020996094 299.60003662109375 164.4207763671875 299.0545654296875 164.23129272460938L296.7721252441406 163.42796325683594C296.4742126464844 163.3459930419922 296.1744689941406 163.25796508789062 295.8728942871094 163.16375732421875L292.57147216796875 162.1154327392578L291.14227294921875 161.8450469970703L287.18267822265625 161.188232421875L285.4300537109375 160.99717712402344L284.2486877441406 161.08349609375C283.9343566894531 161.126220703125 283.61572265625 161.16380310058594 283.2927551269531 161.19615173339844L279.2801208496094 161.597412109375L277.397216796875 161.82101440429688C276.9436340332031 161.89573669433594 276.480712890625 161.95970153808594 276.0083923339844 162.0124969482422L272.7430114746094 162.43113708496094C271.49072265625 162.56723022460938 270.2855224609375 162.6123504638672 269.12823486328125 162.5741424560547C267.93536376953125 162.61312866210938 266.692138671875 162.5616912841797 265.3998107910156 162.41114807128906C264.6202697753906 162.34120178222656 263.8652038574219 162.2366180419922 263.1346435546875 162.09959411621094C262.4159240722656 162.02479553222656 261.6824645996094 161.91650390625 260.93487548828125 161.77304077148438C260.36572265625 161.67398071289062 259.81146240234375 161.55833435058594 259.2720642089844 161.4269256591797L256.38714599609375 160.81881713867188L254.47747802734375 160.54725646972656H247.79202270507812C247.68031311035156 160.5479278564453 247.56906127929688 160.5479278564453 247.45823669433594 160.54725646972656H244.0298614501953C244.0476837158203 161.06228637695312 244.0484619140625 161.58670043945312 244.0315399169922 162.1204071044922C244.05355834960938 164.11329650878906 243.8439483642578 165.96878051757812 243.43678283691406 167.6843719482422C243.3966064453125 168.05047607421875 243.34829711914062 168.4205322265625 243.29164123535156 168.7944793701172L242.81019592285156 171.91334533691406C242.7555694580078 172.2674560546875 242.69480895996094 172.61598205566406 242.62808227539062 172.9589385986328L242.30279541015625 175.42491149902344Q242.27706909179688 175.70835876464844 242.24502563476562 175.99510192871094L241.88038635253906 179.04244995117188L242.07757568359375 181.8769989013672C242.09063720703125 182.06973266601562 242.1016082763672 182.26126098632812 242.11050415039062 182.45159912109375L242.30783081054688 185.39358520507812C242.38426208496094 186.57382202148438 242.3821258544922 187.7089385986328 242.30783081054688 188.79855346679688V191.6134796142578L242.3915557861328 192.92910766601562C242.395751953125 192.99996948242188 242.39967346191406 193.07064819335938 242.4033203125 193.14117431640625L242.799072265625 197.05628967285156L243.45909118652344 200.6949005126953C243.53253173828125 201.09976196289062 243.595947265625 201.50027465820312 243.6495819091797 201.89642333984375L243.83120727539062 202.8824005126953C243.94041442871094 203.39956665039062 244.03543090820312 203.9296875 244.11558532714844 204.4728546142578C244.17501831054688 204.85366821289062 244.22555541992188 205.23049926757812 244.26744079589844 205.60333251953125L244.6103515625 208.20950317382812C244.76405334472656 209.4503936767578 244.82762145996094 210.64605712890625 244.80850219726562 211.79556274414062L244.89076232910156 213.31996154785156C245.02435302734375 214.41983032226562 245.07997131347656 215.56857299804688 245.05006408691406 216.76535034179688C245.06448364257812 218.31011962890625 244.942138671875 219.77142333984375 244.6985321044922 221.1484375L244.3754425048828 224.56689453125C244.336669921875 225.1361083984375 244.278076171875 225.7154541015625 244.1988525390625 226.3048553466797C244.16233825683594 226.5962371826172 244.1214599609375 226.88397216796875 244.0763397216797 227.1680908203125L243.3753662109375 232.09295654296875L242.6427459716797 237.80738830566406C242.60716247558594 238.0685272216797 242.56822204589844 238.32672119140625 242.52598571777344 238.5819549560547L241.9938507080078 243.5427703857422C241.96142578125 243.81112670898438 241.9254150390625 244.076416015625 241.88589477539062 244.3386688232422L241.49148559570312 248.77578735351562C241.47218322753906 248.97549438476562 241.45083618164062 249.17355346679688 241.42752075195312 249.36997985839844L241.26123046875 252.4388885498047C241.2452392578125 252.66500854492188 241.2266082763672 252.8890838623047 241.2053985595703 253.11114501953125L241.01004028320312 257.441650390625C241.0069580078125 257.51617431640625 241.00360107421875 257.59051513671875 240.99993896484375 257.66461181640625L240.9263153076172 262.3397521972656C240.92416381835938 262.43280029296875 240.92153930664062 262.5254821777344 240.91847229003906 262.6178894042969L240.84259033203125 267.7402038574219V286.13946533203125L240.9027862548828 288.8481750488281C240.91734313964844 289.19659423828125 240.9252471923828 289.54962158203125 240.9263153076172 289.9072265625V320.2928161621094C240.9816436767578 321.2448425292969 240.98301696777344 322.2312927246094 240.9263153076172 323.251953125L240.71128845214844 326.3564453125C240.71080017089844 327.3333740234375 240.65138244628906 328.34307861328125 240.5286102294922 329.3850402832031L239.85877990722656 334.7855224609375C239.78443908691406 335.4164123535156 239.69024658203125 336.0303955078125 239.5771484375 336.6275939941406L238.95870971679688 341.3372497558594C238.92010498046875 341.6219177246094 238.87750244140625 341.903076171875 238.8309783935547 342.1806945800781L238.36927795410156 345.8346252441406C238.35218811035156 346.0504455566406 238.33238220214844 346.26776123046875 238.309814453125 346.48651123046875L237.9258270263672 349.9422912597656C237.92152404785156 350.0112609863281 237.9169464111328 350.0803527832031 237.91209411621094 350.1496276855469L237.6619873046875 353.6761779785156C237.67227172851562 355.15679931640625 237.5380401611328 356.71044921875 237.24227905273438 358.33404541015625L237.16529846191406 358.7497253417969C237.13888549804688 358.9001770019531 237.1112060546875 359.049560546875 237.08229064941406 359.19793701171875L236.44058227539062 362.6632385253906L236.1956787109375 366.43475341796875V368.2348937988281L236.32931518554688 373.08447265625C236.33413696289062 373.1839904785156 236.3384246826172 373.2839050292969 236.34219360351562 373.3841857910156L236.4759521484375 378.01513671875L236.9303436279297 380.8682861328125C236.98095703125 381.0922546386719 237.0291290283203 381.3187255859375 237.07481384277344 381.54766845703125L237.7338409423828 384.7782287597656C238.01121520996094 385.82269287109375 238.22430419921875 386.924072265625 238.3665008544922 388.0828857421875C238.52247619628906 389.1449279785156 238.60748291015625 390.17633056640625 238.62660217285156 391.1760559082031C238.78192138671875 392.3813781738281 238.84902954101562 393.6479187011719 238.8187255859375 394.975341796875C238.8192901611328 395.58172607421875 238.79803466796875 396.1753845214844 238.7559356689453 396.756103515625L238.70079040527344 398.2656555175781C238.7172393798828 399.0284423828125 238.69921875 399.81219482421875 238.6447296142578 400.61676025390625L238.3287353515625 404.5664367675781L238.37098693847656 406.4673156738281C238.40420532226562 407.062255859375 238.4167938232422 407.6708068847656 238.40777587890625 408.29278564453125C238.40939331054688 408.89569091796875 238.39068603515625 409.4856872558594 238.35255432128906 410.06280517578125L238.2634735107422 412.6682434082031C238.26531982421875 413.1636657714844 238.25302124023438 413.6678466796875 238.22607421875 414.18072509765625L237.986328125 419.415283203125L237.9748992919922 419.6649169921875L237.95692443847656 419.97418212890625L237.66091918945312 425.06536865234375Q237.651611328125 425.24249267578125 237.64013671875 425.4179382324219L237.4934539794922 428.49822998046875Q237.48965454101562 428.5798034667969 237.4853973388672 428.6610107421875L237.40972900390625 431.7636413574219C237.3964080810547 432.08612060546875 237.37767028808594 432.4046630859375 237.35360717773438 432.71923828125L237.3152313232422 433.5444030761719C237.33084106445312 434.0035400390625 237.33456420898438 434.47052001953125 237.3260040283203 434.9453125L237.24227905273438 438.79681396484375C237.20774841308594 440.5005187988281 237.01901245117188 442.0970458984375 236.69517517089844 443.5867919921875L236.40325927734375 445.8977966308594L236.15162658691406 449.43743896484375C236.13668823242188 449.7316589355469 236.1165771484375 450.0287170410156 236.09120178222656 450.3283386230469C236.0474853515625 450.96728515625 235.98243713378906 451.59002685546875 235.8970489501953 452.1966552734375L235.47080993652344 456.1526794433594C235.44281005859375 456.5513000488281 235.4054412841797 456.9549255371094 235.3583984375 457.363525390625L234.70950317382812 463.3291320800781C234.6684112548828 463.6778564453125 234.6212615966797 464.02142333984375 234.56822204589844 464.35986328125L234.29681396484375 467.30517578125C234.2853240966797 467.7455139160156 234.26251220703125 468.1924133300781 234.22805786132812 468.6458740234375L233.92007446289062 471.8951416015625C233.91384887695312 472.11517333984375 233.90489196777344 472.33685302734375 233.89315795898438 472.5601806640625L233.6927490234375 476.22076416015625C233.70863342285156 477.5054016113281 233.6185302734375 478.846435546875 233.41171264648438 480.2422180175781L233.37428283691406 480.4737548828125C233.31857299804688 480.8817443847656 233.25367736816406 481.2825012207031 233.179931640625 481.676025390625L232.6129608154297 485.1833801269531C232.56092834472656 485.5763244628906 232.4993133544922 485.9736633300781 232.4279022216797 486.37530517578125L231.52783203125 491.8594970703125C231.44906616210938 492.2992248535156 231.3610076904297 492.73004150390625 231.2639923095703 493.1520690917969L231.06207275390625 494.4616394042969C231.03546142578125 494.791015625 231.00238037109375 495.12371826171875 230.96266174316406 495.4598083496094L230.49044799804688 498.9128723144531C230.4817352294922 499.06585693359375 230.47169494628906 499.2196044921875 230.46029663085938 499.3741149902344L229.97886657714844 505.5909118652344C229.96694946289062 505.7524719238281 229.95367431640625 505.91302490234375 229.9390869140625 506.072509765625L229.8114013671875 508.6260681152344C229.79586791992188 508.890625 229.7766876220703 509.1524353027344 229.7539520263672 509.4114990234375L229.64395141601562 511.5565490722656C229.6408233642578 511.62701416015625 229.63743591308594 511.6972961425781 229.63380432128906 511.7673645019531L229.5602264404297 515.5755004882812C229.55825805664062 515.6427612304688 229.55604553222656 515.7098388671875 229.55360412597656 515.7767333984375L229.4764862060547 522.0225830078125V533.23876953125C229.51683044433594 534.0587768554688 229.51766967773438 534.9042358398438 229.4764862060547 535.77490234375L229.2879180908203 539.7666015625C229.2798614501953 540.41259765625 229.24600219726562 541.0726318359375 229.18508911132812 541.746337890625C229.1161346435547 542.6846923828125 229.0006103515625 543.588134765625 228.8418731689453 544.4567260742188L228.56069946289062 546.5127563476562L228.50228881835938 550.55810546875L228.6446533203125 555.2919921875C228.65052795410156 555.4072875976562 228.6556854248047 555.5230712890625 228.66014099121094 555.639404296875L228.80938720703125 559.4267578125C228.8162841796875 559.5521850585938 228.82235717773438 559.67822265625 228.8275909423828 559.8048706054688L228.99505615234375 565.6030883789062C229.0005340576172 565.738037109375 229.0050048828125 565.872314453125 229.0084686279297 566.0060424804688L229.22531127929688 571.1710205078125C229.23072814941406 571.324462890625 229.23484802246094 571.47705078125 229.23768615722656 571.62890625L229.39276123046875 576.3202514648438C229.3978271484375 576.4931640625 229.4012451171875 576.6651000976562 229.40304565429688 576.8359375L229.4764862060547 579.9205932617188C229.4814453125 580.1334838867188 229.48391723632812 580.3447875976562 229.48394775390625 580.5545654296875L229.55633544921875 585.0783081054688L229.55960083007812 585.321044921875C229.55984497070312 585.3489379882812 229.56005859375 585.3768310546875 229.5611114501953 585.40478515625C229.56285095214844 585.5989379882812 229.5625457763672 585.7916870117188 229.5602264404297 585.983154296875V591.3704223632812C229.56005859375 591.3818969726562 229.5601043701172 591.3934936523438 229.56016540527344 591.4063720703125L229.5601806640625 591.4097900390625L229.56019592285156 591.411376953125V591.4417114257812L229.5602264404297 591.4541625976562L229.5601043701172 597.1685791015625L229.5602264404297 597.2523193359375V612.7002563476562L229.5603485107422 612.7838745117188L229.5602264404297 612.8676147460938V620.0403442382812L229.96359252929688 622.4829711914062L230.49717712402344 625.3150634765625C230.60665893554688 625.7608032226562 230.7061309814453 626.2166748046875 230.7952117919922 626.6827392578125L231.61155700683594 630.869140625C231.67117309570312 631.1871337890625 231.724609375 631.50244140625 231.77194213867188 631.8151245117188L232.04820251464844 632.9981079101562L232.9093475341797 635.7672729492188C233.0095672607422 636.1060180664062 233.1021270751953 636.4423828125 233.18719482421875 636.7763061523438L233.76251220703125 638.774169921875C233.9644775390625 639.3831787109375 234.14794921875 640.0134887695312 234.31179809570312 640.6653442382812L235.12814331054688 644.0144653320312C235.29177856445312 644.66748046875 235.4278106689453 645.3106689453125 235.53738403320312 645.9437255859375L235.54368591308594 645.97216796875C235.8196563720703 646.9881591796875 236.03884887695312 648.0587768554688 236.1956787109375 649.1846923828125L236.199951171875 649.2179565429688L236.3391571044922 650.3023071289062L236.41648864746094 650.9047241210938C236.5735626220703 651.7689208984375 236.68939208984375 652.667724609375 236.76083374023438 653.601318359375L237.01202392578125 656.9505004882812C237.07760620117188 657.812744140625 237.10093688964844 658.6512451171875 237.0845489501953 659.4659423828125L237.15855407714844 661.1996459960938C237.1700439453125 661.525390625 237.1757049560547 661.8475952148438 237.1756591796875 662.1661376953125L237.22544860839844 663.8214721679688L237.23455810546875 664.1248168945312L237.24227905273438 664.38134765625C237.248291015625 664.7145385742188 237.24822998046875 665.0438842773438 237.24227905273438 665.3693237304688V667.2490234375C237.24261474609375 667.304931640625 237.24278259277344 667.3607788085938 237.24278259277344 667.41650390625L237.24227905273438 667.5818481445312V670.2642822265625L237.24266052246094 670.514404296875L237.24227905273438 670.59814453125L237.2412872314453 670.635986328125L237.21839904785156 671.505615234375L237.15855407714844 673.7798461914062V679.8351440429688L237.39576721191406 681.1364135742188C237.45411682128906 681.4261474609375 237.50770568847656 681.7199096679688 237.55641174316406 682.0177001953125L237.5771942138672 682.1317138671875C237.84420776367188 683.5748291015625 237.9826202392578 684.96337890625 238.00453186035156 686.2948608398438C238.10423278808594 687.24267578125 238.15155029296875 688.227294921875 238.14234924316406 689.2485961914062L238.0795440673828 692.5614013671875C238.0917205810547 693.1337280273438 238.08502197265625 693.718017578125 238.05862426757812 694.3141479492188L237.8520965576172 698.4259033203125C237.8465576171875 698.6307373046875 237.8386688232422 698.8370971679688 237.828369140625 699.0447998046875L237.6844940185547 701.4909057617188C237.69735717773438 702.0860595703125 237.68978881835938 702.694091796875 237.66091918945312 703.31494140625L237.4934539794922 705.9942016601562C237.49160766601562 706.0316162109375 237.4896697998047 706.0689697265625 237.4876708984375 706.1062622070312L237.40972900390625 708.4642333984375C237.3926239013672 708.8318481445312 237.3684539794922 709.1942138671875 237.33743286132812 709.5514526367188C237.33908081054688 709.8623657226562 237.33531188964844 710.1767578125 237.3260040283203 710.49462890625L237.24227905273438 712.7134399414062C237.23751831054688 712.8611450195312 237.23159790039062 713.0079956054688 237.22454833984375 713.154052734375L237.15855407714844 715.7276000976562V718.1138916015625C237.15525817871094 718.406982421875 237.14736938476562 718.697021484375 237.13497924804688 718.98388671875L237.07481384277344 721.6304321289062V731.8452758789062L237.13145446777344 734.2240600585938C237.14828491210938 734.5980224609375 237.1573944091797 734.977294921875 237.15855407714844 735.3618774414062V735.9120483398438C239.61459350585938 738.14404296875 241.5299835205078 741.031494140625 242.5690460205078 744.5411987304688C243.24293518066406 746.3435668945312 243.6187744140625 748.1611938476562 243.7323760986328 749.95849609375L243.8561248779297 749.9508666992188L249.6123046875 749.1239624023438L256.1854553222656 747.8389892578125C256.9494323730469 747.6559448242188 257.7428894042969 747.5053100585938 258.56597900390625 747.3893432617188C259.29681396484375 747.2719116210938 260.01336669921875 747.1878662109375 260.7152404785156 747.1356201171875L266.1241455078125 746.5223999023438L271.4242858886719 745.6604614257812C272.6827087402344 745.4544067382812 273.89776611328125 745.3443603515625 275.06805419921875 745.3224487304688C275.58294677734375 745.2609252929688 276.10888671875 745.2156372070312 276.6458435058594 745.1873168945312L276.74102783203125 745.1790161132812C278.421875 745.0499267578125 280.0126953125 745.0810546875 281.5121154785156 745.2540893554688C282.47802734375 745.2471923828125 283.4764099121094 745.2974853515625 284.5068054199219 745.4092407226562L284.96722412109375 745.464599609375C285.1231384277344 745.4818725585938 285.2780456542969 745.5005493164062 285.43194580078125 745.5205078125L286.2119445800781 745.6143798828125C286.8319091796875 745.6615600585938 287.46368408203125 745.7323608398438 288.10711669921875 745.827880859375L288.6490783691406 745.9052734375C289.2731628417969 745.9595336914062 289.9089050292969 746.0380859375 290.5561828613281 746.141845703125L291.5973205566406 746.3355712890625C293.76861572265625 746.3261108398438 296.0647888183594 746.6708984375 298.4604187011719 747.4343872070312C299.77337646484375 747.7785034179688 300.9964294433594 748.22216796875 302.1307373046875 748.752685546875C321.4640197753906 739.239501953125 340.14501953125 763.4700317382812 328.3462829589844 779.649658203125C326.5967102050781 782.224853515625 324.0976867675781 784.5582275390625 320.74017333984375 786.4569702148438L320.7237548828125 786.466064453125C320.28570556640625 786.7250366210938 319.8475341796875 786.9661865234375 319.40985107421875 787.1897583007812C318.7933654785156 787.5159912109375 318.1795654296875 787.810302734375 317.5692138671875 788.073974609375C316.8504333496094 788.3994140625 316.09637451171875 788.6996459960938 315.3063659667969 788.972412109375C315.1563415527344 789.0275268554688 315.0065002441406 789.0809326171875 314.85699462890625 789.1326904296875C314.0890808105469 789.433837890625 313.2839660644531 789.7025146484375 312.4410400390625 789.9358520507812C311.367431640625 790.266357421875 310.3157958984375 790.5156860351562 309.2880859375 790.6893310546875C308.5144958496094 790.8486328125 307.7120666503906 790.9744262695312 306.880615234375 791.0643920898438C304.9020690917969 791.510986328125 302.76226806640625 791.6641235351562 300.4761962890625 791.4639282226562C297.63861083984375 791.3873291015625 295.0914001464844 790.8233642578125 292.8438720703125 789.8797607421875L292.84271240234375 789.8794555664062C292.4623718261719 789.7702026367188 292.08978271484375 789.6537475585938 291.7249450683594 789.5307006835938L289.9909973144531 788.98974609375C289.2269287109375 788.7486572265625 288.4951477050781 788.481689453125 287.7949523925781 788.1907958984375L287.3011474609375 788.0152587890625L286.1394958496094 787.8594360351562C285.7925720214844 787.8121337890625 285.45086669921875 787.7588500976562 285.1144104003906 787.6998291015625L283.85791015625 787.5245361328125C283.5880432128906 787.4813232421875 283.3214416503906 787.4345092773438 283.05816650390625 787.38427734375C282.9691467285156 787.3756713867188 282.8798828125 787.3665771484375 282.7903747558594 787.3570556640625L280.1756591796875 787.0621948242188L279.0224304199219 787.018310546875L277.76690673828125 787.1004638671875L272.15692138671875 788.0059204101562C271.0736389160156 788.1829223632812 270.0226135253906 788.2890625 269.0046081542969 788.3294677734375L265.3025817871094 788.75537109375L257.35797119140625 790.3084716796875C256.5489196777344 790.465576171875 255.7567596435547 790.5820922851562 254.98193359375 790.6602172851562L250.2139434814453 791.331787109375C249.43698120117188 791.4734497070312 248.63209533691406 791.5811157226562 247.79920959472656 791.6525268554688C247.1483612060547 791.71923828125 246.51019287109375 791.7604370117188 245.8848114013672 791.7770385742188L238.64486694335938 792.2188110351562C237.5257568359375 792.3633422851562 236.35348510742188 792.4336547851562 235.12814331054688 792.422607421875L224.42274475097656 792.28173828125Q224.13623046875 792.2819213867188 223.8457794189453 792.2760620117188L213.38922119140625 792.1231689453125C212.953369140625 792.1292114257812 212.51063537597656 792.12451171875 212.06103515625 792.108642578125L204.6301727294922 791.857421875C203.9164581298828 791.8322143554688 203.221923828125 791.7802734375 202.5465087890625 791.7029418945312L194.08041381835938 791.3759765625C193.3511962890625 791.3414916992188 192.642333984375 791.2793579101562 191.95376586914062 791.1909790039062L183.7818603515625 790.7061767578125C183.05490112304688 790.6591186523438 182.34877014160156 790.5847778320312 181.66339111328125 790.484619140625L175.17919921875 789.983642578125C174.69833374023438 789.9661254882812 174.2097625732422 789.93505859375 173.7135467529297 789.8898315429688L169.2876739501953 789.445556640625Q168.9288330078125 789.431884765625 168.56427001953125 789.4083862304688L162.17481994628906 788.981201171875L156.13064575195312 789.3246459960938C155.8992156982422 789.3361206054688 155.66957092285156 789.3446044921875 155.4416961669922 789.3501586914062L151.28726196289062 789.6842651367188L145.6646270751953 790.3922119140625C145.3982391357422 790.4219970703125 145.1339874267578 790.4476318359375 144.87185668945312 790.46923828125L139.30128479003906 791.2085571289062C138.842529296875 791.2706909179688 138.38983154296875 791.3204345703125 137.94325256347656 791.3580322265625L131.7657470703125 792.1923217773438C130.8487548828125 792.3031616210938 129.9564666748047 792.3648071289062 129.08926391601562 792.3803100585938L124.01859283447266 792.7088623046875L121.05309295654297 793.1502685546875C120.09133911132812 793.3449096679688 119.08521270751953 793.4876098632812 118.03433227539062 793.5738525390625L111.1733627319336 794.1534423828125C110.95746612548828 794.178955078125 110.73959350585938 794.2020874023438 110.51973724365234 794.2227783203125L104.28839874267578 794.7705688476562C103.70795440673828 794.8507690429688 103.11276245117188 794.9126586914062 102.50276184082031 794.9553833007812L96.62086486816406 795.3740234375C95.32875061035156 795.4652099609375 94.09036254882812 795.4624633789062 92.90625762939453 795.3740234375H89.73422241210938C88.65189361572266 795.3675537109375 87.61182403564453 795.298583984375 86.6139907836914 795.1720581054688L84.02595520019531 794.9871826171875C83.48934936523438 794.9728393554688 82.94303131103516 794.9415893554688 82.38707733154297 794.892578125L77.63550567626953 794.4739379882812C77.4011459350586 794.4533081054688 77.16902923583984 794.4298706054688 76.93914031982422 794.4036865234375L75.87427520751953 794.3453369140625C64.3612289428711 805.2799072265625 40.5213737487793 800.3560180664062 40.109764099121094 779.5737915039062C39.980674743652344 778.3654174804688 39.96310806274414 777.1117553710938 40.06951141357422 775.8174438476562C40.11513900756836 773.8802490234375 40.46433639526367 771.8958129882812 41.16474151611328 769.9022827148438C41.85758590698242 767.453369140625 43.07181167602539 765.0755004882812 44.885257720947266 762.888427734375L44.93143844604492 762.82763671875C46.57099533081055 760.6395263671875 48.501773834228516 758.9484252929688 50.60811996459961 757.7107543945312C50.944175720214844 757.4846801757812 51.28293991088867 757.2711791992188 51.62407684326172 757.0700073242188C53.1270637512207 755.9300537109375 54.85026931762695 754.9817504882812 56.7966194152832 754.2794799804688C59.69622039794922 752.962646484375 62.632442474365234 752.4381103515625 65.46910095214844 752.5549926757812C66.3863296508789 752.4249877929688 67.33924102783203 752.3474731445312 68.32759857177734 752.3267211914062C69.84327697753906 752.228271484375 71.28919982910156 752.2764892578125 72.66234588623047 752.4551391601562C73.49710845947266 752.39208984375 74.35897827148438 752.3713989257812 75.24771118164062 752.3959350585938C76.16064453125 752.3943481445312 77.04415893554688 752.4409790039062 77.8980712890625 752.5325317382812L80.8381118774414 752.693603515625C81.56453704833984 752.740478515625 82.27020263671875 752.8145141601562 82.95520782470703 752.9142456054688L86.07111358642578 753.175048828125C86.30939483642578 753.1962280273438 86.54536437988281 753.2202758789062 86.77902221679688 753.2471313476562L90.27420043945312 753.5099487304688H94.84600067138672L98.1941146850586 753.2716674804688C98.48247528076172 753.235107421875 98.77440643310547 753.202880859375 99.06990814208984 753.175048828125L106.66824340820312 752.526123046875C107.0314712524414 752.4930419921875 107.39060974121094 752.4674682617188 107.74564361572266 752.4492797851562L107.76063537597656 752.447998046875L107.81950378417969 752.12841796875C107.87374877929688 751.796142578125 107.933349609375 751.4688110351562 107.99813842773438 751.146484375L108.21720886230469 749.84619140625V748.7583618164062L108.21723937988281 748.7531127929688L108.21724700927734 748.7518920898438C108.2174072265625 748.7252807617188 108.2175521850586 748.7000122070312 108.21720886230469 748.6746215820312L108.21831512451172 748.6260986328125L108.23344421386719 747.9642333984375L108.29721069335938 745.1747436523438C108.29779815673828 745.06494140625 108.29903411865234 744.9547729492188 108.30094146728516 744.8441162109375L108.37291717529297 741.7488403320312C108.37334442138672 741.4989624023438 108.37724304199219 741.2468872070312 108.3846664428711 740.9926147460938L108.4483642578125 738.2533569335938C108.44767761230469 737.8941650390625 108.45428466796875 737.5303955078125 108.46839141845703 737.1620483398438L108.52925872802734 734.7731323242188C108.53118896484375 734.4566040039062 108.53876495361328 734.1365356445312 108.5521240234375 733.8129272460938L108.70393371582031 730.4730834960938C108.70802307128906 730.3311157226562 108.7132339477539 730.1884765625 108.7195816040039 730.045166015625L108.9498291015625 725.7122192382812L108.95733642578125 725.5620727539062L109.1172866821289 722.3630981445312V720.311767578125L109.0584487915039 717.0316162109375L108.9769058227539 716.5586547851562C108.70014953613281 715.4357299804688 108.50357055664062 714.250244140625 108.39611053466797 713.0022583007812C108.18070983886719 711.2362060546875 108.15670013427734 709.5597534179688 108.30094146728516 707.976806640625V698.5633544921875L108.22766876220703 694.33203125C108.22344970703125 694.2149658203125 108.21995544433594 694.0973510742188 108.21720886230469 693.979248046875L108.14358520507812 689.3040771484375C108.13993072509766 689.22998046875 108.13655853271484 689.1556396484375 108.13348388671875 689.0811157226562L108.0101318359375 685.4332885742188C108.0016098022461 685.3101806640625 107.99388122558594 685.1865234375 107.9869613647461 685.0621948242188L107.7208480834961 680.006103515625C107.69475555419922 679.76123046875 107.67180633544922 679.513916015625 107.65204620361328 679.2640380859375L107.14967346191406 672.8797607421875C107.14253997802734 672.78955078125 107.13587188720703 672.6995849609375 107.1296615600586 672.6099243164062L106.50078582763672 666.9141235351562C106.48577117919922 666.7798461914062 106.47180938720703 666.6460571289062 106.4588851928711 666.5128173828125L106.12999725341797 664.14697265625C106.0579605102539 663.771240234375 105.99308776855469 663.3888549804688 105.93561553955078 662.9998168945312L105.03553771972656 656.6992797851562C104.91363525390625 655.8612060546875 104.83351135253906 655.04296875 104.79283905029297 654.2449340820312L104.78961944580078 654.2152099609375C104.67169189453125 653.4188232421875 104.58966064453125 652.5945434570312 104.54594421386719 651.7421875C104.5273208618164 651.4547729492188 104.51351165771484 651.1698608398438 104.50444030761719 650.8875122070312L104.38665008544922 648.5148315429688C104.35528564453125 647.7551879882812 104.35585021972656 647.0149536132812 104.38665008544922 646.2942504882812V638.4674682617188C104.3868179321289 638.4463500976562 104.38676452636719 638.42529296875 104.38670349121094 638.4028930664062L104.3866958618164 638.399658203125L104.38668823242188 638.3982543945312L104.38668060302734 638.3966674804688V638.3925170898438L104.38665008544922 638.3837280273438L104.38619232177734 638.3472900390625L104.30952453613281 632.2908935546875L104.30308532714844 631.7825317382812L104.30291748046875 631.7692260742188V631.6854858398438C104.30279541015625 631.469970703125 104.30530548095703 631.2561645507812 104.31028747558594 631.0440063476562L104.38465118408203 624.574951171875C104.38461303710938 624.461669921875 104.3852767944336 624.347900390625 104.38665008544922 624.2337036132812V617.9461669921875C104.37610626220703 617.5160522460938 104.37599182128906 617.0791015625 104.38665008544922 616.6353759765625L104.51695251464844 611.6837158203125C104.51795196533203 611.404296875 104.52333068847656 611.1221313476562 104.53317260742188 610.8372192382812L104.81714630126953 603.897705078125C104.81339263916016 603.3067016601562 104.83007049560547 602.7033081054688 104.86808776855469 602.0875854492188L105.30952453613281 595.4332885742188C105.30961608886719 594.6182861328125 105.35002899169922 593.7802124023438 105.4332504272461 592.9193725585938L106.23667907714844 585.0345458984375C106.27627563476562 584.4566040039062 106.33612060546875 583.8683471679688 106.41705322265625 583.2697143554688L107.31713104248047 576.6552124023438C107.39269256591797 576.1007080078125 107.48344421386719 575.5595092773438 107.58870697021484 575.0316772460938L108.71853637695312 567.7846069335938C108.76058197021484 567.4445190429688 108.80972290039062 567.10107421875 108.86610412597656 566.7543334960938L110.51973724365234 556.7069702148438C110.53234100341797 556.62939453125 110.54522705078125 556.5521850585938 110.55841064453125 556.4751586914062L111.65658569335938 547.8228759765625C111.71113586425781 547.1688232421875 111.79227447509766 546.5018920898438 111.9012451171875 545.822265625L113.00788116455078 539.013671875C113.04553985595703 538.7249145507812 113.08828735351562 538.4337768554688 113.13623809814453 538.1402587890625L114.70719146728516 528.7145385742188C114.72574615478516 528.529296875 114.7463150024414 528.3429565429688 114.76893615722656 528.1556396484375L116.15045166015625 517.2081909179688L117.38819885253906 506.53997802734375L118.03433227539062 498.3902893066406C118.09376525878906 497.6662292480469 118.17994689941406 496.9633483886719 118.29141998291016 496.2815246582031L119.10186767578125 487.1079406738281C119.12319946289062 486.88134765625 119.14712524414062 486.6568298339844 119.17359924316406 486.4344482421875L119.9961929321289 476.7909240722656C119.99797058105469 476.7413330078125 119.99989318847656 476.691650390625 120.00194549560547 476.64190673828125L120.35311126708984 468.2695007324219C120.35430145263672 467.7755126953125 120.36964416503906 467.27301025390625 120.399658203125 466.7619934082031L120.90263366699219 458.9657897949219C120.91046905517578 458.3873291015625 120.93789672851562 457.7973937988281 120.98574829101562 457.196044921875L121.78181457519531 448.1431579589844C121.80208587646484 447.65216064453125 121.83658599853516 447.1531677246094 121.88582611083984 446.64630126953125L122.84870147705078 436.6617431640625C122.87726593017578 436.36859130859375 122.91019439697266 436.0790100097656 122.9473876953125 435.79296875L123.70665740966797 427.17608642578125L123.8867416381836 421.4954528808594C123.88790893554688 421.1069030761719 123.89765930175781 420.7130126953125 123.9162368774414 420.3138122558594L124.35693359375 411.70184326171875C124.3594741821289 411.1502380371094 124.37979125976562 410.5880126953125 124.41860961914062 410.0152587890625L124.97545623779297 401.9499206542969C124.98661041259766 401.37713623046875 125.01701354980469 400.7931823730469 125.06749725341797 400.1981201171875L125.88385009765625 390.7996520996094C125.93890380859375 390.1728515625 126.01380157470703 389.56195068359375 126.10758209228516 388.9668884277344L126.5327377319336 384.1641845703125C126.55545806884766 383.9302978515625 126.5809326171875 383.69866943359375 126.60911560058594 383.4692687988281L127.10973358154297 376.7189636230469L127.03511047363281 369.2187194824219C127.02979278564453 368.6280822753906 127.04337310791016 368.0498046875 127.0750503540039 367.4839172363281L126.9657974243164 362.5810546875C126.96007537841797 362.4498596191406 126.95526885986328 362.31805419921875 126.95138549804688 362.185546875L126.79865264892578 357.4126892089844C126.79317474365234 357.3085632324219 126.78826141357422 357.2040100097656 126.78392791748047 357.09906005859375L126.54989624023438 350.624267578125C126.54363250732422 350.52227783203125 126.53791046142578 350.4198913574219 126.5327377319336 350.31707763671875L126.13977813720703 343.0576477050781L126.1350326538086 342.9699401855469L125.71639251708984 335.2669372558594C125.69441986083984 334.82354736328125 125.68336486816406 334.3866882324219 125.68289184570312 333.95635986328125L125.60547637939453 331.45965576171875C125.52682495117188 330.7143249511719 125.47943878173828 329.946044921875 125.4652099609375 329.15478515625L125.41230773925781 322.947509765625C125.38481140136719 322.3363952636719 125.37993621826172 321.71142578125 125.39878845214844 321.0728454589844C125.40657043457031 320.09423828125 125.46710205078125 319.1502380371094 125.57661437988281 318.24090576171875L125.96757507324219 312.70220947265625C125.97366333007812 312.6221618652344 125.9800796508789 312.5423583984375 125.98682403564453 312.46282958984375L126.03421020507812 309.0392761230469C126.0259017944336 308.4991455078125 126.03520202636719 307.94866943359375 126.06282806396484 307.3880310058594C126.09165954589844 306.56939697265625 126.15625762939453 305.7759094238281 126.25444793701172 305.007568359375L126.7001953125 300.038330078125C126.7531509399414 299.4372253417969 126.824462890625 298.850830078125 126.91328430175781 298.27911376953125L127.44511413574219 293.3699035644531L127.67466735839844 286.502685546875C127.67697143554688 286.3821105957031 127.68008422851562 286.26104736328125 127.68400573730469 286.13946533203125L127.93518829345703 278.60394287109375L128.0817108154297 273.3081359863281C128.0839385986328 273.2338562011719 128.0864715576172 273.1597595214844 128.0892791748047 273.0859069824219L128.24380493164062 265.5523376464844L128.17758178710938 259.7241516113281L127.9413833618164 257.0335693359375C127.75245666503906 255.91439819335938 127.6363525390625 254.73875427246094 127.60027313232422 253.5064239501953L127.46492767333984 249.0907745361328C127.43472290039062 248.56039428710938 127.4207534790039 248.0192108154297 127.42369842529297 247.46728515625C127.42015838623047 246.8021697998047 127.4411392211914 246.15269470214844 127.48545837402344 245.5188751220703L127.68400573730469 240.34017944335938L127.8514633178711 233.8093719482422C127.85459899902344 233.712158203125 127.85823822021484 233.61529541015625 127.86236572265625 233.51878356933594L128.0189208984375 226.94366455078125V222.75726318359375L127.85295104980469 215.47531127929688L127.393310546875 211.13427734375C127.34282684326172 210.74749755859375 127.30110931396484 210.35435485839844 127.2684326171875 209.95484924316406L127.26536560058594 209.92591857910156C127.12224578857422 208.4860382080078 127.09819030761719 207.10955810546875 127.18163299560547 205.79763793945312V201.3011474609375C127.18112182617188 201.2040557861328 127.18112182617188 201.1066436767578 127.18163299560547 201.00888061523438V196.9037628173828C127.18037414550781 196.7519073486328 127.18036651611328 196.59921264648438 127.18163299560547 196.44569396972656L127.25984954833984 190.794677734375C127.25911712646484 190.57981872558594 127.26094055175781 190.36331176757812 127.26536560058594 190.14515686035156L127.33767700195312 187.03549194335938C127.33882904052734 186.8177947998047 127.34262084960938 186.5984344482422 127.34909057617188 186.37738037109375L127.41284942626953 183.82705688476562C127.41373443603516 183.50856018066406 127.42034912109375 183.1864776611328 127.43281555175781 182.86080932617188L127.49579620361328 180.82977294921875C127.49922943115234 180.58094787597656 127.5061264038086 180.32998657226562 127.51654815673828 180.07684326171875L127.5318603515625 179.81654357910156C127.53929138183594 179.67013549804688 127.54785919189453 179.5245361328125 127.55754852294922 179.37977600097656L127.68400573730469 177.23008728027344L127.8514633178711 172.39479064941406C127.85894012451172 172.20989990234375 127.86819458007812 172.0263214111328 127.87920379638672 171.8440399169922L128.0189208984375 168.64794921875V167.25120544433594C127.6370620727539 165.92901611328125 127.36854553222656 164.51490783691406 127.22908782958984 163.0088348388672C126.93440246582031 161.02362060546875 126.91011047363281 159.1377410888672 127.11813354492188 157.36196899414062C127.1183090209961 157.32974243164062 127.11854553222656 157.2975616455078 127.11883544921875 157.26539611816406V156.86322021484375C127.11737823486328 156.70138549804688 127.11734008789062 156.5404815673828 127.11870574951172 156.38052368164062C127.09746551513672 155.88192749023438 127.09068298339844 155.37400817871094 127.09893035888672 154.8568115234375C127.0489501953125 154.20936584472656 127.03213500976562 153.5517120361328 127.05040740966797 152.8848419189453L124.25484466552734 152.93809509277344C124.11479949951172 152.94276428222656 123.9740219116211 152.94638061523438 123.83251190185547 152.9489288330078ZM202.94105529785156 212.48887634277344 202.8360595703125 211.64894104003906C202.8048553466797 211.4875030517578 202.77491760253906 211.32481384277344 202.74627685546875 211.16091918945312L202.39332580566406 208.9696502685547C202.34042358398438 208.7193145751953 202.29058837890625 208.46592712402344 202.24391174316406 208.20950317382812L201.4275665283203 203.7091064453125C201.20892333984375 202.50384521484375 201.0792694091797 201.3369598388672 201.0316162109375 200.20973205566406L200.61122131347656 196.11077880859375C200.5416717529297 195.34750366210938 200.50547790527344 194.60223388671875 200.5009002685547 193.87510681152344L200.44375610351562 193.09657287597656C200.38258361816406 192.05108642578125 200.38235473632812 191.04135131835938 200.43869018554688 190.06759643554688C200.4370574951172 189.82350158691406 200.43873596191406 189.5772247314453 200.44375610351562 189.32879638671875L200.49229431152344 187.56912231445312L200.33502197265625 185.2242431640625C200.32110595703125 185.06541442871094 200.30850219726562 184.9055633544922 200.2972412109375 184.74468994140625L200.14349365234375 182.5345001220703C199.92604064941406 181.1313018798828 199.83941650390625 179.6460418701172 199.90054321289062 178.0807342529297C199.9035186767578 176.45765686035156 200.06101989746094 174.92742919921875 200.35426330566406 173.4913330078125L200.61122131347656 171.2644500732422C200.6705780029297 170.75038146972656 200.7431182861328 170.24746704101562 200.82827758789062 169.7556610107422L201.34384155273438 165.86398315429688C201.44540405273438 165.13475036621094 201.57313537597656 164.4287109375 201.72552490234375 163.74571228027344C201.7591094970703 163.4154510498047 201.79930114746094 163.0819091796875 201.84620666503906 162.7451171875L202.03988647460938 161.2967071533203C201.9917449951172 160.8393096923828 201.9549560546875 160.3732147216797 201.929931640625 159.8983612060547L201.91490173339844 159.64108276367188L201.24093627929688 159.58538818359375C200.69219970703125 159.5682373046875 200.13340759277344 159.53326416015625 199.56460571289062 159.47972106933594L193.71630859375 158.91738891601562C192.98316955566406 158.89407348632812 192.2322998046875 158.83790588378906 191.4639129638672 158.74710083007812L184.65872192382812 157.87557983398438C184.3142547607422 157.8452911376953 183.96612548828125 157.80792236328125 183.61439514160156 157.76329040527344L176.3336639404297 156.8143768310547C175.90565490722656 156.78582763671875 175.4718475341797 156.74639892578125 175.0322723388672 156.6957550048828L171.18350219726562 156.2726593017578C170.82968139648438 157.76292419433594 170.32568359375 159.21420288085938 169.67152404785156 160.59339904785156C169.9163360595703 162.2100830078125 169.9834442138672 163.7612762451172 169.89306640625 165.2412872314453C169.93930053710938 166.19334411621094 169.93482971191406 167.11537170410156 169.8829803466797 168.0071563720703V168.3254852294922C169.9046630859375 168.9355010986328 169.90499877929688 169.55931091308594 169.8829803466797 170.19691467285156L169.7280731201172 173.74061584472656C169.72474670410156 173.86363220214844 169.72056579589844 173.98715209960938 169.7155303955078 174.1112060546875L169.46434020996094 178.94651794433594L169.39495849609375 181.3055419921875C169.39163208007812 181.4672088623047 169.38685607910156 181.62979125976562 169.380615234375 181.79327392578125L169.29689025878906 184.40977478027344C169.29400634765625 184.48545837402344 169.29080200195312 184.56092834472656 169.28732299804688 184.63616943359375L169.21316528320312 187.5286407470703C169.20994567871094 187.63870239257812 169.20611572265625 187.748291015625 169.20162963867188 187.85745239257812L169.1294403076172 190.9615020751953C169.1279296875 191.0362091064453 169.12611389160156 191.1107177734375 169.1240234375 191.1850128173828L169.0457000732422 196.84339904785156V207.1000213623047L169.63180541992188 212.79360961914062C169.74774169921875 213.95120239257812 169.78665161132812 215.06781005859375 169.75454711914062 216.14285278320312L169.8829803466797 221.7943878173828C169.8929901123047 222.22430419921875 169.89288330078125 222.6478271484375 169.8829803466797 223.06495666503906V226.71434020996094C169.8928985595703 227.13320922851562 169.89300537109375 227.5585174560547 169.8829803466797 227.99026489257812L169.7293701171875 234.3843994140625C169.72796630859375 234.62330627441406 169.72337341308594 234.86422729492188 169.7155303955078 235.10716247558594L169.46434020996094 241.57516479492188C169.46182250976562 241.66165161132812 169.4589080810547 241.74786376953125 169.45559692382812 241.8337860107422L169.3129119873047 247.41647338867188L169.43475341796875 251.4073028564453L169.84742736816406 255.35049438476562C169.8779296875 255.60377502441406 169.90475463867188 255.85975646972656 169.92779541015625 256.1184387207031L169.94578552246094 256.2903747558594C170.07757568359375 257.60626220703125 170.10968017578125 258.86920166015625 170.05096435546875 260.07830810546875L170.1019744873047 264.6058349609375C170.1228790283203 265.15106201171875 170.1268768310547 265.70745849609375 170.1132354736328 266.27496337890625L169.94578552246094 274.4384460449219C169.93301391601562 274.9871520996094 169.90428161621094 275.52471923828125 169.8602294921875 276.0511474609375L169.8109893798828 279.1778259277344C169.81048583984375 279.4239501953125 169.8065948486328 279.6722106933594 169.79925537109375 279.9226379394531L169.79713439941406 279.9861755371094L169.54808044433594 287.437255859375C169.54209899902344 287.6225891113281 169.53431701660156 287.8066101074219 169.5247344970703 287.9893493652344L169.3622589111328 292.8497314453125C169.40940856933594 294.0756530761719 169.36276245117188 295.3558349609375 169.21316528320312 296.689208984375L168.4436798095703 303.113525390625C168.430419921875 303.315185546875 168.414794921875 303.51812744140625 168.3968048095703 303.7223815917969L167.8973388671875 309.2721252441406L167.8013916015625 312.7381591796875C167.8478240966797 313.75537109375 167.83168029785156 314.81103515625 167.7479248046875 315.9048156738281L167.27345275878906 321.8795471191406L167.32420349121094 327.8846435546875C167.3259735107422 327.9242248535156 167.3276824951172 327.9638366699219 167.32928466796875 328.0035400390625L167.54750061035156 332.6226501464844C167.56011962890625 332.79815673828125 167.57110595703125 332.974853515625 167.58045959472656 333.1528015136719L167.9990997314453 340.8348693847656C168.01031494140625 341.06134033203125 168.01869201660156 341.2861328125 168.02426147460938 341.5091857910156L168.31307983398438 348.28668212890625C168.32489013671875 348.5213317871094 168.33363342285156 348.754150390625 168.33937072753906 348.9851379394531L168.6479949951172 355.46636962890625C168.65756225585938 355.7164306640625 168.6636962890625 355.96435546875 168.66644287109375 356.2101745605469L168.81546020507812 360.8668212890625C168.82666015625 361.2494201660156 168.829833984375 361.6270446777344 168.82518005371094 361.9996337890625L168.89918518066406 368.7163391113281C168.9039306640625 368.9502868652344 168.9056854248047 369.18231201171875 168.9044952392578 369.4124450683594L168.9590301513672 374.8385925292969C169.083740234375 376.1875915527344 169.095947265625 377.6079406738281 168.98291015625 379.0986328125L168.3329620361328 386.572998046875C168.3150634765625 387.1004943847656 168.28074645996094 387.6372375488281 168.22935485839844 388.1831359863281L167.74656677246094 392.9330749511719C167.7313232421875 393.3872375488281 167.70399475097656 393.8482971191406 167.6641845703125 394.31622314453125L166.84783935546875 403.7984313964844C166.82667541503906 404.0386657714844 166.80258178710938 404.2765808105469 166.77560424804688 404.51214599609375L166.19894409179688 412.8829345703125C166.18760681152344 413.0435791015625 166.17495727539062 413.2031555175781 166.16099548339844 413.36175537109375L165.78030395507812 422.3651428222656C165.77342224121094 422.503662109375 165.76553344726562 422.6414489746094 165.75665283203125 422.7784729003906L165.550048828125 429.3145751953125C165.51808166503906 430.2205505371094 165.4429473876953 431.0955505371094 165.32752990722656 431.9396057128906L164.56625366210938 440.5969543457031C164.5069580078125 441.26422119140625 164.42507934570312 441.9133605957031 164.3217315673828 442.5444641113281L163.5824432373047 450.7280578613281C163.5565185546875 450.986083984375 163.52723693847656 451.2413635253906 163.49465942382812 451.493896484375L162.76609802246094 460.62890625C162.74342346191406 460.9026794433594 162.71693420410156 461.1734313964844 162.6866912841797 461.441162109375L162.2867889404297 467.63946533203125C162.28858947753906 468.0458068847656 162.28099060058594 468.4580078125 162.26373291015625 468.8761291503906L161.8660125732422 478.35833740234375C161.83062744140625 479.2152404785156 161.7567901611328 480.0441589355469 161.6469268798828 480.8452453613281L160.8824920654297 489.8070068359375C160.86300659179688 490.18646240234375 160.8350830078125 490.57061767578125 160.79847717285156 490.9594421386719L159.81468200683594 502.0743408203125C159.79327392578125 502.30181884765625 159.76922607421875 502.5271911621094 159.7426300048828 502.7504577636719L159.20115661621094 509.5626525878906C159.1907196044922 509.71026611328125 159.1790008544922 509.85858154296875 159.16595458984375 510.007568359375L159.16290283203125 510.0421142578125C159.12001037597656 510.55218505859375 159.0638427734375 511.0517272949219 158.9949188232422 511.54083251953125L157.77835083007812 521.5498657226562C157.75582885742188 521.7894287109375 157.72991943359375 522.0307006835938 157.70054626464844 522.2737426757812L156.38182067871094 533.2421264648438C156.2632293701172 534.199462890625 156.0991973876953 535.1177368164062 155.8931121826172 535.9972534179688L154.41421508789062 544.9222412109375C154.37513732910156 545.16162109375 154.33328247070312 545.3984375 154.28871154785156 545.6326293945312L153.4219970703125 551.1167602539062C153.3998260498047 551.3389892578125 153.37474060058594 551.5626831054688 153.3466796875 551.7879028320312L152.14437866210938 561.2606201171875C152.08802795410156 561.9607543945312 152.0009002685547 562.6756591796875 151.88143920898438 563.4052124023438L150.43399047851562 571.94873046875C150.38580322265625 572.4157104492188 150.32420349121094 572.8890380859375 150.2487335205078 573.3688354492188L148.7834930419922 582.7882690429688C148.71844482421875 583.1939697265625 148.64540100097656 583.59228515625 148.5646209716797 583.9832153320312L147.9071807861328 588.8299560546875L147.25588989257812 595.7938232421875C147.24972534179688 595.923583984375 147.24261474609375 596.0538940429688 147.23452758789062 596.1847534179688L146.64842224121094 604.7041015625Q146.63441467285156 604.9315185546875 146.61688232421875 605.1561889648438L146.39724731445312 612.3861694335938C146.39260864257812 612.5098876953125 146.3871612548828 612.633056640625 146.38092041015625 612.755615234375L146.25071716308594 617.702880859375V624.65234375C146.2494659423828 624.7569580078125 146.24761962890625 624.861083984375 146.2451934814453 624.9649047851562L146.16749572753906 631.725341796875L146.2434844970703 637.7285766601562C146.247314453125 637.8901977539062 146.24974060058594 638.052734375 146.25071716308594 638.21630859375V646.7984619140625L146.3516845703125 648.8320922851562L146.4911346435547 650.7210693359375L147.38104248046875 656.9505004882812C147.44656372070312 657.3995971679688 147.50001525878906 657.843017578125 147.54176330566406 658.2806396484375L147.9142608642578 660.8299560546875C147.9873046875 661.2684326171875 148.05029296875 661.7156372070312 148.1028289794922 662.1716918945312L148.11366271972656 662.2672119140625L148.14767456054688 662.5695190429688L148.72837829589844 667.7313232421875C148.8230438232422 668.3423461914062 148.8975830078125 668.9700317382812 148.95095825195312 669.6143798828125L149.43238830566406 675.9149169921875C149.48780822753906 676.6159057617188 149.51527404785156 677.3013916015625 149.51609802246094 677.97119140625L149.76730346679688 682.6968994140625C149.78709411621094 683.0531005859375 149.79981994628906 683.4051513671875 149.80563354492188 683.7529907226562L149.99755859375 687.36474609375C150.01942443847656 687.8942260742188 150.02577209472656 688.414306640625 150.01718139648438 688.9248657226562L150.08128356933594 692.9954223632812C150.08663940429688 693.2257690429688 150.089111328125 693.454345703125 150.08871459960938 693.6810302734375L150.16500854492188 698.1447143554688C150.16651916503906 698.31201171875 150.16650390625 698.478271484375 150.16500854492188 698.6436157226562L150.16488647460938 702.7288208007812L150.16500854492188 702.8125610351562V709.134033203125L150.27642822265625 709.7802734375C150.4149169921875 710.4222412109375 150.52867126464844 711.0841674804688 150.61618041992188 711.7659912109375C150.88572692871094 713.49658203125 150.9739532470703 715.1446533203125 150.90158081054688 716.7066650390625L150.9547119140625 718.1875610351562C150.9654541015625 718.407958984375 150.97344970703125 718.6302490234375 150.9786376953125 718.8543701171875L150.98135375976562 718.9302368164062C151.0082550048828 719.7633056640625 150.99703979492188 720.5726928710938 150.949951171875 721.3583984375L150.92330932617188 722.5306396484375C150.9345245361328 723.1114501953125 150.92625427246094 723.7044677734375 150.8976287841797 724.3097534179688L150.7460479736328 727.2845458984375C150.74171447753906 727.4157104492188 150.73643493652344 727.5474853515625 150.7301788330078 727.6798095703125L150.58364868164062 732.0127563476562C150.57701110839844 732.1529541015625 150.56936645507812 732.2924194335938 150.56069946289062 732.4310913085938L150.41619873046875 735.5921020507812C150.41375732421875 735.6471557617188 150.41116333007812 735.7021484375 150.40841674804688 735.7569580078125L150.33245849609375 738.7947387695312C150.31881713867188 739.15087890625 150.29852294921875 739.5022583007812 150.27174377441406 739.8488159179688L150.16500854492188 742.1438598632812V744.911376953125C150.16650390625 745.0763549804688 150.16651916503906 745.2423095703125 150.16500854492188 745.4092407226562V745.5767211914062C150.16134643554688 745.7892456054688 150.15525817871094 746.0001220703125 150.14682006835938 746.2092895507812L150.11068725585938 747.7994995117188L151.8978271484375 747.65576171875C152.583740234375 747.5642700195312 153.28993225097656 747.498779296875 154.01651000976562 747.4605712890625L159.38650512695312 747.2158203125C160.58193969726562 747.0826416015625 161.8354034423828 747.0379028320312 163.14627075195312 747.0906982421875C163.9681854248047 747.1023559570312 164.76571655273438 747.1531982421875 165.53875732421875 747.24072265625L171.34823608398438 747.6280517578125C172.04632568359375 747.673095703125 172.72518920898438 747.7432861328125 173.38491821289062 747.837158203125L177.56504821777344 748.1932373046875C177.80447387695312 748.215087890625 178.04153442382812 748.2399291992188 178.27626037597656 748.267578125L186.7960662841797 748.9258422851562C187.04783630371094 748.9458618164062 187.29705810546875 748.9691162109375 187.5437469482422 748.9955444335938L194.20762634277344 749.4332275390625C193.60693359375 746.953857421875 193.49688720703125 744.2935180664062 194.00352478027344 741.5267944335938C194.23046875 739.809326171875 194.6722412109375 738.1984252929688 195.2944793701172 736.7030029296875V735.4456176757812L195.2365264892578 732.9534912109375C195.2205352783203 732.589111328125 195.21188354492188 732.2197265625 195.21075439453125 731.8452758789062V729.228759765625L195.21083068847656 729.1657104492188L195.21075439453125 729.1450805664062V727.3449096679688L195.21078491210938 727.3031616210938L195.21075439453125 727.2611694335938V721.5467529296875L195.2111358642578 721.4630126953125L195.21127319335938 721.4400024414062L195.2311553955078 720.5653686523438L195.29281616210938 717.8522338867188C195.29302978515625 717.772216796875 195.2935791015625 717.6919555664062 195.2944793701172 717.6115112304688V715.8588256835938C195.28900146484375 715.5465087890625 195.28897094726562 715.2306518554688 195.2944793701172 714.9112548828125L195.36399841308594 712.19970703125C195.36474609375 711.9338989257812 195.3694610595703 711.66552734375 195.37820434570312 711.3947143554688L195.44300842285156 709.693359375C195.44659423828125 709.4736938476562 195.452880859375 709.2523803710938 195.46192932128906 709.0293579101562L195.5178680419922 707.4490356445312C195.52149963378906 707.135009765625 195.5307159423828 706.8175048828125 195.545654296875 706.49658203125L195.602783203125 704.8259887695312C195.6070556640625 704.5413818359375 195.6158905029297 704.2539672851562 195.62939453125 703.9638061523438L195.7832794189453 701.4822998046875C195.7872314453125 701.3818359375 195.79176330566406 701.281005859375 195.79684448242188 701.1798706054688L196.04803466796875 696.9306640625Q196.05136108398438 696.8636474609375 196.05499267578125 696.7968139648438L196.19454956054688 692.4302978515625C196.2008056640625 692.2890625 196.20809936523438 692.148681640625 196.2164306640625 692.0089721679688L196.2510986328125 690.1805419921875L196.12249755859375 688.4503784179688L196.10093688964844 688.3351440429688C195.75094604492188 687.0518798828125 195.5076904296875 685.68408203125 195.3852996826172 684.23193359375C195.16639709472656 682.458740234375 195.14414978027344 680.7744750976562 195.2944793701172 679.1836547851562V675.3497314453125L195.2945098876953 675.3436889648438C195.294677734375 675.3177490234375 195.29483032226562 675.2918701171875 195.2944793701172 675.2659912109375V673.549560546875C195.29722595214844 673.2449340820312 195.304931640625 672.9436645507812 195.3175048828125 672.6456909179688L195.37820434570312 670.2632446289062V665.1139526367188L195.3262176513672 663.3855590820312C195.31326293945312 663.1749877929688 195.30267333984375 662.9627075195312 195.2944793701172 662.7486572265625L195.24075317382812 660.4918823242188C195.23001098632812 660.37255859375 195.2200164794922 660.2526245117188 195.21075439453125 660.1321411132812L194.98831176757812 656.8157348632812L194.94898986816406 656.5247802734375C194.9312744140625 656.4437255859375 194.9138641357422 656.3623657226562 194.8967742919922 656.2806396484375L194.5229949951172 654.342529296875C194.5078887939453 654.2839965820312 194.49293518066406 654.225341796875 194.47813415527344 654.16650390625L193.76864624023438 651.2557983398438L192.677978515625 647.46826171875C192.6056671142578 647.209228515625 192.5377960205078 646.95166015625 192.47427368164062 646.695556640625L191.9093780517578 644.7244873046875C191.85012817382812 644.5281982421875 191.7928009033203 644.3297119140625 191.73744201660156 644.129150390625C191.4871368408203 643.2765502929688 191.28585815429688 642.4390258789062 191.1309814453125 641.617431640625L190.80462646484375 640.2116088867188C190.74375915527344 639.9659423828125 190.68594360351562 639.7171630859375 190.63125610351562 639.4652709960938C190.48524475097656 638.8372192382812 190.364501953125 638.2183837890625 190.26800537109375 637.6092529296875L189.96115112304688 636.004150390625C189.85292053222656 635.5786743164062 189.75367736816406 635.1438598632812 189.66375732421875 634.69970703125L188.8909912109375 630.5980834960938C188.87042236328125 630.493896484375 188.8504180908203 630.3892211914062 188.83096313476562 630.2839965820312C188.71728515625 629.70751953125 188.6242218017578 629.139404296875 188.55101013183594 628.5799560546875L188.36817932128906 627.441162109375C188.0199432373047 626.01708984375 187.79942321777344 624.4927368164062 187.72463989257812 622.867919921875C187.638671875 621.740478515625 187.63128662109375 620.6519165039062 187.69615173339844 619.603271484375V585.802490234375L187.6217041015625 581.2238159179688C187.61801147460938 581.1177368164062 187.6149139404297 581.0112915039062 187.6124267578125 580.9043579101562L187.5408172607422 577.8974609375Q187.53372192382812 577.72705078125 187.5286865234375 577.5552368164062L187.3790740966797 573.0291748046875C187.37222290039062 572.8988647460938 187.36627197265625 572.7678833007812 187.36123657226562 572.63623046875L187.21946716308594 567.4312744140625C187.21780395507812 567.3941040039062 187.21621704101562 567.3568115234375 187.21470642089844 567.3195190429688L186.96353149414062 561.5213012695312C186.9568634033203 561.3598022460938 186.95164489746094 561.19921875 186.94784545898438 561.0394897460938L186.7960662841797 557.1884155273438C186.78439331054688 556.8836669921875 186.77786254882812 556.5820922851562 186.77633666992188 556.28369140625L186.6553497314453 552.275634765625C186.6380157470703 551.928466796875 186.62754821777344 551.5767211914062 186.62416076660156 551.2203979492188C186.61001586914062 550.609375 186.61643981933594 550.0111083984375 186.642578125 549.42578125L186.6849822998047 546.4462890625C186.65042114257812 545.5189208984375 186.67037963867188 544.5607299804688 186.7489013671875 543.5723876953125C186.81387329101562 542.4135131835938 186.95193481445312 541.3067626953125 187.15660095214844 540.2520141601562L187.38963317871094 538.5230712890625L187.6124267578125 533.8073120117188V528.3231201171875L187.61233520507812 528.2811889648438L187.6124267578125 528.2393798828125V522.1641235351562C187.61009216308594 521.9580078125 187.61007690429688 521.7503662109375 187.6124267578125 521.5411376953125L187.68801879882812 515.4181518554688C187.68467712402344 515.0906982421875 187.68734741210938 514.7593994140625 187.69615173339844 514.4242553710938L187.83326721191406 510.87628173828125C187.8346710205078 510.4873962402344 187.84469604492188 510.0931701660156 187.8636016845703 509.693603515625L187.94732666015625 506.40728759765625C187.9796600341797 505.71258544921875 188.03712463378906 505.036376953125 188.11843872070312 504.3785705566406L188.12644958496094 504.22125244140625C188.1315460205078 503.6562194824219 188.1553192138672 503.0801086425781 188.19851684570312 502.49298095703125L188.59332275390625 497.4635314941406C188.62147521972656 496.78277587890625 188.6777801513672 496.0869140625 188.76368713378906 495.3760986328125L189.17947387695312 491.81878662109375C189.22998046875 491.16168212890625 189.30726623535156 490.4914245605469 189.41258239746094 489.80816650390625L190.14520263671875 484.9938049316406C190.22471618652344 484.4879150390625 190.3166961669922 483.9934997558594 190.420654296875 483.5104675292969L191.14193725585938 479.5050964355469L191.8666534423828 474.5621643066406L192.03431701660156 471.701416015625C192.03884887695312 471.1001281738281 192.064697265625 470.48626708984375 192.11280822753906 469.85992431640625L192.34877014160156 466.7481994628906C192.36492919921875 466.21795654296875 192.397705078125 465.67828369140625 192.44772338867188 465.1293029785156L193.01287841796875 458.9124755859375C193.0795135498047 458.2067565917969 193.17147827148438 457.5215148925781 193.28741455078125 456.8565673828125L193.63217163085938 454.0491638183594C193.6566162109375 453.5772399902344 193.6942596435547 453.09814453125 193.74551391601562 452.6119384765625L194.39439392089844 446.4788513183594C194.40533447265625 446.37896728515625 194.41677856445312 446.279541015625 194.4287109375 446.1805114746094L194.5084991455078 445.0581970214844C194.50563049316406 443.9673767089844 194.57713317871094 442.83587646484375 194.72930908203125 441.66448974609375L195.40599060058594 436.7021179199219L195.4501190185547 434.6720886230469C195.4501953125 434.4097595214844 195.4541015625 434.1449890136719 195.46192932128906 433.8777770996094L195.52554321289062 431.15802001953125C195.52574157714844 430.8197326660156 195.5323944091797 430.47735595703125 195.545654296875 430.1309509277344L195.6904754638672 427.1622009277344C195.695556640625 426.95318603515625 195.70309448242188 426.7426452636719 195.71311950683594 426.5306396484375L195.8535614013672 423.5813293457031C195.85992431640625 423.36590576171875 195.86891174316406 423.1488952636719 195.8805694580078 422.9303283691406L196.09324645996094 417.8647766113281C196.0980224609375 417.72589111328125 196.1038818359375 417.5863342285156 196.11082458496094 417.4461364746094C196.11941528320312 417.2848815917969 196.12936401367188 417.1246337890625 196.14064025878906 416.96539306640625L196.44573974609375 412.045654296875C196.4536590576172 411.8857421875 196.46292114257812 411.726806640625 196.47349548339844 411.5688781738281L196.5865020751953 408.2633361816406L196.44573974609375 405.0962219238281C196.39596557617188 403.55426025390625 196.4769744873047 402.0933532714844 196.67462158203125 400.7139892578125L196.8643798828125 397.74908447265625C196.87042236328125 397.6624755859375 196.87686157226562 397.576171875 196.8836669921875 397.49017333984375L196.9236602783203 395.26019287109375L196.80154418945312 393.8272705078125L196.268310546875 390.9292907714844C196.1185302734375 390.3057556152344 195.9888916015625 389.66253662109375 195.8805694580078 388.9994812011719L195.31680297851562 385.4595642089844C195.07351684570312 384.38616943359375 194.8997039794922 383.2561950683594 194.802490234375 382.06939697265625C194.6736602783203 380.9470520019531 194.6223602294922 379.861328125 194.64259338378906 378.8132629394531L194.47813415527344 375.0168762207031C194.46725463867188 374.7269592285156 194.46099853515625 374.43988037109375 194.4593048095703 374.1556701660156L194.33160400390625 369.448974609375C194.31497192382812 368.89508056640625 194.315185546875 368.3517150878906 194.33160400390625 367.81890869140625V364.8857727050781C194.3423614501953 363.92779541015625 194.40188598632812 363.003173828125 194.5067901611328 362.1119079589844L194.56195068359375 361.31549072265625C194.54335021972656 359.79779052734375 194.6767120361328 358.20281982421875 194.98049926757812 356.5339050292969L195.0256805419922 356.2955627441406C195.0879364013672 355.9199523925781 195.15802001953125 355.55072021484375 195.23568725585938 355.1878967285156L195.76608276367188 352.39031982421875L196.11082458496094 347.2191467285156C196.173095703125 346.33929443359375 196.27525329589844 345.490234375 196.41465759277344 344.6717834472656L196.5081787109375 343.86517333984375C196.538818359375 343.1439514160156 196.60116577148438 342.4058837890625 196.69692993164062 341.6512145996094L197.3944091796875 336.6972961425781C197.42726135253906 336.3634338378906 197.46682739257812 336.02618408203125 197.51327514648438 335.68560791015625L198.32962036132812 329.4687805175781C198.37109375 329.1646423339844 198.41714477539062 328.8645324707031 198.4676513671875 328.5684509277344L198.85414123535156 324.8753967285156L199.06224060058594 320.88665771484375V289.97003173828125L198.99964904785156 287.2314453125C198.9874725341797 286.9267578125 198.9803924560547 286.61859130859375 198.978515625 286.3069152832031V276.82470703125L198.97853088378906 276.7689208984375L198.978515625 276.740966796875V271.5917053222656L198.97853088378906 271.5637512207031L198.978515625 271.5079650878906V267.9032287597656C198.97702026367188 267.7382507324219 198.9770050048828 267.572265625 198.978515625 267.4053039550781L199.05499267578125 262.1857604980469C199.0540008544922 261.9392395019531 199.056396484375 261.6905517578125 199.06224060058594 261.4396667480469L199.14596557617188 256.1229248046875C199.16307067871094 255.38577270507812 199.2088165283203 254.6687469482422 199.2816619873047 253.97178649902344L199.39715576171875 250.0735626220703C199.4273223876953 249.38088989257812 199.48252868652344 248.70654296875 199.5614776611328 248.0504608154297L199.7111358642578 245.34292602539062C199.76710510253906 244.54994201660156 199.85525512695312 243.7818603515625 199.9737091064453 243.03858947753906L200.2147979736328 240.72247314453125C200.24134826660156 240.03817749023438 200.2962646484375 239.3385467529297 200.38096618652344 238.62374877929688L201.11358642578125 232.49066162109375C201.19261169433594 231.82196044921875 201.29409790039062 231.1723175048828 201.4168701171875 230.54159545898438L201.81124877929688 227.4541015625C201.8440704345703 227.119873046875 201.88357543945312 226.78225708007812 201.929931640625 226.44129943847656L202.50099182128906 222.4438934326172C202.52073669433594 222.11912536621094 202.546630859375 221.79098510742188 202.57882690429688 221.45947265625L203.1394500732422 216.20558166503906L202.94105529785156 212.48887634277344Z" fill="black"/>
</svg>
