<svg xmlns="http://www.w3.org/2000/svg" viewBox="0 0 611 1000">
  <path d="M148.63345336914062 127.5308837890625C151.91876220703125 121.61591339111328 157.05938720703125 116.71089935302734 164.05531311035156 113.95655822753906C171.54638671875 110.37279510498047 179.46385192871094 110.24092102050781 186.6353302001953 112.5196533203125C199.3063507080078 115.45616149902344 207.05323791503906 124.72688293457031 209.87596130371094 135.40866088867188C211.75103759765625 141.1824188232422 212.0010528564453 147.51234436035156 210.0107421875 153.85189819335938L210.28475952148438 155.38796997070312L211.5215606689453 161.10501098632812C211.81192016601562 162.46275329589844 212.02938842773438 163.79164123535156 212.17794799804688 165.09078979492188L212.63417053222656 167.76499938964844C212.84664916992188 168.71693420410156 213.02947998046875 169.697021484375 213.18106079101562 170.70547485351562L213.85960388183594 175.4286651611328C213.8704071044922 175.50157165527344 213.8810272216797 175.57461547851562 213.89149475097656 175.64781188964844C213.9769744873047 176.2240753173828 214.04995727539062 176.79446411132812 214.11074829101562 177.3589324951172L214.56626892089844 181.04653930664062C214.62991333007812 181.552978515625 214.68406677246094 182.05467224121094 214.72894287109375 182.55162048339844L214.97767639160156 184.7902374267578C215.06802368164062 185.40614318847656 215.1458740234375 186.03260803222656 215.21087646484375 186.669677734375L215.57469177246094 190.45713806152344C215.6937713623047 191.31832885742188 215.78775024414062 192.19992065429688 215.85548400878906 193.10198974609375L216.66465759277344 203.70364379882812C216.72621154785156 204.5244140625 216.7637939453125 205.33168029785156 216.7782440185547 206.1253662109375L217.1995391845703 212.9200897216797C217.2197265625 213.26821899414062 217.23562622070312 213.61386108398438 217.24732971191406 213.95700073242188L218.104736328125 225.8258514404297C218.1155242919922 225.981689453125 218.1254425048828 226.13702392578125 218.13450622558594 226.2918701171875L219.24148559570312 237.60911560058594L220.64918518066406 248.60528564453125C220.6999053955078 248.90480041503906 220.74781799316406 249.2069091796875 220.79286193847656 249.51158142089844L222.07948303222656 258.51788330078125L224.31759643554688 271.4143371582031C224.33763122558594 271.53179931640625 224.35711669921875 271.6490173339844 224.3760986328125 271.7659912109375L226.62171936035156 283.85382080078125L226.63424682617188 283.921630859375L228.9274444580078 295.5621032714844C229.00405883789062 295.9207458496094 229.07669067382812 296.2833251953125 229.145263671875 296.6498718261719L230.93917846679688 306.3246154785156C231.04409790039062 306.8270568847656 231.14108276367188 307.337158203125 231.2299346923828 307.85498046875L232.8736114501953 317.60235595703125C232.9170684814453 317.8307189941406 232.95892333984375 318.06060791015625 232.99916076660156 318.29205322265625L234.79220581054688 328.5929870605469C234.9442901611328 329.3392639160156 235.0783233642578 330.10235595703125 235.1935577392578 330.88238525390625L236.8530731201172 342.293212890625C236.92039489746094 342.7525634765625 236.97979736328125 343.2081298828125 237.0314483642578 343.6599426269531L237.8738555908203 349.2727966308594C237.91465759277344 349.50030517578125 237.95384216308594 349.7293395996094 237.9914093017578 349.9598693847656L239.57318115234375 359.5104064941406C239.7002716064453 360.1723327636719 239.81321716308594 360.8472595214844 239.9114990234375 361.5352783203125L241.46128845214844 372.6169738769531C241.60000610351562 373.5956115722656 241.70294189453125 374.5570983886719 241.77157592773438 375.5011901855469L242.62155151367188 383.1905517578125C242.69186401367188 383.7135925292969 242.75320434570312 384.2441101074219 242.80535888671875 384.7821350097656L243.71054077148438 394.0534362792969C243.75390625 394.5052795410156 243.78990173339844 394.953125 243.81866455078125 395.39703369140625L244.506591796875 402.8986511230469C244.5508575439453 403.3205871582031 244.5892333984375 403.7471923828125 244.62159729003906 404.178466796875C244.63661193847656 404.3636779785156 244.65040588378906 404.5484619140625 244.6629638671875 404.7325439453125L245.37802124023438 414.2818908691406C245.4467010498047 414.9738464355469 245.4990997314453 415.67822265625 245.53463745117188 416.39508056640625L246.12437438964844 428.50537109375C246.15579223632812 429.151611328125 246.172607421875 429.7891540527344 246.17523193359375 430.41790771484375L246.4535369873047 438.2567138671875C246.47496032714844 438.86962890625 246.48336791992188 439.4745178222656 246.47915649414062 440.07135009765625L246.714111328125 451.80706787109375C246.7158660888672 451.8970031738281 246.7173309326172 451.98675537109375 246.71853637695312 452.0763244628906L247.30386352539062 463.80767822265625C247.329833984375 464.37078857421875 247.34475708007812 464.92724609375 247.348876953125 465.4770202636719L247.8936004638672 475.4790954589844C247.90916442871094 475.785400390625 247.92144775390625 476.0897216796875 247.93048095703125 476.3921203613281L248.20010375976562 482.2660217285156C248.2730712890625 483.2241516113281 248.3131103515625 484.2052001953125 248.3186492919922 485.2091369628906C248.329345703125 485.7972106933594 248.3277587890625 486.3777160644531 248.31422424316406 486.9507141113281L248.28504943847656 495.18853759765625C248.32730102539062 496.4378967285156 248.311279296875 497.7234191894531 248.23341369628906 499.0447692871094C248.20948791503906 499.568359375 248.17608642578125 500.0853576660156 248.13340759277344 500.5957946777344L247.56553649902344 509.341064453125C247.53472900390625 510.13916015625 247.4796142578125 510.95037841796875 247.39932250976562 511.77447509765625C247.3307342529297 512.5858764648438 247.2404022216797 513.3804931640625 247.12921142578125 514.1583862304688L245.9735107421875 524.0711669921875C245.85426330566406 525.0709228515625 245.70367431640625 526.0439453125 245.52328491210938 526.990478515625L244.73402404785156 532.3661499023438C244.6581573486328 532.9555053710938 244.56866455078125 533.551025390625 244.46522521972656 534.1527099609375C244.40272521972656 534.532958984375 244.33566284179688 534.9091796875 244.26417541503906 535.2813110351562L242.27047729492188 546.4127807617188C242.17343139648438 546.9511108398438 242.067626953125 547.4810180664062 241.9533233642578 548.0025634765625L239.863037109375 558.6321411132812C239.79736328125 558.9869384765625 239.72666931152344 559.34375 239.65090942382812 559.7025756835938L237.18222045898438 571.4837036132812C237.07672119140625 571.9833984375 236.96380615234375 572.4754638671875 236.84368896484375 572.9600219726562L235.33877563476562 579.9189453125C235.2760467529297 580.232666015625 235.20938110351562 580.5479125976562 235.13870239257812 580.86474609375L232.6986846923828 591.7874145507812C232.625732421875 592.1447143554688 232.547607421875 592.5040283203125 232.4642791748047 592.8653564453125L229.98606872558594 603.6793823242188L228.07550048828125 614.13720703125C227.98406982421875 614.623291015625 227.88552856445312 615.1024169921875 227.7800750732422 615.5746459960938L226.25119018554688 624.1490478515625L226.2496795654297 624.15869140625L225.07940673828125 631.6036987304688L225.07192993164062 631.6512451171875L225.0638885498047 631.7019653320312L223.5830535888672 641.04248046875L223.57699584960938 641.0870971679688L222.61553955078125 648.0296020507812C222.5989227294922 648.2108764648438 222.58111572265625 648.3928833007812 222.5620880126953 648.575439453125L221.70127868652344 656.4127197265625L221.1748046875 664.72412109375C221.17129516601562 664.8269653320312 221.16741943359375 664.9300537109375 221.1631622314453 665.0333862304688L220.79286193847656 674.291015625C220.78683471679688 674.4373168945312 220.78012084960938 674.5831298828125 220.77268981933594 674.7283935546875L220.62828063964844 682.766845703125C220.6243896484375 682.9463500976562 220.61941528320312 683.1250610351562 220.61338806152344 683.3030395507812L220.54339599609375 687.3709716796875C220.55218505859375 688.2155151367188 220.5347442626953 689.076171875 220.4900360107422 689.95263671875C220.46368408203125 690.6419067382812 220.4210662841797 691.3198852539062 220.3627166748047 691.986572265625L220.03091430664062 697.1341552734375L219.9888916015625 701.9338989257812L220.03060913085938 705.71875C220.03346252441406 705.7986450195312 220.03611755371094 705.8786010742188 220.03854370117188 705.9588012695312L220.10755920410156 707.9517211914062Q220.13136291503906 708.3447265625 220.14825439453125 708.742919921875L220.24099731445312 711.6411743164062C220.24703979492188 711.7491455078125 220.25270080566406 711.857421875 220.2579803466797 711.9659423828125L220.329345703125 713.7500610351562C220.33505249023438 713.8381958007812 220.3404998779297 713.9265747070312 220.345703125 714.0150756835938C220.39297485351562 714.5007934570312 220.43235778808594 714.99267578125 220.4636993408203 715.49072265625L220.48593139648438 715.9075927734375C220.49752807617188 716.0560913085938 220.50840759277344 716.2051391601562 220.5185546875 716.354736328125V716.5193481445312C220.55294799804688 717.0767822265625 220.57635498046875 717.6278686523438 220.5890655517578 718.172607421875C220.71286010742188 721.7666625976562 220.37109375 725.0867919921875 219.63914489746094 728.1280517578125L221.10830688476562 728.0810546875C222.1733856201172 728.049072265625 223.21405029296875 728.0562744140625 224.230224609375 728.1007690429688L226.64283752441406 728.1267700195312C227.06155395507812 728.1235961914062 227.4842529296875 728.1266479492188 227.91091918945312 728.1358642578125L232.08999633789062 728.236572265625C232.25076293945312 728.2387084960938 232.41209411621094 728.24169921875 232.57400512695312 728.24560546875L237.3468017578125 728.3553466796875L241.05894470214844 728.4345092773438L241.656005859375 728.3895874023438C243.17532348632812 728.2003784179688 244.7561798095703 728.0952758789062 246.39866638183594 728.0810546875H250.62034606933594C251.13624572753906 728.0716552734375 251.6582489013672 728.0715942382812 252.18638610839844 728.0810546875L254.97705078125 728.119140625C255.52134704589844 728.1141967773438 256.07232666015625 728.11962890625 256.6300354003906 728.1358642578125L260.0421447753906 728.2344360351562C260.1889343261719 728.2374267578125 260.336181640625 728.2411499023438 260.4839172363281 728.24560546875L264.8315734863281 728.41015625C264.9772644042969 728.41455078125 265.1224670410156 728.4196166992188 265.26715087890625 728.4254150390625L269.330078125 728.5198974609375C269.3873291015625 728.5213012695312 269.4445495605469 728.5227661132812 269.50164794921875 728.5243530273438L272.7039489746094 728.56103515625C272.7847900390625 728.5625 272.8655090332031 728.564208984375 272.9460754394531 728.5661010742188L277.4630432128906 728.6159057617188C277.5995788574219 728.6175537109375 277.7357177734375 728.619873046875 277.87139892578125 728.6227416992188L280.14892578125 728.6505126953125L281.2483215332031 728.5453491210938C281.6104736328125 728.4960327148438 281.9761962890625 728.450927734375 282.3455505371094 728.41015625L285.2759094238281 728.0921630859375C285.5992431640625 728.0530395507812 285.92535400390625 728.017333984375 286.2543029785156 727.9850463867188L291.4522705078125 727.4912719726562C292.0085754394531 727.4366455078125 292.5589294433594 727.3932495117188 293.1032409667969 727.3607788085938L296.5281982421875 727.0885620117188C296.98968505859375 727.0453491210938 297.45660400390625 727.0093994140625 297.9290771484375 726.980712890625C298.43328857421875 726.9471435546875 298.9325256347656 726.9227294921875 299.42657470703125 726.9072265625L302.3475341796875 726.7718505859375C303.05963134765625 726.7106323242188 303.78466796875 726.666748046875 304.5226135253906 726.6409301757812L309.5559997558594 726.4763793945312C310.10540771484375 726.4571533203125 310.6483459472656 726.4483642578125 311.184814453125 726.4498291015625L313.81390380859375 726.3912353515625L317.8345642089844 726.0419921875C318.1626281738281 726.0049438476562 318.4935302734375 725.971435546875 318.82733154296875 725.9414672851562L325.3144836425781 725.3517456054688C326.0806884765625 725.282958984375 326.83538818359375 725.2352905273438 327.5784912109375 725.2081298828125L329.3326721191406 725.0750732421875C329.9447326660156 725.0128173828125 330.5665588378906 724.9631958007812 331.1982116699219 724.9265747070312L337.17364501953125 724.5531005859375L341.04010009765625 724.1400146484375C341.6265869140625 724.0525512695312 342.22271728515625 723.976318359375 342.8284912109375 723.9116821289062L347.9715881347656 723.3767700195312C348.40240478515625 723.3312377929688 348.8297119140625 723.2924194335938 349.2534484863281 723.26025390625L355.78912353515625 722.6773071289062C356.4504699707031 722.6187744140625 357.10321044921875 722.5759887695312 357.747314453125 722.5484619140625L361.9369812011719 722.290771484375C362.6274719238281 722.2249145507812 363.330322265625 722.1752319335938 364.0455017089844 722.1424560546875L369.30010986328125 721.9253540039062C369.56292724609375 721.9039916992188 369.8274841308594 721.8849487304688 370.09381103515625 721.8681640625L374.0868835449219 721.6380004882812C374.1865234375 721.6275024414062 374.28643798828125 721.6173706054688 374.3865966796875 721.6075439453125L378.4591979980469 721.2315063476562C378.7587585449219 721.1939697265625 379.06072998046875 721.1593017578125 379.3651123046875 721.1275634765625L384.01959228515625 720.6441040039062C384.51416015625 720.582275390625 385.0153503417969 720.5285034179688 385.52313232421875 720.4829711914062L389.6902770996094 720.1419067382812C390.222900390625 720.0814819335938 390.7630920410156 720.030517578125 391.3108215332031 719.9891967773438L393.9065856933594 719.79345703125C394.5836181640625 719.7196044921875 395.272705078125 719.6612548828125 395.9739074707031 719.618896484375L397.86468505859375 719.5122680664062L399.16339111328125 719.301513671875L399.20001220703125 719.50439453125C400.6299133300781 719.11474609375 402.1280822753906 718.7943115234375 403.6954345703125 718.5491333007812L405.04498291015625 718.335205078125C406.1966247558594 718.1091918945312 407.3879089355469 717.9281005859375 408.6191101074219 717.7947998046875L409.11700439453125 717.7434692382812L409.49298095703125 717.7047729492188L410.4487609863281 717.6062622070312C411.2825012207031 717.4854125976562 412.135498046875 717.387939453125 413.00787353515625 717.3148193359375L414.3760986328125 717.2214965820312C415.1392517089844 717.1455688476562 415.9175109863281 717.0895385742188 416.7109069824219 717.05419921875L418.6213684082031 716.97021484375C419.44842529296875 716.9010009765625 420.2928466796875 716.8555908203125 421.1545715332031 716.8347778320312L424.802734375 716.7799072265625C425.1007385253906 716.772705078125 425.3968200683594 716.7685546875 425.6909484863281 716.7674560546875L427.6417236328125 716.7250366210938C428.0699768066406 716.7188110351562 428.4941711425781 716.7188720703125 428.9143371582031 716.7250366210938H431.7150573730469C431.7654113769531 716.724853515625 431.8157043457031 716.7247314453125 431.8659362792969 716.7250366210938H438.9851989746094L439.25830078125 716.724853515625L439.3131408691406 716.7250366210938H445.7454528808594C446.10791015625 716.7263793945312 446.4673767089844 716.732177734375 446.8238830566406 716.7423095703125L449.1741943359375 716.7799072265625H452.48260498046875L454.0978698730469 716.5604858398438C454.51641845703125 716.5050048828125 454.9317932128906 716.4560546875 455.3439636230469 716.4134521484375C456.75592041015625 716.2037963867188 458.2229919433594 716.0669555664062 459.7452392578125 716.008544921875C460.5566101074219 715.9612426757812 461.35467529296875 715.9385986328125 462.1393737792969 715.939697265625L464.0686340332031 715.7650146484375C464.2735595703125 715.74609375 464.4776916503906 715.7286987304688 464.68096923828125 715.7128295898438L467.22308349609375 715.4358520507812C467.501220703125 715.4068603515625 467.7778625488281 715.3806762695312 468.05303955078125 715.3572998046875L468.86907958984375 715.274658203125C469.4549560546875 715.1951293945312 470.05023193359375 715.1268920898438 470.65484619140625 715.0703735351562C471.9731140136719 714.885986328125 473.3384094238281 714.7667846679688 474.75067138671875 714.7176513671875C477.0089111328125 714.556640625 479.3849182128906 714.6080322265625 481.8747253417969 714.8973999023438C482.00823974609375 714.9087524414062 482.1413269042969 714.9207153320312 482.2738952636719 714.9332885742188C483.4530944824219 714.8678588867188 484.6651611328125 714.8560180664062 485.9097900390625 714.90087890625C486.6619873046875 714.90576171875 487.4015197753906 714.93115234375 488.1282043457031 714.976318359375C488.7323913574219 714.97216796875 489.3445129394531 714.9822387695312 489.9644775390625 715.0070190429688C491.4813232421875 715.0233764648438 492.9457092285156 715.1199951171875 494.35760498046875 715.291259765625C494.3507995605469 715.234375 494.3441162109375 715.1774291992188 494.3375244140625 715.1204223632812L493.6944885253906 709.5902099609375L492.9031982421875 704.7511596679688L492.3375549316406 702.2274169921875L490.74420166015625 696.3171997070312C490.6918640136719 696.126220703125 490.64105224609375 695.9357299804688 490.59173583984375 695.7457275390625L489.69482421875 692.5611572265625L488.6595458984375 689.4048461914062C488.505615234375 688.9453735351562 488.3609313964844 688.4884033203125 488.22528076171875 688.033935546875L487.90277099609375 687.0564575195312C487.657958984375 686.4107055664062 487.4254150390625 685.7489013671875 487.20574951171875 685.0709228515625L486.3519592285156 682.4697875976562L486.1307373046875 681.914306640625C485.8759460449219 681.334716796875 485.6307067871094 680.7412109375 485.3953857421875 680.133544921875L484.36676025390625 677.56884765625C484.3247375488281 677.4599609375 484.28326416015625 677.3511962890625 484.2423400878906 677.2426147460938C483.8905334472656 676.393798828125 483.5614929199219 675.515625 483.25665283203125 674.6077270507812C483.0525207519531 674.0364379882812 482.86328125 673.4685668945312 482.688720703125 672.9042358398438C480.98681640625 670.4284057617188 479.6123352050781 667.7227172851562 478.5848693847656 664.8850708007812C475.1271057128906 656.3497314453125 474.914794921875 646.5661010742188 479.46148681640625 637.9334106445312C481.59039306640625 633.3941040039062 484.845703125 629.3186645507812 489.3175048828125 626.157958984375C490.3152160644531 625.3948364257812 491.37347412109375 624.6861572265625 492.4923095703125 624.0385131835938C494.4327087402344 622.817626953125 496.5650329589844 621.7882080078125 498.8892822265625 620.988037109375C503.5039978027344 619.0711669921875 508.157470703125 618.3923950195312 512.63623046875 618.7129516601562C517.3591918945312 618.76025390625 521.6954956054688 619.8548583984375 525.5478515625 621.7349853515625C535.5775756835938 625.9451293945312 541.6661987304688 634.6408081054688 543.8140258789062 644.296875C544.2009887695312 645.3584594726562 544.5266723632812 646.4160766601562 544.7940063476562 647.4677734375C545.1607666015625 648.7383422851562 545.4500732421875 649.9926147460938 545.6661376953125 651.228759765625C545.7194213867188 651.3993530273438 545.7718505859375 651.5709838867188 545.8234252929688 651.7435913085938L546.2073364257812 653.0001220703125L546.4132080078125 653.5128173828125C546.547607421875 653.8582763671875 546.6765747070312 654.2025756835938 546.8001708984375 654.5455932617188L547.4281005859375 656.1323852539062C547.4620971679688 656.2201538085938 547.4957275390625 656.307861328125 547.529052734375 656.3954467773438C547.9793701171875 657.371337890625 548.3992309570312 658.3887939453125 548.7864379882812 659.448486328125C549.2504272460938 660.64453125 549.6473388671875 661.8270874023438 549.9804077148438 662.9946899414062C550.135986328125 663.4160766601562 550.2864990234375 663.84423828125 550.4317016601562 664.279052734375L551.7620239257812 668.3524169921875C551.86181640625 668.6524658203125 551.9577026367188 668.951416015625 552.0497436523438 669.2493286132812L552.1849975585938 669.6407470703125C552.5372314453125 670.5646362304688 552.862548828125 671.5216674804688 553.1591796875 672.5122680664062C553.446044921875 673.428955078125 553.6961669921875 674.33544921875 553.9108276367188 675.2312622070312L554.6417846679688 677.9253540039062C554.7218017578125 678.1971435546875 554.7996826171875 678.4714965820312 554.8753051757812 678.7483520507812L556.5348510742188 684.6869506835938C556.8541259765625 685.8565673828125 557.1167602539062 687.0072631835938 557.3253784179688 688.138427734375L557.361083984375 688.2974243164062C557.76416015625 689.7221069335938 558.0987548828125 691.2155151367188 558.35888671875 692.7787475585938L559.2686157226562 698.388427734375C559.3434448242188 698.8078002929688 559.4124145507812 699.2323608398438 559.4754638671875 699.661865234375C559.6466064453125 700.7324829101562 559.7738647460938 701.7833251953125 559.8592529296875 702.81396484375L560.3424072265625 707.0103149414062L560.8783569335938 710.5021362304688C560.9972534179688 711.1204223632812 561.1039428710938 711.7500610351562 561.1979370117188 712.39111328125L561.7774047851562 716.6498413085938L561.7876586914062 716.7250366210938L561.7901000976562 716.7416381835938C561.87060546875 717.2973022460938 561.9396362304688 717.8475952148438 561.997314453125 718.3922729492188L562.5418701171875 722.7708740234375L563.2277221679688 726.7506713867188C563.3314208984375 727.3638916015625 563.4207763671875 727.970703125 563.49609375 728.571044921875L563.8801879882812 730.8817749023438L563.930908203125 731.119873046875L564.8291625976562 733.09423828125C565.001220703125 733.4575805664062 565.169677734375 733.82666015625 565.3342895507812 734.2015380859375C565.6273193359375 734.8524169921875 565.899658203125 735.5001220703125 566.1517333984375 736.1444091796875C566.44140625 736.7811889648438 566.7195434570312 737.4352416992188 566.985595703125 738.1066284179688L567.7261962890625 739.985595703125C567.9117431640625 740.45458984375 568.0870971679688 740.92138671875 568.2525634765625 741.385986328125L568.4256591796875 741.850830078125C568.6048583984375 742.3319702148438 568.773681640625 742.8106689453125 568.9322509765625 743.2868041992188L568.9605712890625 743.3594970703125C569.5452270507812 745.03076171875 570.0062255859375 746.6702880859375 570.3515625 748.2753295898438C577.3898315429688 780.1167602539062 540.5316162109375 797.7460327148438 518.7454833984375 782.8021240234375C517.7030639648438 782.957275390625 516.63134765625 783.0696411132812 515.5303344726562 783.1368408203125C511.79412841796875 783.581298828125 508.2922668457031 783.4326782226562 505.0509338378906 782.7915649414062L504.2534484863281 782.735107421875C503.89788818359375 782.7048950195312 503.5455627441406 782.670654296875 503.1964416503906 782.6323852539062C501.3486633300781 782.86376953125 499.4162902832031 782.9506225585938 497.4014892578125 782.8777465820312C493.822021484375 782.9270629882812 490.51556396484375 782.48583984375 487.4913635253906 781.63720703125C487.0798034667969 781.6357421875 486.6645202636719 781.6279296875 486.2455139160156 781.6137084960938C485.6369323730469 781.6066284179688 485.03668212890625 781.5866088867188 484.4449462890625 781.5540161132812L484.421630859375 781.5556030273438C484.2464904785156 781.5645141601562 484.07196044921875 781.572265625 483.8980712890625 781.5790405273438C481.8237609863281 781.7177734375 479.6506042480469 781.6779174804688 477.3818359375 781.4398193359375C477.06134033203125 781.4155883789062 476.74334716796875 781.3877563476562 476.427978515625 781.3564453125L474.84283447265625 781.5240478515625C474.5904541015625 781.554931640625 474.33636474609375 781.583740234375 474.0805358886719 781.6104736328125L470.5558166503906 781.9807739257812C469.9621276855469 782.0419921875 469.3751525878906 782.0904541015625 468.79498291015625 782.1264038085938C467.3321228027344 782.3170166015625 465.81158447265625 782.4306030273438 464.23321533203125 782.4608154296875L463.3018493652344 782.4824829101562L462.20880126953125 782.6163330078125C460.7022399902344 782.8980102539062 459.1300964355469 783.092529296875 457.4923400878906 783.1923217773438C455.31890869140625 783.3915405273438 453.2359313964844 783.4117431640625 451.2456970214844 783.2699584960938H439.107421875C438.7318420410156 783.2685546875 438.3594665527344 783.2623901367188 437.99029541015625 783.2515869140625L435.8295593261719 783.216064453125L435.7746887207031 783.2151489257812H431.9208068847656L429.2735290527344 783.2550659179688C429.05078125 783.26171875 428.8268737792969 783.2666625976562 428.6017761230469 783.2699584960938H426.3525390625L422.704345703125 783.3796997070312C422.3866271972656 783.386962890625 422.0711364746094 783.3908081054688 421.7578125 783.3911743164062L420.8671875 783.4270629882812L418.5350036621094 783.6402587890625C418.28411865234375 783.6609497070312 418.0344543457031 783.6793823242188 417.78607177734375 783.6956176757812L416.4552001953125 783.837890625L413.98162841796875 784.2300415039062C412.95159912109375 784.3911743164062 411.9400939941406 784.5122680664062 410.9473876953125 784.5950317382812L410.9780578613281 784.764892578125C410.73358154296875 784.8078002929688 410.4901123046875 784.8484497070312 410.2476806640625 784.8867797851562C408.22796630859375 785.3546752929688 406.0811462402344 785.6720581054688 403.80615234375 785.82080078125C403.1477355957031 785.8775024414062 402.4974670410156 785.9171752929688 401.8554382324219 785.9403686523438L399.9924011230469 786.0541381835938C399.752685546875 786.0682983398438 399.51416015625 786.0805053710938 399.27679443359375 786.0906372070312L396.3442077636719 786.314697265625L396.2546691894531 786.3213500976562L391.47540283203125 786.7536010742188C391.2984619140625 786.7694702148438 391.1221618652344 786.7842407226562 390.94647216796875 786.7978515625L388.0879211425781 787.0947265625C387.4236145019531 787.1923828125 386.7469787597656 787.275390625 386.0580139160156 787.3433227539062L382.4084777832031 787.6803588867188C381.5379638671875 787.790771484375 380.6469421386719 787.8754272460938 379.73541259765625 787.9330444335938L375.642333984375 788.1696166992188C375.00115966796875 788.228271484375 374.34942626953125 788.2730102539062 373.6871337890625 788.3033447265625L368.4713134765625 788.5098266601562C368.2273254394531 788.5298461914062 367.9818420410156 788.5479125976562 367.7348327636719 788.56396484375L361.3721923828125 788.9711303710938L354.8508605957031 789.552734375L350.9610595703125 789.9616088867188C350.6618957519531 790.00146484375 350.3603210449219 790.0385131835938 350.0562744140625 790.0725708007812L344.95989990234375 790.6279296875C344.24163818359375 790.7235107421875 343.5093078613281 790.8013916015625 342.7630310058594 790.86083984375C341.9106750488281 790.938720703125 341.0724182128906 790.9898681640625 340.2483215332031 791.01513671875L336.8059997558594 791.2110595703125C336.45770263671875 791.2470092773438 336.106201171875 791.2789916992188 335.7515563964844 791.3069458007812L330.8279113769531 791.67724609375C330.58172607421875 791.6963500976562 330.3367614746094 791.7133178710938 330.093017578125 791.7280883789062L324.77960205078125 792.212158203125C324.3605041503906 792.249755859375 323.94488525390625 792.2810668945312 323.5326843261719 792.30615234375L320.35772705078125 792.5819091796875C319.4419250488281 792.6900024414062 318.5038757324219 792.7681274414062 317.54364013671875 792.8150634765625C316.498291015625 792.8819580078125 315.47509765625 792.9092407226562 314.4742736816406 792.8987426757812L312.3717956542969 792.945556640625C312.2019348144531 792.9534912109375 312.0313720703125 792.96044921875 311.8601379394531 792.9664306640625L308.03387451171875 793.091552734375C307.81103515625 793.1063842773438 307.5869445800781 793.1195068359375 307.36163330078125 793.1310424804688L302.1221618652344 793.3738403320312L297.239990234375 793.7619018554688C297.00701904296875 793.7796630859375 296.775146484375 793.7955322265625 296.54437255859375 793.8094482421875L292.7414855957031 794.2008056640625C292.50408935546875 794.22412109375 292.2677917480469 794.2454223632812 292.0325927734375 794.2646484375L290.86236572265625 794.3870849609375C290.35296630859375 794.4569702148438 289.83642578125 794.5183715820312 289.312744140625 794.5711059570312L287.54010009765625 794.7401733398438C286.1100158691406 794.9520263671875 284.6238708496094 795.0868530273438 283.0817565917969 795.1384887695312C281.5880432128906 795.2269897460938 280.1395263671875 795.2325439453125 278.7368469238281 795.1608276367188H277.72589111328125C277.37591552734375 795.1651000976562 277.0231628417969 795.1651000976562 276.6675720214844 795.1608276367188L272.34686279296875 795.1132202148438C272.05633544921875 795.11376953125 271.763916015625 795.111328125 271.4696044921875 795.10595703125L271.1446228027344 795.0960083007812L270.6154479980469 795.0798950195312L268.220947265625 795.0067749023438C268.0382080078125 795.0044555664062 267.8547668457031 795.0009765625 267.6705627441406 794.9962768554688L263.8217468261719 794.9057006835938C263.4797668457031 794.9034423828125 263.13519287109375 794.8970947265625 262.78802490234375 794.8865356445312L258.4541015625 794.7356567382812L256.5252380371094 794.68017578125C256.0308837890625 794.6890258789062 255.53094482421875 794.6892700195312 255.02537536621094 794.6808471679688L251.25323486328125 794.5778198242188L247.71446228027344 794.6172485351562L246.44842529296875 794.71142578125C245.47047424316406 794.8201904296875 244.46768188476562 794.8931884765625 243.44015502929688 794.9285278320312C241.61175537109375 795.0321044921875 239.8521270751953 795.015869140625 238.1619873046875 794.8893432617188L236.2830352783203 794.8546142578125L235.78329467773438 794.8453979492188L230.9693603515625 794.7356567382812C230.8560333251953 794.73291015625 230.7429962158203 794.7297973632812 230.63026428222656 794.7261962890625L226.47085571289062 794.6259765625H221.80776977539062C221.7158660888672 794.6251220703125 221.62416076660156 794.6239624023438 221.5326385498047 794.6224975585938L219.39767456054688 794.6907958984375L217.36575317382812 794.9188842773438C216.28330993652344 795.0785522460938 215.16845703125 795.196533203125 214.02133178710938 795.270263671875C212.7346649169922 795.3707885742188 211.4806365966797 795.41015625 210.25958251953125 795.391845703125L209.8839111328125 795.4010620117188C209.76724243164062 795.4083251953125 209.6502227783203 795.4151000976562 209.5328826904297 795.4214477539062L206.00180053710938 795.6044311523438C205.6640167236328 795.6386108398438 205.32327270507812 795.6690673828125 204.97952270507812 795.6957397460938L199.4112548828125 796.1209106445312C199.10513305664062 796.144287109375 198.8009033203125 796.164306640625 198.49853515625 796.1810302734375L195.5415496826172 796.4822998046875C195.3331298828125 796.509521484375 195.12353515625 796.5353393554688 194.91275024414062 796.5597534179688L190.67483520507812 797.039794921875C190.326904296875 797.0800170898438 189.9812469482422 797.1157836914062 189.63787841796875 797.1471557617188L186.5145263671875 797.5086669921875C185.9214324951172 797.5900268554688 185.3187255859375 797.6593017578125 184.70640563964844 797.7158203125C183.49514770507812 797.8429565429688 182.31182861328125 797.9163818359375 181.15673828125 797.9387817382812L178.18406677246094 798.0989990234375L174.64437866210938 798.3869018554688L170.21212768554688 798.8090209960938C169.8887176513672 798.8403930664062 169.5673370361328 798.8679809570312 169.2480010986328 798.8917846679688L165.17874145507812 799.3439331054688C164.44500732421875 799.4205322265625 163.72157287597656 799.4775390625 163.0084686279297 799.515625L162.23394775390625 799.5772094726562C160.37930297851562 799.8470458984375 158.43048095703125 799.988525390625 156.387451171875 799.988525390625H116.46167755126953C116.27090454101562 799.9898681640625 116.07930755615234 799.9900512695312 115.88687896728516 799.9888916015625C115.2523422241211 800.0034790039062 114.60848999023438 800.0037841796875 113.95532989501953 799.989501953125C113.23485565185547 799.9898071289062 112.50269317626953 799.9713745117188 111.7590103149414 799.9336547851562L111.55992889404297 799.9229125976562C111.29911041259766 799.9273681640625 111.0371322631836 799.9285278320312 110.7740707397461 799.9263305664062C104.74286651611328 800.2550048828125 98.6220474243164 799.1190185546875 93.2096939086914 796.518310546875C75.2435073852539 800.7078857421875 53.91550064086914 791.4610595703125 51.920684814453125 766.9217529296875L51.86582565307617 766.4417114257812L51.85365295410156 766.2886962890625L51.79007339477539 765.8834228515625L51.47026443481445 764.11328125L50.9246940612793 761.8530883789062L50.462158203125 760.2167358398438C50.01007843017578 758.8895874023438 49.622222900390625 757.4976806640625 49.30434036254883 756.0401611328125C48.74723815917969 753.7969360351562 48.40128707885742 751.6246948242188 48.24726486206055 749.5289306640625C47.991294860839844 748.1680297851562 47.80380630493164 746.7527465820312 47.69013214111328 745.2830810546875C47.52386474609375 743.677490234375 47.45594787597656 742.120361328125 47.479515075683594 740.612548828125L47.4293212890625 739.3012084960938C47.39204406738281 738.685791015625 47.3685188293457 738.0611572265625 47.35916519165039 737.4273071289062C47.31991195678711 736.08349609375 47.34344482421875 734.778564453125 47.4260139465332 733.5126342773438L47.48561477661133 731.2427978515625C47.47694778442383 730.1820068359375 47.50996398925781 729.0960693359375 47.586761474609375 727.9850463867188L48.121646881103516 720.2634887695312C48.15411376953125 719.79150390625 48.19377899169922 719.3251342773438 48.240478515625 718.8642578125L48.917110443115234 710.8825073242188C48.97858810424805 710.1979370117188 49.0550537109375 709.5254516601562 49.14601516723633 708.8649291992188L49.881656646728516 701.9021606445312C49.901241302490234 701.6826782226562 49.9225959777832 701.4622192382812 49.94573211669922 701.2408447265625L50.601104736328125 694.7395629882812L51.31281280517578 686.3543090820312L51.3309440612793 686.1406860351562L51.355228424072266 685.8683471679688L52.202781677246094 676.3636474609375C52.2166633605957 676.1400756835938 52.23234558105469 675.91552734375 52.24984359741211 675.68994140625L53.19841766357422 663.615966796875L53.52533721923828 656.2421264648438Q53.53453826904297 656.0372314453125 53.545570373535156 655.8336181640625L53.90935516357422 645.53076171875V641.18310546875C53.90927505493164 641.164794921875 53.90930938720703 641.1465454101562 53.90935516357422 641.1282348632812V635.8342895507812L53.909385681152344 635.8250732421875C53.909507751464844 635.7915649414062 53.90962600708008 635.758056640625 53.90935516357422 635.7245483398438L53.96095657348633 628.9773559570312C53.9604606628418 628.7633666992188 53.96154022216797 628.5482788085938 53.96421432495117 628.3322143554688L54.052162170410156 620.8692626953125C54.05181884765625 620.57470703125 54.05448913574219 620.2782592773438 54.060218811035156 619.9797973632812L54.25566101074219 609.8045654296875C54.25206756591797 609.2354125976562 54.25996398925781 608.658935546875 54.279659271240234 608.0751953125L54.7048225402832 595.7592163085938C54.73108673095703 594.9877319335938 54.777042388916016 594.2303466796875 54.84199142456055 593.487060546875L55.40428161621094 582.7437133789062C55.441864013671875 582.0537719726562 55.494964599609375 581.37548828125 55.56308364868164 580.7088012695312L56.36433029174805 570.4139404296875C56.402015686035156 569.9197387695312 56.44755172729492 569.4317016601562 56.50075912475586 568.9498291015625L57.400203704833984 559.3082275390625C57.43495178222656 558.71533203125 57.48270797729492 558.1152954101562 57.54381561279297 557.5081787109375L59.052459716796875 542.7235107421875C59.09843444824219 542.2723388671875 59.150856018066406 541.826416015625 59.2095832824707 541.3858642578125L60.260948181152344 528.8561401367188C60.2902946472168 528.3051147460938 60.3308219909668 527.7479248046875 60.382808685302734 527.1844482421875L61.8629264831543 511.19915771484375L62.53605651855469 501.1946105957031C62.551124572753906 500.9795227050781 62.567691802978516 500.7655944824219 62.58573532104492 500.55279541015625L63.07094192504883 493.2125244140625C63.08802795410156 492.9596862792969 63.10718536376953 492.70843505859375 63.128387451171875 492.4587707519531L63.4961051940918 485.1755676269531C63.51141357421875 484.90118408203125 63.52918243408203 484.628662109375 63.54937744140625 484.3579406738281L64.1807861328125 470.7654113769531C64.18254089355469 470.4642639160156 64.18745422363281 470.1611328125 64.19556427001953 469.85595703125L64.49119567871094 460.267333984375C64.49528503417969 459.9997863769531 64.50187683105469 459.730712890625 64.5110092163086 459.46002197265625L64.81959533691406 450.1767883300781C64.82440185546875 449.9351806640625 64.83125305175781 449.6922912597656 64.84017181396484 449.4481201171875L65.2104721069336 438.997314453125C65.2139892578125 438.9001159667969 65.21782684326172 438.80316162109375 65.22196960449219 438.7064208984375L65.58077239990234 427.9156494140625C65.58658599853516 427.7447509765625 65.5933609008789 427.5745544433594 65.60108947753906 427.405029296875L66.06079864501953 411.1971130371094V384.24725341796875L66.06041717529297 384.13751220703125L66.00712585449219 368.8810729980469C66.00668334960938 368.8417663574219 66.00628662109375 368.80242919921875 66.00594329833984 368.7630615234375L65.91267395019531 353.2548522949219C65.91168975830078 353.20806884765625 65.91077423095703 353.1612243652344 65.9099349975586 353.11431884765625L65.58077239990234 337.6438293457031C65.57344818115234 337.2358093261719 65.57183074951172 336.8314514160156 65.57582092285156 336.4307556152344L65.30380249023438 328.4818420410156C65.28919219970703 328.2501525878906 65.27635955810547 328.01715087890625 65.26533508300781 327.7828063964844L64.56587219238281 313.0529479980469C64.56139373779297 312.9601745605469 64.55721282958984 312.8675537109375 64.55333709716797 312.7751159667969L63.64891052246094 299.8443298339844L62.481197357177734 287.48828125C62.45772933959961 287.2373962402344 62.4365348815918 286.98773193359375 62.4175910949707 286.7392883300781L61.33967971801758 276.4303283691406C61.32671356201172 276.33123779296875 61.31406021118164 276.2319030761719 61.30171203613281 276.1322937011719L59.763450622558594 263.5431823730469C59.75495910644531 263.4925842285156 59.746543884277344 263.4418640136719 59.73820877075195 263.39111328125L57.818115234375 251.76083374023438C57.767452239990234 251.45220947265625 57.72041320800781 251.14523315429688 57.676944732666016 250.83990478515625L55.884307861328125 240.83001708984375C55.87187576293945 240.76104736328125 55.85962677001953 240.69215393066406 55.847557067871094 240.62335205078125L53.580196380615234 228.71971130371094C53.463035583496094 228.09642028808594 53.360931396484375 227.4795379638672 53.273502349853516 226.86911010742188L51.5146598815918 216.91360473632812L49.7992057800293 209.6229248046875C49.71750259399414 209.33047485351562 49.63832473754883 209.03518676757812 49.56171417236328 208.73703002929688L47.95706558227539 202.3595733642578C47.923606872558594 202.22869873046875 47.89084243774414 202.0980682373047 47.85877990722656 201.96768188476562L46.37903594970703 196.44786071777344C46.22020721435547 195.9271697998047 46.06952667236328 195.39706420898438 45.92725372314453 194.8574981689453L44.158023834228516 188.0548858642578C43.98750686645508 187.40899658203125 43.83417510986328 186.76898193359375 43.69758605957031 186.13497924804688L42.553375244140625 181.3619842529297C42.48823165893555 181.09034729003906 42.426063537597656 180.81982421875 42.366844177246094 180.55039978027344C41.96476745605469 179.1824951171875 41.6314811706543 177.75048828125 41.373008728027344 176.25372314453125C40.960601806640625 174.17921447753906 40.72068786621094 172.172607421875 40.6385383605957 170.23724365234375L40.56060791015625 169.5158233642578C40.088016510009766 166.95098876953125 39.90255355834961 164.21041870117188 40.04890060424805 161.3007049560547C40.05402374267578 160.92562866210938 40.065547943115234 160.54795837402344 40.08358383178711 160.1678009033203C39.99013137817383 156.0778045654297 40.741249084472656 151.84429931640625 42.5179557800293 147.61575317382812C44.079254150390625 142.7945098876953 46.84430694580078 138.2976837158203 50.966209411621094 134.5741424560547C53.03029251098633 132.55551147460938 55.30173110961914 130.9111328125 57.712215423583984 129.6192626953125C57.84186553955078 129.54495239257812 57.972023010253906 129.4715576171875 58.10258102416992 129.3990936279297C59.862648010253906 128.33152770996094 61.661258697509766 127.47077178955078 63.48105239868164 126.80257415771484C70.46821594238281 123.85934448242188 77.5928955078125 123.7801513671875 84.074462890625 125.73226928710938C86.08344268798828 126.29383850097656 88.0099868774414 127.05912780761719 89.83858489990234 128.00033569335938C97.93546295166016 131.53187561035156 104.61516571044922 138.22479248046875 107.34042358398438 148.07904052734375C109.56364440917969 154.33128356933594 109.93695068359375 161.22230529785156 107.72457885742188 167.9672088623047L108.44303131103516 170.93589782714844Q108.46912384033203 171.03305053710938 108.4948501586914 171.13063049316406L110.26408386230469 177.93325805664062C110.32537078857422 178.1656951904297 110.38443756103516 178.39736938476562 110.44129943847656 178.62828063964844L111.96126556396484 184.2581787109375C112.11709594726562 184.78280639648438 112.26464080810547 185.31689453125 112.40361785888672 185.86048889160156L113.61186218261719 190.70379638671875C113.8138198852539 191.39537048339844 114.00101470947266 192.103271484375 114.17284393310547 192.8276824951172L116.53181457519531 202.839599609375C116.87525177001953 204.28749084472656 117.13423919677734 205.7040252685547 117.31366729736328 207.08807373046875L119.05536651611328 216.8837127685547C119.1138916015625 217.219970703125 119.16808319091797 217.55433654785156 119.2179946899414 217.8867645263672L121.05636596679688 227.52755737304688C121.165283203125 228.0269775390625 121.26638793945312 228.53407287597656 121.3594741821289 229.0488739013672L123.10964965820312 238.93496704101562C123.2540512084961 239.60760498046875 123.38401794433594 240.2941131591797 123.49900817871094 240.99459838867188L125.09280395507812 250.84817504882812C125.28954315185547 251.836181640625 125.4537582397461 252.853515625 125.58367919921875 253.90036010742188L127.07899475097656 266.1858825683594C127.20987701416016 266.9825439453125 127.31976318359375 267.79730224609375 127.40776824951172 268.6302185058594L128.6969757080078 280.9599609375C128.77516174316406 281.7081298828125 128.83297729492188 282.44561767578125 128.87106323242188 283.1723327636719L129.87646484375 293.81085205078125C129.93701171875 294.46044921875 129.98233032226562 295.101806640625 130.01283264160156 295.73492431640625L130.84463500976562 307.67242431640625C130.9140167236328 308.3786315917969 130.9663543701172 309.0977783203125 131.00108337402344 309.8299255371094L131.63438415527344 323.2160339355469C131.6834259033203 323.83709716796875 131.71932983398438 324.4678649902344 131.74169921875 325.1083679199219L132.01327514648438 334.036865234375C132.07290649414062 334.83026123046875 132.1106719970703 335.6394348144531 132.12571716308594 336.46435546875L132.38629150390625 351.94854736328125C132.39234924316406 352.2798156738281 132.39462280273438 352.6086730957031 132.39320373535156 352.93511962890625L132.55087280273438 368.2281799316406Q132.55311584472656 368.5430908203125 132.55087280273438 368.85504150390625V410.6120300292969C132.5733642578125 411.400634765625 132.57363891601562 412.2037048339844 132.55087280273438 413.0212097167969L132.09329223632812 429.1540222167969C132.08975219726562 429.488525390625 132.08229064941406 429.8254699707031 132.0708465576172 430.1648864746094L131.71728515625 440.85052490234375C131.71292114257812 441.0366516113281 131.70733642578125 441.2235412597656 131.70054626464844 441.4111633300781L131.3165283203125 451.8619384765625C131.311767578125 451.993408203125 131.3064422607422 452.1244812011719 131.300537109375 452.255126953125L131.00108337402344 461.6681213378906C130.99574279785156 461.8247375488281 130.98960876464844 461.9808044433594 130.98265075683594 462.1362609863281L130.72679138183594 471.6800537109375C130.70462036132812 472.47576904296875 130.66140747070312 473.256591796875 130.597900390625 474.0226135253906L129.98617553710938 488.50830078125C129.9532928466797 489.2210693359375 129.9037322998047 489.9216003417969 129.83807373046875 490.6098937988281L129.49244689941406 497.2309875488281C129.45436096191406 497.9175720214844 129.40089416503906 498.5926208496094 129.33253479003906 499.2561950683594L128.9615020751953 504.8598327636719C128.9458465576172 505.190185546875 128.92625427246094 505.5227966308594 128.90269470214844 505.8576965332031L128.2215118408203 515.4194946289062C128.19308471679688 515.9223022460938 128.15536499023438 516.4302368164062 128.10813903808594 516.943359375L128.10723876953125 516.9530639648438L128.0568084716797 517.4971923828125L126.74909973144531 531.6085205078125C126.72526550292969 532.0768432617188 126.69343566894531 532.5496826171875 126.65345001220703 533.0270385742188L125.3230972290039 548.8814697265625C125.28106689453125 549.3759155273438 125.23120880126953 549.8640747070312 125.17372131347656 550.3460693359375L123.75959014892578 564.2559814453125C123.71991729736328 564.6448974609375 123.67544555664062 565.0298461914062 123.62626647949219 565.4108276367188L122.68997955322266 575.4473266601562L122.68904113769531 575.4574584960938L121.83173370361328 586.4725341796875L121.19490051269531 598.7078857421875C121.17986297607422 598.98388671875 121.16233825683594 599.2579345703125 121.14236450195312 599.5302124023438L120.83043670654297 608.5659790039062C120.83474731445312 608.9880981445312 120.83283996582031 609.4142456054688 120.82459259033203 609.8444213867188L120.59504699707031 619.3934326171875C120.60822296142578 619.9207153320312 120.61167907714844 620.4544677734375 120.60515594482422 620.9946899414062L120.49543762207031 629.127685546875C120.49453735351562 629.2022705078125 120.49345397949219 629.2767944335938 120.49217987060547 629.3511352539062L120.44140625 636.0399780273438L120.4405746459961 646.8199462890625C120.43914794921875 647.9738159179688 120.39276885986328 649.0977172851562 120.30377197265625 650.1915893554688L119.9971694946289 658.0345458984375C119.99016571044922 658.4168090820312 119.97798919677734 658.80224609375 119.9605484008789 659.1908569335938L119.65991973876953 665.9717407226562C119.64753723144531 666.8536376953125 119.60641479492188 667.7523803710938 119.53538513183594 668.6678466796875L118.6839599609375 679.3527221679688C118.65694427490234 679.9619140625 118.61629486083984 680.5787353515625 118.56163024902344 681.2033081054688L117.60157775878906 691.9284057617188C117.58518981933594 692.1160888671875 117.56767272949219 692.3027954101562 117.54904174804688 692.4886474609375L116.96273040771484 699.3539428710938C116.92586517333984 699.992919921875 116.8738021850586 700.6401977539062 116.80611419677734 701.2957153320312L116.10665130615234 708.0983276367188C116.07891845703125 708.3637084960938 116.04895782470703 708.627197265625 116.01679229736328 708.8888549804688L115.2408676147461 716.1891479492188C115.2248306274414 716.4034423828125 115.2071304321289 716.61865234375 115.18775177001953 716.8347778320312L114.48177337646484 725.1104125976562L114.00433349609375 732.0411987304688C116.07289123535156 732.3037109375 118.11900329589844 732.7672119140625 120.11196899414062 733.4442749023438C120.16657257080078 733.4439086914062 120.22125244140625 733.4436645507812 120.27599334716797 733.4435424804688H154.97329711914062L156.91555786132812 733.2879638671875C155.41531372070312 729.7562255859375 154.44140625 725.7196655273438 154.13819885253906 721.168701171875V720.9552001953125C154.10736083984375 720.615234375 154.08038330078125 720.2723388671875 154.05735778808594 719.9263916015625L154.0284881591797 719.6737670898438C154.00294494628906 719.2596435546875 153.9834747314453 718.8490600585938 153.9699249267578 718.4419555664062L153.93247985839844 717.7947998046875C153.9080810546875 717.34765625 153.89071655273438 716.9046630859375 153.88023376464844 716.4658203125L153.82276916503906 715.2301025390625C153.80514526367188 714.8651733398438 153.79217529296875 714.5030517578125 153.78378295898438 714.1436767578125L153.65818786621094 711.527099609375C153.63906860351562 711.0620727539062 153.62744140625 710.6016235351562 153.6231689453125 710.145751953125L153.5484619140625 707.9886474609375C153.53512573242188 707.544677734375 153.5286102294922 707.10498046875 153.5287628173828 706.6695556640625L153.46432495117188 703.7456665039062C153.4457244873047 703.2527465820312 153.43568420410156 702.754150390625 153.43441772460938 702.2499389648438C153.4285125732422 701.6015014648438 153.4370574951172 700.96240234375 153.45962524414062 700.3326416015625L153.52313232421875 696.7366333007812C153.51527404785156 695.8771362304688 153.53456115722656 695.0010375976562 153.5820770263672 694.1084594726562C153.60707092285156 693.5126342773438 153.64418029785156 692.92529296875 153.6930694580078 692.3463745117188L154.03665161132812 687.0159912109375L154.0745086669922 682.6138916015625C154.0709686279297 682.1844482421875 154.07386779785156 681.7508544921875 154.08334350585938 681.3130493164062L154.26731872558594 673.6781616210938C154.26165771484375 672.9835815429688 154.27328491210938 672.278076171875 154.3027801513672 671.5617065429688L154.673095703125 662.2904052734375C154.702392578125 661.5791015625 154.7483367919922 660.8798828125 154.8104248046875 660.1928100585938L155.37255859375 651.3184814453125C155.45587158203125 650.04443359375 155.59178161621094 648.810546875 155.7771453857422 647.6167602539062L156.2106475830078 643.3585815429688C156.27430725097656 642.452880859375 156.36940002441406 641.5311279296875 156.49717712402344 640.5933837890625L157.61148071289062 632.5989379882812C157.64590454101562 632.3348388671875 157.68299865722656 632.0695190429688 157.7227783203125 631.80322265625C157.77276611328125 631.45703125 157.8264923095703 631.1141357421875 157.8839111328125 630.7745361328125L159.3910369873047 621.2553100585938L160.4986114501953 614.220947265625C160.58099365234375 613.60986328125 160.677978515625 612.9921875 160.7899627685547 612.3679809570312L162.60032653808594 602.1366577148438C162.687744140625 601.6531982421875 162.78224182128906 601.1765747070312 162.8836212158203 600.7067260742188L164.45840454101562 592.361328125C164.61618041992188 591.3131103515625 164.81903076171875 590.24658203125 165.0690155029297 589.1622924804688L167.70228576660156 577.916015625C167.7257843017578 577.8135375976562 167.74960327148438 577.71142578125 167.77371215820312 577.609619140625L170.21212768554688 566.3955078125C170.2376251220703 566.281005859375 170.2635040283203 566.1669311523438 170.28977966308594 566.0532836914062L172.09107971191406 557.6727905273438C172.16635131835938 557.3228759765625 172.24525451660156 556.9766845703125 172.32772827148438 556.6342163085938L174.5597686767578 545.9328002929688C174.64105224609375 545.5471801757812 174.72677612304688 545.1660766601562 174.81680297851562 544.7894897460938L176.85015869140625 534.2064819335938C176.9376220703125 533.7598876953125 177.0310516357422 533.3192749023438 177.1302947998047 532.884521484375L178.86033630371094 523.1806640625L180.018310546875 515.2935791015625L180.03436279296875 515.1859130859375L181.1405487060547 505.7945251464844L181.7379150390625 495.86199951171875L181.78512573242188 485.855224609375L181.4920654296875 479.4393310546875C181.47958374023438 479.24481201171875 181.46835327148438 479.0493469238281 181.45838928222656 478.85296630859375L180.82749938964844 467.0169677734375C180.80906677246094 466.6564636230469 180.79518127441406 466.29864501953125 180.78579711914062 465.9435729980469L180.23776245117188 454.00146484375C180.19451904296875 453.06378173828125 180.18194580078125 452.1446228027344 180.19876098632812 451.24395751953125L179.98641967773438 441.158203125C179.9776153564453 440.9736022949219 179.969970703125 440.7882080078125 179.9634552001953 440.6019592285156L179.6876678466797 432.4603271484375C179.67269897460938 432.2313537597656 179.65948486328125 432.0010986328125 179.64801025390625 431.76953125L179.0643310546875 419.78350830078125L178.33131408691406 409.49652099609375L177.59576416015625 401.4289245605469C177.55892944335938 401.1171569824219 177.52523803710938 400.802734375 177.49476623535156 400.4857482910156L176.58958435058594 391.1595764160156C176.5757598876953 391.01739501953125 176.5626678466797 390.8755798339844 176.55029296875 390.7341613769531L175.46495056152344 380.92822265625C175.45692443847656 380.8548583984375 175.4490966796875 380.7816467285156 175.4414520263672 380.70849609375L174.04310607910156 371.1214904785156L172.35165405273438 360.6712341308594C172.26116943359375 360.1191101074219 172.18226623535156 359.572265625 172.1147003173828 359.0307312011719L171.31484985351562 353.69232177734375C171.20645141601562 353.1207275390625 171.10848999023438 352.53948974609375 171.02130126953125 351.94854736328125L169.36180114746094 340.5788269042969L169.35086059570312 340.50372314453125L167.81163024902344 331.5699768066406C167.6705322265625 330.9283752441406 167.54249572753906 330.2740173339844 167.42799377441406 329.60687255859375L165.92787170410156 320.65264892578125C165.85256958007812 320.29931640625 165.7811279296875 319.94219970703125 165.713623046875 319.58123779296875L163.72496032714844 308.869873046875C163.70712280273438 308.77423095703125 163.68963623046875 308.67877197265625 163.67251586914062 308.58343505859375L161.384765625 296.919677734375C161.3257293701172 296.6356201171875 161.2691650390625 296.3490905761719 161.21511840820312 296.06011962890625L158.80128479003906 283.0994873046875C158.66880798339844 282.38543701171875 158.5560302734375 281.6798095703125 158.46238708496094 280.98272705078125L156.49717712402344 269.6588439941406C156.3863067626953 269.00787353515625 156.29159545898438 268.3641052246094 156.21266174316406 267.7276306152344L154.9473876953125 259.2080383300781C154.822021484375 258.3529357910156 154.72409057617188 257.5108337402344 154.65261840820312 256.6818542480469L153.3428955078125 246.40968322753906C153.2850341796875 246.00108337402344 153.23265075683594 245.5878448486328 153.18588256835938 245.1699981689453C153.12718200683594 244.68209838867188 153.0773162841797 244.19851684570312 153.0361328125 243.71937561035156L151.77923583984375 231.3941192626953C151.68310546875 230.41522216796875 151.62168884277344 229.45481872558594 151.59353637695312 228.51304626464844L150.9353790283203 218.8502960205078C150.862548828125 218.1703643798828 150.80535888671875 217.478271484375 150.7643280029297 216.77398681640625L150.2843017578125 208.1472930908203C150.273193359375 207.9563446044922 150.2633514404297 207.7661590576172 150.25479125976562 207.57672119140625L149.6208953857422 199.27163696289062C149.60845947265625 199.1583709716797 149.59645080566406 199.04478454589844 149.5848388671875 198.93084716796875L149.16036987304688 194.5555419921875C149.12059020996094 194.2518310546875 149.08377075195312 193.9456024169922 149.04995727539062 193.63687133789062L148.60227966308594 189.59622192382812C148.59127807617188 189.5123748779297 148.5804901123047 189.42832946777344 148.56993103027344 189.34408569335938L148.02261352539062 184.96556091308594L147.4408416748047 180.904541015625L146.47618103027344 175.24993896484375C146.4607696533203 175.17990112304688 146.4455108642578 175.10972595214844 146.43040466308594 175.03939819335938L145.27825927734375 169.48699951171875C145.20059204101562 169.1370086669922 145.12677001953125 168.78323364257812 145.056884765625 168.42564392089844C144.95297241210938 167.91993713378906 144.85922241210938 167.41827392578125 144.77540588378906 166.92071533203125L144.05313110351562 163.0653076171875L143.9078826904297 162.28993225097656L143.9068603515625 162.2845001220703C143.8881378173828 162.17916870117188 143.8698272705078 162.0740203857422 143.85194396972656 161.96905517578125C143.8206024169922 161.78509521484375 143.7905731201172 161.6017303466797 143.7618408203125 161.41891479492188L143.62673950195312 160.5944366455078C143.46270751953125 159.76358032226562 143.3234100341797 158.91212463378906 143.2100372314453 158.0399932861328C143.07467651367188 157.1561279296875 142.96920776367188 156.2858123779297 142.892578125 155.4292755126953C142.60891723632812 153.40701293945312 142.49737548828125 151.27981567382812 142.577880859375 149.05020141601562C142.57688903808594 148.88665771484375 142.57687377929688 148.72369384765625 142.5778350830078 148.5613250732422C142.57249450683594 147.48472595214844 142.62026977539062 146.38702392578125 142.72415161132812 145.2691650390625C142.80357360839844 144.08641052246094 142.951904296875 142.8860626220703 143.17324829101562 141.67025756835938C143.33302307128906 140.65719604492188 143.5459442138672 139.63687133789062 143.8145751953125 138.61105346679688C144.22239685058594 136.90402221679688 144.7882843017578 135.19094848632812 145.5243682861328 133.48231506347656C146.38726806640625 131.31300354003906 147.4333953857422 129.33038330078125 148.63345336914062 127.5308837890625Z" fill="black"/>
</svg>
