<svg xmlns="http://www.w3.org/2000/svg" viewBox="0 0 692 1000">
  <path d="M132.53541564941406 111.80123138427734C134.36151123046875 111.4322509765625 136.2866973876953 111.19847106933594 138.31053161621094 111.11489868164062C140.45925903320312 110.95047760009766 142.51637268066406 110.96524047851562 144.4794921875 111.1417007446289C144.9261932373047 111.15693664550781 145.3771209716797 111.18022155761719 145.8321533203125 111.21172332763672C147.71563720703125 111.28995513916016 149.51263427734375 111.48956298828125 151.22335815429688 111.79962921142578C152.31423950195312 111.95018768310547 153.42501831054688 112.1518325805664 154.5549774169922 112.40707397460938C155.81234741210938 112.6597671508789 157.02127075195312 112.96430969238281 158.18226623535156 113.31704711914062L158.93157958984375 113.50849914550781C160.462158203125 113.90826416015625 161.91549682617188 114.37688446044922 163.2931671142578 114.9083023071289C163.8190155029297 115.08412170410156 164.34783935546875 115.27310943603516 164.87945556640625 115.47552490234375C165.59225463867188 115.73713684082031 166.28575134277344 116.01322174072266 166.96014404296875 116.30308532714844C167.0374298095703 116.33413696289062 167.11474609375 116.36548614501953 167.19212341308594 116.39714050292969C169.39842224121094 115.70375061035156 171.6464080810547 115.28675842285156 173.89964294433594 115.12246704101562C178.86224365234375 114.38905334472656 183.5530548095703 114.89598083496094 187.8164520263672 116.3460693359375C202.6019744873047 119.965087890625 210.43760681152344 132.44895935058594 211.32330322265625 145.4638214111328C211.3377227783203 145.48435974121094 211.3521270751953 145.5049285888672 211.36647033691406 145.52548217773438C212.5682373046875 147.02603149414062 213.63365173339844 148.6527557373047 214.53665161132812 150.40037536621094C215.9239501953125 152.4727020263672 217.03530883789062 154.56295776367188 217.89328002929688 156.65289306640625C218.1246337890625 157.09974670410156 218.34988403320312 157.55616760253906 218.56878662109375 158.022216796875C219.32244873046875 159.52236938476562 219.9568328857422 161.01065063476562 220.47891235351562 162.4832000732422L220.93043518066406 163.3582000732422C221.03421020507812 163.54388427734375 221.13710021972656 163.73126220703125 221.2390899658203 163.92031860351562L223.5427703857422 168.2447967529297C223.82073974609375 168.76136779785156 224.08453369140625 169.27658081054688 224.3344268798828 169.7903289794922L224.97079467773438 171.03347778320312C225.35861206054688 171.7868194580078 225.71688842773438 172.53683471679688 226.0465087890625 173.28305053710938C226.09230041503906 173.37257385253906 226.1378936767578 173.46246337890625 226.1832733154297 173.55271911621094L227.11749267578125 175.42941284179688C227.4678192138672 176.091796875 227.8052978515625 176.7752227783203 228.1292266845703 177.47994995117188C228.48419189453125 178.2296142578125 228.81040954589844 178.97549438476562 229.1086883544922 179.71722412109375L230.14187622070312 182.1049346923828C230.4272918701172 182.7135772705078 230.7021026611328 183.33853149414062 230.96578979492188 183.97996520996094L232.4524688720703 187.61976623535156C232.6640625 188.0987091064453 232.86912536621094 188.58737182617188 233.06741333007812 189.0858154296875L235.07472229003906 194.23207092285156C235.22911071777344 194.6201934814453 235.37644958496094 195.00680541992188 235.51681518554688 195.39186096191406L237.75563049316406 201.18356323242188C237.82138061523438 201.3579864501953 237.88571166992188 201.53207397460938 237.94866943359375 201.70584106445312L240.12667846679688 207.34022521972656C240.29046630859375 207.76315307617188 240.44593811035156 208.18423461914062 240.59324645996094 208.60342407226562L241.45028686523438 210.89096069335938C241.6103057861328 211.2643280029297 241.7664031982422 211.64346313476562 241.91844177246094 212.0284423828125L244.1605987548828 217.77757263183594L246.37107849121094 222.6644287109375C246.55682373046875 223.04196166992188 246.73867797851562 223.42591857910156 246.91650390625 223.81634521484375L249.5765380859375 229.67068481445312L252.0415496826172 234.37393188476562C252.19418334960938 234.6412811279297 252.344970703125 234.91217041015625 252.49388122558594 235.18663024902344L254.35977172851562 238.69833374023438C254.6940155029297 239.2626495361328 255.01971435546875 239.8433380126953 255.33644104003906 240.44065856933594L257.52740478515625 244.62342834472656L257.54583740234375 244.65736389160156L258.7219543457031 246.85406494140625C258.78375244140625 246.9610137939453 258.84527587890625 247.0685272216797 258.906494140625 247.17660522460938L260.21148681640625 249.453369140625L264.13067626953125 255.3480224609375L267.4230651855469 259.8594055175781C267.62139892578125 260.1181945800781 267.8182373046875 260.3812255859375 268.01348876953125 260.64849853515625L274.49346923828125 269.4860534667969C274.6922302246094 269.7586669921875 274.88629150390625 270.0314636230469 275.0757141113281 270.3044128417969L281.12164306640625 278.7008361816406C281.3254699707031 278.984375 281.52423095703125 279.2680969238281 281.718017578125 279.55194091796875L285.0644836425781 284.2740783691406C285.4031066894531 284.72088623046875 285.7369689941406 285.18023681640625 286.0658264160156 285.65234375L292.1686096191406 294.4360046386719C292.5313720703125 294.95849609375 292.87738037109375 295.4812927246094 293.2070007324219 296.00421142578125L297.13421630859375 301.71240234375C297.4828186035156 302.18310546875 297.8260498046875 302.6675109863281 298.16357421875 303.1658020019531L303.7005310058594 311.3836364746094C303.942626953125 311.7415771484375 304.177001953125 312.0995178222656 304.40374755859375 312.4574890136719L308.75250244140625 319.11651611328125C309.1094665527344 319.6660461425781 309.44866943359375 320.21539306640625 309.7704772949219 320.7642822265625L312.0139465332031 324.2226257324219L316.3236999511719 330.4867858886719C316.51806640625 330.7711181640625 316.7075500488281 331.05548095703125 316.89215087890625 331.33990478515625L319.9935302734375 335.780517578125C320.50323486328125 336.46978759765625 321.0005798339844 337.1887512207031 321.4844970703125 337.93804931640625C321.7271423339844 338.30450439453125 321.9616394042969 338.6711120605469 322.18804931640625 339.0377197265625L326.0099792480469 345.0094909667969C326.0663146972656 345.098388671875 326.1221618652344 345.187255859375 326.1775817871094 345.276123046875L328.8404846191406 349.3763122558594L332.1071472167969 353.9496765136719C332.3403015136719 354.2597351074219 332.57122802734375 354.5757751464844 332.7998352050781 354.8978576660156L336.7799072265625 360.5152893066406L339.7171325683594 364.4486389160156L343.68511962890625 369.58221435546875C343.91900634765625 369.88604736328125 344.1468200683594 370.1902770996094 344.36865234375 370.494873046875L346.7868347167969 373.61834716796875C347.3072509765625 374.2439270019531 347.818359375 374.8966979980469 348.3194274902344 375.57720947265625L352.158935546875 380.79083251953125C352.3611755371094 381.06561279296875 352.5586242675781 381.34063720703125 352.75128173828125 381.6158142089844L354.6698303222656 384.22503662109375C354.7627258300781 384.34130859375 354.85528564453125 384.45843505859375 354.9476013183594 384.5764465332031L357.6419982910156 387.998291015625C358.2480163574219 388.7731628417969 358.8141174316406 389.55108642578125 359.3414611816406 390.3310852050781L360.7234191894531 392.2304992675781C360.7471008300781 392.2611999511719 360.770751953125 392.2919616699219 360.7944030761719 392.3227844238281L363.86724853515625 396.3673400878906L365.9002685546875 398.8970642089844C366.3775634765625 399.4934997558594 366.8307800292969 400.092041015625 367.26043701171875 400.6922302246094L368.36053466796875 402.1525573730469C368.7029113769531 402.56451416015625 369.0414733886719 402.9881591796875 369.3760070800781 403.4236145019531L371.6056823730469 406.39300537109375C371.6844482421875 406.48931884765625 371.76300048828125 406.5862731933594 371.84136962890625 406.6838073730469L373.825439453125 409.1567077636719L375.1197814941406 410.6128234863281L375.31573486328125 410.8009033203125C376.15313720703125 411.5298767089844 376.98046875 412.31243896484375 377.7959289550781 413.15032958984375L379.939208984375 415.37603759765625L380.7702941894531 414.32208251953125L383.04998779296875 411.156494140625C383.17071533203125 410.9895324707031 383.2920227050781 410.82421875 383.4139709472656 410.6605224609375L386.0784606933594 406.9463806152344C386.5151062011719 406.2962341308594 386.97833251953125 405.6471862792969 387.46875 404.99981689453125L391.6854553222656 399.4763488769531L394.89178466796875 395.20574951171875C395.0315856933594 395.0208435058594 395.172119140625 394.8380126953125 395.3133850097656 394.65728759765625L399.4183349609375 389.0491027832031C399.5294494628906 388.8978576660156 399.6410827636719 388.74798583984375 399.7532043457031 388.5994873046875L404.0285949707031 382.6163024902344L408.8351745605469 375.68499755859375C409.3120422363281 375.00067138671875 409.7994384765625 374.3431396484375 410.296630859375 373.7119140625L412.3602294921875 370.9187927246094C412.7130126953125 370.400634765625 413.0826416015625 369.8831481933594 413.4695129394531 369.3666687011719L419.2624206542969 361.68768310546875C419.3905334472656 361.516357421875 419.5193176269531 361.3468322753906 419.648681640625 361.1790771484375L424.8936767578125 354.0625915527344C424.9535217285156 353.981689453125 425.0135192871094 353.90118408203125 425.0736389160156 353.8210754394531L430.147705078125 346.74737548828125C430.5314636230469 346.218505859375 430.92138671875 345.7062072753906 431.31707763671875 345.2101745605469L433.2161865234375 342.6485595703125C433.8402404785156 341.7294616699219 434.51873779296875 340.81396484375 435.2535705566406 339.9036560058594L441.2081298828125 332.5884094238281L447.0953674316406 325.2731628417969C447.2171936035156 325.122802734375 447.3394470214844 324.9739074707031 447.4621887207031 324.82647705078125L452.47064208984375 318.429443359375C452.5049133300781 318.3856201171875 452.5392150878906 318.3419494628906 452.57354736328125 318.2983703613281L455.8755798339844 313.9722900390625L459.9095764160156 307.765380859375C460.188232421875 307.30560302734375 460.479248046875 306.8456115722656 460.7828063964844 306.3855895996094L465.55950927734375 299.1934509277344C466.25592041015625 298.0447998046875 467.033203125 296.8984069824219 467.8949890136719 295.757080078125C468.18267822265625 295.364501953125 468.4742431640625 294.9813537597656 468.7695007324219 294.6075744628906L473.9852600097656 287.7539367675781C474.3617248535156 287.25775146484375 474.74346923828125 286.7767639160156 475.1301574707031 286.31072998046875L479.36181640625 280.9545593261719C479.5802307128906 280.66094970703125 479.8043212890625 280.3677673339844 480.03411865234375 280.0749816894531L484.020751953125 275.0237121582031C484.3493957519531 274.5823059082031 484.69097900390625 274.1419372558594 485.0456848144531 273.7027587890625L490.1619567871094 267.3946838378906C490.50860595703125 266.9497375488281 490.8687744140625 266.5061950683594 491.24273681640625 266.064208984375L496.0920104980469 260.3152160644531C496.4133605957031 259.9175109863281 496.7458190917969 259.5211181640625 497.08953857421875 259.1261901855469L500.8751525878906 254.76129150390625C501.0845947265625 254.52053833007812 501.295166015625 254.28384399414062 501.5068054199219 254.0511932373047L505.17279052734375 249.6602020263672L505.4017028808594 249.38600158691406L505.5567321777344 249.20294189453125L509.7261962890625 244.2801513671875C509.755859375 244.24497985839844 509.7855529785156 244.2099151611328 509.8152770996094 244.17491149902344L513.1189575195312 239.9923095703125L514.8822631835938 237.63323974609375C515.0375366210938 237.4103546142578 515.1959228515625 237.1875762939453 515.357421875 236.9649200439453L518.2567138671875 232.99346923828125L521.460205078125 228.23512268066406C521.8043212890625 227.7250213623047 522.1544189453125 227.2294158935547 522.5101318359375 226.74807739257812L524.1441040039062 224.34654235839844L524.3849487304688 223.9925537109375L524.5048217773438 223.81634521484375C524.9760131835938 223.12710571289062 525.4580078125 222.46461486816406 525.9500732421875 221.82838439941406L526.7556762695312 220.7323760986328C527.0780029296875 220.27572631835938 527.4139404296875 219.82005310058594 527.7637329101562 219.3656005859375C528.2998657226562 218.6534423828125 528.84716796875 217.9724884033203 529.40478515625 217.32212829589844L531.1665649414062 215.15322875976562L531.1868896484375 215.12698364257812L533.9324951171875 211.61024475097656C534.1050415039062 211.38116455078125 534.2810668945312 211.15231323242188 534.4605712890625 210.9237518310547L537.069580078125 207.609619140625L537.2298583984375 207.37982177734375C537.6118774414062 206.7997283935547 538.0155029296875 206.2211456298828 538.4412841796875 205.6444549560547C539.3236083984375 204.41299438476562 540.2396240234375 203.27037048339844 541.1848754882812 202.21343994140625L542.0455932617188 201.1629180908203L543.3536987304688 199.457763671875C543.55908203125 199.17501831054688 543.76953125 198.89256286621094 543.9852294921875 198.61044311523438L545.82373046875 196.24501037597656C546.0106201171875 195.995849609375 546.2015991210938 195.74697875976562 546.3966674804688 195.49842834472656L546.9766845703125 194.76023864746094C547.378662109375 194.21424865722656 547.8004150390625 193.6698455810547 548.2423095703125 193.12738037109375L549.616455078125 191.44338989257812C549.9013061523438 191.09423828125 550.1886596679688 190.7531280517578 550.4783325195312 190.4199676513672L550.9771118164062 189.81329345703125C551.1439208984375 189.61593627929688 551.3115234375 189.4212188720703 551.4798583984375 189.22915649414062C552.0315551757812 187.9417724609375 552.6707153320312 186.6447296142578 553.4020385742188 185.3406219482422L553.49560546875 185.17965698242188C553.7546997070312 184.6971435546875 554.0208129882812 184.22601318359375 554.2937622070312 183.76617431640625C554.5335693359375 183.34739685058594 554.7838745117188 182.92831420898438 555.044677734375 182.50927734375C555.14501953125 182.34002685546875 555.2461547851562 182.1722412109375 555.3479614257812 182.00592041015625C555.8714599609375 178.30853271484375 557.0895385742188 174.79403686523438 558.8495483398438 171.5735321044922C560.2376098632812 168.9489288330078 562.0018920898438 166.562255859375 564.0515747070312 164.44894409179688C566.344970703125 162.0227508544922 568.98291015625 159.91067504882812 571.8521118164062 158.19517517089844C572.6073608398438 157.03756713867188 573.430419921875 155.95350646972656 574.3129272460938 154.9425811767578C575.36474609375 153.34239196777344 576.500732421875 151.8914031982422 577.7072143554688 150.5835723876953C578.8623046875 149.2743377685547 580.0709228515625 148.09825134277344 581.3230590820312 147.04945373535156C582.9575805664062 145.62013244628906 584.6478881835938 144.40577697753906 586.3765869140625 143.39263916015625C613.000244140625 126.97967529296875 645.4281005859375 157.5786590576172 633.10546875 184.61288452148438L634.59716796875 188.87025451660156C634.7288208007812 189.25 634.85400390625 189.6280517578125 634.9727783203125 190.00440979003906L636.9467163085938 195.51614379882812C637.3017578125 196.41566467285156 637.6309204101562 197.34779357910156 637.9325561523438 198.31298828125C638.2359619140625 199.23680114746094 638.500732421875 200.15054321289062 638.728271484375 201.05374145507812L640.7340087890625 208.07870483398438C640.8229370117188 208.37704467773438 640.9091796875 208.6785125732422 640.9926147460938 208.9831085205078C641.1494140625 209.5361328125 641.2931518554688 210.08505249023438 641.4240112304688 210.62969970703125L643.3907470703125 218.2017364501953C643.6163940429688 218.9488067626953 643.8244018554688 219.715576171875 644.0139770507812 220.50225830078125L645.5078735351562 226.83660888671875C645.62060546875 227.27980041503906 645.7268676757812 227.72950744628906 645.8265380859375 228.1857147216797C646.0895385742188 229.3120880126953 646.3001708984375 230.41915893554688 646.4607543945312 231.50636291503906L647.9796142578125 239.7626953125C648.0799560546875 240.25636291503906 648.1719360351562 240.75755310058594 648.2554931640625 241.2662353515625C648.4745483398438 242.50271606445312 648.633544921875 243.71315002441406 648.7355346679688 244.8969268798828L649.8441162109375 253.94741821289062C649.9019165039062 254.36534118652344 649.9537963867188 254.7881622314453 649.9994506835938 255.2158966064453C650.115966796875 256.1929931640625 650.1965942382812 257.1520690917969 650.2427368164062 258.0928649902344L651.077392578125 268.65472412109375L651.1145629882812 269.12481689453125L651.1271362304688 269.28399658203125C651.177734375 269.9465026855469 651.2123413085938 270.6000671386719 651.2315063476562 271.24462890625L651.7603149414062 281.9071350097656C651.7977905273438 282.72509765625 651.8115234375 283.52874755859375 651.8023681640625 284.318115234375L652.0701904296875 294.9613952636719C652.0833129882812 295.4773864746094 652.0870361328125 295.98748779296875 652.0816650390625 296.4917297363281L652.2142944335938 308.7106628417969C652.2528076171875 309.64788818359375 652.2591552734375 310.6062316894531 652.2318725585938 311.5857238769531L651.827880859375 325.7009582519531C651.8245849609375 326.0981750488281 651.8155517578125 326.4989318847656 651.80078125 326.90325927734375L651.3831176757812 338.3813171386719C651.3572387695312 339.09600830078125 651.3141479492188 339.79833984375 651.2544555664062 340.4883117675781L650.3713989257812 354.2354736328125C650.360107421875 354.45526123046875 650.34716796875 354.6760559082031 650.3323364257812 354.8978576660156L649.281494140625 370.21539306640625C649.2468872070312 370.7350769042969 649.2033081054688 371.2479248046875 649.151123046875 371.7539367675781L647.9612426757812 385.8428039550781C647.9035034179688 386.5042419433594 647.8314819335938 387.154296875 647.7456665039062 387.7929992675781L646.8405151367188 397.2006530761719C646.806884765625 397.7245788574219 646.7628784179688 398.2541198730469 646.7083740234375 398.7892761230469L645.5828247070312 410.0699157714844C645.5724487304688 410.2027282714844 645.5614624023438 410.3359069824219 645.5498046875 410.46942138671875L644.3373413085938 424.2646179199219C644.2831420898438 424.87646484375 644.216796875 425.478515625 644.1385498046875 426.0708312988281L642.9631958007812 438.2080383300781C642.9237670898438 438.60968017578125 642.879150390625 439.0070495605469 642.8294067382812 439.400146484375L642.2180786132812 446.5689697265625C642.1865234375 447.22625732421875 642.138671875 447.8926086425781 642.0740356445312 448.56793212890625L640.6998901367188 462.72686767578125C640.663818359375 463.0993347167969 640.6231689453125 463.4681396484375 640.5781860351562 463.8332824707031L639.6004638671875 475.6462097167969L639.59521484375 475.7272644042969L638.7060546875 489.3069152832031C638.6600952148438 490.009765625 638.5978393554688 490.70013427734375 638.519775390625 491.3780212402344L637.9112548828125 499.720703125C637.8894653320312 500.01611328125 637.86474609375 500.30926513671875 637.8372192382812 500.6001892089844L637.0048217773438 513.3716430664062L636.7526245117188 526.610595703125V539.193359375L636.908203125 550.4345092773438C636.91064453125 550.5446166992188 636.9127197265625 550.655029296875 636.914306640625 550.7656860351562L637.0586547851562 561.012939453125C637.0870361328125 561.7896118164062 637.0935668945312 562.5807495117188 637.0774536132812 563.3863525390625C637.0769653320312 563.4096069335938 637.0764770507812 563.4329223632812 637.0765380859375 563.4562377929688C637.07373046875 563.6596069335938 637.0694580078125 563.8619995117188 637.063720703125 564.0634765625L636.8065185546875 576.8203125C636.7898559570312 577.5891723632812 636.7531127929688 578.343994140625 636.6969604492188 579.0848388671875L636.4051513671875 589.0511474609375C636.4011840820312 589.2528686523438 636.395751953125 589.4555053710938 636.388916015625 589.6590576171875L636.0656127929688 598.4427490234375C636.0615844726562 598.562744140625 636.0570068359375 598.6824340820312 636.052001953125 598.8017578125L635.7557373046875 609.8668823242188C635.75146484375 610.0072631835938 635.74658203125 610.147216796875 635.740966796875 610.2866821289062L635.5258178710938 619.53857421875C635.5232543945312 620.0845336914062 635.5095825195312 620.63720703125 635.4845581054688 621.196533203125C635.4611206054688 621.8779296875 635.4218139648438 622.5480346679688 635.3670654296875 623.20703125L634.8870239257812 631.019775390625C634.8710327148438 631.5079345703125 634.8463745117188 632.0012817382812 634.8126831054688 632.4996948242188L634.2333984375 640.7040405273438C634.21728515625 640.9370727539062 634.1994018554688 641.168701171875 634.1797485351562 641.3989868164062L633.7619018554688 648.4907836914062C633.7440795898438 648.7728881835938 633.7236328125 649.052978515625 633.7005615234375 649.3311157226562L633.42138671875 655.0545043945312C633.4104614257812 656.0381469726562 633.3628540039062 657.0431518554688 633.2769165039062 658.0693359375L632.5942993164062 665.7901000976562L632.3327026367188 671.2826538085938L632.2453002929688 679.2120361328125C632.27001953125 680.1246948242188 632.2640991210938 681.0570068359375 632.22607421875 682.0088500976562L631.8692016601562 691.1564331054688L631.9131469726562 698.8761596679688C631.914306640625 698.9387817382812 631.9153442382812 699.00146484375 631.916259765625 699.0642700195312L631.9669799804688 705.5584716796875L631.9701538085938 705.6924438476562L632.142578125 713.7404174804688L632.7660522460938 722.6068115234375L633.7619018554688 729.6993408203125C633.8328857421875 730.2242431640625 633.8933715820312 730.744140625 633.9436645507812 731.2588500976562L634.2233276367188 733.5128173828125C634.3781127929688 734.4437255859375 634.5032348632812 735.3998413085938 634.59716796875 736.3814086914062L635.0686645507812 741.2178344726562C635.1141357421875 741.6913452148438 635.1513061523438 742.160400390625 635.180419921875 742.6250610351562L635.376708984375 744.8123779296875L635.3919677734375 744.9495239257812L635.8096313476562 748.6947631835938L636.3350219726562 752.89794921875C636.379150390625 753.26416015625 636.4182739257812 753.6278686523438 636.4524536132812 753.989013671875L636.6987915039062 755.8483276367188C636.7345581054688 756.1253662109375 636.7673950195312 756.4010009765625 636.7974243164062 756.6751708984375L636.9682006835938 757.8421630859375L636.972412109375 757.8733520507812C637.0282592773438 758.1966552734375 637.0807495117188 758.5230712890625 637.1298828125 758.8525390625L637.1837768554688 759.3779296875C643.5870971679688 802.4122924804688 579.158203125 812.0790405273438 572.5872192382812 769.19677734375C572.5392456054688 768.9080810546875 572.493896484375 768.616943359375 572.4512939453125 768.3233032226562L572.2357788085938 766.895263671875C572.1683959960938 766.4276733398438 572.109375 765.964111328125 572.0585327148438 765.5045776367188C571.9904174804688 765.0797119140625 571.92822265625 764.649658203125 571.8720092773438 764.21435546875L571.6272583007812 762.0569458007812C571.5639038085938 761.6404418945312 571.5062866210938 761.2189331054688 571.4544067382812 760.79248046875L570.8751220703125 756.1581420898438C570.7896118164062 755.4486694335938 570.7229614257812 754.7487182617188 570.674560546875 754.0584106445312L570.5263061523438 752.7753295898438L570.4749755859375 752.3311767578125L570.4439697265625 752.0626831054688C570.4026489257812 751.6843872070312 570.36669921875 751.308837890625 570.3359375 750.9360961914062L569.9724731445312 747.2667236328125C569.9295654296875 746.7890625 569.89501953125 746.31591796875 569.8687133789062 745.8473510742188L569.6768798828125 743.8575439453125L569.6626586914062 743.7505493164062L569.085205078125 739.1873168945312C569.046630859375 738.9364013671875 569.0100708007812 738.6836547851562 568.9755859375 738.4291381835938L568.0670166015625 731.6575927734375C567.9060668945312 730.7002563476562 567.7777099609375 729.7161865234375 567.68359375 728.7054443359375C567.5770874023438 727.7330322265625 567.5068969726562 726.7786254882812 567.4713745117188 725.8424682617188L566.9278564453125 718.113525390625C566.84716796875 716.9466552734375 566.8157348632812 715.8079223632812 566.8308715820312 714.6974487304688L566.6583862304688 707.1204833984375C566.652099609375 706.830810546875 566.6487426757812 706.5430908203125 566.6483154296875 706.2571411132812L566.5505981445312 699.9669189453125C566.5444946289062 699.546630859375 566.5444946289062 699.13037109375 566.5505981445312 698.718017578125V692.0641479492188C566.5055541992188 690.9727783203125 566.5047607421875 689.8528442382812 566.5505981445312 688.7044067382812L566.9278564453125 679.3818359375C566.9299926757812 679.329833984375 566.9321899414062 679.27783203125 566.9345092773438 679.2259521484375L566.9817504882812 670.6520385742188C566.9899291992188 669.67041015625 567.0311889648438 668.7112426757812 567.10400390625 667.7744140625L567.2532958984375 664.6395263671875C567.2599487304688 663.59619140625 567.3079223632812 662.5287475585938 567.3993530273438 661.4373168945312L568.1364135742188 652.6460571289062L568.5040283203125 644.8668823242188C568.5379028320312 644.1657104492188 568.5882568359375 643.4767456054688 568.6544799804688 642.7998046875L568.9544067382812 637.718505859375C568.9705200195312 637.2279663085938 568.9954833984375 636.7322998046875 569.0294799804688 636.2313842773438L569.6087646484375 628.0269775390625Q569.635009765625 627.647216796875 569.6675415039062 627.2723999023438L570.19921875 618.6181640625L570.3723754882812 609.15478515625Q570.3729248046875 608.5662841796875 570.39013671875 607.9673461914062L570.7484741210938 596.9733276367188C570.7526245117188 596.72802734375 570.7589111328125 596.4813232421875 570.767333984375 596.2333374023438L571.0771484375 587.395751953125C571.0820922851562 587.2514038085938 571.0877075195312 587.1076049804688 571.093994140625 586.9642333984375L571.4479370117188 576.7681884765625C571.4427490234375 576.3143310546875 571.44482421875 575.855712890625 571.4544067382812 575.392333984375L571.7516479492188 562.5697021484375L571.5487060546875 551.7222290039062C571.545654296875 551.5057373046875 571.5441284179688 551.2903442382812 571.5443115234375 551.0759887695312L571.4544067382812 539.9881591796875C571.4510498046875 539.7084350585938 571.4503784179688 539.4305419921875 571.452392578125 539.1543579101562L571.4052124023438 527.1697998046875C571.388427734375 526.5217895507812 571.3866577148438 525.8638916015625 571.4005126953125 525.196044921875L571.672607421875 512.8073120117188C571.6619873046875 511.770263671875 571.6918334960938 510.7086181640625 571.7642211914062 509.6225280761719L571.7742309570312 509.4766845703125C571.7900390625 509.2076721191406 571.8084106445312 508.94049072265625 571.8292236328125 508.67510986328125L572.6739501953125 496.3580322265625C572.6935424804688 495.854248046875 572.7225952148438 495.34503173828125 572.7611694335938 494.8304138183594L573.5021362304688 484.7264709472656C573.5239868164062 484.43536376953125 573.548583984375 484.1464538574219 573.5759887695312 483.85968017578125L574.3912353515625 471.47015380859375C574.4256591796875 470.943603515625 574.46923828125 470.4240417480469 574.521728515625 469.9114685058594L575.603759765625 456.83966064453125C575.6561889648438 456.2232971191406 575.720947265625 455.6167907714844 575.7977294921875 455.0201110839844L576.901123046875 443.66168212890625C576.92236328125 443.31915283203125 576.9478759765625 442.9742126464844 576.9778442382812 442.6268310546875L577.8670043945312 432.2130432128906C577.9166870117188 431.6428527832031 577.9769897460938 431.08111572265625 578.0475463867188 430.52783203125L579.2411499023438 418.2022705078125C579.2804565429688 417.802001953125 579.324951171875 417.40594482421875 579.37451171875 417.0141296386719L580.2761840820312 406.79534912109375C580.3098754882812 405.9817199707031 580.36865234375 405.1541748046875 580.45361328125 404.312744140625L581.7064819335938 392.1611022949219C581.738525390625 391.84674072265625 581.7738647460938 391.53497314453125 581.812255859375 391.2258605957031L582.8651123046875 379.9017028808594C582.8999633789062 379.53863525390625 582.9390258789062 379.1790771484375 582.9823608398438 378.8229675292969L584.0760498046875 365.8735656738281L584.0775756835938 365.8504943847656L585.1283569335938 350.532958984375C585.1433715820312 350.3073425292969 585.1600952148438 350.0830383300781 585.178466796875 349.8600158691406L586.1077270507812 335.3818664550781L586.5025024414062 324.5322265625C586.5087890625 324.359130859375 586.5160522460938 324.1867370605469 586.5243530273438 324.0151062011719L586.8731689453125 311.4449157714844C586.8701171875 311.29925537109375 586.8677978515625 311.1531066894531 586.8662109375 311.0064392089844L586.763671875 296.83270263671875C586.7618408203125 296.7703552246094 586.7600708007812 296.7079162597656 586.7584838867188 296.6453857421875L586.4830322265625 285.6519775390625C586.4700927734375 285.442138671875 586.4585571289062 285.231201171875 586.4486083984375 285.0191650390625L585.9501342773438 273.937744140625L585.0465087890625 262.3985595703125L583.9883422851562 253.6711883544922L583.9279174804688 253.7486114501953C583.4463500976562 254.42091369628906 582.9351196289062 255.0909881591797 582.3935546875 255.75820922851562L579.9435424804688 258.72454833984375L577.876708984375 261.48828125L575.5498657226562 264.9190979003906C575.5021362304688 264.9889831542969 575.454345703125 265.05859375 575.4063720703125 265.1279296875L573.5059814453125 267.93060302734375C572.9865112304688 268.76898193359375 572.4243774414062 269.6066589355469 571.818115234375 270.44256591796875L569.4260864257812 273.7069091796875C568.9892578125 274.3712463378906 568.5249633789062 275.03466796875 568.0325317382812 275.69659423828125L565.8916015625 278.52191162109375C565.4376831054688 279.162841796875 564.95703125 279.80194091796875 564.4490356445312 280.438720703125L560.2457885742188 285.74664306640625C559.7291870117188 286.3944091796875 559.2039794921875 287.01513671875 558.6707763671875 287.6093444824219L555.3419799804688 291.53955078125C555.0111083984375 291.93194580078125 554.6771850585938 292.3138732910156 554.34033203125 292.6854248046875L550.505615234375 297.278564453125C550.1622314453125 297.6864318847656 549.8155517578125 298.0830078125 549.4657592773438 298.46844482421875L546.9443969726562 301.37567138671875C546.8701782226562 301.4649963378906 546.7953491210938 301.55426025390625 546.719970703125 301.6434631347656L541.1842651367188 308.15924072265625L536.3612670898438 314.14794921875C536.3028564453125 314.2234802246094 536.244140625 314.2989501953125 536.1849975585938 314.3744201660156L532.3096923828125 319.298583984375C532.0177001953125 319.6966857910156 531.71533203125 320.0940856933594 531.4024658203125 320.4906311035156L525.8720092773438 327.48809814453125L520.4793701171875 334.5584716796875L515.8964233398438 341.5220031738281C515.7513427734375 341.7548828125 515.6031494140625 341.9878234863281 515.4517211914062 342.2207946777344L511.2318420410156 348.7137145996094C510.49041748046875 349.98126220703125 509.6510314941406 351.2461242675781 508.7087097167969 352.5045471191406C508.236572265625 353.1587219238281 507.753662109375 353.7869873046875 507.26080322265625 354.3898010253906L504.1488037109375 358.427490234375C503.72869873046875 358.973876953125 503.30230712890625 359.50164794921875 502.8699951171875 360.01116943359375L499.192138671875 364.74359130859375C498.7939147949219 365.289306640625 498.3760986328125 365.8335266113281 497.9382629394531 366.37591552734375L493.0936584472656 372.3275451660156C492.7554626464844 372.7832336425781 492.4035339355469 373.23785400390625 492.03759765625 373.691162109375L486.1223449707031 380.9745788574219L483.0922546386719 385.0614318847656L483.08258056640625 385.0747985839844L478.44140625 391.48187255859375C478.1116027832031 391.9693603515625 477.76690673828125 392.456298828125 477.4071044921875 392.9424743652344L472.1954345703125 399.91156005859375C471.9763488769531 400.2203369140625 471.7511901855469 400.5288391113281 471.5198974609375 400.8370056152344L465.9872741699219 408.2528076171875L465.9425354003906 408.31390380859375L461.9952697753906 413.7296142578125L461.98199462890625 413.7476806640625L457.4148254394531 420.26348876953125C457.0096435546875 420.8449401855469 456.5968933105469 421.4070129394531 456.177001953125 421.9500732421875L453.4595031738281 425.7530822753906C453.0311584472656 426.41192626953125 452.5760192871094 427.0700378417969 452.0934143066406 427.7268981933594L447.6707458496094 433.7691650390625C447.4662170410156 434.0545654296875 447.2564697265625 434.3396911621094 447.0414733886719 434.62451171875L446.9881896972656 434.6943054199219Q446.8376770019531 434.8938903808594 446.68597412109375 435.0901794433594L444.6759033203125 437.72320556640625C444.3883972167969 438.1323547363281 444.0902404785156 438.541015625 443.7812805175781 438.9490051269531L439.5925598144531 444.453369140625L436.15618896484375 449.3088684082031C435.84906005859375 449.7376708984375 435.5378723144531 450.1557312011719 435.2227783203125 450.5631408691406L434.2157287597656 451.9615478515625C433.6275939941406 452.8364562988281 432.99066162109375 453.7085266113281 432.30322265625 454.5763854980469L429.66546630859375 457.8570861816406C428.721923828125 459.1820373535156 427.6588134765625 460.4928894042969 426.4698791503906 461.7838439941406L422.7811279296875 465.7281799316406L422.7784729003906 465.7309875488281L419.3076171875 469.71832275390625L416.0925598144531 473.9288024902344C415.62890625 477.8764343261719 414.3625183105469 481.8011474609375 412.1581115722656 485.51422119140625C410.1321716308594 489.43817138671875 407.19732666015625 492.98077392578125 403.27716064453125 495.831298828125C403.0701599121094 496.00244140625 402.86187744140625 496.1701354980469 402.65234375 496.3343811035156C400.5690002441406 497.9797668457031 398.24578857421875 499.36328125 395.6964111328125 500.41644287109375C379.7686767578125 513.8685302734375 350.984619140625 509.64202880859375 343.1355895996094 487.7366943359375C341.9599609375 484.62677001953125 341.24078369140625 481.1684875488281 341.0873718261719 477.3716735839844L341.08612060546875 477.34515380859375C341.0188903808594 476.34588623046875 340.9983215332031 475.3261413574219 341.0269775390625 474.2867431640625C341.0349426269531 472.7796936035156 341.1539306640625 471.2365417480469 341.3928527832031 469.66107177734375L341.37750244140625 469.6443786621094L339.35797119140625 467.510009765625C339.2418518066406 467.38970947265625 339.1259765625 467.26824951171875 339.0103759765625 467.1456604003906L336.80096435546875 464.8284912109375C336.4941101074219 464.5033874511719 336.1954040527344 464.1768798828125 335.9047546386719 463.8490905761719L333.7967529296875 461.67608642578125C333.6943359375 461.5677185058594 333.5928039550781 461.4591979980469 333.4921875 461.35052490234375L331.4115295410156 459.19873046875L330.2930603027344 458.1250305175781C329.7331237792969 457.6168212890625 329.1786804199219 457.08367919921875 328.6302795410156 456.5250244140625C327.74298095703125 455.65289306640625 326.91912841796875 454.7667236328125 326.1565246582031 453.8688659667969L324.95916748046875 452.5690612792969C323.96234130859375 451.4703369140625 323.0555725097656 450.3580322265625 322.2351379394531 449.2357177734375C321.6225891113281 448.5417175292969 321.0213928222656 447.81195068359375 320.4326171875 447.04559326171875L318.3416442871094 444.2738342285156C318.0155944824219 443.87481689453125 317.69317626953125 443.4650573730469 317.37451171875 443.04443359375L314.7104797363281 439.496337890625L312.4842224121094 436.72613525390625C311.9795837402344 436.09356689453125 311.5019226074219 435.45867919921875 311.0506286621094 434.8219909667969L308.90069580078125 432.0513916015625C308.53350830078125 431.5716857910156 308.1813659667969 431.0910339355469 307.8440246582031 430.60955810546875L305.47882080078125 427.41705322265625C305.3902893066406 427.2958679199219 305.3027038574219 427.1746520996094 305.2160339355469 427.0533752441406L304.1634216308594 425.7098693847656C303.7776794433594 425.23565673828125 303.3971862792969 424.7462158203125 303.022216796875 424.2413635253906C302.8232116699219 423.97747802734375 302.62872314453125 423.7131652832031 302.43878173828125 423.44854736328125L300.1504821777344 420.3364562988281C299.9446105957031 420.0696716308594 299.7403259277344 419.7983703613281 299.5377197265625 419.52252197265625L295.6982421875 414.30889892578125L295.6582946777344 414.2545471191406L292.63720703125 410.3744201660156C292.41192626953125 410.0968933105469 292.1883544921875 409.814208984375 291.9665222167969 409.5263671875L288.3150939941406 404.81707763671875C287.9650573730469 404.3832092285156 287.619384765625 403.9367370605469 287.2782897949219 403.4775085449219L284.5440673828125 399.8200378417969C284.4315185546875 399.6715393066406 284.3194580078125 399.52166748046875 284.20794677734375 399.37042236328125L284.1662902832031 399.314697265625C283.80517578125 398.82733154296875 283.4592590332031 398.3392028808594 283.1282653808594 397.85052490234375L280.3233642578125 393.8499450683594C280.061279296875 393.50555419921875 279.8019104003906 393.1536865234375 279.5454406738281 392.7942810058594L275.8298034667969 387.5814514160156C275.2931823730469 386.86932373046875 274.7696228027344 386.12493896484375 274.2602844238281 385.3477478027344C274.0044250488281 384.9654541015625 273.757568359375 384.5829162597656 273.51953125 384.2003173828125L271.59161376953125 381.2095642089844C271.32464599609375 380.8183288574219 271.0614318847656 380.4183349609375 270.80218505859375 380.00946044921875L266.876220703125 373.8260498046875L263.5361328125 369.0300598144531C263.1448669433594 368.5126037597656 262.7601013183594 367.9782409667969 262.3822326660156 367.4267272949219L258.1348876953125 361.2038269042969C257.9629211425781 360.9576110839844 257.7924499511719 360.7078552246094 257.62353515625 360.45458984375C257.3116455078125 359.9950866699219 257.0126037597656 359.535400390625 256.7261962890625 359.07574462890625L253.8545379638672 354.64190673828125C253.61196899414062 354.2650146484375 253.37770080566406 353.8882751464844 253.15164184570312 353.51171875L249.72923278808594 348.2854919433594C249.66714477539062 348.19537353515625 249.60523986816406 348.10479736328125 249.5435333251953 348.01373291015625L244.1743927001953 340.0255126953125L244.12782287597656 339.95751953125L239.1466064453125 332.6493835449219C238.92784118652344 332.3515625 238.7111358642578 332.04833984375 238.49658203125 331.73968505859375L232.39381408691406 322.95599365234375C232.2788543701172 322.7904052734375 232.16558837890625 322.62481689453125 232.05397033691406 322.45916748046875L228.60292053222656 317.57940673828125C228.4237518310547 317.34088134765625 228.24588012695312 317.09881591796875 228.0693359375 316.8532409667969L221.6028289794922 307.85400390625C221.53443908691406 307.75885009765625 221.46661376953125 307.6636962890625 221.39935302734375 307.5685119628906L217.84561157226562 302.6922912597656L217.92666625976562 304.7552185058594C218.04360961914062 306.092529296875 218.093994140625 307.4757385253906 218.0731964111328 308.9048156738281L217.91152954101562 319.4802551269531C217.89959716796875 320.2524108886719 217.86737060546875 321.01055908203125 217.81558227539062 321.7547302246094L217.6905517578125 325.6931457519531C217.6869354248047 326.16339111328125 217.67532348632812 326.63861083984375 217.6555633544922 327.1188049316406L217.38612365722656 333.38323974609375L217.38583374023438 333.3902893066406L217.13015747070312 339.63421630859375C217.12513732910156 339.7527160644531 217.11964416503906 339.870849609375 217.11367797851562 339.9886474609375L216.91461181640625 346.060302734375C216.90699768066406 346.2635192871094 216.8979949951172 346.4657287597656 216.8876190185547 346.66693115234375L216.65924072265625 354.42156982421875C216.6699981689453 355.299072265625 216.65223693847656 356.1943054199219 216.60475158691406 357.10723876953125L216.26748657226562 363.5262451171875C216.2559814453125 364.166259765625 216.22933959960938 364.8152770996094 216.18711853027344 365.4732971191406L215.5535125732422 374.6549377441406L215.344482421875 384.6618347167969L215.4398651123047 393.3769836425781C215.44232177734375 393.4788818359375 215.44442749023438 393.5810241699219 215.4461669921875 393.6834411621094L215.59677124023438 400.20947265625L216.0554962158203 406.69024658203125L216.8622283935547 412.0465393066406C216.8990478515625 412.2559814453125 216.93446350097656 412.4667663574219 216.96849060058594 412.6788024902344L218.18096923828125 420.101806640625C218.2787628173828 420.7112731933594 218.36219787597656 421.3141784667969 218.431640625 421.9104919433594L219.17788696289062 426.4740295410156C219.23927307128906 426.8506774902344 219.29515075683594 427.224853515625 219.34564208984375 427.59649658203125L220.01026916503906 431.6166687011719C220.15548706054688 432.3599548339844 220.28244018554688 433.12005615234375 220.39035034179688 433.89703369140625L221.15455627441406 439.6595458984375C221.31591796875 440.5872497558594 221.4478759765625 441.5403747558594 221.54893493652344 442.51904296875L222.34378051757812 449.9420471191406C222.44100952148438 450.8847961425781 222.5054168701172 451.8102111816406 222.53831481933594 452.71820068359375L222.81529235839844 456.20648193359375C222.88389587402344 457.07781982421875 222.92494201660156 457.9336853027344 222.93946838378906 458.7740478515625L223.23292541503906 464.88238525390625C223.26649475097656 465.6356201171875 223.2799530029297 466.3767395019531 223.27395629882812 467.10565185546875L223.44847106933594 473.41009521484375C223.46070861816406 473.94427490234375 223.46295166015625 474.47216796875 223.45545959472656 474.9936828613281L223.48416137695312 480.0072021484375C223.48580932617188 480.05340576171875 223.4873809814453 480.0997009277344 223.4888916015625 480.1460266113281L223.68113708496094 485.5409851074219L224.01158142089844 490.4124450683594C224.0233612060547 490.5719299316406 224.03421020507812 490.7320251464844 224.04415893554688 490.8927917480469L224.06817626953125 491.24688720703125C224.15806579589844 492.62158203125 224.179931640625 493.95709228515625 224.13787841796875 495.25311279296875L224.17041015625 499.7021789550781C224.1809844970703 500.1839599609375 224.18331909179688 500.6712341308594 224.17721557617188 501.1639709472656L224.176513671875 501.2565002441406C224.175048828125 501.4264831542969 224.17259216308594 501.5958251953125 224.1691131591797 501.76446533203125L224.07630920410156 508.6427001953125C224.07586669921875 508.89599609375 224.0731658935547 509.1507568359375 224.06817626953125 509.406982421875L223.97799682617188 514.9979248046875L224.18064880371094 520.3639526367188C224.19961547851562 520.6390380859375 224.21603393554688 520.916015625 224.22984313964844 521.1948852539062L224.62628173828125 529.4434204101562L225.388427734375 536.66064453125C225.50950622558594 537.8785400390625 225.57591247558594 539.0674438476562 225.59054565429688 540.2269287109375L225.8599395751953 544.406982421875C225.87757873535156 544.6929931640625 225.8922882080078 544.9772338867188 225.90408325195312 545.2598266601562L226.4931182861328 552.97509765625C226.5138702392578 553.2518920898438 226.5318603515625 553.527099609375 226.54710388183594 553.80078125L227.0341796875 560.27783203125L227.86724853515625 567.497802734375C228.00726318359375 568.7095947265625 228.09242248535156 569.893310546875 228.12559509277344 571.0487060546875L228.3926544189453 574.71875C228.47024536132812 575.8262939453125 228.50350952148438 576.9086303710938 228.49461364746094 577.9655151367188L228.64862060546875 583.6640625C228.6671905517578 584.3963012695312 228.66697692871094 585.11669921875 228.64862060546875 585.8252563476562V591.0966796875C228.65199279785156 591.4055786132812 228.6520233154297 591.7167358398438 228.64862060546875 592.0300903320312L228.5985565185547 598.5264282226562C228.59869384765625 598.7266235351562 228.59742736816406 598.927734375 228.59474182128906 599.1297607421875L228.55557250976562 602.722900390625L228.7805633544922 606.664306640625C228.842529296875 607.4157104492188 228.88406372070312 608.1815795898438 228.90438842773438 608.9619750976562C228.9407196044922 609.9050903320312 228.94480895996094 610.8291015625 228.91806030273438 611.7339477539062V615.4287719726562C228.92730712890625 615.9353637695312 228.9273681640625 616.4479370117188 228.91806030273438 616.966552734375L228.82260131835938 622.3361206054688C228.82162475585938 622.6323852539062 228.81753540039062 622.9307250976562 228.81028747558594 623.2310180664062L228.77154541015625 625.6522827148438C228.77085876464844 626.0009765625 228.7658233642578 626.3524780273438 228.7563934326172 626.7067260742188L228.64862060546875 629.8591918945312L228.6456756591797 629.9606323242188L228.59474182128906 632.6478271484375C228.59019470214844 632.8187866210938 228.5846710205078 632.9889526367188 228.57815551757812 633.1585083007812L228.4784393310547 637.119873046875L228.75479125976562 641.6746215820312L228.75706481933594 641.700927734375L229.00592041015625 644.5894165039062C229.0328826904297 644.8551635742188 229.05747985839844 645.1227416992188 229.07972717285156 645.3922729492188L229.46324157714844 650.1370239257812C229.52084350585938 650.6849365234375 229.5682373046875 651.2409057617188 229.60513305664062 651.8048706054688L229.88967895507812 656.4209594726562L230.3949432373047 660.5182495117188C230.47047424316406 661.0457763671875 230.5363006591797 661.5811767578125 230.59214782714844 662.1244506835938C230.7146759033203 663.175048828125 230.7956085205078 664.2047729492188 230.83682250976562 665.2133178710938L230.84344482421875 665.3035278320312C231.00799560546875 666.6677856445312 231.10433959960938 668.0823974609375 231.12745666503906 669.54736328125L231.1787567138672 675.4100952148438C231.18096923828125 675.5523071289062 231.18246459960938 675.695068359375 231.18324279785156 675.8380737304688C231.19007873535156 676.3770141601562 231.18678283691406 676.909423828125 231.17356872558594 677.4352416992188L231.1345672607422 681.9298095703125C231.13682556152344 682.2899780273438 231.1344757080078 682.6531372070312 231.12745666503906 683.019287109375L231.02210998535156 688.5765991210938L231.01968383789062 688.7044067382812L231.0137176513672 688.97216796875L230.91189575195312 693.5408325195312C230.90869140625 693.6979370117188 230.90463256835938 693.8543701171875 230.89976501464844 694.0103149414062L230.8032989501953 698.1751708984375L230.80274963378906 698.2486572265625L230.7637176513672 703.3753051757812C230.7624053955078 703.4741821289062 230.76075744628906 703.5728759765625 230.75877380371094 703.6712646484375L230.70982360839844 708.0635375976562V711.2159423828125Q230.70721435546875 711.5167846679688 230.7004852294922 711.8148803710938L230.6559295654297 715.122802734375V750.0177612304688C230.7267303466797 750.4511108398438 230.79095458984375 750.889892578125 230.84841918945312 751.3341674804688C231.07528686523438 752.7440795898438 231.22067260742188 754.120361328125 231.28955078125 755.4617919921875C232.28213500976562 758.6985473632812 232.73867797851562 762.2054443359375 232.53358459472656 765.9345092773438C232.5511474609375 769.2709350585938 231.99627685546875 772.6927490234375 230.7691650390625 776.114013671875C230.25094604492188 777.8168334960938 229.5687255859375 779.4971923828125 228.71148681640625 781.1387939453125C227.94602966308594 782.6643676757812 227.07064819335938 784.086181640625 226.10025024414062 785.404296875C225.22845458984375 786.6529541015625 224.24452209472656 787.853515625 223.1443328857422 788.9946899414062C222.23944091796875 790.0062866210938 221.2543182373047 790.9649658203125 220.18789672851562 791.8619995117188C218.14053344726562 793.6154174804688 215.9313201904297 795.025634765625 213.61656188964844 796.11474609375C210.41253662109375 797.8609619140625 207.10548400878906 798.93798828125 203.79612731933594 799.4322509765625C200.49266052246094 800.0838623046875 197.26370239257812 800.156982421875 194.17002868652344 799.7416381835938C191.2452850341797 799.4603881835938 188.48802185058594 798.7626953125 185.92515563964844 797.7198486328125C172.97476196289062 792.9895629882812 165.7914276123047 780.1907958984375 165.45652770996094 767.2991333007812C165.43577575683594 766.8453369140625 165.4248504638672 766.390869140625 165.4239501953125 765.9360961914062C165.41590881347656 764.264892578125 165.531494140625 762.5950317382812 165.77699279785156 760.9431762695312C165.7487030029297 760.4107055664062 165.7327423095703 759.8834838867188 165.72879028320312 759.3616943359375C165.6203155517578 758.5952758789062 165.5340576171875 757.8125610351562 165.470947265625 757.0136108398438C165.1365203857422 754.3043823242188 165.10665893554688 751.7252807617188 165.34420776367188 749.2843627929688V718.8005981445312L165.34423828125 718.7467041015625L165.34420776367188 715.33642578125V714.9611206054688L165.34422302246094 714.9566650390625C165.34426879882812 714.940185546875 165.34429931640625 714.9237060546875 165.34420776367188 714.9072265625V711.3070678710938C165.34300231933594 711.1381225585938 165.34278869628906 710.9685668945312 165.3435821533203 710.7982788085938C165.34439086914062 710.7623291015625 165.34461975097656 710.7264404296875 165.34487915039062 710.6905517578125L165.3455352783203 710.6119384765625L165.3564910888672 709.9599609375L165.39630126953125 707.5907592773438C165.396728515625 707.5194091796875 165.39730834960938 707.447998046875 165.39808654785156 707.37646484375L165.44761657714844 702.9818115234375C165.4481201171875 702.8171997070312 165.44956970214844 702.6519775390625 165.4519805908203 702.4861450195312L165.49871826171875 697.8699951171875C165.49826049804688 697.5873413085938 165.50062561035156 697.3028564453125 165.505859375 697.0165405273438L165.607421875 692.548583984375C165.6089324951172 692.421630859375 165.6110076904297 692.2943725585938 165.6136474609375 692.1666870117188L165.70794677734375 687.3302612304688C165.7095947265625 687.2509765625 165.71144104003906 687.1718139648438 165.71351623535156 687.0927734375L165.8157196044922 681.7529296875C165.81703186035156 681.685302734375 165.81849670410156 681.6177978515625 165.82012939453125 681.5504150390625L165.86477661132812 676.373046875L165.7706298828125 671.0430297851562L165.656005859375 669.483154296875L165.23777770996094 666.0365600585938C165.01780700683594 664.728515625 164.8587188720703 663.37060546875 164.76490783691406 661.9627075195312L164.4011688232422 656.0755004882812C164.3931427001953 655.95263671875 164.38563537597656 655.8301391601562 164.37869262695312 655.7078857421875L163.98353576660156 650.8079833984375C163.96871948242188 650.631103515625 163.95504760742188 650.454833984375 163.9425048828125 650.2792358398438L163.72940063476562 647.8134155273438C163.65464782714844 647.1398315429688 163.59548950195312 646.4540405273438 163.5524444580078 645.7559814453125L163.32110595703125 641.9432373046875C163.20904541015625 640.8246459960938 163.14414978027344 639.6734008789062 163.12918090820312 638.4895629882812C163.0900115966797 637.2582397460938 163.1062469482422 636.0596313476562 163.17474365234375 634.8941040039062L163.22889709472656 631.9286499023438C163.2298126220703 631.609375 163.23435974121094 631.2877807617188 163.24258422851562 630.9638671875L163.34585571289062 628.2012939453125C163.3472442626953 628.1432495117188 163.34873962402344 628.0851440429688 163.35035705566406 628.0269775390625L163.4042510986328 624.9149780273438C163.40914916992188 624.7374877929688 163.41510009765625 624.5607299804688 163.422119140625 624.384765625L163.49855041503906 621.65478515625C163.50148010253906 621.533447265625 163.50491333007812 621.4124755859375 163.5088348388672 621.2918701171875L163.60177612304688 616.064208984375L163.559814453125 611.1014404296875L163.35911560058594 607.5930786132812C163.25833129882812 606.522216796875 163.20034790039062 605.421630859375 163.1875762939453 604.2913818359375C163.1591796875 603.2973022460938 163.16680908203125 602.32470703125 163.2088165283203 601.373779296875L163.24258422851562 598.2406616210938C163.24472045898438 598.0798950195312 163.24774169921875 597.919677734375 163.2516326904297 597.7601318359375L163.35035705566406 591.343017578125V585.2941284179688L163.13546752929688 577.8171997070312L163.13449096679688 577.8036499023438L162.86929321289062 574.1678466796875L162.08399963378906 567.659423828125C161.95361328125 566.5294799804688 161.87078857421875 565.4238891601562 161.8332061767578 564.3429565429688L161.39205932617188 558.4767456054688C161.37442016601562 558.2785034179688 161.3580780029297 558.0791625976562 161.34304809570312 557.8788452148438L160.65599060058594 548.879638671875C160.60231018066406 548.1638793945312 160.5671844482422 547.4585571289062 160.55001831054688 546.7637939453125L160.27359008789062 542.4749145507812L159.49740600585938 534.7745361328125C159.3647003173828 533.4396362304688 159.29766845703125 532.1397094726562 159.29249572753906 530.8750610351562L159.04409790039062 525.8992309570312C158.99273681640625 525.2708740234375 158.955078125 524.63232421875 158.93157958984375 523.9835815429688L158.7401123046875 518.1534423828125C158.62759399414062 516.8107299804688 158.58209228515625 515.4220581054688 158.60826110839844 513.9874267578125L158.71603393554688 508.140625C158.71974182128906 507.9476318359375 158.72471618652344 507.7555236816406 158.73094177246094 507.56427001953125L158.87095642089844 500.6337585449219L158.77484130859375 494.0613098144531L158.53250122070312 490.6308288574219C158.48257446289062 490.06610107421875 158.44384765625 489.49310302734375 158.41664123535156 488.91180419921875C158.3895721435547 488.4073791503906 158.37168884277344 487.9081726074219 158.3628387451172 487.4143371582031L158.1906280517578 482.2476501464844C158.1690216064453 481.5892639160156 158.16268920898438 480.94036865234375 158.1711883544922 480.3009338378906L158.08285522460938 474.5148010253906C158.07803344726562 474.069580078125 158.08009338378906 473.6288146972656 158.0889129638672 473.1925354003906L157.9211883544922 467.0917663574219C157.91677856445312 466.89910888671875 157.91366577148438 466.707275390625 157.91183471679688 466.5162658691406L157.6561737060547 461.19476318359375L157.2476043701172 455.8831481933594C157.23887634277344 455.7707214355469 157.23062133789062 455.6585388183594 157.22280883789062 455.546630859375L156.5815887451172 449.4551086425781L155.6579132080078 442.8827819824219L155.64254760742188 442.7710876464844L154.66099548339844 436.8338928222656C154.5779571533203 436.3122863769531 154.50543212890625 435.7955017089844 154.44317626953125 435.2835693359375L153.66407775878906 430.529052734375C153.61831665039062 430.2481689453125 153.5756072998047 429.9686584472656 153.53591918945312 429.6905517578125L152.45159912109375 423.0521545410156C152.39584350585938 422.7045593261719 152.34475708007812 422.3591003417969 152.2982635498047 422.0157775878906L151.50119018554688 416.7328186035156C151.3737030029297 416.0166015625 151.2644500732422 415.2852478027344 151.1741485595703 414.5386962890625C150.9703369140625 413.04730224609375 150.85191345214844 411.5965576171875 150.8134307861328 410.18731689453125L150.49998474121094 405.7857666015625C150.3542022705078 404.5162658691406 150.26695251464844 403.2035217285156 150.24221801757812 401.847412109375L150.1344451904297 394.8420104980469C150.129150390625 394.54718017578125 150.12689208984375 394.2543029785156 150.12762451171875 393.96337890625L150.03758239746094 385.7361755371094C150.02084350585938 385.1336669921875 150.01707458496094 384.5225524902344 150.0266571044922 383.90283203125L150.02685546875 383.89044189453125L150.0341796875 383.4226379394531L150.16073608398438 375.3443298339844C150.14273071289062 374.259033203125 150.1691131591797 373.1465759277344 150.2421875 372.0071716308594C150.265625 371.5639953613281 150.2959442138672 371.1256408691406 150.3329620361328 370.6921691894531L150.88877868652344 362.6378173828125C150.8982696533203 362.3055419921875 150.9117431640625 361.97088623046875 150.9292755126953 361.6337890625L151.28448486328125 354.91937255859375C151.28675842285156 354.79132080078125 151.2895965576172 354.66290283203125 151.2930145263672 354.53411865234375L151.586669921875 344.9783935546875C151.58946228027344 344.53515625 151.59930419921875 344.08746337890625 151.61634826660156 343.6353454589844L151.81842041015625 337.0610656738281C151.84695434570312 336.2995910644531 151.8949737548828 335.5521545410156 151.96180725097656 334.81878662109375L152.14175415039062 330.6349792480469L152.3438262939453 324.384033203125C152.35205078125 324.1899719238281 152.36154174804688 323.9968566894531 152.37228393554688 323.80462646484375L152.5593719482422 317.9579162597656C152.56346130371094 317.832275390625 152.5680694580078 317.7070007324219 152.57321166992188 317.5821228027344L152.7103729248047 308.65582275390625L152.28994750976562 299.1781005859375C152.2754364013672 298.82281494140625 152.265380859375 298.4702453613281 152.25973510742188 298.1203918457031L151.8383331298828 290.4566955566406C151.81068420410156 290.1553955078125 151.78607177734375 289.85174560546875 151.76454162597656 289.54571533203125L151.2930145263672 282.5403137207031C151.27713012695312 282.3138122558594 151.2631072998047 282.0883483886719 151.25091552734375 281.86395263671875L150.82162475585938 275.51593017578125C150.68202209472656 274.3511047363281 150.59115600585938 273.14947509765625 150.55206298828125 271.9110107421875L150.3218231201172 263.5377502441406Q150.3074493408203 263.2797546386719 150.2960968017578 263.0195617675781L149.9695281982422 254.7463836669922C149.95571899414062 254.54135131835938 149.94332885742188 254.3352508544922 149.93235778808594 254.1280975341797L149.4424285888672 245.1748046875C149.4241180419922 244.93199157714844 149.40780639648438 244.68765258789062 149.3934783935547 244.4418182373047L149.0297393798828 237.8136444091797C149.0005645751953 237.3094940185547 148.98046875 236.81069946289062 148.96926879882812 236.31724548339844L148.6608428955078 230.3335418701172C148.55599975585938 229.1450958251953 148.50277709960938 227.92022705078125 148.50433349609375 226.65892028808594L148.506103515625 226.35194396972656C148.5055694580078 226.1285400390625 148.50686645507812 225.90626525878906 148.5099639892578 225.68511962890625L148.5582275390625 217.33636474609375V194.66317749023438L148.50918579101562 188.2875213623047C148.5074005126953 188.21693420410156 148.5057830810547 188.146240234375 148.50433349609375 188.07542419433594L148.42068481445312 184.4473114013672C148.41140747070312 184.25650024414062 148.40335083007812 184.06478881835938 148.3965606689453 183.8721923828125L148.24984741210938 179.44142150878906C146.08334350585938 178.74705505371094 143.88433837890625 177.80641174316406 141.666259765625 176.5962371826172L141.62185668945312 176.57235717773438L141.5399169921875 176.5435333251953C141.5128173828125 176.54803466796875 141.48568725585938 176.552490234375 141.4585418701172 176.55694580078125L136.93197631835938 177.2978973388672C136.79171752929688 177.32070922851562 136.65179443359375 177.34275817871094 136.51222229003906 177.36404418945312L133.92774963378906 177.877197265625C133.65818786621094 177.9271240234375 133.3898468017578 177.9741973876953 133.12274169921875 178.01844787597656L130.6201171875 178.49697875976562C129.6044158935547 178.7257080078125 128.5559844970703 178.9192352294922 127.47457885742188 179.07546997070312C126.78003692626953 179.18482971191406 126.09375762939453 179.27479553222656 125.41595458984375 179.3459930419922L122.2288589477539 179.758544921875L120.62711334228516 180.05410766601562C120.46710205078125 180.182373046875 120.30585479736328 180.30906677246094 120.14342498779297 180.43418884277344C116.9957275390625 182.91476440429688 113.41991424560547 184.8732452392578 109.63296508789062 186.20079040527344C109.20587158203125 188.3946990966797 108.57411193847656 190.5447235107422 107.7376708984375 192.60874938964844C107.74784088134766 192.9463653564453 107.75395965576172 193.281494140625 107.7560806274414 193.61410522460938L107.83269500732422 195.96994018554688C107.84553527832031 196.50233459472656 107.84846496582031 197.0284881591797 107.84173583984375 197.54835510253906L107.87311553955078 201.34523010253906C107.87754821777344 201.70297241210938 107.87751770019531 202.0578155517578 107.87311553955078 202.40977478027344V206.70704650878906C107.87382507324219 206.8504180908203 107.87382507324219 206.9933319091797 107.87311553955078 207.13577270507812V215.2267608642578C107.92839050292969 216.55694580078125 107.91641235351562 217.9293212890625 107.83269500732422 219.3436737060547L107.82511138916016 219.4659881591797C107.806884765625 219.8456573486328 107.78352355957031 220.2218017578125 107.755126953125 220.59442138671875L107.75052642822266 220.66860961914062C107.73458099365234 221.75930786132812 107.67295837402344 222.87599182128906 107.5632553100586 224.0184326171875L107.11906433105469 228.37771606445312C107.09666442871094 228.7317657470703 107.06961822509766 229.08839416503906 107.03785705566406 229.44760131835938L106.52999877929688 234.9749755859375C106.52440643310547 235.05885314941406 106.5185546875 235.1428680419922 106.512451171875 235.22703552246094L106.16261291503906 239.943359375L105.8792724609375 246.43565368652344C105.86893463134766 246.6442108154297 105.85713958740234 246.85169982910156 105.84391021728516 247.05810546875L105.67963409423828 252.8281707763672L105.87389373779297 257.5714111328125C105.89643096923828 257.8585205078125 105.91619873046875 258.14776611328125 105.93315887451172 258.4391174316406L106.1473617553711 262.8021545410156C106.16252899169922 262.9949035644531 106.17645263671875 263.1886291503906 106.18912506103516 263.38330078125L106.40214538574219 266.6407470703125C106.44384765625 267.0238952636719 106.48065185546875 267.4110107421875 106.512451171875 267.80206298828125L106.77530670166016 271.4918518066406C106.81216430664062 271.8040466308594 106.84580993652344 272.118896484375 106.87619018554688 272.4364013671875L107.32665252685547 277.2182312011719L108.58582305908203 287.0089416503906L109.71876525878906 294.4360046386719C109.91046905517578 295.7004699707031 110.0409164428711 296.936279296875 110.11337280273438 298.1429138183594L111.0928955078125 307.32861328125C111.14871978759766 307.869873046875 111.19371795654297 308.4054260253906 111.22815704345703 308.93524169921875L112.08171844482422 316.6717834472656C112.24693298339844 317.8003845214844 112.36670684814453 318.9649658203125 112.43824768066406 320.1656188964844C112.4826889038086 320.7738952636719 112.51314544677734 321.3746643066406 112.53001403808594 321.96795654296875L112.93598937988281 330.0978088378906C112.95185089111328 330.3116149902344 112.96617889404297 330.526611328125 112.97895812988281 330.7427673339844L113.46395111083984 338.4352111816406C113.48231506347656 338.74542236328125 113.49723052978516 339.05364990234375 113.50873565673828 339.3598327636719L113.9204330444336 346.9920349121094C113.9676742553711 347.5491027832031 114.00421905517578 348.1141662597656 114.02976989746094 348.68731689453125L114.46086883544922 358.427490234375C114.48416900634766 358.9496154785156 114.4977798461914 359.4659118652344 114.50192260742188 359.9763488769531L114.7413330078125 366.8880310058594L115.1905746459961 373.31573486328125L115.90678405761719 378.8407287597656C115.91438293457031 378.8934326171875 115.92188262939453 378.94622802734375 115.92930603027344 378.99908447265625L116.8387451171875 385.764404296875C116.86875915527344 385.9289245605469 116.89791870117188 386.09429931640625 116.92622375488281 386.26043701171875L118.354248046875 394.62646484375C118.58609771728516 395.9876403808594 118.74588775634766 397.3167419433594 118.8377456665039 398.613037109375L119.29727935791016 402.372802734375C119.36197662353516 402.92095947265625 119.41544342041016 403.4634094238281 119.45793151855469 404.0000915527344L120.00959777832031 408.8941650390625C120.1498794555664 409.78265380859375 120.26313781738281 410.69390869140625 120.34808349609375 411.62799072265625L121.03797149658203 419.3673400878906L121.80281066894531 425.8138732910156C121.86776733398438 426.25738525390625 121.92627716064453 426.7064514160156 121.97817993164062 427.1611022949219L122.77302551269531 433.9913330078125C122.86077880859375 434.76007080078125 122.926513671875 435.5174865722656 122.9709701538086 436.26348876953125L123.51397705078125 441.83197021484375C123.58878326416016 442.666259765625 123.63813781738281 443.4866943359375 123.66297149658203 444.2931823730469L124.04170989990234 450.28497314453125C124.08148193359375 450.797119140625 124.11222076416016 451.31597900390625 124.1336898803711 451.8415832519531L124.4570083618164 459.9920959472656C124.47895812988281 460.54168701171875 124.49021911621094 461.08477783203125 124.49105834960938 461.621337890625L124.6186752319336 466.3642883300781C124.6312255859375 466.8202819824219 124.63648986816406 467.27166748046875 124.6346206665039 467.718505859375L124.7668685913086 475.0401916503906C124.77198791503906 475.42535400390625 124.77195739746094 475.80718994140625 124.7668685913086 476.1856689453125V482.1714172363281L125.19796752929688 488.6737365722656C125.21849822998047 488.9999694824219 125.23519897460938 489.323974609375 125.24812316894531 489.6457824707031L125.47254943847656 492.5271911621094C125.53305053710938 493.1588134765625 125.57978820800781 493.8009338378906 125.6123046875 494.45355224609375L125.61559295654297 494.5205383300781C125.62774658203125 494.7386169433594 125.63777160644531 494.9557189941406 125.64607238769531 495.1718444824219L125.78402709960938 498.11968994140625C125.8788833618164 499.2535705566406 125.92692565917969 500.42041015625 125.92544555664062 501.6202392578125L125.92179870605469 501.9620666503906C125.92245483398438 502.3055725097656 125.9188003540039 502.6463928222656 125.91089630126953 502.9845275878906L125.88141632080078 505.7480163574219C125.8890151977539 506.29608154296875 125.88582611083984 506.8511047363281 125.8715591430664 507.41314697265625L125.79984283447266 510.73272705078125C125.79898071289062 511.16229248046875 125.79149627685547 511.5960388183594 125.77725982666016 512.0339965820312L125.62718963623047 516.4859008789062C125.62394714355469 516.6181640625 125.62007904052734 516.7508544921875 125.61559295654297 516.8839111328125L125.4000473022461 523.6737060546875C125.39631652832031 523.7802734375 125.39220428466797 523.8866577148438 125.38771057128906 523.99267578125L125.23049926757812 529.4322509765625L125.45393371582031 536.1351928710938L125.45653533935547 536.2136840820312L125.78056335449219 541.7640380859375C125.79396057128906 541.939208984375 125.80633544921875 542.1151123046875 125.81767272949219 542.2918701171875L126.14099884033203 547.1417846679688C126.17622375488281 547.6907958984375 126.20059967041016 548.2335205078125 126.21439361572266 548.7699584960938L126.5047378540039 553.9854736328125C126.53800201416016 554.5952758789062 126.55795288085938 555.1972045898438 126.56495666503906 555.791259765625L126.68891906738281 558.6484985351562C126.7568588256836 559.4270629882812 126.80352020263672 560.2212524414062 126.82806396484375 561.03125L126.97625732421875 566.9319458007812C126.98665618896484 567.2893676757812 126.99256896972656 567.64404296875 126.99406433105469 567.995849609375L127.08403015136719 572.0782470703125C127.09038543701172 572.4041748046875 127.09302520751953 572.727783203125 127.0920181274414 573.0489501953125L127.1379165649414 577.0762939453125C127.14131164550781 577.3898315429688 127.14129638671875 577.7011108398438 127.1379165649414 578.0101928710938V581.4115600585938C127.16848754882812 582.3179321289062 127.16893768310547 583.243896484375 127.1379165649414 584.189453125L127.0219955444336 587.7733764648438C127.01553344726562 588.5081787109375 126.98860931396484 589.2550048828125 126.94051361083984 590.0136108398438C126.89777374267578 590.8212280273438 126.83280944824219 591.6127319335938 126.74649047851562 592.3881225585938L126.61467742919922 593.9163208007812C126.58326721191406 594.69384765625 126.52893829345703 595.4841918945312 126.45085144042969 596.2872314453125L126.01776123046875 600.4972534179688L125.99064636230469 603.2487182617188L126.15599822998047 607.3306884765625C126.17073822021484 607.5595703125 126.18370056152344 607.7897338867188 126.19488525390625 608.021240234375L126.35655212402344 611.8607177734375C126.36865997314453 612.1114501953125 126.37852478027344 612.36083984375 126.38618469238281 612.60888671875L126.39696502685547 612.7633666992188C126.43797302246094 613.84912109375 126.43730163574219 614.9093627929688 126.39696502685547 615.9439697265625V618.3945922851562L126.43975830078125 620.33642578125C126.59073638916016 622.1319580078125 126.61637115478516 624.0086669921875 126.5047378540039 625.9658203125L126.19488525390625 631.0716552734375C126.15994262695312 631.6714477539062 126.11306762695312 632.2622680664062 126.05461120605469 632.8441162109375L126.04774475097656 632.9346313476562C126.0220947265625 633.5670166015625 125.9814682006836 634.2078857421875 125.92544555664062 634.8572387695312L125.66947937011719 637.4977416992188C125.64846801757812 637.7412719726562 125.62552642822266 637.9832153320312 125.60067749023438 638.2236328125L125.50165557861328 639.5010986328125C125.48857879638672 639.7792358398438 125.4726791381836 640.0589599609375 125.45393371582031 640.34033203125L125.26176452636719 643.1014404296875Q125.25711822509766 643.216064453125 125.2518539428711 643.3310546875L125.0625228881836 646.9188232421875L125.14408111572266 649.8649291992188C125.17005920410156 650.7299194335938 125.16971588134766 651.5784912109375 125.14408111572266 652.41064453125V655.7686767578125L125.27486419677734 657.7013549804688C125.32198333740234 658.1025390625 125.36375427246094 658.5081176757812 125.4000473022461 658.9180297851562L125.68096160888672 662.4883422851562C125.79291534423828 663.4124755859375 125.87489318847656 664.3599243164062 125.92544555664062 665.3306884765625L126.14099884033203 669.0758666992188C126.22100067138672 670.614013671875 126.21663665771484 672.10205078125 126.1336669921875 673.5396728515625C126.13775634765625 674.2670288085938 126.12246704101562 675.0064697265625 126.08711242675781 675.7579345703125L126.0067138671875 677.0376586914062C125.99376678466797 677.653564453125 125.96680450439453 678.2777709960938 125.92544555664062 678.9103393554688L125.75672149658203 681.0587768554688C125.74674224853516 681.235595703125 125.73562622070312 681.4130859375 125.7233657836914 681.5912475585938L125.51473999023438 684.5468139648438C125.50199127197266 684.9986572265625 125.48177337646484 685.4549560546875 125.45393371582031 685.9157104492188L125.26753234863281 688.5547485351562C125.26295471191406 688.6895751953125 125.25772857666016 688.8247680664062 125.2518539428711 688.9603881835938L125.03630065917969 694.2279052734375C124.96270751953125 695.8673095703125 124.79927825927734 697.4408569335938 124.552978515625 698.9488525390625L124.24146270751953 701.7451782226562C124.1895523071289 702.1944580078125 124.13117218017578 702.6383056640625 124.06647491455078 703.07666015625L123.52213287353516 707.3660888671875L123.51490783691406 707.4304809570312L123.13676452636719 710.7982788085938C123.12885284423828 710.868408203125 123.12078094482422 710.9383544921875 123.112548828125 711.0081787109375L122.77546691894531 714.879150390625L122.77381896972656 714.9072875976562L122.5574722290039 718.5850830078125C122.54317474365234 718.8080444335938 122.52722930908203 719.0296630859375 122.5096664428711 719.2501220703125L122.40928649902344 722.060791015625C122.3986587524414 722.3043823242188 122.38603973388672 722.5465698242188 122.3714599609375 722.7872924804688L122.35659790039062 723.2368774414062C122.36225128173828 723.6492309570312 122.36189270019531 724.0654907226562 122.35540008544922 724.4857177734375L122.30150604248047 727.4360961914062C122.29780578613281 727.6536254882812 122.29249572753906 727.8700561523438 122.28559112548828 728.0853271484375L122.24761962890625 730.5346069335938V733.6466064453125L122.24854278564453 733.6870727539062L122.26638793945312 734.4675903320312C122.28716278076172 734.9735717773438 122.29894256591797 735.4857788085938 122.30150604248047 736.0042114257812V737.1324462890625C125.32965850830078 741.9140625 126.84628295898438 747.3882446289062 127.02716064453125 752.9313354492188C127.76942443847656 764.5469970703125 122.98786926269531 776.506103515625 112.2325439453125 782.9171752929688C108.76707458496094 785.2346801757812 104.76136016845703 786.8626098632812 100.28871154785156 787.5408935546875C96.82587432861328 788.2174072265625 93.1515884399414 788.2824096679688 89.3447494506836 787.6009521484375C87.79286193847656 787.3861694335938 86.23231506347656 787.0427856445312 84.67183685302734 786.5612182617188C79.7741928100586 785.2828369140625 75.62789154052734 782.9537353515625 72.25910186767578 779.9161376953125C70.2189712524414 778.2706909179688 68.47644805908203 776.43310546875 67.01754760742188 774.4530639648438C66.16233825683594 773.3997192382812 65.3956069946289 772.3154296875 64.7139663696289 771.2062377929688C63.20722579956055 769.0753784179688 61.881126403808594 766.6587524414062 60.778141021728516 763.9420776367188C59.60859298706055 761.3693237304688 58.792911529541016 758.83154296875 58.294288635253906 756.3497924804688C57.85733413696289 754.578857421875 57.56159591674805 752.8499145507812 57.39643096923828 751.1664428710938C57.2092170715332 749.8347778320312 57.09287643432617 748.5346069335938 57.043663024902344 747.2667236328125L57.04228973388672 747.2489624023438C56.92092514038086 745.6764526367188 56.88943099975586 744.154296875 56.941619873046875 742.682861328125C56.93866729736328 742.5095825195312 56.9367561340332 742.3355712890625 56.935890197753906 742.160888671875V727.7653198242188C56.92788314819336 727.2926025390625 56.92782211303711 726.8145751953125 56.935890197753906 726.3314208984375L56.97187042236328 724.3973999023438C56.97020721435547 723.937744140625 56.97611999511719 723.4732055664062 56.989776611328125 723.0038452148438L57.05949783325195 720.894775390625C57.061744689941406 720.3603515625 57.0743408203125 719.8194580078125 57.09754943847656 719.2720947265625L57.31310272216797 715.0689086914062C57.33290481567383 714.6119384765625 57.35969161987305 714.1600341796875 57.393314361572266 713.7132568359375L57.51924133300781 711.59765625C57.54297637939453 710.7320556640625 57.59512710571289 709.8504028320312 57.676841735839844 708.95263671875L58.0233154296875 705.4383544921875C58.06615447998047 704.7774658203125 58.125633239746094 704.1077880859375 58.202247619628906 703.42919921875L58.619873046875 699.6435546875C58.668296813964844 699.2193603515625 58.72247314453125 698.7999877929688 58.78227615356445 698.385498046875L59.242767333984375 694.8189697265625C59.2627067565918 694.6226806640625 59.28409194946289 694.4256591796875 59.306941986083984 694.2279052734375L59.77335739135742 690.387451171875L59.92023468017578 687.5453491210938C59.92947769165039 686.9035034179688 59.953914642333984 686.2525024414062 59.9940071105957 685.5924072265625L60.19608688354492 681.9684448242188C60.240291595458984 681.2406005859375 60.30204772949219 680.526123046875 60.380733489990234 679.8248291015625L60.573299407958984 677.064697265625C60.58556365966797 676.8866577148438 60.598876953125 676.70947265625 60.613224029541016 676.5330810546875L60.65520477294922 675.80419921875C60.66227722167969 675.5966186523438 60.670894622802734 675.3880615234375 60.68107604980469 675.1786499023438L60.7753791809082 672.592041015625C60.782615661621094 672.443359375 60.79059600830078 672.295166015625 60.7993049621582 672.1475219726562L60.81427001953125 671.212158203125L60.77326583862305 670.4549560546875C60.75493240356445 670.2745361328125 60.7376708984375 670.09326171875 60.72148895263672 669.9111328125L60.35663604736328 665.3092651367188C60.31498336791992 664.8855590820312 60.27938461303711 664.4570922851562 60.24997329711914 664.0238647460938L60.06246566772461 661.2251586914062C59.871543884277344 659.6433715820312 59.77421188354492 657.994140625 59.77845764160156 656.2775268554688L59.78633499145508 655.4700317382812L59.789024353027344 655.1942749023438L59.82437515258789 651.5708618164062L59.79076385498047 650.356689453125C59.676856994628906 648.85400390625 59.64919662475586 647.2947998046875 59.71451187133789 645.6793823242188C59.72630310058594 645.1676635742188 59.74760437011719 644.6621704101562 59.77818298339844 644.1627807617188L59.940120697021484 640.2864379882812C59.975223541259766 639.5411376953125 60.028907775878906 638.8095092773438 60.10050582885742 638.091552734375L60.24997329711914 635.9754028320312C60.28913497924805 635.3876342773438 60.339683532714844 634.80859375 60.401302337646484 634.23828125L60.47257995605469 633.3223876953125C60.497501373291016 632.8419189453125 60.53101348876953 632.3566284179688 60.573299407958984 631.8665161132812L60.719505310058594 630.335205078125C60.73527908325195 630.056884765625 60.75389099121094 629.7769775390625 60.7753791809082 629.4954223632812L60.922630310058594 627.5535888671875C60.92715072631836 627.464599609375 60.93195343017578 627.3754272460938 60.937042236328125 627.2860717773438L61.177215576171875 623.5332641601562L61.09870147705078 619.9708251953125C61.08188247680664 619.2743530273438 61.082061767578125 618.588623046875 61.09870147705078 617.9136352539062V614.9727172851562L60.88315200805664 611.1332397460938C60.85967254638672 610.6340942382812 60.84503936767578 610.1403198242188 60.83906173706055 609.65185546875L60.68107604980469 605.5020141601562C60.638023376464844 604.3892211914062 60.63875198364258 603.30322265625 60.68107604980469 602.2440795898438V601.44970703125C60.60765838623047 599.9856567382812 60.61940383911133 598.4708251953125 60.72275924682617 596.9058837890625C60.784847259521484 595.5201416015625 60.914833068847656 594.1812133789062 61.1081428527832 592.8892211914062L61.34052276611328 590.6303100585938C61.34511184692383 590.5715942382812 61.34982681274414 590.5127563476562 61.35466766357422 590.4539184570312L61.692752838134766 586.5342407226562L61.81925964355469 582.2676391601562L61.78883743286133 578.02880859375C61.78764724731445 577.9584350585938 61.78662109375 577.8878784179688 61.785770416259766 577.8172607421875L61.737606048583984 573.5908813476562C61.735469818115234 573.5089721679688 61.733558654785156 573.4268798828125 61.73188018798828 573.3446044921875L61.68337631225586 568.9911499023438C61.68146896362305 568.9335327148438 61.6796760559082 568.8758544921875 61.67799377441406 568.8180541992188L61.46244430541992 562.9307861328125C61.44928741455078 562.4785766601562 61.44331741333008 562.0308837890625 61.44438552856445 561.5877075195312L61.308807373046875 558.26953125C61.29047393798828 558.0151977539062 61.27431869506836 557.75927734375 61.2603645324707 557.5016479492188L60.88315200805664 550.9812622070312C60.86125183105469 550.5703735351562 60.84538650512695 550.1630249023438 60.83544921875 549.75927734375L60.6271858215332 546.5086059570312C60.60712432861328 546.1958618164062 60.590576171875 545.8851318359375 60.5775032043457 545.576416015625L60.27500915527344 540.5568237304688C60.21223068237305 539.8330078125 60.1677360534668 539.0956420898438 60.1422004699707 538.3446044921875L59.94738006591797 532.5C59.88957977294922 531.6051635742188 59.86170959472656 530.6904296875 59.865135192871094 529.755859375C59.85163879394531 528.6805419921875 59.87942123413086 527.6309814453125 59.94643783569336 526.607421875L60.082157135009766 522.1965942382812C60.08658981323242 521.953857421875 60.09312438964844 521.709716796875 60.101783752441406 521.46435546875L60.30385971069336 514.62060546875C60.307899475097656 514.5050659179688 60.31239318847656 514.3898315429688 60.31732940673828 514.27490234375L60.46552276611328 509.8785095214844C60.4708366394043 509.72100830078125 60.47698974609375 509.5641174316406 60.483970642089844 509.4078063964844L60.573299407958984 505.8234558105469V501.9947814941406L60.38419723510742 498.15594482421875L59.9940071105957 493.14642333984375C59.94454574584961 492.4786071777344 59.91122055053711 491.81988525390625 59.8935546875 491.1703186035156L59.624507904052734 486.99627685546875C59.56850814819336 486.3591003417969 59.52724838256836 485.71142578125 59.501216888427734 485.05322265625C59.43653869628906 483.8741760253906 59.42207717895508 482.72442626953125 59.4552001953125 481.6040954589844L59.417972564697266 476.15045166015625C59.416725158691406 476.08135986328125 59.4156379699707 476.01214599609375 59.41471481323242 475.94281005859375L59.31748962402344 468.5292663574219C59.31355667114258 468.41864013671875 59.31003952026367 468.3077087402344 59.306941986083984 468.19647216796875L59.17132568359375 463.1673583984375C59.161521911621094 462.98541259765625 59.152835845947266 462.80267333984375 59.14527893066406 462.6191101074219L58.835426330566406 454.4685974121094C58.831336975097656 454.3692321777344 58.82759475708008 454.27008056640625 58.82420349121094 454.171142578125L58.42630386352539 447.8251647949219L58.41779708862305 447.732666015625L57.88916778564453 441.8390197753906C57.87163543701172 441.697998046875 57.8547477722168 441.5564270019531 57.838504791259766 441.4143371582031L57.043663024902344 434.5167541503906C57.01862716674805 434.2952880859375 56.995418548583984 434.07476806640625 56.974021911621094 433.8551940917969L56.18418502807617 427.5578308105469C56.15972900390625 427.37298583984375 56.13642501831055 427.18719482421875 56.11427688598633 427.0004577636719L56.10063171386719 426.89166259765625C56.003604888916016 426.1029357910156 55.92990493774414 425.325927734375 55.87874221801758 424.56072998046875L55.33266830444336 418.4347229003906C55.323516845703125 418.3573913574219 55.31455612182617 418.2799072265625 55.305789947509766 418.2022705078125L54.36275863647461 409.83624267578125C54.313358306884766 409.39520263671875 54.27119827270508 408.9579162597656 54.23614501953125 408.52435302734375L53.71772766113281 404.29217529296875L52.770748138427734 398.7085876464844C52.611114501953125 397.91510009765625 52.47237014770508 397.102294921875 52.355445861816406 396.2700500488281L51.196861267089844 388.1060791015625C51.10960006713867 387.48358154296875 51.03706741333008 386.8681640625 50.978878021240234 386.2599182128906L50.55200958251953 382.82586669921875C50.312889099121094 381.4656982421875 50.139957427978516 380.0509948730469 50.03828048706055 378.5814514160156L49.512874603271484 371.0506591796875C49.4465446472168 370.0867614746094 49.41375732421875 369.14202880859375 49.41309356689453 368.2165222167969L49.14913558959961 360.9467468261719C49.13608932495117 360.544921875 49.128719329833984 360.1466369628906 49.12691879272461 359.7518615722656L48.73150634765625 351.5837707519531C48.71518325805664 351.22015380859375 48.703556060791016 350.8593444824219 48.69655227661133 350.50140380859375L48.253578186035156 343.02239990234375C48.23597717285156 342.79248046875 48.22014617919922 342.56121826171875 48.20610046386719 342.3285827636719L47.88395309448242 336.3948059082031C47.81975555419922 335.7521667480469 47.76980972290039 335.0986022949219 47.73458480834961 334.4340515136719L47.29403305053711 325.60040283203125L46.104488372802734 314.2262268066406C46.05796432495117 313.79638671875 46.0182991027832 313.3701477050781 45.98537063598633 312.9474792480469L44.979766845703125 303.5171813964844L43.88162612915039 296.2816467285156C43.782588958740234 295.627685546875 43.699951171875 294.98138427734375 43.633262634277344 294.34283447265625L42.46707534790039 285.2751159667969C42.358097076416016 284.4226989746094 42.27648162841797 283.5838317871094 42.22123718261719 282.7586975097656L41.939754486083984 279.7706604003906C41.877174377441406 279.24639892578125 41.82384490966797 278.7146911621094 41.78001022338867 278.1754455566406L41.48296356201172 274.5438232421875C41.41075897216797 273.9062194824219 41.35245132446289 273.2576599121094 41.308494567871094 272.59808349609375L40.99863815307617 267.707763671875C40.96842575073242 267.2456970214844 40.945899963378906 266.78802490234375 40.930904388427734 266.3348083496094L40.675315856933594 262.17083740234375C40.630859375 261.38714599609375 40.608402252197266 260.61639404296875 40.607181549072266 259.8585510253906L40.43327331542969 255.43527221679688C40.382266998291016 254.6757049560547 40.35280990600586 253.9017333984375 40.34574890136719 253.1134796142578C40.311954498291016 251.81724548339844 40.33810806274414 250.5579833984375 40.42066955566406 249.33584594726562L40.51962661743164 245.64810180664062C40.512237548828125 244.85623168945312 40.527915954589844 244.04995727539062 40.56753921508789 243.22933959960938L40.94475173950195 236.1835479736328C40.97736740112305 235.50799560546875 41.02519989013672 234.84368896484375 41.08775329589844 234.19061279296875L41.21522903442383 232.47679138183594C41.238555908203125 231.6566619873047 41.28728103637695 230.82203674316406 41.36238098144531 229.97300720214844L41.82472610473633 224.9302215576172C41.85456848144531 224.43817138671875 41.89348602294922 223.94114685058594 41.941673278808594 223.4391326904297L42.43611526489258 218.5982208251953L42.574851989746094 216.36973571777344V206.9764862060547L42.52700424194336 202.4427032470703C42.524471282958984 202.31973266601562 42.522457122802734 202.19639587402344 42.520965576171875 202.0727081298828L42.4745979309082 197.8649444580078C42.47182846069336 197.77684020996094 42.46931838989258 197.68853759765625 42.46707534790039 197.6000518798828L42.42464828491211 194.9908447265625C42.42054748535156 194.8997802734375 42.41672897338867 194.8085174560547 42.41318893432617 194.71705627441406L42.270450592041016 190.89877319335938L42.21654510498047 190.12142944335938C38.480316162109375 180.6055145263672 39.73749923706055 171.43145751953125 43.96980285644531 163.945068359375C47.6756591796875 156.23251342773438 54.40300750732422 149.9868621826172 64.15182495117188 147.60006713867188C64.2702865600586 146.59083557128906 64.44242095947266 145.57443237304688 64.67089080810547 144.55284118652344C65.38138580322266 140.09349060058594 67.10064697265625 135.73538208007812 69.99593353271484 131.78158569335938C70.55623626708984 130.93963623046875 71.16368103027344 130.12144470214844 71.81909942626953 129.33067321777344C74.58599090576172 125.85476684570312 77.95721435546875 123.21226501464844 81.66851043701172 121.35277557373047C86.1277847290039 118.74957275390625 90.87430572509766 117.48819732666016 95.59043884277344 117.3348388671875C97.1388931274414 117.18863677978516 98.65995025634766 117.16397857666016 100.14838409423828 117.25140380859375C100.37151336669922 117.21118927001953 100.59613800048828 117.17261505126953 100.8222427368164 117.13568115234375C101.8542709350586 116.95570373535156 102.86809539794922 116.81771850585938 103.86337280273438 116.71990966796875L104.49195861816406 116.638427734375L106.12220764160156 116.31686401367188C106.33619689941406 116.27289581298828 106.55158996582031 116.23036193847656 106.76841735839844 116.18939971923828C106.81175994873047 116.18114471435547 106.85507202148438 116.17296600341797 106.89835357666016 116.16485595703125C106.9269027709961 116.15950775146484 106.95543670654297 116.15419006347656 106.98397064208984 116.14898681640625L107.01622009277344 116.14293670654297L111.5105209350586 115.30025482177734C112.75366973876953 115.07273864746094 113.9706802368164 114.90592956542969 115.16095733642578 114.79669189453125L117.42046356201172 114.49089050292969L121.0091323852539 113.79752349853516C121.31135559082031 113.73423767089844 121.61640930175781 113.67379760742188 121.9242935180664 113.61627197265625L124.17363739013672 113.20362091064453C124.89820098876953 113.04534912109375 125.63927459716797 112.90425109863281 126.39696502685547 112.78101348876953L129.52569580078125 112.26887512207031C130.30979919433594 112.11796569824219 131.1125030517578 111.98751068115234 131.9339141845703 111.8783950805664L132.53541564941406 111.80123138427734Z" fill="black"/>
</svg>
