<svg xmlns="http://www.w3.org/2000/svg" viewBox="0 0 608 1000">
  <path d="M53.16672897338867 113.11846923828125C57.319759368896484 110.98887634277344 61.72035598754883 110.56452941894531 65.85151672363281 111.40176391601562C74.56893157958984 111.88705444335938 80.37974548339844 116.57781219482422 83.28395080566406 122.66959381103516H83.77696228027344C84.17760467529297 122.50419616699219 84.57617950439453 122.35111999511719 84.97256469726562 122.2100601196289C85.13920593261719 122.14389038085938 85.3075942993164 122.07915496826172 85.47772216796875 122.0158920288086L85.48147583007812 122.01428985595703C86.86041259765625 121.46693420410156 88.20995330810547 121.05654907226562 89.52555847167969 120.77179718017578C90.26371002197266 120.56127166748047 91.03107452392578 120.3790512084961 91.82801055908203 120.22714233398438C92.15607452392578 120.15885162353516 92.48155975341797 120.09754943847656 92.80445098876953 120.04309844970703L94.23297882080078 119.77356719970703C95.10844421386719 119.6120834350586 95.96395111083984 119.49717712402344 96.79898071289062 119.42622375488281C97.44047546386719 119.32923126220703 98.10006713867188 119.2543716430664 98.77784729003906 119.20281982421875L101.2510986328125 119.03370666503906C101.83396911621094 118.99069213867188 102.40612030029297 118.96673583984375 102.96748352050781 118.9610824584961C103.29811096191406 118.93241882324219 103.63310241699219 118.9098129272461 103.97245788574219 118.89342498779297L104.37965393066406 118.86459350585938C104.861572265625 118.84614562988281 105.33573150634766 118.84039306640625 105.8021011352539 118.84691619873047C106.08710479736328 118.79183959960938 106.37002563476562 118.74172973632812 106.65083312988281 118.69649505615234C108.2384033203125 118.28955841064453 109.951904296875 118.03987884521484 111.79151153564453 117.97225952148438C112.39991760253906 117.92865753173828 112.99711608886719 117.90834045410156 113.58293151855469 117.91028594970703L114.63202667236328 117.70195770263672C114.73060607910156 117.68341827392578 114.82893371582031 117.66547393798828 114.92697143554688 117.64812469482422C115.4681167602539 117.48925018310547 116.02505493164062 117.34487915039062 116.59794616699219 117.21575927734375L119.09233093261719 116.64501190185547C119.94731140136719 116.45230865478516 120.78472900390625 116.30557250976562 121.60399627685547 116.20230865478516C122.1011734008789 116.1114730834961 122.60977935791016 116.03337860107422 123.12986755371094 115.96856689453125L124.51103210449219 115.78522491455078C124.89689636230469 115.7256088256836 125.28936004638672 115.67391204833984 125.68846130371094 115.63040161132812C126.3642807006836 115.54864501953125 127.02679443359375 115.49362182617188 127.67578887939453 115.46410369873047C128.29367065429688 115.39266204833984 128.92745971679688 115.34203338623047 129.5772247314453 115.3132553100586L132.38870239257812 115.14414978027344C133.14476013183594 115.1112289428711 133.8818359375 115.10968017578125 134.5998992919922 115.13784790039062C135.553955078125 115.08573150634766 136.5417022705078 115.0896224975586 137.5626220703125 115.15382385253906C138.13648986816406 115.17334747314453 138.6981658935547 115.21128845214844 139.2476348876953 115.26686096191406C140.32681274414062 115.3115463256836 141.43997192382812 115.43547058105469 142.5853729248047 115.64521026611328C143.91244506835938 115.83849334716797 145.16232299804688 116.12423706054688 146.33584594726562 116.49232482910156L146.9956817626953 116.64501190185547C147.68455505371094 116.82244110107422 148.34930419921875 117.02154541015625 148.9902801513672 117.24102020263672C161.51197814941406 111.32740783691406 179.86668395996094 117.67475891113281 179.86668395996094 136.28305053710938V138.5482940673828C180.1149444580078 138.99571228027344 180.34619140625 139.44198608398438 180.56088256835938 139.8868408203125L180.75440979003906 140.25741577148438L182.4244842529297 142.9840850830078C182.6150665283203 143.3003387451172 182.79690551757812 143.61619567871094 182.9701690673828 143.9315643310547L184.7113494873047 146.87066650390625L186.9693603515625 149.74853515625C187.54583740234375 150.5135955810547 188.06393432617188 151.28195190429688 188.52626037597656 152.0516357421875L189.73623657226562 153.7775115966797C189.80068969726562 153.8642120361328 189.8648681640625 153.9516143798828 189.92880249023438 154.03973388671875L191.7750244140625 156.5885009765625C191.82208251953125 156.6475372314453 191.86903381347656 156.7069091796875 191.91586303710938 156.7666473388672L194.5582275390625 160.06431579589844C195.06588745117188 160.71499633789062 195.5301513671875 161.36900329589844 195.95266723632812 162.02503967285156L197.51524353027344 164.23455810546875L200.75192260742188 167.9914093017578C201.08316040039062 168.3697509765625 201.3983612060547 168.7501983642578 201.69789123535156 169.13243103027344L203.88047790527344 171.71185302734375C204.65203857421875 172.63917541503906 205.3310089111328 173.5764923095703 205.92245483398438 174.51950073242188L208.67901611328125 178.2437744140625C209.21469116210938 178.98590087890625 209.69691467285156 179.7300262451172 210.12802124023438 180.47447204589844L210.1639404296875 180.5281524658203C210.59222412109375 181.10784912109375 211.00668334960938 181.7201385498047 211.4059295654297 182.36585998535156L212.66799926757812 184.38841247558594C212.79014587402344 184.5785675048828 212.9107666015625 184.7718048095703 213.02978515625 184.9681854248047L213.0547637939453 185.0082244873047C213.5041961669922 185.73255920410156 213.9071807861328 186.45538330078125 214.26571655273438 187.1754608154297L215.2060546875 188.8994140625C215.57778930664062 189.52243041992188 215.93223571777344 190.17694091796875 216.26788330078125 190.86370849609375L218.9690704345703 196.38653564453125C219.23463439941406 196.8672332763672 219.49005126953125 197.3655548095703 219.7346649169922 197.88182067871094L223.06597900390625 204.9996795654297L226.43568420410156 211.34730529785156C226.584228515625 211.6342315673828 226.72616577148438 211.92042541503906 226.861572265625 212.20584106445312L229.98519897460938 218.044921875L229.98703002929688 218.04833984375L232.7985076904297 223.16395568847656C233.0570526123047 223.64810180664062 233.2964324951172 224.1304168701172 233.5172119140625 224.61062622070312L234.45777893066406 226.39324951171875C234.67857360839844 226.7643280029297 234.8936309814453 227.14642333984375 235.10264587402344 227.53970336914062L237.2941436767578 231.69313049316406L237.3222198486328 231.746337890625C237.46063232421875 232.00677490234375 237.59347534179688 232.26666259765625 237.7208709716797 232.52593994140625L238.71653747558594 234.47300720214844C238.9192657470703 234.8228302001953 239.11692810058594 235.18223571777344 239.3092803955078 235.5513458251953L241.09866333007812 238.97103881835938C241.13658142089844 239.042724609375 241.17428588867188 239.11480712890625 241.2117919921875 239.18724060058594L242.06442260742188 240.8020782470703C242.23081970214844 241.10203552246094 242.3929443359375 241.40896606445312 242.55062866210938 241.72293090820312L242.60694885253906 241.82960510253906C243.13894653320312 242.85462951660156 243.5860137939453 243.87022399902344 243.9532928466797 244.87374877929688L246.75018310546875 251.40553283691406C247.1074981689453 252.25892639160156 247.4111785888672 253.10202026367188 247.6639862060547 253.9336700439453L250.09922790527344 260.54150390625C250.25 260.89837646484375 250.39501953125 261.263427734375 250.53404235839844 261.6367492675781L253.53440856933594 269.7984924316406C253.75857543945312 270.30902099609375 253.9706573486328 270.83673095703125 254.16993713378906 271.3818054199219L257.4352722167969 280.4374694824219C257.5630798339844 280.7458190917969 257.6866455078125 281.06011962890625 257.8058166503906 281.3804931640625L260.3636474609375 288.3140563964844C260.453125 288.5545654296875 260.5384826660156 288.7940979003906 260.61981201171875 289.03265380859375L262.05670166015625 292.7760925292969C262.2779235839844 293.2533264160156 262.48883056640625 293.74591064453125 262.68890380859375 294.25408935546875L264.6548156738281 299.36968994140625C264.8232421875 299.8009948730469 264.978271484375 300.2293395996094 265.1202392578125 300.6546325683594L266.3307800292969 303.66912841796875C266.49725341796875 304.0446472167969 266.65740966796875 304.4294128417969 266.8110046386719 304.82354736328125L270.20452880859375 313.6068115234375C270.3990478515625 314.02813720703125 270.5856628417969 314.4613952636719 270.76397705078125 314.90679931640625L273.7145080566406 322.3326416015625L277.9175109863281 331.5861511230469C278.1029357910156 331.92938232421875 278.2833251953125 332.2814025878906 278.4585266113281 332.642333984375L283.65869140625 343.4654541015625Q283.74993896484375 343.6534423828125 283.8374938964844 343.8409118652344L289.0279846191406 353.4641418457031C289.1670837402344 353.72589111328125 289.30059814453125 353.987060546875 289.4285888671875 354.2476501464844L293.8053894042969 362.2156677246094L298.1593933105469 370.1427307128906L303.6591796875 378.9665832519531L303.7195129394531 379.0633850097656L306.6155700683594 383.6927795410156C306.9716796875 384.2695007324219 307.2983703613281 384.84527587890625 307.5965881347656 385.4194641113281L309.02349853515625 387.797607421875C309.1815490722656 388.04486083984375 309.33721923828125 388.2972106933594 309.4904479980469 388.55474853515625L312.6462707519531 393.902099609375C312.89691162109375 394.2842102050781 313.1416015625 394.67901611328125 313.3800048828125 395.086669921875L316.3490295410156 400.1961364746094C316.6060791015625 400.59326171875 316.856689453125 401.0039367675781 317.1004638671875 401.4283447265625L320.32928466796875 407.0591125488281C320.40948486328125 407.1958923339844 320.4888916015625 407.33416748046875 320.5675048828125 407.4739074707031L320.58056640625 407.4971618652344C320.85589599609375 407.97467041015625 321.1119079589844 408.4510498046875 321.34906005859375 408.92584228515625L325.2812194824219 416.2889709472656C325.6922912597656 417.07513427734375 326.05322265625 417.85601806640625 326.36639404296875 418.63043212890625L329.09112548828125 424.593505859375C329.433349609375 425.2396545410156 329.7563781738281 425.9169006347656 330.05859375 426.62591552734375L333.2687683105469 434.12872314453125C333.3850402832031 434.3717956542969 333.498779296875 434.618896484375 333.60992431640625 434.8700866699219L338.7570495605469 446.4809875488281C338.9516296386719 446.89715576171875 339.1385498046875 447.3250427246094 339.31744384765625 447.7648010253906L344.1622619628906 459.8386535644531C344.2250671386719 459.9701843261719 344.28717041015625 460.1028747558594 344.3485107421875 460.23675537109375L350.1194152832031 472.9412536621094L355.0870666503906 483.5952453613281C355.3998107910156 484.2762145996094 355.6772155761719 484.9515686035156 355.92071533203125 485.6206359863281L359.4459228515625 493.5603332519531L359.46282958984375 493.5939636230469L365.087890625 504.9471130371094L368.7850646972656 511.92138671875C369.0052795410156 512.3467407226562 369.2109375 512.7704467773438 369.4023742675781 513.1923828125L371.9981994628906 517.9459838867188Q372.1038513183594 518.144775390625 372.2052001953125 518.3431396484375L375.14788818359375 523.738037109375C375.24359130859375 523.9110107421875 375.3367919921875 524.0838012695312 375.4275207519531 524.25634765625L378.38372802734375 529.3416748046875L378.5301208496094 529.593505859375L384.1530456542969 539.3385620117188C384.45074462890625 539.8568725585938 384.72564697265625 540.3735961914062 384.9784240722656 540.888427734375L386.9372253417969 544.3661499023438C387.5329284667969 545.234130859375 388.0932922363281 546.171630859375 388.6133728027344 547.1810913085938L393.5674133300781 556.9280395507812L399.1828308105469 565.6776123046875C399.5426940917969 566.2490844726562 399.87347412109375 566.8197021484375 400.17608642578125 567.3890380859375L405.0382995605469 575.5917358398438C405.2839660644531 576.0089721679688 405.5146789550781 576.4253540039062 405.7308044433594 576.8407592773438L408.9278564453125 582.1025390625C409.0043640136719 582.2296142578125 409.0794982910156 582.3566284179688 409.1531982421875 582.4835815429688L412.290771484375 587.3119506835938L414.671875 590.7348022460938L414.6987609863281 590.7694702148438L418.26513671875 595.3693237304688L422.3721923828125 600.3665771484375C422.7266845703125 600.8013305664062 423.06121826171875 601.2379150390625 423.3762512207031 601.6760864257812L426.91705322265625 605.8837890625C427.1479187011719 606.162353515625 427.3704528808594 606.4417114257812 427.5848388671875 606.7218627929688L432.2320251464844 612.1209716796875C432.7035217285156 612.6246337890625 433.1659240722656 613.1594848632812 433.61810302734375 613.7263793945312L439.5581359863281 621.167236328125L439.57568359375 621.1893920898438L444.88336181640625 627.05859375L444.9273986816406 627.1072998046875L449.6202392578125 632.3074340820312C450.0231628417969 632.7560424804688 450.4031066894531 633.2079467773438 450.76068115234375 633.6626586914062L453.49639892578125 636.8423461914062C453.692626953125 637.0586547851562 453.88739013671875 637.2803955078125 454.08056640625 637.5076293945312L458.3083190917969 642.4752807617188C458.47906494140625 642.6768798828125 458.6453552246094 642.8789672851562 458.8072814941406 643.08154296875L459.5205383300781 643.9481811523438C459.7454833984375 644.1900634765625 459.96856689453125 644.4389038085938 460.189697265625 644.69482421875L462.0921936035156 646.935546875C462.1427001953125 646.994140625 462.19281005859375 647.0527954101562 462.2425537109375 647.1115112304688L464.1196594238281 649.1763305664062C464.6969299316406 649.75830078125 465.2619323730469 650.3849487304688 465.8126525878906 651.0576782226562L468.53955078125 654.4398803710938C469.1058349609375 655.1348876953125 469.6207580566406 655.8350219726562 470.0865173339844 656.5383911132812L472.29693603515625 659.5645141601562L472.8094177246094 660.26611328125L472.83074951171875 660.2953491210938C473.2522888183594 660.8823852539062 473.6404724121094 661.4706420898438 473.99639892578125 662.0592041015625L475.9575500488281 665.0864868164062C476.3602294921875 665.6639404296875 476.7488098144531 666.2721557617188 477.1219482421875 666.9118041992188L480.27166748046875 672.2811279296875C480.3646545410156 672.4407348632812 480.4554443359375 672.6002807617188 480.5440979003906 672.7596435546875L481.9205017089844 675.1771240234375C482.0106201171875 675.3316040039062 482.09869384765625 675.4859008789062 482.1847229003906 675.64013671875L482.7676696777344 676.604248046875C483.0120849609375 676.9694213867188 483.251220703125 677.3462524414062 483.4847717285156 677.7349243164062L485.4718322753906 681.0325927734375C486.30999755859375 682.4364624023438 486.9773254394531 683.8321533203125 487.48797607421875 685.2109985351562L489.4248046875 689.361328125C489.93817138671875 690.4734497070312 490.35687255859375 691.57080078125 490.687255859375 692.650390625L492.48992919921875 697.4575805664062C492.71209716796875 698.0725708007812 492.9077453613281 698.6810913085938 493.07781982421875 699.2827758789062L493.7875671386719 701.2822265625C493.9084167480469 701.5733032226562 494.0255432128906 701.8696899414062 494.1387634277344 702.1715087890625L495.4806823730469 705.75634765625L496.8656921386719 709.1896362304688C496.9750671386719 709.455322265625 497.07928466796875 709.719970703125 497.17840576171875 709.9835815429688L497.9073791503906 711.7508544921875C498.02838134765625 712.0197143554688 498.146240234375 712.2933959960938 498.2608642578125 712.5718383789062L499.1228332519531 714.6902465820312C499.3326416015625 715.166259765625 499.5316467285156 715.6572875976562 499.7192077636719 716.1633911132812C499.9214172363281 716.6829223632812 500.1037902832031 717.1983032226562 500.2668762207031 717.7094116210938L500.2808532714844 717.7492065429688C500.7432556152344 718.8345336914062 501.1435241699219 719.9970703125 501.4739685058594 721.2388305664062L502.19024658203125 723.9785766601562C502.2052917480469 724.030517578125 502.2201843261719 724.0825805664062 502.2349853515625 724.1348266601562L503.5295104980469 728.7881469726562C503.6880798339844 729.2876586914062 503.83453369140625 729.8010864257812 503.9683532714844 730.3285522460938L504.24066162109375 731.3930053710938C509.6302490234375 732.744873046875 514.4775390625 736.1275634765625 517.2352905273438 741.6929321289062L517.6943969726562 739.4417724609375L517.7509155273438 739.1646118164062C517.79248046875 738.9658813476562 517.8359375 738.76904296875 517.8811645507812 738.5740966796875L518.4722900390625 735.8933715820312L518.4907836914062 735.7824096679688L518.91357421875 733.414794921875V732.2353515625C518.9075317382812 731.9066772460938 518.9075317382812 731.5740966796875 518.91357421875 731.237548828125L518.9837036132812 728.2921142578125C518.9830932617188 727.9807739257812 518.9878540039062 727.6660766601562 518.9981079101562 727.3479614257812L519.093505859375 724.6365356445312C519.079833984375 723.9102172851562 519.0968017578125 723.1651611328125 519.1461181640625 722.4014282226562L519.39208984375 719.510986328125C519.4188232421875 718.7862548828125 519.4772338867188 718.0444946289062 519.5689086914062 717.2858276367188L519.8225708007812 715.3833618164062C519.8696899414062 714.993408203125 519.9242553710938 714.6099243164062 519.9861450195312 714.2328491210938L520.2241821289062 712.4873046875C520.3033447265625 711.9556884765625 520.3963012695312 711.4365234375 520.50244140625 710.9297485351562C520.5638427734375 710.44091796875 520.6400146484375 709.9453735351562 520.7315063476562 709.4432983398438L521.2760009765625 706.5531005859375C521.3486328125 705.9822998046875 521.4417114257812 705.4025268554688 521.555908203125 704.8139038085938L522.2923583984375 701.2001953125L522.2957763671875 701.177978515625L522.781982421875 698.1912841796875V635.4571533203125L522.7001953125 628.8898315429688C522.6991577148438 628.8453369140625 522.6982421875 628.80078125 522.6974487304688 628.756103515625L522.5576171875 621.3462524414062C522.5545043945312 621.2586669921875 522.5517578125 621.1708374023438 522.5494384765625 621.0827026367188L522.3148193359375 612.8321533203125C522.3074340820312 612.694091796875 522.3011474609375 612.5552368164062 522.2957763671875 612.4157104492188L522.0679321289062 606.3972778320312C522.0582885742188 606.255126953125 522.0496826171875 606.1121215820312 522.0421142578125 605.9683837890625L521.665771484375 598.2423095703125C521.6565551757812 598.1195678710938 521.6481323242188 597.9961547851562 521.6405029296875 597.8721923828125L521.1663818359375 590.1672973632812C521.1541137695312 590.0166015625 521.14306640625 589.8650512695312 521.1331787109375 589.7125244140625L520.8161010742188 584.5758056640625C520.7842407226562 584.0828247070312 520.7659301757812 583.59765625 520.7606201171875 583.120361328125L520.64697265625 580.9610595703125C520.6190795898438 580.3712768554688 520.6103515625 579.79296875 520.6199340820312 579.2261962890625L520.5623779296875 577.1560668945312C520.552490234375 576.063232421875 520.606689453125 575.0120239257812 520.7197875976562 574.0025634765625C520.7295532226562 573.3894653320312 520.7612915039062 572.7635498046875 520.8161010742188 572.125L521.1331787109375 568.15087890625C521.1577758789062 567.8606567382812 521.1866455078125 567.5737915039062 521.2196655273438 567.2903442382812L521.2228393554688 567.2321166992188Q521.2188720703125 567.037109375 521.2177124023438 566.8402709960938V563.8596801757812L521.155029296875 559.6895141601562C521.1209106445312 559.0543823242188 521.1112670898438 558.4042358398438 521.1275024414062 557.7393798828125C521.124267578125 556.37744140625 521.2224731445312 555.0809936523438 521.412109375 553.8501586914062L521.6405029296875 551.204345703125V548.3793334960938C521.570068359375 547.193603515625 521.58642578125 545.9559326171875 521.6976928710938 544.6672973632812C521.7314453125 544.1531982421875 521.7798461914062 543.6493530273438 521.8423461914062 543.15576171875L522.1444702148438 540.02978515625L522.1987915039062 536.8359375L522.0938110351562 533.2017211914062C522.0238037109375 532.5384521484375 521.97802734375 531.857177734375 521.9575805664062 531.1577758789062L521.873046875 526.4437866210938C521.8646850585938 526.1573486328125 521.8607788085938 525.873779296875 521.8612060546875 525.5929565429688L521.8084716796875 523.22265625C521.7967529296875 522.9256591796875 521.7899169921875 522.6253051757812 521.7880249023438 522.3217163085938C521.787841796875 522.2936401367188 521.7876586914062 522.2655639648438 521.7876586914062 522.2374267578125C521.7836303710938 521.7520141601562 521.7922973632812 521.2748413085938 521.813232421875 520.8058471679688L521.8536376953125 518.9885864257812C521.845703125 518.4879760742188 521.85205078125 517.9783935546875 521.873046875 517.4597778320312L521.999755859375 513.7359619140625C522.0020751953125 513.119384765625 522.0272827148438 512.4898071289062 522.076171875 511.8476867675781C522.1121215820312 511.2914733886719 522.1643676757812 510.74725341796875 522.232177734375 510.21502685546875L522.6810913085938 505.7396240234375L522.6160278320312 500.22613525390625C522.6148681640625 500.18572998046875 522.6138305664062 500.145263671875 522.6128540039062 500.104736328125L522.4805908203125 495.0977783203125C522.4743041992188 494.9566345214844 522.4690551757812 494.814697265625 522.4649047851562 494.6720275878906L522.2277221679688 487.2605285644531C522.221435546875 487.1385498046875 522.2159423828125 487.0160217285156 522.2112426757812 486.8929138183594L521.889404296875 478.80572509765625C521.8833618164062 478.6974792480469 521.8778686523438 478.58880615234375 521.873046875 478.4796447753906L521.555908203125 470.2143249511719C521.5465698242188 469.98858642578125 521.5400390625 469.7645263671875 521.5362548828125 469.54217529296875L521.2177124023438 461.3782653808594C521.1983032226562 460.7772521972656 521.1986083984375 460.1883850097656 521.2177124023438 459.6116943359375V454.3601379394531C521.2177124023438 453.3180236816406 521.275634765625 452.31451416015625 521.3871459960938 451.34954833984375L521.509765625 448.3146057128906C521.513427734375 447.86358642578125 521.5286865234375 447.4054870605469 521.555908203125 446.9403991699219L521.9574584960938 440.32391357421875L521.9575805664062 440.3219909667969L521.8749389648438 431.9349670410156L521.873046875 431.91064453125L521.8709106445312 431.8790588378906L521.3905639648438 424.7099304199219C521.357421875 424.4426574707031 521.3280029296875 424.1723327636719 521.30224609375 423.89898681640625L520.64697265625 416.2889709472656L520.6270141601562 416.0677185058594L520.052001953125 409.6885681152344C520.0023803710938 409.2547912597656 519.9629516601562 408.8131408691406 519.93408203125 408.36376953125C519.8931274414062 407.8448181152344 519.86767578125 407.33428955078125 519.8570556640625 406.8322448730469L519.7721557617188 405.063720703125C519.6030883789062 403.78631591796875 519.53173828125 402.4405212402344 519.5689086914062 401.0267028808594L519.8225708007812 394.0085754394531C519.8244018554688 393.9396667480469 519.826416015625 393.8709411621094 519.8287353515625 393.8023986816406L519.9013671875 387.64666748046875L519.7487182617188 380.931640625L519.2435913085938 375.0577087402344C519.1001586914062 374.03814697265625 519.017578125 372.97406005859375 519.0011596679688 371.8655090332031C518.97802734375 371.24310302734375 518.9773559570312 370.6335144042969 518.9981079101562 370.0368347167969V336.8701171875L518.9151611328125 325.11328125L518.91357421875 324.8843688964844V291.2100830078125L518.9951782226562 281.00445556640625C518.9944458007812 280.82794189453125 518.9954223632812 280.6502685546875 518.9981079101562 280.4715270996094L519.07275390625 273.9800720214844C519.0672607421875 273.58465576171875 519.0704956054688 273.18359375 519.0827026367188 272.7769470214844L519.2306518554688 266.26617431640625C519.2569580078125 265.45166015625 519.31787109375 264.6617126464844 519.411376953125 263.89630126953125L519.585693359375 260.3658142089844C519.5884399414062 259.7864074707031 519.6107788085938 259.19537353515625 519.6534423828125 258.5927429199219L519.9071044921875 254.53408813476562C519.9509887695312 253.90538024902344 520.0149536132812 253.29220581054688 520.0980224609375 252.69448852539062L520.24169921875 250.90708923339844C520.2576904296875 250.5764923095703 520.280029296875 250.24234008789062 520.3087158203125 249.9046630859375L520.9468994140625 242.35597229003906C520.9676513671875 241.88473510742188 521.0014038085938 241.40628051757812 521.048583984375 240.92062377929688L521.868408203125 232.56979370117188C521.8907470703125 232.21473693847656 521.92041015625 231.85569763183594 521.9575805664062 231.49267578125L522.6165771484375 225.2417449951172L523.03564453125 218.78819274902344C523.0416259765625 218.69580078125 523.048095703125 218.603759765625 523.054931640625 218.5120391845703L523.1202392578125 215.6385040283203C523.1503295898438 214.85211181640625 523.2125854492188 214.0889129638672 523.3051147460938 213.3488311767578L523.3333129882812 212.77120971679688C523.3406372070312 212.4412078857422 523.3540649414062 212.1074981689453 523.3739013671875 211.77008056640625L523.6771850585938 206.4730224609375L523.6909790039062 206.231689453125L524.0112915039062 200.1255340576172L524.0291748046875 199.78431701660156L524.032470703125 199.73147583007812L524.4308471679688 193.35809326171875C524.4391479492188 193.2180633544922 524.4484252929688 193.0788116455078 524.458740234375 192.94029235839844L524.77001953125 187.3365478515625C524.767578125 187.13963317871094 524.7672729492188 186.94131469726562 524.76904296875 186.7416229248047L524.8372802734375 180.7529754638672L524.50927734375 178.19921875C524.4815063476562 178.01821899414062 524.455322265625 177.8357696533203 524.4308471679688 177.65188598632812L523.6063842773438 171.31021118164062C523.4929809570312 170.43931579589844 523.4239501953125 169.59030151367188 523.396728515625 168.76348876953125L523.19384765625 166.8721923828125C523.0131225585938 165.81979370117188 522.9007568359375 164.7185821533203 522.86328125 163.5687713623047C522.7659912109375 162.0747528076172 522.79931640625 160.65118408203125 522.949462890625 159.29962158203125L522.9827270507812 158.32179260253906C522.9697875976562 157.60333251953125 522.9868774414062 156.86648559570312 523.03564453125 156.11134338378906L523.2481079101562 153.46885681152344C523.263427734375 152.53240966796875 523.3323364257812 151.5669403076172 523.4584350585938 150.5729522705078L523.4956665039062 150.3024444580078C523.573974609375 149.08924865722656 523.7489013671875 147.83294677734375 524.0291748046875 146.53541564941406L524.367431640625 145.03456115722656C524.4402465820312 144.69757080078125 524.5184326171875 144.3660430908203 524.601806640625 144.0399627685547C524.7305297851562 143.4692840576172 524.882080078125 142.89170837402344 525.05712890625 142.30755615234375C525.0430908203125 141.9916534423828 525.0363159179688 141.67547607421875 525.0365600585938 141.3592987060547C524.4738159179688 135.60562133789062 526.1845092773438 130.71961975097656 529.2059326171875 126.98164367675781C532.1182861328125 123.01534271240234 536.5668334960938 120.06584930419922 542.5516357421875 119.20590209960938C545.13916015625 118.71759033203125 547.8038940429688 118.6633071899414 550.3888549804688 119.08876037597656C562.6196899414062 120.36170196533203 568.76416015625 130.13461303710938 568.8221435546875 139.94781494140625C569.1085815429688 142.07814025878906 569.0428466796875 144.33985900878906 568.55419921875 146.70068359375C568.1459350585938 149.91587829589844 567.0762329101562 152.71328735351562 565.531494140625 155.0750274658203L565.3258056640625 157.6333770751953C565.3235473632812 157.81541442871094 565.3193969726562 157.9986114501953 565.3134765625 158.18295288085938L565.1796264648438 162.16415405273438L565.6516723632812 166.4271240234375C565.6614379882812 166.52212524414062 565.670654296875 166.61683654785156 565.6793823242188 166.71128845214844L566.3915405273438 172.13462829589844C566.4326171875 172.45065307617188 566.4678955078125 172.76380920410156 566.4974365234375 173.07406616210938L566.6912841796875 174.63922119140625C566.9132690429688 175.77951049804688 567.0553588867188 176.9794158935547 567.109130859375 178.23875427246094C567.21435546875 179.5968475341797 567.2091064453125 180.898193359375 567.1039428710938 182.14144897460938L567.0645141601562 185.6119842529297C567.0963745117188 186.40908813476562 567.0912475585938 187.22958374023438 567.046875 188.0733642578125L566.6827392578125 194.9530792236328C566.6749877929688 195.2429962158203 566.6625366210938 195.53575134277344 566.6452026367188 195.8313446044922L566.222412109375 202.34213256835938L565.8842163085938 208.78948974609375C565.8753051757812 208.93408203125 565.8652954101562 209.07786560058594 565.854248046875 209.22084045410156L565.567138671875 214.15878295898438C565.5581665039062 214.31246948242188 565.5479125976562 214.46524047851562 565.5364990234375 214.6171112060547L565.3980102539062 217.45645141601562C565.3869018554688 217.68124389648438 565.3731079101562 217.90411376953125 565.3568115234375 218.12506103515625L565.285888671875 219.6776580810547C565.2879638671875 220.2775421142578 565.269287109375 220.89004516601562 565.2289428710938 221.51512145996094L564.8272705078125 227.94134521484375C564.7847290039062 228.63233947753906 564.7177734375 229.30474853515625 564.6277465820312 229.95863342285156L564.0662841796875 235.78387451171875C564.0494995117188 235.94764709472656 564.0314331054688 236.11033630371094 564.0120239257812 236.27191162109375L563.1572875976562 244.95816040039062C563.1372680664062 245.1661834716797 563.1150512695312 245.37242126464844 563.0906982421875 245.57691955566406L562.4174194335938 253.54055786132812C562.4011840820312 253.7315216064453 562.383056640625 253.9210205078125 562.3631591796875 254.1090545654297L562.100341796875 257.68377685546875C562.0881958007812 257.83624267578125 562.0748291015625 257.98779296875 562.060302734375 258.1383972167969L561.8466796875 261.4676513671875C561.8320922851562 261.6741638183594 561.8153686523438 261.8789978027344 561.7965087890625 262.0821838378906L561.5084838867188 267.9150085449219C561.5034790039062 268.0230712890625 561.497802734375 268.1307067871094 561.4915771484375 268.2378845214844L561.3604736328125 274.0241394042969C561.3587036132812 274.0788879394531 561.3567504882812 274.1335144042969 561.3546752929688 274.18804931640625L561.2759399414062 281.0422668457031C561.2752075195312 281.089599609375 561.2744140625 281.1368408203125 561.2734375 281.1839904785156L561.1920776367188 291.3580627441406L561.19140625 324.8843688964844L561.2742919921875 336.5556945800781L561.2759399414062 336.7855529785156V370.6087341308594L561.7975463867188 376.6148376464844C561.9188842773438 377.52923583984375 561.9928588867188 378.479248046875 562.0158081054688 379.4649963378906L562.177734375 386.5890197753906L562.1849365234375 386.9059143066406C562.1974487304688 387.44476318359375 562.1942749023438 387.9736633300781 562.1759643554688 388.49261474609375L562.1089477539062 394.1882019042969C562.1116943359375 394.5052490234375 562.10888671875 394.82586669921875 562.100341796875 395.15008544921875L561.8810424804688 401.2354736328125L562.0949096679688 405.6903991699219L562.7282104492188 412.05987548828125L562.7556762695312 412.33599853515625L562.7827758789062 412.65313720703125L563.2880249023438 418.5697326660156C563.3789672851562 419.20135498046875 563.448486328125 419.850341796875 563.4955444335938 420.5167541503906L564.0662841796875 429.01458740234375C564.0748901367188 429.1416015625 564.0825805664062 429.2680969238281 564.0894165039062 429.3940734863281L564.1508178710938 430.17724609375C564.2210083007812 431.2648010253906 564.2257080078125 432.3145751953125 564.1697387695312 433.326171875L564.216064453125 438.036865234375C564.2904052734375 439.0882873535156 564.2987060546875 440.1819152832031 564.2354125976562 441.31744384765625L563.7492065429688 449.41363525390625C563.7390747070312 449.5959777832031 563.7271728515625 449.7770080566406 563.713623046875 449.956787109375L563.4955444335938 455.3536682128906V459.8985290527344L563.8058471679688 467.8504333496094C563.81689453125 468.0311584472656 563.826171875 468.213134765625 563.833740234375 468.3963928222656L564.1508178710938 476.7462463378906C564.1574096679688 476.90618896484375 564.16259765625 477.0652770996094 564.1664428710938 477.2235107421875L564.4890747070312 485.3286437988281Q564.5033569335938 485.7021484375 564.507568359375 486.06939697265625L564.7427368164062 493.3403015136719C564.7518920898438 493.6540832519531 564.7557373046875 493.9645080566406 564.75439453125 494.2716064453125L564.8272705078125 499.04779052734375C564.8334350585938 499.28240966796875 564.8366088867188 499.5151672363281 564.8368530273438 499.74603271484375L564.9285278320312 504.1988525390625C565.03955078125 505.4740295410156 565.0488891601562 506.8114929199219 564.9458618164062 508.2101745605469C564.9065551757812 509.004638671875 564.8316650390625 509.7753601074219 564.7235717773438 510.522216796875L564.299072265625 514.7533569335938L564.1508178710938 519.108642578125C564.1442260742188 519.271728515625 564.13623046875 519.4337768554688 564.1268920898438 519.5948486328125L564.07080078125 522.1181030273438L564.132568359375 524.821044921875C564.1400146484375 524.9805297851562 564.1461181640625 525.1409301757812 564.1508178710938 525.3023071289062L564.2305908203125 529.7273559570312C564.2322998046875 529.7672119140625 564.23388671875 529.8071899414062 564.2354125976562 529.84716796875L564.4666137695312 535.1835327148438L564.4700317382812 535.2625732421875L564.4890747070312 535.70263671875C564.52294921875 536.58740234375 564.5140380859375 537.4459228515625 564.4649047851562 538.278076171875L564.4337768554688 540.0986938476562C564.4679565429688 541.1426391601562 564.4354248046875 542.2256469726562 564.3307495117188 543.34716796875C564.3042602539062 543.6934814453125 564.271240234375 544.0352172851562 564.2318725585938 544.3721923828125L563.9182739257812 547.6170043945312V550.778076171875C563.9373168945312 551.3585815429688 563.9360961914062 551.9512329101562 563.9136962890625 552.5557250976562C563.8944091796875 553.6041870117188 563.8161010742188 554.6126708984375 563.68310546875 555.5811767578125L563.42626953125 558.5133056640625L563.4955444335938 563.1198120117188C563.5016479492188 563.4569091796875 563.5015869140625 563.7901611328125 563.4955444335938 564.119384765625V565.1886596679688C563.5363159179688 566.0166015625 563.537109375 566.8701171875 563.4955444335938 567.7492065429688L563.4234619140625 569.0826416015625C563.4349365234375 569.9306030273438 563.4035034179688 570.8038940429688 563.326416015625 571.7022094726562L563.0235595703125 574.6988525390625C563.0194091796875 574.7988891601562 563.0146484375 574.8992309570312 563.0093383789062 574.9998779296875L562.8662719726562 577.593017578125L562.9247436523438 579.7138671875C562.9277954101562 579.9879150390625 562.9268798828125 580.2593383789062 562.9219970703125 580.5281982421875L562.9566650390625 581.186767578125C562.9768676757812 581.4124755859375 562.9944458007812 581.6401977539062 563.0093383789062 581.8699951171875L563.326416015625 586.9856567382812C563.3400268554688 587.1967163085938 563.3511962890625 587.4063720703125 563.3599243164062 587.6145629882812L563.833740234375 595.3143920898438C563.854248046875 595.6473388671875 563.8685913085938 595.9766845703125 563.876953125 596.302490234375L564.3199462890625 603.8333129882812C564.3392333984375 604.2171630859375 564.3504638671875 604.59619140625 564.353759765625 604.9703369140625L564.5736083984375 610.8514404296875C564.585693359375 611.1671142578125 564.5923461914062 611.4794311523438 564.5936279296875 611.7883911132812L564.8272705078125 620.0045776367188C564.833251953125 620.2314453125 564.8363647460938 620.45654296875 564.8367919921875 620.679931640625L564.9752197265625 628.0162353515625C564.9783935546875 628.1940307617188 564.9799194335938 628.3707275390625 564.979736328125 628.54638671875L565.059814453125 634.9498291015625C565.0625 635.175048828125 565.0625 635.3985595703125 565.059814453125 635.6202392578125V641.2280883789062L565.0597534179688 641.2703247070312V641.284423828125L565.059814453125 641.3126220703125V651.8822631835938L565.0599365234375 651.9666137695312L565.059814453125 652.0512084960938V697.2818603515625C565.1795043945312 698.7352294921875 565.1605834960938 700.2665405273438 564.9859008789062 701.873291015625C564.8848876953125 703.2206420898438 564.68212890625 704.496826171875 564.3883666992188 705.7017822265625L564.1040649414062 707.3995361328125C564.0857543945312 707.5164794921875 564.0665283203125 707.6338500976562 564.0465087890625 707.7515258789062C563.9793701171875 708.1741943359375 563.9034423828125 708.5891723632812 563.8191528320312 708.9962158203125L563.0938720703125 712.99462890625C563.0105590820312 713.4169311523438 562.9188842773438 713.8309326171875 562.819091796875 714.2366333007812L562.3328857421875 717.0321655273438C562.264404296875 717.4038696289062 562.1893310546875 717.7692260742188 562.1079711914062 718.1282958984375L562.09228515625 718.2223510742188C562.0687255859375 718.4025268554688 562.0432739257812 718.5835571289062 562.0158081054688 718.7655639648438L561.736083984375 720.6187133789062L561.6953735351562 720.9373168945312C561.6900024414062 721.0375366210938 561.68408203125 721.1380004882812 561.6775512695312 721.2388305664062L561.4274291992188 724.4404907226562C561.4263305664062 724.4794921875 561.4251708984375 724.5185546875 561.4238891601562 724.5576171875L561.2759399414062 728.7642822265625C561.2709350585938 728.90673828125 561.2648315429688 729.0484619140625 561.2577514648438 729.189453125L561.19140625 731.9773559570312V732.9605712890625C561.2568969726562 733.988037109375 561.2525024414062 735.0531616210938 561.1722412109375 736.1549072265625C561.10400390625 737.9616088867188 560.8596801757812 739.6463623046875 560.462890625 741.2093505859375L560.1978759765625 742.8850708007812C560.0982055664062 743.4733276367188 559.9819946289062 744.0459594726562 559.8500366210938 744.6030883789062L559.2628173828125 747.5392456054688L559.204345703125 747.83154296875C559.1375122070312 748.1464233398438 559.0661010742188 748.45654296875 558.9901123046875 748.761962890625L558.523681640625 750.7874755859375L558.0416870117188 753.5390625C558.0276489257812 753.6124267578125 558.013427734375 753.6854858398438 557.9989013671875 753.75830078125L557.8718872070312 754.567138671875C558.0166015625 757.1046142578125 557.6567993164062 759.78515625 556.6806030273438 762.5452270507812C555.8727416992188 765.49560546875 554.5592041015625 767.9893188476562 552.8871459960938 770.0398559570312C552.6265258789062 770.58740234375 552.3397216796875 771.13623046875 552.0260009765625 771.6856689453125C551.9220581054688 772.0396728515625 551.8118286132812 772.3869018554688 551.6954956054688 772.7274169921875C551.619140625 773.044189453125 551.5360717773438 773.3632202148438 551.4463500976562 773.6844482421875L550.791015625 776.0731201171875C550.7216186523438 776.3201293945312 550.6494750976562 776.5639038085938 550.5745849609375 776.8045043945312L550.4303588867188 777.38671875C550.393310546875 777.5426635742188 550.354736328125 777.69921875 550.3145141601562 777.8563232421875L550.3059692382812 777.8896484375L550.305419921875 777.8927612304688C550.1320190429688 778.827880859375 549.897216796875 779.7823486328125 549.596923828125 780.7549438476562C549.0072021484375 784.001953125 547.547119140625 787.2039794921875 545.0314331054688 790.1144409179688C543.0606079101562 792.8511352539062 540.3936767578125 795.1129150390625 537.0524291992188 796.5523681640625C536.2733764648438 796.9028930664062 535.4801025390625 797.1959228515625 534.6771240234375 797.433837890625C529.5714111328125 799.3365478515625 524.5507202148438 798.9627075195312 520.1973876953125 797.0888671875C517.27978515625 796.140625 514.8366088867188 794.6615600585938 512.8579711914062 792.8173828125L511.8109130859375 792.2655639648438C511.7539367675781 792.2338256835938 511.69720458984375 792.2019653320312 511.6407165527344 792.169921875L511.6280822753906 792.16357421875C510.7001037597656 791.8340454101562 509.7613830566406 791.4368896484375 508.81396484375 790.9680786132812C508.7317810058594 791.069580078125 508.64837646484375 791.1707153320312 508.5636901855469 791.2716064453125C507.56695556640625 792.592041015625 506.4588623046875 793.7310180664062 505.2662048339844 794.69775390625C502.58184814453125 797.1007080078125 499.6020812988281 798.5713500976562 496.54595947265625 799.2592163085938C480.86700439453125 803.6893310546875 466.7387390136719 787.4033813476562 470.6373291015625 772.9336547851562C470.3613586425781 771.7415771484375 470.1756896972656 770.5828857421875 470.0735168457031 769.4591064453125L469.765625 767.49072265625C469.6525573730469 766.7271728515625 469.5740661621094 765.9797973632812 469.5283508300781 765.2489624023438L469.33917236328125 763.5227661132812L468.9411926269531 761.6986694335938C468.9032287597656 761.5145874023438 468.86737060546875 761.3313598632812 468.83355712890625 761.1489868164062L468.6354064941406 760.34912109375L467.6305847167969 757.005859375C467.5420227050781 756.693115234375 467.4599304199219 756.3824462890625 467.3841247558594 756.0738525390625L466.5179443359375 753.2943725585938L466.3833923339844 752.8626098632812L466.3412780761719 752.722412109375L464.6499938964844 747.0916748046875C464.4288024902344 746.35986328125 464.2433166503906 745.638916015625 464.09197998046875 744.9292602539062L463.00115966796875 740.7288818359375Q462.9619140625 740.5741577148438 462.9247131347656 740.420166015625L462.0180969238281 737.1735229492188C461.80572509765625 736.5624389648438 461.6116027832031 735.9297485351562 461.4368896484375 735.2750244140625L460.77374267578125 732.6904296875L460.21624755859375 731.0848388671875L459.5880432128906 729.5516357421875C459.4832763671875 729.3209228515625 459.3808288574219 729.086669921875 459.2807312011719 728.8488159179688L457.8009948730469 725.4454345703125C457.5660095214844 724.8870849609375 457.3541259765625 724.3331298828125 457.1645812988281 723.7838745117188L456.47540283203125 722.1447143554688C456.4120788574219 721.997802734375 456.3497314453125 721.8494873046875 456.2883605957031 721.6998291015625L456.2367248535156 721.5770263671875C456.0356140136719 721.0884399414062 455.8519592285156 720.6033935546875 455.6853332519531 720.1221313476562L454.5033264160156 716.9476318359375C454.29901123046875 716.4002075195312 454.1160583496094 715.857666015625 453.9537048339844 715.3204345703125L453.2569885253906 713.3577270507812C453.05633544921875 712.8914794921875 452.8656311035156 712.4111328125 452.6853942871094 711.9165649414062L450.7328186035156 706.452880859375L448.7384948730469 702.0857543945312L447.1470031738281 699.444580078125C446.882568359375 699.0012817382812 446.6351318359375 698.558837890625 446.4042663574219 698.1174926757812C446.0633239746094 697.6171875 445.73284912109375 697.0944213867188 445.4136047363281 696.548583984375L443.7647705078125 693.6737060546875L440.5768737792969 688.2626342773438L438.7150573730469 685.306396484375Q438.5969543457031 685.1475830078125 438.48004150390625 684.985595703125L435.5250244140625 680.8413696289062L433.2003479003906 678.0300903320312L430.2992858886719 674.8389282226562C429.89605712890625 674.3894653320312 429.5158996582031 673.9367065429688 429.1582336425781 673.4811401367188L428.16424560546875 672.3656616210938C427.8156433105469 671.9606323242188 427.4851379394531 671.5533447265625 427.1722412109375 671.1442260742188L426.66290283203125 670.5536499023438C426.4427185058594 670.3118896484375 426.22442626953125 670.0632934570312 426.0080871582031 669.807861328125L421.80145263671875 664.8402099609375C421.7026672363281 664.7235107421875 421.6053771972656 664.6066284179688 421.5095520019531 664.4895629882812L417.82733154296875 660.23193359375C417.6612548828125 660.0380859375 417.49932861328125 659.84375 417.34149169921875 659.64892578125L413.4515686035156 655.4334106445312C413.0748291015625 655.0134887695312 412.7182312011719 654.5906372070312 412.3812255859375 654.165283203125L407.25787353515625 648.4998168945312C406.60382080078125 647.7708129882812 406.010498046875 647.032958984375 405.4753112792969 646.2887573242188L401.4296569824219 641.147705078125C401.285888671875 640.9871826171875 401.1429138183594 640.8236694335938 401.0007629394531 640.6572875976562L394.55340576171875 633.1318359375C394.26055908203125 632.7890014648438 393.9806213378906 632.4446411132812 393.71331787109375 632.0989990234375L389.6703186035156 627.2763671875C389.2817077636719 626.8074340820312 388.9167175292969 626.3359985351562 388.57470703125 625.8626098632812L385.70880126953125 622.4066162109375L385.33648681640625 621.9577026367188L385.2945556640625 621.9071044921875C385.03228759765625 621.5863647460938 384.7809753417969 621.2645263671875 384.5404052734375 620.9417724609375L381.25701904296875 616.7069091796875C380.7361145019531 616.033447265625 380.2614440917969 615.356689453125 379.8311462402344 614.6780395507812L377.9696350097656 612.0560302734375C377.5368347167969 611.4896240234375 377.1172180175781 610.89111328125 376.712158203125 610.2595825195312L373.2646179199219 604.8336181640625C373.0642395019531 604.5293579101562 372.8675231933594 604.2171020507812 372.67462158203125 603.896728515625L368.7005310058594 597.3013916015625C368.4991149902344 596.9656982421875 368.3074645996094 596.6304931640625 368.1253662109375 596.2958374023438L363.6213684082031 588.6166381835938C363.55242919921875 588.5108032226562 363.48388671875 588.4039916992188 363.4158020019531 588.2962646484375L358.22747802734375 580.0508422851562C357.4786071777344 579.02197265625 356.7810974121094 577.8894653320312 356.1440124511719 576.648681640625L351.3666076660156 567.3264770507812L351.3642578125 567.3223266601562L347.39251708984375 560.308349609375C347.2041015625 559.9751586914062 347.0250549316406 559.6427001953125 346.8551330566406 559.3109741210938L342.53460693359375 551.794921875C342.2800598144531 551.3978271484375 342.031982421875 550.9873657226562 341.7906799316406 550.5632934570312L338.82647705078125 545.2675170898438C338.5968017578125 544.8951416015625 338.372802734375 544.5113525390625 338.1548156738281 544.115966796875L334.85711669921875 538.1759033203125C334.6562194824219 537.8120727539062 334.46630859375 537.44921875 334.2871398925781 537.0873413085938L331.9917907714844 532.7908935546875C331.7264404296875 532.3469848632812 331.46942138671875 531.8872680664062 331.22125244140625 531.4114379882812L327.5853576660156 524.4779052734375C327.4459533691406 524.2086181640625 327.3123779296875 523.93994140625 327.1845397949219 523.6719970703125L321.86431884765625 512.9341430664062C321.77850341796875 512.7657470703125 321.6939392089844 512.5952758789062 321.61065673828125 512.4227905273438C321.3057556152344 511.8114013671875 321.030517578125 511.2034912109375 320.7839660644531 510.599853515625L316.5085754394531 501.0137023925781C316.34710693359375 500.6488342285156 316.1957092285156 500.2857360839844 316.0541687011719 499.9244384765625L311.8475646972656 490.8641052246094L311.7311706542969 490.6133728027344L311.71746826171875 490.58367919921875L305.8757019042969 477.90887451171875C305.4723815917969 477.0259094238281 305.1283874511719 476.15252685546875 304.8406066894531 475.2901306152344L300.0951843261719 463.6473083496094L294.8834533691406 451.9714660644531C294.6999206542969 451.55194091796875 294.529541015625 451.1347351074219 294.37200927734375 450.7200012207031L291.16302490234375 443.2199401855469C291.0887145996094 443.0455627441406 291.0166320800781 442.87164306640625 290.9468078613281 442.6981201171875L287.63812255859375 435.6735534667969L283.9094543457031 428.49725341796875L280.5090026855469 422.5672302246094C280.3602600097656 422.309814453125 280.2171325683594 422.052734375 280.0795593261719 421.79608154296875L276.87310791015625 416.4580993652344C276.6685791015625 416.10821533203125 276.474609375 415.7589111328125 276.29095458984375 415.41033935546875L273.77301025390625 411.1340637207031C273.5694274902344 410.82427978515625 273.36962890625 410.5062561035156 273.1737976074219 410.1798400878906L271.32122802734375 407.052734375C271.0812683105469 406.7038879394531 270.84613037109375 406.3440856933594 270.6159973144531 405.97320556640625L267.8045349121094 401.3437805175781L262.0124816894531 392.1060791015625C261.44354248046875 391.1923522949219 260.9490051269531 390.2807922363281 260.5248718261719 389.3739318847656L257.73297119140625 384.2909240722656C257.385498046875 383.7569885253906 257.0500793457031 383.19842529296875 256.7277526855469 382.6147155761719L251.78123474121094 373.6095275878906C251.48724365234375 373.0719909667969 251.21710205078125 372.53656005859375 250.9700164794922 372.003662109375L245.92576599121094 362.6173095703125C245.5310821533203 361.87530517578125 245.181396484375 361.1376953125 244.874755859375 360.405517578125L240.9119110107422 352.2220764160156C240.6410675048828 351.718017578125 240.3814239501953 351.19500732421875 240.13369750976562 350.6526794433594L235.28277587890625 340.0086975097656C235.15286254882812 339.7353210449219 235.0262908935547 339.4568176269531 234.90321350097656 339.1731262207031C234.66378784179688 338.6348571777344 234.4464111328125 338.1002502441406 234.25035095214844 337.56964111328125L231.82711791992188 331.4952087402344C231.67330932617188 331.1457214355469 231.52491760253906 330.78826904296875 231.38218688964844 330.4227600097656L228.02764892578125 321.6686706542969C227.81884765625 321.2182922363281 227.6192169189453 320.754150390625 227.42921447753906 320.27606201171875L225.27305603027344 314.8222351074219C225.0947723388672 314.3695983886719 224.93128967285156 313.92010498046875 224.78219604492188 313.4739685058594L223.8728790283203 311.13299560546875C223.63665771484375 310.61907958984375 223.41259765625 310.08734130859375 223.20143127441406 309.5375061035156L221.14439392089844 304.0581359863281C221.00030517578125 303.7148132324219 220.8614959716797 303.3639831542969 220.72817993164062 303.0055847167969L218.73330688476562 297.59796142578125C218.50473022460938 297.0789794921875 218.2886505126953 296.542236328125 218.08583068847656 295.98748779296875L214.44993591308594 285.92535400390625C214.34632873535156 285.64105224609375 214.24839782714844 285.358154296875 214.1560516357422 285.07666015625L210.89859008789062 276.4974060058594C210.7410888671875 276.0731201171875 210.59634399414062 275.6518249511719 210.46401977539062 275.2336730957031L207.74520874023438 267.8564147949219L204.41799926757812 260.0050048828125L203.73251342773438 258.6561584472656L202.02505493164062 255.46893310546875Q201.92666625976562 255.28848266601562 201.8300018310547 255.10482788085938L200.59341430664062 252.7553253173828C200.36521911621094 252.37353515625 200.1431427001953 251.9800262451172 199.92750549316406 251.5746307373047L198.26669311523438 248.3181610107422C198.09812927246094 248.02915954589844 197.93295288085938 247.7335968017578 197.77133178710938 247.43141174316406L195.46719360351562 243.1402130126953C195.2667999267578 242.7655487060547 195.07789611816406 242.3920135498047 194.90023803710938 242.0197296142578L192.78988647460938 238.11634826660156L192.7402801513672 238.02459716796875L192.7381591796875 238.02064514160156L189.64247131347656 232.2514190673828C189.36962890625 231.79681396484375 189.10552978515625 231.3255615234375 188.85072326660156 230.83737182617188L185.29937744140625 223.98837280273438C185.18505859375 223.76898193359375 185.07461547851562 223.55003356933594 184.968017578125 223.33152770996094C184.97134399414062 223.3738250732422 184.97457885742188 223.41607666015625 184.97769165039062 223.45826721191406L185.72216796875 230.9219207763672C185.77476501464844 231.43020629882812 185.81251525878906 231.9306640625 185.83592224121094 232.4232635498047L186.2250213623047 236.6907958984375C186.3354949951172 237.44189453125 186.41514587402344 238.21763610839844 186.46202087402344 239.01812744140625L186.88479614257812 246.86065673828125C186.91348266601562 247.35049438476562 186.92889404296875 247.8325653076172 186.93148803710938 248.30682373046875L187.0754852294922 251.78892517089844L187.94174194335938 259.5651550292969C187.99343872070312 260.0390625 188.03231811523438 260.5062255859375 188.0587615966797 260.9666748046875L188.80406188964844 268.2768249511719C188.86619567871094 268.7510070800781 188.91542053222656 269.2347106933594 188.9512176513672 269.72796630859375C189.0624542236328 270.9082946777344 189.09402465820312 272.04620361328125 189.05226135253906 273.1409912109375L189.166748046875 279.35272216796875C189.19931030273438 280.0122985839844 189.20712280273438 280.688232421875 189.18893432617188 281.3804931640625L189.18214416503906 281.5858459472656C189.1787109375 281.7205505371094 189.1742706298828 281.8545837402344 189.16885375976562 281.98797607421875L188.96226501464844 288.23724365234375C188.9614715576172 288.6171569824219 188.95254516601562 289.0021057128906 188.93527221679688 289.39215087890625L188.63917541503906 296.3997802734375C188.63424682617188 296.59228515625 188.6272735595703 296.7860107421875 188.61819458007812 296.98101806640625L188.19541931152344 305.3097229003906Q188.185791015625 305.53094482421875 188.1728057861328 305.7497253417969L187.9432373046875 311.7181701660156C187.9583282470703 312.2425537109375 187.95803833007812 312.7769775390625 187.94174194335938 313.3213806152344L187.70921325683594 319.197998046875C187.70822143554688 319.2287902832031 187.70718383789062 319.2595520019531 187.70608520507812 319.2902526855469L187.62466430664062 323.8908386230469C187.62266540527344 323.9666442871094 187.62037658691406 324.042236328125 187.61778259277344 324.11761474609375L187.54010009765625 328.35113525390625C187.53897094726562 328.4070739746094 187.5376739501953 328.4628601074219 187.5362091064453 328.5185546875L187.45555114746094 335.05218505859375C187.4542999267578 335.15643310546875 187.4524688720703 335.26031494140625 187.4500732421875 335.3638000488281L187.37100219726562 342.3028259277344V380.1761779785156C187.38372802734375 380.649658203125 187.38388061523438 381.13134765625 187.37100219726562 381.6211853027344L187.1576385498047 390.0310363769531C187.1758270263672 390.7599182128906 187.1629638671875 391.50799560546875 187.11732482910156 392.2751770019531L186.46202087402344 403.0137634277344C186.45947265625 403.05712890625 186.4568328857422 403.1004333496094 186.45408630371094 403.1436767578125L186.37889099121094 414.59320068359375L186.45986938476562 425.1827087402344C186.46066284179688 425.2198181152344 186.4613800048828 425.2569580078125 186.46202087402344 425.2941589355469L186.62696838378906 435.6861572265625C186.6285400390625 435.74517822265625 186.6299285888672 435.8043518066406 186.63113403320312 435.8636169433594L186.88177490234375 446.6415710449219L186.88479614257812 446.7712707519531L186.88877868652344 447.0245361328125L186.9693603515625 452.14056396484375L187.0938720703125 456.3741149902344L187.6873321533203 463.00103759765625C187.7268524169922 463.2811279296875 187.76235961914062 463.5646057128906 187.7937774658203 463.85150146484375L188.61819458007812 471.7151794433594C188.66464233398438 472.1544494628906 188.70001220703125 472.58795166015625 188.72462463378906 473.015625L189.22779846191406 478.4643249511719C189.32040405273438 479.08660888671875 189.39234924316406 479.7258605957031 189.44261169433594 480.38214111328125L189.9835205078125 487.9374694824219C190.07557678222656 488.6192321777344 190.14236450195312 489.3209228515625 190.18246459960938 490.0426330566406L190.66867065429688 499.04779052734375C190.6918182373047 499.482177734375 190.70457458496094 499.910400390625 190.70724487304688 500.33245849609375L190.92233276367188 505.7276916503906C190.93386840820312 506.007080078125 190.94113159179688 506.28387451171875 190.94419860839844 506.5580749511719L191.09144592285156 511.0124206542969C191.10208129882812 511.3418884277344 191.10679626464844 511.66766357421875 191.10574340820312 511.9897766113281L191.17599487304688 515.9589233398438C191.18133544921875 516.1885986328125 191.18382263183594 516.41650390625 191.18350219726562 516.642578125L191.26055908203125 521.9201049804688Q191.26394653320312 522.1583251953125 191.2633056640625 522.3939819335938L191.3399658203125 529.1407470703125L191.34510803222656 529.593505859375V535.1318969726562C191.34510803222656 535.3380126953125 191.3428497314453 535.5426025390625 191.33834838867188 535.7457275390625L191.26055908203125 542.8052978515625V549.6728515625L191.70257568359375 554.9627685546875C191.75071716308594 555.2815551757812 191.79367065429688 555.6047973632812 191.831298828125 555.9325561523438L192.4020538330078 560.7945556640625C192.4385986328125 561.111083984375 192.46937561035156 561.4246215820312 192.49447631835938 561.7352294921875L192.90939331054688 564.68408203125C192.9814453125 565.2386474609375 193.03561401367188 565.784423828125 193.07257080078125 566.3212280273438L193.23260498046875 567.6780395507812C193.33499145507812 568.2840576171875 193.4178466796875 568.9066772460938 193.48013305664062 569.5460205078125L193.7750244140625 572.656982421875C193.8716278076172 573.3402099609375 193.9429168701172 574.0436401367188 193.9874725341797 574.767333984375L194.3891143798828 582.1871337890625C194.4207305908203 582.6990356445312 194.43771362304688 583.2024536132812 194.4406280517578 583.6973876953125L194.5831756591797 586.9402465820312L195.454345703125 594.2135620117188L195.46719360351562 594.3208618164062L196.46072387695312 602.5861206054688C196.64956665039062 604.1889038085938 196.68978881835938 605.7161865234375 196.59715270996094 607.1661376953125L196.70217895507812 611.9447631835938C196.70806884765625 612.128662109375 196.71214294433594 612.3139038085938 196.71438598632812 612.5003051757812L196.7150421142578 612.565673828125L196.77780151367188 618.778564453125C196.77865600585938 618.8731079101562 196.77903747558594 618.9674072265625 196.7789306640625 619.0613403320312L196.96484375 622.49462890625C196.99020385742188 622.740234375 197.01243591308594 622.98828125 197.03147888183594 623.2388305664062L197.32913208007812 627.5399169921875C197.421142578125 628.1743774414062 197.4914093017578 628.8263549804688 197.53880310058594 629.4959716796875L197.94044494628906 635.943359375C198.03768920898438 637.3826293945312 198.01995849609375 638.755859375 197.89845275878906 640.0623779296875L197.8756866455078 641.171875C197.878173828125 641.5724487304688 197.87167358398438 641.978759765625 197.85589599609375 642.3906860351562L197.68678283691406 645.9420166015625V648.0770874023438L197.71542358398438 649.4232177734375C197.8804931640625 650.9218139648438 197.90512084960938 652.510009765625 197.77133178710938 654.1862182617188L197.37747192382812 659.1351928710938C197.35935974121094 659.5994262695312 197.32872009277344 660.0706787109375 197.28514099121094 660.5490112304688L196.77780151367188 665.43212890625L196.20706176757812 671.94287109375C196.18272399902344 672.2014770507812 196.155029296875 672.4573974609375 196.12405395507812 672.7105712890625L195.72085571289062 678.3902587890625C195.70648193359375 678.5856323242188 195.69017028808594 678.779541015625 195.67196655273438 678.971923828125L195.3826446533203 684.4148559570312C195.3688507080078 684.6504516601562 195.35220336914062 684.8839721679688 195.33277893066406 685.1152954101562L195.12896728515625 689.361328125C195.12643432617188 689.4237060546875 195.1237030029297 689.4859619140625 195.1207733154297 689.5480346679688L195.07911682128906 692.1101684570312C195.1260986328125 693.23291015625 195.09368896484375 694.4005737304688 194.9747314453125 695.612060546875C194.9127197265625 696.4248046875 194.8150634765625 697.21142578125 194.68399047851562 697.9721069335938L194.2240447998047 701.5573120117188C194.18682861328125 702.0300903320312 194.1363067626953 702.5096435546875 194.072021484375 702.9959716796875L193.16305541992188 709.6758422851562C193.11538696289062 710.025634765625 193.061767578125 710.3701782226562 193.0023193359375 710.7094116210938L192.706298828125 713.3524169921875C192.69198608398438 713.5629272460938 192.67514038085938 713.7748413085938 192.6557159423828 713.9881591796875L192.0004119873047 721.0062866210938C191.9736328125 721.3001098632812 191.94253540039062 721.5904541015625 191.90719604492188 721.8772583007812L191.67970275878906 725.6536865234375C191.66810607910156 726.63525390625 191.596923828125 727.6487426757812 191.4617462158203 728.6934814453125C191.422607421875 729.0451049804688 191.3769073486328 729.3916015625 191.32484436035156 729.73291015625L190.52069091796875 735.866943359375C190.44326782226562 736.42236328125 190.35079956054688 736.9644775390625 190.24392700195312 737.4933471679688L189.52716064453125 742.0606689453125C189.4876708984375 742.3167114257812 189.4449920654297 742.56982421875 189.3992156982422 742.820068359375L188.8004150390625 747.1656494140625L188.19541931152344 752.1227416992188C188.16123962402344 752.3921508789062 188.1234893798828 752.6585083007812 188.08226013183594 752.9218139648438L187.7937774658203 756.4139404296875C187.70428466796875 757.3624877929688 187.5695037841797 758.2744140625 187.39273071289062 759.1498413085938C187.28077697753906 760.4369506835938 187.04833984375 761.7637329101562 186.68359375 763.1255493164062C186.2201690673828 765.1528930664062 185.54986572265625 766.978271484375 184.70989990234375 768.60791015625C184.5886688232422 768.8967895507812 184.46107482910156 769.186767578125 184.32699584960938 769.477783203125L183.67527770996094 770.9622802734375L183.65501403808594 771.2181396484375L183.6548614501953 771.219970703125C183.65830993652344 771.5169067382812 183.6569061279297 771.8169555664062 183.65054321289062 772.1201782226562L183.5659942626953 774.3397216796875V777.1512451171875C185.0477294921875 803.4669189453125 148.28932189941406 807.2743530273438 142.1811981201172 784.6734619140625C141.67294311523438 782.8829345703125 141.36317443847656 780.925537109375 141.28817749023438 778.800048828125V778.3772583007812C141.27029418945312 777.82177734375 141.26913452148438 777.2766723632812 141.28402709960938 776.7420654296875C141.28408813476562 776.5868530273438 141.28549194335938 776.4324951171875 141.28817749023438 776.2789306640625V775.963623046875C141.28704833984375 775.8270874023438 141.2869110107422 775.6897583007812 141.28781127929688 775.5518798828125C141.28781127929688 775.5353393554688 141.28787231445312 775.5188598632812 141.28817749023438 775.5023803710938V774.7138671875C141.27818298339844 774.2926635742188 141.278076171875 773.8649291992188 141.28817749023438 773.4307861328125L141.2962646484375 773.2186279296875C141.3020782470703 772.9931030273438 141.31060791015625 772.7694702148438 141.3218231201172 772.5477294921875L141.34652709960938 771.8991088867188C141.34649658203125 771.506103515625 141.35516357421875 771.107666015625 141.37274169921875 770.703857421875L141.45729064941406 768.0614624023438C141.50457763671875 767.0615844726562 141.6033935546875 766.099609375 141.74996948242188 765.1753540039062L141.79551696777344 764.5947265625C141.99008178710938 762.8004760742188 142.3439483642578 761.139404296875 142.83518981933594 759.6093139648438C142.8721923828125 759.4828491210938 142.91030883789062 759.3560791015625 142.94955444335938 759.22900390625C143.270751953125 757.984619140625 143.70726013183594 756.7136840820312 144.26876831054688 755.42041015625L144.6515655517578 754.5560302734375C144.79002380371094 754.218505859375 144.9371795654297 753.8794555664062 145.0931854248047 753.5390625L145.6371612548828 752.3953247070312L145.69862365722656 752.04833984375L146.1712646484375 747.577880859375C146.22268676757812 747.0316162109375 146.28900146484375 746.4974975585938 146.36962890625 745.9754638671875L146.9111328125 741.46875C146.97225952148438 740.9767456054688 147.04534912109375 740.4950561523438 147.12994384765625 740.0235595703125L147.5703887939453 736.8775634765625C147.61480712890625 736.461181640625 147.66976928710938 736.0397338867188 147.7355499267578 735.61328125L148.45098876953125 731.071044921875C148.48187255859375 730.7698364257812 148.51815795898438 730.4660034179688 148.55996704101562 730.159423828125L149.42398071289062 724.05615234375L149.80715942382812 717.7720336914062C149.85536193847656 717.0255126953125 149.93194580078125 716.3005981445312 150.03533935546875 715.5972900390625L150.37979125976562 711.95263671875C150.39944458007812 711.184814453125 150.45452880859375 710.3976440429688 150.54702758789062 709.59130859375L151.02769470214844 705.7149047851562C151.06637573242188 705.1495971679688 151.1243438720703 704.5744018554688 151.20233154296875 703.989501953125L152.11129760742188 697.2884521484375C152.16256713867188 696.9124755859375 152.2207489013672 696.5425415039062 152.28562927246094 696.1787109375L152.7992706298828 692.1618041992188L152.9130859375 688.662109375C152.91409301757812 688.3214111328125 152.92156982421875 687.9766845703125 152.9357147216797 687.6279296875L153.10482788085938 682.34326171875C153.13682556152344 681.5682373046875 153.19998168945312 680.81591796875 153.29251098632812 680.0861206054688L153.45440673828125 677.0404052734375C153.45851135253906 676.4522705078125 153.4826202392578 675.8523559570312 153.52760314941406 675.2405395507812L154.01380920410156 668.4761352539062C154.0642852783203 667.81689453125 154.1366729736328 667.1748046875 154.22987365722656 666.5498046875L154.63157653808594 661.8931884765625L154.6691131591797 661.4580078125C154.68690490722656 661.26904296875 154.7064666748047 661.0814819335938 154.72781372070312 660.8953857421875L155.0247039794922 658.0501708984375C155.0389404296875 657.67578125 155.06126403808594 657.2967529296875 155.09188842773438 656.9131469726562L155.51800537109375 651.6329956054688L155.45785522460938 650.2193603515625C155.438720703125 649.9043579101562 155.42510986328125 649.5855712890625 155.4171600341797 649.2630004882812L155.40896606445312 649.0706176757812C155.39886474609375 648.636474609375 155.3989715576172 648.2086791992188 155.40896606445312 647.7874145507812V645.0330810546875C155.41400146484375 644.19384765625 155.45645141601562 643.3798217773438 155.5340576171875 642.5909423828125L155.5780792236328 640.7418823242188C155.5880889892578 640.4993896484375 155.60113525390625 640.2591552734375 155.6171875 640.0211181640625L155.69705200195312 638.0745849609375L155.37069702148438 633.0977783203125C155.35365295410156 632.920166015625 155.3382110595703 632.7412719726562 155.3244171142578 632.5610961914062L154.83822631835938 626.4519653320312C154.79112243652344 625.838623046875 154.76519775390625 625.2371826171875 154.7595672607422 624.6476440429688L154.5 620.0891723632812C154.4496612548828 619.1857299804688 154.44471740722656 618.3089599609375 154.4823760986328 617.4590454101562L154.43882751464844 613.205810546875L154.43658447265625 613.071044921875L154.43565368652344 612.9865112304688L154.36940002441406 606.9752197265625L153.44305419921875 599.2884521484375L152.53407287597656 591.678466796875C152.3816375732422 590.3928833007812 152.32472229003906 589.156005859375 152.35520935058594 587.9686279296875L152.2404022216797 585.3565063476562Q152.21490478515625 585.05322265625 152.19586181640625 584.7449340820312L151.87338256835938 578.7874755859375C151.8440704345703 578.549072265625 151.81765747070312 578.3082275390625 151.79421997070312 578.0650024414062L151.37144470214844 573.604736328125C151.35545349121094 573.4406127929688 151.34100341796875 573.27734375 151.3280792236328 573.1148681640625L151.09800720214844 571.2071533203125C151.0428924560547 570.8836669921875 150.99305725097656 570.555419921875 150.94866943359375 570.2224731445312L150.37791442871094 565.9312744140625C150.29827880859375 565.3196411132812 150.2405242919922 564.7188110351562 150.20375061035156 564.1288452148438L149.80715942382812 560.7945556640625C149.71511840820312 559.9981079101562 149.65975952148438 559.2203979492188 149.6391143798828 558.461669921875L149.23072814941406 554.1795043945312C149.10877990722656 553.319091796875 149.03033447265625 552.4270629882812 148.99864196777344 551.5034790039062C148.9537811279297 550.6669921875 148.9492645263672 549.85302734375 148.9827423095703 549.0618286132812V542.7207641601562L148.9877166748047 542.2697143554688L149.06637573242188 535.1318969726562L149.0673065185547 535.04736328125V529.7626342773438L148.98757934570312 522.7476806640625C148.98558044433594 522.662353515625 148.9839630126953 522.5767211914062 148.9827423095703 522.4908447265625L148.9036102294922 517.0702514648438C148.9015655517578 517.0029907226562 148.89976501464844 516.9354858398438 148.898193359375 516.8678588867188L148.82167053222656 512.544921875C148.81871032714844 512.4711303710938 148.81602478027344 512.3971557617188 148.81362915039062 512.322998046875L148.66915893554688 507.9526672363281C148.6595458984375 507.7898254394531 148.6513214111328 507.6259765625 148.64451599121094 507.4610900878906L148.42420959472656 501.86151123046875C148.41160583496094 501.6927795410156 148.40048217773438 501.5229187011719 148.39085388183594 501.3519287109375L147.9046630859375 492.26220703125C147.8872833251953 491.932373046875 147.87591552734375 491.6060791015625 147.87045288085938 491.2833557128906L147.24935913085938 483.5107116699219C147.23060607910156 483.2566833496094 147.21548461914062 483.00469970703125 147.20391845703125 482.7547302246094L146.50949096679688 476.0063781738281C146.4685516357422 475.5713806152344 146.43832397460938 475.14215087890625 146.41851806640625 474.7187194824219L145.9341583251953 470.1483154296875C145.8197021484375 469.47900390625 145.7291717529297 468.78936767578125 145.6639404296875 468.07928466796875L145.022216796875 460.6170959472656C144.9445037841797 459.97332763671875 144.8900909423828 459.31219482421875 144.8602294921875 458.63372802734375C144.8284454345703 458.1075744628906 144.8126220703125 457.5901184082031 144.81216430664062 457.08160400390625L144.70265197753906 453.4207458496094C144.69815063476562 453.2975769042969 144.69444274902344 453.173828125 144.69154357910156 453.0495300292969L144.68939208984375 452.91058349609375L144.60699462890625 447.595703125L144.3533172607422 436.7725830078125Q144.34902954101562 436.560302734375 144.34796142578125 436.35015869140625L144.18421936035156 426.0340270996094C144.18052673339844 425.82061767578125 144.17930603027344 425.6087951660156 144.1804962158203 425.3985290527344L144.10305786132812 415.2558288574219C144.09812927246094 415.00341796875 144.09671020507812 414.74871826171875 144.0988311767578 414.49169921875C144.0989227294922 414.4636535644531 144.09906005859375 414.43560791015625 144.0996551513672 414.4076232910156L144.10073852539062 414.2420654296875L144.18421936035156 401.51287841796875C144.19564819335938 400.5616760253906 144.2549285888672 399.64306640625 144.35882568359375 398.7570495605469L144.8395233154297 389.80194091796875C144.8483428955078 389.6590270996094 144.8582000732422 389.5168762207031 144.86911010742188 389.37554931640625L145.0931854248047 380.5430908203125V349.25750732421875C145.0930633544922 349.2293701171875 145.0930938720703 349.201171875 145.0931854248047 349.1729736328125V342.4073791503906C145.09268188476562 342.3234558105469 145.09254455566406 342.2392883300781 145.0931854248047 342.15484619140625L145.0932159423828 342.1477355957031L145.09323120117188 342.1438293457031C145.0933074951172 342.1192932128906 145.09336853027344 342.09478759765625 145.0931854248047 342.0702819824219L145.09524536132812 341.8890075683594L145.17584228515625 334.7957458496094C145.1761016845703 334.71234130859375 145.17672729492188 334.62872314453125 145.177734375 334.5448303222656L145.25686645507812 328.1352844238281C145.25579833984375 327.9061279296875 145.25759887695312 327.6750793457031 145.26229858398438 327.4421691894531L145.33729553222656 323.4296569824219C145.3376922607422 323.20465087890625 145.3408660888672 322.9779052734375 145.3468475341797 322.74932861328125L145.43141174316406 317.9508056640625C145.45010375976562 317.2395935058594 145.4952850341797 316.5470275878906 145.56561279296875 315.87310791015625L145.6450958251953 312.6828308105469C145.64706420898438 312.4051208496094 145.6533203125 312.1247253417969 145.6639404296875 311.8416442871094L145.97637939453125 304.1475524902344C145.9810028076172 303.8820495605469 145.98956298828125 303.6141357421875 146.0021514892578 303.34381103515625L146.3403778076172 294.99395751953125C146.34571838378906 294.8793029785156 146.3517303466797 294.76513671875 146.35841369628906 294.6514892578125L146.657470703125 287.5741882324219C146.6650848388672 287.4022216796875 146.67422485351562 287.2313232421875 146.6848907470703 287.06158447265625L146.9013214111328 280.5147399902344L146.74563598632812 272.1472473144531L146.0148162841797 264.9789123535156C145.97898864746094 264.7203674316406 145.94654846191406 264.4588928222656 145.9176025390625 264.1945495605469L145.00863647460938 255.9503936767578C144.891845703125 254.87579345703125 144.84140014648438 253.8356475830078 144.8525390625 252.83045959472656L144.72842407226562 249.8741455078125C144.71446228027344 249.69534301757812 144.70216369628906 249.5152587890625 144.69154357910156 249.3339080810547L144.34214782714844 242.85244750976562C144.3148956298828 242.61947631835938 144.2904052734375 242.38421630859375 144.26876831054688 242.1466827392578L143.61346435546875 234.87490844726562C143.58016967773438 234.49708557128906 143.55496215820312 234.12367248535156 143.53762817382812 233.7546844482422L142.78904724121094 226.94781494140625C142.7299041748047 226.35733032226562 142.69061279296875 225.77737426757812 142.6703643798828 225.2080078125L142.14193725585938 220.46444702148438C142.02488708496094 219.73233032226562 141.93699645996094 218.97633361816406 141.88006591796875 218.19630432128906L141.5779266357422 213.95127868652344C141.45506286621094 212.98843383789062 141.38523864746094 211.986572265625 141.37274169921875 210.94566345214844L141.29229736328125 203.40513610839844Q141.2900390625 203.3282470703125 141.28817749023438 203.2510986328125L141.15777587890625 196.13421630859375C141.15139770507812 196.0336456298828 141.14553833007812 195.9326934814453 141.1402130126953 195.8313446044922L140.97109985351562 192.53367614746094C140.95570373535156 192.22772216796875 140.9454803466797 191.92481994628906 140.94027709960938 191.625C140.8865509033203 191.24366760253906 140.8403778076172 190.85604858398438 140.80198669433594 190.46206665039062L140.46376037597656 186.572509765625C140.44541931152344 186.3777313232422 140.4292449951172 186.18409729003906 140.41519165039062 185.99163818359375L140.0621337890625 183.10572814941406C140.03793334960938 182.8963165283203 140.01626586914062 182.68820190429688 139.99708557128906 182.48138427734375L139.82737731933594 181.2934112548828C139.7574920654297 180.91758728027344 139.69473266601562 180.53521728515625 139.63934326171875 180.1462860107422L139.23251342773438 177.0330810546875C139.20455932617188 176.86019897460938 139.1781005859375 176.6859588623047 139.1531524658203 176.51039123535156L138.4978485107422 172.05007934570312C138.44248962402344 171.66107177734375 138.39602661132812 171.27633666992188 138.3582305908203 170.89588928222656L137.96929931640625 168.1518096923828C137.87257385253906 167.60882568359375 137.79354858398438 167.0525665283203 137.7330780029297 166.48304748535156C137.48492431640625 164.59063720703125 137.4455108642578 162.80099487304688 137.58888244628906 161.1175079345703V158.63919067382812C136.93809509277344 158.26661682128906 136.28941345214844 157.85336303710938 135.644287109375 157.39772033691406L135.53631591796875 157.37362670898438L134.8228302001953 157.39239501953125C134.63987731933594 157.40402221679688 134.45562744140625 157.4138641357422 134.2700653076172 157.4219512939453L132.7091827392578 157.46786499023438C132.5749053955078 157.48167419433594 132.43991088867188 157.4945526123047 132.3041534423828 157.5065155029297L130.44598388671875 157.64166259765625L128.7332305908203 157.88417053222656L128.29933166503906 157.95501708984375L125.85678100585938 158.5000457763672C125.59644317626953 158.5586700439453 125.3377456665039 158.61305236816406 125.08069610595703 158.66323852539062L123.2989730834961 159.09193420410156C122.95637512207031 159.1722412109375 122.61654663085938 159.2451171875 122.27953338623047 159.31072998046875C120.510498046875 159.82508850097656 118.57735443115234 160.13929748535156 116.4797592163086 160.2165069580078C115.72090911865234 160.272216796875 114.97919464111328 160.2914276123047 114.2550048828125 160.27615356445312C112.76665496826172 160.69300842285156 111.16382598876953 160.96963500976562 109.44625091552734 161.08473205566406C108.03065490722656 161.23394775390625 106.67195129394531 161.2567138671875 105.3726806640625 161.16561889648438L104.90470123291016 161.18218994140625C104.73091125488281 161.19866943359375 104.55590057373047 161.21359252929688 104.37965393066406 161.22695922851562L102.74256134033203 161.33889770507812L101.35302734375 161.4962158203125L100.35529327392578 161.6767578125C98.24745178222656 163.03294372558594 95.77690887451172 164.03115844726562 92.9437026977539 164.5481414794922C90.8462905883789 165.0929718017578 88.82134246826172 165.30380249023438 86.89070129394531 165.2283477783203L87.2148666381836 167.01901245117188C87.30007934570312 167.52415466308594 87.37000274658203 168.02247619628906 87.42513275146484 168.5138702392578L88.45872497558594 174.05099487304688C88.54651641845703 174.4746856689453 88.625244140625 174.90692138671875 88.69458770751953 175.34774780273438L90.11089324951172 184.60658264160156C90.26847839355469 185.6114501953125 90.36618041992188 186.5885772705078 90.40792083740234 187.537353515625L91.15007019042969 193.9603271484375C91.26630401611328 194.64718627929688 91.3572769165039 195.35536193847656 91.4215087890625 196.0850067138672L91.87324523925781 201.7568359375C91.96648406982422 202.4324493408203 92.03480529785156 203.1278076171875 92.07681274414062 203.84298706054688L92.47918701171875 210.91810607910156C92.57951354980469 211.72427368164062 92.64349365234375 212.557861328125 92.668701171875 213.41891479492188L92.90122985839844 223.24850463867188C92.91116333007812 223.587890625 92.91485595703125 223.92337036132812 92.91243743896484 224.2549591064453L93.0588607788086 233.260009765625C93.06322479248047 233.36105346679688 93.06705474853516 233.4624786376953 93.07034301757812 233.5642852783203L93.36680603027344 242.18032836914062C93.38250732421875 242.3650360107422 93.39643096923828 242.55113220214844 93.40856170654297 242.7385711669922L93.96369934082031 253.0804443359375C93.96920013427734 253.1560821533203 93.97440338134766 253.23194885253906 93.97931671142578 253.3080291748047L94.8037338256836 265.75885009765625C94.82776641845703 266.1145324707031 94.84476470947266 266.4661865234375 94.85489654541016 266.8137512207031L95.54359436035156 278.7381286621094C95.56643676757812 279.14263916015625 95.58019256591797 279.54180908203125 95.58509826660156 279.9356384277344L95.87989807128906 286.78985595703125C95.9696273803711 287.5486755371094 96.02729797363281 288.33154296875 96.0509262084961 289.1384582519531L96.36801147460938 302.7519226074219C96.37663269042969 303.0472717285156 96.38053894042969 303.3396301269531 96.37982940673828 303.6290588378906L96.6216812133789 316.3865051269531C96.62492370605469 316.5664367675781 96.62641906738281 316.7452392578125 96.62619018554688 316.9229431152344L96.79078674316406 330.33819580078125C96.79344940185547 330.6334533691406 96.79143524169922 330.9256591796875 96.78483581542969 331.2148132324219L97.14381408691406 338.5972595214844C97.16251373291016 338.81585693359375 97.1787338256836 339.036376953125 97.19242858886719 339.2588195800781L97.65003204345703 346.408935546875C97.66871643066406 346.60992431640625 97.685302734375 346.8125305175781 97.69976043701172 347.01678466796875L98.18595886230469 354.542236328125C98.20559692382812 354.83282470703125 98.22054290771484 355.1207275390625 98.23089599609375 355.40594482421875L98.77784729003906 364.1181640625C98.80580139160156 364.55108642578125 98.82334899902344 364.97802734375 98.83079528808594 365.39892578125L99.51770782470703 377.9007263183594C99.53507995605469 378.2738952636719 99.54480743408203 378.6424560546875 99.54708862304688 379.0064392089844L99.91934967041016 389.80194091796875C99.9311294555664 390.1096496582031 99.93773651123047 390.4141540527344 99.93927001953125 390.71551513671875L100.257568359375 401.5974426269531C100.26593017578125 401.91558837890625 100.268798828125 402.2302551269531 100.26629638671875 402.54150390625L100.42668151855469 415.2320251464844C100.42876434326172 415.35272216796875 100.43006134033203 415.47296142578125 100.43058013916016 415.5926513671875L100.59579467773438 427.2812194824219C100.5970687866211 427.435791015625 100.5970687866211 427.58953857421875 100.59579467773438 427.742431640625V458.9049987792969L101.13662719726562 468.4481201171875C101.22875213623047 469.1296081542969 101.29557037353516 469.8310546875 101.33565521240234 470.55255126953125L101.53565216064453 475.03582763671875C101.59365844726562 475.6202697753906 101.63298034667969 476.2185974121094 101.65274047851562 476.830810546875L101.82184600830078 482.11553955078125C101.83781433105469 482.6609802246094 101.83760833740234 483.1963195800781 101.82184600830078 483.7215881347656V488.87628173828125C101.83003234863281 489.2597351074219 101.83010864257812 489.6485290527344 101.82184600830078 490.0426330566406L101.6009292602539 499.8433532714844C101.59988403320312 500.0696105957031 101.59602355957031 500.29766845703125 101.58931732177734 500.52752685546875L101.33565521240234 510.441650390625C101.3306884765625 510.59539794921875 101.32450103759766 510.748291015625 101.31708526611328 510.9002990722656L101.08198547363281 517.77685546875Q101.07968139648438 517.8642578125 101.07685852050781 517.9513549804688L100.91287231445312 528.938232421875C100.91114044189453 529.0237426757812 100.90901947021484 529.1090087890625 100.9065170288086 529.1940307617188L100.74376678466797 540.0784301757812L100.74303436279297 540.1270751953125L100.68081665039062 551.3876953125L100.67950439453125 551.4722900390625L100.67701721191406 551.7205810546875L100.60189056396484 559.2142333984375C100.60504150390625 559.5192260742188 100.6030502319336 559.8275756835938 100.59579467773438 560.1392211914062L100.46113586425781 565.5929565429688C100.47857666015625 566.2940673828125 100.46759033203125 567.0128173828125 100.42668151855469 567.7492065429688L100.08807373046875 573.0315551757812C100.08048248291016 573.6195068359375 100.0527114868164 574.2192993164062 100.00390625 574.8307495117188L99.34859466552734 582.1871337890625L98.63936614990234 591.4979858398438C98.63460540771484 591.8084716796875 98.62443542480469 592.122314453125 98.60873413085938 592.439453125L98.27051544189453 599.373046875V603.9813232421875L98.4197769165039 609.6720581054688C98.42711639404297 609.7898559570312 98.43373107910156 609.9081420898438 98.43962097167969 610.0270385742188L98.74658966064453 615.7826538085938C98.75845336914062 615.94873046875 98.76887512207031 616.1159057617188 98.77784729003906 616.2841796875L99.2640380859375 626.367431640625C99.2757568359375 626.5904541015625 99.28473663330078 626.8118896484375 99.29102325439453 627.0316772460938L99.61174774169922 632.9169311523438C99.65132904052734 633.3939208984375 99.67765045166016 633.8798217773438 99.69020080566406 634.3746948242188C99.73324584960938 635.4326171875 99.71488189697266 636.45361328125 99.63961029052734 637.437255859375L99.34859466552734 647.1680908203125C99.32437133789062 647.9977416992188 99.26437377929688 648.802001953125 99.17074584960938 649.5808715820312L98.73274230957031 658.1301879882812C98.72411346435547 658.412353515625 98.71099090576172 658.6972045898438 98.69329071044922 658.9847412109375L98.0379867553711 669.3850708007812C98.02898406982422 669.5368041992188 98.01880645751953 669.6876831054688 98.0074691772461 669.837646484375L97.61520385742188 676.7413940429688C97.60790252685547 676.8660888671875 97.59980773925781 676.9901123046875 97.59092712402344 677.1135864257812L97.27698516845703 683.0196533203125C97.27393341064453 683.0776977539062 97.27071380615234 683.1356201171875 97.26731872558594 683.193359375L97.12901306152344 686.8881225585938C97.11941528320312 687.0911254882812 97.10768127441406 687.2925415039062 97.09385681152344 687.4923706054688L96.95989990234375 690.439453125C96.95496368408203 690.55908203125 96.94927978515625 690.67822265625 96.94286346435547 690.7967529296875L96.79078674316406 696.0623779296875V697.5322875976562C99.14904022216797 700.8139038085938 100.59579467773438 705.0590209960938 100.59579467773438 710.2677001953125V712.4751586914062C100.6400375366211 713.3182983398438 100.63824462890625 714.186767578125 100.58723449707031 715.0800170898438C100.57432556152344 715.5972900390625 100.54691314697266 716.1047973632812 100.50553894042969 716.6024780273438C100.47490692138672 716.9849243164062 100.43382263183594 717.37109375 100.38197326660156 717.7608642578125C100.28097534179688 718.533447265625 100.14524841308594 719.2808227539062 99.9770736694336 720.0029296875C99.52362823486328 722.3607177734375 98.7884521484375 724.4578247070312 97.82819366455078 726.3026733398438C97.66618347167969 726.6616821289062 97.49786376953125 727.011962890625 97.32351684570312 727.3536987304688L97.32022094726562 727.3661499023438L97.1492919921875 728.3768920898438L97.06626892089844 729.3806762695312C97.06031036376953 729.5337524414062 97.05303955078125 729.6876831054688 97.0444564819336 729.8423461914062L96.8753433227539 732.9708862304688C96.77217102050781 734.8223876953125 96.49189758300781 736.541748046875 96.05876922607422 738.1303100585938L95.95761108398438 738.6983642578125C95.89222717285156 739.2059936523438 95.81077575683594 739.7208251953125 95.71270751953125 740.24267578125L94.8037338256836 745.1046142578125C94.73762512207031 745.4507446289062 94.66584777832031 745.7913208007812 94.58855438232422 746.1264038085938L94.34849548339844 747.6200561523438L93.8951644897461 751.3742065429688L93.89476013183594 751.3828735351562L93.71476745605469 754.7699584960938L93.72061920166016 754.9071655273438C93.85365295410156 755.345947265625 93.97467803955078 755.7951049804688 94.08312225341797 756.2545776367188C95.19888305664062 759.6051635742188 95.41328430175781 763.3531494140625 94.3844223022461 767.3134155273438C94.34557342529297 767.5322265625 94.3037109375 767.7490234375 94.25892639160156 767.9635009765625C93.49494171142578 772.02294921875 91.45353698730469 775.8941040039062 87.87014770507812 778.9961547851562C87.53582763671875 779.332763671875 87.18807220458984 779.6581420898438 86.82694244384766 779.9712524414062C84.07064819335938 782.41650390625 80.92662811279297 783.86767578125 77.6796646118164 784.4789428710938C76.22724151611328 784.8194580078125 74.69802856445312 784.996337890625 73.10136413574219 784.98486328125C69.61433410644531 785.1535034179688 66.39987182617188 784.40087890625 63.57483673095703 782.9835815429688C60.939109802246094 781.900634765625 58.73841857910156 780.3556518554688 56.964107513427734 778.4952392578125C51.40194320678711 773.2423706054688 49.941856384277344 765.7907104492188 51.51923370361328 758.9993286132812C51.462581634521484 758.2169799804688 51.44630813598633 757.4522094726562 51.46808624267578 756.7056274414062C51.43559646606445 756.2107543945312 51.41755294799805 755.7064819335938 51.414520263671875 755.1929321289062C51.37832260131836 754.0615844726562 51.413997650146484 752.9733276367188 51.515804290771484 751.9284057617188L51.61695098876953 749.311279296875C51.673179626464844 748.193359375 51.79368591308594 747.1231079101562 51.97319030761719 746.1002807617188L52.236602783203125 743.5442504882812L52.35493087768555 742.39599609375L52.3568115234375 742.3777465820312C52.4631462097168 741.4575805664062 52.61141586303711 740.5728149414062 52.79862976074219 739.72314453125L52.881717681884766 739.2621459960938C52.954254150390625 738.6075439453125 53.053680419921875 737.9407958984375 53.18122863769531 737.2620849609375L53.94914245605469 733.5042114257812C53.99103546142578 733.2160034179688 54.03802490234375 732.9254760742188 54.09020233154297 732.6326904296875L54.65445327758789 729.5220947265625L54.76664733886719 727.4324951171875C54.808067321777344 726.6891479492188 54.87803268432617 725.9672241210938 54.97496795654297 725.2664184570312C55.01898193359375 724.3914794921875 55.110591888427734 723.4927368164062 55.25284194946289 722.570556640625L55.51614761352539 721.0236206054688C55.619258880615234 720.1502685546875 55.77342224121094 719.2567138671875 55.98182678222656 718.34375C56.0048828125 718.2296752929688 56.02861404418945 718.1161499023438 56.05299377441406 718.0032348632812C55.6126594543457 716.7313842773438 55.29810333251953 715.4181518554688 55.105072021484375 714.0853271484375C54.45774841308594 711.82861328125 54.22651290893555 709.6219482421875 54.3468132019043 707.5060424804688C54.330352783203125 706.6770629882812 54.35850143432617 705.8699340820312 54.42842483520508 705.0852661132812V704.0695190429688C54.42716598510742 703.9307861328125 54.42695236206055 703.7913818359375 54.42842483520508 703.6512451171875L54.4284553527832 703.6412963867188C54.42853546142578 703.6163940429688 54.428611755371094 703.591552734375 54.42842483520508 703.5667114257812L54.428955078125 703.5435180664062L54.44915008544922 702.6599731445312L54.50920486450195 700.0325317382812C54.50979232788086 699.9215698242188 54.511051177978516 699.8101196289062 54.51298141479492 699.6983032226562L54.58797073364258 695.6674194335938C54.58832931518555 695.4415283203125 54.59150314331055 695.2138061523438 54.5975341796875 694.9843139648438L54.6654167175293 690.2836303710938C54.65731430053711 689.7945556640625 54.6627082824707 689.296875 54.682090759277344 688.7905883789062L54.82770919799805 685.5870361328125C54.832828521728516 685.3670654296875 54.84064483642578 685.1454467773438 54.85120391845703 684.9221801757812L55.06539535522461 681.1835327148438C55.07050323486328 681.0492553710938 55.07661056518555 680.9144287109375 55.0837287902832 680.7789306640625L55.38581848144531 675.0958862304688C55.39363098144531 674.822509765625 55.40564727783203 674.5465698242188 55.42195129394531 674.2681884765625L55.80975341796875 667.0836791992188L55.82359313964844 666.8272705078125L55.84364700317383 666.5189208984375L56.500038146972656 656.4269409179688C56.505950927734375 656.3308715820312 56.512332916259766 656.2352294921875 56.51918411254883 656.139892578125L57.0707893371582 645.4346923828125C57.07917022705078 645.2838134765625 57.08871841430664 645.1338500976562 57.09941864013672 644.9847412109375L57.3798942565918 635.6063842773438L57.09395217895508 628.9761352539062C57.085365295410156 628.8470458984375 57.077640533447266 628.7173461914062 57.0707893371582 628.5869750976562L56.52211380004883 618.9140625L56.500038146972656 618.52490234375C56.48667526245117 618.2742309570312 56.476783752441406 618.0255737304688 56.47030258178711 617.7789916992188L56.315757751464844 613.9025268554688C56.237327575683594 613.20849609375 56.18551254272461 612.4945068359375 56.16181564331055 611.7604370117188L55.99270248413086 605.3976440429688C55.97330093383789 604.796630859375 55.973575592041016 604.2078247070312 55.99270248413086 603.6312255859375V599.9744873046875C55.94815444946289 599.111328125 55.947174072265625 598.22021484375 55.99270248413086 597.3013916015625L56.33092498779297 590.3678588867188C56.37092971801758 589.5604858398438 56.44454574584961 588.7779541015625 56.54978561401367 588.0201416015625L57.19207763671875 579.5220947265625C57.204803466796875 579.2848510742188 57.22072982788086 579.0457763671875 57.239898681640625 578.8048706054688L57.81064987182617 571.4485473632812C57.82754898071289 571.2445678710938 57.8465461730957 571.042236328125 57.86761474609375 570.841552734375L58.14887237548828 565.3394165039062C58.156803131103516 565.2039794921875 58.165672302246094 565.0692138671875 58.175472259521484 564.9351806640625L58.3179817199707 559.1456909179688C58.31985855102539 559.0650024414062 58.322078704833984 558.9844970703125 58.32463836669922 558.904296875L58.40147018432617 551.24072265625L58.40253829956055 551.134033203125L58.40257263183594 551.1278076171875C58.402713775634766 551.1016845703125 58.40285110473633 551.0755615234375 58.40253829956055 551.0494995117188L58.46345520019531 540.0433349609375C58.462562561035156 539.8659057617188 58.4633903503418 539.6873168945312 58.4659538269043 539.5076293945312L58.62969207763672 528.5372924804688C58.630401611328125 528.3967895507812 58.6321907043457 528.255615234375 58.635066986083984 528.11376953125L58.79464340209961 517.4219360351562C58.7940673828125 517.162109375 58.79722595214844 516.8999633789062 58.804176330566406 516.6353759765625L59.05784606933594 509.1944580078125L59.3115119934082 499.1957702636719C59.314552307128906 499.0919494628906 59.318153381347656 498.988525390625 59.32231521606445 498.8855285644531L59.54404067993164 489.0491027832031V483.4261474609375L59.410579681396484 479.1888427734375C59.39702606201172 479.01007080078125 59.385135650634766 478.8300476074219 59.37492752075195 478.64874267578125L59.082916259765625 473.3925476074219C59.073787689208984 473.2708740234375 59.0654296875 473.14862060546875 59.05784606933594 473.0257873535156L58.51023864746094 463.36322021484375C58.38379669189453 462.33685302734375 58.3179817199707 461.2665100097656 58.3179817199707 460.1522216796875V427.61944580078125L58.15541076660156 416.1783447265625C58.152732849121094 416.0816955566406 58.15055465698242 415.98468017578125 58.14887237548828 415.8873291015625L57.98359298706055 402.8096618652344Q57.98152160644531 402.74267578125 57.979759216308594 402.675537109375L57.65641403198242 391.7020568847656C57.65080261230469 391.590576171875 57.64583969116211 391.4786376953125 57.641536712646484 391.3662109375L57.262535095214844 380.4549255371094C57.25407409667969 380.32293701171875 57.246524810791016 380.19024658203125 57.239898681640625 380.056884765625L56.630157470703125 367.4490966796875C56.612892150878906 367.2493591308594 56.597694396972656 367.04803466796875 56.584590911865234 366.8450927734375L56.03818893432617 358.0636291503906C56.0212287902832 357.8777160644531 56.00606155395508 357.6903991699219 55.99270248413086 357.5016784667969L55.506507873535156 349.9128112792969C55.48312759399414 349.5824890136719 55.46586227416992 349.255615234375 55.4545783996582 348.9322814941406L54.999176025390625 341.8166198730469C54.97052764892578 341.3526306152344 54.95387649536133 340.8955993652344 54.94884490966797 340.4455261230469L54.51298141479492 331.5008239746094C54.48279571533203 330.8193664550781 54.478057861328125 330.1532897949219 54.49756622314453 329.5026550292969L54.34857940673828 317.3418884277344C54.346736907958984 317.2702331542969 54.34516525268555 317.1983947753906 54.343868255615234 317.1263732910156L54.100791931152344 304.3039855957031C54.09672164916992 304.2027587890625 54.09318923950195 304.10113525390625 54.09020233154297 303.9991149902344L53.7880859375 291.0082702636719Q53.77979278564453 290.8561096191406 53.77311706542969 290.7027587890625L53.382301330566406 281.5380554199219C53.370243072509766 281.3738708496094 53.359580993652344 281.2085876464844 53.350341796875 281.0422668457031L52.65067672729492 269.008056640625C52.6357307434082 268.83514404296875 52.62232208251953 268.6610412597656 52.610477447509766 268.4857482910156L51.791194915771484 256.0914611816406L51.78606033325195 256.0137939453125L51.775325775146484 255.83963012695312L51.13075637817383 245.3809356689453C51.08816146850586 244.6890106201172 51.07209014892578 244.01254272460938 51.081295013427734 243.35159301757812L50.79253387451172 234.95945739746094C50.77957534790039 234.55799865722656 50.775394439697266 234.16197204589844 50.779747009277344 233.7714080810547L50.62342071533203 224.157470703125C50.617591857910156 223.6400146484375 50.62615203857422 223.13186645507812 50.6485710144043 222.63302612304688L50.430625915527344 215.8767547607422C50.41562271118164 215.69297790527344 50.40237045288086 215.50787353515625 50.390892028808594 215.3214111328125L49.95749282836914 207.70077514648438C49.92985534667969 207.4601287841797 49.905189514160156 207.217041015625 49.88356018066406 206.97154235839844L49.41688537597656 201.09490966796875C49.37861633300781 200.83021545410156 49.34389877319336 200.56246948242188 49.312808990478516 200.29165649414062L48.33285903930664 191.2030792236328C48.32829666137695 191.17454528808594 48.323768615722656 191.14598083496094 48.31928253173828 191.11737060546875L46.97309494018555 182.2039794921875L45.50780487060547 174.35421752929688C45.411659240722656 173.81350708007812 45.33311080932617 173.28050231933594 45.271541595458984 172.7552947998047L44.57919692993164 168.56541442871094C44.43238067626953 167.95591735839844 44.304691314697266 167.32777404785156 44.19719314575195 166.68080139160156L42.95000076293945 158.8382568359375L42.39273452758789 155.48036193847656C42.20692825317383 154.62681579589844 42.06049728393555 153.738037109375 41.95647048950195 152.8136749267578L41.554832458496094 149.26234436035156C41.50737762451172 148.8277130126953 41.470726013183594 148.39869689941406 41.444576263427734 147.975341796875L41.392581939697266 147.5697784423828C41.3270378112793 147.20297241210938 41.268310546875 146.83001708984375 41.216609954833984 146.45086669921875L40.73041534423828 142.8995361328125C40.69624328613281 142.6432342529297 40.66591262817383 142.38880920410156 40.63936996459961 142.1362762451172C40.21713638305664 140.421875 39.999149322509766 138.5713653564453 40.021148681640625 136.58912658691406C39.97208786010742 135.40126037597656 40.009098052978516 134.2587432861328 40.12472152709961 133.1625518798828C40.1373176574707 131.0243377685547 40.51499557495117 128.83346557617188 41.32046890258789 126.6437759399414C42.240142822265625 123.37269592285156 43.8883171081543 120.63702392578125 46.014434814453125 118.45323944091797C47.868282318115234 116.22016906738281 50.25238800048828 114.36907196044922 53.16672897338867 113.11846923828125Z" fill="black"/>
</svg>
