<svg xmlns="http://www.w3.org/2000/svg" viewBox="0 0 523 1000">
  <path d="M132.5829315185547 111.60404968261719C134.02728271484375 111.34559631347656 135.4185028076172 111.21834564208984 136.75384521484375 111.20983123779297L138.49148559570312 111.06817626953125C139.79946899414062 110.97586822509766 141.05331420898438 110.97868347167969 142.25244140625 111.06817626953125H142.582275390625C143.15911865234375 111.04904174804688 143.7481689453125 111.04876708984375 144.34942626953125 111.06817626953125L146.60971069335938 111.12576293945312C147.0342254638672 111.12450408935547 147.46507263183594 111.13340759277344 147.90225219726562 111.15277099609375L150.46826171875 111.2997817993164C150.93060302734375 111.29498291015625 151.40054321289062 111.30223846435547 151.8780517578125 111.32195281982422L155.43087768554688 111.46998596191406C155.68894958496094 111.48141479492188 155.94451904296875 111.49629211425781 156.1975555419922 111.5145492553711L158.81451416015625 111.63916778564453C158.90289306640625 111.64228820800781 158.990966796875 111.64581298828125 159.07876586914062 111.64974212646484L162.70571899414062 111.72376251220703C162.82962036132812 111.72664642333984 162.95294189453125 111.73033905029297 163.07571411132812 111.73482513427734L164.18838500976562 111.75764465332031C165.8004150390625 111.65572357177734 167.5066375732422 111.72156524658203 169.3038330078125 111.97753143310547L169.32980346679688 111.98103332519531C169.62095642089844 112.01502990722656 169.9085693359375 112.05382537841797 170.19265747070312 112.09730529785156L171.51873779296875 112.27599334716797L172.783447265625 112.31431579589844C173.93601989746094 112.28072357177734 175.1348114013672 112.33110809326172 176.37867736816406 112.4731216430664C177.22593688964844 112.55089569091797 178.0442352294922 112.66735076904297 178.8336639404297 112.81991577148438L181.76014709472656 113.24847412109375L182.9019775390625 113.37446594238281L185.90484619140625 113.45787811279297C185.9945526123047 113.46077728271484 186.08395385742188 113.4640884399414 186.17306518554688 113.46781921386719L189.45767211914062 113.54247283935547C190.22657775878906 113.56031036376953 190.9738006591797 113.60900115966797 191.6994171142578 113.68681335449219C193.18563842773438 113.66703033447266 194.7420196533203 113.79822540283203 196.3642578125 114.09857940673828C197.6971893310547 114.2944107055664 198.9522705078125 114.58646392822266 200.13018798828125 114.96402740478516L202.84422302246094 115.61495208740234L202.9610595703125 115.6426010131836L208.38494873046875 116.92611694335938C208.5926971435547 116.9756088256836 208.79830932617188 117.02709197998047 209.00180053710938 117.08052062988281L213.24893188476562 117.9200668334961C213.33914184570312 117.93894958496094 213.428955078125 117.95820617675781 213.51840209960938 117.97784423828125L215.4957275390625 118.31280517578125C215.7935791015625 118.35769653320312 216.09365844726562 118.40849304199219 216.39593505859375 118.46530151367188L216.54798889160156 118.49105834960938C217.80332946777344 118.7119140625 218.9868621826172 119.00789642333984 220.0999755859375 119.37129974365234L223.33644104003906 120.22517395019531C224.1051483154297 120.43096160888672 224.8433837890625 120.66365051269531 225.55162048339844 120.92139434814453L227.11599731445312 121.37606048583984C227.3424072265625 121.43314361572266 227.5699462890625 121.49360656738281 227.79861450195312 121.55748748779297L230.14439392089844 122.21373748779297C230.8448028564453 122.38246154785156 231.55538940429688 122.58538818359375 232.2755889892578 122.82410430908203C232.71775817871094 122.96309661865234 233.1491241455078 123.11124420166016 233.5697784423828 123.26815795898438C234.36595153808594 123.50880432128906 235.17213439941406 123.79730224609375 235.9871368408203 124.1361312866211C236.5758056640625 124.36402130126953 237.14337158203125 124.6078109741211 237.6901092529297 124.8664779663086L238.85891723632812 125.36408996582031C239.0371551513672 125.4443359375 239.21331787109375 125.52587890625 239.38742065429688 125.60869598388672L239.3959503173828 125.61177062988281L241.21151733398438 125.9538345336914C241.33900451660156 125.97686004638672 241.46688842773438 126.00096130371094 241.5951690673828 126.026123046875L242.0099334716797 126.10426330566406C242.84762573242188 126.26692962646484 243.65243530273438 126.46278381347656 244.42481994628906 126.68951416015625L246.2185516357422 127.12751770019531C246.38002014160156 127.1654052734375 246.5420684814453 127.20497131347656 246.70474243164062 127.2462387084961L251.7379150390625 128.49395751953125C253.3068389892578 128.89195251464844 254.75148010253906 129.40231323242188 256.0757751464844 130.009521484375L257.1445007324219 130.400634765625C258.08502197265625 130.69119262695312 259.0397033691406 131.0482177734375 260.0067138671875 131.47579956054688L260.0116882324219 131.4779815673828L260.8232116699219 131.8334197998047L264.6840515136719 133.52439880371094L268.7630615234375 135.0664520263672L271.7273864746094 135.86703491210938C272.2756042480469 135.97642517089844 272.8309326171875 136.10557556152344 273.39324951171875 136.2552032470703L277.347900390625 137.333740234375C278.0904235839844 137.53189086914062 278.80462646484375 137.75498962402344 279.490966796875 138.00135803222656L279.8998718261719 138.11984252929688C280.3970947265625 138.2289581298828 280.8999328613281 138.35446166992188 281.40826416015625 138.4968719482422L284.55682373046875 139.39645385742188C285.1494140625 139.53765869140625 285.74951171875 139.70274353027344 286.3568420410156 139.8926239013672L290.1652526855469 141.1252899169922C290.2771911621094 141.1576690673828 290.3893737792969 141.1908721923828 290.5018310546875 141.2249298095703L295.6426696777344 142.8209991455078C296.1239318847656 142.95648193359375 296.6097412109375 143.1080780029297 297.0999450683594 143.27626037597656L302.26513671875 145.02659606933594C302.96002197265625 145.23255920410156 303.6634521484375 145.47335815429688 304.3747863769531 145.7505645751953L311.0574645996094 148.39402770996094C311.8849792480469 148.71717834472656 312.67120361328125 149.06924438476562 313.41705322265625 149.44778442382812L317.0443420410156 151.10372924804688L317.0845947265625 151.12210083007812L323.1963195800781 153.85015869140625C324.2417907714844 154.3292999267578 325.2152404785156 154.85301208496094 326.1191101074219 155.41607666015625L328.6703186035156 156.7631072998047C328.833251953125 156.84036254882812 328.9964904785156 156.9197235107422 329.15997314453125 157.00119018554688L332.38330078125 158.6588897705078C332.43670654296875 158.68414306640625 332.4901428222656 158.70960998535156 332.54364013671875 158.7353057861328L337.999755859375 161.294189453125C338.69012451171875 161.62588500976562 339.3482971191406 161.97662353515625 339.9750061035156 162.3448944091797L341.2708435058594 163.00123596191406C342.2381286621094 163.39793395996094 343.2140808105469 163.87063598632812 344.1960754394531 164.42405700683594L346.98529052734375 166.08883666992188C347.6185607910156 166.4085235595703 348.2540283203125 166.76251220703125 348.890869140625 167.15213012695312L351.2171325683594 168.56903076171875C351.7947082519531 168.92440795898438 352.3455810546875 169.2920684814453 352.870361328125 169.67098999023438C353.47607421875 170.03753662109375 354.0813903808594 170.43817138671875 354.68536376953125 170.87413024902344L357.328857421875 172.86203002929688C357.5509033203125 173.0229034423828 357.7684326171875 173.1854705810547 357.98150634765625 173.3496551513672L360.5433044433594 175.16714477539062C361.1090087890625 175.58485412597656 361.6451416015625 176.0132598876953 362.15240478515625 176.45132446289062L365.66107177734375 179.14292907714844C366.18731689453125 179.55508422851562 366.6863708496094 179.97630310058594 367.158935546875 180.4056854248047L369.34185791015625 182.18580627441406L373.3377380371094 185.08544921875C373.582275390625 185.2633514404297 373.82135009765625 185.44326782226562 374.05499267578125 185.6251220703125L378.158447265625 188.72694396972656C378.5687255859375 189.0119171142578 378.9779968261719 189.31353759765625 379.385986328125 189.63223266601562L381.8791809082031 191.67059326171875C382.1767883300781 191.891357421875 382.4736633300781 192.12120056152344 382.7696533203125 192.36029052734375L384.7207336425781 193.945556640625C385.17205810546875 194.27706909179688 385.6215515136719 194.62962341308594 386.0686950683594 195.00376892089844L388.0158386230469 196.64903259277344C388.390625 196.93862915039062 388.7637939453125 197.24305725097656 389.1351318359375 197.56265258789062L390.6718444824219 198.8961639404297C391.2654724121094 199.37071228027344 391.8533630371094 199.88442993164062 392.4341735839844 200.43875122070312L392.6850891113281 200.68344116210938C392.8199157714844 200.81216430664062 392.9524841308594 200.9414825439453 393.0828552246094 201.07135009765625L394.31756591796875 202.2754364013672C394.85107421875 202.760498046875 395.37738037109375 203.28025817871094 395.8952331542969 203.83583068847656L395.9024353027344 203.8435516357422L396.0555114746094 204.0052032470703L398.5458984375 206.6350555419922C398.6274108886719 206.72256469726562 398.7080383300781 206.81024169921875 398.7877502441406 206.89804077148438L402.5851135253906 210.6954345703125C403.2308044433594 211.34593200683594 403.8240051269531 212.006591796875 404.36669921875 212.6753692626953L407.8720703125 216.63795471191406C407.9524230957031 216.72938537597656 408.0318603515625 216.82093811035156 408.1103515625 216.91261291503906L409.9473571777344 218.8243865966797C410.4477233886719 219.3040008544922 410.94061279296875 219.8155517578125 411.4248962402344 220.35997009277344L414.6904602050781 224.03562927246094C415.1818542480469 224.5131378173828 415.6656799316406 225.021728515625 416.140869140625 225.5623321533203L419.56890869140625 229.52438354492188C420.14703369140625 230.13720703125 420.71099853515625 230.79681396484375 421.2586364746094 231.50485229492188L423.902099609375 234.9730987548828C424.3086853027344 235.50071716308594 424.68695068359375 236.03033447265625 425.03778076171875 236.56124877929688L426.73095703125 238.9273223876953C426.9755554199219 239.22817993164062 427.2169494628906 239.53843688964844 427.4549255371094 239.8582305908203L430.60595703125 244.15122985839844C431.07373046875 244.780029296875 431.5023193359375 245.41082763671875 431.89312744140625 246.04254150390625L433.2886047363281 248.04855346679688C434.0216369628906 248.98526000976562 434.7130432128906 250.01412963867188 435.3555603027344 251.13925170898438C435.61346435546875 251.57373046875 435.8544006347656 252.0081329345703 436.0786437988281 252.4420166015625L437.5596618652344 255.11968994140625C437.8989562988281 255.67465209960938 438.2248840332031 256.2549133300781 438.536376953125 256.8610534667969L440.50299072265625 260.7523193359375L440.5052185058594 260.7563781738281L443.3157653808594 265.8700256347656C443.84747314453125 266.8544616699219 444.2994079589844 267.83160400390625 444.67620849609375 268.79888916015625L445.74053955078125 270.9956970214844C446.0153503417969 271.5023498535156 446.2788391113281 272.0282897949219 446.5302429199219 272.5738830566406L449.0256652832031 277.92425537109375C449.27935791015625 278.474853515625 449.5098571777344 279.0218200683594 449.7179260253906 279.5647277832031L450.6981506347656 281.767822265625C450.8568420410156 282.079833984375 451.0113830566406 282.3988037109375 451.1615905761719 282.7248229980469L453.31866455078125 287.3561706542969C453.4421691894531 287.62420654296875 453.5601806640625 287.891357421875 453.6727600097656 288.1575927734375L454.12554931640625 289.06964111328125C454.1598815917969 289.13262939453125 454.19403076171875 289.1959228515625 454.22802734375 289.2594909667969L455.7083740234375 291.987548828125C456.201904296875 292.9094543457031 456.62567138671875 293.8246154785156 456.98358154296875 294.7309265136719L457.92889404296875 296.7669372558594C458.0240173339844 296.9782409667969 458.1157531738281 297.18896484375 458.2041320800781 297.3991394042969L459.5995788574219 300.31976318359375C459.9990234375 301.1776428222656 460.3417663574219 302.0269470214844 460.6307067871094 302.8663330078125L461.7336730957031 305.52642822265625L463.495361328125 309.21978759765625C463.8060302734375 309.808349609375 464.1009521484375 310.42254638671875 464.37896728515625 311.0628662109375L465.67999267578125 314.19085693359375C466.1084899902344 315.0473937988281 466.5008850097656 315.9569091796875 466.853271484375 316.9207763671875L468.1009826660156 320.304443359375C468.64251708984375 321.7903747558594 469.0289306640625 323.2384338378906 469.27423095703125 324.6435852050781L469.6794738769531 326.1687316894531L470.82904052734375 329.6517639160156C471.0564880371094 330.3467712402344 471.25091552734375 331.0326232910156 471.4136657714844 331.7088317871094L471.736572265625 332.77783203125C471.9446105957031 333.3649597167969 472.1358947753906 333.9723815917969 472.30938720703125 334.600341796875L472.55792236328125 335.538330078125C472.8060302734375 336.2730712890625 473.0269775390625 337.0387878417969 473.21875 337.8359680175781L473.4857482910156 339.0486145019531C473.7080078125 339.8706970214844 473.8948669433594 340.7281494140625 474.04351806640625 341.62139892578125L474.0771484375 341.83154296875C474.1178894042969 342.0655517578125 474.1550598144531 342.29815673828125 474.18878173828125 342.52935791015625L474.35845947265625 343.5899658203125C474.40771484375 343.8675537109375 474.452880859375 344.148681640625 474.4937744140625 344.4331359863281C474.63287353515625 345.30621337890625 474.7263488769531 346.15863037109375 474.77679443359375 346.9898681640625L474.8547668457031 347.75909423828125L475.4702453613281 351.12274169921875C475.5187072753906 351.34393310546875 475.5647888183594 351.5675354003906 475.60845947265625 351.7934875488281L476.14129638671875 354.3392333984375L477.3425598144531 358.1378479003906C477.4505310058594 358.48260498046875 477.5505065917969 358.82501220703125 477.6426696777344 359.1650390625L478.84405517578125 362.7691955566406C479.0845947265625 363.52398681640625 479.2867736816406 364.2677001953125 479.45233154296875 364.9997253417969L479.70068359375 365.8905334472656C479.84576416015625 366.3592224121094 479.97955322265625 366.8400573730469 480.1015930175781 367.3331604003906C480.29931640625 368.0726318359375 480.46087646484375 368.80035400390625 480.5880126953125 369.5157775878906L480.86883544921875 370.8003234863281C481.1670837402344 371.8626403808594 481.40362548828125 372.98486328125 481.5721130371094 374.1678771972656L482.0574035644531 377.8164367675781C482.1226806640625 378.2213134765625 482.1795654296875 378.63348388671875 482.22772216796875 379.0530090332031L482.3638610839844 380.3803405761719C482.4480895996094 380.939208984375 482.5157165527344 381.5118408203125 482.5660705566406 382.0982971191406L482.6429138183594 383.3056335449219C482.7149963378906 383.9099426269531 482.7672424316406 384.5296325683594 482.7987060546875 385.1647033691406L482.8288879394531 385.6512451171875C482.9302673339844 386.50946044921875 482.9836730957031 387.3966979980469 482.98553466796875 388.3124694824219C483.05218505859375 390.2454528808594 482.91119384765625 392.0535888671875 482.59075927734375 393.7353210449219L482.4814758300781 396.7325439453125C482.40924072265625 398.6189270019531 482.1521911621094 400.37158203125 481.7356872558594 401.99151611328125L481.6838684082031 402.3241271972656C481.6111145019531 402.8973083496094 481.51776123046875 403.4796142578125 481.4029541015625 404.0708312988281L480.74853515625 407.3597717285156C480.7217712402344 407.5315246582031 480.69317626953125 407.7041015625 480.66278076171875 407.87744140625L480.31640625 409.6711120605469C480.201171875 410.4869689941406 480.0425109863281 411.3203125 479.8380126953125 412.1704406738281L478.92864990234375 415.97705078125C478.5736083984375 417.4482727050781 478.1192626953125 418.8120422363281 477.57830810546875 420.0714416503906L477.1099548339844 421.43316650390625C476.958740234375 421.85931396484375 476.7997131347656 422.2749938964844 476.6332092285156 422.6802978515625C476.4127502441406 423.4514465332031 476.14739990234375 424.23199462890625 475.8349304199219 425.02093505859375C475.48046875 425.9685974121094 475.08624267578125 426.8629150390625 474.6560974121094 427.70513916015625C474.2752380371094 428.60955810546875 473.82598876953125 429.520263671875 473.3043212890625 430.4346923828125C473.09912109375 430.8188171386719 472.88739013671875 431.19195556640625 472.6695251464844 431.55419921875C471.9210205078125 433.1075744628906 470.94403076171875 434.646240234375 469.71563720703125 436.14898681640625C468.7624206542969 437.42120361328125 467.73956298828125 438.5330810546875 466.662841796875 439.49395751953125L465.7112731933594 440.50848388671875C465.5003356933594 440.7356872558594 465.2879943847656 440.9569091796875 465.0743103027344 441.1722106933594L464.061767578125 442.24261474609375C463.9871520996094 442.3207092285156 463.9123840332031 442.3981018066406 463.8374328613281 442.4747314453125L463.06781005859375 443.4057312011719C462.8066711425781 443.69403076171875 462.5431213378906 443.9729309082031 462.27740478515625 444.2425842285156L461.6509094238281 444.9706726074219C461.44775390625 445.20074462890625 461.2430419921875 445.42498779296875 461.0368957519531 445.64349365234375L459.4828186035156 447.3702697753906C459.1275939941406 447.8141174316406 458.75079345703125 448.25506591796875 458.3518371582031 448.69268798828125L454.88360595703125 452.4781494140625C454.3048400878906 453.1130065917969 453.7146911621094 453.7020263671875 453.11492919921875 454.246826171875L452.3715515136719 454.9902038574219C451.89349365234375 455.5061950683594 451.3815612792969 456.0134582519531 450.83465576171875 456.5107421875C450.1932373046875 457.1141662597656 449.5426025390625 457.6681213378906 448.884765625 458.1744384765625L447.20697021484375 459.58380126953125C446.385986328125 460.2552185058594 445.5579528808594 460.8551940917969 444.72564697265625 461.38720703125C444.32977294921875 461.7294616699219 443.9163513183594 462.0660705566406 443.4849548339844 462.3964538574219L441.5816650390625 463.8768005371094C441.3578186035156 464.0478210449219 441.1336364746094 464.2137756347656 440.9091491699219 464.3747253417969L440.3723449707031 464.78668212890625C440.3385009765625 464.81475830078125 440.3045654296875 464.8427734375 440.2704772949219 464.8707580566406L438.1134033203125 466.689453125C437.8972473144531 466.86639404296875 437.68060302734375 467.03839111328125 437.4635009765625 467.2054748535156L436.6169738769531 467.9192199707031L435.4731140136719 468.97320556640625C434.5108642578125 469.9900817871094 433.41290283203125 470.9666748046875 432.1708984375 471.8918151855469L432.06341552734375 471.97259521484375C431.9236145019531 472.0799865722656 431.78350830078125 472.1852722167969 431.6431579589844 472.2884521484375L428.8506774902344 474.3872375488281C427.5959777832031 475.31365966796875 426.333740234375 476.08526611328125 425.0724182128906 476.7134704589844L423.9554443359375 477.3792419433594L421.84881591796875 478.8611755371094C421.4490661621094 479.1596374511719 421.0339050292969 479.4519348144531 420.60302734375 479.7376403808594L418.3165588378906 481.2186584472656C417.61236572265625 481.7413024902344 416.8594665527344 482.24249267578125 416.0562744140625 482.719482421875L413.314453125 484.31353759765625C412.38519287109375 484.9530944824219 411.375732421875 485.5516662597656 410.2829284667969 486.1031188964844L406.8146667480469 487.8372497558594Q406.66552734375 487.91259765625 406.51666259765625 487.9855651855469L402.1833190917969 490.24810791015625C400.64654541015625 491.03857421875 399.1309509277344 491.6389465332031 397.6455383300781 492.0666198730469L396.247314453125 492.6005859375C395.9210205078125 492.75164794921875 395.5875244140625 492.8980712890625 395.246826171875 493.03961181640625L390.6573486328125 494.9121398925781L386.49163818359375 497.0999755859375C385.5176086425781 497.5992736816406 384.55230712890625 498.02276611328125 383.59796142578125 498.374755859375L383.4439392089844 498.4449157714844C382.47784423828125 498.9518737792969 381.4414978027344 499.40972900390625 380.3329772949219 499.81231689453125C379.6495056152344 500.0762634277344 378.9726867675781 500.3052978515625 378.3031005859375 500.5008850097656L374.1836242675781 501.87939453125C373.9773254394531 501.947509765625 373.77178955078125 502.0127258300781 373.56707763671875 502.0750732421875L371.43890380859375 502.8796081542969C370.458984375 503.3162536621094 369.4147644042969 503.7037658691406 368.3045654296875 504.0364685058594L362.7638244628906 505.68597412109375C362.4947814941406 505.76580810546875 362.22723388671875 505.8408508300781 361.961181640625 505.9111633300781L359.5987243652344 506.6642150878906L358.580322265625 507.01513671875C358.09368896484375 507.21771240234375 357.5920104980469 507.4093017578125 357.0750732421875 507.58929443359375L355.0871887207031 508.244873046875C354.3323669433594 508.50445556640625 353.58782958984375 508.7247009277344 352.8542785644531 508.9074401855469L351.40460205078125 509.36090087890625C350.68243408203125 509.6217346191406 349.9292907714844 509.8565979003906 349.1446533203125 510.0635681152344L346.88970947265625 510.6395568847656C346.44036865234375 510.7886657714844 345.97955322265625 510.9281311035156 345.5072326660156 511.0575256347656L342.6856689453125 511.7629089355469C342.23443603515625 511.89727783203125 341.7721862792969 512.0217895507812 341.298828125 512.1360473632812L335.9272766113281 513.4472045898438C334.8672180175781 513.7030029296875 333.8332214355469 513.8876342773438 332.8263854980469 514.0057373046875L330.1923828125 514.4595336914062C329.3548583984375 514.6609497070312 328.482177734375 514.824951171875 327.57391357421875 514.94873046875L322.9851989746094 515.5911254882812C322.75482177734375 515.6266479492188 322.5220947265625 515.659423828125 322.2870178222656 515.6893920898438L322.19781494140625 515.7005615234375C321.75823974609375 515.7573852539062 321.3242492675781 515.8029174804688 320.8957824707031 515.8374633789062L316.9238586425781 516.2279052734375L312.8554992675781 516.9559326171875L307.673828125 518.4169311523438C307.32928466796875 518.5110473632812 306.9872741699219 518.597412109375 306.6479187011719 518.6762084960938L302.72503662109375 519.8048706054688C302.345458984375 519.9271850585938 301.9578552246094 520.0426635742188 301.5621337890625 520.1510620117188L297.26910400390625 521.2930297851562C296.4964294433594 521.5046997070312 295.7367248535156 521.6773071289062 294.9904479980469 521.8128051757812L294.8089904785156 521.857421875C293.9372253417969 522.1260986328125 293.02337646484375 522.3550415039062 292.0667724609375 522.540771484375L289.33868408203125 523.1117553710938C288.33563232421875 523.306396484375 287.3582763671875 523.4393920898438 286.40740966796875 523.5147705078125L286.3542785644531 523.5221557617188C285.68170166015625 523.6386108398438 284.98870849609375 523.7301025390625 284.2751770019531 523.7951049804688C283.53546142578125 523.8720703125 282.8118591308594 523.9166870117188 282.10467529296875 523.9305419921875L279.1253662109375 524.09326171875C278.3934020996094 524.1840209960938 277.6388244628906 524.2451171875 276.86151123046875 524.27490234375L273.4630432128906 524.4013671875L269.63421630859375 524.92529296875C269.1033020019531 525.0151977539062 268.55975341796875 525.0889892578125 268.0037841796875 525.1458740234375C266.67291259765625 525.309814453125 265.39312744140625 525.3695068359375 264.1657409667969 525.3340454101562L261.6839599609375 525.4134521484375C261.3473815917969 525.4306640625 261.00653076171875 525.4414672851562 260.66162109375 525.4456787109375C259.97540283203125 525.463134765625 259.3052062988281 525.4547729492188 258.65106201171875 525.4218139648438L255.17335510253906 525.3626098632812L251.57550048828125 525.4349365234375L248.69264221191406 525.7552490234375C248.3963623046875 525.7841186523438 248.1027374267578 525.8079833984375 247.81179809570312 525.826904296875L247.2420196533203 525.8920288085938C246.98138427734375 525.9344482421875 246.7176971435547 525.9735107421875 246.4509735107422 526.009033203125L244.88075256347656 526.1993408203125C244.4267578125 526.280517578125 243.96327209472656 526.3511962890625 243.4902801513672 526.4108276367188L241.11639404296875 526.7152099609375C240.5945281982422 526.7974243164062 240.0605926513672 526.8653564453125 239.51449584960938 526.9183959960938L236.49978637695312 527.1819458007812C236.00640869140625 527.2411499023438 235.50277709960938 527.2874145507812 234.98886108398438 527.3201904296875L229.70191955566406 527.6585693359375C229.1575164794922 527.6936645507812 228.6226043701172 527.71240234375 228.0972442626953 527.7152709960938L223.9920196533203 527.9122924804688C223.5900421142578 527.9298095703125 223.1934051513672 527.9385375976562 222.8021240234375 527.9385375976562L218.6204833984375 528.0814819335938C218.38453674316406 528.0877075195312 218.15048217773438 528.0908813476562 217.9183349609375 528.091064453125L214.4120635986328 528.1660766601562C214.14532470703125 528.1698608398438 213.8810272216797 528.1698608398438 213.61920166015625 528.1660766601562H207.40371704101562C205.9579620361328 528.2918090820312 204.4362030029297 528.27685546875 202.84158325195312 528.103759765625C201.37930297851562 528.0032958984375 200.00015258789062 527.7830810546875 198.70420837402344 527.4569091796875L196.9862823486328 527.172119140625C195.97198486328125 526.9874877929688 195.00477600097656 526.7540283203125 194.0839385986328 526.4758911132812C193.59521484375 526.37158203125 193.1009521484375 526.2512817382812 192.60130310058594 526.1148071289062C192.57559204101562 526.1077880859375 192.5498504638672 526.1007690429688 192.52410888671875 526.0936279296875C192.24432373046875 526.0184326171875 191.96871948242188 525.9391479492188 191.6971435546875 525.8562622070312C189.50070190429688 525.5523681640625 187.249267578125 524.8543701171875 184.98858642578125 523.697021484375C184.32086181640625 523.407958984375 183.68263244628906 523.0957641601562 183.07347106933594 522.7622680664062C181.05563354492188 521.739013671875 179.13677978515625 520.3123779296875 177.39370727539062 518.4357299804688C177.2241668701172 518.2767944335938 177.0582275390625 518.11669921875 176.89588928222656 517.9553833007812V529.6287841796875L177.23004150390625 532.787109375C177.2940673828125 533.1373901367188 177.3519287109375 533.4932861328125 177.40342712402344 533.8548583984375L178.2281951904297 540.2203369140625C178.25621032714844 540.4181518554688 178.2819366455078 540.6148681640625 178.30538940429688 540.8104248046875L178.88377380371094 544.597900390625C178.99273681640625 545.39697265625 179.06419372558594 546.1779174804688 179.10009765625 546.9404907226562L179.3364715576172 548.9688110351562C179.45675659179688 549.6411743164062 179.5530548095703 550.3341674804688 179.6239471435547 551.0479736328125L179.7779541015625 552.998779296875C179.85528564453125 553.5411376953125 179.91697692871094 554.0962524414062 179.96231079101562 554.6642456054688L180.21607971191406 557.8153076171875C180.26837158203125 558.4786987304688 180.29608154296875 559.1282958984375 180.30027770996094 559.7639770507812L180.44871520996094 562.19287109375C180.47166442871094 562.6005859375 180.48544311523438 563.0028076171875 180.4903106689453 563.399658203125L180.61788940429688 566.0629272460938C180.63265991210938 566.4490356445312 180.63929748535156 566.8301391601562 180.6380157470703 567.2062377929688L180.70248413085938 569.784912109375C180.7126007080078 570.21923828125 180.71249389648438 570.6471557617188 180.70248413085938 571.068603515625V573.1685791015625C180.70669555664062 573.4493408203125 180.7066650390625 573.7273559570312 180.70248413085938 574.0026245117188V576.8912353515625L180.70260620117188 576.9752197265625V576.996337890625L180.70248413085938 577.0597534179688V581.0355834960938C180.7027130126953 581.0567016601562 180.70260620117188 581.0778198242188 180.70248413085938 581.0989990234375V599.7725219726562C180.70188903808594 599.9710083007812 180.69920349121094 600.1680908203125 180.69444274902344 600.36376953125L180.61788940429688 606.7935791015625V609.7344970703125C180.66751098632812 610.652099609375 180.6639862060547 611.6002807617188 180.60337829589844 612.5784912109375C180.56195068359375 613.8536376953125 180.43247985839844 615.0684814453125 180.22325134277344 616.2230834960938L179.86837768554688 619.3483276367188Q179.841796875 619.6043701171875 179.80992126464844 619.863037109375L179.7931365966797 620.0109252929688C179.7340850830078 620.4876708984375 179.6638641357422 620.9547729492188 179.58291625976562 621.4122924804688L178.79917907714844 626.4609985351562C178.76007080078125 626.7196655273438 178.7176971435547 626.975341796875 178.6721649169922 627.2280883789062L178.118896484375 631.3065185546875L177.6580047607422 635.3009033203125L177.65550231933594 635.3225708007812L177.34291076660156 639.3552856445312C177.33889770507812 639.6226806640625 177.3308868408203 639.8925170898438 177.31883239746094 640.164794921875L177.06838989257812 644.7511596679688C177.07493591308594 645.1207275390625 177.0738983154297 645.4952392578125 177.0650634765625 645.8746948242188L176.89588928222656 652.3247680664062C176.89462280273438 652.3790283203125 176.89320373535156 652.4331665039062 176.89163208007812 652.4872436523438L176.8324432373047 657.1041870117188V663.6388549804688C176.83045959472656 663.97021484375 176.82264709472656 664.2976684570312 176.8091278076172 664.6212158203125L176.7478485107422 667.42431640625V671.1463012695312L176.8324432373047 675.52392578125C176.8324432373047 676.6207275390625 176.76870727539062 677.6751708984375 176.6461639404297 678.6870727539062L176.59063720703125 679.8253784179688C176.60855102539062 680.9360961914062 176.55035400390625 682.089599609375 176.40948486328125 683.28515625L175.75390625 688.5720825195312C175.6881561279297 689.1270141601562 175.60723876953125 689.6690063476562 175.51182556152344 690.1981201171875L174.98912048339844 693.9107055664062C174.97100830078125 694.0899047851562 174.95101928710938 694.2700805664062 174.92913818359375 694.451171875L174.2808074951172 699.8045043945312C174.23526000976562 700.2694702148438 174.1765899658203 700.7408447265625 174.1043701171875 701.2184448242188L173.34304809570312 706.2516479492188C173.2048797607422 707.1507568359375 173.0278778076172 708.0142822265625 172.81480407714844 708.8425903320312L172.17005920410156 711.95654296875L171.12252807617188 717.5022583007812C171.0813751220703 717.7141723632812 171.03810119628906 717.9240112304688 170.9927520751953 718.1317749023438L170.55364990234375 720.8072509765625C170.46023559570312 721.666015625 170.31948852539062 722.54541015625 170.1285858154297 723.44482421875L169.47573852539062 726.52685546875C169.4247283935547 726.84326171875 169.3674774169922 727.162353515625 169.3038330078125 727.4840087890625L167.99266052246094 734.0186767578125C167.94346618652344 734.2642822265625 167.8914337158203 734.507080078125 167.8366241455078 734.7470092773438L167.165283203125 738.7213745117188C167.1402130126953 738.9151000976562 167.11289978027344 739.1098022460938 167.08331298828125 739.3056640625L166.3919219970703 743.722900390625L165.92018127441406 747.7224731445312C165.6899871826172 749.5325317382812 165.29856872558594 751.2030639648438 164.7687530517578 752.737060546875L164.35523986816406 754.4263305664062C164.1624298095703 755.1683349609375 163.9446563720703 755.88232421875 163.70359802246094 756.5687866210938L163.10752868652344 758.7192993164062L163.0876007080078 758.7900390625L162.63333129882812 760.5681762695312L162.62112426757812 760.6226196289062L162.0550079345703 763.069091796875L161.91445922851562 763.9345703125L161.77561950683594 765.1714477539062L161.71273803710938 766.46044921875L161.71258544921875 766.4805908203125L161.71176147460938 766.5651245117188L161.62718200683594 767.9608764648438V769.2666015625C161.67568969726562 769.867431640625 161.70420837402344 770.4825439453125 161.71176147460938 771.1119384765625V771.196533203125C161.71304321289062 771.3511962890625 161.71302795410156 771.5050048828125 161.71176147460938 771.657958984375V772.761474609375C161.71414184570312 772.9722290039062 161.71412658691406 773.181396484375 161.71176147460938 773.3890380859375V774.2418212890625C161.71124267578125 774.2685546875 161.7114715576172 774.2952880859375 161.7117156982422 774.3219604492188L161.71173095703125 774.3234252929688L161.71176147460938 774.326416015625V775.7432861328125C161.7115020751953 775.7625122070312 161.71160888671875 775.78173828125 161.71173095703125 775.8009643554688L161.71176147460938 775.8067626953125V776.9698486328125C161.71304321289062 777.12451171875 161.71302795410156 777.2783203125 161.71176147460938 777.4312744140625V778.78857421875C161.85980224609375 806.9574584960938 119.56421661376953 807.1265869140625 119.41618347167969 778.957763671875V774.6647338867188C119.41466522216797 774.4960327148438 119.4146728515625 774.328369140625 119.41618347167969 774.1616821289062V773.1632690429688C119.41465759277344 772.9942626953125 119.41466522216797 772.8262329101562 119.41618347167969 772.6592407226562V771.5983276367188L119.4104232788086 771.46875C119.36675262451172 770.903076171875 119.34078979492188 770.324951171875 119.33332824707031 769.7341918945312L119.33158874511719 769.6950073242188C119.33114624023438 769.6455688476562 119.33082580566406 769.5962524414062 119.33064270019531 769.5469970703125C119.3302001953125 769.4281616210938 119.33052062988281 769.309814453125 119.33158874511719 769.1919555664062V768.058837890625C119.32890319824219 767.8375854492188 119.32888793945312 767.6146240234375 119.33158874511719 767.389892578125L119.33282470703125 767.3682861328125C119.33880615234375 766.7642822265625 119.36443328857422 766.17333984375 119.40885925292969 765.5955810546875Q119.41217803955078 765.4990234375 119.41618347167969 765.4020385742188V764.0062866210938C119.45001983642578 763.1715698242188 119.52000427246094 762.363037109375 119.62390899658203 761.580810546875C119.6533203125 761.23681640625 119.68976593017578 760.8892211914062 119.7333984375 760.5380249023438L119.92061614990234 759.009033203125L119.97246551513672 758.5856323242188L119.98717498779297 758.4655151367188C120.06678009033203 757.8228149414062 120.16667175292969 757.1976318359375 120.28582000732422 756.5897827148438L120.55816650390625 754.9127197265625C120.7157974243164 754.0147094726562 120.91169738769531 753.1533813476562 121.14305877685547 752.3280639648438C121.25625610351562 751.7387084960938 121.39230346679688 751.1409301757812 121.55210876464844 750.5350952148438L122.1005859375 748.38818359375C122.18434143066406 748.0350952148438 122.27637481689453 747.6792602539062 122.37687683105469 747.3206787109375L123.45541381835938 743.429443359375C123.53852844238281 743.1319580078125 123.62561798095703 742.8390502929688 123.71656799316406 742.55078125L124.13529968261719 740.974365234375L124.44935607910156 738.3117065429688C124.52412414550781 737.7242431640625 124.61590576171875 737.1514282226562 124.72391510009766 736.59326171875L124.95933532714844 735.06640625C125.0212173461914 734.2438354492188 125.12532043457031 733.4010009765625 125.27412414550781 732.538330078125L126.30540466308594 726.9693603515625C126.36731719970703 726.5671997070312 126.43937683105469 726.1607055664062 126.52184295654297 725.7499389648438L127.7484130859375 719.2363891601562C127.85739135742188 718.6919555664062 127.98026275634766 718.1614379882812 128.1164093017578 717.6447143554688L128.7133026123047 714.8267822265625L129.39793395996094 710.2274169921875C129.532958984375 709.3846435546875 129.7021026611328 708.573486328125 129.90304565429688 707.79345703125L130.64566040039062 703.8619384765625C130.7115020751953 703.5174560546875 130.78297424316406 703.178466796875 130.8599090576172 702.844970703125L131.44976806640625 700.0463256835938C131.45652770996094 700.0000610351562 131.46340942382812 699.9536743164062 131.47042846679688 699.9072875976562L132.28497314453125 694.9155883789062L132.71710205078125 691.347412109375C132.75576782226562 690.5547485351562 132.8329315185547 689.7423095703125 132.95077514648438 688.9104614257812L133.77552795410156 683.1370849609375C133.82643127441406 682.786865234375 133.88327026367188 682.4420166015625 133.94589233398438 682.1024169921875L134.3384246826172 678.5977172851562L134.5219268798828 674.8359375L134.4696502685547 672.1304931640625L134.45242309570312 671.2387084960938L134.4522705078125 671.2308959960938L134.45230102539062 671.188720703125L134.4522705078125 671.1463012695312V667.42431640625L134.45228576660156 667.3926391601562L134.4522705078125 667.36083984375L134.4523468017578 667.357177734375L134.4755401611328 666.290283203125L134.5364227294922 663.4895629882812L134.53684997558594 663.4696655273438V657.3672485351562C134.5326690673828 657.0919799804688 134.5326385498047 656.81396484375 134.53684997558594 656.533203125L134.59315490722656 652.1231079101562C134.59173583984375 651.8614501953125 134.59408569335938 651.5973510742188 134.6002960205078 651.330810546875L134.743896484375 645.856201171875C134.74078369140625 645.404296875 134.74917602539062 644.9452514648438 134.7694854736328 644.4789428710938L135.02325439453125 638.2826538085938C135.0550079345703 637.600341796875 135.1107940673828 636.9356689453125 135.18936157226562 636.28857421875L135.42506408691406 632.234375C135.47869873046875 631.5053100585938 135.55923461914062 630.7971801757812 135.66519165039062 630.10986328125L136.00772094726562 627.2471923828125C136.05191040039062 626.7459716796875 136.1112823486328 626.2371215820312 136.18638610839844 625.7208251953125L136.9265594482422 620.2647094726562C137.01014709472656 619.6870727539062 137.10992431640625 619.1239624023438 137.22518920898438 618.5752563476562L137.83590698242188 614.2376098632812C137.8927001953125 613.8616943359375 137.9563751220703 613.4920654296875 138.0266876220703 613.1285400390625L138.3223114013672 610.5250854492188V606.708984375C138.32281494140625 606.5422973632812 138.32479858398438 606.3765869140625 138.32823181152344 606.2118530273438L138.4069061279297 599.6033325195312V570.7788696289062L138.3369598388672 567.9813842773438C138.33143615722656 567.8710327148438 138.32655334472656 567.76025390625 138.3223114013672 567.6489868164062L138.1531219482422 564.09619140625C138.13885498046875 563.6830444335938 138.13388061523438 563.275634765625 138.13792419433594 562.8739624023438L138.00509643554688 560.7125244140625C137.99978637695312 560.6181030273438 137.9949493408203 560.5239868164062 137.99061584472656 560.4301147460938L137.75131225585938 558.069091796875C137.7234649658203 557.7190551757812 137.7024688720703 557.3729248046875 137.6881866455078 557.0305786132812L137.6365509033203 556.5272216796875C137.584228515625 556.186279296875 137.53782653808594 555.8402099609375 137.49754333496094 555.489013671875L137.05308532714844 551.1267700195312C137.00706481933594 550.8502197265625 136.96485900878906 550.5701293945312 136.9265594482422 550.2866821289062L136.44007873535156 546.7597045898438C136.40232849121094 546.5348510742188 136.36709594726562 546.3076782226562 136.33441162109375 546.0782470703125L135.64292907714844 540.7413330078125C135.5574951171875 540.2474365234375 135.48471069335938 539.7424926757812 135.42506408691406 539.2263793945312L134.6848907470703 533.1146850585938C134.47988891601562 531.3289794921875 134.45895385742188 529.6372680664062 134.6002960205078 528.0421142578125V494.2873229980469L134.53994750976562 487.5285339355469C134.53872680664062 487.46942138671875 134.53768920898438 487.41021728515625 134.53684997558594 487.3508605957031L134.45652770996094 479.4986267089844C134.4549560546875 479.4444580078125 134.4535369873047 479.3902282714844 134.4522705078125 479.3358459472656L134.22378540039062 471.739013671875C134.21388244628906 471.5724792480469 134.2054443359375 471.4049072265625 134.198486328125 471.2362365722656L133.97476196289062 465.6988220214844C133.96337890625 465.53662109375 133.95335388183594 465.3733825683594 133.94471740722656 465.2091064453125L133.5662841796875 456.8835754394531C133.5578155517578 456.7690734863281 133.55001831054688 456.654052734375 133.54290771484375 456.53851318359375L133.00477600097656 447.9091491699219C132.9844970703125 447.6998291015625 132.96649169921875 447.4886779785156 132.95077514648438 447.2757873535156L132.6684112548828 443.0966796875C132.65574645996094 442.95379638671875 132.6441192626953 442.8100891113281 132.63356018066406 442.6655578613281L132.21060180664062 437.37860107421875C132.17596435546875 436.90777587890625 132.15370178222656 436.4439392089844 132.14341735839844 435.9871826171875L131.8933868408203 431.7532958984375C131.8593292236328 431.22735595703125 131.8406982421875 430.7102966308594 131.83697509765625 430.2021789550781L131.55502319335938 424.56304931640625C131.5165252685547 423.6307678222656 131.525634765625 422.72747802734375 131.5792694091797 421.8532409667969L131.6396026611328 417.7957458496094V412.3396301269531L131.47117614746094 402.2127685546875L131.04747009277344 396.5633850097656C130.98106384277344 395.61517333984375 130.96502685546875 394.695556640625 130.99609375 393.8048095703125L130.8492431640625 388.2777099609375C130.83651733398438 388.1221618652344 130.82504272460938 387.9656677246094 130.81484985351562 387.8081970214844L130.3013458251953 379.99560546875L129.68601989746094 374.69439697265625C129.5094451904297 373.73626708984375 129.3837890625 372.736083984375 129.3133544921875 371.6935729980469L128.7423553466797 362.6846008300781C128.71849060058594 362.31610107421875 128.70220947265625 361.95196533203125 128.6933135986328 361.5921936035156L128.25596618652344 353.3584289550781C128.20266723632812 352.4117736816406 128.1988525390625 351.4942626953125 128.24131774902344 350.60601806640625L128.190185546875 344.7646179199219C128.10467529296875 343.5752258300781 128.1074981689453 342.33258056640625 128.20724487304688 341.03765869140625C128.2434844970703 340.34393310546875 128.3064727783203 339.66845703125 128.39480590820312 339.01123046875L129.0924072265625 331.634521484375C129.12521362304688 330.8252868652344 129.19805908203125 329.99505615234375 129.3133544921875 329.14422607421875L130.3918914794922 321.3829650878906C130.45761108398438 320.9010009765625 130.53468322753906 320.42901611328125 130.62266540527344 319.96697998046875L132.12600708007812 310.4072570800781C132.23416137695312 309.7447509765625 132.36334228515625 309.10186767578125 132.512451171875 308.4783935546875L133.94471740722656 299.3258361816406C133.9708251953125 299.1689147949219 133.9981231689453 299.01312255859375 134.02658081054688 298.8583984375L134.89663696289062 291.66204833984375C134.92288208007812 291.1446838378906 134.9648895263672 290.61871337890625 135.02325439453125 290.084228515625L135.84263610839844 282.6335754394531C135.84439086914062 282.60760498046875 135.84619140625 282.5816345214844 135.8480224609375 282.5556335449219L136.58819580078125 272.4046936035156C136.64256286621094 271.66796875 136.7245635986328 270.95269775390625 136.8326416015625 270.2586975097656L137.49754333496094 262.7401428222656C137.51731872558594 262.523681640625 137.5394744873047 262.3091125488281 137.56394958496094 262.0964660644531L138.07809448242188 256.4573059082031L138.3223114013672 249.92459106445312V245.7989501953125Q138.32130432128906 245.63134765625 138.3223114013672 245.46240234375V241.67483520507812C138.32180786132812 241.59120178222656 138.32167053222656 241.50730895996094 138.32192993164062 241.4231719970703C138.322021484375 241.39500427246094 138.3221435546875 241.36680603027344 138.3223114013672 241.3385772705078L138.32351684570312 241.28067016601562C138.3255615234375 241.09542846679688 138.3294219970703 240.9114227294922 138.3350830078125 240.7286376953125L138.4060516357422 237.33985900878906C138.40623474121094 237.2982177734375 138.40652465820312 237.25653076171875 138.4069061279297 237.2147674560547V230.8646697998047C138.4042205810547 230.6427764892578 138.40420532226562 230.4191131591797 138.4069061279297 230.19369506835938L138.48776245117188 224.97781372070312C138.48837280273438 224.8699493408203 138.48960876464844 224.76165771484375 138.49148559570312 224.65296936035156L138.65145874023438 217.4747772216797C138.65248107910156 217.28173828125 138.65553283691406 217.08738708496094 138.66067504882812 216.89173889160156L138.82139587402344 210.06089782714844C138.82302856445312 209.9136505126953 138.82583618164062 209.76565551757812 138.82984924316406 209.6168975830078L138.97361755371094 203.353271484375L138.97789001464844 203.16680908203125L139.14707946777344 196.88592529296875C139.14865112304688 196.8260955810547 139.15040588378906 196.7664031982422 139.15235900878906 196.70684814453125L139.22483825683594 190.7621612548828L139.07492065429688 184.91481018066406L138.758056640625 182.09024047851562C138.4735870361328 180.60263061523438 138.3223114013672 179.01394653320312 138.3223114013672 177.32421875V177.26638793945312C138.31422424316406 176.8988800048828 138.31430053710938 176.53585815429688 138.3223114013672 176.17733764648438V153.7231903076172C136.83387756347656 154.12393188476562 135.2314453125 154.39198303222656 133.5139923095703 154.50775146484375C132.6056365966797 154.5958251953125 131.72044372558594 154.63031005859375 130.85922241210938 154.61468505859375L129.58029174804688 154.6625518798828C129.5196533203125 154.6668701171875 129.4588623046875 154.67098999023438 129.39793395996094 154.6749267578125L125.52789306640625 154.92869567871094C125.33708953857422 154.94105529785156 125.14745330810547 154.95138549804688 124.958984375 154.95970153808594L124.79341125488281 154.9702911376953C123.9874496459961 155.0779571533203 123.15377044677734 155.1494903564453 122.29228210449219 155.18247985839844L120.87122344970703 155.21713256835938C119.86827850341797 155.3143310546875 118.82572174072266 155.3497772216797 117.7439193725586 155.31832885742188L116.09597778320312 156.00723266601562C115.8600845336914 156.1060028076172 115.62498474121094 156.20066833496094 115.39071655273438 156.29127502441406C114.47566223144531 156.7347869873047 113.50109100341797 157.1262664794922 112.46593475341797 157.45957946777344C111.14419555664062 157.94447326660156 109.850341796875 158.3025360107422 108.58856964111328 158.5441131591797C108.18450927734375 158.79684448242188 107.77576446533203 159.03201293945312 107.36296844482422 159.25C107.2762222290039 159.3034210205078 107.18941497802734 159.35610961914062 107.10255432128906 159.4080352783203L107.00911712646484 160.6304168701172L107.10488891601562 162.78530883789062L107.1949234008789 163.8041229248047C107.47834777832031 165.41355895996094 107.59778594970703 167.13648986816406 107.5290298461914 168.97152709960938C107.5219497680664 169.77413940429688 107.4764633178711 170.5542755126953 107.3948974609375 171.31175231933594L107.2975082397461 172.93490600585938C107.29933166503906 173.7144012451172 107.26512145996094 174.5149383544922 107.19275665283203 175.33631896972656L106.92701721191406 177.82098388671875C106.9137954711914 178.25535583496094 106.88970184326172 178.69602966308594 106.8543930053711 179.14292907714844L106.28340148925781 185.82562255859375C106.2680892944336 186.01046752929688 106.25106048583984 186.19393920898438 106.2323226928711 186.3760528564453L105.8604507446289 192.84669494628906C105.84980010986328 193.01165771484375 105.8377685546875 193.17555236816406 105.8243637084961 193.33839416503906L105.52208709716797 200.29071044921875C105.51324462890625 200.48069763183594 105.5025405883789 200.6693115234375 105.49000549316406 200.8565673828125L105.28945922851562 205.97947692871094C105.28811645507812 206.02113342285156 105.28668975830078 206.06272888183594 105.28517150878906 206.104248046875L105.20486450195312 211.6047821044922C105.2034683227539 211.65802001953125 105.2019271850586 211.71116638183594 105.20024108886719 211.76419067382812L105.12027740478516 215.9823760986328C105.11780548095703 216.1195831298828 105.11434173583984 216.25611877441406 105.10989379882812 216.39195251464844L105.03568267822266 220.52915954589844V323.66033935546875C105.07516479492188 324.4765930175781 105.07598114013672 325.31768798828125 105.03568267822266 326.18353271484375L104.41908264160156 339.6294860839844C104.41332244873047 339.9859924316406 104.400390625 340.34686279296875 104.3801040649414 340.7120666503906L103.47074890136719 356.4883117675781C103.4631118774414 356.6258544921875 103.45449829101562 356.76263427734375 103.44493103027344 356.8987121582031L102.73057556152344 372.3491516113281C102.69227600097656 373.1083068847656 102.62410736083984 373.8454284667969 102.52774047851562 374.56060791015625L101.82122039794922 384.74176025390625C101.770263671875 385.40716552734375 101.69700622558594 386.0551452636719 101.60255432128906 386.6856994628906L100.48890686035156 401.4273681640625C100.4314956665039 402.15350341796875 100.34735107421875 402.85870361328125 100.23792266845703 403.5429992675781L98.69439697265625 417.6747741699219C98.67454528808594 418.1995849609375 98.63848876953125 418.7333679199219 98.58560943603516 419.2760925292969L96.91837310791016 435.7248229980469C96.89962005615234 435.9710998535156 96.8773422241211 436.21923828125 96.85148620605469 436.4692687988281L95.4984359741211 449.38128662109375C95.4694595336914 449.85662841796875 95.42717742919922 450.3390808105469 95.37114715576172 450.82861328125L93.80620574951172 464.0459899902344C93.77215576171875 464.3406066894531 93.73381805419922 464.631591796875 93.69127655029297 464.9189453125L92.3047103881836 478.2572937011719C92.27713012695312 478.526611328125 92.24593353271484 478.7929382324219 92.21121215820312 479.0562744140625L91.24732208251953 489.90972900390625C91.22696685791016 490.13311767578125 91.20410919189453 490.3544921875 91.17878723144531 490.5738525390625L90.65518951416016 497.58636474609375C90.63521575927734 497.83892822265625 90.61202239990234 498.0889892578125 90.58565521240234 498.33648681640625L90.26020050048828 504.5200500488281C90.26873016357422 504.9581604003906 90.26657104492188 505.4031982421875 90.25337982177734 505.85516357421875L89.99960327148438 514.441162109375C89.99485778808594 514.5880737304688 89.9889907836914 514.7341918945312 89.98200988769531 514.8795166015625L89.8304214477539 522.1177978515625V534.7642211914062L89.99960327148438 539.3955688476562L90.00154876708984 539.4581909179688L90.16606140136719 541.6277465820312C90.19812774658203 541.8681030273438 90.22725677490234 542.1109619140625 90.25337982177734 542.3562622070312L90.82437133789062 548.066162109375C90.86903381347656 548.4855346679688 90.9035873413086 548.8995971679688 90.9283218383789 549.308349609375L91.30873107910156 553.2351684570312C91.41947174072266 553.9163818359375 91.50521850585938 554.6182250976562 91.56454467773438 555.3410034179688L92.3047103881836 564.5825805664062C92.36254119873047 565.28076171875 92.39285278320312 565.9638061523438 92.39692687988281 566.6314697265625L92.8968505859375 574.9873046875C92.92599487304688 575.4834594726562 92.94144439697266 575.9716796875 92.94367218017578 576.451904296875L93.29866027832031 584.990234375C93.31062316894531 585.280029296875 93.31800079345703 585.5670776367188 93.32087707519531 585.8512573242188L93.55243682861328 592.1804809570312C93.56169128417969 592.4973754882812 93.56551361083984 592.8109130859375 93.56403350830078 593.1210327148438L93.72161865234375 601.5912475585938C93.72484588623047 601.7782592773438 93.7261962890625 601.9640502929688 93.72567749023438 602.148681640625L93.80620574951172 609.8599853515625C93.80602264404297 609.8842163085938 93.80609130859375 609.9083251953125 93.80616760253906 609.9325561523438L93.8061752319336 609.9346313476562L93.80620574951172 609.944580078125L93.80607604980469 618.107666015625L93.80620574951172 618.1922607421875V646.5302734375C93.80547332763672 646.7750244140625 93.80157470703125 647.0176391601562 93.79456329345703 647.2581176757812L93.72161865234375 651.8171997070312V685.9802856445312C93.74075317382812 686.5570678710938 93.74102783203125 687.1460571289062 93.72161865234375 687.747314453125L93.63702392578125 691.8076782226562C93.60679626464844 692.6643676757812 93.53844451904297 693.4937744140625 93.43434143066406 694.2959594726562L93.21406555175781 696.9254760742188C93.16606903076172 697.489501953125 93.10204315185547 698.0408325195312 93.02267456054688 698.5794067382812L92.58341217041016 702.3375244140625L92.55848693847656 702.55078125L92.52268981933594 702.8348388671875L91.90290832519531 707.7531127929688C91.76773071289062 708.8717651367188 91.5709457397461 709.9375 91.31791687011719 710.9510498046875L90.45523834228516 715.4246826171875C90.39863586425781 715.8375854492188 90.33145141601562 716.2551879882812 90.25337982177734 716.677490234375L88.85065460205078 723.92822265625L88.83647918701172 724.0158081054688L87.8173599243164 730.4324340820312C87.80513763427734 730.5278930664062 87.7923812866211 730.6236572265625 87.77908325195312 730.7196655273438L87.27567291259766 734.4008178710938C87.22683715820312 734.8463134765625 87.16511535644531 735.29736328125 87.09013366699219 735.7536010742188C86.9164810180664 736.952880859375 86.67261505126953 738.08935546875 86.365234375 739.1640014648438L85.45282745361328 743.1757202148438C85.33599090576172 743.6945190429688 85.20668029785156 744.2001953125 85.06543731689453 744.69287109375L84.45327758789062 747.2470703125C84.40946960449219 747.4886474609375 84.36201477050781 747.731689453125 84.31085205078125 747.9762573242188L83.34549713134766 752.3922119140625L83.10296630859375 753.97314453125C83.09056091308594 754.0955810546875 83.07727813720703 754.2184448242188 83.06312561035156 754.3417358398438L82.6651382446289 757.6848754882812L82.50601196289062 759.5519409179688C82.5027847290039 759.7105712890625 82.49816131591797 759.8700561523438 82.49214172363281 760.0304565429688L82.36456298828125 762.4703369140625C82.39303588867188 762.97265625 82.40754699707031 763.484619140625 82.40754699707031 764.0062866210938V767.8726806640625C82.47068786621094 769.0489501953125 82.44910430908203 770.2759399414062 82.33482360839844 771.5529174804688C82.33023834228516 771.6109008789062 82.32544708251953 771.669189453125 82.32046508789062 771.7272338867188C82.04002380371094 776.7803344726562 80.19375610351562 780.8881225585938 77.4168701171875 783.992431640625C73.54586791992188 788.5487060546875 67.87076568603516 790.8170166015625 62.107582092285156 790.9669799804688C55.63991928100586 791.2720947265625 49.06085205078125 788.9266967773438 44.79743194580078 783.708740234375C42.06300354003906 780.5494384765625 40.27980041503906 776.3919067382812 40.08702087402344 771.29931640625C40.07390594482422 771.1177978515625 40.06256103515625 770.9349975585938 40.053001403808594 770.7508544921875C39.99357223510742 769.812255859375 39.98477554321289 768.9016723632812 40.02330780029297 768.0195922851562C40.024478912353516 767.9620971679688 40.02583312988281 767.90478515625 40.02737045288086 767.8475341796875V767.3052978515625C40.02585220336914 767.1361083984375 40.025856018066406 766.9679565429688 40.02737045288086 766.80078125V765.337158203125C40.019195556640625 764.9552612304688 40.01911926269531 764.5679931640625 40.02737045288086 764.1754760742188L40.032310485839844 764.0446166992188C40.038814544677734 763.7039794921875 40.05155944824219 763.3675537109375 40.07039260864258 763.035400390625L40.08924865722656 762.5357055664062C40.091644287109375 762.2325439453125 40.099178314208984 761.9261474609375 40.111961364746094 761.6165771484375L40.19655227661133 758.3809814453125C40.22380828857422 757.7086791992188 40.27445983886719 757.0533447265625 40.34736251831055 756.4149169921875L40.445892333984375 754.9369506835938C40.466163635253906 754.4612426757812 40.499916076660156 753.978271484375 40.54759216308594 753.48828125C40.58860778808594 753.0135498046875 40.64125442504883 752.5479736328125 40.70511245727539 752.0913696289062L41.02131652832031 749.3720092773438C41.10710906982422 748.6246948242188 41.22056198120117 747.9008178710938 41.360076904296875 747.2003173828125L41.58669662475586 745.77587890625C41.66419219970703 745.1884765625 41.76360321044922 744.5916748046875 41.88574981689453 743.986083984375C41.948577880859375 743.6605834960938 42.016624450683594 743.3399658203125 42.08974075317383 743.0243530273438L42.574195861816406 740.7600708007812C42.68071365356445 740.0689086914062 42.81818389892578 739.365478515625 42.98806381225586 738.6500854492188L44.12382507324219 733.9722900390625C44.132843017578125 733.931396484375 44.141963958740234 733.8904418945312 44.15119171142578 733.8494873046875L45.43214416503906 728.2174072265625L45.885311126708984 724.840576171875C45.96947479248047 724.23681640625 46.071407318115234 723.6488037109375 46.19025802612305 723.0765380859375L47.03350067138672 717.86376953125C47.086360931396484 717.4932861328125 47.14766311645508 717.1189575195312 47.217620849609375 716.740966796875L48.61337661743164 708.979736328125C48.733882904052734 708.3284301757812 48.8746337890625 707.6967163085938 49.034549713134766 707.0843505859375L50.00352096557617 702.1148681640625L50.47610092163086 697.8616333007812L50.51667785644531 697.4964599609375L51.02206039428711 693.1913452148438L51.35018539428711 690.0578002929688L51.42603302001953 686.4361572265625V651.732666015625C51.42676544189453 651.4879150390625 51.430667877197266 651.2453002929688 51.437679290771484 651.0048217773438L51.510623931884766 646.4456787109375V610.17724609375L51.50996017456055 610.11376953125L51.42927551269531 602.4082641601562C51.428043365478516 602.3545532226562 51.42695999145508 602.3007202148438 51.42603302001953 602.246826171875L51.26929473876953 593.841796875C51.26443099975586 593.7255859375 51.26028060913086 593.60888671875 51.2568473815918 593.4916381835938L51.10043716430664 587.0006103515625C51.095741271972656 586.9088134765625 51.09148025512695 586.8167114257812 51.08766555786133 586.7243041992188L50.729366302490234 578.106201171875C50.712642669677734 577.9000854492188 50.69812774658203 577.6922607421875 50.68585968017578 577.4827270507812L50.16921615600586 568.8290405273438C50.140621185302734 568.5723876953125 50.11543273925781 568.31298828125 50.093719482421875 568.0508422851562L49.353546142578125 558.8092651367188C49.312564849853516 558.3084716796875 49.28565216064453 557.8154907226562 49.2723388671875 557.3303833007812L48.870819091796875 553.1856689453125C48.838340759277344 552.94091796875 48.808902740478516 552.693603515625 48.78255844116211 552.4437255859375L48.326419830322266 548.0452880859375C48.243316650390625 547.4878540039062 48.17658615112305 546.9168090820312 48.126976013183594 546.33203125L47.87689971923828 543.0966796875C47.78783416748047 542.3515014648438 47.72957992553711 541.5830688476562 47.70402145385742 540.7913208007812L47.53483581542969 536.1599731445312C47.51542663574219 535.556884765625 47.51570129394531 534.9661254882812 47.53483581542969 534.3876342773438V528.6524658203125C47.53432846069336 528.59619140625 47.53449630737305 528.539794921875 47.53483581542969 528.4832763671875V522.2574462890625C47.53105545043945 521.994873046875 47.53103256225586 521.7297973632812 47.53483581542969 521.4622192382812L47.689762115478516 514.1226806640625C47.68851089477539 513.7955932617188 47.69321823120117 513.4646606445312 47.70402145385742 513.1300048828125L47.92049026489258 505.78814697265625C47.913883209228516 505.21588134765625 47.92605209350586 504.6319580078125 47.957794189453125 504.0364685058594L48.444190979003906 494.7737121582031C48.484619140625 494.0175476074219 48.554561614990234 493.2832946777344 48.652366638183594 492.5708923339844L48.995750427246094 487.8016357421875C49.010196685791016 487.21856689453125 49.04458999633789 486.6241760253906 49.09977340698242 486.0185241699219L50.151302337646484 475.2738342285156C50.17599105834961 474.8158264160156 50.21305465698242 474.3511047363281 50.262901306152344 473.87969970703125L51.743247985839844 459.4357604980469C51.81382751464844 458.7705078125 51.906288146972656 458.12353515625 52.0195198059082 457.4946594238281L53.3293342590332 445.9646301269531C53.36654281616211 445.6405334472656 53.40895080566406 445.3208312988281 53.4564323425293 445.0054931640625L54.80967712402344 432.0916748046875Q54.8321533203125 431.87432861328125 54.85775375366211 431.6595458984375L56.35551452636719 416.2210998535156C56.38022994995117 415.8136901855469 56.41469955444336 415.4010009765625 56.459205627441406 414.98309326171875L58.23970031738281 398.6816711425781C58.25051498413086 398.4983215332031 58.263248443603516 398.3138427734375 58.277915954589844 398.1283264160156L59.610225677490234 381.52728271484375C59.6303596496582 381.27264404296875 59.653770446777344 381.0206298828125 59.68040084838867 380.7711486816406L60.4022331237793 371.2530212402344C60.40648651123047 370.91046142578125 60.41735076904297 370.5638732910156 60.43498992919922 370.2132263183594L61.22526931762695 354.9344787597656C61.232452392578125 354.6584167480469 61.243919372558594 354.3797912597656 61.2597541809082 354.0986022949219L62.05788040161133 340.2520751953125C62.0475959777832 339.6770935058594 62.05620193481445 339.0902404785156 62.08451843261719 338.4915466308594L62.7464485168457 325.70684814453125C62.74274444580078 325.5354919433594 62.740623474121094 325.3630676269531 62.7401008605957 325.1895751953125V238.86428833007812L62.74000549316406 238.82199096679688L62.7401008605957 238.77969360351562V230.6800994873047L62.740108489990234 230.65187072753906L62.7401008605957 230.5955047607422V220.77516174316406C62.7374153137207 220.55393981933594 62.73740005493164 220.33094787597656 62.7401008605957 220.106201171875L62.74320602416992 219.9329833984375L62.745948791503906 219.78025817871094L62.82039260864258 215.62986755371094C62.8209228515625 215.50123596191406 62.82235336303711 215.37200927734375 62.82469177246094 215.24220275878906L62.901859283447266 211.17164611816406C62.90243911743164 210.9859161376953 62.904903411865234 210.79898071289062 62.90928268432617 210.61083984375L63.06171798706055 205.389892578125C63.06333923339844 205.12364196777344 63.06889343261719 204.85491943359375 63.07846450805664 204.58370971679688L63.2004280090332 199.67030334472656C63.19902038574219 199.24891662597656 63.20760726928711 198.8212890625 63.226497650146484 198.38742065429688L63.56486511230469 190.6261749267578C63.59757995605469 189.93450927734375 63.65494155883789 189.26097106933594 63.73569869995117 188.60548400878906L64.05126190185547 182.7592010498047C64.09834289550781 182.03213500976562 64.17251586914062 181.32566833496094 64.27230834960938 180.6396942138672L64.56414794921875 176.7849578857422C64.58153533935547 176.39170837402344 64.60787200927734 175.993408203125 64.64340209960938 175.590087890625L64.95018768310547 172.55455017089844C64.95341491699219 172.48800659179688 64.95689392089844 172.4213104248047 64.96061706542969 172.35447692871094L65.15141296386719 168.3795623779297L65.03065490722656 167.0130157470703C64.92105865478516 166.2061309814453 64.8475570678711 165.3713836669922 64.81258392333984 164.50865173339844L64.7762222290039 162.8814239501953C64.62606048583984 161.4403076171875 64.60475158691406 159.91688537597656 64.72798919677734 158.31234741210938L64.84297943115234 156.68157958984375C64.86526489257812 155.88922119140625 64.9276123046875 155.07691955566406 65.03240966796875 154.24513244628906C65.13066864013672 153.3314971923828 65.27179718017578 152.4523162841797 65.4527587890625 151.60733032226562C65.53466033935547 150.8822021484375 65.65306091308594 150.14370727539062 65.80989074707031 149.3924560546875C65.99650573730469 148.30177307128906 66.24396514892578 147.2650909423828 66.54669952392578 146.2816925048828V140.54820251464844C66.54669952392578 125.76921844482422 78.11957550048828 118.72091674804688 89.15809631347656 119.40328979492188C89.78997039794922 119.09854888916016 90.44802856445312 118.82369995117188 91.13216400146484 118.5812759399414C94.05887603759766 117.28359985351562 97.02481079101562 116.78077697753906 99.8904800415039 116.9217529296875L100.08710479736328 116.8415298461914C100.2265625 116.78565979003906 100.36571502685547 116.731201171875 100.50457000732422 116.67814636230469L101.04471588134766 116.44048309326172C101.46179962158203 116.24322509765625 101.89089965820312 116.05426025390625 102.33216857910156 115.8740005493164L102.3922119140625 115.84757995605469C103.00170135498047 115.59375 103.60589599609375 115.36738586425781 104.2043685913086 115.16748046875L104.71906280517578 114.97831726074219C104.85614776611328 114.92481231689453 104.99440002441406 114.87226104736328 105.13380432128906 114.82068634033203C107.5055923461914 113.65947723388672 110.24207305908203 112.93019104003906 113.33354187011719 112.77223205566406C115.46829986572266 112.52815246582031 117.48387145996094 112.59331512451172 119.36714172363281 112.9200668334961L119.95977020263672 112.90560913085938C120.05315399169922 112.89891815185547 120.1468734741211 112.8926773071289 120.2409439086914 112.88688659667969L122.2666244506836 112.75724029541016C122.44310760498047 112.74244689941406 122.62084197998047 112.72926330566406 122.7998275756836 112.71770477294922L126.66987609863281 112.46393585205078C127.0372543334961 112.44021606445312 127.40030670166016 112.42398071289062 127.75902557373047 112.41505432128906L129.2304229736328 112.32896423339844L129.43605041503906 112.28291320800781C130.43191528320312 111.99492645263672 131.48077392578125 111.76661682128906 132.5829315185547 111.60404968261719ZM440.58770751953125 388.06195068359375 440.5137023925781 387.0445556640625C440.4789733886719 386.8011779785156 440.44720458984375 386.55523681640625 440.41851806640625 386.30670166015625L440.1858825683594 383.8323974609375C440.1819152832031 383.797119140625 440.17803955078125 383.7618713378906 440.1742248535156 383.7266845703125L439.88104248046875 381.60113525390625C439.8697509765625 381.5484619140625 439.85858154296875 381.49566650390625 439.8475341796875 381.4427185058594L439.11181640625 377.83258056640625L438.580322265625 375.8055114746094C438.5655822753906 375.7602233886719 438.5509338378906 375.71484375 438.536376953125 375.6693420410156L437.52130126953125 372.4239501953125C437.3174743652344 371.8945617675781 437.1268615722656 371.3480529785156 436.9502868652344 370.7842102050781L435.9770812988281 367.706787109375C435.6180419921875 366.7578125 435.3087158203125 365.75372314453125 435.0543518066406 364.6936340332031C434.744384765625 363.52899169921875 434.5268249511719 362.3924865722656 434.394775390625 361.2862854003906L434.3742980957031 361.17364501953125C434.2643127441406 360.7286071777344 434.1641540527344 360.2735900878906 434.0741882324219 359.8085021972656L433.3553771972656 355.88018798828125C433.2539367675781 355.4054260253906 433.1648254394531 354.9198303222656 433.08868408203125 354.4234313964844C432.9080505371094 353.3940124511719 432.7926330566406 352.3924560546875 432.738037109375 351.4195556640625L432.63873291015625 350.50091552734375L432.53387451171875 349.7890625L432.2119140625 348.24920654296875L431.9889831542969 347.42724609375C431.8753662109375 347.098388671875 431.76678466796875 346.7633361816406 431.663330078125 346.4219665527344L430.436767578125 342.361572265625C430.3643493652344 342.12261962890625 430.2957458496094 341.8847961425781 430.23089599609375 341.6481628417969L429.4876403808594 339.3962707519531C429.36883544921875 339.0596008300781 429.25567626953125 338.71624755859375 429.1484375 338.36639404296875C428.8336486816406 337.38824462890625 428.5842590332031 336.42840576171875 428.3963623046875 335.4881896972656L427.9902648925781 333.83984375L427.3377685546875 332.0704040527344L426.19134521484375 329.3506164550781C426.0599670410156 329.09613037109375 425.9312744140625 328.8370361328125 425.8053894042969 328.5732116699219L424.2025451660156 325.07342529296875C423.7681884765625 324.2796936035156 423.3638610839844 323.43768310546875 422.99273681640625 322.5461120605469L420.8568115234375 317.4283447265625C420.84136962890625 317.3907775878906 420.8260192871094 317.3532409667969 420.8107604980469 317.3157043457031L419.4399108886719 314.4465026855469C419.1714172363281 313.8698425292969 418.92852783203125 313.2970886230469 418.71038818359375 312.7286071777344L418.2475891113281 311.6778869628906L417.3824157714844 310.08349609375C417.0910339355469 309.5772399902344 416.81085205078125 309.05084228515625 416.54266357421875 308.50396728515625L416.5048522949219 308.4256591796875C416.43389892578125 308.28192138671875 416.3645935058594 308.1383972167969 416.2969665527344 307.99505615234375L415.06231689453125 305.4375305175781C414.8482360839844 304.9979553222656 414.64935302734375 304.5603942871094 414.4653015136719 304.1250305175781L412.7572021484375 300.48895263671875C412.5742492675781 300.09259033203125 412.4033203125 299.6980895996094 412.244140625 299.3056335449219L410.5155334472656 295.60382080078125C410.24066162109375 295.00299072265625 409.993408203125 294.4065246582031 409.7728271484375 293.81488037109375L408.8503112792969 291.82000732421875C408.6298828125 291.4158630371094 408.4164733886719 290.9994812011719 408.21044921875 290.5706481933594L406.2183532714844 286.3230285644531C406.1629638671875 286.2240295410156 406.10797119140625 286.12432861328125 406.0533752441406 286.02386474609375L403.6529846191406 281.48028564453125C403.3716735839844 281.0040588378906 403.10009765625 280.5096435546875 402.8388977050781 279.9967346191406L401.46356201171875 277.26068115234375C401.3711853027344 277.1031494140625 401.27978515625 276.9436950683594 401.1893615722656 276.78228759765625L399.2021789550781 273.1734924316406L396.15618896484375 268.68267822265625C396.1215515136719 268.6316223144531 396.0871276855469 268.5805969238281 396.052978515625 268.529541015625L394.4451599121094 266.3241882324219C394.0406494140625 265.8388977050781 393.6449279785156 265.3282165527344 393.2589416503906 264.7914733886719L389.95989990234375 260.265869140625C389.80291748046875 260.0467529296875 389.65057373046875 259.8274841308594 389.5028076171875 259.6081237792969L388.5702209472656 258.3935852050781L388.5429992675781 258.362548828125L385.2164611816406 254.50111389160156C384.94830322265625 254.22586059570312 384.6824645996094 253.94105529785156 384.4191589355469 253.64659118652344L380.3797912597656 249.09994506835938L380.37664794921875 249.09640502929688L376.7425231933594 245.31436157226562C376.2046813964844 244.7561798095703 375.70458984375 244.1912078857422 375.2409973144531 243.6206512451172L371.6882019042969 239.60446166992188L368.9191589355469 236.83541870117188C368.4617919921875 236.4098663330078 368.00994873046875 235.95851135253906 367.56439208984375 235.4806365966797L364.9208984375 232.66798400878906C364.78369140625 232.52003479003906 364.6490783691406 232.3716583251953 364.5169982910156 232.222900390625L364.23046875 231.94586181640625C364.15740966796875 231.88404846191406 364.0844421386719 231.82164001464844 364.01153564453125 231.75863647460938L362.2326354980469 230.20025634765625C362.0569152832031 230.0603790283203 361.8815002441406 229.91720581054688 361.7064514160156 229.77073669433594L359.574951171875 227.96971130371094C359.4605712890625 227.88058471679688 359.3462829589844 227.79010009765625 359.2321472167969 227.69825744628906L357.1330261230469 225.95643615722656C356.9230651855469 225.80136108398438 356.71337890625 225.64181518554688 356.50408935546875 225.4777374267578L354.13055419921875 223.6006317138672C353.8992919921875 223.43505859375 353.6683044433594 223.26422119140625 353.4376525878906 223.08802795410156L348.06610107421875 219.0276641845703C347.80950927734375 218.83169555664062 347.5592346191406 218.633544921875 347.315185546875 218.43333435058594L343.6885070800781 215.81320190429688C342.8368225097656 215.1961669921875 342.05169677734375 214.55445861816406 341.3304748535156 213.8916473388672L340.48236083984375 213.20004272460938C340.17584228515625 212.98086547851562 339.86993408203125 212.75228881835938 339.564697265625 212.51414489746094L335.680419921875 209.40672302246094C335.6217041015625 209.3643341064453 335.5630187988281 209.3216094970703 335.50433349609375 209.27853393554688L333.1312255859375 207.53077697753906C332.9070129394531 207.37802124023438 332.6829528808594 207.22044372558594 332.45904541015625 207.05801391601562L329.8155822753906 205.1547088623047C329.7123107910156 205.07949829101562 329.6099853515625 205.00393676757812 329.5086975097656 204.9280242919922C329.3643493652344 204.84327697753906 329.21990966796875 204.75669860839844 329.0754089355469 204.66830444335938L326.833740234375 203.25140380859375L326.8133544921875 203.2388458251953L324.6379089355469 201.9925079345703C324.4888916015625 201.9204559326172 324.3396911621094 201.84664916992188 324.19024658203125 201.77105712890625L319.7831726074219 199.49217224121094L319.7280578613281 199.46595764160156L315.2770690917969 197.35302734375C314.8383483886719 197.1632537841797 314.3974609375 196.9583282470703 313.9547119140625 196.73788452148438L311.3631591796875 195.4126434326172C310.8548278808594 195.18450927734375 310.3439636230469 194.93563842773438 309.8309020996094 194.6654052734375L305.7366027832031 192.42173767089844C305.6915588378906 192.4014129638672 305.6464538574219 192.38092041015625 305.6013488769531 192.36029052734375L299.4896240234375 189.54763793945312L299.381103515625 189.49761962890625L295.8453063964844 187.86807250976562C295.7983093261719 187.8500518798828 295.7512512207031 187.8318634033203 295.7041931152344 187.8135223388672L288.9867858886719 185.1977081298828L284.09014892578125 183.50643920898438L278.17266845703125 181.70181274414062C277.7022399902344 181.55880737304688 277.2437744140625 181.4059295654297 276.797119140625 181.24362182617188L273.9717102050781 180.3837127685547L271.4022216796875 179.64956665039062C270.8600158691406 179.52879333496094 270.3111572265625 179.38833618164062 269.7558288574219 179.22750854492188L266.0338134765625 178.1489715576172C265.7476806640625 178.06610107421875 265.4658508300781 177.9795684814453 265.1883544921875 177.88946533203125L263.87042236328125 177.53195190429688C263.35699462890625 177.42393493652344 262.83740234375 177.29847717285156 262.31182861328125 177.155029296875L257.9468688964844 175.9718475341797C257.2391357421875 175.80853271484375 256.52142333984375 175.6094207763672 255.7943572998047 175.3727569580078C254.891845703125 175.09535217285156 254.03353881835938 174.78016662597656 253.21868896484375 174.43048095703125L249.51739501953125 173.0312042236328C248.5133819580078 172.65650939941406 247.5689697265625 172.238525390625 246.68252563476562 171.78164672851562L242.98272705078125 170.2185516357422L242.93997192382812 170.1995849609375L240.70486450195312 169.37814331054688L236.30003356933594 168.2306671142578L236.1829833984375 168.20069885253906L233.47662353515625 167.50799560546875L232.2963409423828 167.28125C230.52183532714844 167.10986328125 228.6718292236328 166.71188354492188 226.7572784423828 166.05702209472656C225.7588348388672 165.74786376953125 224.815673828125 165.386474609375 223.92686462402344 164.97804260253906C223.5312042236328 164.8230743408203 223.1450653076172 164.6611785888672 222.7683868408203 164.49266052246094L221.83494567871094 164.10684204101562C221.47842407226562 163.9532928466797 221.12997436523438 163.7945098876953 220.7895050048828 163.63067626953125L220.45018005371094 163.4876251220703L219.1406707763672 163.03565979003906L217.20616149902344 162.49122619628906C216.85548400878906 162.40357971191406 216.5021514892578 162.3077392578125 216.14617919921875 162.2035369873047L213.06832885742188 161.30899047851562C212.8267364501953 161.25148010253906 212.5838165283203 161.190185546875 212.33958435058594 161.125L208.23097229003906 159.96615600585938L207.16819763183594 159.787109375C206.35159301757812 159.69818115234375 205.51634216308594 159.56690979003906 204.66293334960938 159.39088439941406L199.20680236816406 158.22775268554688C198.51889038085938 158.08595275878906 197.85345458984375 157.9219207763672 197.21026611328125 157.7369384765625L193.0950927734375 156.74740600585938C192.8488311767578 156.6894989013672 192.6055450439453 156.6287841796875 192.36526489257812 156.56532287597656L189.77432250976562 155.98605346679688L187.5543670654297 155.8380584716797C187.42005920410156 155.82858276367188 187.2864532470703 155.81817626953125 187.153564453125 155.806884765625L185.28517150878906 155.76513671875C185.05650329589844 155.76414489746094 184.8260040283203 155.76026916503906 184.5936737060547 155.7534637451172L183.507568359375 155.72349548339844C182.57516479492188 155.7526397705078 181.61180114746094 155.72821044921875 180.61788940429688 155.64625549316406V176.3654327392578L180.9997100830078 179.6427459716797C181.19256591796875 180.7636260986328 181.31268310546875 181.94093322753906 181.35287475585938 183.17483520507812C181.3738555908203 183.5920867919922 181.38453674316406 184.0037841796875 181.3852081298828 184.4098663330078L181.52725219726562 189.94944763183594C181.5430145263672 190.55137634277344 181.53924560546875 191.14097595214844 181.5167694091797 191.7182159423828L181.45127868652344 197.08863830566406C181.45396423339844 197.40521240234375 181.45114135742188 197.725341796875 181.44265747070312 198.04904174804688L181.2734832763672 204.24534606933594L181.1254425048828 210.78001403808594C181.12318420410156 210.8636016845703 181.1205596923828 210.9469451904297 181.11756896972656 211.030029296875L180.9562530517578 217.88568115234375C180.95306396484375 218.00733947753906 180.9490966796875 218.1284637451172 180.9443817138672 218.24903869628906L180.78707885742188 225.3085479736328L180.70248413085938 230.76467895507812V237.1957244873047C180.70315551757812 237.30735778808594 180.70315551757812 237.41944885253906 180.70248413085938 237.531982421875V237.61656188964844C180.7001190185547 237.87979125976562 180.69407653808594 238.14051818847656 180.68443298339844 238.3987579345703L180.61788940429688 241.59234619140625V249.41522216796875C180.6490020751953 250.1433868408203 180.6495819091797 250.8912353515625 180.61788940429688 251.65870666503906L180.39633178710938 256.40008544921875C180.4227752685547 257.3730163574219 180.39231872558594 258.3797607421875 180.30067443847656 259.4199523925781L179.66952514648438 266.0469970703125C179.65634155273438 266.233642578125 179.6411590576172 266.4213562011719 179.6239471435547 266.6101989746094L178.79917907714844 275.8729248046875C178.7757568359375 276.1300354003906 178.74900817871094 276.3844909667969 178.71900939941406 276.6362609863281L178.0590057373047 285.7066345214844C178.00747680664062 286.4049072265625 177.93118286132812 287.0839538574219 177.8314208984375 287.7438049316406L177.18243408203125 293.6300048828125C177.1531524658203 294.0361022949219 177.11412048339844 294.44732666015625 177.0650634765625 294.8636474609375L176.0627899169922 303.31390380859375C176.01268005371094 304.2220458984375 175.91087341308594 305.15570068359375 175.75390625 306.1142578125L173.93519592285156 317.174560546875L172.4011993408203 326.8504943847656C172.39126586914062 326.93109130859375 172.38095092773438 327.01190185546875 172.37025451660156 327.0928649902344L171.3119659423828 334.7084045410156L170.47708129882812 343.5191345214844L170.55154418945312 352.026123046875C170.55242919921875 352.1938781738281 170.5518035888672 352.36065673828125 170.54969787597656 352.52642822265625L170.9200897216797 359.4993591308594C170.932373046875 359.6508483886719 170.94345092773438 359.80322265625 170.95335388183594 359.95654296875L171.4776153564453 367.9329528808594L172.37025451660156 374.9080505371094C172.50030517578125 375.9850769042969 172.5633544921875 377.02825927734375 172.5641326904297 378.0370178222656L173.0258331298828 384.99554443359375C173.07919311523438 385.822021484375 173.0946502685547 386.6266174316406 173.0743408203125 387.4091491699219L173.23831176757812 393.06597900390625C173.2535858154297 393.2366638183594 173.26736450195312 393.40850830078125 173.2796173095703 393.58154296875L173.76600646972656 400.3699645996094C173.8448028564453 401.4864501953125 173.85415649414062 402.5633239746094 173.79933166503906 403.6002197265625L173.93519592285156 411.7686462402344C173.93899536132812 412.035400390625 173.93898010253906 412.2996826171875 173.93519592285156 412.5614929199219V417.6549377441406Q173.93875122070312 417.9662170410156 173.93519592285156 418.28216552734375L173.8629608154297 423.1583251953125L174.06719970703125 428.6051330566406C174.08103942871094 428.7722473144531 174.0934295654297 428.94049072265625 174.1043701171875 429.1098327636719L174.37106323242188 433.6258850097656C174.3899688720703 433.8248291015625 174.4068145751953 434.0254211425781 174.4215850830078 434.22760009765625L174.75994873046875 439.5145568847656L175.16175842285156 444.2304992675781C175.18670654296875 444.58294677734375 175.2047119140625 444.93145751953125 175.21592712402344 445.2760009765625L175.75390625 453.9796447753906C175.78155517578125 454.4286804199219 175.79803466796875 454.8712158203125 175.80368041992188 455.3072204589844L176.0682373046875 461.12762451171875C176.1512451171875 461.80615234375 176.2090606689453 462.5039978027344 176.24029541015625 463.2212219238281L176.49407958984375 469.5021057128906C176.51405334472656 469.98590087890625 176.52120971679688 470.4618835449219 176.51597595214844 470.9300537109375L176.5933074951172 474.7774353027344C187.59034729003906 466.768798828125 206.203369140625 470.9585876464844 209.9855194091797 485.8705139160156H213.75648498535156L217.02655029296875 485.8005676269531C217.16937255859375 485.79461669921875 217.31298828125 485.7897033691406 217.4573516845703 485.7859191894531L222.4270782470703 485.6167297363281C222.91282653808594 485.60400390625 223.39056396484375 485.6039733886719 223.8602752685547 485.61627197265625L226.3015594482422 485.49908447265625C226.52366638183594 485.4793395996094 226.74777221679688 485.4621276855469 226.97386169433594 485.4475402832031L232.26080322265625 485.10919189453125C232.3711395263672 485.1020812988281 232.48109436035156 485.0956115722656 232.5906524658203 485.08984375L235.4752655029297 484.7919616699219L235.56517028808594 484.78338623046875L237.16860961914062 484.58294677734375C237.45346069335938 484.53570556640625 237.74197387695312 484.4925842285156 238.03414916992188 484.45361328125L240.8468017578125 484.0517883300781C241.4750518798828 483.96826171875 242.09197998046875 483.9077453613281 242.69749450683594 483.8692932128906L242.93125915527344 483.84259033203125C243.46438598632812 483.7562561035156 244.0102081298828 483.6847839355469 244.56881713867188 483.62884521484375L247.94686889648438 483.3187561035156C248.36892700195312 483.2688293457031 248.7984161376953 483.22900390625 249.2353515625 483.1995849609375C250.33123779296875 483.1012878417969 251.39013671875 483.0717468261719 252.41160583496094 483.1059265136719L253.61041259765625 483.08184814453125C254.25230407714844 483.0480651855469 254.90980529785156 483.037841796875 255.5827178955078 483.0523681640625C255.8126678466797 483.0539855957031 256.04071044921875 483.0585021972656 256.2668762207031 483.06585693359375L259.8922424316406 483.1278076171875L263.5207824707031 483.01171875L267.2180480957031 482.50579833984375C267.82904052734375 482.3998107910156 268.4569091796875 482.315185546875 269.1016845703125 482.2530822753906C270.2979736328125 482.1124267578125 271.4527893066406 482.0562744140625 272.5650634765625 482.0777893066406L274.1888732910156 482.0173645019531C274.35955810546875 482.003173828125 274.5314025878906 481.990478515625 274.7044372558594 481.97930908203125L279.4972229003906 481.7175598144531L281.4926452636719 481.51116943359375L282.58111572265625 481.31707763671875C282.6830749511719 481.2906188964844 282.78558349609375 481.2646484375 282.88861083984375 481.2391357421875L286.6106262207031 480.32977294921875C286.8963623046875 480.25885009765625 287.18017578125 480.1931457519531 287.4621276855469 480.132568359375L289.0958557128906 479.6921081542969C289.4718933105469 479.5666809082031 289.85595703125 479.4478454589844 290.248046875 479.3358459472656L296.3597717285156 477.6017150878906C296.9941101074219 477.4219665527344 297.61993408203125 477.26873779296875 298.2369384765625 477.1409912109375L300.4113464355469 476.5544738769531C301.7803039550781 476.044921875 303.26263427734375 475.6414794921875 304.8611755371094 475.36004638671875L309.30670166015625 474.64251708984375C310.3128967285156 474.41552734375 311.36859130859375 474.244140625 312.474365234375 474.13348388671875L317.0528259277344 473.66387939453125L320.71295166015625 473.20263671875C320.8281555175781 473.18096923828125 320.9439697265625 473.159912109375 321.0603942871094 473.1395263671875L326.2359924316406 472.2386779785156L331.3804931640625 470.9824523925781C331.4531555175781 470.9649658203125 331.52569580078125 470.9478454589844 331.5981140136719 470.9310302734375L334.3623352050781 470.1576843261719C334.9781494140625 469.9919128417969 335.5856628417969 469.8507080078125 336.1846923828125 469.7331237792969L337.8531799316406 469.3045959472656L341.95440673828125 468.0217590332031C342.1278991699219 467.96795654296875 342.3008117675781 467.91619873046875 342.4731140136719 467.8664245605469C342.712646484375 467.774658203125 342.95562744140625 467.6854248046875 343.2021179199219 467.59881591796875L346.3320007324219 466.520263671875C346.9385070800781 466.3076477050781 347.5384521484375 466.12060546875 348.1315002441406 465.9582214355469L349.18670654296875 465.63006591796875C349.6798400878906 465.4498291015625 350.1874084472656 465.2811279296875 350.7095947265625 465.12451171875L355.6530456542969 463.65277099609375L359.6408996582031 462.15130615234375L359.822265625 462.0830078125L360.0569152832031 461.9946594238281C360.66131591796875 461.76715087890625 361.2597351074219 461.5657043457031 361.8517761230469 461.3893127441406L365.2713928222656 460.2494201660156L367.6854248046875 459.167724609375L370.6671142578125 457.6393127441406C371.5745849609375 457.11309814453125 372.5483703613281 456.62725830078125 373.5905456542969 456.18682861328125C374.03076171875 455.9911193847656 374.4690856933594 455.8108825683594 374.90521240234375 455.6456604003906L377.83343505859375 454.44342041015625C378.3798828125 454.1902160644531 378.9466247558594 453.95074462890625 379.5340270996094 453.7258605957031L384.0575256347656 451.9805908203125L387.5490417480469 450.17303466796875C387.7834167480469 450.05169677734375 388.01727294921875 449.9347839355469 388.2506408691406 449.8222351074219L390.37127685546875 448.76190185546875L394.4855041503906 446.2818298339844C394.5506591796875 446.2435607910156 394.61578369140625 446.20562744140625 394.6808776855469 446.1680908203125L396.2718505859375 445.1317138671875C396.4215087890625 445.0208435058594 396.5732727050781 444.9107666015625 396.7271728515625 444.8014831542969L398.30206298828125 443.7068786621094C399.1339416503906 443.04541015625 400.03900146484375 442.4147033691406 401.0201721191406 441.81964111328125L404.7553405761719 439.5485534667969L405.5679931640625 438.95989990234375L407.2713317871094 437.4498596191406C407.7200012207031 437.00323486328125 408.1949157714844 436.56329345703125 408.69683837890625 436.1308898925781L410.75335693359375 434.39697265625C410.8683776855469 434.2977294921875 410.98486328125 434.1988830566406 411.102783203125 434.1004943847656C411.1720275878906 434.0422668457031 411.2413635253906 433.98455810546875 411.31072998046875 433.9273986816406L413.41278076171875 432.1551208496094C413.8533630371094 431.7931823730469 414.29595947265625 431.451904296875 414.7402038574219 431.13079833984375C415.0815124511719 430.84063720703125 415.4355163574219 430.5545959472656 415.802490234375 430.27294921875L417.7057800292969 428.8560485839844C417.92706298828125 428.6863708496094 418.1486511230469 428.5216979980469 418.3705139160156 428.36187744140625L419.5074768066406 427.5166320800781C419.7530212402344 427.2984619140625 420.00537109375 427.082275390625 420.2646789550781 426.8681640625L422.2353515625 425.3252258300781L424.3065490722656 423.26959228515625L425.9508361816406 421.46490478515625C426.2467346191406 421.0928649902344 426.5576477050781 420.7226867675781 426.8839416503906 420.3546447753906L429.9292297363281 416.97100830078125L431.494140625 415.15228271484375C432.01593017578125 414.5613708496094 432.5478820800781 414.0088195800781 433.0886535644531 413.4934387207031C433.2968444824219 413.2633361816406 433.5065612792969 413.0391845703125 433.7176818847656 412.8209533691406L433.8875427246094 412.63433837890625C434.1567687988281 412.3157958984375 434.43743896484375 411.99896240234375 434.7297668457031 411.6840515136719L436.1005859375 410.2331848144531L436.1680908203125 410.1212463378906L436.3619384765625 409.6724853515625L436.54949951171875 409.1767883300781C436.6037902832031 409.01904296875 436.65985107421875 408.86083984375 436.7176513671875 408.70220947265625L436.9254455566406 408.1326904296875C437.01300048828125 407.858642578125 437.1058654785156 407.5832214355469 437.2040710449219 407.30645751953125L437.97906494140625 405.2048034667969L438.6830139160156 402.2579345703125L438.6841125488281 402.2520751953125L438.7135925292969 402.09368896484375C438.78985595703125 401.4461975097656 438.89251708984375 400.7869567871094 439.02276611328125 400.1162109375L439.8475341796875 395.99237060546875C439.85455322265625 395.9562683105469 439.8616027832031 395.92022705078125 439.8687438964844 395.8842468261719L440.2463073730469 393.4605407714844L440.2508544921875 393.33856201171875C440.2036437988281 392.0731201171875 440.2561950683594 390.75091552734375 440.41851806640625 389.3731384277344L440.59600830078125 388.1574401855469C440.59320068359375 388.1256408691406 440.5904235839844 388.0938415527344 440.58770751953125 388.06195068359375Z" fill="black"/>
</svg>
