<svg xmlns="http://www.w3.org/2000/svg" viewBox="0 0 497 1000">
  <path d="M182.1546630859375 111.71745300292969C182.78184509277344 111.64143371582031 183.39723205566406 111.58887481689453 184.00071716308594 111.55877685546875L190.0555877685547 111.07794952392578C191.53726196289062 110.96448516845703 192.9481658935547 110.97686767578125 194.2873077392578 111.10218048095703L197.62643432617188 111.13983917236328H211.96368408203125C213.0269775390625 111.06826782226562 214.13417053222656 111.06624603271484 215.28488159179688 111.13983917236328L223.8246612548828 111.7237548828125C224.2985076904297 111.73566436767578 224.7800750732422 111.76091003417969 225.2693328857422 111.79996490478516L231.73306274414062 112.36272430419922C232.3038787841797 112.36857604980469 232.8861083984375 112.39387512207031 233.4796905517578 112.43946838378906L241.54563903808594 113.07896423339844C241.74530029296875 113.09485626220703 241.943359375 113.11280059814453 242.13978576660156 113.13276672363281L251.13815307617188 113.65657806396484C251.30418395996094 113.66680145263672 251.46913146972656 113.678466796875 251.6329803466797 113.6915512084961L260.89569091796875 114.04853057861328C261.02423095703125 114.05384063720703 261.15216064453125 114.06002044677734 261.2794494628906 114.06707763671875L268.053955078125 114.29608154296875C269.0176696777344 114.32429504394531 269.9460144042969 114.40227508544922 270.839111328125 114.52645874023438L277.5360107421875 115.09782409667969C278.68475341796875 115.12052917480469 279.877197265625 115.22892761230469 281.11212158203125 115.43067932128906L291.0965881347656 117.03974151611328C291.60888671875 117.12298583984375 292.1091613769531 117.21913146972656 292.59747314453125 117.32763671875L296.25384521484375 117.92678833007812C296.8868103027344 118.03959655761719 297.50103759765625 118.17194366455078 298.0967712402344 118.32280731201172L299.4750061035156 118.56824493408203C300.18896484375 118.66405487060547 300.9169616699219 118.79348754882812 301.6586608886719 118.95824432373047L307.9207763671875 120.32108306884766C308.6399841308594 120.44981384277344 309.3720703125 120.61382293701172 310.1165466308594 120.81485748291016L317.9349670410156 122.91901397705078C319.26910400390625 123.28343963623047 320.5087890625 123.7303695678711 321.65673828125 124.24967193603516L327.9021911621094 126.5367431640625L327.9400329589844 126.54972839355469L335.73779296875 129.19024658203125C336.3023681640625 129.3843994140625 336.8484191894531 129.59268188476562 337.3761901855469 129.81431579589844L341.72039794921875 131.48643493652344L347.5382385253906 133.42001342773438C347.6939392089844 133.47010803222656 347.85003662109375 133.52197265625 348.006591796875 133.57566833496094L348.156494140625 133.62548828125C348.838134765625 133.8577423095703 349.4928283691406 134.1107177734375 350.1210021972656 134.3830108642578L354.2563781738281 136.02359008789062C354.5049133300781 136.10678100585938 354.75457763671875 136.19444274902344 355.00531005859375 136.28662109375L358.9538269042969 137.7782745361328C359.7789611816406 138.03292846679688 360.615478515625 138.3393096923828 361.46221923828125 138.70022583007812L363.90936279296875 139.75665283203125C364.4397888183594 139.96237182617188 364.97235107421875 140.19227600097656 365.5065002441406 140.44723510742188C367.3642578125 141.26882934570312 368.993408203125 142.2379150390625 370.4071350097656 143.32347106933594L371.8133544921875 144.2036895751953C372.84930419921875 144.76805114746094 373.8840026855469 145.43429565429688 374.912353515625 146.20919799804688L374.98577880859375 146.2650146484375C375.260986328125 146.4654998779297 375.52874755859375 146.66912841796875 375.78924560546875 146.8757781982422L378.52947998046875 148.9587860107422C379.34503173828125 149.49911499023438 380.1550598144531 150.10797119140625 380.9566345214844 150.78883361816406L385.7013244628906 154.83212280273438C385.83380126953125 154.9456329345703 385.9643859863281 155.05966186523438 386.0930480957031 155.1742401123047L387.96856689453125 156.61622619628906C388.29302978515625 156.84288024902344 388.6169128417969 157.08013916015625 388.9400939941406 157.3282470703125L391.4839172363281 159.3067626953125C391.92340087890625 159.6173095703125 392.3614501953125 159.94781494140625 392.7976989746094 160.298828125L396.3107604980469 163.13693237304688L400.9461669921875 166.50816345214844C401.79461669921875 167.12286376953125 402.57537841796875 167.7627716064453 403.2911682128906 168.4241943359375L405.1338806152344 169.89132690429688C406.0180358886719 170.6213836669922 406.8195495605469 171.37640380859375 407.542236328125 172.15176391601562L410.1260986328125 174.57411193847656C410.4844970703125 174.91363525390625 410.82733154296875 175.2567138671875 411.15496826171875 175.60299682617188L414.39630126953125 178.8443145751953C414.8497314453125 179.3050079345703 415.2762145996094 179.77093505859375 415.67657470703125 180.24131774902344L418.30023193359375 182.99398803710938L418.3364562988281 183.03201293945312L420.8565979003906 185.64804077148438C421.625732421875 186.3621826171875 422.3755798339844 187.1530303955078 423.10174560546875 188.0242462158203L423.4861755371094 188.4965362548828L423.5924072265625 188.62704467773438L424.8482971191406 190.16998291015625C425.14300537109375 190.51377868652344 425.433349609375 190.87100219726562 425.7189636230469 191.2418975830078C425.85498046875 191.4143524169922 425.9879150390625 191.58729553222656 426.11761474609375 191.76052856445312L427.27862548828125 193.26670837402344C428.1433410644531 194.21969604492188 428.9544677734375 195.29017639160156 429.7002258300781 196.4840087890625C430.7236022949219 197.989990234375 431.52032470703125 199.5065155029297 432.1113586425781 201.01739501953125L433.1687316894531 203.10406494140625C433.5225830078125 203.8041229248047 433.8365173339844 204.4993438720703 434.1122131347656 205.18887329101562L435.35540771484375 207.84873962402344C435.4737854003906 208.114501953125 435.5867004394531 208.3793487548828 435.6942443847656 208.64321899414062L437.93402099609375 213.2535400390625C438.4812316894531 214.4122772216797 438.9223327636719 215.5554656982422 439.26483154296875 216.67953491210938L440.5050048828125 219.9391632080078C440.673095703125 220.33395385742188 440.8338928222656 220.739013671875 440.98712158203125 221.1544647216797L443.1622619628906 227.2371826171875Q443.1992492675781 227.33106994628906 443.2356872558594 227.42568969726562L445.2573547363281 232.50042724609375C445.4414978027344 232.98143005371094 445.6087341308594 233.45863342285156 445.7595520019531 233.9318389892578L447.9184875488281 239.9268798828125C448.39239501953125 241.2535858154297 448.7403564453125 242.54869079589844 448.9728088378906 243.80850219726562L449.6990966796875 246.390869140625C449.9931945800781 247.2698516845703 450.2443542480469 248.1942901611328 450.4486083984375 249.16494750976562C450.6056823730469 249.84530639648438 450.7315979003906 250.5149688720703 450.8277282714844 251.17340087890625L451.6965637207031 255.88186645507812C451.7540588378906 256.1437072753906 451.80810546875 256.4089660644531 451.858642578125 256.67767333984375L452.6593322753906 260.8301696777344L453.4676818847656 264.4960632324219C453.5295104980469 264.7706604003906 453.5865173339844 265.04339599609375 453.6387634277344 265.3142395019531L454.2928466796875 268.12677001953125C454.45245361328125 268.8575744628906 454.57806396484375 269.5750427246094 454.67132568359375 270.2788391113281L455.0973815917969 272.314453125C455.3326110839844 273.5489196777344 455.4727783203125 274.7430419921875 455.52557373046875 275.8953857421875L455.8993835449219 278.8186340332031C455.9944763183594 279.3993225097656 456.0712585449219 279.99554443359375 456.12884521484375 280.6073303222656L456.4189758300781 283.8422546386719C456.5132141113281 284.5177307128906 456.5820007324219 285.2135009765625 456.6239318847656 285.92962646484375L456.841552734375 290.064453125C456.9300231933594 290.78826904296875 456.98876953125 291.5347595214844 457.0158996582031 292.3039855957031L457.180908203125 297.68817138671875C457.1961669921875 298.1205749511719 457.20098876953125 298.5465087890625 457.1957092285156 298.9660339355469L457.2342529296875 301.2217102050781C457.30499267578125 302.2126770019531 457.31634521484375 303.2422180175781 457.263427734375 304.3100891113281L457.0984191894531 307.7757873535156C457.0323486328125 309.1089782714844 456.87237548828125 310.37255859375 456.6278991699219 311.56695556640625C456.5418395996094 312.4534606933594 456.40411376953125 313.3628845214844 456.21136474609375 314.2945556640625L455.5718688964844 317.2032470703125C455.4398193359375 317.8409729003906 455.2882080078125 318.4588623046875 455.1180419921875 319.0571594238281L454.602294921875 321.22589111328125Q454.5888366699219 321.2810974121094 454.5751953125 321.33612060546875L453.4730529785156 326.3851623535156C453.3320617675781 327.20025634765625 453.1454772949219 328.0318603515625 452.91070556640625 328.8792724609375L451.4723205566406 333.8582763671875C451.4438171386719 333.972412109375 451.4144287109375 334.08685302734375 451.3841552734375 334.2015686035156L449.9078674316406 339.84429931640625C449.76171875 340.55780029296875 449.58050537109375 341.2831726074219 449.3625183105469 342.01995849609375L447.5765075683594 347.8837585449219C447.3252868652344 348.9664001464844 446.98760986328125 350.0726318359375 446.5569763183594 351.19989013671875L444.0449523925781 357.6649475097656C443.9777526855469 357.84405517578125 443.9080810546875 358.023681640625 443.8359375 358.2037353515625C443.67742919921875 358.6103820800781 443.51171875 359.00677490234375 443.33905029296875 359.39306640625L441.39971923828125 364.0105285644531C441.2287292480469 364.4035949707031 441.05120849609375 364.7865905761719 440.8674621582031 365.1595764160156L439.3679504394531 368.6292724609375C439.0390930175781 369.58111572265625 438.6382751464844 370.5452575683594 438.16094970703125 371.51947021484375L435.35540771484375 377.2337341308594C435.17596435546875 377.59716796875 434.99114990234375 377.9512634277344 434.8011779785156 378.2961730957031L433.96624755859375 380.15753173828125C433.64593505859375 380.97723388671875 433.27105712890625 381.8047180175781 432.8386535644531 382.6385192871094L431.30377197265625 385.5474853515625C430.893310546875 386.4237976074219 430.416015625 387.3046569824219 429.8680725097656 388.187744140625L429.7681579589844 388.35040283203125L429.70526123046875 388.4528503417969L427.5369873046875 391.9834899902344C427.28887939453125 392.3810729980469 427.0348815917969 392.7655944824219 426.7752685546875 393.13720703125L424.9035949707031 396.0442810058594C424.6195983886719 396.5130920410156 424.3148498535156 396.98187255859375 423.9888000488281 397.4501647949219L421.7679443359375 400.6324768066406C421.1201171875 401.7061462402344 420.35711669921875 402.77239990234375 419.4710388183594 403.8245544433594L419.2622985839844 404.0640563964844C419.0184326171875 404.3573303222656 418.7710876464844 404.6409606933594 418.5204772949219 404.9151306152344L418.0487060546875 405.4563903808594C417.3194580078125 406.4376525878906 416.4823913574219 407.40185546875 415.5309143066406 408.3423156738281L412.5817565917969 411.1502990722656C412.1180114746094 411.64495849609375 411.6229553222656 412.1327209472656 411.0956726074219 412.6125183105469L407.1348876953125 416.24322509765625C406.8553161621094 416.4972229003906 406.5743103027344 416.741943359375 406.2920227050781 416.9775695800781L404.0044250488281 419.00079345703125C403.71795654296875 419.28759765625 403.4206237792969 419.57183837890625 403.1122131347656 419.8533020019531L399.72906494140625 422.9270324707031C399.5187683105469 423.1173400878906 399.30767822265625 423.3023986816406 399.0958557128906 423.4823303222656L397.4498291015625 424.9677734375C397.2197265625 425.2036437988281 396.9824523925781 425.4380187988281 396.73785400390625 425.6706848144531L393.8572998046875 428.3702697753906C393.5709228515625 428.67620849609375 393.2727966308594 428.9797668457031 392.9627380371094 429.28076171875L390.10260009765625 432.0217590332031C389.4776611328125 432.6842956542969 388.7952575683594 433.3324890136719 388.05303955078125 433.96356201171875L385.14434814453125 436.4596862792969C384.5457763671875 436.9681091308594 383.9424743652344 437.43634033203125 383.335693359375 437.8658142089844L380.8914489746094 439.8135681152344L376.10882568359375 443.7210998535156C375.9365234375 443.86322021484375 375.7638854980469 444.0020446777344 375.5909423828125 444.1376647949219L371.7767333984375 447.4962158203125C371.6009216308594 447.6475524902344 371.4246520996094 447.7953796386719 371.24798583984375 447.93975830078125L369.3791198730469 449.6187744140625C368.7774658203125 450.21844482421875 368.1263732910156 450.804443359375 367.42401123046875 451.3744812011719L362.8575744628906 455.0614318847656C362.30426025390625 455.54443359375 361.7147521972656 456.0147705078125 361.0879821777344 456.47088623046875C360.6849365234375 456.7745056152344 360.2802734375 457.06103515625 359.8746032714844 457.330810546875L356.5216064453125 459.6976623535156C355.77935791015625 460.2908935546875 354.9756164550781 460.8547668457031 354.10821533203125 461.385009765625C352.7667541503906 462.269775390625 351.4219970703125 462.9798583984375 350.08416748046875 463.52978515625L348.0140075683594 464.5914001464844C346.97430419921875 465.23651123046875 345.84027099609375 465.8260192871094 344.6082763671875 466.35113525390625L340.0033264160156 468.2740783691406C339.3663635253906 468.5677795410156 338.70111083984375 468.84185791015625 338.0069885253906 469.0948181152344L337.7298583984375 469.1939392089844Q337.57733154296875 469.2496032714844 337.4252624511719 469.3028869628906L333.6542053222656 470.6516418457031C333.206787109375 470.8436279296875 332.74615478515625 471.0262145996094 332.2721252441406 471.198974609375L326.454833984375 473.2996826171875C326.3320007324219 473.3496398925781 326.20819091796875 473.39892578125 326.08343505859375 473.4475402832031L319.9114074707031 475.7892761230469C319.3554382324219 476.02099609375 318.77923583984375 476.23779296875 318.1824951171875 476.4387512207031L314.4814758300781 477.6959533691406C313.54461669921875 478.0744323730469 312.5508117675781 478.4065246582031 311.4986877441406 478.68731689453125L304.4848327636719 480.5439147949219C304.3444519042969 480.5812683105469 304.20452880859375 480.6173095703125 304.0650329589844 480.6520690917969L298.8666076660156 482.1373596191406L293.20074462890625 484.23651123046875C292.4450378417969 484.5152282714844 291.69921875 484.7524719238281 290.96405029296875 484.9501953125L288.41778564453125 485.8248596191406C287.973876953125 485.9916076660156 287.51763916015625 486.1480712890625 287.0491638183594 486.2936706542969C286.0549011230469 486.62054443359375 285.0796813964844 486.8780212402344 284.125 487.0704345703125L281.04913330078125 487.8449401855469C280.933349609375 487.8804931640625 280.81683349609375 487.9154357910156 280.6995544433594 487.9497375488281L274.3457946777344 489.8063659667969C273.865234375 489.9470520019531 273.3896179199219 490.0720520019531 272.9190673828125 490.1818542480469L270.2099914550781 490.90557861328125C269.2758483886719 491.2336730957031 268.2893371582031 491.51519775390625 267.2494201660156 491.7454833984375L262.9792175292969 492.6325378417969C261.904296875 492.8705749511719 260.85821533203125 493.0347595214844 259.842041015625 493.1302185058594L257.20892333984375 493.5317077636719C256.8289794921875 493.61077880859375 256.44195556640625 493.6824645996094 256.0478515625 493.7464904785156L253.4634246826172 494.1351318359375C252.69322204589844 494.3407897949219 251.89158630371094 494.5108947753906 251.0583038330078 494.6426696777344C249.5901336669922 494.9143371582031 248.17864990234375 495.0491943359375 246.82659912109375 495.0605773925781L245.08248901367188 495.2023620605469C244.3988494873047 495.27978515625 243.6953887939453 495.3306884765625 242.97203063964844 495.35357666015625C242.5819091796875 495.3699951171875 242.1968994140625 495.37744140625 241.81704711914062 495.376220703125L240.60122680664062 495.3992614746094C239.71104431152344 495.48760986328125 238.78810119628906 495.5292053222656 237.83241271972656 495.5205993652344L232.89715576171875 495.4532165527344L234.3667449951172 496.9027404785156C234.94189453125 497.4797058105469 235.47445678710938 498.065185546875 235.96595764160156 498.6575927734375L238.71995544433594 501.66424560546875C239.03146362304688 501.9870300292969 239.33912658691406 502.323486328125 239.64256286621094 502.673828125C240.1719512939453 503.264404296875 240.66006469726562 503.86126708984375 241.10842895507812 504.46307373046875L246.63104248046875 511.29644775390625L246.78541564941406 511.4874572753906L246.96029663085938 511.70709228515625L253.1895294189453 519.53076171875C253.28314208984375 519.64013671875 253.3763885498047 519.7507934570312 253.46922302246094 519.8628540039062L260.48309326171875 528.3207397460938C260.63812255859375 528.507080078125 260.7892761230469 528.6937866210938 260.9366760253906 528.880859375L263.2804870605469 531.6282958984375C263.4772033691406 531.840576171875 263.6724853515625 532.058349609375 263.86627197265625 532.2815551757812L266.78399658203125 535.6572875976562C267.0519714355469 535.9452514648438 267.3172302246094 536.2433471679688 267.5794982910156 536.5517578125L272.24163818359375 542.1009521484375C272.36590576171875 542.2476196289062 272.4877624511719 542.3946533203125 272.60723876953125 542.5418701171875L279.89501953125 551.053955078125C280.18170166015625 551.3878784179688 280.45574951171875 551.7233276367188 280.7174377441406 552.06005859375L287.2242431640625 559.945556640625C287.5003967285156 560.2439575195312 287.7735595703125 560.5531616210938 288.0434875488281 560.8733520507812L294.3353271484375 568.4442138671875C294.5367736816406 568.6854858398438 294.7317810058594 568.9274291992188 294.92047119140625 569.1699829101562L303.1026916503906 578.5317993164062C303.4300842285156 578.907470703125 303.7413024902344 579.2852172851562 304.0367431640625 579.6647338867188L312.1670837402344 589.2429809570312L319.9504089355469 597.6905517578125C320.5274963378906 598.2398071289062 321.0940246582031 598.83251953125 321.6481628417969 599.4702758789062L328.49700927734375 607.3712158203125C328.8979797363281 607.8352661132812 329.27447509765625 608.3024291992188 329.6271667480469 608.7720947265625L336.60247802734375 617.1076049804688C337.137939453125 617.6651000976562 337.66168212890625 618.2630615234375 338.1720275878906 618.90283203125L346.2767639160156 629.0857543945312C346.6420593261719 629.5078735351562 347.00067138671875 629.9503784179688 347.3519592285156 630.413818359375L355.114990234375 640.7645263671875C355.3782043457031 641.0917358398438 355.6374206542969 641.4303588867188 355.8923645019531 641.7804565429688L361.9366760253906 650.0733032226562C362.2960205078125 650.5647583007812 362.6311950683594 651.05712890625 362.94287109375 651.550048828125L369.1061706542969 660.5724487304688C369.4118347167969 660.982421875 369.7107849121094 661.4089965820312 370.00262451171875 661.8524780273438L377.1609191894531 672.7239990234375C377.4342041015625 673.1416015625 377.69122314453125 673.55908203125 377.9323425292969 673.9761352539062L383.21868896484375 682.4478759765625C383.3531799316406 682.6412963867188 383.4862365722656 682.8381958007812 383.6177978515625 683.0385131835938L388.2799377441406 690.2174072265625L388.31939697265625 690.2778930664062L394.3242492675781 699.4798583984375C394.6617126464844 699.9954833984375 394.974365234375 700.510986328125 395.262939453125 701.025634765625L399.1734313964844 707.1707153320312C399.3897705078125 707.4727172851562 399.6025390625 707.7833862304688 399.81158447265625 708.102783203125L404.6387634277344 715.5911254882812C404.7261657714844 715.7250366210938 404.8118591308594 715.8589477539062 404.8959045410156 715.9927978515625L407.0192565917969 719.3096313476562C407.3338623046875 719.7433471679688 407.6407775878906 720.1952514648438 407.9394226074219 720.6658325195312L410.6830749511719 725.0185546875C410.7450256347656 725.1160278320312 410.8061218261719 725.2135009765625 410.8663330078125 725.3109741210938L412.40728759765625 727.6083984375L412.4571838378906 727.6797485351562L414.376708984375 730.4717407226562C414.62884521484375 730.822021484375 414.8761291503906 731.1840209960938 415.1183166503906 731.5579833984375L418.04376220703125 736.0558471679688L420.0280456542969 738.6337280273438C420.4903564453125 739.2495727539062 420.91387939453125 739.86767578125 421.3000793457031 740.48681640625L421.9419250488281 741.3892211914062C422.2938537597656 741.8217163085938 422.6373291015625 742.2750244140625 422.9715881347656 742.7495727539062C428.661376953125 745.03466796875 433.3240966796875 749.8201904296875 434.75811767578125 757.1953735351562C434.9704284667969 758.2509155273438 435.1108703613281 759.3585815429688 435.1720886230469 760.5177001953125C435.1823425292969 760.685791015625 435.19073486328125 760.85498046875 435.1972961425781 761.025146484375C435.2290344238281 761.572021484375 435.2393798828125 762.1290893554688 435.22735595703125 762.6961059570312C435.26751708984375 764.232666015625 435.1211242675781 765.826416015625 434.76312255859375 767.4647827148438C434.26104736328125 771.412841796875 432.4998474121094 775.295654296875 429.1583251953125 778.6207885742188C428.998779296875 778.8057250976562 428.8372497558594 778.9866333007812 428.6738586425781 779.163330078125C426.02996826171875 782.1185913085938 422.4558410644531 784.2978515625 418.0305480957031 785.1121826171875C413.757568359375 786.2496337890625 409.662353515625 785.8467407226562 406.05224609375 784.3746948242188C405.7565612792969 784.2615966796875 405.4604187011719 784.1407470703125 405.1639404296875 784.0120849609375C401.4314270019531 782.7100830078125 398.53314208984375 780.578125 396.42218017578125 777.9578247070312C395.7079162597656 777.23486328125 395.06719970703125 776.4879150390625 394.4967041015625 775.7216796875C393.94073486328125 774.9902954101562 393.4104919433594 774.2030639648438 392.909423828125 773.3582153320312C392.27410888671875 772.360595703125 391.7389831542969 771.3568115234375 391.2976989746094 770.3519897460938C390.9993591308594 769.7835083007812 390.728515625 769.2173461914062 390.4842834472656 768.6541748046875L390.2308044433594 768.1433715820312L389.36041259765625 766.7435913085938L387.5061950683594 764.12255859375C387.3361511230469 763.9100952148438 387.1676940917969 763.6929931640625 387.0009460449219 763.4710693359375L385.50531005859375 761.3931274414062C384.9293518066406 760.6904296875 384.3747863769531 759.9328002929688 383.8446960449219 759.1183471679688L380.4615478515625 753.9611206054688C380.38299560546875 753.8394775390625 380.30584716796875 753.7178955078125 380.23004150390625 753.5963134765625L378.6255798339844 751.2999877929688C378.33502197265625 750.8828125 378.0614013671875 750.46533203125 377.80426025390625 750.0477294921875L376.5723571777344 748.1490478515625C376.3376770019531 747.8140258789062 376.1074523925781 747.4684448242188 375.88189697265625 747.1123046875L373.43048095703125 743.22314453125C373.36016845703125 743.1177368164062 373.2902526855469 743.0112915039062 373.22076416015625 742.9039306640625L370.06451416015625 738.0767822265625L365.5855712890625 731.2052001953125C365.4118957519531 730.9505004882812 365.2407531738281 730.68994140625 365.0722961425781 730.4234008789062L359.6055908203125 721.8004760742188C359.54840087890625 721.7096557617188 359.4919738769531 721.6188354492188 359.436279296875 721.528076171875L353.726318359375 712.8474731445312C353.4932861328125 712.4913940429688 353.2720947265625 712.1353149414062 353.0625 711.7796020507812L349.04351806640625 705.6891479492188C348.759765625 705.253173828125 348.4937438964844 704.8174438476562 348.2449645996094 704.3821411132812L343.0047912597656 695.8753051757812C342.8918762207031 695.7108764648438 342.7799987792969 695.5440063476562 342.6691589355469 695.3746337890625L335.6141357421875 684.6396484375L328.2494812011719 673.8585815429688C328.22802734375 673.8270874023438 328.2066955566406 673.7955322265625 328.1854553222656 673.7640380859375L322.6162414550781 666.1509399414062L314.3867492675781 655.3131103515625L314.3703308105469 655.2913208007812L305.8463439941406 644.6066284179688C305.6048278808594 644.3049926757812 305.37310791015625 644.0025634765625 305.1510009765625 643.6993408203125L297.0583801269531 634.2095947265625C296.8567199707031 633.968994140625 296.6614685058594 633.7276611328125 296.4725646972656 633.4857177734375L290.7980041503906 626.87109375L281.35968017578125 616.7161865234375C280.7347106933594 616.0379028320312 280.164794921875 615.3508911132812 279.6476745605469 614.6572875976562L271.7671813964844 605.3701782226562C271.55224609375 605.115234375 271.3445739746094 604.8595581054688 271.14398193359375 604.6030883789062L262.9792175292969 595.2825927734375C262.68414306640625 594.942626953125 262.40216064453125 594.60107421875 262.1330871582031 594.2579956054688L257.2649841308594 588.4415283203125C256.90899658203125 588.058349609375 256.5581359863281 587.6570434570312 256.212890625 587.2373046875L248.65853881835938 577.9866333007812C248.62548828125 577.948486328125 248.59246826171875 577.91015625 248.55950927734375 577.8717041015625L241.3403778076172 569.458984375C241.13897705078125 569.2366333007812 240.939208984375 569.0084228515625 240.74111938476562 568.7742919921875L236.05831909179688 563.22509765625C235.8241729736328 562.949462890625 235.59854125976562 562.6727905273438 235.3813018798828 562.395263671875L233.0482940673828 559.6959838867188C232.87452697753906 559.5015258789062 232.70201110839844 559.3026733398438 232.53076171875 559.0993041992188L229.62493896484375 555.6815795898438C229.3245391845703 555.35546875 229.02780151367188 555.016357421875 228.73501586914062 554.6640625L222.83245849609375 547.5462036132812C222.3701934814453 547.0547485351562 221.9168701171875 546.53271484375 221.47360229492188 545.9791870117188L214.542236328125 537.2737426757812C214.3555145263672 537.0405883789062 214.17465209960938 536.806884765625 213.99954223632812 536.57275390625L209.23545837402344 530.6024169921875Q209.11392211914062 530.4737548828125 208.99302673339844 530.3424072265625L204.7797088623047 525.7371215820312L199.23550415039062 520.1929321289062L199.1525421142578 520.11083984375L193.52125549316406 514.5405883789062C193.20071411132812 514.2213745117188 192.89329528808594 513.8995361328125 192.59877014160156 513.5753173828125L191.10824584960938 512.1392211914062L191.33457946777344 516.8716430664062C191.35545349121094 517.26318359375 191.36764526367188 517.6495361328125 191.3714141845703 518.03076171875L191.52984619140625 521.9523315429688C191.56491088867188 522.4432983398438 191.58493041992188 522.943603515625 191.58926391601562 523.4530639648438C191.63978576660156 525.0977783203125 191.538330078125 526.649169921875 191.3027801513672 528.1065063476562L191.03628540039062 531.19580078125C191.0034942626953 531.8399658203125 190.94517517089844 532.4976196289062 190.860107421875 533.1685791015625L190.2735595703125 538.0117797851562L190.13809204101562 541.7708740234375C190.1095428466797 542.5807495117188 190.04603576660156 543.3654174804688 189.94970703125 544.1251220703125L189.694580078125 548.2071533203125L189.8391876220703 551.9669189453125C189.88211059570312 552.5574340820312 189.90426635742188 553.161865234375 189.90464782714844 553.7799682617188C189.92257690429688 554.6466674804688 189.89793395996094 555.4869995117188 189.8334503173828 556.30078125L189.677001953125 560.78564453125C189.67642211914062 561.2139892578125 189.6652069091797 561.64892578125 189.64300537109375 562.0904541015625L189.45867919921875 566.2794189453125C189.45266723632812 566.65234375 189.4385528564453 567.0300903320312 189.41607666015625 567.4127807617188L189.0034942626953 573.8490600585938C188.9960479736328 573.975830078125 188.9877471923828 574.1018676757812 188.97862243652344 574.2273559570312L188.7847442626953 577.8207397460938C188.78968811035156 578.3170166015625 188.7802734375 578.8222045898438 188.75595092773438 579.3363647460938L188.52903747558594 584.3285522460938C188.5174102783203 584.5597534179688 188.50294494628906 584.7889404296875 188.48573303222656 585.0159912109375L188.43380737304688 586.236083984375L188.83847045898438 590.0428466796875C188.99212646484375 591.4092407226562 189.03555297851562 592.71875 188.97903442382812 593.9702758789062L189.07655334472656 597.310302734375L189.49859619140625 601.244384765625C189.5656280517578 601.880126953125 189.60899353027344 602.5035400390625 189.6297607421875 603.1143798828125L189.7252197265625 604.46875C189.91575622558594 605.7680053710938 190.0023956298828 607.1412963867188 189.9730682373047 608.5883178710938L189.8596954345703 611.8478393554688C189.88148498535156 612.6427001953125 189.86505126953125 613.4609985351562 189.8080291748047 614.3025512695312L189.44647216796875 619.2881469726562C189.4379425048828 619.4544677734375 189.42782592773438 619.6217651367188 189.41607666015625 619.7899169921875L189.1356964111328 624.5739135742188L189.2158660888672 626.5680541992188L189.2490234375 627.3926391601562L189.2510528564453 627.4432373046875C189.2755584716797 628.2800903320312 189.26104736328125 629.0926513671875 189.20985412597656 629.8807983398438L189.11212158203125 632.9716186523438C189.11439514160156 633.4049682617188 189.10580444335938 633.8451538085938 189.0860137939453 634.2921142578125L188.91883850097656 637.6078491210938L189.1098175048828 639.3187255859375C189.13018798828125 639.4440307617188 189.14976501464844 639.5701293945312 189.1685333251953 639.6968994140625L189.32098388671875 640.9486083984375C189.5992889404297 642.2898559570312 189.76422119140625 643.7173461914062 189.80117797851562 645.2308959960938C189.85382080078125 646.1360473632812 189.85494995117188 647.0150756835938 189.8080291748047 647.8674926757812V649.1604614257812L189.98475646972656 651.314208984375C190.0105438232422 651.5176391601562 190.03416442871094 651.722900390625 190.0555877685547 651.929931640625L190.53004455566406 656.6127319335938C190.55662536621094 656.8622436523438 190.57952880859375 657.1099243164062 190.5988311767578 657.3555908203125L190.86798095703125 659.616455078125L191.3007354736328 661.839599609375C191.56446838378906 662.8702392578125 191.7652587890625 663.9561767578125 191.8966827392578 665.097900390625C192.0325927734375 666.0714111328125 192.10780334472656 667.0184936523438 192.12637329101562 667.9382934570312L192.27630615234375 670.005859375C192.39163208007812 670.9302368164062 192.4572296142578 671.8912353515625 192.46917724609375 672.8890380859375L192.54464721679688 678.1909790039062C192.5487060546875 678.3549194335938 192.55126953125 678.5198364257812 192.5522918701172 678.685791015625L192.552734375 678.7872924804688C192.5563507080078 679.2230224609375 192.5494842529297 679.65185546875 192.532470703125 680.0739135742188L192.47653198242188 682.912841796875C192.47647094726562 683.1182250976562 192.47402954101562 683.3251342773438 192.46917724609375 683.5335693359375L192.39219665527344 689.2304077148438L192.38665771484375 689.6397705078125L192.38394165039062 689.7472534179688L192.2216339111328 696.17919921875C192.2191162109375 696.287353515625 192.21597290039062 696.39501953125 192.2122039794922 696.5023193359375L192.0772247314453 702.3060302734375C192.07591247558594 702.3792724609375 192.0742950439453 702.4523315429688 192.07240295410156 702.525146484375L191.9947052001953 707.3807373046875V712.3729858398438C191.99365234375 712.4605712890625 191.9921875 712.5478515625 191.9903106689453 712.6348876953125L191.92550659179688 717.7062377929688C191.9302520751953 718.0941772460938 191.92552185058594 718.4874877929688 191.9110107421875 718.885986328125C191.8944854736328 720.3784790039062 191.75631713867188 721.7886352539062 191.5098419189453 723.1165161132812L191.16136169433594 726.2303466796875L191.025146484375 729.6188354492188V732.8369750976562L191.1662139892578 736.8399658203125C191.17530822753906 736.9832153320312 191.1833038330078 737.1273193359375 191.19017028808594 737.272216796875L191.41709899902344 741.6249389648438C191.43614196777344 742.0276489257812 191.44606018066406 742.4248657226562 191.44708251953125 742.8165893554688L191.45469665527344 743.0982055664062C191.51730346679688 743.6924438476562 191.5601043701172 744.3015747070312 191.58212280273438 744.9255981445312L191.66464233398438 748.9482421875Q191.67530822753906 749.25146484375 191.67919921875 749.5504760742188L191.8048553466797 752.61328125L191.80641174316406 752.6513671875C196.18231201171875 755.9998779296875 199.21315002441406 761.3377685546875 199.31802368164062 768.6902465820312V768.765625C199.32273864746094 769.0237426757812 199.3236846923828 769.2843017578125 199.32083129882812 769.54736328125C199.32040405273438 769.643310546875 199.31947326660156 769.7388305664062 199.31802368164062 769.8341064453125V770.3199462890625C199.31275939941406 770.62451171875 199.30250549316406 770.9255981445312 199.28733825683594 771.2230834960938C199.27774047851562 771.5845336914062 199.26052856445312 771.950439453125 199.23550415039062 772.3209228515625L199.17739868164062 772.8366088867188C199.15821838378906 773.3570556640625 199.12277221679688 773.8865356445312 199.07046508789062 774.4251098632812L199.01963806152344 774.8594970703125C198.97787475585938 775.6748657226562 198.89385986328125 776.511474609375 198.76504516601562 777.3690795898438C198.72840881347656 777.83837890625 198.6759490966797 778.3135375976562 198.60711669921875 778.79443359375C198.49855041503906 779.9073486328125 198.28890991210938 781.0399169921875 197.96925354003906 782.1866455078125C197.41897583007812 784.7019653320312 196.32005310058594 787.2021484375 194.57662963867188 789.5787963867188C193.52752685546875 791.1507568359375 192.3251953125 792.4898071289062 191.00946044921875 793.6087036132812C189.99253845214844 794.5650634765625 188.9237518310547 795.3782958984375 187.81739807128906 796.0572509765625C185.71749877929688 797.5670776367188 183.22262573242188 798.68994140625 180.33848571777344 799.276611328125C177.83860778808594 799.9998168945312 175.12135314941406 800.2119750976562 172.2602081298828 799.770751953125C171.01678466796875 799.6189575195312 169.82432556152344 799.3486328125 168.68785095214844 798.9736328125C167.61224365234375 798.6864013671875 166.54103088378906 798.29638671875 165.48268127441406 797.7960815429688C163.39703369140625 796.8743286132812 161.59996032714844 795.6455078125 160.08804321289062 794.1923828125C157.9132080078125 792.4261474609375 156.27423095703125 790.408447265625 155.11451721191406 788.248779296875C154.7843780517578 787.741455078125 154.48118591308594 787.2315063476562 154.20411682128906 786.7198486328125C153.45513916015625 785.38134765625 152.814697265625 783.8973388671875 152.30361938476562 782.2621459960938C152.1317596435547 781.7821655273438 151.97845458984375 781.3052368164062 151.84317016601562 780.8314208984375C151.32618713378906 779.3224487304688 150.96437072753906 777.6835327148438 150.78448486328125 775.91455078125C150.4686737060547 773.8685913085938 150.4390869140625 771.9302368164062 150.6541290283203 770.1106567382812V760.6448974609375L150.60142517089844 758.7872314453125C150.5867462158203 758.4952392578125 150.57676696777344 758.1998901367188 150.5716094970703 757.9012451171875V757.7362060546875C150.57012939453125 757.5716552734375 150.57012939453125 757.4081420898438 150.5716094970703 757.2455444335938V754.1880493164062L150.50022888183594 750.7084350585938C150.49600219726562 750.6102905273438 150.49227905273438 750.5117797851562 150.4890899658203 750.4129028320312L150.35194396972656 747.0526733398438Q150.33563232421875 746.79541015625 150.32406616210938 746.53466796875L150.1839599609375 744.012939453125L150.15902709960938 743.5640869140625C150.1508026123047 743.3750610351562 150.1445770263672 743.1871948242188 150.1403350830078 743.0005493164062L150.01463317871094 739.2113647460938C149.99908447265625 738.8826904296875 149.9896240234375 738.5577392578125 149.986083984375 738.2364501953125L149.91879272460938 736.3270874023438C149.82666015625 735.4889526367188 149.77513122558594 734.6212768554688 149.76707458496094 733.7240600585938V730.1723022460938C149.71681213378906 729.26953125 149.7156219482422 728.3355102539062 149.76707458496094 727.3703002929688L149.90586853027344 725.0572509765625C149.89898681640625 724.0613403320312 149.95425415039062 723.030517578125 150.07652282714844 721.9654541015625L150.66893005371094 717.3413696289062L150.7346954345703 712.1956787109375C150.73480224609375 712.0969848632812 150.73545837402344 711.9979248046875 150.7366485595703 711.8984985351562V707.5548706054688C150.7328643798828 707.3065795898438 150.73257446289062 707.0560302734375 150.7357940673828 706.8031616210938C150.73687744140625 706.7825317382812 150.7371368408203 706.7619018554688 150.73741149902344 706.7412719726562L150.81520080566406 701.8342895507812C150.8158416748047 701.7237548828125 150.81715393066406 701.6128540039062 150.8191680908203 701.50146484375L150.95794677734375 695.5338745117188C150.95916748046875 695.4262084960938 150.96104431152344 695.318115234375 150.96356201171875 695.2096557617188L151.12860107421875 688.6908569335938L151.21112060546875 682.6465454101562C151.21438598632812 682.5060424804688 151.21871948242188 682.3662719726562 151.22410583496094 682.2272338867188L151.29022216796875 678.9375610351562L151.2160186767578 673.6309204101562L151.0201416015625 671.02587890625L150.07652282714844 666.1226806640625C149.79225158691406 664.63427734375 149.64657592773438 663.2041015625 149.62591552734375 661.8348999023438L149.5990753173828 661.5531616210938C149.57000732421875 661.3319091796875 149.54347229003906 661.1084594726562 149.51953125 660.8829345703125L149.04505920410156 656.2001342773438C149.00877380371094 655.859375 148.9793243408203 655.522216796875 148.95657348632812 655.1886596679688L148.83157348632812 653.963623046875C148.6951141357422 653.0809326171875 148.60633850097656 652.1635131835938 148.5690155029297 651.2113647460938C148.50469970703125 650.208984375 148.49977111816406 649.2392578125 148.5499725341797 648.3026733398438V647.350341796875L148.3024139404297 645.7412109375C148.17031860351562 644.8489990234375 148.0866241455078 643.9796142578125 148.04844665527344 643.1334228515625L148.02447509765625 642.918701171875C147.7982177734375 641.7135620117188 147.6661376953125 640.4417114257812 147.63902282714844 639.1036376953125C147.55343627929688 637.56591796875 147.61077880859375 636.1055297851562 147.79505920410156 634.7243041992188L147.82899475097656 634.0513305664062C147.820556640625 633.6761474609375 147.8201446533203 633.295654296875 147.8279571533203 632.9099731445312L147.9734344482422 628.236083984375L147.8279571533203 624.6170654296875C147.78314208984375 623.0867919921875 147.86856079101562 621.6376953125 148.0699462890625 620.2703857421875L148.3024139404297 616.8811645507812C148.3108367919922 616.7567749023438 148.32008361816406 616.6329956054688 148.3301239013672 616.5098876953125L148.63247680664062 611.5588989257812C148.63931274414062 611.4580078125 148.6466827392578 611.3575439453125 148.6545867919922 611.2574462890625L148.69140625 609.1405639648438L148.38644409179688 604.8140258789062L148.3842315673828 604.7926635742188L147.91046142578125 600.2129516601562C147.76307678222656 598.82373046875 147.72850036621094 597.49365234375 147.79608154296875 596.2239990234375L147.7649383544922 594.0596313476562L147.5391082763672 591.9685668945312C147.1966552734375 590.2593383789062 147.0419921875 588.4136962890625 147.10594177246094 586.4327392578125L147.10728454589844 586.4017333984375C147.11215209960938 585.8551635742188 147.13572692871094 585.3191528320312 147.1772003173828 584.793701171875L147.2422637939453 583.29736328125C147.24566650390625 582.9710083007812 147.2551727294922 582.640869140625 147.27096557617188 582.3069458007812L147.45953369140625 578.2271118164062C147.4649658203125 577.8723754882812 147.47769165039062 577.51318359375 147.49789428710938 577.149658203125L147.82489013671875 571.4884643554688L147.8279571533203 571.4354248046875L147.8568878173828 570.9826049804688L148.24053955078125 564.9785766601562C148.24972534179688 564.822265625 148.26019287109375 564.6668701171875 148.27194213867188 564.512451171875L148.4674530029297 560.06884765625C148.47242736816406 559.9699096679688 148.47792053222656 559.8713989257812 148.48391723632812 559.7732543945312L148.63247680664062 553.385009765625C148.63626098632812 553.2679443359375 148.64077758789062 553.1513671875 148.64601135253906 553.0353393554688L148.55902099609375 550.773681640625C148.39634704589844 549.3607788085938 148.360595703125 547.8654174804688 148.4674530029297 546.2886352539062L148.47901916503906 546.1343383789062C148.4996795654297 545.7156982421875 148.5306854248047 545.3038330078125 148.5717010498047 544.8987426757812L148.86471557617188 540.9918823242188C148.8670654296875 540.7719116210938 148.8721466064453 540.5502319335938 148.88003540039062 540.3268432617188L148.984375 537.470458984375C148.96835327148438 536.4461669921875 149.01910400390625 535.3849487304688 149.14205932617188 534.2874145507812C149.18899536132812 533.7828369140625 149.25006103515625 533.2887573242188 149.32467651367188 532.8052368164062L149.91259765625 528.0855102539062L150.28170776367188 523.806640625L150.1128692626953 519.6278076171875C150.09884643554688 519.4393920898438 150.0867156982422 519.2496337890625 150.07652282714844 519.058349609375L149.8834228515625 515.0034790039062Q149.8646240234375 514.7734985351562 149.84959411621094 514.5405883789062L149.51953125 508.5787658691406L149.12757873535156 502.6994934082031C149.10362243652344 502.3103942871094 149.08827209472656 501.9263000488281 149.08126831054688 501.5472412109375C149.01129150390625 500.8252258300781 148.9711456298828 500.08160400390625 148.96255493164062 499.31634521484375V497.7931823730469C148.9228057861328 496.98492431640625 148.92196655273438 496.1517333984375 148.96255493164062 495.2936706542969L149.09010314941406 492.9178771972656C149.09783935546875 492.633056640625 149.1103057861328 492.34539794921875 149.12757873535156 492.054931640625L149.3675537109375 487.8794250488281L149.12757873535156 483.4319763183594C149.08143615722656 482.682373046875 149.0671844482422 481.9513244628906 149.0831756591797 481.2388916015625L149.03561401367188 479.66339111328125C148.88153076171875 478.2629699707031 148.85211181640625 476.7820129394531 148.96255493164062 475.22161865234375L149.27198791503906 470.786376953125Q149.27957153320312 470.679443359375 149.2879180908203 470.5731506347656L149.33502197265625 467.0757141113281L148.79751586914062 462.5760192871094C148.74244689941406 462.1082763671875 148.70028686523438 461.6470642089844 148.67066955566406 461.1925048828125L148.30638122558594 458.3902587890625C148.18035888671875 457.7624206542969 148.07550048828125 457.1154479980469 147.99298095703125 456.44921875L147.63067626953125 453.2958068847656C147.4547119140625 452.32159423828125 147.33322143554688 451.30303955078125 147.27096557617188 450.2398681640625L147.02342224121094 445.49517822265625C146.982666015625 444.76104736328125 146.9723358154297 444.04486083984375 146.9908905029297 443.3467102050781L146.96604919433594 442.4460144042969C146.95350646972656 442.17254638671875 146.94509887695312 441.8962097167969 146.94090270996094 441.616943359375V441.534423828125C146.93942260742188 441.3699035644531 146.93942260742188 441.2063293457031 146.94090270996094 441.0437316894531V438.5638427734375L146.79515075683594 432.7160339355469C146.7875518798828 432.5688781738281 146.78111267089844 432.42083740234375 146.77586364746094 432.27197265625L146.6348876953125 428.2716369628906C146.62574768066406 428.12750244140625 146.61773681640625 427.9825134277344 146.61083984375 427.83673095703125L146.41465759277344 422.27197265625C146.4034881591797 422.1403503417969 146.39324951171875 422.00799560546875 146.38392639160156 421.87493896484375L146.0559844970703 416.9394226074219C146.0242919921875 416.6827087402344 145.9960479736328 416.42315673828125 145.97134399414062 416.16070556640625L145.50277709960938 411.1974792480469C145.4698944091797 410.9430847167969 145.44039916992188 410.6858825683594 145.4143524169922 410.42584228515625L145.00177001953125 405.9287109375C144.9686737060547 405.595458984375 144.94203186035156 405.2656555175781 144.9217071533203 404.9393310546875L144.59521484375 401.5776062011719C144.48800659179688 400.8047180175781 144.415771484375 400.0054931640625 144.380859375 399.1800231933594C144.3487548828125 398.6390075683594 144.3339385986328 398.10760498046875 144.33572387695312 397.5858154296875L144.22677612304688 393.4868469238281L143.7227783203125 389.48736572265625C143.57533264160156 388.324462890625 143.50823974609375 387.20172119140625 143.51519775390625 386.119873046875L143.43511962890625 384.8485412597656C143.3182830810547 383.9541015625 143.24794006347656 383.02490234375 143.22767639160156 382.0609130859375L143.15017700195312 376.01641845703125C143.14837646484375 375.96844482421875 143.14671325683594 375.9203796386719 143.14515686035156 375.8722229003906L142.94482421875 369.7529602050781C142.93492126464844 369.6136779785156 142.9260711669922 369.4736328125 142.91824340820312 369.3327941894531L142.63858032226562 363.3898620605469C142.61985778808594 363.1994323730469 142.60304260253906 363.00750732421875 142.5881805419922 362.81402587890625L142.2736358642578 358.3442687988281C142.2451171875 358.1173400878906 142.21929931640625 357.88818359375 142.19622802734375 357.6567687988281L141.45358276367188 350.3128356933594C141.42691040039062 350.03619384765625 141.40472412109375 349.76190185546875 141.3868865966797 349.4900207519531L140.68345642089844 343.6663513183594L140.6490478515625 343.3814697265625L140.6417694091797 343.3191223144531L140.0332489013672 338.10321044921875C139.97000122070312 337.6529541015625 139.91793823242188 337.19366455078125 139.87747192382812 336.7253112792969C139.8259735107422 336.1959533691406 139.7911376953125 335.675048828125 139.77236938476562 335.1628723144531L139.54600524902344 331.5767822265625C139.4619903564453 330.9100341796875 139.4028778076172 330.22406005859375 139.37005615234375 329.5187683105469L139.0753936767578 322.7601318359375C139.06224060058594 322.6004638671875 139.0504150390625 322.43975830078125 139.03997802734375 322.2779846191406L138.48300170898438 313.4075012207031C138.46353149414062 313.09228515625 138.4497528076172 312.7803649902344 138.44151306152344 312.4717102050781L137.87620544433594 305.948974609375C137.8330078125 305.6474304199219 137.79457092285156 305.341796875 137.760986328125 305.0321044921875L137.03298950195312 298.46148681640625C137.00538635253906 298.2605285644531 136.9798583984375 298.0577697753906 136.95645141601562 297.85321044921875L135.7393341064453 287.4561767578125C135.67564392089844 286.88641357421875 135.63108825683594 286.32647705078125 135.6049346923828 285.77642822265625L134.74085998535156 276.96612548828125L132.9956817626953 267.4047546386719C132.85121154785156 266.5941162109375 132.7474365234375 265.8011474609375 132.6822052001953 265.02630615234375L131.86302185058594 259.44366455078125C131.8406982421875 259.29962158203125 131.8194122314453 259.1546325683594 131.7991943359375 259.00872802734375L131.78382873535156 258.8967590332031L130.64817810058594 250.6251678466797C130.46925354003906 249.7249755859375 130.33595275878906 248.78575134277344 130.25201416015625 247.8071746826172L129.8199005126953 242.6031494140625C129.8047332763672 242.46142578125 129.7906036376953 242.31886291503906 129.7775421142578 242.17544555664062L129.4976043701172 238.3153076171875C129.4142608642578 237.73965454101562 129.34913635253906 237.14915466308594 129.30308532714844 236.54373168945312L128.8079833984375 230.2518768310547C128.73855590820312 229.3390350341797 128.7171630859375 228.45310974121094 128.74075317382812 227.59432983398438L128.56044006347656 222.84605407714844C128.54150390625 222.25953674316406 128.54177856445312 221.68495178222656 128.56044006347656 221.122314453125V213.56298828125L128.42556762695312 205.81797790527344C128.42184448242188 205.71824645996094 128.41867065429688 205.61814880371094 128.41603088378906 205.5176544189453L128.26724243164062 198.3192901611328C128.26126098632812 198.21617126464844 128.25584411621094 198.11265563964844 128.25100708007812 198.00869750976562L128.00344848632812 192.70703125C127.98955535888672 192.38792419433594 127.98136901855469 192.072265625 127.97877502441406 191.76007080078125L127.66646575927734 187.61849975585938L127.285888671875 184.8386688232422L127.0295181274414 183.47438049316406C127.00277709960938 183.35513305664062 126.97672271728516 183.23519897460938 126.95137023925781 183.11453247070312L126.6596450805664 181.6685791015625C126.56314086914062 181.27163696289062 126.47462463378906 180.86659240722656 126.3943862915039 180.45338439941406L125.919921875 177.874755859375C125.78350830078125 177.17172241210938 125.6781005859375 176.481689453125 125.60227966308594 175.80494689941406L125.46150207519531 174.94854736328125C125.23328399658203 173.9567413330078 125.0673828125 172.91632080078125 124.96990203857422 171.82723999023438C124.75453186035156 170.07839965820312 124.72811889648438 168.41897583007812 124.86783599853516 166.8526611328125V166.0980987548828L123.92488861083984 166.30897521972656L118.01899719238281 168.0347137451172C117.87061309814453 168.07627868652344 117.72270202636719 168.1163787841797 117.57527923583984 168.15501403808594L116.11074829101562 168.6279296875C115.50446319580078 168.85458374023438 114.87541198730469 169.0629425048828 114.22325897216797 169.25181579589844L110.68260192871094 170.2541961669922C110.38939666748047 170.35055541992188 110.0912094116211 170.44281005859375 109.78801727294922 170.53082275390625L109.43920135498047 170.63128662109375L108.54287719726562 171.30810546875L108.50901794433594 171.33535766601562L105.35277557373047 173.8520965576172C104.58296966552734 174.4707489013672 103.80744171142578 175.02574157714844 103.02859497070312 175.52001953125L102.28365325927734 176.0514678955078C101.66069030761719 176.539794921875 100.99581146240234 177.0089874267578 100.28775787353516 177.45677185058594C99.62944030761719 177.8927001953125 98.97057342529297 178.28695678710938 98.31230926513672 178.64120483398438C96.42337036132812 179.99803161621094 94.1763687133789 181.10313415527344 91.55009460449219 181.8712921142578C91.01652526855469 182.05551147460938 90.48624420166016 182.21627807617188 89.95970153808594 182.35447692871094C89.74850463867188 182.49386596679688 89.53665924072266 182.6284637451172 89.32424926757812 182.75836181640625C89.29801177978516 182.90402221679688 89.27043151855469 183.05026245117188 89.24150085449219 183.19705200195312L88.51948547363281 187.05467224121094C88.44338989257812 187.44073486328125 88.36009979248047 187.8196563720703 88.26985168457031 188.19146728515625L87.60391998291016 191.8843536376953C87.58705139160156 192.0205078125 87.56905364990234 192.15721130371094 87.54991912841797 192.29444885253906L86.71598815917969 197.9193878173828C86.63977813720703 198.74081420898438 86.51980590820312 199.5821533203125 86.35343933105469 200.4429168701172L84.8887710571289 207.93125915527344C84.86809539794922 208.0377197265625 84.84687042236328 208.14364624023438 84.82510375976562 208.2490234375L84.38221740722656 211.14920043945312L84.18355560302734 212.8295440673828C84.17909240722656 212.97018432617188 84.17349243164062 213.1115264892578 84.16675567626953 213.2535400390625L83.9192123413086 218.1632537841797V225.17861938476562C83.9588851928711 225.9852752685547 83.959716796875 226.81686401367188 83.9192123413086 227.67324829101562L83.44474029541016 238.0702667236328V243.93692016601562C83.47089385986328 244.59840393066406 83.4713363647461 245.27650451660156 83.44474029541016 245.97119140625L83.03215789794922 256.8426818847656C83.00691223144531 257.4673767089844 82.96107482910156 258.0770568847656 82.89562225341797 258.67181396484375L82.47517395019531 268.04425048828125C82.47188568115234 268.11846923828125 82.46830749511719 268.19244384765625 82.46443939208984 268.2662353515625L82.0832290649414 279.0807800292969C82.07884216308594 279.1954040527344 82.0737533569336 279.30950927734375 82.0679702758789 279.4231262207031L81.83567810058594 287.146728515625C81.832275390625 287.252197265625 81.8282699584961 287.3572082519531 81.82368469238281 287.4618225097656L81.58812713623047 298.5133361816406C81.58660888671875 298.5882568359375 81.58478546142578 298.6629638671875 81.5826644897461 298.7374572753906L81.423095703125 310.1068420410156C81.42272186279297 310.1402893066406 81.42228698730469 310.1737060546875 81.42179107666016 310.2070617675781L81.34058380126953 321.55596923828125V331.2928771972656C81.34003448486328 331.3973388671875 81.3388900756836 331.5013732910156 81.337158203125 331.60504150390625L81.25806427001953 340.7203369140625V349.67333984375L82.0007095336914 359.98785400390625C82.0283203125 360.39984130859375 82.04620361328125 360.8062744140625 82.05464172363281 361.2071228027344L82.55769348144531 366.9192199707031C82.58612060546875 367.2532958984375 82.60808563232422 367.5838317871094 82.62374877929688 367.9107971191406L83.36222839355469 377.1512145996094C83.4030532836914 377.6642150878906 83.42877960205078 378.1687316894531 83.43995666503906 378.6647644042969L83.87886810302734 385.3475646972656C83.97860717773438 386.0847473144531 84.0477066040039 386.8457946777344 84.08424377441406 387.6307678222656L84.496826171875 397.5326843261719C84.51713562011719 397.96905517578125 84.52672576904297 398.39898681640625 84.52590942382812 398.8224792480469L84.70491027832031 404.729736328125L85.4708480834961 413.49346923828125C85.50584411621094 413.81976318359375 85.53475952148438 414.15057373046875 85.55743408203125 414.4857482910156C85.63481140136719 415.4046630859375 85.66343688964844 416.29669189453125 85.64640808105469 417.16156005859375L85.8297348022461 424.8614196777344C85.8401870727539 424.9929504394531 85.8497314453125 425.12518310546875 85.85833740234375 425.25811767578125L86.46090698242188 434.52984619140625C86.47460174560547 434.69073486328125 86.4869155883789 434.8526611328125 86.49784088134766 435.0156555175781L86.98764038085938 442.4239196777344L87.99243927001953 450.095458984375C88.04168701171875 450.3804931640625 88.08674621582031 450.6692810058594 88.12753295898438 450.9618835449219L89.48905181884766 460.38934326171875C89.49470520019531 460.4299011230469 89.50025939941406 460.47039794921875 89.5057144165039 460.5108642578125L91.01559448242188 468.042724609375C91.0684814453125 468.30694580078125 91.11697387695312 468.5693359375 91.1611557006836 468.8299255371094L92.31522369384766 474.4170837402344C92.48666381835938 475.2896423339844 92.61019134521484 476.1423034667969 92.68855285644531 476.9745788574219L93.54014587402344 482.8817138671875C93.62017059326172 483.25091552734375 93.69329071044922 483.6268615722656 93.7592544555664 484.00958251953125L95.17830657958984 492.52386474609375C95.28118896484375 493.0025939941406 95.37220764160156 493.49261474609375 95.45083618164062 493.9940490722656L96.8948745727539 503.5040283203125C96.9623031616211 503.9424743652344 97.01807403564453 504.37548828125 97.06253051757812 504.8030090332031L97.88461303710938 511.1700744628906C97.98026275634766 511.768310546875 98.05638122558594 512.3829345703125 98.11198425292969 513.0140380859375L98.83399963378906 521.306884765625C98.91136169433594 522.1849975585938 98.94402313232422 523.0386352539062 98.93470001220703 523.86767578125L99.39098358154297 532.1990356445312Q99.39537048339844 532.2861938476562 99.39917755126953 532.3729858398438L100.14405822753906 540.408203125C100.25140380859375 541.1863403320312 100.32433319091797 541.9912109375 100.36054992675781 542.822998046875L100.64009094238281 549.3048095703125C100.65914154052734 549.5079345703125 100.67598724365234 549.7128295898438 100.69061279296875 549.9193725585938L101.37371063232422 559.2875366210938C101.38797760009766 559.4437866210938 101.40095520019531 559.60107421875 101.41262817382812 559.7593994140625L102.05213165283203 569.1868896484375C102.07605743408203 569.5111083984375 102.09393310546875 569.8318481445312 102.10589599609375 570.1492309570312L102.62974548339844 578.1192626953125C102.65130615234375 578.4684448242188 102.66590118408203 578.8135986328125 102.6737060546875 579.1547241210938L102.93917846679688 584.4110717773438C102.96185302734375 584.8364868164062 102.97430419921875 585.2559204101562 102.97683715820312 585.669189453125L103.26924133300781 592.39453125C103.27994537353516 592.7271118164062 103.28451538085938 593.0558471679688 103.28308868408203 593.3807373046875L103.43427276611328 600.7698974609375C103.43728637695312 600.9446411132812 103.4386215209961 601.1182861328125 103.43828582763672 601.2908325195312L103.51617431640625 608.2582397460938L103.51679229736328 608.3407592773438V613.58056640625C103.51667785644531 613.6171875 103.51671600341797 613.65380859375 103.51675415039062 613.6904907226562L103.51679229736328 613.74560546875V642.2755126953125L103.5123062133789 642.6964111328125L103.4498062133789 648.5552978515625C103.48464965820312 649.4429321289062 103.4703140258789 650.3599243164062 103.40327453613281 651.3058471679688C103.3744888305664 651.900390625 103.32585906982422 652.4813232421875 103.25829315185547 653.0485229492188L102.75663757324219 659.0521850585938L102.62974548339844 665.0706176757812C102.61199951171875 665.7273559570312 102.57110595703125 666.3677978515625 102.50819396972656 666.991943359375L102.46470642089844 668.9488525390625C102.43511962890625 669.7872924804688 102.36802673339844 670.5988159179688 102.26576232910156 671.3834228515625L102.22284698486328 671.9842529296875C102.22138977050781 672.0723876953125 102.21949005126953 672.1608276367188 102.2171630859375 672.24951171875L102.15203094482422 674.9198608398438L102.29967498779297 679.9028930664062C102.34880065917969 681.4247436523438 102.26866149902344 682.8665161132812 102.07324981689453 684.2276611328125L101.94129943847656 686.2068481445312C101.93785095214844 686.9600830078125 101.89981842041016 687.733154296875 101.82521057128906 688.5258178710938L101.41262817382812 692.7135009765625C101.35558319091797 693.30078125 101.28092193603516 693.8735961914062 101.18943786621094 694.43212890625L100.85564422607422 698.1183471679688C100.82312774658203 698.43359375 100.78553771972656 698.74462890625 100.74301147460938 699.0514526367188L100.46275329589844 701.783935546875C100.45700073242188 701.9024658203125 100.450439453125 702.021484375 100.44306182861328 702.1409912109375L100.13362884521484 707.3807373046875C100.12409973144531 707.5283203125 100.11343383789062 707.675048828125 100.10164642333984 707.8209228515625L99.96859741210938 710.681396484375C99.95356750488281 710.9793090820312 99.93382263183594 711.273681640625 99.90946960449219 711.5646362304688L99.88745880126953 711.9856567382812C99.89849090576172 712.4305419921875 99.89815521240234 712.8828735351562 99.88607788085938 713.342529296875L99.8035659790039 716.086181640625C99.79824829101562 716.2678833007812 99.79115295410156 716.4483642578125 99.78231811523438 716.6275634765625L99.7210464477539 718.6648559570312V744.5336303710938L99.7209243774414 748.9482421875L99.7210464477539 749.03076171875V753.3834838867188L99.78424072265625 756.4798583984375C99.79066467285156 756.6484985351562 99.7955093383789 756.8181762695312 99.79875946044922 756.9889526367188C107.9136962890625 763.9269409179688 111.28466796875 776.49462890625 101.5776596069336 786.9057006835938L101.41262817382812 787.0707397460938C100.54529571533203 787.9940795898438 99.65426635742188 788.8152465820312 98.74537658691406 789.5397338867188C98.39598846435547 789.8379516601562 98.04464721679688 790.122314453125 97.69168853759766 790.3930053710938L97.61688995361328 790.453857421875C97.5742416381836 790.48876953125 97.53157806396484 790.5234375 97.48892974853516 790.5579833984375C97.08827209472656 790.9052124023438 96.66825103759766 791.244384765625 96.22844696044922 791.5748901367188C94.47752380371094 793.1235961914062 92.35055541992188 794.4151611328125 89.82710266113281 795.3494262695312C86.36929321289062 797.1015014648438 82.34960174560547 797.8348999023438 78.0353775024414 797.0615844726562C73.55939483642578 796.62890625 69.8263168334961 794.7823486328125 66.95096588134766 792.091064453125C65.80846405029297 791.2019653320312 64.74443817138672 790.1566772460938 63.78348922729492 788.9475708007812C62.20072937011719 787.0899047851562 61.068275451660156 785.062255859375 60.337894439697266 782.9525146484375C59.2730712890625 780.541015625 58.74244689941406 778.135498046875 58.66020965576172 775.8018798828125C58.53657913208008 774.7281494140625 58.49480438232422 773.6842041015625 58.528324127197266 772.6723022460938C58.51121139526367 772.0508422851562 58.517295837402344 771.4425048828125 58.545501708984375 770.8474731445312V757.4268188476562L58.48230743408203 754.3303833007812C58.47042465209961 754.0184326171875 58.46393966674805 753.7028198242188 58.462982177734375 753.3834838867188V725.9881591796875L58.462890625 725.9467163085938L58.462982177734375 725.9056396484375V718.8765869140625C58.45758819580078 718.56884765625 58.45754623413086 718.257568359375 58.462982177734375 717.9428100585938L58.46853256225586 717.7582397460938C58.471954345703125 717.5955810546875 58.47682189941406 717.4339599609375 58.483116149902344 717.2733154296875L58.53445816040039 715.56640625C58.535789489746094 715.3629760742188 58.539459228515625 715.1580200195312 58.545501708984375 714.9515991210938L58.6085319519043 712.8558959960938C58.61001968383789 712.5604858398438 58.616477966308594 712.2620239257812 58.62801742553711 711.9603881835938L58.710533142089844 708.8247680664062C58.73783874511719 708.1512451171875 58.78922653198242 707.4951171875 58.863487243652344 706.8565063476562L58.88326644897461 706.373291015625C58.88557052612305 705.8589477539062 58.9034309387207 705.3352661132812 58.93745040893555 704.8021240234375L59.26751708984375 699.5623779296875C59.311344146728516 698.8504638671875 59.38166809082031 698.1588134765625 59.47706604003906 697.4873046875L59.648963928222656 695.43310546875C59.671566009521484 694.9336547851562 59.70926284790039 694.4259033203125 59.762611389160156 693.9099731445312L60.31959533691406 688.6083374023438C60.341392517089844 688.3975219726562 60.3654670715332 688.1885986328125 60.391780853271484 687.9815063476562L60.581302642822266 685.9566040039062C60.59208679199219 685.6607666015625 60.60795974731445 685.3619384765625 60.629032135009766 685.0601196289062L61.017356872558594 680.4487915039062L60.90830612182617 676.781982421875C60.8782958984375 676.2706909179688 60.86366653442383 675.749267578125 60.865055084228516 675.2176513671875C60.856346130371094 674.5941162109375 60.86954116821289 673.984375 60.90364456176758 673.388427734375L60.9590950012207 671.1149291992188C60.982913970947266 670.2084350585938 61.05084991455078 669.3331298828125 61.15993881225586 668.4888305664062L61.19290542602539 668.0272827148438C61.19564437866211 667.847412109375 61.200218200683594 667.6663818359375 61.20664596557617 667.4841918945312L61.37167739868164 663.853515625C61.37398910522461 663.7877807617188 61.37653350830078 663.7222290039062 61.379302978515625 663.6568603515625L61.48534393310547 658.62744140625C61.47480010986328 657.9672241210938 61.49113845825195 657.291259765625 61.535743713378906 656.5999145507812C61.5721321105957 655.7930908203125 61.64405059814453 655.0114135742188 61.74930953979492 654.2550048828125L62.178077697753906 649.8363037109375L62.258602142333984 642.286865234375L62.258724212646484 642.2755126953125L62.258846282958984 642.1929931640625L62.258724212646484 636.7876586914062V608.6708374023438L62.25778579711914 608.5883178710938L62.18032455444336 601.7716674804688C62.17871856689453 601.7061157226562 62.177345275878906 601.640380859375 62.17620849609375 601.574462890625L62.025394439697266 594.2033081054688C62.01986312866211 594.082275390625 62.01512145996094 593.960693359375 62.01117706298828 593.8385620117188L61.790740966796875 587.0233764648438C61.78053283691406 586.87548828125 61.77149200439453 586.7267456054688 61.76362991333008 586.5771484375L61.484580993652344 581.052001953125C61.47333908081055 580.9072875976562 61.46320724487305 580.7617797851562 61.454193115234375 580.6153564453125L60.87657928466797 571.909912109375C60.84554672241211 571.4058227539062 60.82894515991211 570.9102172851562 60.826255798339844 570.4229736328125L60.26213836669922 563.0571899414062L60.23707962036133 562.72998046875L60.23601531982422 562.7155151367188L59.51506423950195 552.9105834960938C59.46469497680664 552.1968383789062 59.443416595458984 551.4996948242188 59.44978332519531 550.8192138671875L59.25529861450195 546.3095703125C59.22936248779297 546.0914916992188 59.20591354370117 545.871337890625 59.185001373291016 545.649169921875L58.21543502807617 535.1696166992188C58.12761688232422 534.2057495117188 58.093753814697266 533.2711791992188 58.11026382446289 532.3660888671875L57.658451080322266 524.133056640625C57.653629302978516 524.0357666015625 57.64933776855469 523.938720703125 57.64558029174805 523.842041015625L57.0411262512207 516.8994140625L56.147605895996094 509.9789733886719C56.14231491088867 509.94549560546875 56.137081146240234 509.9119873046875 56.13190460205078 509.87841796875L54.885772705078125 501.7171325683594C54.805965423583984 501.3498840332031 54.73304748535156 500.9759826660156 54.667240142822266 500.5953369140625L53.22540283203125 491.9443054199219C53.130855560302734 491.4827575683594 53.04745864868164 491.01080322265625 52.97566223144531 490.52838134765625L51.63749694824219 481.6681213378906L50.71919631958008 476.92095947265625C50.66392517089844 476.6806335449219 50.61152648925781 476.4373779296875 50.56206512451172 476.1911926269531L49.11795425415039 468.97064208984375C48.88558578491211 468.06524658203125 48.698631286621094 467.11663818359375 48.5610466003418 466.1242370605469L47.26142120361328 456.6142272949219C47.197105407714844 456.1524963378906 47.14561080932617 455.69696044921875 47.106544494628906 455.2476806640625L46.22434616088867 448.4035339355469C46.02915573120117 447.3999328613281 45.89173889160156 446.34808349609375 45.817386627197266 445.2476501464844L45.322288513183594 437.8211975097656C45.309993743896484 437.63922119140625 45.29958724975586 437.45831298828125 45.29104232788086 437.27850341796875L44.68278884887695 427.91925048828125C44.63148498535156 427.1246337890625 44.6161003112793 426.350830078125 44.634639739990234 425.59796142578125L44.369422912597656 417.24359130859375L43.548194885253906 407.8471984863281C43.448856353759766 406.67620849609375 43.428375244140625 405.5487060546875 43.48040008544922 404.4651794433594L43.34458923339844 399.9217224121094C43.33562088012695 399.77264404296875 43.327842712402344 399.6226806640625 43.32127380371094 399.4718322753906L42.87777328491211 390.52789306640625C42.858123779296875 390.3135986328125 42.840911865234375 390.097412109375 42.826175689697266 389.87933349609375L42.186676025390625 380.1424255371094C42.15568923950195 379.66357421875 42.13780212402344 379.1922302246094 42.13258361816406 378.7284851074219L41.507450103759766 370.8421936035156C41.491981506347656 370.69073486328125 41.47771453857422 370.5382995605469 41.46466064453125 370.3848876953125L40.82516098022461 363.12347412109375C40.78102111816406 362.6092834472656 40.75221252441406 362.1034851074219 40.738197326660156 361.606201171875L40.22172927856445 354.43304443359375C40.076087951660156 353.35113525390625 40.0 352.2184143066406 40.0 351.03485107421875V340.7203369140625C40.0 340.5628662109375 40.0013542175293 340.40631103515625 40.00404739379883 340.25067138671875L40.082515716552734 331.1484680175781V321.5955810546875L40.08220672607422 321.39093017578125C40.08226776123047 321.36346435546875 40.08237075805664 321.3359375 40.082515716552734 321.30841064453125L40.163299560546875 309.9380187988281C40.163299560546875 309.8365173339844 40.16387939453125 309.7346496582031 40.16503143310547 309.63238525390625L40.3244743347168 298.1723937988281C40.324493408203125 297.9915466308594 40.32634735107422 297.80950927734375 40.33006286621094 297.62628173828125L40.56353759765625 286.7503967285156C40.56313705444336 286.4525146484375 40.56779098510742 286.1513977050781 40.577613830566406 285.84710693359375L40.80791091918945 278.1321716308594C40.81093215942383 277.9136962890625 40.81666564941406 277.69354248046875 40.82516098022461 277.4717102050781L41.2783203125 266.85211181640625C41.282657623291016 266.63232421875 41.28974533081055 266.41082763671875 41.29962921142578 266.1876525878906L41.77409744262695 255.15110778808594C41.78054428100586 255.00558471679688 41.78811264038086 254.86087036132812 41.796791076660156 254.7169952392578L42.186676025390625 244.42401123046875V237.0181884765625C42.19267272949219 236.0200653076172 42.25288772583008 235.05853271484375 42.36336898803711 234.133544921875L42.67039108276367 227.35235595703125C42.66537094116211 227.1649627685547 42.66228103637695 226.9762420654297 42.6611442565918 226.78619384765625V218.6853485107422C42.62262725830078 217.88914489746094 42.62183380126953 217.06869506835938 42.6611442565918 216.22412109375L42.85660934448242 212.34747314453125C42.86949920654297 211.6866912841797 42.9091911315918 211.01095581054688 42.97702407836914 210.3204803466797C43.0136604309082 209.90196228027344 43.059783935546875 209.49066162109375 43.115081787109375 209.08653259277344L43.38477325439453 206.7062225341797C43.41511917114258 206.372802734375 43.45249557495117 206.03599548339844 43.49707794189453 205.69586181640625C43.581993103027344 204.93458557128906 43.69696807861328 204.1981658935547 43.84018325805664 203.48641967773438L43.9918212890625 202.5386962890625C44.06793975830078 201.72210693359375 44.187381744384766 200.8858184814453 44.352725982666016 200.03033447265625L45.77998352050781 192.7332305908203L46.455135345458984 188.17926025390625C46.52267837524414 187.37014770507812 46.63245391845703 186.54129028320312 46.78695297241211 185.6931610107422L47.670772552490234 181.0454864501953C47.74760055541992 180.39927673339844 47.85140609741211 179.74110412597656 47.983436584472656 179.0712432861328L48.70909881591797 175.59178161621094L48.99184799194336 173.38027954101562C49.0441780090332 172.8145294189453 49.117958068847656 172.23956298828125 49.21407699584961 171.6555633544922C49.367408752441406 170.62074279785156 49.5742301940918 169.63397216796875 49.83001708984375 168.6946258544922L50.314517974853516 166.50816345214844C50.51036834716797 165.63853454589844 50.74219512939453 164.806640625 51.00725555419922 164.0118865966797L51.24516296386719 163.10784912109375L51.30454635620117 162.85971069335938C51.336734771728516 162.30213928222656 51.388431549072266 161.734619140625 51.46043014526367 161.15731811523438C51.53641128540039 160.04441833496094 51.70283889770508 158.898681640625 51.967620849609375 157.72276306152344C52.424598693847656 155.30221557617188 53.18464279174805 153.16070556640625 54.18400573730469 151.2891082763672C54.520511627197266 150.59022521972656 54.900936126708984 149.8895721435547 55.3272590637207 149.18849182128906C55.823055267333984 148.3105926513672 56.39462661743164 147.4365692138672 57.04624938964844 146.57003784179688C58.97685241699219 142.74172973632812 62.0212516784668 139.94508361816406 65.57916259765625 138.18006896972656C69.62383270263672 135.89170837402344 74.04572296142578 135.33688354492188 78.24252319335938 136.08270263671875C80.39226531982422 136.34286499023438 82.5009536743164 136.90635681152344 84.47291564941406 137.7731475830078C84.84130096435547 137.48329162597656 85.22391510009766 137.1988525390625 85.62103271484375 136.9202117919922C86.6463394165039 136.07843017578125 87.7930679321289 135.2970733642578 89.06710052490234 134.5887451171875C90.09260559082031 133.97442626953125 91.1172103881836 133.4578857421875 92.13667297363281 133.03289794921875C92.6427993774414 132.7979278564453 93.16716766357422 132.57688903808594 93.70994567871094 132.37066650390625C95.23849487304688 131.7220916748047 96.73758697509766 131.2588653564453 98.19876861572266 130.9630889892578C98.47076416015625 130.88351440429688 98.7411880493164 130.8089599609375 99.01000213623047 130.7393341064453L102.66521453857422 129.6172637939453L105.84786987304688 128.5507354736328C106.77320861816406 128.24520874023438 107.68212127685547 127.99969482421875 108.5734634399414 127.81069946289062L113.17118072509766 126.46720886230469C114.15157318115234 126.19190216064453 115.11101531982422 125.98140716552734 116.04837036132812 125.8316650390625L118.51427459716797 125.24867248535156C119.64505004882812 124.90521240234375 120.84793853759766 124.63467407226562 122.12417602539062 124.44556427001953L128.2996368408203 123.54054260253906C128.4134521484375 123.51838684082031 128.52789306640625 123.49687194824219 128.6429443359375 123.47599792480469L133.96307373046875 122.48575592041016L138.56552124023438 121.30995178222656C138.66725158691406 121.28414916992188 138.7687225341797 121.25902557373047 138.86996459960938 121.23457336425781L140.9731903076172 120.65644073486328C141.3713836669922 120.51586151123047 141.77902221679688 120.38290405273438 142.19622802734375 120.25787353515625L146.85838317871094 118.87572479248047C147.57484436035156 118.66381072998047 148.280517578125 118.48687744140625 148.97494506835938 118.34333801269531L156.4508819580078 116.37960815429688C157.1808624267578 116.18762969970703 157.89869689941406 116.03096771240234 158.6039581298828 115.9079818725586L163.93922424316406 114.68803405761719C164.26901245117188 114.61376190185547 164.59609985351562 114.54649353027344 164.92047119140625 114.48606872558594L167.84146118164062 113.87252807617188C168.30381774902344 113.76184844970703 168.7771453857422 113.66220092773438 169.2615203857422 113.57406616210938L173.53172302246094 112.85205078125C174.3837127685547 112.69696807861328 175.21615600585938 112.58695220947266 176.02859497070312 112.51947021484375L181.36898803710938 111.8203125C181.57896423339844 111.79014587402344 181.79092407226562 111.76238250732422 182.0048370361328 111.73706817626953L182.1546630859375 111.71745300292969ZM415.9322509765625 299.3746337890625C415.9288330078125 299.3009033203125 415.9256896972656 299.22698974609375 415.9228515625 299.15283203125L415.78460693359375 294.695068359375C415.7747802734375 294.56573486328125 415.765869140625 294.4356994628906 415.7578125 294.3050231933594L415.4483947753906 288.4257507324219C415.44354248046875 288.3430480957031 415.4390869140625 288.26055908203125 415.4350280761719 288.1783142089844L415.0357971191406 284.485595703125C415.0267028808594 284.3889465332031 415.0181579589844 284.2925720214844 415.0101318359375 284.1965026855469L414.3334045410156 278.9041442871094L413.84912109375 276.4689636230469L413.3837585449219 274.428466796875C413.3118591308594 274.15411376953125 413.24365234375 273.8757629394531 413.17919921875 273.5934753417969L412.2921447753906 269.57080078125C412.156005859375 268.9663391113281 412.04339599609375 268.3708801269531 411.953369140625 267.7846374511719L411.32257080078125 264.3310241699219C411.2614440917969 264.0050354003906 411.2069396972656 263.681884765625 411.1589050292969 263.361572265625L410.1640625 257.9700927734375L408.76531982421875 252.99685668945312L406.825439453125 247.6260986328125C406.7977294921875 247.55612182617188 406.7702331542969 247.48582458496094 406.7429504394531 247.41522216796875L404.7212829589844 242.25796508789062C404.5128173828125 241.71229553222656 404.32611083984375 241.17152404785156 404.160400390625 240.63592529296875L402.2251892089844 235.4091339111328C402.1366882324219 235.16915893554688 402.0523681640625 234.93019104003906 401.97216796875 234.69224548339844L400.3169250488281 230.3417510986328L398.3316955566406 226.14739990234375C398.0857849121094 225.67572021484375 397.8500061035156 225.18734741210938 397.6249084472656 224.68203735351562L396.2152099609375 221.53602600097656L394.7215270996094 218.58831787109375L393.5194396972656 217.0288543701172L393.51171875 217.01882934570312L391.6679382324219 214.7536163330078L388.5274963378906 211.5619659423828C388.1169128417969 211.13223266601562 387.7291259765625 210.698486328125 387.363525390625 210.26129150390625L385.923583984375 208.75875854492188C385.60638427734375 208.46791076660156 385.29156494140625 208.16464233398438 384.97930908203125 207.84873962402344L381.6314697265625 204.426513671875L377.9903869628906 201.01296997070312L375.89422607421875 199.28915405273438L373.3777160644531 197.45895385742188C372.62030029296875 196.9781951904297 371.8658447265625 196.44032287597656 371.1166076660156 195.8426513671875L368.0664367675781 193.32894897460938C367.82440185546875 193.15518188476562 367.5827331542969 192.9754180908203 367.34149169921875 192.78955078125L363.7933044433594 190.04588317871094C363.4711608886719 189.798583984375 363.15924072265625 189.5478057861328 362.8573913574219 189.2937774658203L360.9725036621094 187.8148651123047C360.2919616699219 187.34254455566406 359.61566162109375 186.82167053222656 358.9454650878906 186.25013732910156L354.2008056640625 182.22747802734375L354.1699523925781 182.2012176513672L351.3100891113281 180.06214904785156L347.2735290527344 177.5354461669922L346.0778503417969 177.01731872558594L342.33056640625 175.59642028808594C341.64715576171875 175.39389038085938 340.9552917480469 175.1567840576172 340.25555419921875 174.883544921875L334.4272155761719 172.57131958007812L328.9958801269531 170.69679260253906C328.3758850097656 170.5119171142578 327.7487487792969 170.29881286621094 327.1148681640625 170.0563507080078L322.3229064941406 168.1836395263672L316.2343444824219 166.1112823486328C315.5518493652344 165.92715454101562 314.8601379394531 165.70925903320312 314.15985107421875 165.45608520507812L306.408203125 162.59054565429688L299.9734802246094 160.80784606933594L292.7056579589844 159.26736450195312C292.5428466796875 159.23104858398438 292.3813781738281 159.19346618652344 292.22119140625 159.15463256835938L290.49603271484375 158.81590270996094C290.03533935546875 158.75991821289062 289.5684814453125 158.6905059814453 289.0955505371094 158.60723876953125L284.16522216796875 157.72019958496094C283.77740478515625 157.65220642089844 283.3966064453125 157.57684326171875 283.0227966308594 157.49432373046875L275.9394226074219 156.34327697753906L266.6343688964844 155.5493927001953L260.0906066894531 155.32882690429688C259.7914123535156 155.32656860351562 259.4890441894531 155.31919860839844 259.1834716796875 155.3065948486328L249.0339813232422 154.91464233398438C248.2535400390625 154.88241577148438 247.4966278076172 154.8178253173828 246.76316833496094 154.72274780273438L240.02842712402344 154.33071899414062C239.4722137451172 154.32391357421875 238.9052276611328 154.2987518310547 238.3275146484375 154.2545166015625L230.78318786621094 153.6563720703125C230.5831298828125 153.64492797851562 230.38174438476562 153.6311492919922 230.17904663085938 153.61502075195312L221.96868896484375 152.9755096435547C221.7350311279297 152.95616149902344 221.50360107421875 152.93397521972656 221.27439880371094 152.90902709960938L213.55809020996094 152.3979034423828H205.27980041503906Q205.03298950195312 152.40011596679688 204.78912353515625 152.3979034423828H197.951171875C197.52645874023438 152.4083251953125 197.09503173828125 152.40843200683594 196.65687561035156 152.3979034423828L192.0922393798828 152.34622192382812L186.9914093017578 152.74658203125L180.31301879882812 153.5465087890625L177.32449340820312 154.0592498779297C177.24330139160156 154.07652282714844 177.16177368164062 154.09347534179688 177.07992553710938 154.110107421875L173.41571044921875 154.81283569335938C173.26980590820312 154.84780883789062 173.12283325195312 154.88174438476562 172.97474670410156 154.91464233398438L169.01055908203125 155.8090057373047C168.4051513671875 158.06724548339844 167.44358825683594 160.2223358154297 166.1259002685547 162.1529541015625V168.00938415527344L166.36839294433594 169.72250366210938C166.3913116455078 169.83319091796875 166.4136199951172 169.94447326660156 166.43533325195312 170.0563507080078L166.93043518066406 172.63497924804688C166.96311950683594 172.80345153808594 166.99403381347656 172.97117614746094 167.02317810058594 173.1381378173828C167.20201110839844 173.80599975585938 167.35726928710938 174.4977264404297 167.4874267578125 175.21360778808594L168.06503295898438 178.34922790527344C168.22723388671875 179.25938415527344 168.33822631835938 180.14720153808594 168.40106201171875 181.0121612548828C168.58326721191406 181.96519470214844 168.7134246826172 182.96156311035156 168.78704833984375 184.0015869140625L169.07977294921875 188.74679565429688C169.16685485839844 189.42782592773438 169.22793579101562 190.12901306152344 169.2615203857422 190.8504180908203L169.50906372070312 196.09019470214844C169.53582763671875 196.66529846191406 169.54396057128906 197.22921752929688 169.5342254638672 197.7819061279297L169.67410278320312 204.548095703125C169.67933654785156 204.77297973632812 169.6817626953125 204.99609375 169.6814422607422 205.21742248535156L169.81109619140625 212.66319274902344C169.8139190673828 212.78074645996094 169.8159637451172 212.89881896972656 169.8172607421875 213.01739501953125L169.81849670410156 213.08851623535156C169.82113647460938 213.30775451660156 169.8211212158203 213.5252685546875 169.81849670410156 213.74105834960938V221.54641723632812L170.06605529785156 228.00331115722656C170.06832885742188 228.0807647705078 170.07025146484375 228.1580047607422 170.0718536376953 228.23504638671875L170.4002227783203 232.3944091796875C170.42974853515625 232.6470489501953 170.45590209960938 232.90243530273438 170.47862243652344 233.1605682373047L170.7407684326172 236.7615509033203C170.83013916015625 237.34066772460938 170.90121459960938 237.93504333496094 170.95309448242188 238.54473876953125L171.4481964111328 244.36212158203125L171.45297241210938 244.42111206054688L172.72718811035156 253.37701416015625C172.80091857910156 253.9176483154297 172.85707092285156 254.44976806640625 172.8962860107422 254.9733123779297L173.77928161621094 260.8653564453125C173.79623413085938 260.98773193359375 173.81228637695312 261.10968017578125 173.82745361328125 261.231201171875L175.27804565429688 269.1940002441406C175.51260375976562 270.2095031738281 175.68875122070312 271.2769775390625 175.80091857910156 272.39697265625L175.81056213378906 272.4971008300781C175.83152770996094 272.6910705566406 175.85009765625 272.8839416503906 175.86630249023438 273.07568359375L176.83236694335938 283.10345458984375C176.86463928222656 283.4359436035156 176.89048767089844 283.7649841308594 176.9100341796875 284.0905456542969L177.9669647216797 293.1910400390625C178.0091552734375 293.5585021972656 178.04335021972656 293.921875 178.0697479248047 294.2811584472656L178.58287048339844 298.8992004394531C178.6992950439453 299.58099365234375 178.79019165039062 300.28436279296875 178.85401916503906 301.00946044921875L179.65855407714844 310.3544006347656C179.71588134765625 311.0281982421875 179.74696350097656 311.6876220703125 179.7529754638672 312.3325500488281L180.2155303955078 319.6993408203125C180.2436065673828 320.1328430175781 180.2609100341797 320.5601501464844 180.26780700683594 320.9812316894531L180.62811279296875 327.68280029296875C180.639892578125 327.9534912109375 180.64756774902344 328.2217102050781 180.65121459960938 328.4874267578125L180.94219970703125 332.29541015625C180.9476318359375 332.33935546875 180.95294189453125 332.38336181640625 180.9581756591797 332.4274597167969L181.68019104003906 338.5542907714844L181.7093505859375 338.81964111328125L182.33590698242188 344.5229797363281C182.43113708496094 345.0968322753906 182.508544921875 345.68585205078125 182.56724548339844 346.2901916503906L183.2892608642578 353.6134948730469C183.34568786621094 354.1948547363281 183.38247680664062 354.765625 183.400390625 355.3258056640625L183.76373291015625 359.5752868652344C183.81137084960938 360.1960754394531 183.83682250976562 360.804443359375 183.84104919433594 361.40032958984375L184.17630004882812 367.166748046875C184.20355224609375 367.6852722167969 184.2156219482422 368.1947937011719 184.21307373046875 368.69525146484375L184.40322875976562 374.57257080078125C184.41622924804688 374.975341796875 184.42018127441406 375.3724670410156 184.4153289794922 375.7640075683594L184.4716033935547 380.15350341796875C184.47659301757812 380.2252502441406 184.48130798339844 380.29718017578125 184.48574829101562 380.36932373046875L184.81190490722656 385.5470275878906L185.03732299804688 387.3648986816406C185.24708557128906 388.47332763671875 185.38233947753906 389.6396789550781 185.4354705810547 390.86407470703125C185.48716735839844 391.5896301269531 185.5065155029297 392.2984313964844 185.49522399902344 392.9903259277344L185.59771728515625 396.84613037109375L186.1154327392578 401.9679260253906C186.1626434326172 402.48602294921875 186.19424438476562 402.99566650390625 186.2108154296875 403.496826171875L186.50738525390625 406.3206481933594C186.53463745117188 406.59271240234375 186.55755615234375 406.8624572753906 186.57623291015625 407.1299133300781L187.0643768310547 412.2824401855469C187.12425231933594 412.9186096191406 187.16058349609375 413.5421142578125 187.1743927001953 414.15283203125L187.55946350097656 418.96624755859375C187.60507202148438 419.6105041503906 187.62681579589844 420.2412414550781 187.6257781982422 420.85833740234375L187.868896484375 425.9801330566406C187.88441467285156 426.30828857421875 187.89385986328125 426.6328125 187.8973846435547 426.95367431640625L188.033935546875 430.82794189453125C188.04563903808594 431.1595458984375 188.0511932373047 431.4873352050781 188.0507354736328 431.81134033203125L188.19273376464844 437.5089416503906L188.19383239746094 437.55267333984375L188.198974609375 437.7593078613281C188.20489501953125 438.08770751953125 188.20484924316406 438.4123229980469 188.198974609375 438.73309326171875V441.0599365234375C188.19972229003906 441.10943603515625 188.20033264160156 441.1588134765625 188.2008056640625 441.2081298828125L188.28147888183594 444.113037109375C188.28219604492188 444.1924743652344 188.28256225585938 444.27166748046875 188.2825927734375 444.35064697265625L188.41278076171875 446.2303466796875C192.02455139160156 446.694091796875 195.67959594726562 448.2537841796875 199.07798767089844 451.2025146484375L199.2093963623047 451.2621154785156L201.46319580078125 452.1164855957031L202.21722412109375 452.3133850097656C202.27529907226562 452.3233947753906 202.33348083496094 452.3335876464844 202.39173889160156 452.3440246582031L206.72654724121094 453.1818542480469L210.41091918945312 453.7160339355469L215.7593536376953 453.7880554199219C216.45591735839844 453.800048828125 217.13442993164062 453.83807373046875 217.79489135742188 453.9008483886719L220.6641082763672 453.9453430175781C220.85694885253906 453.9458312988281 221.0511474609375 453.9483947753906 221.24667358398438 453.9530944824219L226.06126403808594 454.0313720703125L226.32142639160156 454.0356140136719L229.37451171875 454.0975036621094Q229.59201049804688 454.10272216796875 229.80714416503906 454.111328125L232.36572265625 454.1800231933594C232.44976806640625 454.1815490722656 232.53353881835938 454.18341064453125 232.61705017089844 454.1856994628906L237.65049743652344 454.2544250488281L241.71067810058594 454.0975036621094L241.76112365722656 454.0962219238281L244.4285125732422 453.89349365234375L244.99530029296875 453.7892150878906C245.54893493652344 453.6624450683594 246.11807250976562 453.5517883300781 246.70289611816406 453.4580078125L249.44656372070312 452.9835205078125C249.99053955078125 452.89630126953125 250.5262908935547 452.8271789550781 251.05368041992188 452.7754821777344L254.62547302246094 452.2289123535156L258.4614562988281 451.3744812011719C258.5309143066406 451.3592529296875 258.60028076171875 451.3443298339844 258.66949462890625 451.3297424316406L262.1482849121094 450.3358154296875C262.34063720703125 450.2745666503906 262.53509521484375 450.2150573730469 262.7316589355469 450.1573486328125L269.10601806640625 448.3007507324219C269.88128662109375 448.07379150390625 270.643798828125 447.88763427734375 271.3929748535156 447.740234375L274.7291259765625 446.8971862792969L278.5751953125 445.6347351074219C278.6979064941406 445.5875244140625 278.8215026855469 445.541015625 278.9460754394531 445.49517822265625L283.1410217285156 443.9570617675781C284.2367248535156 443.45965576171875 285.4162292480469 443.02740478515625 286.6819763183594 442.66900634765625L293.5307922363281 440.7298889160156C293.7572326660156 440.6666259765625 293.9825744628906 440.6068115234375 294.2067565917969 440.55035400390625L300.498779296875 438.88482666015625L304.95928955078125 437.34674072265625C305.0444641113281 437.3180847167969 305.1294860839844 437.2899475097656 305.2143859863281 437.2622985839844L310.28399658203125 435.2792053222656C310.7047424316406 435.1004638671875 311.1370849609375 434.929931640625 311.5812072753906 434.7680969238281L318.2650146484375 432.3544921875C318.6946105957031 432.1993103027344 319.1209411621094 432.057373046875 319.5438537597656 431.9283752441406L323.7268371582031 430.3655090332031L327.9207763671875 428.5593566894531L332.32177734375 426.30963134765625L336.4773864746094 423.34967041015625L340.48028564453125 420.1142578125C340.5152587890625 420.0822448730469 340.5503845214844 420.05029296875 340.58563232421875 420.0183410644531L343.7348327636719 417.1891174316406C344.06683349609375 416.87005615234375 344.41290283203125 416.55462646484375 344.7733154296875 416.24322509765625L348.6564025878906 412.9341735839844C349.03564453125 412.5810852050781 349.4327392578125 412.2330322265625 349.8480529785156 411.8905029296875L354.6752624511719 407.8471984863281C355.198486328125 407.4177551269531 355.72467041015625 407.0181579589844 356.2530517578125 406.6474304199219L358.5373229980469 404.9020080566406L360.8639831542969 402.8980407714844L363.0511474609375 400.8025207519531C363.4590148925781 400.35369873046875 363.8918151855469 399.9098815917969 364.35028076171875 399.4718322753906L367.9159240722656 396.1289978027344Q368.1796875 395.87017822265625 368.4554443359375 395.61419677734375L371.2177734375 393.0371398925781C371.4713439941406 392.78704833984375 371.7332458496094 392.5389404296875 372.0036315917969 392.29290771484375L375.16986083984375 389.5128173828125Q375.31787109375 389.3758544921875 375.4693298339844 389.23980712890625L379.5126037597656 385.6091003417969C379.5460205078125 385.5791320800781 379.5794372558594 385.54931640625 379.6128845214844 385.51959228515625L383.2877197265625 382.0609130859375C383.3933410644531 381.9653625488281 383.4991455078125 381.87109375 383.60516357421875 381.77813720703125L386.2640686035156 379.16192626953125L387.1253356933594 378.1470947265625L389.4453430175781 374.8367919921875C389.5163879394531 374.7212219238281 389.588623046875 374.60565185546875 389.662109375 374.49005126953125L392.5501708984375 369.9723205566406C392.7859191894531 369.6034851074219 393.0267028808594 369.2461242675781 393.2722473144531 368.9000549316406L394.63433837890625 366.6657409667969L396.1808776855469 363.6185607910156C396.1995544433594 363.58245849609375 396.2182922363281 363.5464782714844 396.2370910644531 363.5105895996094L398.0374755859375 359.5133972167969C398.241943359375 359.0704345703125 398.4545593261719 358.6407470703125 398.6749267578125 358.2241516113281L400.8960266113281 353.7002868652344L403.4422912597656 347.7342224121094C403.628173828125 347.29852294921875 403.8221130371094 346.8751220703125 404.0237121582031 346.4638671875L405.4440612792969 343.08203125L407.9199523925781 336.63323974609375L409.7960205078125 330.17889404296875C409.83966064453125 330.0332946777344 409.8842468261719 329.88885498046875 409.9298095703125 329.7455749511719L411.48760986328125 323.7220153808594C411.58935546875 323.3316650390625 411.6982116699219 322.9493103027344 411.81396484375 322.57489013671875L413.0966796875 317.8427429199219L413.1061706542969 317.80853271484375L414.39630126953125 311.8809509277344C414.562255859375 311.1440124511719 414.7539978027344 310.4340515136719 414.9698181152344 309.750732421875L415.2486267089844 308.5782470703125L415.7578125 305.9191589355469C415.7751159667969 305.8367614746094 415.7927551269531 305.7546691894531 415.8106994628906 305.6729431152344L415.8697814941406 305.2593688964844L416.0011291503906 303.42071533203125L415.9322509765625 299.3746337890625Z" fill="black"/>
</svg>
