<svg xmlns="http://www.w3.org/2000/svg" viewBox="0 0 681 1000">
  <path d="M201.50668334960938 178.50721740722656H197.2818145751953L195.23789978027344 178.59544372558594L193.3847198486328 178.75965881347656C192.13174438476562 178.9246063232422 190.837158203125 179.0323028564453 189.5009765625 179.07894897460938C188.13804626464844 179.1530303955078 186.8126678466797 179.16055297851562 185.52517700195312 179.10548400878906H106.60530853271484L102.79934692382812 179.15428161621094C102.6770248413086 179.1570587158203 102.55436706542969 179.1593475341797 102.43136596679688 179.1611328125L98.6422119140625 179.20956420898438Q98.49884033203125 179.21363830566406 98.35482788085938 179.216796875L95.74320983886719 179.26449584960938C95.6539306640625 179.2674102783203 95.56446075439453 179.2700653076172 95.47480773925781 179.27244567871094L92.0672607421875 179.35386657714844C91.93280792236328 179.3597869873047 91.79792022705078 179.3651123046875 91.66261291503906 179.36984252929688L90.0948715209961 179.41845703125C80.74903869628906 183.4550323486328 69.68303680419922 183.3489990234375 59.56468963623047 176.43182373046875C55.72178268432617 174.809326171875 52.43445587158203 172.50912475585938 49.714454650878906 169.73526000976562C42.136775970458984 162.54466247558594 39.19917678833008 152.3151397705078 40.18407440185547 142.42562866210938C40.84592819213867 133.09677124023438 44.997276306152344 124.06543731689453 52.803855895996094 118.21211242675781C56.996246337890625 114.8239974975586 62.142032623291016 112.47017669677734 68.12701416015625 111.68834686279297C69.79875183105469 111.40335083007812 71.5240478515625 111.25470733642578 73.29657745361328 111.25629425048828C74.88098907470703 111.19129180908203 76.48894500732422 111.25091552734375 78.11223602294922 111.44554138183594C79.28654479980469 111.49681091308594 80.4866714477539 111.60556030273438 81.7117919921875 111.77497863769531C82.63941192626953 111.86036682128906 83.54541015625 111.9761734008789 84.42976379394531 112.12097930908203L85.69388580322266 112.09991455078125C85.74662780761719 112.09798431396484 85.79930877685547 112.09616088867188 85.85193634033203 112.09442138671875L89.26956176757812 111.93295288085938C89.68873596191406 111.9183120727539 90.10420989990234 111.90965270996094 90.51597595214844 111.90687561035156L93.68001556396484 111.82164764404297C93.99987030029297 111.8131332397461 94.3175277709961 111.80809020996094 94.63301086425781 111.80648040771484L96.88003540039062 111.76599884033203C97.272216796875 111.75701904296875 97.66110229492188 111.75325012207031 98.04666900634766 111.75460815429688L101.49919128417969 111.71034240722656C101.67555236816406 111.70777893066406 101.85124206542969 111.70626831054688 102.02625274658203 111.7057876586914L106.06269073486328 111.65469360351562C106.13629150390625 111.6540756225586 106.20977020263672 111.65364837646484 106.28313446044922 111.65339660644531L110.29523468017578 111.60562896728516C110.45699310302734 111.60281372070312 110.61933898925781 111.60087585449219 110.78228759765625 111.5998306274414L110.84880828857422 111.59903717041016Q111.00186157226562 111.59852600097656 111.15422821044922 111.59903717041016H115.0923080444336L115.13378143310547 111.59904479980469H115.14053344726562L115.14795684814453 111.59903717041016H186.55950927734375L188.99365234375 111.40751647949219C190.03823852539062 111.28952026367188 191.11123657226562 111.20893096923828 192.2127227783203 111.16773223876953L194.1792449951172 111.1109390258789C195.27084350585938 111.031494140625 196.39157104492188 110.99402618408203 197.54144287109375 111.00077819824219L201.5986785888672 111.04598236083984C202.10488891601562 111.04052734375 202.61683654785156 111.04393768310547 203.134521484375 111.05642700195312L207.37857055664062 111.15206909179688C207.6641387939453 111.15447998046875 207.9514923095703 111.15968322753906 208.24063110351562 111.16773223876953L213.0823974609375 111.33468627929688L213.25401306152344 111.33979034423828L216.8250274658203 111.44599151611328C216.87371826171875 111.4472885131836 216.92236328125 111.44865417480469 216.970947265625 111.45010375976562L220.19200134277344 111.50164794921875C220.31199645996094 111.50454711914062 220.43165588378906 111.50791931152344 220.55099487304688 111.51175689697266L222.15374755859375 111.54338836669922H223.20213317871094C223.412841796875 111.54187774658203 223.62454223632812 111.5418701171875 223.8372344970703 111.54338836669922H224.171142578125C224.29307556152344 111.54546356201172 224.41465759277344 111.54803466796875 224.53590393066406 111.55108642578125L226.72164916992188 111.5751724243164C228.07469177246094 111.53266143798828 229.46926879882812 111.55769348144531 230.9051055908203 111.65469360351562L233.80502319335938 111.85537719726562C234.5147247314453 111.89031982421875 235.23455810546875 111.94386291503906 235.96446228027344 112.01659393310547C236.48397827148438 112.06461334228516 236.9966583251953 112.12138366699219 237.5024871826172 112.18669128417969L241.5625457763672 112.64252471923828C241.8331298828125 112.67106628417969 242.10182189941406 112.70188903808594 242.36862182617188 112.73497009277344L246.627685546875 113.1641845703125L249.57907104492188 113.39382934570312H250.68238830566406C251.3111572265625 113.37996673583984 251.94891357421875 113.37983703613281 252.59564208984375 113.39382934570312L257.7574157714844 113.50513458251953C258.46337890625 113.52130889892578 259.1578674316406 113.55387115478516 259.8409118652344 113.60230255126953L263.0861511230469 113.6720962524414C263.2861328125 113.67790985107422 263.4851989746094 113.68502807617188 263.683349609375 113.69344329833984L268.1365966796875 113.83905029296875C268.1683044433594 113.83985137939453 268.20001220703125 113.84069061279297 268.231689453125 113.84156036376953L272.324462890625 113.88079071044922C272.4103698730469 113.88257598876953 272.4960632324219 113.88459777832031 272.5816345214844 113.8868637084961L276.4983825683594 113.93643951416016C276.6022644042969 113.93795013427734 276.70587158203125 113.9398193359375 276.80926513671875 113.9420394897461L281.4514465332031 113.99209594726562C281.597412109375 113.99336242675781 281.7428894042969 113.99533081054688 281.8879089355469 113.99800109863281L286.5019226074219 114.04774475097656H297.0266418457031C298.2453308105469 113.99533081054688 299.497802734375 113.99986267089844 300.78363037109375 114.06478881835938C302.4159240722656 114.11026000976562 303.9867248535156 114.24616241455078 305.49609375 114.46569061279297L307.42724609375 114.64601135253906C308.1128845214844 114.71267700195312 308.7864990234375 114.7940673828125 309.4481506347656 114.88970184326172L312.15771484375 115.1886215209961C312.3978271484375 115.2181625366211 312.63641357421875 115.24947357177734 312.87347412109375 115.28253936767578L315.8446960449219 115.61992645263672C316.08612060546875 115.64871978759766 316.32598876953125 115.67931365966797 316.5643310546875 115.7116928100586L317.7257080078125 115.80968475341797C318.1380920410156 115.83796691894531 318.5537109375 115.87298583984375 318.97247314453125 115.91487884521484L319.43426513671875 115.95384216308594C321.4096374511719 116.13610076904297 323.28582763671875 116.44110107421875 325.06390380859375 116.85731506347656L325.1271667480469 116.86817932128906L325.6293029785156 116.91839599609375L327.2196044921875 116.96350860595703L330.2586669921875 116.87210845947266C330.731201171875 116.8646469116211 331.1988830566406 116.8647232055664 331.6617431640625 116.87217712402344L333.3406066894531 116.82168579101562C334.9175109863281 116.68304443359375 336.55474853515625 116.6406021118164 338.2516784667969 116.70223999023438C340.02569580078125 116.71910858154297 341.7292175292969 116.84579467773438 343.3619689941406 117.0733642578125C343.9496154785156 117.10491943359375 344.544189453125 117.14903259277344 345.1457214355469 117.20602416992188L350.4187927246094 117.69298553466797C350.7634582519531 117.72563934326172 351.1050720214844 117.76203155517578 351.4436950683594 117.80207824707031L354.6468200683594 118.05156707763672C354.7398986816406 118.05695343017578 354.83319091796875 118.0626449584961 354.9266357421875 118.06864166259766L358.9805908203125 118.35894775390625C359.3287658691406 118.36920166015625 359.6794738769531 118.38371276855469 360.0327453613281 118.40254974365234L362.3699951171875 118.54058074951172C362.55023193359375 118.54446411132812 362.73114013671875 118.54946899414062 362.9127502441406 118.55559539794922L367.8101806640625 118.7225570678711C368.00494384765625 118.7293701171875 368.19879150390625 118.73741912841797 368.3917541503906 118.74669647216797L370.5767517089844 118.7914047241211C371.8447570800781 118.76373291015625 373.14874267578125 118.79524230957031 374.48846435546875 118.88951110839844L378.1893615722656 119.15386199951172C379.0939636230469 119.21869659423828 379.9783630371094 119.30960845947266 380.8426513671875 119.42548370361328L384.7146301269531 119.80777740478516C385.4186706542969 119.88040924072266 386.10992431640625 119.96849822998047 386.7884521484375 120.07151794433594L388.5033264160156 120.25729370117188C388.6683044433594 120.26880645751953 388.83380126953125 120.28128814697266 388.9998474121094 120.29473876953125L393.18426513671875 120.64434814453125L395.3074645996094 120.7496337890625L396.05633544921875 120.7231216430664C396.3502197265625 120.70730590820312 396.6462097167969 120.6943588256836 396.9442443847656 120.6843032836914L400.1442565917969 120.572998046875C401.14752197265625 120.53915405273438 402.1295471191406 120.5396499633789 403.09027099609375 120.572998046875H403.1908264160156C403.9566650390625 120.5521469116211 404.7359313964844 120.55189514160156 405.52862548828125 120.572998046875L409.4886169433594 120.66325378417969C409.8492736816406 120.66574096679688 410.2127685546875 120.67273712158203 410.5791015625 120.6843032836914L414.2799987792969 120.79560852050781C414.81097412109375 120.8128662109375 415.33538818359375 120.83934783935547 415.8532409667969 120.87480926513672L416.6603088378906 120.89402770996094C417.3995361328125 120.89048767089844 418.150390625 120.90811157226562 418.912841796875 120.9476547241211L418.9548034667969 120.94865417480469C421.044677734375 121.0172348022461 423.0325622558594 121.22847747802734 424.91888427734375 121.56880187988281L426.6070251464844 121.76953125C427.4680480957031 121.87840270996094 428.3093566894531 122.01004028320312 429.1310729980469 122.16350555419922L431.8244323730469 122.57648468017578C432.1090087890625 122.62105560302734 432.39129638671875 122.66808319091797 432.6713562011719 122.717529296875C432.9349670410156 122.74217987060547 433.1999206542969 122.76936340332031 433.4661865234375 122.7990951538086L435.0580139160156 122.99736785888672C436.60272216796875 123.107666015625 438.19195556640625 123.31298065185547 439.824462890625 123.6199722290039L443.9010314941406 124.37127685546875C444.1141662597656 124.41142272949219 444.32598876953125 124.45291900634766 444.5364990234375 124.4957504272461L447.86627197265625 125.08084869384766L447.9287109375 125.0919418334961L450.5793151855469 125.51215362548828Q450.736083984375 125.5364990234375 450.8919677734375 125.56182098388672L451.0899963378906 125.58547973632812C451.2439270019531 125.59729766845703 451.3983459472656 125.60995483398438 451.55322265625 125.62345886230469L454.0157775878906 125.85986328125L456.4655456542969 126.01171112060547L456.5063171386719 126.01303100585938L457.527099609375 126.05207824707031C457.8340148925781 126.04975128173828 458.14300537109375 126.0506362915039 458.4541320800781 126.05477142333984L461.7237243652344 126.11042022705078H466.4305725097656C466.9361572265625 126.10136413574219 467.4474792480469 126.10153198242188 467.9643859863281 126.11114501953125C469.0508117675781 126.11775970458984 470.1108093261719 126.16398620605469 471.1443786621094 126.24791717529297C471.8460998535156 126.27297973632812 472.55780029296875 126.3167724609375 473.27947998046875 126.37987518310547C474.4514465332031 126.46343231201172 475.58966064453125 126.59169006347656 476.6942138671875 126.76216888427734L478.1412048339844 126.9312973022461C478.7484130859375 127.00817108154297 479.3457946777344 127.09639739990234 479.93341064453125 127.19564056396484H480.7371520996094L481.6493835449219 127.1607437133789L485.1094970703125 126.93327331542969L485.1394958496094 126.9312973022461L489.06298828125 126.65303039550781C489.8058166503906 126.60438537597656 490.5375671386719 126.57503509521484 491.2581787109375 126.56436920166016L491.625732421875 126.54529571533203C492.4025573730469 126.47239685058594 493.1946716308594 126.41992950439453 494.0021667480469 126.38867950439453L497.2160949707031 126.27737426757812C497.7546691894531 126.2572021484375 498.2871398925781 126.2469482421875 498.81353759765625 126.24638366699219L499.06793212890625 126.2396240234375C500.286376953125 126.15151977539062 501.5398864746094 126.12108612060547 502.82806396484375 126.1519546508789C505.0163269042969 126.14553833007812 507.0989990234375 126.30419158935547 509.07562255859375 126.61164093017578L510.197021484375 126.70868682861328C511.1147766113281 126.79563903808594 512.0110473632812 126.90901947021484 512.885986328125 127.04766845703125L514.7747192382812 127.28292083740234L515.3091430664062 127.31712341308594C516.7471313476562 127.23609924316406 518.2339477539062 127.23091888427734 519.7692260742188 127.30694580078125L523.9988403320312 127.52955627441406C524.6808471679688 127.56336975097656 525.3516845703125 127.61223602294922 526.011474609375 127.67567443847656L527.8050537109375 127.80574035644531C528.0240478515625 127.81864166259766 528.2440185546875 127.833251953125 528.4649658203125 127.84956359863281L529.791015625 127.96549987792969C530.1075439453125 127.97895050048828 530.4260864257812 127.99594116210938 530.7467041015625 128.01651000976562L533.8910522460938 128.23912048339844C534.0367431640625 128.24864196777344 534.1818237304688 128.25885009765625 534.3264770507812 128.2697296142578L536.3397827148438 128.33651733398438C536.5752563476562 128.34854125976562 536.8093872070312 128.3623504638672 537.0421752929688 128.3779296875C537.4398803710938 128.37718200683594 537.8411254882812 128.38189697265625 538.245849609375 128.3921661376953L539.9849853515625 128.4478302001953C540.4021606445312 128.4589385986328 540.8153686523438 128.4757537841797 541.2244873046875 128.4981689453125L541.3902587890625 128.50347900390625H547.1177978515625L547.27392578125 128.47816467285156L549.5433349609375 128.07217407226562C549.8715209960938 128.01036071777344 550.1980590820312 127.95269012451172 550.5227661132812 127.8990707397461C551.60498046875 127.65667724609375 552.7230834960938 127.45301818847656 553.8775024414062 127.29048156738281C554.2537841796875 127.23385620117188 554.627685546875 127.18263244628906 554.9992065429688 127.1367416381836L555.1517333984375 127.11585998535156C555.7598266601562 127.02042388916016 556.3782348632812 126.93730163574219 557.0068969726562 126.86688232421875C557.9305419921875 126.75491333007812 558.8387451171875 126.67430114746094 559.731201171875 126.62382507324219L561.2303466796875 126.49998474121094C562.0325317382812 126.42979431152344 562.8222045898438 126.38236999511719 563.5994262695312 126.35692596435547L565.5851440429688 126.22172546386719C566.4584350585938 126.1729965209961 567.316162109375 126.1507339477539 568.1582641601562 126.15393829345703L569.3277587890625 126.11042022705078C569.8037719726562 126.0949478149414 570.2749633789062 126.08721160888672 570.7413940429688 126.0870361328125L572.0964965820312 126.05477142333984C572.358154296875 126.04975891113281 572.6182861328125 126.04705047607422 572.876953125 126.04662322998047L573.3688354492188 126.036376953125C573.7103271484375 126.02522277832031 574.054443359375 126.01802825927734 574.4013671875 126.0148696899414L574.4895629882812 126.01303100585938C574.7490234375 126.01078796386719 575.0069580078125 126.01079559326172 575.2634887695312 126.01303100585938H576.7716064453125L576.8269653320312 126.01292419433594C576.882568359375 126.01285552978516 576.9381713867188 126.01289367675781 576.993896484375 126.01303100585938L577.0087280273438 126.01339721679688C577.591064453125 126.0157470703125 578.1658935546875 126.02942657470703 578.7330322265625 126.05413055419922L578.7477416992188 126.05477142333984H581.36865234375C584.5078125 125.56705474853516 587.8172607421875 125.563232421875 591.2495727539062 126.13429260253906C592.1611938476562 126.21965026855469 593.0728759765625 126.34642791748047 593.982421875 126.51626586914062C594.0325317382812 126.51618957519531 594.082763671875 126.5162124633789 594.1329345703125 126.5163345336914C596.2477416992188 126.45935821533203 598.2763061523438 126.58790588378906 600.2145385742188 126.88304901123047C601.7826538085938 127.06472778320312 603.287841796875 127.33882904052734 604.729736328125 127.69767761230469C606.6369018554688 128.01370239257812 608.588134765625 128.5013427734375 610.57666015625 129.17552185058594C613.7180786132812 130.07720947265625 616.5279541015625 131.29444885253906 619.0181884765625 132.76785278320312L619.22021484375 132.8582763671875C619.3489990234375 132.917236328125 619.4771118164062 132.97662353515625 619.6044921875 133.0364227294922L620.416748046875 133.40089416503906C620.4629516601562 133.4222412109375 620.5090942382812 133.44363403320312 620.5551147460938 133.465087890625C620.7821655273438 133.56639099121094 621.0097045898438 133.6702117919922 621.2376098632812 133.77655029296875L621.3693237304688 133.8546142578125C621.4254760742188 133.8822021484375 621.4815063476562 133.9098663330078 621.5372924804688 133.93756103515625C621.5811767578125 133.95799255371094 621.6250610351562 133.97853088378906 621.6689453125 133.99916076660156L621.8358764648438 134.0548095703125C662.1484985351562 153.00518798828125 634.4317016601562 213.1172332763672 594.28173828125 195.65269470214844C594.0137329101562 195.5405731201172 593.7451171875 195.4250030517578 593.4760131835938 195.30593872070312L593.4066772460938 195.27676391601562C593.3064575195312 195.28370666503906 593.2060546875 195.2902069091797 593.10546875 195.29624938964844C591.5531005859375 195.44064331054688 589.9598999023438 195.46832275390625 588.3307495117188 195.36903381347656C586.201416015625 195.32742309570312 584.1576538085938 195.08396911621094 582.2061767578125 194.66094970703125C580.664794921875 194.4010467529297 579.1280517578125 194.0185546875 577.6060791015625 193.5055694580078H573.4599609375L572.1988525390625 193.5355987548828C571.9849853515625 193.545654296875 571.7699584960938 193.55419921875 571.5538940429688 193.56121826171875L568.5208129882812 193.67251586914062C568.3309326171875 193.67868041992188 568.1417846679688 193.68362426757812 567.9534301757812 193.68734741210938L567.1573486328125 193.72817993164062L564.9304809570312 193.91213989257812L563.6322631835938 194.0857391357422L562.9625854492188 194.2006378173828C562.6614990234375 194.26388549804688 562.3577270507812 194.3243865966797 562.0512084960938 194.38209533691406L559.70703125 194.79954528808594C559.4887084960938 194.84201049804688 559.2689819335938 194.88294982910156 559.0478515625 194.92237854003906C556.6915893554688 195.5006866455078 554.1642456054688 195.86138916015625 551.4658203125 195.97286987304688C549.6461791992188 196.1084442138672 547.8898315429688 196.1173858642578 546.1983032226562 196.00991821289062H544.4371948242188L544.3814697265625 196.00990295410156L544.270263671875 196.00991821289062L544.2589111328125 196.0095672607422C543.5701904296875 196.0068359375 542.89208984375 195.9882354736328 542.2245483398438 195.9542694091797H541.7586059570312C541.2611083984375 195.96286010742188 540.7579956054688 195.96292114257812 540.2493286132812 195.9542694091797L540.0338134765625 195.94737243652344C539.6998291015625 195.9404754638672 539.368408203125 195.9298553466797 539.0394897460938 195.91555786132812L538.9072875976562 195.9113311767578C538.6878662109375 195.90875244140625 538.4674072265625 195.90452575683594 538.245849609375 195.89862060546875H536.5067138671875C535.8825073242188 195.8820037841797 535.267333984375 195.85263061523438 534.6611328125 195.81082153320312L533.515380859375 195.7873077392578C532.8745727539062 195.76492309570312 532.2433471679688 195.72915649414062 531.6217041015625 195.68043518066406L530.037109375 195.620361328125C529.3672485351562 195.5863494873047 528.7081298828125 195.5378875732422 528.0596923828125 195.4753875732422L527.5592651367188 195.4407196044922C527.0684814453125 195.42115783691406 526.5726318359375 195.39297485351562 526.0718994140625 195.3560028076172L523.5119018554688 195.13339233398438C523.4566650390625 195.1293182373047 523.4015502929688 195.12515258789062 523.3464965820312 195.12088012695312L519.8805541992188 194.92469787597656C519.6405029296875 194.90721130371094 519.4019165039062 194.8878936767578 519.1646728515625 194.8667755126953L517.5254516601562 194.8020782470703C515.7374267578125 194.91200256347656 513.8740844726562 194.90084838867188 511.9361572265625 194.7577362060547L511.9201354980469 194.75645446777344C511.2171630859375 194.7183837890625 510.52593994140625 194.6628875732422 509.84649658203125 194.59056091308594L509.8289794921875 194.5891571044922C509.0716552734375 194.54832458496094 508.302978515625 194.48573303222656 507.52313232421875 194.40061950683594C506.697509765625 194.3221435546875 505.8892822265625 194.2216796875 505.0983581542969 194.10006713867188L502.5865478515625 193.78382873535156C502.49395751953125 193.7714080810547 502.4015808105469 193.7587432861328 502.3094482421875 193.7458038330078L501.44549560546875 193.67198181152344L500.4803466796875 193.6976318359375C500.26068115234375 193.70941162109375 500.0398254394531 193.71958923339844 499.8178405761719 193.72817993164062L497.6863708496094 193.80230712890625C497.47503662109375 193.816162109375 497.26263427734375 193.82855224609375 497.04913330078125 193.8394775390625L492.97259521484375 194.0481719970703C492.7270202636719 194.06063842773438 492.4826965332031 194.07101440429688 492.2396240234375 194.079345703125L490.0623779296875 194.23431396484375C489.89227294921875 194.24740600585938 489.72149658203125 194.2595672607422 489.5499572753906 194.27078247070312L485.584716796875 194.53514099121094C484.879150390625 194.58126831054688 484.1835632324219 194.61004638671875 483.4980163574219 194.6219940185547C482.7046203613281 194.67091369628906 481.8960266113281 194.69781494140625 481.07220458984375 194.7018585205078C479.15093994140625 194.83416748046875 477.1453857421875 194.81607055664062 475.05792236328125 194.63243103027344C472.862548828125 194.50723266601562 470.78271484375 194.2161407470703 468.8183898925781 193.7765655517578L467.9798889160156 193.67813110351562L466.8668518066406 193.6168670654297H464.436767578125C464.37408447265625 193.61721801757812 464.31134033203125 193.6171417236328 464.24847412109375 193.616943359375L464.22808837890625 193.6168670654297H461.9331970214844C461.54217529296875 193.62213134765625 461.1477355957031 193.62216186523438 460.74981689453125 193.6168670654297L458.71337890625 193.58221435546875C458.09295654296875 193.5887908935547 457.46392822265625 193.5819091796875 456.8262939453125 193.56121826171875L455.57720947265625 193.50538635253906C454.9538879394531 193.5007781982422 454.3221435546875 193.48240661621094 453.68194580078125 193.4499053955078L451.9296569824219 193.33993530273438C451.01031494140625 193.31985473632812 450.07318115234375 193.26882934570312 449.1184387207031 193.18556213378906L447.3857421875 193.0192108154297C446.38763427734375 192.96438598632812 445.3697509765625 192.8719940185547 444.33233642578125 192.74034118652344L442.5758361816406 192.50047302246094C441.7951354980469 192.4230499267578 441.0032043457031 192.3223876953125 440.20013427734375 192.19772338867188L436.7774963378906 191.65512084960938C436.3082275390625 191.5821990966797 435.8450622558594 191.5026092529297 435.3879699707031 191.41648864746094L433.20751953125 191.0391082763672C432.60882568359375 190.95236206054688 432.0040283203125 190.8517303466797 431.39312744140625 190.73684692382812L428.0234375 190.1043243408203L427.55419921875 190.05010986328125C426.70941162109375 189.98178100585938 425.85101318359375 189.8863983154297 424.97918701171875 189.762939453125L423.2199401855469 189.5093536376953C422.6164245605469 189.4408416748047 422.00628662109375 189.35853576660156 421.38958740234375 189.26205444335938L417.2156677246094 188.62205505371094C417.0708923339844 188.5994110107422 416.92669677734375 188.5761260986328 416.7831115722656 188.55221557617188L414.9670104980469 188.33627319335938L412.09564208984375 188.2324981689453L410.1957702636719 188.17425537109375C410.2139892578125 188.31642150878906 410.23138427734375 188.458251953125 410.24798583984375 188.5997314453125L410.85736083984375 192.6429443359375C410.9283142089844 193.11973571777344 410.9908142089844 193.59254455566406 411.0450744628906 194.06137084960938L411.4450378417969 196.75729370117188C411.48248291015625 196.97523498535156 411.51849365234375 197.1945037841797 411.5530090332031 197.41514587402344L412.22039794921875 201.78350830078125L413.2921447753906 207.15432739257812C413.4108581542969 207.7410125732422 413.5162353515625 208.322265625 413.6086730957031 208.89801025390625L414.11712646484375 211.5642852783203C414.3479919433594 212.5630340576172 414.5466613769531 213.59266662597656 414.7113037109375 214.65350341796875L415.2337646484375 218.09564208984375C415.25958251953125 218.23236083984375 415.2848815917969 218.36962890625 415.3095703125 218.50743103027344L416.1606140136719 223.45005798339844L416.17218017578125 223.5022430419922L417.22637939453125 228.390869140625L418.947021484375 233.6489715576172L418.9548034667969 233.6727294921875L418.9768981933594 233.74034118652344L420.4136047363281 238.13783264160156C420.750244140625 239.0439910888672 421.0621337890625 239.9810028076172 421.34783935546875 240.9492950439453L422.85498046875 246.1704559326172C423.17718505859375 247.16818237304688 423.4684753417969 248.2009735107422 423.72698974609375 249.2693328857422L423.75421142578125 249.3822784423828C423.8161926269531 249.62962341308594 423.8756408691406 249.8761444091797 423.9325256347656 250.12181091308594L425.03619384765625 254.69900512695312C425.3489990234375 255.816650390625 425.6207275390625 256.97589111328125 425.8486328125 258.17718505859375C426.0158386230469 258.9918518066406 426.1564025878906 259.79644775390625 426.2712097167969 260.59075927734375L427.1175537109375 265.4958801269531C427.18804931640625 265.8616943359375 427.25439453125 266.2314147949219 427.31658935546875 266.6050720214844L428.3044128417969 272.4764099121094C428.4436950683594 273.3122863769531 428.5566711425781 274.1363525390625 428.6443176269531 274.948486328125L429.35284423828125 279.8130187988281C429.3846130371094 279.99151611328125 429.4154357910156 280.1709289550781 429.4452819824219 280.35125732421875L430.4703063964844 286.74310302734375L430.474853515625 286.76519775390625L431.7977600097656 293.35540771484375L432.75677490234375 297.488037109375C432.9896240234375 298.3682556152344 433.19720458984375 299.2737121582031 433.37823486328125 300.20458984375C433.5882568359375 301.2021484375 433.7584533691406 302.1847229003906 433.89044189453125 303.1517639160156L434.7576599121094 308.2743225097656L434.7601013183594 308.2887878417969L435.7507629394531 314.0567321777344C435.9161071777344 314.8869934082031 436.0592956542969 315.7376403808594 436.1792297363281 316.60882568359375L437.08880615234375 323.1576843261719L437.9131774902344 328.4557189941406C438.05706787109375 329.179931640625 438.1842346191406 329.9196472167969 438.2940368652344 330.67498779296875L438.8653259277344 334.65325927734375C439.0094299316406 335.5003967285156 439.13006591796875 336.367919921875 439.2261962890625 337.2558898925781L439.8721618652344 343.1698303222656C439.9875183105469 344.0218505859375 440.0786437988281 344.8934020996094 440.14447021484375 345.7846374511719L440.607421875 352.2773742675781C440.66461181640625 352.8773193359375 440.7098083496094 353.4864196777344 440.74273681640625 354.10467529296875L440.968017578125 358.6329650878906C441.0126647949219 359.2520751953125 441.04437255859375 359.880615234375 441.062744140625 360.51861572265625L441.28533935546875 368.3934631347656C441.29998779296875 368.91949462890625 441.3052062988281 369.43963623046875 441.3013000488281 369.9538879394531L441.39666748046875 376.2821960449219C441.4009094238281 376.57305908203125 441.40228271484375 376.8620910644531 441.4008483886719 377.1492919921875L441.4523010253906 383.8926696777344C441.4521179199219 383.9334411621094 441.4521789550781 383.9742126464844 441.4522705078125 384.0150451660156L441.4523010253906 384.04571533203125V389.2082214355469L441.452392578125 389.3744201660156L441.4523010253906 389.4300842285156L441.4522705078125 389.43304443359375L441.4388732910156 390.466552734375L441.39666748046875 393.729248046875V404.4459533691406L441.4825134277344 406.06097412109375C441.5589294433594 406.99755859375 441.6050109863281 407.95599365234375 441.6192626953125 408.936279296875L441.619873046875 409.02081298828125C441.6300964355469 409.4689636230469 441.63323974609375 409.912841796875 441.6294250488281 410.3524475097656L441.65069580078125 413.3150329589844L441.8937683105469 416.8355712890625C442.0574645996094 418.26324462890625 442.1485900878906 419.7438049316406 442.161865234375 421.2772216796875L442.20751953125 425.9549865722656C442.2237243652344 426.5623474121094 442.2271728515625 427.1781921386719 442.217529296875 427.8024597167969L442.2142028808594 427.9290771484375C442.209228515625 428.2786865234375 442.2001037597656 428.6255187988281 442.1869201660156 428.9696044921875L442.1296081542969 431.15509033203125C442.1302490234375 431.6461486816406 442.1225280761719 432.14251708984375 442.1062316894531 432.64422607421875L441.9560241699219 437.77606201171875C441.9519348144531 437.9845275878906 441.94635009765625 438.1939392089844 441.93927001953125 438.4042663574219L441.7166442871094 443.8860168457031Q441.709228515625 444.0980224609375 441.69989013671875 444.3086242675781L441.5636291503906 449.10345458984375C441.56201171875 449.1586608886719 441.560302734375 449.2137756347656 441.5585021972656 449.2688293457031L441.5079650878906 453.513916015625C441.50213623046875 453.76812744140625 441.4941711425781 454.0208740234375 441.484130859375 454.2721252441406L441.39666748046875 458.0774230957031C441.3953552246094 458.1683654785156 441.39373779296875 458.2591552734375 441.3918762207031 458.3497314453125L441.36395263671875 461.23974609375C441.4069519042969 462.53143310546875 441.38702392578125 463.86077880859375 441.3001708984375 465.2274475097656C441.26007080078125 466.1421203613281 441.1914978027344 467.0369873046875 441.0957336425781 467.9120788574219L440.79840087890625 471.7679138183594C440.7348937988281 472.5057678222656 440.6542053222656 473.22991943359375 440.5569152832031 473.9404296875L440.4670715332031 474.8562927246094L440.43084716796875 478.8128662109375L440.5757751464844 484.3731994628906C440.5861511230469 484.8035888671875 440.59027099609375 485.23004150390625 440.5882263183594 485.6524963378906L440.7300109863281 489.2154846191406L440.74273681640625 489.53497314453125L440.7495422363281 489.7280578613281L440.9096984863281 494.26544189453125C440.9225769042969 494.60931396484375 440.931396484375 494.95068359375 440.9362487792969 495.2895812988281L441.062744140625 499.1072082519531C441.07763671875 499.5783386230469 441.0849304199219 500.04473876953125 441.0848388671875 500.5064392089844L441.14434814453125 503.4162292480469L441.51171875 507.40618896484375L441.6324768066406 508.5162658691406C441.9197692871094 510.26092529296875 442.0963439941406 512.0902099609375 442.15167236328125 514.00439453125C442.18939208984375 514.7869262695312 442.2043762207031 515.5572509765625 442.1974182128906 516.3150634765625L442.25885009765625 519.6011962890625L442.25946044921875 519.6109619140625L442.40948486328125 521.9788208007812C442.43634033203125 522.2693481445312 442.4604797363281 522.56201171875 442.48187255859375 522.8568725585938L442.77850341796875 526.8448486328125L443.0213623046875 528.7113647460938L443.5047912597656 531.6294555664062C443.6309814453125 532.2598876953125 443.7446594238281 532.9020385742188 443.8453674316406 533.5560913085938L444.3985290527344 537.1959838867188C444.4794006347656 537.6763305664062 444.5528259277344 538.1632690429688 444.61859130859375 538.6566772460938C444.7003173828125 539.2313842773438 444.7696533203125 539.8002319335938 444.82696533203125 540.36328125L445.1318359375 542.9038696289062L445.24285888671875 543.8292236328125L445.2505798339844 543.8934936523438C445.3549499511719 544.7966918945312 445.4297790527344 545.6847534179688 445.47625732421875 546.5576782226562L445.69580078125 549.3753051757812C445.7607421875 550.189697265625 445.80230712890625 550.9910888671875 445.82135009765625 551.7793579101562L445.8821716308594 552.84716796875L446.07696533203125 554.6002807617188C446.2923278808594 555.9622802734375 446.44140625 557.375732421875 446.5193176269531 558.8406982421875C446.5975036621094 559.9013671875 446.63409423828125 560.9401245117188 446.6310119628906 561.956787109375L446.6969909667969 563.9584350585938L446.93408203125 567.3649291992188C446.943115234375 567.4932861328125 446.9515686035156 567.6212768554688 446.9594421386719 567.7489624023438L447.3793029785156 572.2623901367188C447.4542236328125 573.146484375 447.5014953613281 574.0152587890625 447.5221862792969 574.8688354492188L447.63092041015625 576.439453125L448.35321044921875 581.8763427734375C448.4435729980469 582.5565795898438 448.5169982910156 583.2284545898438 448.573974609375 583.8920288085938L448.62548828125 584.368896484375C448.7688903808594 585.3748168945312 448.87811279296875 586.4082641601562 448.95147705078125 587.4694213867188L449.1741027832031 590.516357421875C449.2087707519531 591.0203857421875 449.2345886230469 591.5193481445312 449.251708984375 592.0132446289062L449.3827819824219 593.8833618164062C449.392333984375 594.0474853515625 449.40093994140625 594.2111206054688 449.40863037109375 594.3741455078125L449.43768310546875 594.7774047851562C449.5048522949219 595.3609008789062 449.5608825683594 595.9533081054688 449.60540771484375 596.5546875L449.9306945800781 601.2169189453125C450.1568908691406 602.4415893554688 450.33087158203125 603.7096557617188 450.4490966796875 605.021240234375C450.56060791015625 606.0819702148438 450.6304931640625 607.1217651367188 450.66064453125 608.1404418945312L450.7409973144531 609.4191284179688C450.8492431640625 610.4464721679688 450.9211730957031 611.5009155273438 450.9549560546875 612.5825805664062L451.02899169921875 616.0520629882812C451.08349609375 616.8734130859375 451.1147766113281 617.7111206054688 451.1219177246094 618.5652465820312L451.1775817871094 623.8383178710938C451.1791076660156 624.0513305664062 451.1791076660156 624.2633666992188 451.1775817871094 624.474365234375V627.51318359375L451.17840576171875 627.8591918945312C451.17828369140625 627.9286499023438 451.1780090332031 627.9982299804688 451.1775817871094 628.06787109375L451.1226806640625 633.11865234375L451.1219177246094 633.1879272460938L451.1215515136719 633.2435913085938L451.06689453125 638.3496704101562L451.0662841796875 638.4053344726562V643.455810546875C451.06475830078125 643.6691284179688 451.0617370605469 643.8814697265625 451.0572204589844 644.0927734375L451.01141357421875 647.3097534179688L451.0106201171875 647.3653564453125V653.0140991210938C451.00787353515625 653.6087036132812 450.99334716796875 654.1954345703125 450.9674377441406 654.7742309570312L450.9549560546875 655.2958374023438V704.1836547851562L451.34454345703125 708.4022216796875C451.36737060546875 708.6568603515625 451.3879089355469 708.91015625 451.4061584472656 709.1622924804688L451.6158447265625 711.0118408203125C451.6982421875 711.580078125 451.7702331542969 712.1571655273438 451.83148193359375 712.7431030273438L452.18951416015625 716.3027954101562C452.2607727050781 716.847412109375 452.3223876953125 717.3999633789062 452.3741149902344 717.9605102539062L452.52587890625 719.7742919921875C452.6217956542969 720.5675659179688 452.69671630859375 721.37744140625 452.749755859375 722.2040405273438L452.9364929199219 725.1546630859375C453.00250244140625 725.8605346679688 453.0517578125 726.5790405273438 453.08367919921875 727.3101806640625L453.2367248535156 731.38671875C453.2686767578125 732.1188354492188 453.2822265625 732.8397827148438 453.2779235839844 733.5496215820312L453.3480224609375 736.1171264648438Q453.3592529296875 736.5821533203125 453.3607482910156 737.0408935546875L453.4036865234375 739.2197875976562C453.4111328125 739.691162109375 453.41107177734375 740.1576538085938 453.4036865234375 740.619384765625L453.40338134765625 743.4493408203125C453.4035949707031 743.5049438476562 453.4036865234375 743.5606079101562 453.4036865234375 743.6163330078125V747.3053588867188L453.40380859375 747.4285278320312L453.4037170410156 747.51611328125L453.4036865234375 747.5259399414062V748.0611572265625C453.4552917480469 749.1149291992188 453.46405029296875 750.1941528320312 453.427734375 751.298583984375C456.20684814453125 757.3406982421875 457.1753234863281 764.2238159179688 455.4981689453125 771.3038940429688C455.13140869140625 772.9755249023438 454.6162109375 774.6517333984375 453.9414978027344 776.3223876953125C453.3457946777344 777.8765869140625 452.6106872558594 779.41845703125 451.7273864746094 780.9380493164062C451.1438293457031 782.0013427734375 450.4879455566406 783.047607421875 449.7568359375 784.0726318359375C447.16058349609375 788.17041015625 443.48822021484375 791.7776489257812 438.63458251953125 794.5277099609375C433.10833740234375 798.3139038085938 426.42681884765625 800.431640625 419.08978271484375 799.9260864257812C417.9983825683594 799.885009765625 416.92059326171875 799.7847900390625 415.8588562011719 799.6289672851562C411.048828125 799.1841430664062 406.728271484375 797.7012329101562 402.9726867675781 795.4577026367188C400.35552978515625 793.9385375976562 397.88787841796875 791.9774169921875 395.64898681640625 789.5375366210938C395.259765625 789.1537475585938 394.8789367675781 788.7572631835938 394.507080078125 788.3480834960938C389.3102722167969 783.025146484375 386.59100341796875 776.6636962890625 385.8838806152344 770.1503295898438C385.279541015625 767.1008911132812 385.1177978515625 764.1541137695312 385.33843994140625 761.3382568359375C385.3364562988281 761.2843627929688 385.3345947265625 761.23046875 385.33282470703125 761.1764526367188L385.3128662109375 760.7433471679688C385.2831726074219 759.8378295898438 385.28143310546875 758.9495849609375 385.3065490722656 758.0787353515625C385.29449462890625 756.8684692382812 385.33795166015625 755.6260986328125 385.4401550292969 754.3521118164062C385.5021667480469 753.29736328125 385.6021728515625 752.2692260742188 385.73828125 751.2678833007812L385.8554992675781 750.0859375C385.88128662109375 749.8267822265625 385.9092102050781 749.5693969726562 385.9391784667969 749.313720703125L385.966796875 749.0404052734375V743.8389282226562L385.9111328125 739.9293212890625C385.9085693359375 739.4108276367188 385.9150085449219 738.8983154296875 385.9302062988281 738.3917236328125L385.9264831542969 738.2033081054688C385.92041015625 738.0326538085938 385.915283203125 737.861328125 385.9111328125 737.6893310546875L385.8387451171875 735.07373046875C385.82373046875 734.8247680664062 385.8107604980469 734.5743408203125 385.7998352050781 734.3223876953125L385.63287353515625 730.190185546875C385.6269226074219 730.0540161132812 385.6216125488281 729.9182739257812 385.616943359375 729.7828979492188L385.4761962890625 727.5869750976562L385.4659118652344 727.4771118164062L385.14593505859375 724.165771484375C385.1168212890625 723.850341796875 385.0912780761719 723.536865234375 385.0692138671875 723.2252807617188L384.7146301269531 719.6996459960938Q384.68707275390625 719.4359130859375 384.6628112792969 719.1739501953125L384.1719970703125 715.2474975585938C384.0762939453125 714.4022216796875 384.00634765625 713.5702514648438 383.9612731933594 712.7515869140625L383.808837890625 711.1052856445312C383.7225646972656 710.3858642578125 383.6549987792969 709.6530151367188 383.6067810058594 708.9066162109375C383.43939208984375 706.9090576171875 383.4138488769531 704.9891357421875 383.5180969238281 703.1478271484375V655.142822265625L383.5181884765625 655.087158203125L383.5180969238281 653.0857543945312V652.805419921875C383.5181579589844 652.786865234375 383.5182189941406 652.768310546875 383.5180969238281 652.749755859375V650.5792846679688L383.5184020996094 650.523681640625L383.51812744140625 647.494384765625L383.5180969238281 646.98974609375L383.5184631347656 646.93408203125L383.5263671875 646.3531494140625L383.57373046875 643.0244750976562L383.5785827636719 642.5767822265625L383.62847900390625 637.9883422851562L383.62939453125 637.9044799804688L383.6296691894531 637.8627319335938L383.6294250488281 633.3013916015625L383.62939453125 632.74267578125V632.68701171875L383.6314392089844 632.492431640625L383.671142578125 627.6365966796875V624.3809204101562L383.6372985839844 620.1065063476562C383.63446044921875 620.02880859375 383.6318359375 619.9509887695312 383.62939453125 619.873046875L383.5326843261719 615.3399047851562L383.2589111328125 611.6436767578125L382.8641662597656 608.8399658203125C382.6593017578125 607.2681274414062 382.5446472167969 605.7406616210938 382.5144348144531 604.2584838867188L382.3955383300781 602.5540771484375C382.368408203125 602.27685546875 382.3437194824219 601.9976196289062 382.3215637207031 601.7164306640625L382.18359375 600.1505737304688C382.0993957519531 599.4024658203125 382.0338439941406 598.6397705078125 381.9876403808594 597.8624877929688L381.8832092285156 595.8215942382812Q381.8568115234375 595.508056640625 381.8345947265625 595.191162109375L381.73712158203125 593.4124755859375L381.43707275390625 590.733642578125L380.9588623046875 587.0673828125C380.7462158203125 585.814453125 380.5876159667969 584.51708984375 380.48663330078125 583.1749877929688C380.4350891113281 582.5997924804688 380.39593505859375 582.0308227539062 380.3687744140625 581.4682006835938L380.095458984375 577.4797973632812C380.0899353027344 577.4013671875 380.0846252441406 577.3231201171875 380.07952880859375 577.2449340820312L379.76898193359375 573.8720703125C379.7041931152344 573.2886962890625 379.65057373046875 572.696533203125 379.6084899902344 572.0953979492188L379.59356689453125 571.8408813476562C379.5750732421875 571.5686645507812 379.5592346191406 571.2979736328125 379.5459899902344 571.0287475585938L379.4996337890625 570.23779296875C379.3870544433594 569.2012939453125 379.3114013671875 568.1370239257812 379.27459716796875 567.044921875L379.14581298828125 563.1819458007812L379.045166015625 562.265625C378.8102111816406 560.8192749023438 378.64825439453125 559.3145141601562 378.56500244140625 557.7509765625L378.3907165527344 554.4859008789062L378.1240234375 551.0521850585938L377.7655334472656 547.7337036132812L377.4026794433594 545.4000854492188C377.3367919921875 545.0635375976562 377.27435302734375 544.7236938476562 377.2154541015625 544.3804931640625L376.4502258300781 539.8169555664062C376.30511474609375 538.9712524414062 376.18695068359375 538.1375122070312 376.0948181152344 537.31591796875L376.0290832519531 536.8607788085938C375.8993225097656 536.1056518554688 375.78912353515625 535.3343505859375 375.6993103027344 534.5468139648438C375.5195007324219 533.1290893554688 375.4134521484375 531.7476806640625 375.3768310546875 530.403076171875L375.3048095703125 529.313720703125C375.23779296875 528.692626953125 375.18353271484375 528.0615234375 375.14239501953125 527.42041015625L374.87225341796875 523.1571655273438L374.8230285644531 522.3802490234375L374.8223876953125 522.3699340820312C374.7596740722656 521.373046875 374.7315673828125 520.3961181640625 374.7365417480469 519.4393310546875L374.6846618652344 517.0338134765625L374.4328308105469 514.7594604492188C374.35302734375 514.036865234375 374.29205322265625 513.3240356445312 374.249267578125 512.6209716796875L374.1270751953125 511.2939147949219C373.9064636230469 509.7237548828125 373.7740478515625 508.0870666503906 373.7371520996094 506.3837585449219L373.7370910644531 506.3807678222656L373.70733642578125 504.9151916503906L373.64080810546875 501.6381530761719C373.63519287109375 501.4998779296875 373.6302185058594 501.36114501953125 373.6258544921875 501.22198486328125L373.4588928222656 496.54718017578125C373.4441223144531 496.06005859375 373.4374084472656 495.5779724121094 373.4386291503906 495.1009216308594L373.33245849609375 492.8446350097656C373.3162536621094 492.5596008300781 373.302734375 492.2726135253906 373.29193115234375 491.9836730957031C373.2826232910156 491.7271423339844 373.2756042480469 491.47198486328125 373.2707824707031 491.21820068359375L373.18585205078125 488.1442565917969C373.1355895996094 487.4599304199219 373.1011962890625 486.76409912109375 373.083251953125 486.05670166015625L373.01275634765625 482.3468322753906C372.938232421875 481.2607421875 372.90533447265625 480.1460266113281 372.9162902832031 479.00274658203125L372.97955322265625 475.53936767578125C372.9127197265625 473.7899169921875 372.9624938964844 471.9712829589844 373.138916015625 470.0844421386719L373.1751708984375 469.7182922363281C373.2088317871094 469.3186950683594 373.248046875 468.92303466796875 373.292724609375 468.5314025878906L373.43719482421875 467.0726623535156C373.4585266113281 466.72021484375 373.4842834472656 466.36529541015625 373.5145568847656 466.00787353515625L373.90423583984375 461.57659912109375L373.941162109375 457.7926025390625C373.94085693359375 457.5594787597656 373.94244384765625 457.3251037597656 373.94586181640625 457.0895690917969L373.9914855957031 453.1326599121094C373.9898376464844 452.7528076171875 373.9931640625 452.3697204589844 374.00152587890625 451.98345947265625L374.0949401855469 448.10687255859375C374.0970458984375 447.7736511230469 374.1029968261719 447.4380187988281 374.1128234863281 447.0999450683594L374.2580261230469 442.4661560058594C374.2620849609375 442.1623229980469 374.2693176269531 441.8564453125 374.27978515625 441.5486145019531L374.48846435546875 436.0668640136719C374.4909973144531 435.9928283691406 374.4936828613281 435.9189147949219 374.4965515136719 435.8451232910156L374.6554260253906 430.4042053222656C374.6588134765625 430.3009338378906 374.66253662109375 430.1979064941406 374.6666259765625 430.0951232910156L374.7065734863281 427.060791015625L374.6611022949219 422.4016418457031L374.4972229003906 420.0014953613281C374.33807373046875 418.6299133300781 374.2454833984375 417.2093811035156 374.22412109375 415.73980712890625L374.123291015625 410.4710693359375L374.0327453613281 408.7504577636719C373.95489501953125 407.8089904785156 373.9083251953125 406.8455810546875 373.89447021484375 405.8602294921875C373.8688049316406 404.92022705078125 373.874267578125 403.9989013671875 373.9095458984375 403.09637451171875L373.9456787109375 399.2872009277344L373.94586181640625 399.26666259765625C373.9459228515625 399.24810791015625 373.94598388671875 399.22955322265625 373.94586181640625 399.21099853515625V384.2126770019531L373.8945617675781 377.508544921875C373.8928527832031 377.424560546875 373.89141845703125 377.3404235839844 373.89019775390625 377.256103515625L373.7928161621094 369.8682556152344C373.78765869140625 369.4792175292969 373.78753662109375 369.093505859375 373.7924499511719 368.7110595703125L373.66400146484375 363.8639221191406C373.64984130859375 363.65423583984375 373.63714599609375 363.4435119628906 373.6258544921875 363.231689453125L373.426513671875 359.2250671386719C373.3971252441406 358.9166564941406 373.3708190917969 358.6058044433594 373.34759521484375 358.29254150390625L372.8205261230469 350.9541931152344L372.31744384765625 346.09716796875C372.2986145019531 345.974853515625 372.2802734375 345.85211181640625 372.26239013671875 345.7289733886719L371.4971618652344 340.4141845703125C371.4477233886719 340.0732421875 371.4025573730469 339.73431396484375 371.3616638183594 339.3974609375L370.41192626953125 333.61065673828125C370.284912109375 332.8226318359375 370.18109130859375 332.04522705078125 370.0997009277344 331.2785339355469L369.3769836425781 326.1481628417969L368.2865905761719 319.86029052734375L368.2414855957031 319.60015869140625L367.2101135253906 313.5558166503906L366.38043212890625 309.9805603027344C366.2073974609375 309.3060607910156 366.0484619140625 308.616943359375 365.9040832519531 307.9131164550781L364.3319091796875 300.3583068847656C364.1039123535156 299.2453308105469 363.9237976074219 298.1517639160156 363.7894592285156 297.0780944824219L363.1634216308594 293.217529296875C362.9862976074219 292.3595275878906 362.8327941894531 291.47955322265625 362.7040710449219 290.577392578125L361.7974853515625 284.0338439941406C361.7696533203125 283.8783264160156 361.7425842285156 283.72210693359375 361.7162170410156 283.565185546875L360.7423095703125 277.69384765625C360.7071838378906 277.4830017089844 360.67376708984375 277.2729187011719 360.6419677734375 277.0635986328125L359.6953125 271.63555908203125L358.298828125 265.75494384765625L356.5544738769531 259.9685363769531C356.5398254394531 259.9185485839844 356.5252685546875 259.8686218261719 356.5108337402344 259.8186950683594L354.9045715332031 254.97824096679688L354.8153381347656 254.70936584472656L354.7661437988281 254.55775451660156L353.2108154296875 249.7654266357422C352.9231872558594 248.96707153320312 352.6566467285156 248.14491271972656 352.4123229980469 247.2986602783203C351.80120849609375 245.3499755859375 351.3526306152344 243.44725036621094 351.0543212890625 241.59457397460938L350.63330078125 239.71591186523438C350.3913269042969 238.7621307373047 350.1783752441406 237.7792205810547 349.9959716796875 236.76695251464844L349.9870300292969 236.71978759765625C349.9404296875 236.47317504882812 349.896240234375 236.22752380371094 349.8544006347656 235.9828338623047L348.8465881347656 230.4031524658203C348.69598388671875 229.55770874023438 348.57244873046875 228.72406005859375 348.47509765625 227.9024200439453L348.23333740234375 226.3285675048828C348.2196350097656 226.25848388671875 348.2060852050781 226.1882781982422 348.19268798828125 226.11790466308594L347.32958984375 221.35983276367188C347.26708984375 221.0792694091797 347.2069396972656 220.79629516601562 347.1492004394531 220.51092529296875L346.2148742675781 215.83937072753906C345.9949951171875 214.8828582763672 345.80462646484375 213.8980255126953 345.6453857421875 212.88461303710938C345.5766296386719 212.4749298095703 345.514404296875 212.06793212890625 345.4585876464844 211.66371154785156L344.867431640625 207.79434204101562C344.7950134277344 207.33157348632812 344.7305603027344 206.87249755859375 344.6739501953125 206.41712951660156L344.06048583984375 202.36822509765625C343.9971923828125 201.92510986328125 343.9411315917969 201.4854736328125 343.8922119140625 201.04930114746094L343.3601989746094 197.51951599121094L342.8481140136719 195.03125C342.7567443847656 194.67059326171875 342.66925048828125 194.30581665039062 342.585693359375 193.93687438964844L341.7096862792969 189.88795471191406C341.52630615234375 189.13795471191406 341.36083984375 188.3701629638672 341.2140197753906 187.58445739746094C341.09259033203125 186.9794464111328 340.9856262207031 186.38002014160156 340.89288330078125 185.78636169433594L340.6737060546875 184.552734375L339.8662414550781 184.47817993164062C339.6697082519531 184.4648895263672 339.4724426269531 184.4502410888672 339.2743835449219 184.4342041015625L336.78851318359375 184.21937561035156L336.22796630859375 184.24073791503906C335.9971618652344 184.2513427734375 335.76507568359375 184.26019287109375 335.53173828125 184.2672576904297L331.77520751953125 184.37855529785156C331.2392578125 184.39414978027344 330.7094421386719 184.3999786376953 330.1856994628906 184.396240234375L328.99609375 184.41439819335938C328.19378662109375 184.44534301757812 327.3764953613281 184.45367431640625 326.5444030761719 184.43850708007812C326.0138244628906 184.4335174560547 325.4895324707031 184.41888427734375 324.9715881347656 184.39483642578125L324.9036865234375 184.3928680419922C323.3983154296875 184.42218017578125 321.8431396484375 184.3647918701172 320.2388610839844 184.21437072753906C319.5573425292969 184.16355895996094 318.8871765136719 184.09695434570312 318.2284851074219 184.01504516601562C317.19866943359375 183.92330932617188 316.1492614746094 183.78993225097656 315.0807800292969 183.613037109375C314.1637878417969 183.47735595703125 313.26995849609375 183.3145751953125 312.3991394042969 183.12599182128906L312.10498046875 183.07177734375L311.9474182128906 183.0565185546875C311.9622802734375 183.1721954345703 311.9767150878906 183.28823852539062 311.9907531738281 183.40463256835938L312.3125305175781 186.15542602539062C312.3957824707031 186.7698211669922 312.4667663574219 187.39442443847656 312.5249938964844 188.029052734375C312.5400085449219 188.18055725097656 312.55413818359375 188.33163452148438 312.5674743652344 188.48228454589844L312.96466064453125 192.6846923828125C313.0202941894531 193.30308532714844 313.0624084472656 193.9141082763672 313.0912780761719 194.51771545410156L313.2402038574219 196.75914001464844L313.52117919921875 198.7786407470703C313.54949951171875 198.99777221679688 313.5760803222656 199.21603393554688 313.60089111328125 199.4334259033203L313.86053466796875 201.13673400878906C313.99798583984375 201.89244079589844 314.11700439453125 202.66464233398438 314.21685791015625 203.4534454345703L314.59246826171875 206.6509552001953L315.1304016113281 209.63560485839844C315.2535705566406 210.2084503173828 315.3665466308594 210.79119873046875 315.4690246582031 211.38392639160156L316.2342529296875 215.79437255859375C316.4186706542969 216.86892700195312 316.5596008300781 217.9241943359375 316.6589050292969 218.95980834960938L316.82208251953125 220.1800994873047C316.98284912109375 221.154052734375 317.1120910644531 222.1547088623047 317.2081604003906 223.18223571777344L317.75030517578125 228.7703094482422L317.7509765625 228.77528381347656L318.2254333496094 232.3297119140625C318.3133544921875 232.8756866455078 318.3917541503906 233.4300079345703 318.4603576660156 233.99273681640625L318.763671875 236.60586547851562C318.9171142578125 237.6042022705078 319.0347900390625 238.62994384765625 319.11480712890625 239.68299865722656C319.2819519042969 241.38046264648438 319.3434143066406 243.02369689941406 319.30682373046875 244.61172485351562L319.43426513671875 248.89369201660156C319.4385681152344 249.0559844970703 319.4420166015625 249.21771240234375 319.4445495605469 249.37889099121094L319.63726806640625 253.03370666503906C319.7786865234375 254.4983367919922 319.8427734375 256.01690673828125 319.8238220214844 257.5893859863281L319.8179931640625 257.978515625C319.81646728515625 258.15948486328125 319.8137512207031 258.3397521972656 319.8099060058594 258.5192565917969L319.7204284667969 264.50347900390625L319.8238220214844 269.76336669921875C319.8439025878906 271.06170654296875 319.8072509765625 272.3234558105469 319.71710205078125 273.5486145019531L319.6298828125 277.6116943359375C319.63226318359375 278.1927490234375 319.622802734375 278.78131103515625 319.6012268066406 279.3773193359375L319.2812194824219 287.04345703125C319.27630615234375 287.1777648925781 319.27081298828125 287.3116760253906 319.2647399902344 287.4451599121094L319.0029602050781 294.7095947265625C318.9965515136719 294.8932189941406 318.989013671875 295.0760192871094 318.98040771484375 295.258056640625L318.9044189453125 297.4801330566406C318.9131774902344 298.0880432128906 318.9090576171875 298.7042236328125 318.89166259765625 299.3287353515625L318.7386169433594 303.8922424316406C318.73382568359375 304.0565490722656 318.7281494140625 304.22021484375 318.72161865234375 304.3832702636719L318.6273193359375 308.34442138671875C318.6256103515625 308.422607421875 318.6236572265625 308.5006408691406 318.6215515136719 308.57855224609375L318.5716552734375 313.0192565917969C318.5707092285156 313.0836181640625 318.5696716308594 313.14788818359375 318.5684509277344 313.2120666503906L318.52435302734375 319.671630859375L318.7386169433594 325.7914733886719C318.7436828613281 325.93621826171875 318.748046875 326.08050537109375 318.7516784667969 326.224365234375L319.2255554199219 334.4871826171875C319.2375183105469 334.6933288574219 319.24798583984375 334.89862060546875 319.2569885253906 335.10302734375L319.69158935546875 342.8475036621094C319.69873046875 342.92205810546875 319.7057189941406 342.9967346191406 319.7125244140625 343.0715637207031L320.48724365234375 351.9058837890625C320.51898193359375 352.18231201171875 320.54827880859375 352.46075439453125 320.57513427734375 352.7411804199219L321.0805358886719 358.3757629394531C321.16033935546875 358.9737548828125 321.228515625 359.58135986328125 321.2846984863281 360.1986389160156L321.8829650878906 366.8769226074219C321.9474182128906 367.5956726074219 321.99359130859375 368.3044738769531 322.0220031738281 369.00323486328125L322.1343688964844 370.41802978515625C322.2095031738281 371.0902099609375 322.2696228027344 371.7742004394531 322.31427001953125 372.4700012207031L322.5411682128906 375.7222900390625C322.61663818359375 376.50994873046875 322.671142578125 377.3133850097656 322.703857421875 378.13262939453125L322.99957275390625 386.3098449707031L323.50933837890625 391.2674255371094L324.70733642578125 400.5188293457031C324.78167724609375 401.0946350097656 324.8439025878906 401.6644287109375 324.8943176269531 402.22821044921875L325.84820556640625 409.81280517578125C325.85638427734375 409.87982177734375 325.8643798828125 409.94677734375 325.8722229003906 410.0136413574219L326.8043212890625 416.1973876953125C326.8920593261719 416.6872253417969 326.9722595214844 417.1839599609375 327.04473876953125 417.6876220703125L327.9769287109375 423.9902648925781C328.0101623535156 424.2229309082031 328.0413818359375 424.45465087890625 328.0706481933594 424.6854248046875L329.0699768066406 430.4439697265625L330.7456359863281 438.9468688964844C330.87799072265625 439.6235046386719 330.9927673339844 440.2928466796875 331.0904846191406 440.95477294921875L332.31781005859375 447.85125732421875C332.41180419921875 448.38665771484375 332.4949645996094 448.9172668457031 332.5675048828125 449.443115234375L333.3047790527344 453.34765625C333.35772705078125 453.582275390625 333.4090270996094 453.81854248046875 333.45867919921875 454.0565185546875L334.9752197265625 461.44439697265625C335.1611022949219 462.3396301269531 335.31591796875 463.2223205566406 335.44073486328125 464.09228515625L336.3907775878906 469.4189758300781C336.6311340332031 470.5087890625 336.8325500488281 471.63482666015625 336.99261474609375 472.7974853515625L337.9064025878906 479.60845947265625C338.09246826171875 480.6418151855469 338.2430114746094 481.7059326171875 338.3561096191406 482.801025390625L339.0517578125 489.5906066894531C339.1656188964844 490.6944580078125 339.2358703613281 491.7752990722656 339.26458740234375 492.8329162597656L339.6252746582031 499.1122741699219C339.6896667480469 499.8572082519531 339.7352294921875 500.6160888671875 339.7613220214844 501.3889465332031L340.08197021484375 510.26031494140625L340.6050109863281 518.4339599609375C340.61669921875 518.5859375 340.6276550292969 518.738525390625 340.6378479003906 518.8916625976562L341.18048095703125 526.9890747070312C341.2168884277344 527.53515625 341.24285888671875 528.0752563476562 341.2586669921875 528.609375L341.66741943359375 535.406494140625C341.7042236328125 536.0518188476562 341.7265625 536.6885986328125 341.73486328125 537.3169555664062L341.9587707519531 542.3674926757812C342.02642822265625 543.1483764648438 342.0733337402344 543.944580078125 342.0987243652344 544.756103515625L342.27056884765625 551.3390502929688C342.32525634765625 552.0852661132812 342.3609619140625 552.8451538085938 342.3769836425781 553.6187744140625L342.4883117675781 560.4083862304688C342.49609375 560.7896118164062 342.49896240234375 561.167724609375 342.49700927734375 561.542724609375L342.5798645019531 569.1661987304688L342.9651184082031 576.3148193359375C342.9898681640625 576.6082153320312 343.0118103027344 576.90380859375 343.0309143066406 577.2015380859375L343.4599914550781 584.0778198242188C343.53143310546875 584.7468872070312 343.5879821777344 585.4275512695312 343.6291809082031 586.1198120117188L344.00482177734375 592.7424926757812C344.04833984375 593.4932861328125 344.072265625 594.2326049804688 344.0772705078125 594.96044921875L344.2993469238281 600.2243041992188C344.36529541015625 600.9943237304688 344.4111633300781 601.7792358398438 344.4361267089844 602.5790405273438L344.71441650390625 611.2330322265625C344.730712890625 611.7550048828125 344.7377624511719 612.2711791992188 344.7357482910156 612.7815551757812L344.867431640625 620.026123046875C344.8741760253906 620.35107421875 344.8773193359375 620.6737060546875 344.8769836425781 620.9940795898438L344.978759765625 628.3461303710938C344.980712890625 628.5081787109375 344.9818115234375 628.669677734375 344.98199462890625 628.83056640625L345.0312805175781 633.6883544921875L345.3768615722656 638.9313354492188L345.9665832519531 645.4592895507812C346.0108947753906 645.9983520507812 346.04498291015625 646.53173828125 346.06903076171875 647.0593872070312L346.1539611816406 648.2011108398438C346.3337707519531 649.6638793945312 346.4352722167969 651.1824951171875 346.4524841308594 652.7568969726562C346.4839782714844 653.77392578125 346.4781188964844 654.7693481445312 346.4366455078125 655.7429809570312L346.40435791015625 659.8091430664062L346.5648498535156 666.4959106445312C346.576416015625 667.0015258789062 346.579345703125 667.501708984375 346.57379150390625 667.996337890625L346.7503967285156 672.8209228515625C346.7593078613281 673.0120239257812 346.76702880859375 673.2039794921875 346.7735290527344 673.3967895507812L346.8848571777344 677.8629150390625L347.05181884765625 681.939453125C347.0640869140625 682.317138671875 347.0715026855469 682.6918334960938 347.0741271972656 683.0635375976562L347.0931396484375 683.93896484375L347.5167541503906 688.904052734375L348.1570739746094 694.3530883789062L348.77801513671875 698.3138427734375C348.8585205078125 698.7720947265625 348.9324645996094 699.2362670898438 348.9996337890625 699.70654296875L349.98748779296875 706.607421875C350.09271240234375 707.3448486328125 350.1778869628906 708.07275390625 350.24365234375 708.7908935546875L350.7004089355469 712.710693359375C350.8057556152344 713.453125 350.89300537109375 714.2105712890625 350.9613952636719 714.983154296875L351.3912048339844 719.7992553710938L351.3922424316406 719.81103515625L351.655517578125 721.8953247070312C351.89324951171875 723.3012084960938 352.06243896484375 724.7628173828125 352.1579284667969 726.2805786132812L352.16314697265625 726.3812255859375C352.207763671875 726.9873657226562 352.2386169433594 727.5863647460938 352.25616455078125 728.17822265625L352.3534240722656 730.0567016601562L352.81182861328125 733.72412109375C352.8223571777344 733.810791015625 352.8326110839844 733.8973388671875 352.8426208496094 733.9837646484375L353.1039123535156 735.765869140625C353.1530456542969 736.0614013671875 353.199462890625 736.359375 353.2431335449219 736.6597900390625L353.49224853515625 738.4312133789062C353.5580749511719 738.8333129882812 353.6188659667969 739.2398681640625 353.6744384765625 739.6510620117188L353.7264404296875 740.0568237304688C353.9909973144531 740.9441528320312 354.2237243652344 741.8574829101562 354.4226989746094 742.7968139648438C354.7548522949219 744.0995483398438 355.008544921875 745.44873046875 355.1769714355469 746.8427734375C355.2933349609375 747.5992431640625 355.3821716308594 748.3670654296875 355.4422607421875 749.1456909179688C356.06396484375 754.0007934570312 355.536376953125 759.1021118164062 353.55169677734375 764.1826171875C353.2108459472656 765.1099853515625 352.82672119140625 766.01806640625 352.4022521972656 766.9051513671875C351.5506286621094 768.8694458007812 350.5278625488281 770.6824951171875 349.36041259765625 772.3441162109375C347.5098876953125 775.2092895507812 345.31182861328125 777.619140625 342.8658752441406 779.5948486328125C339.7161865234375 782.292236328125 336.20361328125 784.2015991210938 332.51666259765625 785.400146484375C327.6827697753906 787.2185668945312 322.3522033691406 787.8711547851562 316.7970886230469 786.9519653320312C312.5119323730469 786.5077514648438 308.2749328613281 785.1796264648438 304.3296203613281 782.8240356445312C300.8441162109375 780.8652954101562 297.63653564453125 778.145751953125 294.9010314941406 774.5875854492188C289.85150146484375 768.931884765625 287.3905944824219 762.4412841796875 286.97308349609375 755.9307861328125C286.7229919433594 753.9556274414062 286.6669006347656 752.01806640625 286.7865905761719 750.1288452148438C286.71734619140625 749.3438110351562 286.6758728027344 748.5682983398438 286.6611022949219 747.8026733398438L286.48468017578125 746.5928955078125L286.4462585449219 746.3294067382812L286.44140625 746.2959594726562L286.16168212890625 744.366455078125C286.0179138183594 743.5734252929688 285.8945007324219 742.7622680664062 285.7923583984375 741.932861328125L285.5074462890625 739.3931274414062C285.31744384765625 738.1622314453125 285.17938232421875 736.889404296875 285.0966796875 735.5745239257812L284.8179931640625 731.3126831054688L284.68597412109375 730.2667236328125C284.51226806640625 729.2238159179688 284.3748779296875 728.1502075195312 284.27581787109375 727.0457763671875L283.90887451171875 722.4537353515625C283.8865051269531 722.2831420898438 283.86505126953125 722.11181640625 283.8445129394531 721.939697265625L283.0914306640625 715.463134765625L282.3116760253906 709.93798828125C282.2935485839844 709.8252563476562 282.2757873535156 709.7122192382812 282.2584228515625 709.5987548828125L281.59747314453125 705.4127807617188C281.42919921875 704.5128173828125 281.287353515625 703.58935546875 281.1731872558594 702.6422119140625L280.4775390625 696.6038818359375C280.3711853027344 695.712158203125 280.29364013671875 694.8349609375 280.24383544921875 693.9725952148438L279.9261474609375 690.2489013671875C279.7991943359375 689.1689453125 279.71270751953125 688.0585327148438 279.66900634765625 686.9176025390625C279.6317138671875 686.1716918945312 279.6144714355469 685.4370727539062 279.6165771484375 684.7138671875L279.61041259765625 684.43017578125C279.6070251464844 684.3421630859375 279.6038818359375 684.2539672851562 279.60101318359375 684.1655883789062L279.4897155761719 680.0890502929688L279.32275390625 675.6229248046875Q279.3182678222656 675.4901123046875 279.3146057128906 675.3577880859375L279.05841064453125 668.3463745117188C279.0459289550781 667.950927734375 279.0387878417969 667.5587158203125 279.036865234375 667.1698608398438L278.8914489746094 661.1115112304688C278.8728942871094 660.3001708984375 278.8766174316406 659.5029907226562 278.9018249511719 658.719970703125L278.9371643066406 654.2640380859375L278.76416015625 651.9381103515625C278.7343444824219 651.649658203125 278.7071838378906 651.3590087890625 278.6827392578125 651.0662841796875L278.2358703613281 645.6004028320312C278.1741943359375 645.0194702148438 278.12359619140625 644.4298706054688 278.08447265625 643.8314208984375L277.5836181640625 636.443603515625C277.49102783203125 635.000244140625 277.4710388183594 633.5987548828125 277.51910400390625 632.2393798828125L277.48980712890625 629.355712890625C277.4883728027344 629.2744140625 277.4871826171875 629.1929931640625 277.4862060546875 629.1113891601562L277.4854431152344 629.0000610351562L277.43341064453125 621.5194702148438L277.4305725097656 621.3895874023438L277.28057861328125 613.865234375C277.2741394042969 613.7118530273438 277.26849365234375 613.5579223632812 277.26361083984375 613.4034423828125L277.0312194824219 605.7591552734375C277.0191650390625 605.553466796875 277.0085144042969 605.3468017578125 276.999267578125 605.1390380859375L276.6649169921875 597.4849853515625C276.64410400390625 597.2138061523438 276.62567138671875 596.9407958984375 276.60968017578125 596.6659545898438L276.2898254394531 591.0621337890625C276.2691955566406 590.8121948242188 276.2505798339844 590.5607299804688 276.2340393066406 590.3076782226562L275.6914367675781 581.5563354492188C275.6548156738281 580.9856567382812 275.6295471191406 580.4214477539062 275.6153564453125 579.8638916015625L275.25927734375 573.7647705078125C275.1617126464844 572.6768798828125 275.1055908203125 571.5592651367188 275.0931701660156 570.4119262695312L275.0921630859375 570.249755859375C275.08746337890625 569.9619140625 275.0857238769531 569.6758422851562 275.08685302734375 569.3915405273438L275.0404052734375 561.9039916992188C275.03936767578125 561.8599853515625 275.03839111328125 561.81591796875 275.0375061035156 561.7718505859375L274.89276123046875 555.885986328125C274.8841247558594 555.6922607421875 274.876708984375 555.4977416992188 274.87054443359375 555.30224609375L274.6875 547.8696899414062C274.6780700683594 547.7044067382812 274.66949462890625 547.5384521484375 274.661865234375 547.371826171875L274.3287658691406 540.0675659179688Q274.296630859375 539.6460571289062 274.27227783203125 539.2186889648438L273.8918762207031 532.1258544921875C273.87322998046875 531.89892578125 273.85626220703125 531.6707763671875 273.8409729003906 531.4412841796875L273.2983703613281 523.3438720703125C273.28289794921875 523.1118774414062 273.2693176269531 522.8809814453125 273.2575988769531 522.651123046875L272.7839660644531 515.249267578125C272.71832275390625 514.5017700195312 272.67156982421875 513.7402954101562 272.6444396972656 512.9646606445312L272.33636474609375 504.06964111328125L271.8669738769531 495.8973388671875L271.3675842285156 491.1188049316406C271.3570861816406 491.0455017089844 271.3467712402344 490.9720458984375 271.33660888671875 490.8984680175781L270.3404846191406 483.4737854003906C270.3292236328125 483.4119567871094 270.31805419921875 483.3500061035156 270.3070373535156 483.2879638671875L268.96490478515625 475.49652099609375Q268.92578125 475.31634521484375 268.8879089355469 475.1348876953125L267.3713684082031 467.80267333984375C267.2066955566406 467.00738525390625 267.06646728515625 466.2219543457031 266.949951171875 465.44659423828125L265.9104919433594 459.9278564453125C265.8457336425781 459.5812072753906 265.78558349609375 459.2365417480469 265.72991943359375 458.8938293457031L264.5414123535156 452.2337646484375C264.5245056152344 452.1505432128906 264.5078430175781 452.0671081542969 264.4913635253906 451.98345947265625L263.0643615722656 444.7068786621094C262.9072265625 443.998779296875 262.7658996582031 443.27532958984375 262.64093017578125 442.5364685058594L261.2913513183594 434.38336181640625C261.1707458496094 433.6660461425781 261.0694885253906 432.9573669433594 260.9870300292969 432.2574462890625L260.24786376953125 427.2598571777344C260.2035217285156 426.9520568847656 260.1626281738281 426.64593505859375 260.125244140625 426.34149169921875L259.30780029296875 420.9181823730469C259.1222839355469 419.9610290527344 258.9667053222656 418.9770202636719 258.8426513671875 417.96588134765625L257.7574157714844 408.936279296875C257.7082824707031 408.53289794921875 257.6650390625 408.1324768066406 257.62762451171875 407.7350769042969L256.6722106933594 400.39971923828125C256.6214294433594 400.04364013671875 256.57476806640625 399.6841125488281 256.53228759765625 399.32110595703125C256.4595031738281 398.7400817871094 256.3991394042969 398.1650695800781 256.3507995605469 397.59625244140625L256.0065002441406 394.2477111816406C255.78189086914062 392.7584228515625 255.6353302001953 391.2082824707031 255.57305908203125 389.5970458984375L255.25839233398438 380.9371643066406L254.97479248046875 376.8247985839844C254.95921325683594 376.58197021484375 254.94569396972656 376.34033203125 254.9342041015625 376.0998840332031L254.7820587158203 374.1839599609375C254.7344512939453 373.7838134765625 254.69198608398438 373.37945556640625 254.65478515625 372.9708557128906L254.15113830566406 367.33685302734375C254.1168212890625 367.04205322265625 254.08526611328125 366.7449951171875 254.05653381347656 366.44561767578125L253.5594482421875 360.90374755859375C253.47579956054688 360.2803649902344 253.4048309326172 359.646484375 253.34695434570312 359.0021057128906L252.63575744628906 350.8462219238281C252.51693725585938 349.8927307128906 252.4288787841797 348.9151306152344 252.373046875 347.913330078125L251.9026641845703 338.6133728027344C251.89686584472656 338.5228271484375 251.89134216308594 338.43206787109375 251.88607788085938 338.34112548828125L251.43508911132812 330.52386474609375C251.36593627929688 329.75885009765625 251.31658935546875 328.9790954589844 251.28781127929688 328.1845397949219L251.06520080566406 321.82623291015625C251.0218963623047 320.63055419921875 251.02748107910156 319.4649658203125 251.0793914794922 318.32958984375L251.1160888671875 312.9535217285156C251.1141815185547 312.634521484375 251.1157684326172 312.313232421875 251.12086486816406 311.98968505859375L251.16647338867188 307.9763488769531C251.1648406982422 307.59674072265625 251.16815185546875 307.21392822265625 251.176513671875 306.8279113769531L251.26980590820312 302.9560546875C251.27182006835938 302.6167297363281 251.27780151367188 302.2748718261719 251.28781127929688 301.93048095703125L251.3991241455078 297.4226379394531C251.42079162597656 296.6688232421875 251.46102905273438 295.92816162109375 251.51918029785156 295.20068359375L251.588623046875 292.9848327636719C251.59332275390625 292.76312255859375 251.59971618652344 292.54034423828125 251.60781860351562 292.3165283203125L251.87042236328125 285.02911376953125C251.87472534179688 284.8663330078125 251.87994384765625 284.7030029296875 251.88607788085938 284.5390930175781L252.1504364013672 276.8729553222656C252.1555938720703 276.731689453125 252.16140747070312 276.59088134765625 252.16786193847656 276.4505615234375L252.3029022216797 270.1599426269531L252.2241973876953 266.116455078125C252.2125701904297 265.7474060058594 252.20565795898438 265.375244140625 252.2035369873047 265.0001220703125C252.196044921875 264.3562927246094 252.2025604248047 263.7215270996094 252.22265625 263.09576416015625L252.30618286132812 257.467041015625L251.9973907470703 251.43978881835938C251.9580841064453 250.6312713623047 251.94131469726562 249.83624267578125 251.94627380371094 249.0547332763672L251.8177490234375 244.98208618164062L251.58775329589844 243.18495178222656C251.55589294433594 242.96969604492188 251.5254669189453 242.75318908691406 251.4965057373047 242.53538513183594L250.94610595703125 238.30287170410156C250.7678680419922 237.25892639160156 250.6260223388672 236.18402099609375 250.52259826660156 235.0779571533203L250.16403198242188 230.91867065429688C250.1582794189453 230.87673950195312 250.152587890625 230.83474731445312 250.14694213867188 230.792724609375L249.6782989501953 227.0435791015625L248.95040893554688 222.84832763671875C248.92291259765625 222.68817138671875 248.89639282226562 222.52842712402344 248.87083435058594 222.36912536621094L248.12953186035156 218.56309509277344C247.8306427001953 216.9602508544922 247.6295928955078 215.39915466308594 247.5200653076172 213.8809814453125L247.2669219970703 211.92652893066406L247.25653076171875 211.84384155273438L246.6686553955078 208.01693725585938C246.5950469970703 207.519775390625 246.53062438964844 207.02691650390625 246.4751739501953 206.53842163085938C246.23464965820312 205.1477813720703 246.06094360351562 203.7021484375 245.95909118652344 202.20126342773438L245.95114135742188 202.07521057128906C245.9163055419922 201.63406372070312 245.88873291015625 201.1966552734375 245.86830139160156 200.76300048828125L245.74647521972656 198.8329620361328C245.74310302734375 198.79632568359375 245.73977661132812 198.75967407226562 245.73648071289062 198.7229766845703L245.3162384033203 194.27658081054688L244.98516845703125 191.44642639160156C244.96551513671875 191.28170776367188 244.9468536376953 191.11749267578125 244.92916870117188 190.9537811279297L244.53994750976562 188.12118530273438C244.45701599121094 187.48414611816406 244.38893127441406 186.8544464111328 244.33531188964844 186.2321014404297C244.12318420410156 184.89596557617188 243.977294921875 183.5107421875 243.9025421142578 182.07647705078125C243.8650360107422 181.60787963867188 243.8356170654297 181.14352416992188 243.81411743164062 180.68344116210938C243.4678955078125 180.64781188964844 243.12474060058594 180.60791015625 242.7846221923828 180.5637969970703L241.30796813964844 180.43186950683594C240.81784057617188 180.39739990234375 240.32298278808594 180.3541717529297 239.8234100341797 180.30201721191406L235.56173706054688 179.86805725097656C235.17190551757812 179.83738708496094 234.77911376953125 179.8011932373047 234.3833770751953 179.7593994140625L229.5377960205078 179.2153778076172L227.86447143554688 179.09957885742188L223.8507080078125 179.0553436279297C223.59719848632812 179.0557098388672 223.34228515625 179.0538787841797 223.08592224121094 179.04983520507812L222.7975616455078 179.04249572753906C222.62173461914062 179.0390625 222.4466094970703 179.03460693359375 222.27220153808594 179.02911376953125L221.12481689453125 178.9998779296875C221.01356506347656 178.99839782714844 220.9020538330078 178.9965057373047 220.79026794433594 178.9941864013672L218.98719787597656 178.9467315673828C218.84661865234375 178.94467163085938 218.70559692382812 178.94192504882812 218.5641632080078 178.9385223388672L216.1013946533203 178.8984832763672C215.74710083007812 178.8976287841797 215.39004516601562 178.89244079589844 215.0302276611328 178.88287353515625L211.23194885253906 178.77157592773438C211.0841522216797 178.76768493652344 210.93687438964844 178.76307678222656 210.7900848388672 178.7577667236328L206.33453369140625 178.6185302734375C206.2369842529297 178.61581420898438 206.1396484375 178.61277770996094 206.04254150390625 178.60943603515625L201.50668334960938 178.50721740722656Z" fill="black"/>
</svg>
