<svg xmlns="http://www.w3.org/2000/svg" viewBox="0 0 701 1000">
  <path d="M366.3899841308594 490.9190673828125C366.38665771484375 490.80712890625 366.38397216796875 490.69476318359375 366.3819274902344 490.5819396972656L366.3197021484375 484.8393249511719C366.318603515625 484.8031005859375 366.3175964355469 484.7668151855469 366.316650390625 484.7304992675781L366.1596374511719 478.82293701171875C366.1531677246094 478.69720458984375 366.1474914550781 478.5708923339844 366.14263916015625 478.4440002441406L365.9172058105469 472.48828125C365.90338134765625 472.29248046875 365.8915100097656 472.0951843261719 365.8816223144531 471.8964538574219L365.6205749511719 466.8716125488281C365.61456298828125 466.75006103515625 365.6093444824219 466.6289978027344 365.6048889160156 466.5083923339844L365.2942810058594 459.3234558105469C365.27825927734375 459.0049133300781 365.26763916015625 458.6896057128906 365.2623596191406 458.3775329589844L364.9462585449219 450.7311706542969C364.92059326171875 450.10955810546875 364.9154357910156 449.50048828125 364.92999267578125 448.9039611816406L364.8749694824219 444.7068176269531L364.0873718261719 437.2705383300781C364.0597229003906 437.0606994628906 364.0342102050781 436.8489990234375 364.0108947753906 436.635498046875L363.1982116699219 428.5843505859375C363.1083679199219 427.970458984375 363.03814697265625 427.3405456542969 362.988525390625 426.6945495605469L362.3906555175781 418.88812255859375C362.2021179199219 417.56732177734375 362.1148681640625 416.1741638183594 362.1401672363281 414.7088623046875L362.1461181640625 414.3830871582031C362.1475524902344 414.2365417480469 362.1502380371094 414.0907287597656 362.15411376953125 413.9456481933594L362.22210693359375 410.2228698730469C362.2230224609375 410.10174560546875 362.2247009277344 409.9801330566406 362.2271728515625 409.8580322265625L362.2326354980469 409.69317626953125C362.2361145019531 409.55938720703125 362.2405090332031 409.42620849609375 362.2458190917969 409.293701171875L362.3955993652344 404.7630920410156C362.3970642089844 404.6779479980469 362.39892578125 404.592529296875 362.40118408203125 404.50689697265625L362.4786376953125 399.5120849609375C362.4795837402344 399.3077087402344 362.4827880859375 399.1019287109375 362.48822021484375 398.89471435546875L362.7150573730469 389.8829040527344C362.71722412109375 389.6904602050781 362.7213439941406 389.49676513671875 362.72747802734375 389.30181884765625L362.988525390625 381.57965087890625L362.9955749511719 381.38201904296875L363.2495422363281 374.2707824707031V366.8749084472656L363.1012268066406 359.700439453125L362.1401672363281 351.2347717285156C361.9870300292969 349.8224182128906 361.9447326660156 348.46771240234375 362.0032043457031 347.17181396484375L361.8963623046875 342.4852600097656C361.88995361328125 342.37139892578125 361.88421630859375 342.25701904296875 361.8791198730469 342.1421813964844L361.5952453613281 335.12042236328125C361.5794677734375 334.9389953613281 361.5653076171875 334.75628662109375 361.5528564453125 334.5722961425781L361.0576171875 327.05548095703125C361.0145568847656 326.73748779296875 360.9765625 326.4152526855469 360.9437561035156 326.0887756347656L359.9431457519531 315.8868103027344L359.9428405761719 315.8838806152344L359.0077819824219 309.6003112792969C359.0008544921875 309.5527648925781 358.99407958984375 309.5052795410156 358.9874267578125 309.4578552246094L357.5915832519531 301.1013488769531C357.54644775390625 300.8768005371094 357.503662109375 300.64990234375 357.4633483886719 300.42071533203125L355.9229431152344 291.6854553222656C355.75 290.88592529296875 355.610107421875 290.0563049316406 355.505615234375 289.19635009765625L355.4847106933594 289.0218505859375C355.466064453125 288.876220703125 355.44866943359375 288.7311706542969 355.43255615234375 288.5867004394531L354.24395751953125 278.6680908203125C354.21490478515625 278.4275817871094 354.1890869140625 278.1886901855469 354.1664733886719 277.9514465332031L353.1611022949219 270.9138488769531C353.0124816894531 270.2357177734375 352.8871765136719 269.535888671875 352.78656005859375 268.8141784667969L351.8511962890625 261.7663269042969C351.7209167480469 260.82598876953125 351.6411437988281 259.9100341796875 351.6087951660156 259.0189208984375L351.0732421875 253.53970336914062C351.02215576171875 253.19802856445312 350.97686767578125 252.85137939453125 350.93756103515625 252.49972534179688L350.002197265625 243.58116149902344C349.9517822265625 243.13192749023438 349.91265869140625 242.68850708007812 349.8843994140625 242.2509765625L349.1321105957031 235.42393493652344C349.03143310546875 234.3793182373047 348.99102783203125 233.36691284179688 349.0068664550781 232.38710021972656L348.71881103515625 227.3537139892578C348.69317626953125 226.91708374023438 348.6778259277344 226.48646545410156 348.6724853515625 226.06187438964844L348.457763671875 222.08958435058594C348.4421081542969 221.646240234375 348.4369201660156 221.20932006835938 348.4418029785156 220.77883911132812L348.3667297363281 219.45895385742188C348.3357238769531 219.20018005371094 348.3080139160156 218.9386749267578 348.28375244140625 218.67442321777344L347.8704528808594 213.84535217285156C347.8655700683594 213.79190063476562 347.8608703613281 213.73854064941406 347.8563232421875 213.6852569580078L347.46588134765625 210.4642333984375Q347.45037841796875 210.371337890625 347.4353942871094 210.27792358398438L346.3277587890625 203.46800231933594L345.2278137207031 198.7560272216797L343.5231628417969 192.8804931640625C343.5001525878906 192.81393432617188 343.4773254394531 192.74713134765625 343.4546813964844 192.68006896972656L342.3893737792969 189.51593017578125C342.1258544921875 188.8159942626953 341.88580322265625 188.087158203125 341.67095947265625 187.3289337158203L341.60919189453125 187.10101318359375C341.5445556640625 186.8741912841797 341.4833984375 186.6483612060547 341.42559814453125 186.4235382080078L340.47088623046875 182.90052795410156L339.191162109375 179.34573364257812C338.8607482910156 178.43911743164062 338.5865783691406 177.54629516601562 338.3656311035156 176.66835021972656C338.041748046875 175.84710693359375 337.75042724609375 174.98513793945312 337.4944763183594 174.08160400390625L336.5591125488281 170.75344848632812C336.42486572265625 170.27294921875 336.3052978515625 169.7972412109375 336.20001220703125 169.32644653320312L335.5367431640625 167.0120086669922C335.35308837890625 166.33969116210938 335.1981201171875 165.67686462402344 335.07061767578125 165.0238494873047L334.8229675292969 163.9871826171875C334.5930480957031 163.18115234375 334.3974304199219 162.34133911132812 334.23883056640625 161.4674530029297C334.13629150390625 160.9601287841797 334.04974365234375 160.45889282226562 333.9787292480469 159.9639129638672L333.0724182128906 159.99159240722656C332.2528076171875 160.0780487060547 331.40655517578125 160.12770080566406 330.53363037109375 160.13818359375H327.1400146484375C325.86614990234375 160.23780822753906 324.5318298339844 160.24105834960938 323.13775634765625 160.13818359375L321.2750549316406 159.96078491210938C319.9631652832031 159.92869567871094 318.59893798828125 159.7877197265625 317.1845397949219 159.52725219726562C316.5089111328125 159.420654296875 315.85302734375 159.2901153564453 315.2167663574219 159.13694763183594L314.6759948730469 159.02879333496094H300.1085510253906C300.20318603515625 159.4762420654297 300.2880554199219 159.93304443359375 300.3627624511719 160.3992156982422L300.97186279296875 164.46694946289062C301.0990905761719 165.260986328125 301.1897277832031 166.0382843017578 301.2456359863281 166.79856872558594L301.64617919921875 170.25314331054688C301.72412109375 171.05551147460938 301.7664794921875 171.8388671875 301.77508544921875 172.60302734375L301.9072265625 174.3208770751953C301.9639892578125 175.16798400878906 301.9817810058594 175.99281311035156 301.9627380371094 176.7952117919922L302.0594787597656 179.93304443359375C302.06646728515625 180.13137817382812 302.0713806152344 180.3284149169922 302.0742492675781 180.52415466308594L302.146484375 182.5651092529297C302.1497802734375 182.6911163330078 302.1522521972656 182.8166046142578 302.1539001464844 182.94155883789062L302.2065124511719 184.37478637695312C302.21258544921875 184.51258850097656 302.2176513671875 184.65110778808594 302.22174072265625 184.79029846191406L302.2334899902344 185.11016845703125C302.2378234863281 185.39981079101562 302.23779296875 185.6866455078125 302.2334899902344 185.9706573486328V190.4613037109375C302.2336730957031 190.51942443847656 302.2336730957031 190.5774383544922 302.2334899902344 190.6353302001953V197.0089111328125L302.2336120605469 197.09585571289062C302.2336120605469 197.1248321533203 302.23358154296875 197.15382385253906 302.2334899902344 197.182861328125V204.57875061035156C302.23309326171875 204.711669921875 302.2317810058594 204.84397888183594 302.2295837402344 204.97567749023438L302.146484375 213.41029357910156V310.1876220703125C302.146484375 311.2474365234375 302.0882873535156 312.26849365234375 301.97613525390625 313.25079345703125L301.64617919921875 321.6730041503906C301.6423034667969 321.7607727050781 301.6380310058594 321.8482666015625 301.63336181640625 321.9354553222656L301.4742431640625 333.8294982910156L301.55657958984375 344.0393371582031C301.55755615234375 344.08843994140625 301.5584411621094 344.1376647949219 301.5591735839844 344.18695068359375L301.64617919921875 354.628173828125L301.6469421386719 354.6993713378906L301.7331848144531 362.6983947753906L301.90142822265625 373.5489196777344C301.9041748046875 373.6729736328125 301.9060974121094 373.7975769042969 301.9072265625 373.9227294921875L301.90875244140625 374.1181945800781L301.9942321777344 384.9730529785156C301.9949035644531 385.0538330078125 301.9952087402344 385.1344299316406 301.9952087402344 385.21478271484375L302.05908203125 395.2636413574219L302.0594787597656 395.3273010253906C302.0601806640625 395.4430236816406 302.0601806640625 395.5583190917969 302.0594787597656 395.6731262207031V403.1582336425781L302.1396179199219 409.5702209472656C302.1436462402344 409.75201416015625 302.14593505859375 409.9349365234375 302.146484375 410.11907958984375V414.53485107421875C302.1465759277344 414.5638732910156 302.1466064453125 414.5928955078125 302.1466064453125 414.6218566894531L302.146484375 414.708740234375V418.4206848144531L302.9078369140625 427.10784912109375C302.9405212402344 427.48870849609375 302.96527099609375 427.8652038574219 302.98223876953125 428.2373046875L303.6039123535156 434.3297119140625C303.63287353515625 434.6181335449219 303.6571960449219 434.904052734375 303.6769714355469 435.18756103515625L304.62628173828125 445.2060241699219C304.6940002441406 445.9493103027344 304.7313232421875 446.6761474609375 304.7396545410156 447.3863525390625L305.25360107421875 454.90460205078125C305.3592834472656 455.6713562011719 305.43359375 456.46270751953125 305.4746398925781 457.2787170410156L305.9339599609375 467.88287353515625C305.9491882324219 468.05938720703125 305.9628601074219 468.2370910644531 305.9749450683594 468.4160461425781L306.45782470703125 476.03485107421875C306.4966735839844 476.3197021484375 306.5315246582031 476.6079406738281 306.562255859375 476.8995666503906L307.49761962890625 485.9051208496094C307.5512390136719 486.4251708984375 307.5898742675781 486.93731689453125 307.61407470703125 487.4415283203125L308.6070251464844 496.1941223144531C308.6746826171875 496.81201171875 308.72100830078125 497.41888427734375 308.7467956542969 498.0145568847656L309.5423889160156 506.3960876464844C309.5974426269531 506.9810791015625 309.6336364746094 507.5558776855469 309.6516418457031 508.12042236328125L310.1514587402344 514.1182250976562C310.2088928222656 514.8756103515625 310.2351379394531 515.6154174804688 310.2317810058594 516.3375244140625L310.6517639160156 524.7552490234375C310.6732177734375 525.1883544921875 310.68463134765625 525.615478515625 310.6863098144531 526.03662109375L310.9997863769531 533.9131469726562C311.01617431640625 534.4207763671875 311.0189208984375 534.9198608398438 311.0085144042969 535.4105834960938L311.0650634765625 542.8534545898438C311.0678405761719 543.0087890625 311.06939697265625 543.163330078125 311.0696716308594 543.3170166015625L311.1290283203125 547.3226928710938L311.9351501464844 554.5780639648438C311.9704284667969 554.90234375 311.99981689453125 555.2235107421875 312.0234375 555.5416870117188L312.70867919921875 561.009033203125C312.799072265625 561.5428466796875 312.875 562.0892944335938 312.935791015625 562.6483154296875L313.87115478515625 571.1318359375C313.9516296386719 571.8671875 314.00189208984375 572.5868530273438 314.0234069824219 573.2905883789062L314.5672302246094 579.1367797851562C314.6236572265625 579.8243408203125 314.6542053222656 580.4976196289062 314.6600341796875 581.156494140625L314.940673828125 585.4880981445312C315.0567932128906 586.4749755859375 315.1151428222656 587.500244140625 315.1109924316406 588.5635375976562C315.1343688964844 589.798583984375 315.0737609863281 590.983154296875 314.9363708496094 592.1168212890625L314.5951232910156 597.5892333984375C314.59893798828125 598.433349609375 314.5614929199219 599.3014526367188 314.480224609375 600.1932983398438L313.7009582519531 608.705322265625L313.54486083984375 614.6370239257812C313.5209045410156 615.54833984375 313.4546813964844 616.429931640625 313.348876953125 617.2818603515625L312.9764709472656 623.6435546875L313.1556396484375 629.5860595703125C313.17083740234375 629.7572631835938 313.1845703125 629.9296264648438 313.1968078613281 630.1031494140625L313.6884765625 637.6419067382812C313.69940185546875 637.7676391601562 313.70953369140625 637.89404296875 313.7188720703125 638.0210571289062L314.21917724609375 644.807861328125C314.2533264160156 645.2720947265625 314.2757873535156 645.729736328125 314.2869567871094 646.1807250976562L314.5633239746094 650.7130737304688L315.4934997558594 656.9142456054688C315.5515441894531 657.2107543945312 315.6053466796875 657.5113525390625 315.65484619140625 657.81591796875L316.3534240722656 662.3160400390625C316.4784851074219 662.8955688476562 316.5867004394531 663.4910278320312 316.6772155761719 664.1024169921875L317.8736267089844 671.8245849609375C317.9930725097656 672.6312866210938 318.0750427246094 673.4203491210938 318.12152099609375 674.1915283203125L318.8089904785156 679.3074951171875C318.93109130859375 680.2932739257812 318.99847412109375 681.2516479492188 319.0145568847656 682.1820678710938L319.2440185546875 684.6381225585938C319.35675048828125 685.4168701171875 319.43719482421875 686.2212524414062 319.4833068847656 687.0514526367188L319.83135986328125 693.1639404296875C319.85516357421875 693.5704345703125 319.87005615234375 693.9717407226562 319.8763122558594 694.3677978515625L320.0923767089844 698.1669921875C320.1139221191406 698.7407836914062 320.1179504394531 699.3038330078125 320.1051940917969 699.856201171875L320.15765380859375 704.6275634765625C320.16387939453125 704.9749145507812 320.1638488769531 705.3182373046875 320.15765380859375 705.657470703125V710.5877685546875L320.1577453613281 710.602783203125C320.1578369140625 710.6484375 320.1578063964844 710.6942138671875 320.15765380859375 710.739990234375V714.8351440429688L320.3935241699219 716.5621948242188C320.6702880859375 717.8372802734375 320.85614013671875 719.1882934570312 320.94073486328125 720.61572265625L321.02935791015625 722.8814697265625C321.1415710449219 723.918212890625 321.1934509277344 724.9974365234375 321.1800231933594 726.1190795898438L321.1096496582031 730.5177001953125C321.11865234375 731.0291137695312 321.11328125 731.5496826171875 321.093017578125 732.079345703125L320.9040832519531 736.5106811523438L321.025146484375 737.8668212890625L321.30255126953125 739.339111328125C321.4168395996094 739.7947998046875 321.5211486816406 740.2606811523438 321.6150817871094 740.7368774414062L322.4634094238281 745.0003662109375C322.61871337890625 745.8001708984375 322.7359619140625 746.5841064453125 322.8170166015625 747.3517456054688L323.2247619628906 749.9164428710938C323.285400390625 750.2877807617188 323.3379821777344 750.655517578125 323.3827819824219 751.0195922851562L323.6210021972656 752.6768188476562C323.7098388671875 753.1796875 323.7857360839844 753.6937866210938 323.8481140136719 754.2191162109375C324.6116638183594 755.3851318359375 325.2464294433594 756.6223754882812 325.75537109375 757.9082641601562C327.7306213378906 761.9564819335938 328.1932678222656 766.1051635742188 327.5260009765625 769.9974365234375C327.110595703125 773.2442626953125 325.8916931152344 776.4385375976562 323.7137756347656 779.3264770507812C321.5113525390625 782.859375 318.2880859375 785.4843139648438 314.6063232421875 787.1415405273438C311.70660400390625 788.8032836914062 308.260986328125 789.7780151367188 304.3211364746094 789.7725219726562C301.6939697265625 789.974609375 299.2462158203125 789.7086181640625 297.00482177734375 789.0650634765625C293.9793701171875 788.2854614257812 291.1128845214844 786.8179931640625 288.6546630859375 784.5816040039062C284.7472229003906 781.378662109375 282.4678039550781 776.9937133789062 281.6544189453125 772.3269653320312C281.5779113769531 771.9501953125 281.50946044921875 771.56689453125 281.4493713378906 771.1771240234375C280.94219970703125 768.7926635742188 280.8180847167969 766.5291137695312 281.0171813964844 764.406005859375L281.0029602050781 763.9468994140625C280.99432373046875 763.7216796875 280.9884033203125 763.498046875 280.9851379394531 763.276123046875L280.8289489746094 761.4017944335938L280.8249206542969 761.3380737304688L280.5679016113281 759.009033203125C280.5614013671875 758.9440307617188 280.55511474609375 758.8792114257812 280.549072265625 758.814453125L280.3316345214844 757.0291748046875C280.3232727050781 756.9786376953125 280.31500244140625 756.9280395507812 280.306884765625 756.8772583007812L279.8092346191406 753.7469482421875C279.77838134765625 753.6022338867188 279.74847412109375 753.45654296875 279.7195739746094 753.3098754882812L278.8712158203125 749.1550903320312C278.7536926269531 748.5494995117188 278.6579895019531 747.9529418945312 278.583251953125 747.3656616210938L278.309326171875 745.911865234375C278.1823425292969 745.3450927734375 278.07293701171875 744.7630004882812 277.9820251464844 744.1655883789062C277.781982421875 743.033935546875 277.6580810546875 741.9347534179688 277.6049499511719 740.8693237304688C277.3849792480469 739.4127807617188 277.2914733886719 737.8680419921875 277.3403015136719 736.2359008789062C277.34320068359375 735.5973510742188 277.3695068359375 734.9725952148438 277.41815185546875 734.3616333007812L277.5877990722656 730.3826293945312C277.5920715332031 730.270751953125 277.59698486328125 730.1593627929688 277.6025390625 730.0484008789062L277.6554870605469 726.7398681640625L277.4681396484375 723.6909790039062L277.3493347167969 722.9204711914062C276.9541931152344 721.3026733398438 276.7176208496094 719.5602416992188 276.6640930175781 717.6932983398438C276.60882568359375 716.7547607421875 276.6061096191406 715.8428344726562 276.6524353027344 714.9580078125V705.4758911132812L276.59332275390625 700.0161743164062C276.5911560058594 699.9654541015625 276.589111328125 699.9146118164062 276.5871887207031 699.8637084960938L276.4493408203125 696.1762084960938Q276.4287109375 695.9010009765625 276.4131774902344 695.6219482421875L276.06512451171875 689.5094604492188C276.0616455078125 689.4465942382812 276.058349609375 689.3837890625 276.0552673339844 689.3211669921875L275.5648193359375 684.0713500976562C275.5589599609375 684.0092163085938 275.5533447265625 683.947265625 275.54791259765625 683.8853759765625L274.7164611816406 677.6978149414062C274.6963806152344 677.5362548828125 274.6777648925781 677.3753662109375 274.66064453125 677.2152709960938L273.8702392578125 671.775390625C273.80657958984375 671.4556884765625 273.747802734375 671.1312866210938 273.694091796875 670.80224609375L273.0146789550781 666.4887084960938C272.8831481933594 665.9053344726562 272.7685241699219 665.3057250976562 272.6717224121094 664.6897583007812L271.7940368652344 659.0247802734375C271.5045166015625 657.7359619140625 271.3076477050781 656.368896484375 271.21429443359375 654.9228515625L270.84796142578125 648.5986938476562C270.8306579589844 648.416748046875 270.8149719238281 648.2335205078125 270.8009948730469 648.0490112304688L270.30023193359375 641.4346923828125L270.2789306640625 641.1534423828125C270.26446533203125 640.9555053710938 270.2521667480469 640.7587890625 270.241943359375 640.563232421875L269.87567138671875 634.718994140625C269.7787170410156 633.917236328125 269.7166442871094 633.0891723632812 269.6916198730469 632.23486328125L269.4305725097656 623.5773315429688C269.3857727050781 622.0476684570312 269.464599609375 620.5951538085938 269.6542663574219 619.22021484375L270.0396423339844 612.7010498046875C270.0499572753906 612.5416259765625 270.0615539550781 612.3831787109375 270.0743713378906 612.2257080078125L270.165771484375 608.7411499023438C270.1369934082031 607.6919555664062 270.1730041503906 606.6044311523438 270.2789306640625 605.4791870117188L270.3160705566406 605.0838012695312L270.3372802734375 604.857666015625L271.04266357421875 597.345703125C271.04827880859375 597.2222900390625 271.0547180175781 597.0983276367188 271.06201171875 596.9739379882812L271.5688171386719 588.7526245117188L271.1490478515625 582.18212890625C271.1432800292969 582.0851440429688 271.1380310058594 581.9884643554688 271.1332702636719 581.8920288085938L270.5399475097656 575.308349609375C270.5195617675781 575.0599975585938 270.5025329589844 574.8134765625 270.4888610839844 574.56884765625L269.6916198730469 567.412109375C269.6640319824219 567.1581420898438 269.6400146484375 566.9060668945312 269.61956787109375 566.6558227539062L268.66925048828125 559.668212890625C268.5807800292969 558.9730224609375 268.5197448730469 558.29150390625 268.4849548339844 557.6236572265625L268.06256103515625 553.7355346679688C267.80859375 552.3466796875 267.66552734375 550.8729248046875 267.6468505859375 549.31396484375L267.5598449707031 543.5277709960938C267.55438232421875 542.8642578125 267.5717468261719 542.2156372070312 267.61083984375 541.5819702148438L267.50360107421875 535.5304565429688C267.500244140625 535.4483642578125 267.49725341796875 535.3660888671875 267.4945983886719 535.2835083007812L267.2554931640625 527.274169921875C267.24725341796875 527.1385498046875 267.23992919921875 527.0022583007812 267.2335510253906 526.8652954101562L266.7854309082031 518.2572631835938C266.7571716308594 517.9898681640625 266.73248291015625 517.7195434570312 266.7115173339844 517.4464111328125L266.2874755859375 511.1784362792969C266.2592468261719 510.9425048828125 266.23382568359375 510.70428466796875 266.211181640625 510.46380615234375L265.27581787109375 500.52288818359375C265.2469177246094 500.2065124511719 265.2235412597656 499.8930969238281 265.2055969238281 499.5826721191406L264.16644287109375 490.49493408203125C264.1348571777344 490.20440673828125 264.10797119140625 489.91632080078125 264.0857238769531 489.6307067871094L263.3641357421875 482.6834411621094C263.267333984375 482.021240234375 263.1935729980469 481.3404541015625 263.1440734863281 480.6409912109375L262.5567626953125 471.3743896484375C262.51873779296875 470.8114013671875 262.4978332519531 470.2582702636719 262.493408203125 469.7149658203125L261.9694519042969 459.41046142578125C261.9491271972656 458.9806823730469 261.93865966796875 458.5567932128906 261.937744140625 458.1388244628906L261.3740539550781 450.1378479003906C261.33575439453125 449.8319396972656 261.3021545410156 449.52215576171875 261.2733459472656 449.20849609375L260.2727355957031 438.419189453125C260.2298278808594 437.9522399902344 260.198974609375 437.4917907714844 260.17974853515625 437.03790283203125L259.57666015625 431.1103210449219C259.52423095703125 430.5883483886719 259.48699951171875 430.0743713378906 259.46441650390625 429.5685119628906L258.8842468261719 422.9486083984375C258.75494384765625 422.0078125 258.6756591796875 421.03033447265625 258.6502380371094 420.01611328125C258.61346435546875 419.2337341308594 258.6111145019531 418.4707336425781 258.64129638671875 417.7273254394531V410.2060852050781L258.56121826171875 403.87921142578125C258.5575866699219 403.71954345703125 258.5552673339844 403.5589904785156 258.5542907714844 403.39752197265625V395.58831787109375L258.4903869628906 385.51800537109375Q258.48956298828125 385.4522705078125 258.489013671875 385.3863525390625L258.4020080566406 374.3577880859375L258.234375 363.6291198730469C258.2316589355469 363.5223083496094 258.2295227050781 363.41510009765625 258.2279968261719 363.3074645996094L258.1409912109375 355.23724365234375L258.13922119140625 355.02410888671875L258.053955078125 344.7742614746094C258.05120849609375 344.59014892578125 258.0502014160156 344.40716552734375 258.05096435546875 344.225341796875L257.9734191894531 334.53350830078125C257.96380615234375 334.1639099121094 257.9615173339844 333.7894592285156 257.9667663574219 333.4101257324219L257.9668273925781 333.39764404296875C257.9676818847656 333.2408142089844 257.96978759765625 333.0848388671875 257.97320556640625 332.92974853515625L258.1233825683594 321.705810546875C258.1054382324219 321.05712890625 258.1109313964844 320.39361572265625 258.1409912109375 319.71527099609375L258.64129638671875 309.1652526855469V213.2362823486328C258.6416931152344 213.10238647460938 258.64300537109375 212.9691162109375 258.645263671875 212.8364715576172L258.7283020019531 204.49172973632812V185.8715057373047L258.6832275390625 184.6431884765625C258.6639099121094 184.32411193847656 258.6498718261719 184.001220703125 258.64129638671875 183.67449951171875L258.5542907714844 181.21644592285156C258.5389709472656 180.55877685546875 258.54644775390625 179.91546630859375 258.5756530761719 179.2865447998047L258.5256042480469 177.69981384277344C258.5121154785156 177.53887939453125 258.4999084472656 177.37692260742188 258.489013671875 177.21397399902344L258.2279968261719 173.90757751464844C258.2115478515625 173.6640625 258.19830322265625 173.42239379882812 258.1882019042969 173.18255615234375L257.9503479003906 170.7209014892578L257.59246826171875 168.5043182373047L257.32708740234375 167.41551208496094C256.8729553222656 166.57421875 256.46075439453125 165.6799774169922 256.09521484375 164.73170471191406C255.21287536621094 162.80206298828125 254.6393585205078 160.89340209960938 254.33798217773438 159.02879333496094H245.39395141601562L242.06582641601562 159.095703125C241.7645721435547 159.1072235107422 241.46002197265625 159.1139678955078 241.15219116210938 159.11581420898438H226.3604278564453L220.16636657714844 159.1981201171875C220.07005310058594 159.19989013671875 219.97341918945312 159.20118713378906 219.87646484375 159.2019805908203L219.81289672851562 159.20281982421875C219.7838592529297 159.20291137695312 219.75486755371094 159.2029571533203 219.72589111328125 159.2029571533203L219.63900756835938 159.20281982421875H214.54876708984375C214.49087524414062 159.20298767089844 214.432861328125 159.20298767089844 214.37474060058594 159.20281982421875L214.3342742919922 159.2020263671875C214.1007537841797 159.20028686523438 213.86912536621094 159.19570922851562 213.639404296875 159.18833923339844L210.2545166015625 159.12164306640625C210.0415496826172 159.1221160888672 209.8270263671875 159.12017822265625 209.61093139648438 159.11581420898438H208.97412109375C208.379638671875 159.13552856445312 207.77255249023438 159.1358184814453 207.1528778076172 159.11581420898438L205.73765563964844 159.05804443359375C205.42237854003906 159.05377197265625 205.10377502441406 159.0440673828125 204.78184509277344 159.02879333496094L201.21441650390625 158.8547821044922C200.50885009765625 158.81982421875 199.8217315673828 158.7599639892578 199.15296936035156 158.6764678955078L198.24794006347656 158.6195831298828C197.47207641601562 158.59608459472656 196.67710876464844 158.53736877441406 195.86328125 158.4414825439453L195.65989685058594 158.41490173339844C195.47364807128906 158.39248657226562 195.288818359375 158.36830139160156 195.10540771484375 158.3424072265625L192.53514099121094 158.0064239501953C191.57199096679688 157.89002990722656 190.64694213867188 157.72926330566406 189.7595977783203 157.52735900878906L188.97962951660156 157.39805603027344C188.06216430664062 157.2852783203125 187.12257385253906 157.11936950683594 186.16162109375 156.8970489501953L182.26791381835938 156.04869079589844C181.4089813232422 155.8500213623047 180.58523559570312 155.61807250976562 179.79615783691406 155.35525512695312L179.31594848632812 155.22091674804688C179.0543975830078 155.16754150390625 178.79122924804688 155.10995483398438 178.52645874023438 155.04808044433594L176.80941772460938 154.58712768554688L175.9742889404297 154.52601623535156H172.65325927734375L169.5865936279297 154.595703125C169.47811889648438 154.60206604003906 169.3692169189453 154.60784912109375 169.25985717773438 154.61302185058594L166.455078125 154.73768615722656C166.26036071777344 154.75604248046875 166.06414794921875 154.7725067138672 165.86643981933594 154.78704833984375L161.10263061523438 155.1133270263672Q161.06459045410156 155.11599731445312 161.02659606933594 155.11859130859375L156.78652954101562 155.56930541992188L151.3662872314453 156.2719268798828L150.12254333496094 156.5146026611328C149.79269409179688 156.59649658203125 149.45750427246094 156.67327880859375 149.116943359375 156.74478149414062L144.2008514404297 157.76715087890625C143.29827880859375 157.95596313476562 142.41539001464844 158.09573364257812 141.55274963378906 158.189208984375L140.8538055419922 158.30520629882812C139.5052032470703 158.64605712890625 138.0691680908203 158.8739471435547 136.54591369628906 158.97406005859375C134.8563690185547 159.1556854248047 133.24746704101562 159.1675262451172 131.72235107421875 159.02879333496094H131.41041564941406C131.03115844726562 159.03662109375 130.64683532714844 159.03668212890625 130.2574462890625 159.02879333496094L125.42549896240234 158.8716583251953C125.16767883300781 158.86964416503906 124.90760803222656 158.86404418945312 124.64527130126953 158.8547821044922L120.05877685546875 158.71632385253906C119.55868530273438 158.7184600830078 119.05001068115234 158.70677185058594 118.53278350830078 158.68075561523438L114.81063842773438 158.49032592773438C114.41070556640625 158.4829559326172 114.0054702758789 158.4667510986328 113.5949478149414 158.4414825439453L108.60712432861328 158.157470703125C108.15202331542969 158.14781188964844 107.69011688232422 158.1265869140625 107.221435546875 158.0934295654297L101.2374038696289 157.6407012939453C101.00057983398438 157.6279754638672 100.76199340820312 157.61212158203125 100.52163696289062 157.59312438964844L95.62728118896484 157.18096923828125C95.41844940185547 157.17572021484375 95.20818328857422 157.1680908203125 94.99647521972656 157.1580810546875L88.9926986694336 156.870361328125L84.79695129394531 157.0221710205078C84.28408813476562 157.05703735351562 83.76153564453125 157.0762481689453 83.22941589355469 157.0791778564453C81.5509033203125 157.1358642578125 79.96453094482422 157.04183959960938 78.47100830078125 156.8142852783203L78.02059173583984 156.78164672851562C77.65106201171875 156.7769012451172 77.27696228027344 156.76467895507812 76.89830780029297 156.74478149414062L75.13351440429688 156.6462860107422C72.31350708007812 158.06065368652344 69.18463134765625 158.85658264160156 66.01698303222656 159.03408813476562C64.74534606933594 159.26339721679688 63.495304107666016 159.36651611328125 62.27370834350586 159.3549346923828C59.51720428466797 159.45787048339844 56.906761169433594 158.98312377929688 54.51033020019531 158.0564727783203C53.476593017578125 157.68011474609375 52.49360656738281 157.22244262695312 51.56387710571289 156.69326782226562C48.308231353759766 155.04257202148438 45.47172927856445 152.54367065429688 43.47415542602539 149.17691040039062C42.441261291503906 147.47068786621094 41.669681549072266 145.62490844726562 41.15238571166992 143.7067108154297C40.47295379638672 141.786865234375 40.117881774902344 139.82476806640625 40.04933547973633 137.87095642089844C39.86825942993164 135.33767700195312 40.17917251586914 132.67694091796875 41.08882522583008 129.95664978027344C41.88071060180664 126.80606842041016 43.275390625 124.13379669189453 45.0904541015625 121.93893432617188C45.55474090576172 121.1796875 46.05104064941406 120.46819305419922 46.575836181640625 119.80329132080078C49.372520446777344 116.11164093017578 52.91545486450195 113.79345703125 56.719295501708984 112.64018249511719C60.97715759277344 111.16057586669922 65.79829406738281 111.07842254638672 70.74309539794922 113.0392837524414C71.60981750488281 112.96224975585938 72.50518798828125 112.92891693115234 73.42906188964844 112.94230651855469C74.71116638183594 112.90460968017578 75.94245910644531 112.96853637695312 77.121337890625 113.12454223632812L79.18233489990234 113.23957061767578C79.89696502685547 113.2792739868164 80.59258270263672 113.34440612792969 81.26924896240234 113.43367004394531L82.62095642089844 113.53162384033203L86.72238159179688 113.38513946533203C87.68851470947266 113.3038101196289 88.69011688232422 113.27643585205078 89.72700500488281 113.30712890625C90.36103057861328 113.31363677978516 90.98119354248047 113.34209442138672 91.58744812011719 113.39151000976562L97.04121398925781 113.65287017822266C97.81295776367188 113.68936920166016 98.56269836425781 113.7557601928711 99.2905044555664 113.85040283203125L103.9150390625 114.17493438720703C104.1722640991211 114.19527435302734 104.42692565917969 114.21886444091797 104.67903137207031 114.24566650390625L110.37556457519531 114.67524719238281C110.5627670288086 114.6890640258789 110.74861907958984 114.70460510253906 110.9331283569336 114.72185516357422L116.22701263427734 115.02328491210938C116.42538452148438 115.0354995727539 116.62227630615234 115.0496597290039 116.81768798828125 115.06575012207031L118.81661224365234 115.16802215576172C119.3080825805664 115.15716552734375 119.80805206298828 115.1595230102539 120.31649780273438 115.17555236816406L126.10269165039062 115.43658447265625C126.19176483154297 115.43946075439453 126.28054809570312 115.44274139404297 126.3690414428711 115.44641876220703L131.1927947998047 115.52359771728516H133.1940155029297L135.17991638183594 115.19261169433594C135.20675659179688 115.1868896484375 135.23362731933594 115.18120574951172 135.2605438232422 115.17555236816406L139.02536010742188 114.41263580322266C139.49253845214844 114.29378509521484 139.97052001953125 114.18540954589844 140.45941162109375 114.08792877197266L142.5469970703125 113.68059539794922C143.44979858398438 113.46080017089844 144.39248657226562 113.28363037109375 145.37550354003906 113.1525650024414L145.6072540283203 113.1220703125C145.76766967773438 113.09947967529297 145.92739868164062 113.0784683227539 146.08644104003906 113.05902099609375L150.7482452392578 112.44561767578125C150.9365234375 112.41891479492188 151.1262969970703 112.39398956298828 151.31756591796875 112.37086486816406C151.79788208007812 112.30948638916016 152.271728515625 112.26129913330078 152.73907470703125 112.22587585449219L155.89492797851562 111.92291259765625C156.56056213378906 111.8233871459961 157.24505615234375 111.7470474243164 157.94850158691406 111.69513702392578L162.7123260498047 111.36885070800781C163.42282104492188 111.31871032714844 164.11778259277344 111.29586029052734 164.79713439941406 111.29901123046875L165.19129943847656 111.2813949584961C165.98538208007812 111.18860626220703 166.8049774169922 111.1300277709961 167.65016174316406 111.10781860351562L171.47862243652344 111.02080535888672C171.98269653320312 111.00756072998047 172.47836303710938 111.0077133178711 172.96559143066406 111.02080535888672H175.171142578125C175.86378479003906 110.9926986694336 176.5733642578125 110.9928207397461 177.29971313476562 111.0226821899414C178.11117553710938 111.03630065917969 178.89938354492188 111.08497619628906 179.664306640625 111.16666412353516C181.01153564453125 111.17699432373047 182.41319274902344 111.30680847167969 183.86618041992188 111.56848907470703C185.117919921875 111.75603485107422 186.30264282226562 112.02399444580078 187.42103576660156 112.36427307128906L188.55441284179688 112.63050079345703C189.36058044433594 112.82256317138672 190.13558959960938 113.04368591308594 190.87991333007812 113.29188537597656L192.97018432617188 113.82689666748047C193.02870178222656 113.84306335449219 193.0870361328125 113.859375 193.14520263671875 113.87583923339844L195.71412658691406 114.43555450439453L198.734619140625 114.936279296875Q198.78765869140625 114.9450912475586 198.8404998779297 114.95408630371094L201.0404052734375 115.17555236816406C201.09999084472656 115.18280029296875 201.15943908691406 115.19021606445312 201.21873474121094 115.19779968261719L202.7548370361328 115.3287124633789C202.9435272216797 115.333740234375 203.13339233398438 115.34069061279297 203.32443237304688 115.34957885742188L206.82659912109375 115.52359771728516C207.0301513671875 115.5338363647461 207.23216247558594 115.546142578125 207.43264770507812 115.56049346923828L208.6103057861328 115.61061096191406H210.54629516601562C210.74468994140625 115.61463165283203 210.94171142578125 115.62066650390625 211.13731384277344 115.6286849975586L214.63577270507812 115.69761657714844H219.6388702392578L225.76405334472656 115.61622619628906C225.90414428710938 115.61333465576172 226.044921875 115.61145782470703 226.1864013671875 115.61061096191406H236.88868713378906C237.0044403076172 115.60991668701172 237.11972045898438 115.60991668701172 237.2345428466797 115.61061096191406H240.97817993164062L244.3321533203125 115.5431900024414C244.65335083007812 115.53115844726562 244.978271484375 115.52458190917969 245.30694580078125 115.52359771728516H314.1841735839844C315.5022277832031 115.41744232177734 316.88037109375 115.42588806152344 318.3161315917969 115.56153106689453C320.4169006347656 115.67162322998047 322.3543395996094 116.01853942871094 324.1285095214844 116.56546783447266L325.07366943359375 116.63298034667969H329.42425537109375L334.3902282714844 116.40553283691406C334.5753173828125 116.39259338378906 334.76171875 116.38138580322266 334.94940185546875 116.3719482421875L337.565185546875 116.27085876464844C346.6524658203125 108.45267486572266 362.19744873046875 109.40272521972656 369.71527099609375 119.1209945678711L370.38775634765625 119.3114242553711L372.4723205566406 119.6771469116211L373.5685729980469 119.78750610351562L376.7579040527344 119.93937683105469C376.8768615722656 119.94634246826172 376.99530029296875 119.95401763916016 377.1131896972656 119.96238708496094L379.977294921875 120.02638244628906C380.15576171875 120.0315933227539 380.3330993652344 120.03841400146484 380.50927734375 120.04682159423828L383.3054504394531 120.11339569091797H397.66217041015625L400.73870849609375 120.0465087890625L401.6480712890625 120.02674102783203L401.6646423339844 120.02638244628906C401.6843566894531 120.02651977539062 401.7041015625 120.0264663696289 401.7238464355469 120.02640533447266L401.7259216308594 120.02639770507812L401.7298889160156 120.02638244628906H462.0115051269531C463.53924560546875 119.88993072509766 465.148193359375 119.90813446044922 466.8343505859375 120.10091400146484C468.6495361328125 120.23555755615234 470.33917236328125 120.54960632324219 471.9033203125 121.01821899414062L472.5365295410156 121.14485931396484C472.93597412109375 121.21673583984375 473.33929443359375 121.29861450195312 473.7464294433594 121.3907699584961C474.25665283203125 121.50169372558594 474.75469970703125 121.62470245361328 475.2406311035156 121.75926971435547L478.47308349609375 122.57144165039062C478.5434875488281 122.58843231201172 478.6136169433594 122.60563659667969 478.68353271484375 122.62306213378906L479.79718017578125 122.86223602294922C479.92095947265625 122.88042449951172 480.045166015625 122.89949798583984 480.1697692871094 122.91947937011719L484.8465881347656 123.68082427978516C484.9837646484375 123.70323181152344 485.1201171875 123.72652435302734 485.25567626953125 123.75067901611328L487.89056396484375 124.03943634033203L492.3947448730469 124.35515594482422C492.48065185546875 124.36122131347656 492.5662841796875 124.36764526367188 492.6516418457031 124.37443542480469L494.70050048828125 124.4421615600586C494.8182373046875 124.44869995117188 494.9354248046875 124.4559326171875 495.0521240234375 124.46385192871094L495.772705078125 124.4893569946289C496.4691467285156 124.41802215576172 497.18487548828125 124.37281799316406 497.9198913574219 124.35515594482422L500.9447021484375 124.2999038696289C501.6982727050781 124.23583221435547 502.4737243652344 124.20288848876953 503.2710266113281 124.20288848876953L505.8260192871094 124.23725891113281C507.3446044921875 124.13436126708984 508.9451904296875 124.17609405517578 510.6253356933594 124.38018798828125C511.3807067871094 124.44922637939453 512.1138305664062 124.5495376586914 512.8247680664062 124.67925262451172C513.968994140625 124.76911163330078 515.14990234375 124.94163513183594 516.3660888671875 125.20350646972656L521.3692016601562 126.3128890991211C521.6876220703125 126.38145446777344 522.0013427734375 126.45460510253906 522.3103637695312 126.5322265625L525.4586791992188 127.2184066772461C525.5166015625 127.22815704345703 525.5745849609375 127.23810577392578 525.6326904296875 127.24825286865234L528.6044311523438 127.77030944824219H530.4617919921875C531.5245361328125 127.77908325195312 532.5479736328125 127.8460693359375 533.5321655273438 127.96697235107422L534.4335327148438 128.01971435546875C534.9708862304688 128.02886962890625 535.5177001953125 128.05429077148438 536.073974609375 128.0966033935547L536.936767578125 128.1554412841797C538.6039428710938 127.7026138305664 540.4068603515625 127.42440032958984 542.344970703125 127.3497314453125C544.0974731445312 127.21353149414062 545.7609252929688 127.2644271850586 547.3313598632812 127.47956848144531C547.8026733398438 127.51128387451172 548.265625 127.55473327636719 548.7200927734375 127.60950469970703L551.0397338867188 127.33525848388672C552.3478393554688 127.18507385253906 553.60693359375 127.13093566894531 554.81591796875 127.16472625732422C555.4019165039062 127.14317321777344 556.0001220703125 127.1417465209961 556.6102294921875 127.16131591796875C557.8062133789062 127.1751708984375 558.9524536132812 127.26437377929688 560.0487670898438 127.42257690429688L562.0030517578125 127.5962905883789C562.6624145507812 127.65239715576172 563.3047485351562 127.72979736328125 563.9302368164062 127.82746124267578L565.8097534179688 127.5962905883789C566.4564208984375 127.52552032470703 567.0909423828125 127.4781265258789 567.7131958007812 127.45311737060547C569.223388671875 127.21458435058594 570.82958984375 127.11141204833984 572.5313110351562 127.16123962402344L572.5469970703125 127.16193389892578C573.1734008789062 127.16703796386719 573.7864379882812 127.19463348388672 574.3861083984375 127.2436752319336L575.0532836914062 127.27333068847656C575.7823486328125 127.263427734375 576.5297241210938 127.28353881835938 577.295166015625 127.33525848388672L581.2796630859375 127.64899444580078L585.38720703125 127.34015655517578L588.9328002929688 126.92195892333984C589.201416015625 126.8917236328125 589.468017578125 126.86553955078125 589.7324829101562 126.84332275390625L594.283935546875 126.22587585449219C594.9104614257812 126.15016174316406 595.5258178710938 126.0965347290039 596.1299438476562 126.06409454345703L600.0701293945312 125.63855743408203C601.4136352539062 125.49142456054688 602.704833984375 125.44530487060547 603.9427490234375 125.49140930175781C605.2379760742188 125.38260650634766 606.5941772460938 125.37908935546875 608.0098876953125 125.49205017089844C609.0877685546875 125.54405212402344 610.1232299804688 125.65919494628906 611.1162109375 125.83243560791016L611.7100219726562 125.89958953857422H611.9542846679688L612.8170776367188 125.81185150146484L612.8600463867188 125.8074722290039L613.9280395507812 125.68058013916016C614.3683471679688 125.5988998413086 614.8174438476562 125.52677917480469 615.2752075195312 125.46453857421875L617.0588989257812 125.20350646972656C617.6856079101562 125.12042236328125 618.3014526367188 125.05966186523438 618.9063110351562 125.02033996582031C618.9548950195312 125.0146255493164 619.0036010742188 125.009033203125 619.0523681640625 125.0035629272461C621.2251586914062 124.50528717041016 623.5724487304688 124.3575439453125 626.0692749023438 124.6366195678711C637.7070922851562 115.08396911621094 658.2109375 120.99559783935547 661.41259765625 136.71705627441406C662.1233520507812 139.90301513671875 662.0886840820312 143.47201538085938 661.0726928710938 147.3533477783203C660.9829711914062 147.72268676757812 660.8869018554688 148.0854034423828 660.7847290039062 148.4415283203125L660.7380981445312 148.674560546875C660.3291625976562 150.0524139404297 659.837890625 151.33157348632812 659.2744140625 152.5150604248047C659.2150268554688 152.64767456054688 659.1548461914062 152.77920532226562 659.0939331054688 152.9095916748047L659.078125 152.94471740722656C658.6707153320312 153.97604370117188 658.175537109375 155.01390075683594 657.5868530273438 156.0545196533203C656.7545776367188 157.811279296875 655.6317138671875 159.5271453857422 654.187255859375 161.1648406982422C652.4808349609375 163.4773712158203 650.1881103515625 165.50436401367188 647.2554931640625 167.07017517089844C645.3394165039062 168.5782012939453 643.223388671875 169.6621856689453 641.0075073242188 170.35812377929688C636.1004028320312 172.08375549316406 630.8798828125 171.70932006835938 626.2256469726562 169.84365844726562C624.5348510742188 169.57135009765625 622.966796875 169.14059448242188 621.5208129882812 168.57388305664062L621.0396118164062 168.64344787597656C620.5486450195312 168.7085418701172 620.064453125 168.75990295410156 619.5869140625 168.7980194091797L619.0166015625 168.88272094726562C618.6213989257812 168.94015502929688 618.23046875 168.98866271972656 617.8439331054688 169.02842712402344C617.228271484375 169.1353759765625 616.5960083007812 169.2205352783203 615.9473266601562 169.28268432617188L615.6884765625 169.31777954101562C614.3052978515625 169.46359252929688 612.9778442382812 169.50308227539062 611.7070922851562 169.44577026367188C610.6864013671875 169.48153686523438 609.6298828125 169.45376586914062 608.53857421875 169.357421875C607.4381103515625 169.29197692871094 606.3826904296875 169.16094970703125 605.3724365234375 168.96974182128906H603.9481811523438L600.8018188476562 169.3221435546875C600.4193115234375 169.38604736328125 600.0303955078125 169.44268798828125 599.6350708007812 169.49180603027344L593.9358520507812 170.1661376953125C593.49609375 170.2194366455078 593.061767578125 170.26181030273438 592.6329956054688 170.29354858398438L589.5200805664062 170.66644287109375C588.6484375 170.76190185546875 587.7987670898438 170.81484985351562 586.9713134765625 170.8277130126953L585.5988159179688 170.95155334472656C584.3606567382812 171.1500244140625 583.0590209960938 171.25387573242188 581.69482421875 171.25283813476562C580.1199951171875 171.29612731933594 578.625732421875 171.2017822265625 577.2131958007812 170.98486328125L575.4625854492188 170.84915161132812C575.3344116210938 170.8471221923828 575.2056274414062 170.84422302246094 575.0763549804688 170.8404541015625L572.69677734375 170.7322998046875L569.9554443359375 170.92355346679688C568.2144165039062 171.3328857421875 566.3381958007812 171.54095458984375 564.3306884765625 171.5136260986328C562.3283081054688 171.5720672607422 560.4541625976562 171.39773559570312 558.7118530273438 171.02371215820312L557.8265380859375 170.92747497558594C557.46728515625 170.88824462890625 557.1131591796875 170.8428192138672 556.7642822265625 170.79135131835938L555.696044921875 170.69424438476562L554.8781127929688 170.7204132080078C552.9326171875 171.1715850830078 550.8176879882812 171.37437438964844 548.5377197265625 171.28204345703125C547.311279296875 171.28187561035156 546.1345825195312 171.19259643554688 545.0084838867188 171.0222930908203C543.3094482421875 171.50038146972656 541.4712524414062 171.78616333007812 539.496826171875 171.84622192382812C537.2457885742188 172.03707885742188 535.1381225585938 171.9131317138672 533.1834106445312 171.52389526367188C533.1318969726562 171.52099609375 533.080322265625 171.51797485351562 533.0286254882812 171.51478576660156L529.0482788085938 171.2819061279297C527.8749389648438 171.36007690429688 526.6539916992188 171.34906005859375 525.3867797851562 171.2403106689453C523.5462646484375 171.14645385742188 521.8302612304688 170.8730926513672 520.2388916015625 170.44447326660156L518.1498413085938 170.07911682128906C517.6202392578125 169.9861602783203 517.1029663085938 169.88026428222656 516.5979614257812 169.76197814941406L512.276611328125 168.88272094726562C511.68035888671875 168.7560577392578 511.1006164550781 168.61325073242188 510.5372009277344 168.455078125L507.7973937988281 167.89764404296875L506.7640686035156 167.7561798095703L503.6163330078125 167.71363830566406L499.6704406738281 167.83749389648438C498.3725280761719 168.01158142089844 497.00616455078125 168.08592224121094 495.5718688964844 168.0496368408203C494.93511962890625 168.05178833007812 494.31195068359375 168.03065490722656 493.7025146484375 167.98733520507812C493.2516784667969 167.9853515625 492.7939758300781 167.97213745117188 492.3294677734375 167.94737243652344L490.6023864746094 167.83412170410156C490.19024658203125 167.82337951660156 489.7725830078125 167.80320739746094 489.349365234375 167.77334594726562L484.6725769042969 167.44705200195312C484.0092468261719 167.40023803710938 483.3627624511719 167.3317413330078 482.7330017089844 167.2425994873047L479.82940673828125 166.93011474609375C479.4206237792969 166.8942413330078 479.00701904296875 166.84841918945312 478.5886535644531 166.7923583984375C478.0215148925781 166.72119140625 477.4676208496094 166.6343231201172 476.92694091796875 166.53245544433594L473.2089538574219 165.92437744140625C472.3047180175781 165.77676391601562 471.43597412109375 165.59104919433594 470.602294921875 165.36993408203125L470.2711181640625 165.301025390625C469.6150207519531 165.19541931152344 468.9482421875 165.06280517578125 468.2711181640625 164.90200805664062L464.328857421875 163.8916778564453L462.5284118652344 163.53158569335938H401.81689453125L398.7408142089844 163.59881591796875C398.4425048828125 163.61013793945312 398.1409606933594 163.61676025390625 397.836181640625 163.61859130859375H394.8546142578125L391.2016296386719 163.6184539794922L391.1146240234375 163.61859130859375H387.1317138671875C387.0456848144531 163.61911010742188 386.95941162109375 163.61924743652344 386.87286376953125 163.61859130859375H383.384521484375C383.1569519042969 163.62135314941406 382.92755126953125 163.62136840820312 382.6963806152344 163.61859130859375L382.51312255859375 163.61422729492188L382.2098388671875 163.6070098876953L379.84808349609375 163.55078125L380.412353515625 165.3153076171875C380.47564697265625 165.51585388183594 380.5362854003906 165.71563720703125 380.5943298339844 165.91465759277344L381.521728515625 168.29541015625C381.9962158203125 169.60891723632812 382.35308837890625 170.8936309814453 382.6014709472656 172.14620971679688L383.4731750488281 175.19139099121094L383.9961242675781 176.79981994628906C384.37310791015625 177.70545959472656 384.7097473144531 178.66246032714844 385.00213623046875 179.67201232910156L387.0469055175781 186.65460205078125C387.296142578125 187.5245819091797 387.4969482421875 188.37916564941406 387.6518249511719 189.21763610839844L388.6233215332031 193.3108673095703C388.83013916015625 194.06048583984375 389.008056640625 194.8388214111328 389.15509033203125 195.64617919921875C389.28167724609375 196.29220581054688 389.38226318359375 196.92822265625 389.45794677734375 197.55398559570312L390.05682373046875 201.45236206054688C390.2535705566406 202.31375122070312 390.4114074707031 203.2107391357422 390.5273132324219 204.14369201660156L391.0449523925781 208.57244873046875C391.1072998046875 209.0166015625 391.1596374511719 209.4690704345703 391.2016296386719 209.9298858642578L391.5005798339844 213.26296997070312C391.6019592285156 213.97244262695312 391.6768493652344 214.70309448242188 391.72369384765625 215.45504760742188L391.9629821777344 220.0448455810547C391.9991149902344 220.66021728515625 392.0148010253906 221.263671875 392.0108337402344 221.85516357421875L392.10235595703125 224.3610076904297C392.1153564453125 224.53086853027344 392.1269226074219 224.7018280029297 392.1369934082031 224.87391662597656L392.5720520019531 232.03053283691406C392.5743103027344 232.07101440429688 392.5764465332031 232.11143493652344 392.5785217285156 232.1518096923828L393.14154052734375 237.9911346435547C393.1801452636719 238.26341247558594 393.2151184082031 238.538818359375 393.2463684082031 238.8173370361328L394.0094299316406 246.09304809570312C394.11773681640625 246.73838806152344 394.20458984375 247.40199279785156 394.2687683105469 248.08395385742188L394.9552001953125 255.8899688720703L395.9654541015625 262.8757019042969C396.04351806640625 263.4482116699219 396.1029052734375 264.0116882324219 396.144287109375 264.5660095214844L397.401123046875 272.96893310546875C397.51544189453125 273.7721862792969 397.5928955078125 274.55780029296875 397.6353454589844 275.325439453125L398.6441345214844 283.600830078125L400.2942199707031 292.93780517578125C400.351806640625 293.26519775390625 400.4031066894531 293.5898132324219 400.4482727050781 293.9116516113281L401.8309631347656 301.8708190917969C401.9244079589844 302.34161376953125 402.0068664550781 302.8226013183594 402.07794189453125 303.3138122558594L402.8240966796875 308.6480407714844C403.021484375 309.5774841308594 403.17279052734375 310.54736328125 403.2743225097656 311.55804443359375L404.29669189453125 321.760009765625C404.3835144042969 322.63079833984375 404.4281005859375 323.4792175292969 404.4328308105469 324.3050231933594L404.9710388183594 331.7009582519531C405.0117492675781 332.3296813964844 405.03106689453125 332.94610595703125 405.02984619140625 333.5501403808594L405.3190612792969 340.1844482421875C405.3381042480469 340.62164306640625 405.3469543457031 341.0527038574219 405.345947265625 341.4775695800781L405.5474853515625 347.9080505371094L406.4067077636719 355.4765319824219C406.551513671875 356.7997741699219 406.5985107421875 358.0722351074219 406.55609130859375 359.29302978515625L406.7547607421875 365.7655029296875C406.76800537109375 366.2695617675781 406.7678527832031 366.76519775390625 406.7547607421875 367.25244140625V370.1271057128906C406.7585754394531 370.39215087890625 406.7586669921875 370.6596374511719 406.75494384765625 370.9295959472656L406.7547607421875 370.942626953125V373.8794250488281C406.77099609375 374.4200134277344 406.7712097167969 374.9710388183594 406.7547607421875 375.5324401855469L406.5025939941406 382.5928955078125C406.50030517578125 382.70428466796875 406.4973449707031 382.81610107421875 406.49371337890625 382.9283142089844L406.2326965332031 390.6722412109375C406.23040771484375 390.7445983886719 406.2278747558594 390.8167724609375 406.2250671386719 390.88873291015625L405.993408203125 400.09112548828125C405.9885559082031 400.27618408203125 405.98193359375 400.46002197265625 405.9736022949219 400.64263916015625L405.81939697265625 405.61627197265625C405.8182373046875 405.6656494140625 405.8169860839844 405.7149353027344 405.8155822753906 405.7641296386719L405.73236083984375 410.8804016113281C405.7305908203125 410.96771240234375 405.7284240722656 411.0547790527344 405.72589111328125 411.14154052734375L405.6589660644531 414.7391052246094L406.18975830078125 421.6697082519531C406.2387390136719 422.00567626953125 406.2821044921875 422.3464660644531 406.3197021484375 422.69207763671875L407.06268310546875 430.1219177246094C407.177978515625 430.7732849121094 407.271484375 431.4435119628906 407.3420715332031 432.1326904296875L408.1904296875 440.9642639160156C408.32147216796875 442.2345275878906 408.36297607421875 443.45745849609375 408.3222961425781 444.63232421875L408.4514465332031 449.5565490722656C408.45635986328125 449.9645080566406 408.4525451660156 450.3668212890625 408.4403076171875 450.7635192871094L408.68658447265625 456.6584777832031C408.6963195800781 456.806396484375 408.7049560546875 456.9551086425781 408.7124938964844 457.10467529296875L409.1099548339844 464.384521484375L409.12579345703125 464.6745910644531L409.3868103027344 469.6777038574219C409.406005859375 470.0652770996094 409.41717529296875 470.44805908203125 409.4205017089844 470.8260192871094L409.6478576660156 476.8125305175781C409.66021728515625 477.13555908203125 409.66705322265625 477.4552001953125 409.66845703125 477.7714538574219L409.8218688964844 483.62109375C409.83062744140625 483.9545593261719 409.8335266113281 484.28436279296875 409.8306884765625 484.6104431152344L409.8871154785156 489.8205871582031C409.8899230957031 489.97723388671875 409.8914489746094 490.133056640625 409.8917236328125 490.2880554199219L409.968994140625 495.19415283203125L409.9725036621094 495.4163513183594L409.97412109375 495.519775390625L409.97503662109375 495.6067810058594L409.59912109375 495.6095886230469C409.73236083984375 496.377197265625 409.83148193359375 497.1704406738281 409.8942565917969 497.98931884765625C409.9398498535156 497.40838623046875 409.9667663574219 496.8145751953125 409.97412109375 496.2078552246094L409.9739990234375 500.0225830078125C409.9740905761719 500.0515441894531 409.97412109375 500.08056640625 409.9745178222656 500.1095886230469C409.9747619628906 500.1961364746094 409.9746398925781 500.282470703125 409.97412109375 500.3684997558594V506.2220458984375L409.9742126464844 506.2655029296875L409.97412109375 506.30908203125V535.7185668945312C409.97412109375 537.5089721679688 409.8087463378906 539.188720703125 409.4984130859375 540.7578735351562C409.6242980957031 541.352783203125 409.7323913574219 541.9642333984375 409.8218688964844 542.5924072265625L410.67022705078125 548.7048950195312C410.89599609375 550.2986450195312 410.9765625 551.8228759765625 410.9266052246094 553.275390625L411.0835266113281 556.6881103515625C411.1167297363281 557.6292724609375 411.10296630859375 558.54150390625 411.0451965332031 559.4246215820312L411.0115966796875 561.0033569335938C411.01788330078125 561.4574584960938 411.0129699707031 561.9187622070312 410.9964904785156 562.3872680664062L410.84271240234375 567.865478515625C410.8406982421875 568.1609497070312 410.833984375 568.4594116210938 410.8224792480469 568.7608032226562L410.58319091796875 575.0473022460938C410.5749206542969 575.24755859375 410.56463623046875 575.4463500976562 410.5523681640625 575.6436767578125L410.3221740722656 580.7464599609375C410.32086181640625 580.7838134765625 410.3194885253906 580.8211059570312 410.3180236816406 580.8583374023438L410.23516845703125 584.814208984375C410.2330627441406 584.8792724609375 410.2307434082031 584.9441528320312 410.22821044921875 585.0089111328125L410.1481628417969 590.0130615234375C410.1461181640625 590.1015014648438 410.1436767578125 590.1896362304688 410.14080810546875 590.2775268554688L410.0856018066406 593.561767578125L410.67022705078125 597.4742431640625C410.6973571777344 597.6744995117188 410.7221984863281 597.8736572265625 410.74481201171875 598.0717163085938L411.4315490722656 601.8247680664062C411.4763488769531 602.089599609375 411.5170593261719 602.3526000976562 411.5537414550781 602.61376953125L412.2799072265625 606.9148559570312C412.4619140625 608.008544921875 412.5743103027344 609.0708618164062 412.6219177246094 610.1010131835938L413.01409912109375 613.4290771484375C413.0977478027344 613.9921875 413.1650390625 614.5687866210938 413.21527099609375 615.1590576171875L413.8025817871094 621.5325927734375C413.8480529785156 622.0668334960938 413.8778381347656 622.5924682617188 413.89251708984375 623.1094970703125L414.0673828125 625.371826171875L414.833984375 629.3701171875L414.9119873046875 629.77685546875L414.9872131347656 630.2091064453125L415.9496154785156 635.7380981445312C416.0019226074219 636.0120239257812 416.05059814453125 636.2894287109375 416.0955810546875 636.5701904296875C416.0998840332031 636.5969848632812 416.1041564941406 636.623779296875 416.10906982421875 636.6505126953125C416.12945556640625 636.7730712890625 416.14892578125 636.895263671875 416.1675109863281 637.01708984375L417.1089782714844 642.8501586914062C417.2024230957031 643.4417114257812 417.275634765625 644.0239868164062 417.329345703125 644.5968017578125L417.9378356933594 649.0928344726562L418.36627197265625 651.1580200195312L419.67578125 656.271484375C419.8125915527344 656.8174438476562 419.93084716796875 657.3567504882812 420.03118896484375 657.8893432617188L420.93743896484375 661.8836669921875C421.063232421875 662.4330444335938 421.1705017089844 662.975341796875 421.2598876953125 663.510498046875L421.872802734375 666.386474609375C422.0380554199219 667.2249755859375 422.1614685058594 668.046142578125 422.2452087402344 668.8495483398438L422.2698669433594 668.99658203125C422.45550537109375 669.8699340820312 422.60052490234375 670.779052734375 422.70172119140625 671.7241821289062C422.7347106933594 671.989990234375 422.7635803222656 672.2540283203125 422.788330078125 672.51611328125L422.99786376953125 674.4017944335938C423.1138000488281 675.1912231445312 423.1962890625 676.0071411132812 423.24322509765625 676.8494873046875L423.2521667480469 677.04931640625C423.26434326171875 677.2646484375 423.27386474609375 677.4784545898438 423.28082275390625 677.69091796875L423.4003601074219 680.3658447265625L423.41851806640625 680.5082397460938L423.81353759765625 682.054443359375L423.8305358886719 682.1135864257812L424.8529052734375 685.593994140625C425.11749267578125 686.5175170898438 425.327392578125 687.4237670898438 425.4856262207031 688.3117065429688L426.04931640625 690.6188354492188C426.2275390625 691.39892578125 426.3684997558594 692.164794921875 426.4739685058594 692.9161987304688L426.8106384277344 694.599609375C426.9686584472656 695.4713745117188 427.08203125 696.3239135742188 427.1531982421875 697.15673828125C427.30218505859375 697.99853515625 427.41363525390625 698.8717651367188 427.4849853515625 699.7767333984375L427.630615234375 701.7307739257812C427.7308654785156 702.5047607421875 427.79901123046875 703.3035278320312 427.8330078125 704.127197265625L427.8872375488281 706.4993286132812C427.9382019042969 707.0804443359375 427.9711608886719 707.6746215820312 427.98529052734375 708.281982421875V711.2620849609375C427.9913024902344 711.5123291015625 427.9940185546875 711.760498046875 427.9934997558594 712.0065307617188L428.05303955078125 715.0442504882812L428.07220458984375 716.0216064453125L428.0722351074219 716.02587890625L428.0722961425781 716.0911254882812V720.1820678710938L428.0724182128906 720.2676391601562L428.0722961425781 720.3546752929688L428.0717468261719 720.3778686523438L428.0498962402344 721.3179321289062L427.98529052734375 724.0961303710938V758.529052734375C428.07794189453125 759.8723754882812 428.0591735839844 761.2802734375 427.91693115234375 762.7511596679688C427.881591796875 763.249755859375 427.83270263671875 763.7390747070312 427.77081298828125 764.2189331054688C427.6806640625 765.3549194335938 427.50201416015625 766.5234985351562 427.22747802734375 767.7222290039062C427.14141845703125 768.1845092773438 427.0445251464844 768.6371459960938 426.9372863769531 769.0801391601562C426.8470153808594 770.0658569335938 426.6853332519531 771.0717163085938 426.4469299316406 772.0953369140625C427.61749267578125 776.4982299804688 427.4300842285156 781.24462890625 425.39202880859375 785.6883544921875C424.13128662109375 789.4407348632812 421.86138916015625 792.4943237304688 419.00286865234375 794.7884521484375C414.64617919921875 798.75048828125 408.63677978515625 800.9171142578125 401.5590515136719 799.6275634765625C399.0581359863281 799.3286743164062 396.6134033203125 798.625 394.3604431152344 797.4970092773438C391.2040710449219 796.0435180664062 388.3970947265625 793.8245239257812 386.2995300292969 790.8236694335938C384.1524353027344 787.960693359375 382.9210205078125 784.67626953125 382.4916076660156 781.2921142578125L382.3700866699219 781.0226440429688L382.34197998046875 780.9573364257812L382.1960754394531 780.6746215820312C382.04205322265625 780.3313598632812 381.89666748046875 779.9895629882812 381.7597351074219 779.6492919921875C377.9087829589844 770.9739990234375 379.8047180175781 763.1189575195312 384.4800720214844 757.5523681640625V742.5205688476562L384.4801330566406 742.4901733398438L384.4801025390625 742.4771728515625L384.4800720214844 742.4335327148438V723.8350830078125C384.4822692871094 723.4677124023438 384.491455078125 723.1051025390625 384.5074157714844 722.7471313476562L384.5671081542969 720.1806640625V716.2651977539062L384.4971008300781 712.7133178710938C384.4898986816406 712.5424194335938 384.4842224121094 712.3704833984375 384.4800720214844 712.1974487304688V709.6524047851562L384.32781982421875 705.9109497070312L384.3252258300781 705.8408813476562L384.09771728515625 703.5090942382812L383.81378173828125 701.6350708007812L383.3924560546875 699.450439453125C383.3636169433594 699.2939453125 383.3362121582031 699.1381225585938 383.31024169921875 698.98291015625L382.7132263183594 696.5392456054688L382.02203369140625 694.186279296875C381.9424743652344 693.9083862304688 381.8678894042969 693.6321411132812 381.79815673828125 693.357421875L381.086669921875 690.858154296875C380.5953674316406 689.0330810546875 380.3138122558594 687.2789306640625 380.2189025878906 685.6019897460938C380.10382080078125 684.806884765625 380.0225524902344 683.98486328125 379.977294921875 683.135986328125L379.7464599609375 679.3588256835938L379.5292053222656 676.914794921875L379.04193115234375 674.13037109375Q379.02276611328125 674.0123291015625 379.0046691894531 673.8948974609375L378.36761474609375 670.8892211914062C378.3243713378906 670.6707153320312 378.28399658203125 670.453369140625 378.2464599609375 670.2372436523438L377.685791015625 667.8416137695312C377.596923828125 667.5354614257812 377.51239013671875 667.2244262695312 377.4322509765625 666.9085083007812L376.630126953125 663.5064697265625C376.3514709472656 662.6441040039062 376.1102600097656 661.7408447265625 375.9095458984375 660.7960205078125L375.43353271484375 658.4525146484375C375.1175231933594 657.287353515625 374.8747253417969 656.0531005859375 374.7131652832031 654.7488403320312L374.0896911621094 649.4190063476562L373.2867431640625 644.09716796875L373.2774963378906 644.0465698242188L372.09002685546875 637.6341552734375L372.08111572265625 637.5859985351562L370.9717102050781 631.7998046875C370.654541015625 630.0567626953125 370.5172424316406 628.3908081054688 370.5401306152344 626.8057250976562L370.3843994140625 624.751953125C370.36480712890625 624.4492797851562 370.3501892089844 624.1494750976562 370.3404235839844 623.8525390625L369.88409423828125 618.9005126953125C369.8800964355469 618.85400390625 369.876220703125 618.8076171875 369.8724670410156 618.76123046875L369.1880187988281 613.1143188476562C369.17889404296875 613.0387573242188 369.1700744628906 612.96337890625 369.1615905761719 612.88818359375L368.6587219238281 609.9740600585938C368.60723876953125 609.7186279296875 368.5588684082031 609.4602661132812 368.513671875 609.1988525390625L367.9989013671875 606.1103515625C367.79083251953125 605.2543334960938 367.62066650390625 604.3624877929688 367.4913024902344 603.4344482421875L366.9707946777344 599.5380249023438C366.8199462890625 598.724853515625 366.7082214355469 597.8826904296875 366.6384582519531 597.0115356445312C366.4185791015625 595.071533203125 366.4165954589844 593.2386474609375 366.60467529296875 591.5167846679688L366.6352233886719 589.6908569335938C366.6355895996094 589.4878540039062 366.6381530761719 589.2835083007812 366.6429443359375 589.0776977539062L366.7155456542969 584.5401611328125C366.7135009765625 584.186279296875 366.71826171875 583.828125 366.7299499511719 583.465576171875L366.893798828125 579.5338745117188C366.8966369628906 579.4308471679688 366.9000244140625 579.3275146484375 366.90399169921875 579.2238159179688L367.0596618652344 573.9696044921875C367.0628356933594 573.736083984375 367.06890869140625 573.500732421875 367.0780029296875 573.2635498046875L367.3172912597656 566.97705078125C367.3263244628906 566.7586059570312 367.33770751953125 566.5419311523438 367.35150146484375 566.3269653320312L367.5069274902344 562.583984375C367.4942932128906 562.2116088867188 367.489013671875 561.834228515625 367.4913024902344 561.451904296875L367.5659484863281 557.9624633789062L367.3448791503906 553.1354370117188L366.7299499511719 548.7048950195312C366.30657958984375 545.7164306640625 366.3938293457031 542.9727783203125 366.8946228027344 540.4877319335938C366.6165771484375 538.9961547851562 366.46893310546875 537.4064331054688 366.46893310546875 535.7185668945312V495.9330749511719L366.3899841308594 490.9190673828125ZM381.474365234375 778.9093017578125C378.4957275390625 770.8344116210938 380.2799377441406 763.6660766601562 384.4800720214844 758.4591064453125V757.9186401367188C380.09442138671875 763.2437133789062 378.2405700683594 770.6417846679688 381.474365234375 778.9093017578125ZM366.46893310546875 495.9330749511719C366.4768371582031 496.59423828125 366.5071105957031 497.2400817871094 366.5586853027344 497.8706359863281C366.61285400390625 497.2070617675781 366.6911315917969 496.5604248046875 366.792236328125 495.9306640625L366.46893310546875 495.9330749511719Z" fill="black"/>
</svg>
