<svg xmlns="http://www.w3.org/2000/svg" viewBox="0 0 997 1000">
  <path d="M45.330772399902344 127.19007873535156C48.349090576171875 122.12222290039062 52.61103057861328 118.31887817382812 57.507808685302734 115.76154327392578C62.86863327026367 112.40442657470703 68.58867645263672 110.96411895751953 74.18943786621094 111.04312133789062C76.36284637451172 110.92959594726562 78.4703598022461 111.04232025146484 80.50061798095703 111.35662078857422H80.94835662841797C81.02188873291016 111.35643768310547 81.09553527832031 111.35643768310547 81.1693115234375 111.35662078857422H111.248291015625C112.47908782958984 111.31300354003906 113.74474334716797 111.32481384277344 115.04508972167969 111.39533996582031C115.43622589111328 111.41190338134766 115.82374572753906 111.4337387084961 116.20764923095703 111.46073150634766L117.75331115722656 111.48004913330078C118.77721405029297 111.45628356933594 119.82445526123047 111.4725112915039 120.89483642578125 111.53071594238281C122.47116088867188 111.58699035644531 123.9891128540039 111.72673797607422 125.44879150390625 111.94386291503906L126.92310333251953 112.09256744384766C127.32344055175781 112.12762451171875 127.72686767578125 112.16858673095703 128.13336181640625 112.2155532836914L130.188232421875 112.44769287109375C130.4943084716797 112.47309875488281 130.8022003173828 112.50191497802734 131.11190795898438 112.53418731689453L135.87759399414062 113.03292083740234C136.272705078125 113.0745849609375 136.66375732421875 113.12113189697266 137.05078125 113.1724853515625L137.6335906982422 113.22856903076172C137.9285430908203 113.2479476928711 138.2252197265625 113.27046203613281 138.52365112304688 113.296142578125L140.59451293945312 113.50016784667969C140.6798858642578 113.50578308105469 140.76539611816406 113.51166534423828 140.85105895996094 113.5177993774414L142.37594604492188 113.63675689697266L142.85360717773438 113.65998077392578C143.01673889160156 113.66246795654297 143.18043518066406 113.6658706665039 143.3447265625 113.6701889038086L147.07138061523438 113.78102111816406C147.21182250976562 113.7849349975586 147.35179138183594 113.78949737548828 147.49131774902344 113.7947006225586L150.59022521972656 113.83643341064453H162.28274536132812Q162.44882202148438 113.8358154296875 162.61407470703125 113.83643341064453H164.23611450195312C164.25369262695312 113.8365249633789 164.27130126953125 113.83648681640625 164.2888946533203 113.83644104003906L164.29153442382812 113.83643341064453L164.305419921875 113.83622741699219L168.07359313964844 113.78102111816406C169.9201202392578 113.77645111083984 171.6908416748047 113.8862533569336 173.38568115234375 114.10100555419922L175.5146484375 114.15913391113281L177.73440551757812 114.127197265625C177.92132568359375 114.1214599609375 178.10906982421875 114.11689758300781 178.29762268066406 114.11351013183594L180.40968322753906 114.08354949951172C181.52012634277344 114.02928161621094 182.6597442626953 114.01943969726562 183.82843017578125 114.05641174316406C184.23919677734375 114.0636978149414 184.64610290527344 114.07685089111328 185.04916381835938 114.09577178955078C186.34683227539062 114.08560943603516 187.68115234375 114.13959503173828 189.05174255371094 114.26170349121094C190.0828094482422 114.33710479736328 191.08755493164062 114.44842529296875 192.06602478027344 114.59386444091797L193.07952880859375 114.70922088623047C193.3922576904297 114.7414779663086 193.70245361328125 114.77678680419922 194.0101318359375 114.81511688232422L196.95770263671875 115.14898681640625L198.0153350830078 115.21097564697266L198.10858154296875 115.208251953125C199.43470764160156 115.11347198486328 200.80360412597656 115.08340454101562 202.215087890625 115.12234497070312C203.06788635253906 115.13127899169922 203.90435791015625 115.16571807861328 204.7244415283203 115.22466278076172C205.58749389648438 115.22412872314453 206.46693420410156 115.25052642822266 207.36268615722656 115.304931640625L209.61013793945312 115.45066833496094L209.61083984375 115.45071411132812C210.4676055908203 115.37865447998047 211.34268188476562 115.33279418945312 212.23606872558594 115.31415557861328C213.17584228515625 115.28038024902344 214.09716796875 115.27774047851562 214.9998321533203 115.304931640625H215.96583557128906C217.04913330078125 115.30728149414062 218.10610961914062 115.34893798828125 219.13677978515625 115.42800903320312L221.21640014648438 115.51273345947266C221.9300079345703 115.54741668701172 222.63140869140625 115.59861755371094 223.3206329345703 115.66577911376953C223.92739868164062 115.67540740966797 224.54209899902344 115.69815826416016 225.16470336914062 115.7343978881836L228.46188354492188 115.9560546875C228.56997680664062 115.96245574951172 228.6777801513672 115.96922302246094 228.78529357910156 115.97637176513672L230.789306640625 116.05303192138672C231.1508331298828 116.07230377197266 231.5092010498047 116.0958023071289 231.86441040039062 116.12346649169922L232.63185119628906 116.16385650634766C232.7860107421875 116.1707763671875 232.93959045410156 116.17845916748047 233.0926055908203 116.18692016601562L233.28895568847656 116.19171142578125C235.89315795898438 115.99034118652344 238.64874267578125 116.07874298095703 241.54769897460938 116.49760437011719C242.49835205078125 116.59684753417969 243.42575073242188 116.72814178466797 244.32984924316406 116.88993835449219C244.6371612548828 116.91472625732422 244.94630432128906 116.94306945800781 245.2572021484375 116.97502136230469C246.38897705078125 117.06717681884766 247.48863220214844 117.2022705078125 248.55624389648438 117.3779067993164L248.5741424560547 117.37931823730469C249.51239013671875 117.33487701416016 250.47116088867188 117.32306671142578 251.45034790039062 117.34539031982422C252.8505859375 117.35221862792969 254.20703125 117.42671966552734 255.51954650878906 117.56456756591797L256.61260986328125 117.63235473632812C257.467529296875 117.68402862548828 258.3045959472656 117.7592544555664 259.1239318847656 117.85708618164062L260.2393798828125 117.94631958007812C260.4884948730469 117.964111328125 260.73883056640625 117.984130859375 260.9903869628906 118.00640106201172L261.38525390625 118.04313659667969L262.323974609375 118.13045501708984C262.52972412109375 118.14300537109375 262.7362976074219 118.15706634521484 262.9437561035156 118.17264556884766L265.68218994140625 118.41131591796875L266.87957763671875 118.4697265625C267.222900390625 118.4728012084961 267.5687561035156 118.47996520996094 267.917236328125 118.49127960205078L271.21441650390625 118.60211181640625C271.3813781738281 118.60753631591797 271.54766845703125 118.61387634277344 271.71331787109375 118.62112426757812L273.2785949707031 118.65752410888672C273.4785461425781 118.66210174560547 273.67755126953125 118.6679916381836 273.87567138671875 118.6751937866211L275.9800720214844 118.71294403076172H285.9994201660156L286.91705322265625 118.59915924072266L288.9653015136719 118.22277069091797C291.7398376464844 117.4158706665039 294.7596435546875 116.93909454345703 298.0208435058594 116.85368347167969C301.4320983886719 116.59661102294922 304.6235656738281 116.79851531982422 307.5829772949219 117.3886489868164C308.1597595214844 117.46630096435547 308.7275390625 117.55524444580078 309.28631591796875 117.65514373779297C309.67095947265625 117.71111297607422 310.0582580566406 117.77275848388672 310.4480895996094 117.84015655517578L312.5122985839844 118.17264556884766C312.6485900878906 118.19636535644531 312.7843322753906 118.22064208984375 312.9195556640625 118.24547576904297L314.0773010253906 118.41190338134766L314.4547424316406 118.45458984375C315.11871337890625 118.3834457397461 315.7940673828125 118.32764434814453 316.4808044433594 118.2877426147461C318.1038513183594 118.1482925415039 319.6771545410156 118.10975646972656 321.1994934082031 118.16490936279297L321.2001647949219 118.16493225097656C321.981201171875 118.15145874023438 322.7489929199219 118.15888977050781 323.5034484863281 118.18648529052734C324.1751708984375 118.18417358398438 324.8569030761719 118.19786071777344 325.5486145019531 118.22805786132812L326.1114501953125 118.2538070678711C326.8002014160156 118.26042175292969 327.4992370605469 118.28398132324219 328.2085266113281 118.32503509521484L329.8440246582031 118.4613265991211C329.9891662597656 118.46873474121094 330.1347961425781 118.47688293457031 330.28076171875 118.48577117919922C330.7897644042969 118.49679565429688 331.3043212890625 118.51703643798828 331.8243713378906 118.54669952392578L333.0290222167969 118.64921569824219C333.17193603515625 118.65128326416016 333.3153076171875 118.654052734375 333.4591064453125 118.65752410888672H333.9439697265625C334.05517578125 118.66182708740234 334.1661071777344 118.66653442382812 334.2767333984375 118.67164611816406C334.80462646484375 118.62059020996094 335.33843994140625 118.5821762084961 335.8780517578125 118.55677032470703C337.32965087890625 118.37553405761719 338.799560546875 118.2957992553711 340.27972412109375 118.32538604736328C368.66290283203125 117.2204360961914 384.7969665527344 154.0162353515625 366.2538757324219 174.43179321289062C364.6867980957031 176.4571075439453 362.9031677246094 178.22654724121094 360.9556579589844 179.7437286376953C357.1269226074219 183.19674682617188 352.5072326660156 185.76678466796875 347.28607177734375 186.99664306640625C344.0079650878906 187.853271484375 340.69287109375 188.12437438964844 337.43658447265625 187.88967895507812C333.35467529296875 187.86366271972656 329.4914245605469 187.01821899414062 325.9446716308594 185.53018188476562C325.8507385253906 185.5238494873047 325.7570495605469 185.51722717285156 325.66357421875 185.5103302001953L324.2602233886719 185.432373046875Q324.0943603515625 185.42257690429688 323.929443359375 185.41159057617188L322.570068359375 185.376953125L322.53387451171875 185.3753204345703C321.0782165527344 185.59732055664062 319.5655212402344 185.7368621826172 317.99615478515625 185.78724670410156C315.0699768066406 186.0020751953125 312.30810546875 185.88711547851562 309.7170715332031 185.4855194091797C309.3472900390625 185.4622039794922 308.9748229980469 185.43377685546875 308.5996398925781 185.40016174316406L308.56781005859375 185.397705078125L310.7476806640625 189.06492614746094C310.94091796875 189.36399841308594 311.1319885253906 189.6678009033203 311.32086181640625 189.97637939453125L318.5109558105469 201.7797393798828C318.6762390136719 202.0508575439453 318.8374938964844 202.32179260253906 318.9947509765625 202.59255981445312L323.8598937988281 210.32252502441406C324.1593322753906 210.74786376953125 324.4544677734375 211.18356323242188 324.7451171875 211.62973022460938L330.8251953125 221.03909301757812C331.35272216796875 221.78150939941406 331.8662414550781 222.55618286132812 332.3646545410156 223.3638153076172L339.8967590332031 235.54957580566406C340.3020935058594 236.17384338378906 340.6972351074219 236.8192138671875 341.08160400390625 237.4860076904297C341.3262023925781 237.90158081054688 341.5613098144531 238.31675720214844 341.7870178222656 238.73146057128906L347.844970703125 249.45645141601562C348.3124084472656 250.2360076904297 348.763427734375 251.04652404785156 349.1968994140625 251.88858032226562C349.3376159667969 252.15576171875 349.4745178222656 252.4226531982422 349.60772705078125 252.689208984375L353.3335266113281 259.9499816894531C353.89105224609375 260.9420166015625 354.4190368652344 261.9825744628906 354.9150085449219 263.0727233886719C355.40838623046875 264.1075134277344 355.847900390625 265.1357421875 356.2357177734375 266.1562805175781L360.880126953125 277.14483642578125C361.124755859375 277.6938781738281 361.3608093261719 278.2554931640625 361.5879211425781 278.82965087890625C361.7935485839844 279.3352355957031 361.9872741699219 279.8384704589844 362.1692810058594 280.3393249511719L366.93634033203125 292.7756652832031C366.9759216308594 292.8752746582031 367.0152587890625 292.97528076171875 367.0543212890625 293.0756530761719L372.5819396972656 307.13714599609375C372.71783447265625 307.4863586425781 372.84820556640625 307.8343811035156 372.9731140136719 308.18115234375L376.6965026855469 317.91534423828125C376.8651428222656 318.3551940917969 377.0250549316406 318.7930908203125 377.1763916015625 319.2289733886719L381.7966613769531 331.34283447265625C381.9571533203125 331.72833251953125 382.113525390625 332.1197509765625 382.26568603515625 332.5171203613281L387.2689208984375 345.5690612792969C387.3714904785156 345.8154602050781 387.472412109375 346.0642395019531 387.5716552734375 346.3154296875L393.3625183105469 361.0419006347656C393.44952392578125 361.2623596191406 393.5343017578125 361.48236083984375 393.6169128417969 361.7018737792969L397.7956848144531 371.7508239746094C397.978515625 372.1947937011719 398.15228271484375 372.63690185546875 398.31707763671875 373.0771789550781L403.7520751953125 386.3257141113281C403.9761047363281 386.818603515625 404.1934814453125 387.3216552734375 404.4039001464844 387.8349609375L410.5897216796875 403.0033264160156L416.09368896484375 415.51458740234375C416.2403259277344 415.82452392578125 416.3844299316406 416.1385803222656 416.52587890625 416.45672607421875L420.910400390625 426.4001770019531C420.94525146484375 426.4750061035156 420.9799499511719 426.550048828125 421.0144958496094 426.6253356933594L426.9703063964844 439.62548828125C427.20770263671875 440.0986022949219 427.4391174316406 440.5816345214844 427.6642761230469 441.0747375488281L434.1062316894531 455.26092529296875C434.1593933105469 455.37774658203125 434.2119140625 455.4945068359375 434.2637634277344 455.6111145019531L440.1741638183594 468.4081115722656C440.35076904296875 468.79205322265625 440.5202941894531 469.1749267578125 440.68280029296875 469.55657958984375L443.8975830078125 476.3470153808594L447.4750671386719 483.6748962402344C447.6348571777344 484.00238037109375 447.78936767578125 484.3291320800781 447.9386291503906 484.6551513671875L450.1752624511719 489.1202087402344C450.4741516113281 489.65118408203125 450.7655944824219 490.1957702636719 451.04931640625 490.7541198730469L454.2779541015625 497.1232604980469C454.7769775390625 498.02691650390625 455.2529602050781 498.9698791503906 455.70416259765625 499.9529724121094L460.9323425292969 511.4817810058594C461.31689453125 512.2487182617188 461.68487548828125 513.0420532226562 462.0353088378906 513.8621215820312L466.30224609375 523.8229370117188C466.5457763671875 524.3930053710938 466.7740783691406 524.9602661132812 466.9875183105469 525.5245361328125L472.25933837890625 538.2169189453125C472.64501953125 539.1507568359375 472.9903869628906 540.07666015625 473.2969055175781 540.9939575195312L477.8839416503906 553.3728637695312L477.9107971191406 553.445068359375L482.1241149902344 564.7713012695312C482.32391357421875 565.2391357421875 482.5176086425781 565.7158203125 482.70501708984375 566.201416015625L485.7414855957031 574.0985107421875C485.9656677246094 574.6273193359375 486.1819763183594 575.1674194335938 486.3901062011719 575.7188720703125L490.22137451171875 586.0487670898438C490.2982177734375 586.229248046875 490.3741760253906 586.4109497070312 490.4492492675781 586.5940551757812L494.9378356933594 597.5245971679688C494.9771423339844 597.620849609375 495.01605224609375 597.717041015625 495.05450439453125 597.8131103515625L498.88201904296875 606.5173950195312L501.6359558105469 612.234619140625L505.7112121582031 619.8110961914062L510.22381591796875 627.1148681640625L514.2088623046875 633.0762939453125L517.3790893554688 637.18994140625L517.6578979492188 636.813720703125C517.9692993164062 636.3997192382812 518.2843017578125 635.995849609375 518.6027221679688 635.6021118164062L518.9950561523438 635.0697631835938C519.6687622070312 634.080078125 520.4047241210938 633.0953369140625 521.2052612304688 632.11767578125C521.6407470703125 631.5689697265625 522.0828857421875 631.03955078125 522.5313720703125 630.5289306640625L525.5130004882812 626.9637451171875C525.8684692382812 626.54248046875 526.2273559570312 626.1329956054688 526.5894165039062 625.7350463867188L527.946533203125 624.0906372070312C528.425048828125 623.4615478515625 528.9297485351562 622.8351440429688 529.4613037109375 622.2119140625L533.157470703125 617.875244140625L534.4276733398438 616.2421264648438L537.0392456054688 612.3065185546875Q537.3834838867188 611.78857421875 537.735595703125 611.2897338867188L540.6689453125 606.8897094726562L542.4617919921875 604.1543579101562C542.58251953125 603.9671020507812 542.7052612304688 603.7798461914062 542.830078125 603.592529296875L543.0641479492188 603.2459716796875L544.8223266601562 600.6425170898438L546.5013427734375 598.0094604492188C546.5787353515625 597.8888549804688 546.6565551757812 597.7689819335938 546.734619140625 597.6498413085938L550.4007568359375 591.7205810546875L554.1347045898438 584.6961059570312C554.1810302734375 584.6094360351562 554.2276000976562 584.5230712890625 554.2742919921875 584.4370727539062L556.8916015625 579.2377319335938C557.2677612304688 578.4974365234375 557.6575317382812 577.7813720703125 558.0601806640625 577.0890502929688L560.6910400390625 572.2601318359375C560.9934692382812 571.6461791992188 561.3153686523438 571.0303955078125 561.6572875976562 570.4129028320312L565.218505859375 564.065185546875C565.4485473632812 563.6373291015625 565.6883544921875 563.208740234375 565.9380493164062 562.779541015625L568.6868896484375 558.0270385742188C569.2625122070312 556.9439697265625 569.9032592773438 555.8585205078125 570.61181640625 554.7725219726562L570.6483154296875 554.7166748046875C570.8856811523438 554.3425903320312 571.1272583007812 553.9762573242188 571.3721923828125 553.6172485351562L574.7074584960938 548.5517578125L574.771728515625 548.4537963867188L577.3626708984375 544.5061645507812Q577.594970703125 544.11865234375 577.83837890625 543.730712890625L581.3572387695312 538.1614990234375C581.496337890625 537.9398803710938 581.6366577148438 537.7208251953125 581.7780151367188 537.5042114257812L585.5272216796875 531.456298828125C585.8555908203125 530.9280395507812 586.1904296875 530.4138793945312 586.5314331054688 529.9137573242188L589.9603881835938 524.4186401367188C590.1194458007812 524.1643676757812 590.2799072265625 523.9133911132812 590.44189453125 523.6657104492188L592.6448974609375 520.17919921875C592.928466796875 519.6992797851562 593.2249755859375 519.2190551757812 593.53466796875 518.7385864257812L598.4111328125 511.2160339355469C598.9821166992188 510.33172607421875 599.5708618164062 509.4883117675781 600.1759643554688 508.6849060058594L604.5760498046875 502.4466552734375C604.7608032226562 502.1872253417969 604.947021484375 501.9316101074219 605.1346435546875 501.6797790527344L608.4689331054688 496.8774719238281C608.5538330078125 496.75555419921875 608.6390991210938 496.63446044921875 608.7246704101562 496.51422119140625L613.1390991210938 490.0205993652344C613.3794555664062 489.6370849609375 613.6282958984375 489.2535400390625 613.8857421875 488.8700256347656L618.69189453125 481.75836181640625L623.0263671875 474.2591857910156L623.0289916992188 474.2542724609375L626.4926147460938 467.6461486816406C626.6154174804688 467.4148254394531 626.7396240234375 467.1859130859375 626.8650512695312 466.9594421386719L627.634765625 465.37261962890625C628.1377563476562 464.18975830078125 628.7118530273438 462.9982604980469 629.3603515625 461.7998962402344L633.0254516601562 455.09893798828125C633.1181640625 454.9176025390625 633.2125854492188 454.7361145019531 633.3086547851562 454.5544128417969L637.2015380859375 447.1426696777344C637.3903198242188 446.78564453125 637.5821533203125 446.4343566894531 637.777099609375 446.08880615234375L639.5938110351562 442.575927734375L642.7845458984375 435.9350280761719C642.870849609375 435.755126953125 642.9579467773438 435.5766296386719 643.0458984375 435.3995056152344L645.402099609375 430.3105163574219L647.4729614257812 425.51898193359375C647.74365234375 424.8296203613281 648.0370483398438 424.1361999511719 648.353759765625 423.4389953613281L650.5703735351562 418.5624694824219C650.9300537109375 417.77203369140625 651.3056640625 417.0073547363281 651.6964111328125 416.2680358886719L652.9273681640625 413.71893310546875C653.499755859375 412.3719482421875 654.1669311523438 411.0159606933594 654.93408203125 409.65399169921875C655.4446411132812 408.70306396484375 655.9793090820312 407.7943420410156 656.5364379882812 406.92694091796875L658.5086059570312 403.59490966796875C658.9009399414062 402.8866271972656 659.3209228515625 402.17718505859375 659.7692260742188 401.4670104980469L663.4251098632812 395.6858825683594L665.7569580078125 391.3966369628906C665.9556274414062 390.9998779296875 666.1624145507812 390.602294921875 666.37744140625 390.2039489746094L669.13427734375 385.11962890625Q669.263427734375 384.88006591796875 669.3944702148438 384.6440124511719L672.5150146484375 378.77825927734375L672.7085571289062 378.4144592285156L672.7550659179688 378.3266906738281C672.9546508789062 377.9511413574219 673.1577758789062 377.58203125 673.3641967773438 377.2192687988281L676.0075073242188 372.4342346191406C676.2490234375 371.9580993652344 676.5023803710938 371.48089599609375 676.7677001953125 371.0027160644531L679.81640625 365.51495361328125C679.9511108398438 365.2526550292969 680.08935546875 364.989990234375 680.2311401367188 364.72698974609375L682.4476928710938 360.6124267578125Q682.5556640625 360.41217041015625 682.6648559570312 360.21435546875L684.1240234375 357.3568115234375C684.3732299804688 356.8697509765625 684.6282958984375 356.3931884765625 684.8890380859375 355.9270324707031L686.2852172851562 353.2007141113281C686.578857421875 352.63665771484375 686.88037109375 352.08685302734375 687.1893310546875 351.5511169433594L688.8342895507812 348.5458679199219C689.1281127929688 348.01318359375 689.4287109375 347.4936828613281 689.7359619140625 346.98724365234375L691.3929443359375 344.13763427734375C691.6627197265625 343.640625 691.9457397460938 343.1427307128906 692.2423095703125 342.6441955566406L694.208740234375 339.3955993652344C694.8008422851562 338.2956848144531 695.4605102539062 337.19366455078125 696.1906127929688 336.0914001464844L699.0430297851562 331.83642578125C699.546142578125 330.9826965332031 700.091064453125 330.1286926269531 700.67919921875 329.2753601074219L705.237060546875 322.7225646972656C705.4490356445312 322.41595458984375 705.6630859375 322.11456298828125 705.8790893554688 321.81829833984375L708.2017211914062 318.34478759765625C708.8472900390625 317.39404296875 709.5128173828125 316.4925231933594 710.1964721679688 315.638916015625L712.4585571289062 312.55487060546875C713.0780029296875 311.6319885253906 713.7503662109375 310.71221923828125 714.4774780273438 309.79705810546875L718.6329345703125 304.6255187988281C719.1471557617188 303.9447326660156 719.6920776367188 303.26702880859375 720.268310546875 302.5931396484375L724.6387329101562 297.50604248046875L727.7140502929688 293.6065673828125L727.7499389648438 293.5610046386719L731.579345703125 288.6122131347656C731.6504516601562 288.5114440917969 731.7222290039062 288.41070556640625 731.7946166992188 288.3099670410156L735.517578125 283.1705017089844L738.603515625 278.6838073730469C739.031494140625 278.0128479003906 739.4862060546875 277.3423767089844 739.96826171875 276.6728515625L744.0274047851562 270.9928283691406C744.3008422851562 270.6132507324219 744.577392578125 270.2419128417969 744.8568725585938 269.8787536621094L746.2207641601562 267.96533203125L747.9944458007812 265.0228271484375C748.635009765625 263.85491943359375 749.3526000976562 262.6854553222656 750.1507568359375 261.51690673828125L753.822021484375 256.16937255859375C754.5297241210938 255.13479614257812 755.2610473632812 254.15884399414062 756.013671875 253.2398681640625L756.9402465820312 252.0059051513672L757.022216796875 251.88858032226562L760.0665283203125 247.62002563476562C760.1135864257812 247.5466766357422 760.160888671875 247.47332763671875 760.2085571289062 247.3999786376953L763.8381958007812 241.8169403076172C763.989501953125 241.58424377441406 764.1419677734375 241.35440063476562 764.2957153320312 241.1273956298828L766.6827392578125 237.3404083251953C766.9000854492188 236.9763946533203 767.1248168945312 236.61215209960938 767.3570556640625 236.2477569580078L769.6290893554688 232.67349243164062C769.9112548828125 232.2309112548828 770.1978759765625 231.79849243164062 770.4888305664062 231.3760986328125L771.9010620117188 229.21006774902344C772.0615844726562 228.96400451660156 772.2235107421875 228.72113037109375 772.38671875 228.4814453125L773.7990112304688 226.2315216064453C773.8621215820312 226.133544921875 773.9253540039062 226.03607177734375 773.9888916015625 225.93910217285156L775.1480102539062 224.06060791015625L776.2302856445312 222.01625061035156C776.7874145507812 220.84959411621094 777.4166870117188 219.67724609375 778.1213989257812 218.50115966796875L780.0890502929688 215.25682067871094L782.1150512695312 211.5474395751953C782.3436279296875 211.10470581054688 782.5823974609375 210.6610870361328 782.8316650390625 210.21664428710938L785.3755493164062 205.72201538085938L786.4884033203125 203.32972717285156C786.9022216796875 202.3500518798828 787.365478515625 201.36502075195312 787.8802490234375 200.37571716308594C788.4795532226562 199.1767120361328 789.1163330078125 198.0408935546875 789.787109375 196.966796875L790.56298828125 195.60621643066406L785.3253173828125 195.50401306152344C784.6126098632812 195.4883575439453 783.91162109375 195.45591735839844 783.2222900390625 195.40724182128906L781.1553344726562 195.3377685546875C780.1279907226562 195.28814697265625 779.1259765625 195.2042694091797 778.149169921875 195.08775329589844L776.334228515625 194.96371459960938C775.3101806640625 194.8856201171875 774.312255859375 194.77413940429688 773.3403930664062 194.63088989257812L773.3358154296875 194.63021850585938C772.599609375 194.5716552734375 771.8530883789062 194.49217224121094 771.096435546875 194.39109802246094C770.1395874023438 194.27117919921875 769.20703125 194.12266540527344 768.298828125 193.94691467285156L767.2462158203125 193.77230834960938C766.483154296875 193.6538543701172 765.7363891601562 193.5177001953125 765.0056762695312 193.3645477294922L764.2182006835938 193.23187255859375C719.9755249023438 193.0177459716797 719.7046508789062 127.04483032226562 763.4054565429688 126.02577209472656C765.4075317382812 125.86334991455078 767.4998779296875 125.87181091308594 769.6788330078125 126.06964874267578C772.763427734375 126.2271728515625 775.6207275390625 126.7143325805664 778.2506713867188 127.4825668334961L779.8768920898438 127.7523193359375L782.4010009765625 128.03057861328125L784.8392333984375 128.1972198486328L787.7081298828125 128.3412628173828C787.8829956054688 128.34970092773438 788.0570678710938 128.35914611816406 788.23046875 128.36956787109375L792.4599609375 128.45208740234375C792.5376586914062 128.45376586914062 792.615234375 128.45565795898438 792.692626953125 128.45773315429688L798.5278930664062 128.50750732421875H804.9144287109375L804.9698486328125 128.5081024169922C805.2059936523438 128.5083770751953 805.4408569335938 128.51112365722656 805.6744995117188 128.5157012939453L809.998779296875 128.5623321533203L810.05419921875 128.56256103515625L817.7417602539062 128.511474609375L818.2832641601562 128.50787353515625L818.3386840820312 128.50750732421875H826.8446044921875L834.703857421875 128.1286163330078C834.9640502929688 128.10952758789062 835.2259521484375 128.09266662597656 835.4895629882812 128.0780487060547L844.5221557617188 127.57930755615234C844.9385375976562 127.55672454833984 845.3514404296875 127.54017639160156 845.7606811523438 127.52954864501953L852.1287841796875 127.23402404785156C852.8450927734375 127.16989135742188 853.5744018554688 127.12316131591797 854.3167724609375 127.09442901611328L865.302734375 126.66496276855469C865.8182373046875 126.64501953125 866.3281860351562 126.63420867919922 866.83251953125 126.63233947753906L875.8038330078125 126.38789367675781C876.16650390625 126.3774642944336 876.5263061523438 126.37152099609375 876.8833618164062 126.36998748779297L881.0673217773438 126.28266143798828C882.4444580078125 126.19600677490234 883.8671264648438 126.1787109375 885.335205078125 126.23550415039062L885.3375854492188 126.23558807373047L886.3963623046875 126.27388000488281L894.1461181640625 126.55413818359375C894.9044799804688 126.58344268798828 895.6492309570312 126.63147735595703 896.3804321289062 126.69759368896484L901.7545776367188 127.075927734375C902.1748657226562 127.09420776367188 902.5988159179688 127.11880493164062 903.0263671875 127.14984893798828L905.730712890625 127.35948181152344C906.0691528320312 127.37783813476562 906.409912109375 127.40029907226562 906.7529907226562 127.42691802978516L908.5361328125 127.54474639892578C908.888916015625 127.56356048583984 909.2442016601562 127.58702087402344 909.6019897460938 127.61518096923828L909.8978271484375 127.63472747802734C910.7564086914062 127.702392578125 911.5966186523438 127.79351806640625 912.41845703125 127.9071273803711C913.6775512695312 128.0068817138672 914.9664306640625 128.1688995361328 916.2843627929688 128.3966827392578L916.3355102539062 128.40606689453125C916.7550659179688 128.47352600097656 917.1697387695312 128.5467071533203 917.5794067382812 128.62548828125C918.5230102539062 128.7668914794922 919.4813842773438 128.9441375732422 920.454345703125 129.15863037109375L921.9111938476562 129.4866180419922C922.4144897460938 129.5841064453125 922.9216918945312 129.69174194335938 923.432861328125 129.80975341796875L925.7464599609375 130.3500518798828C926.3577270507812 130.49176025390625 926.9574584960938 130.6443328857422 927.5457153320312 130.8074188232422C928.0277709960938 130.9132537841797 928.51318359375 131.02857971191406 929.0020751953125 131.153564453125L929.2930297851562 131.23338317871094C929.8382568359375 131.35606384277344 930.3878173828125 131.49099731445312 930.9415893554688 131.63844299316406L931.6273803710938 131.84317016601562C931.8506469726562 131.90216064453125 932.0746459960938 131.9632110595703 932.2992553710938 132.02635192871094L932.7841186523438 132.13717651367188C975.869140625 144.25917053222656 957.67919921875 208.96981811523438 914.6080932617188 196.8478240966797L914.1322631835938 196.6982879638672L914.1229858398438 196.6962127685547L913.6244506835938 196.58460998535156C913.5650634765625 196.5688018798828 913.5057983398438 196.55288696289062 913.4466552734375 196.53688049316406C913.2020263671875 196.4813232421875 912.9564819335938 196.42335510253906 912.7100830078125 196.36294555664062L911.2517700195312 195.99835205078125C911.0733642578125 195.9595184326172 910.89453125 195.91943359375 910.7151489257812 195.87806701660156L910.6597290039062 195.850341796875L910.3272705078125 195.76722717285156C910.1803588867188 195.7312469482422 910.0341186523438 195.69464111328125 909.8885498046875 195.6574249267578C909.46044921875 195.57664489746094 909.0294799804688 195.4886016845703 908.5955810546875 195.3931884765625L906.3314208984375 194.87254333496094L905.7324829101562 194.77732849121094L904.330322265625 194.60662841796875L901.557861328125 194.42343139648438C901.2015991210938 194.39578247070312 900.8485717773438 194.3640899658203 900.4986572265625 194.32843017578125L899.7482299804688 194.270263671875C899.2936401367188 194.25485229492188 898.8347778320312 194.23207092285156 898.3715209960938 194.20176696777344L891.3101196289062 193.70555114746094L883.5411987304688 193.412841796875L878.2095336914062 193.53518676757812C878.059326171875 193.5410919189453 877.9085083007812 193.54623413085938 877.7572021484375 193.55064392089844L868.4284057617188 193.8044891357422C868.2554321289062 193.81321716308594 868.0816650390625 193.8209686279297 867.9072265625 193.8277130126953L866.3602905273438 193.88818359375C866.0444946289062 194.90240478515625 865.6805419921875 195.9270782470703 865.266357421875 196.96127319335938C864.881591796875 197.97938537597656 864.4672241210938 198.95828247070312 864.0252685546875 199.89859008789062C863.7088012695312 200.6764678955078 863.3626098632812 201.45892333984375 862.9856567382812 202.24545288085938C862.7614135742188 202.7294921875 862.5308837890625 203.20375061035156 862.2943115234375 203.668212890625C862.2001342773438 203.86964416503906 862.1038208007812 204.07139587402344 862.0055541992188 204.27340698242188L861.1327514648438 206.0466766357422C861.0354614257812 206.24612426757812 860.9371337890625 206.44386291503906 860.837890625 206.639892578125L859.7889404296875 208.87283325195312C859.7061767578125 209.0452117919922 859.6226196289062 209.21633911132812 859.5383911132812 209.3861846923828L858.8258666992188 210.88198852539062C858.584716796875 211.43385314941406 858.32861328125 211.98793029785156 858.0572509765625 212.5440673828125L856.4234619140625 215.88938903808594C856.1895751953125 216.39508056640625 855.942138671875 216.90187072753906 855.680908203125 217.4095916748047C854.8272705078125 219.1481170654297 853.8972778320312 220.75595092773438 852.90087890625 222.2378387451172L852.7994995117188 222.40814208984375C852.524658203125 222.91064453125 852.2362060546875 223.41397094726562 851.9338989257812 223.91795349121094L849.944580078125 227.1631622314453L849.883544921875 227.2705535888672L847.6168212890625 231.23455810546875L845.602783203125 235.5412139892578C844.85693359375 237.1135711669922 844.0485229492188 238.5814208984375 843.1845092773438 239.94815063476562L841.4466552734375 243.06378173828125C841.321533203125 243.2872772216797 841.1952514648438 243.50843811035156 841.0677490234375 243.7272491455078L839.6470947265625 246.3283233642578C839.17333984375 247.278076171875 838.6516723632812 248.23135375976562 838.0802001953125 249.18711853027344L836.323486328125 252.08360290527344L834.4331665039062 255.6451416015625C834.1769409179688 256.15301513671875 833.90673828125 256.6617431640625 833.6223754882812 257.17108154296875C832.9194946289062 258.47674560546875 832.1746215820312 259.7041015625 831.3920288085938 260.8554992675781L830.613037109375 262.11260986328125C830.366455078125 262.51177978515625 830.1160888671875 262.9028625488281 829.8622436523438 263.2859802246094L828.28564453125 265.7976989746094C827.861572265625 266.45654296875 827.4276733398438 267.0927429199219 826.9844970703125 267.7066955566406L826.9830322265625 267.708740234375C826.7601318359375 268.08282470703125 826.5293579101562 268.4571838378906 826.2907104492188 268.8316650390625L824.0186767578125 272.3504943847656C823.8967895507812 272.54156494140625 823.7740478515625 272.7307434082031 823.6505126953125 272.91802978515625L820.3890380859375 278.141357421875C820.0506591796875 278.6753234863281 819.7057495117188 279.1945495605469 819.3546142578125 279.6993103027344L817.6932373046875 282.2328186035156C817.1458129882812 283.15985107421875 816.548828125 284.0869140625 815.9004516601562 285.0127868652344L812.007568359375 290.52655029296875C811.48095703125 291.27703857421875 810.9420776367188 291.9959411621094 810.391845703125 292.6839599609375L809.14501953125 294.34442138671875L805.8260498046875 299.24139404296875L804.1321411132812 302.00506591796875C803.442626953125 303.2491455078125 802.6644897460938 304.493896484375 801.79345703125 305.73614501953125C801.5167846679688 306.1446228027344 801.2359619140625 306.54376220703125 800.951171875 306.9337158203125L798.7911376953125 310.0048522949219C798.4051513671875 310.55206298828125 798.0126342773438 311.0823974609375 797.6139526367188 311.59619140625L794.524169921875 315.9619445800781C794.4501953125 316.064453125 794.3760375976562 316.1663513183594 794.3016357421875 316.26763916015625L790.8944702148438 321.2679138183594C790.4794311523438 321.8727722167969 790.0562744140625 322.4574890136719 789.6255493164062 323.0224609375L786.3504638671875 327.54364013671875C785.8985595703125 328.1722717285156 785.438232421875 328.7782897949219 784.9699096679688 329.3621520996094L781.0444946289062 334.5259094238281C780.7223510742188 334.94439697265625 780.3966674804688 335.352294921875 780.0675048828125 335.74969482421875L777.31787109375 339.2361755371094C776.614501953125 340.1273498535156 775.8950805664062 340.9692077636719 775.1613159179688 341.7631530761719L771.6511840820312 345.86932373046875L767.2100830078125 351.45770263671875L763.2886352539062 356.8040771484375L760.6934204101562 360.6678466796875C760.4785766601562 360.9843444824219 760.261474609375 361.29541015625 760.042236328125 361.6010437011719L756.4310913085938 366.8526306152344L756.37109375 366.9435729980469L752.3556518554688 373.0140686035156L750.2067260742188 376.6276550292969L750.181884765625 376.66943359375L747.6682739257812 381.02874755859375L745.595947265625 384.7330017089844L744.2236938476562 387.37554931640625C744.1234130859375 387.5792236328125 744.0210571289062 387.7831726074219 743.9165649414062 387.98736572265625L741.97705078125 391.83868408203125C741.5865478515625 392.5998229980469 741.1817016601562 393.3352966308594 740.763427734375 394.0455322265625L740.2280883789062 395.0464172363281C739.9136352539062 395.68841552734375 739.577880859375 396.3325500488281 739.22021484375 396.9784240722656L736.1187744140625 402.5283203125C735.9483642578125 402.85748291015625 735.7722778320312 403.18719482421875 735.5905151367188 403.5173645019531L732.0716552734375 409.8485107421875L732.0685424804688 409.8543395996094L728.9962768554688 415.62933349609375C728.7713623046875 416.0841369628906 728.535888671875 416.5400695800781 728.2896118164062 416.99700927734375L726.2220458984375 420.7909851074219C725.9813232421875 421.27532958984375 725.728515625 421.7608947753906 725.4634399414062 422.24755859375L722.8858032226562 426.968505859375C722.2263793945312 428.3315734863281 721.4664916992188 429.7006530761719 720.600830078125 431.0723876953125L717.062744140625 436.6182556152344L713.9257202148438 441.85400390625L712.1254272460938 445.5900573730469C712.0122680664062 445.8530578613281 711.8958129882812 446.1166076660156 711.7760009765625 446.3807067871094L710.1082763671875 449.960205078125C710.0198364257812 450.1750793457031 709.9292602539062 450.390380859375 709.8364868164062 450.6060791015625L707.0103149414062 457.1450500488281C706.684326171875 457.90399169921875 706.3433837890625 458.639892578125 705.98828125 459.3531494140625L704.226806640625 463.1575012207031C703.9677734375 463.7689208984375 703.6904907226562 464.3831787109375 703.39453125 465.0000915527344L699.9865112304688 472.09320068359375C699.5591430664062 472.98455810546875 699.1117553710938 473.8421325683594 698.6456298828125 474.66650390625L696.7308959960938 478.3689270019531C696.474609375 478.8601379394531 696.2122802734375 479.34051513671875 695.9443359375 479.8101806640625L692.7271728515625 485.9468994140625C692.4196166992188 486.5284729003906 692.103759765625 487.0947570800781 691.7799682617188 487.6459045410156L688.460205078125 493.843505859375C688.4037475585938 493.9476623535156 688.3470458984375 494.05133056640625 688.2901000976562 494.15447998046875L687.5557861328125 495.67205810546875C687.0751953125 496.8230285644531 686.5279541015625 497.9826965332031 685.9111328125 499.14947509765625L681.7965698242188 506.8244323730469C681.32373046875 507.7164611816406 680.8314208984375 508.5724792480469 680.321044921875 509.39312744140625L677.279052734375 514.6798095703125C676.8442993164062 515.49267578125 676.37255859375 516.306640625 675.86279296875 517.1206665039062C675.2463989257812 518.1399536132812 674.6046752929688 519.1069946289062 673.9398803710938 520.0231323242188L669.6746215820312 526.3720092773438C669.4984130859375 526.6339111328125 669.3207397460938 526.8920288085938 669.1415405273438 527.1465454101562L664.4197998046875 534.1036987304688C664.1626586914062 534.50048828125 663.8963012695312 534.897216796875 663.6205444335938 535.2937622070312L660.1614990234375 540.2086181640625C659.8970947265625 540.6070556640625 659.6232299804688 541.0053100585938 659.3397216796875 541.4032592773438L654.4456176757812 548.2702026367188L650.030029296875 555.1599731445312C649.8297119140625 555.4700317382812 649.627197265625 555.7750854492188 649.422607421875 556.0751342773438L647.1615600585938 559.6535034179688C647.0751953125 559.7949829101562 646.9877319335938 559.9365234375 646.8991088867188 560.0780639648438L642.5629272460938 567.0048828125Q642.2965087890625 567.42919921875 642.0245971679688 567.84130859375L639.1893310546875 572.3649291992188C638.9010009765625 572.8682250976562 638.5986938476562 573.3720703125 638.2821044921875 573.8763427734375L634.777099609375 579.4594116210938C634.4713134765625 579.946533203125 634.1599731445312 580.4214477539062 633.843505859375 580.8843994140625L630.870361328125 585.4026489257812L627.2654418945312 590.916015625L624.9295654296875 594.9484252929688Q624.6671142578125 595.4530639648438 624.3868408203125 595.9591674804688L620.8015747070312 602.327392578125C620.7322387695312 602.4580688476562 620.6620483398438 602.5888671875 620.5909423828125 602.7197265625L616.817138671875 609.685791015625L616.8088989257812 609.7020263671875L614.3782958984375 614.4760131835938C614.0739135742188 615.1220703125 613.748291015625 615.7705078125 613.40087890625 616.4210815429688L610.0634765625 622.5927124023438C609.429443359375 623.919677734375 608.7009887695312 625.2529907226562 607.8732299804688 626.5896606445312L603.9171142578125 632.8977661132812C603.6453247070312 633.3577270507812 603.3616943359375 633.8179931640625 603.0659790039062 634.2785034179688L601.9590454101562 636.0013427734375C601.62109375 636.5629272460938 601.2651977539062 637.1246948242188 600.8909912109375 637.6865234375L598.7297973632812 640.9282836914062C598.4830932617188 641.298095703125 598.2333374023438 641.6605834960938 597.9806518554688 642.0157470703125L596.9363403320312 643.6090087890625C596.8157958984375 643.7960205078125 596.6932373046875 643.9830322265625 596.568603515625 644.1700439453125L592.994384765625 649.5314331054688C592.70068359375 649.972412109375 592.402587890625 650.4029541015625 592.1004028320312 650.8231811523438L591.2360229492188 652.1257934570312C590.6454467773438 653.0924682617188 589.9985961914062 654.05712890625 589.2935180664062 655.0181274414062C588.7310791015625 655.8133544921875 588.1537475585938 656.5723266601562 587.5629272460938 657.2958374023438L586.93798828125 658.1137084960938C586.1837158203125 659.1949462890625 585.3543090820312 660.2694702148438 584.4465942382812 661.3347778320312L580.5537109375 665.8787841796875C580.3532104492188 666.1135864257812 580.1516723632812 666.3446655273438 579.9491577148438 666.5720825195312L577.09033203125 670.0487670898438C576.9439697265625 670.2258911132812 576.7969970703125 670.4009399414062 576.6494750976562 670.573974609375L573.5443115234375 674.2869873046875L571.5626831054688 676.9755859375C571.3222045898438 677.3016967773438 571.0794677734375 677.6216430664062 570.8345336914062 677.9353637695312L567.6697998046875 682.1707153320312L567.6388549804688 682.2118530273438L564.8574829101562 686.2852783203125C564.596923828125 686.6605224609375 564.3333129882812 687.0280151367188 564.0667114257812 687.3877563476562L561.9847412109375 690.4454345703125L559.1188354492188 694.8390502929688Q558.857177734375 695.265380859375 558.581787109375 695.6919555664062L556.0286254882812 699.6166381835938L553.6950073242188 703.48974609375L553.1301879882812 704.4270629882812L553.1095581054688 704.4613647460938C552.7669677734375 705.0193481445312 552.4171142578125 705.5617065429688 552.0603637695312 706.0885620117188L548.8841552734375 710.958740234375C548.4118041992188 711.6842041015625 547.9276123046875 712.3820190429688 547.4323120117188 713.0526733398438L545.6978149414062 715.6135864257812C545.4061279296875 716.0368041992188 545.1104736328125 716.4501953125 544.8110961914062 716.8538208007812L542.8218994140625 719.7045288085938C542.4974975585938 720.1976318359375 542.1586303710938 720.6904907226562 541.804931640625 721.1827392578125L538.7791748046875 725.3930053710938L536.3060913085938 729.035400390625C535.9881591796875 729.5396728515625 535.6553955078125 730.0438842773438 535.3075561523438 730.5478515625L533.7242431640625 732.796875C533.53662109375 733.0908203125 533.343994140625 733.3848266601562 533.1463623046875 733.6787719726562L530.1678466796875 738.1258544921875C529.3373413085938 739.3557739257812 528.4730834960938 740.5037231445312 527.5792846679688 741.572509765625L525.4575805664062 744.4015502929688C524.5020751953125 745.660888671875 523.5134887695312 746.8250732421875 522.49658203125 747.8977661132812L520.2623901367188 750.5110473632812C519.5228881835938 751.3670654296875 518.7696533203125 752.1734619140625 518.0042114257812 752.931640625L515.2889404296875 755.8724365234375C515.024658203125 756.1534423828125 514.759033203125 756.4285888671875 514.4921264648438 756.6979370117188L513.5191650390625 757.7442016601562C513.3543090820312 757.9334106445312 513.1868896484375 758.1222534179688 513.0169067382812 758.3106689453125L509.27642822265625 762.4806518554688C509.0491943359375 762.7324829101562 508.8208312988281 762.9797973632812 508.5913391113281 763.22265625L506.93865966796875 765.0933227539062C506.5592041015625 765.5406494140625 506.16558837890625 765.9859619140625 505.7575988769531 766.428955078125L504.94976806640625 767.3023071289062C504.21136474609375 768.1575927734375 503.4190979003906 769.0030517578125 502.57122802734375 769.8369750976562L502.4499206542969 769.9526977539062C502.01239013671875 770.3888549804688 501.5713195800781 770.8095092773438 501.1269836425781 771.2149047851562L500.4834289550781 771.8289184570312L499.48406982421875 772.8893432617188C499.1551513671875 773.3329467773438 498.81298828125 773.7750244140625 498.4574279785156 774.2152709960938L498.4216003417969 774.2595825195312C498.0106201171875 774.7844848632812 497.5940246582031 775.2923583984375 497.1721496582031 775.7835083007812C496.2047119140625 778.5621948242188 494.8310241699219 781.229248046875 493.02001953125 783.7000732421875C491.98187255859375 785.1741943359375 490.8250427246094 786.5335693359375 489.56903076171875 787.7765502929688C487.5472412109375 790.0307006835938 485.22503662109375 791.932373046875 482.6964416503906 793.4815063476562C478.51031494140625 796.264404296875 473.81536865234375 797.8621826171875 468.9988708496094 798.41357421875C466.16363525390625 798.814453125 463.32574462890625 798.8013305664062 460.54608154296875 798.4252319335938C457.539794921875 798.1460571289062 454.5711364746094 797.505126953125 451.7378234863281 796.50244140625C449.6337585449219 797.557861328125 447.35675048828125 798.3895874023438 444.91314697265625 798.95654296875C441.9576721191406 799.7516479492188 438.7924499511719 800.1170654296875 435.4499206542969 799.9669799804688C428.12091064453125 800.1328125 421.7622375488281 797.9207763671875 416.6287536621094 794.2015991210938C415.7313537597656 793.6411743164062 414.8772888183594 793.0455932617188 414.0660095214844 792.41796875C412.0794982910156 790.9932861328125 410.3380126953125 789.4223022460938 408.8298034667969 787.736328125C407.5771179199219 786.4319458007812 406.4701843261719 785.075439453125 405.50201416015625 783.6780395507812C405.32733154296875 783.4454345703125 405.156494140625 783.2120971679688 404.98944091796875 782.9780883789062C404.42230224609375 782.2202758789062 403.8926696777344 781.4588623046875 403.3995666503906 780.69482421875C403.302490234375 780.5546875 403.20654296875 780.4144897460938 403.1117858886719 780.2742919921875L402.94781494140625 780.0416259765625C401.8750915527344 778.7770385742188 400.8458251953125 777.3988037109375 399.8672180175781 775.9022827148438L399.85968017578125 775.8911743164062C399.73443603515625 775.7077026367188 399.6112976074219 775.5241088867188 399.4903564453125 775.3404541015625C399.21368408203125 774.9370727539062 398.9418640136719 774.524169921875 398.6750793457031 774.1017456054688L398.5022277832031 773.8406982421875C397.40765380859375 772.160400390625 396.4747009277344 770.4818115234375 395.6933288574219 768.8115844726562C395.5213623046875 768.4930419921875 395.35467529296875 768.1749267578125 395.1932373046875 767.8572998046875L394.927978515625 767.398681640625C394.8245849609375 767.205078125 394.7231140136719 767.0115966796875 394.6235656738281 766.818359375L394.221435546875 766.2626953125C394.1889953613281 766.216552734375 394.1567077636719 766.17041015625 394.1245422363281 766.124267578125L393.2516784667969 764.96044921875C393.1551818847656 764.8319091796875 393.0597229003906 764.7032470703125 392.9653015136719 764.5745849609375L392.9168395996094 764.5113525390625C392.13812255859375 763.5850830078125 391.3807067871094 762.599365234375 390.6471862792969 761.5524291992188L388.7630615234375 758.8509521484375C388.2906188964844 758.1766357421875 387.845458984375 757.5017700195312 387.4269104003906 756.8267211914062L387.1929016113281 756.480712890625L387.1837463378906 756.4681396484375L384.9117431640625 753.3787841796875C383.9505920410156 752.0535278320312 383.09716796875 750.7239990234375 382.34619140625 749.3939208984375L381.9886169433594 748.8347778320312C381.2754211425781 747.6759643554688 380.6366271972656 746.5198364257812 380.069091796875 745.3682861328125L379.12091064453125 743.6950073242188C378.5111999511719 742.5911254882812 377.96533203125 741.4925537109375 377.48065185546875 740.4006958007812L376.474853515625 738.3890380859375C376.325439453125 738.0828247070312 376.1806335449219 737.7772216796875 376.0404052734375 737.4722900390625C375.4892883300781 736.4390258789062 374.969970703125 735.355224609375 374.4850769042969 734.2197875976562C374.142578125 733.4515991210938 373.8291320800781 732.6875 373.5439453125 731.9280395507812L373.39910888671875 731.572998046875L373.12225341796875 731.03271484375L373.05938720703125 730.90869140625L372.6373596191406 730.1599731445312C372.45794677734375 729.8252563476562 372.2843322753906 729.4910278320312 372.11639404296875 729.157470703125C371.6584777832031 728.3683471679688 371.21759033203125 727.5482177734375 370.7948303222656 726.696533203125L369.3263244628906 723.7872314453125C368.9720458984375 723.073486328125 368.64312744140625 722.3629760742188 368.33892822265625 721.6560668945312L367.2205810546875 719.2847900390625C367.1656799316406 719.168701171875 367.1114501953125 719.0526733398438 367.057861328125 718.936767578125L365.822998046875 716.3648681640625L365.8214416503906 716.3616333007812L364.54913330078125 713.863525390625C363.90435791015625 712.7242431640625 363.29742431640625 711.52099609375 362.7319641113281 710.252197265625L361.3742980957031 707.107421875C361.283935546875 706.904052734375 361.1955261230469 706.700927734375 361.10906982421875 706.4982299804688L359.4763488769531 702.8404541015625C359.2597351074219 702.3406372070312 359.0549011230469 701.8429565429688 358.8616027832031 701.3474731445312C358.81689453125 701.2498779296875 358.7724304199219 701.1517944335938 358.7282409667969 701.0533447265625L358.4202575683594 700.3546142578125C358.20855712890625 699.926025390625 358.00177001953125 699.4893798828125 357.800048828125 699.0445556640625L356.6640319824219 696.5093383789062C356.4626770019531 696.0640258789062 356.27081298828125 695.6203002929688 356.0882873535156 695.1781616210938L355.20941162109375 693.15673828125C355.1063537597656 692.9185791015625 355.0059509277344 692.6809692382812 354.9081726074219 692.4437866210938L353.9361877441406 690.2718505859375L352.1754455566406 687.0333862304688C351.7381286621094 686.2252807617188 351.3346862792969 685.4202880859375 350.9640197753906 684.6189575195312L350.4248046875 683.5540161132812C349.87615966796875 682.5593872070312 349.3559265136719 681.5170288085938 348.8665466308594 680.4259643554688C348.6513366699219 679.9633178710938 348.4468994140625 679.501953125 348.2530212402344 679.0421142578125L347.31280517578125 676.920166015625C347.2057800292969 676.68017578125 347.1014709472656 676.4406127929688 346.9999084472656 676.2015991210938L345.08233642578125 671.87744140625C344.8946838378906 671.4413452148438 344.7159729003906 671.0068359375 344.5460510253906 670.5740356445312L342.9211730957031 666.6407470703125C342.79150390625 666.3291015625 342.66632080078125 666.018310546875 342.54559326171875 665.7084350585938L341.3459777832031 662.8435668945312C341.3121337890625 662.7703247070312 341.2784423828125 662.6968383789062 341.244873046875 662.6231689453125L339.0282897949219 657.760498046875C338.850830078125 657.3709716796875 338.6806335449219 656.982666015625 338.51763916015625 656.5955810546875L336.75628662109375 652.7316284179688C336.54486083984375 652.260498046875 336.343994140625 651.7911987304688 336.1535339355469 651.32373046875L334.6260681152344 647.927490234375Q334.5548095703125 647.7811279296875 334.4842529296875 647.6334228515625L333.00439453125 644.4996337890625C332.7132263183594 643.9378051757812 332.4305725097656 643.361572265625 332.1568603515625 642.7708129882812L330.4241943359375 638.9657592773438C330.22119140625 638.5469970703125 330.02288818359375 638.12060546875 329.8294372558594 637.6865234375L327.1695251464844 631.7847900390625C326.85382080078125 631.07421875 326.56207275390625 630.36767578125 326.2937316894531 629.6655883789062L324.5790710449219 625.5559692382812C324.48541259765625 625.3367919921875 324.39306640625 625.1156005859375 324.30206298828125 624.8925170898438C324.0917053222656 624.3880004882812 323.8931579589844 623.8856201171875 323.7062072753906 623.3856201171875L322.3514099121094 619.9356079101562C322.0296630859375 619.1975708007812 321.7236022949219 618.4371337890625 321.43408203125 617.654052734375L320.2873840332031 614.4786376953125L317.8182678222656 608.6768188476562C317.6524963378906 608.2857666015625 317.4938659667969 607.8961181640625 317.34228515625 607.5078125L315.8670349121094 604.1786499023438L314.0430908203125 600.5308227539062L311.86724853515625 596.56591796875L311.8607482910156 596.5551147460938L309.3121032714844 592.3294677734375L309.2631530761719 592.2471923828125L306.5302734375 587.8677368164062L303.6560974121094 583.4807739257812C303.40948486328125 583.1218872070312 303.1659240722656 582.755859375 302.925537109375 582.3825073242188L300.9306945800781 579.2805786132812C300.5436096191406 578.7074584960938 300.16473388671875 578.115966796875 299.7945861816406 577.5059814453125L296.806640625 572.5260620117188C296.77276611328125 572.4729614257812 296.7389831542969 572.419677734375 296.7052307128906 572.3662719726562L293.03399658203125 566.575439453125C292.1167907714844 565.1234130859375 291.31829833984375 563.6743774414062 290.6320495605469 562.2322998046875L288.8812255859375 559.0037841796875L286.31494140625 554.6196899414062C286.0189208984375 554.1109008789062 285.73681640625 553.6029663085938 285.4684143066406 553.0960083007812L283.4803161621094 549.5774536132812C282.9045104980469 548.648681640625 282.3525085449219 547.6744384765625 281.82635498046875 546.65380859375L278.5291748046875 540.3226928710938C277.9889221191406 539.27392578125 277.5043029785156 538.2313842773438 277.07318115234375 537.1962890625L274.9473571777344 532.654296875L272.0317687988281 526.9677124023438Q271.8955383300781 526.7014770507812 271.7640686035156 526.435791015625L270.9245300292969 524.894287109375C270.524658203125 524.2362060546875 270.1361999511719 523.5559692382812 269.759765625 522.8531494140625L266.8302917480469 517.3408203125C266.4010314941406 516.587890625 265.9872131347656 515.80712890625 265.5898132324219 514.9981079101562L262.36334228515625 508.4075622558594L259.8150329589844 503.8095397949219L256.9096984863281 498.8180236816406L255.25494384765625 496.0600891113281C255.01869201660156 495.66790771484375 254.79086303710938 495.2760925292969 254.57135009765625 494.8847351074219L253.3569793701172 492.8737487792969C253.04771423339844 492.3483581542969 252.75338745117188 491.8238220214844 252.47369384765625 491.30029296875L251.1161346435547 488.9176330566406C250.71527099609375 488.2547302246094 250.32598876953125 487.56939697265625 249.948974609375 486.8612365722656L246.97042846679688 481.29205322265625C246.64166259765625 480.6722717285156 246.3325958251953 480.0544738769531 246.0427703857422 479.4388732910156L242.967041015625 473.6030578613281L242.96144104003906 473.5931091308594L239.2400665283203 466.9950256347656C238.97579956054688 466.52276611328125 238.72329711914062 466.0514221191406 238.4823455810547 465.5810852050781L235.36534118652344 459.99267578125L232.091552734375 454.5544128417969C231.73927307128906 453.9659423828125 231.4059295654297 453.37835693359375 231.0911102294922 452.7919616699219L228.30294799804688 448.08270263671875C228.04721069335938 447.6854248046875 227.79534912109375 447.27972412109375 227.5475311279297 446.8656005859375L223.31114196777344 439.71356201171875L218.57298278808594 432.24664306640625C218.29530334472656 431.827880859375 218.02191162109375 431.3995361328125 217.7529754638672 430.9615478515625L212.39158630371094 422.24755859375C211.95973205566406 421.5442199707031 211.55528259277344 420.8418884277344 211.1775360107422 420.1410217285156L208.93870544433594 416.3042297363281C208.60411071777344 415.75628662109375 208.2772216796875 415.1930236816406 207.95840454101562 414.6141662597656L204.47076416015625 408.2555847167969C203.87371826171875 407.27166748046875 203.30374145507812 406.2375793457031 202.7632598876953 405.152099609375L201.4674530029297 402.47479248046875C201.1895294189453 401.93505859375 200.91943359375 401.38214111328125 200.65750122070312 400.8158874511719L198.330078125 395.8424072265625C197.92189025878906 394.9617919921875 197.55117797851562 394.0870056152344 197.21670532226562 393.2186279296875L196.33236694335938 391.1517639160156C195.97039794921875 390.39447021484375 195.6246795654297 389.61224365234375 195.29611206054688 388.8047180175781L191.5556182861328 379.5504455566406C191.3815155029297 379.1207580566406 191.2158660888672 378.69281005859375 191.05856323242188 378.26666259765625L188.3968505859375 371.6888732910156L185.2108612060547 364.59710693359375C184.93695068359375 364.0191955566406 184.67250061035156 363.4267883300781 184.4180145263672 362.8199157714844C184.17733764648438 362.26171875 183.9514923095703 361.7060852050781 183.7401885986328 361.15313720703125L181.3315887451172 355.1956481933594C181.19505310058594 354.8578796386719 181.06375122070312 354.5211486816406 180.9376220703125 354.185546875L179.0442352294922 349.46636962890625C178.8645782470703 349.05560302734375 178.68954467773438 348.6379699707031 178.519287109375 348.21337890625L175.37449645996094 340.3167724609375C175.23348999023438 339.9634704589844 175.09817504882812 339.61138916015625 174.9684600830078 339.2605285644531L173.7834014892578 336.41351318359375C173.70339965820312 336.2381591796875 173.6241912841797 336.0614929199219 173.54580688476562 335.8835754394531L172.1460723876953 332.7043151855469C172.06700134277344 332.5368957519531 171.98866271972656 332.3682861328125 171.91107177734375 332.198486328125L170.02696228027344 327.9731140136719C169.98544311523438 327.88226318359375 169.94430541992188 327.79144287109375 169.90357971191406 327.7007141113281L166.12022399902344 319.59161376953125C165.67922973632812 318.6339111328125 165.28248596191406 317.6831359863281 164.9283905029297 316.74005126953125L162.68093872070312 311.50433349609375C162.50767517089844 311.1395263671875 162.3379669189453 310.7690124511719 162.1719207763672 310.39276123046875L158.22360229492188 301.4571228027344C157.96389770507812 300.8660583496094 157.720703125 300.27789306640625 157.49365234375 299.6927795410156L155.97105407714844 296.1374206542969C155.7992706298828 295.76910400390625 155.63111877441406 295.39501953125 155.4667205810547 295.0151672363281L152.490966796875 288.0884094238281C152.28562927246094 287.6307067871094 152.08607482910156 287.1642761230469 151.89247131347656 286.6890869140625L151.82667541503906 286.5265808105469L151.69227600097656 286.1946105957031L150.8452911376953 284.10247802734375C150.48318481445312 283.2742919921875 150.14122009277344 282.4176940917969 149.820556640625 281.5323486328125C149.7312774658203 281.294189453125 149.6445770263672 281.0565185546875 149.56045532226562 280.8194274902344L148.26280212402344 277.2685546875C148.00567626953125 276.5527038574219 147.77114868164062 275.8424377441406 147.55857849121094 275.1379699707031L145.58010864257812 269.2415771484375C145.5552520751953 269.17437744140625 145.530517578125 269.10699462890625 145.5059051513672 269.0394592285156L142.63819885253906 261.2536926269531C142.4745330810547 260.8035888671875 142.31983947753906 260.35565185546875 142.1739501953125 259.9099426269531L141.12596130371094 257.0824890136719C140.9750213623047 256.7096862792969 140.8279266357422 256.3314514160156 140.684814453125 255.94772338867188L137.9279327392578 248.59140014648438C137.6825714111328 247.933349609375 137.45655822753906 247.27984619140625 137.2493896484375 246.6310577392578L136.11244201660156 243.48204040527344C136.0039520263672 243.19200134277344 135.89805603027344 242.8987579345703 135.79481506347656 242.602294921875L135.7113494873047 242.37109375C135.15097045898438 240.80462646484375 134.69851684570312 239.26512145996094 134.3475341796875 237.75491333007812L133.9634552001953 236.39315795898438C133.53387451171875 235.0897674560547 133.15908813476562 233.7255401611328 132.8436279296875 232.29945373535156L131.5168914794922 226.21348571777344C131.41302490234375 225.77752685546875 131.31492614746094 225.33560180664062 131.22274780273438 224.88771057128906L130.03504943847656 219.01910400390625L129.52804565429688 217.09107971191406C129.4391326904297 216.78839111328125 129.35289001464844 216.4826202392578 129.2693634033203 216.17373657226562L128.2996063232422 212.5994873046875C128.14382934570312 212.02069091796875 128.0017547607422 211.44651794433594 127.8730697631836 210.87701416015625L127.69065856933594 210.20411682128906C127.41938018798828 209.36953735351562 127.16944122314453 208.51025390625 126.94194793701172 207.62600708007812L125.69511413574219 202.74949645996094C125.47552490234375 201.88954162597656 125.28582000732422 201.04005432128906 125.12499237060547 200.20130920410156L124.01881408691406 195.76722717285156C123.8455810546875 195.05618286132812 123.69263458251953 194.35250854492188 123.55940246582031 193.65634155273438L122.67501068115234 189.82398986816406C122.6330795288086 189.6380615234375 122.59252166748047 189.45263671875 122.55331420898438 189.26776123046875L121.84410858154297 186.2082977294922C121.73768615722656 185.8116455078125 121.63595581054688 185.40985107421875 121.53900146484375 185.00291442871094L120.54389190673828 180.7048797607422C120.41629791259766 180.23304748535156 120.2953872680664 179.75392150878906 120.18134307861328 179.26747131347656L120.09758758544922 178.90615844726562L117.714599609375 178.6962890625L114.5567398071289 178.61634826660156C113.72187805175781 178.60215759277344 112.90296936035156 178.56492614746094 112.09999084472656 178.50552368164062H89.2007827758789C89.17564392089844 178.515380859375 89.1504135131836 178.5252227783203 89.12516784667969 178.53504943847656C87.4961929321289 179.19247436523438 85.7793197631836 179.71917724609375 83.9780502319336 180.09848022460938C82.99773406982422 180.31761169433594 82.00749206542969 180.49647521972656 81.01101684570312 180.63502502441406C77.29474639892578 181.3015594482422 73.38582611083984 181.28582763671875 69.39512634277344 180.43682861328125C62.2267951965332 179.1865997314453 55.4651985168457 175.82565307617188 50.48394775390625 170.35397338867188C50.28483581542969 170.1486358642578 50.08919143676758 169.94100952148438 49.897071838378906 169.73121643066406C46.51545715332031 166.39830017089844 43.84135437011719 162.20181274414062 42.248085021972656 157.15328979492188C41.86515426635742 156.16110229492188 41.538307189941406 155.1672821044922 41.265220642089844 154.17398071289062C39.98509979248047 149.83700561523438 39.621002197265625 145.196533203125 40.42853546142578 140.464599609375C40.73033142089844 138.30413818359375 41.26137924194336 136.2248992919922 41.99225616455078 134.24163818359375C42.7795524597168 131.80209350585938 43.884193420410156 129.4337615966797 45.330772399902344 127.19007873535156ZM476.8587646484375 692.82421875C476.7333984375 692.6895141601562 476.6094055175781 692.5546264648438 476.4867248535156 692.4194946289062L473.06689453125 688.7921142578125C472.4875183105469 688.2127685546875 471.9158935546875 687.6051635742188 471.3526916503906 686.9686889648438C470.3777160644531 685.90771484375 469.486328125 684.8328247070312 468.6751403808594 683.7471313476562L465.74993896484375 680.1719360351562C465.2236022949219 679.5621337890625 464.7055358886719 678.9263305664062 464.19647216796875 678.2639770507812L460.1927795410156 673.06884765625C459.1777038574219 671.748046875 458.2742004394531 670.419677734375 457.476806640625 669.0879516601562L454.7944641113281 665.0824584960938C454.2318420410156 664.2993774414062 453.6849365234375 663.4798583984375 453.15509033203125 662.6231689453125L449.42596435546875 656.5569458007812C448.568359375 655.31689453125 447.75457763671875 653.9873657226562 446.99017333984375 652.5653686523438L442.1136779785156 643.4219360351562C441.56036376953125 642.3884887695312 441.06201171875 641.3604125976562 440.61651611328125 640.3387451171875L438.681396484375 636.3214111328125C438.27490234375 635.5393676757812 437.885498046875 634.729248046875 437.5142517089844 633.8905639648438L433.0810546875 623.832763671875C432.65325927734375 622.8634033203125 432.2699890136719 621.9017944335938 431.9296569824219 620.9486083984375L428.2599792480469 612.0848388671875C427.8559265136719 611.0987548828125 427.4966735839844 610.1217651367188 427.1805419921875 609.1544189453125L424.2837829589844 601.4779663085938C424.029541015625 600.8989868164062 423.78472900390625 600.3062744140625 423.5497131347656 599.6996459960938L419.98931884765625 590.4453735351562C419.6690979003906 589.614501953125 419.37994384765625 588.7905883789062 419.12091064453125 587.9740600585938L414.97607421875 576.8784790039062L414.9465637207031 576.7994995117188L409.6960144042969 562.779541015625C409.6318359375 562.6068725585938 409.5689697265625 562.4344482421875 409.5074462890625 562.2623901367188L404.3484802246094 549.85400390625C404.26055908203125 549.6412963867188 404.1747131347656 549.428955078125 404.0909729003906 549.2171020507812L400.5199279785156 540.8923950195312L394.9469299316406 528.7296142578125L391.8735656738281 522.6563720703125C391.5869140625 522.1390380859375 391.3073425292969 521.6090087890625 391.03509521484375 521.0660400390625L387.2391662597656 513.488037109375C386.9895935058594 512.9901123046875 386.7524108886719 512.4937133789062 386.5273742675781 511.99896240234375L383.76361083984375 506.2843322753906C383.5650329589844 505.8939514160156 383.3704528808594 505.49676513671875 383.1800231933594 505.09271240234375L379.2317199707031 496.7666320800781C378.99700927734375 496.269287109375 378.77435302734375 495.7737121582031 378.56353759765625 495.280029296875L373.3027038574219 483.8636779785156C373.185546875 483.61859130859375 373.0699768066406 483.3709716796875 372.95599365234375 483.1207275390625L367.3044128417969 470.6872253417969C367.0332946777344 470.15728759765625 366.76971435546875 469.6146545410156 366.5140380859375 469.0592346191406L359.919677734375 454.66522216796875C359.7095642089844 454.2066345214844 359.5095520019531 453.74969482421875 359.3194580078125 453.29443359375L355.09857177734375 443.7346496582031C354.9121398925781 443.314453125 354.7341003417969 442.8957214355469 354.56427001953125 442.4784851074219L348.9769287109375 429.7620544433594L348.8215637207031 429.408447265625L348.7674255371094 429.2852478027344C348.5110778808594 428.7000427246094 348.27093505859375 428.11767578125 348.0466003417969 427.5383605957031L342.7086181640625 414.46624755859375C342.5400085449219 414.08740234375 342.3753356933594 413.70263671875 342.2146301269531 413.3119201660156L335.6756896972656 397.3524475097656L331.6894226074219 387.68695068359375C331.3994445800781 387.0469970703125 331.1209716796875 386.3898620605469 330.8545837402344 385.7153625488281L325.0637512207031 371.0027160644531C324.8603515625 370.48724365234375 324.66900634765625 369.974365234375 324.489501953125 369.46417236328125L320.1619873046875 358.20147705078125C319.9313049316406 357.6638488769531 319.7087097167969 357.114501953125 319.49456787109375 356.5533142089844L313.9115295410156 341.8822326660156C313.72332763671875 341.3890075683594 313.5460510253906 340.89825439453125 313.3795471191406 340.41009521484375L310.21484375 332.17962646484375C310.1297912597656 331.9705810546875 310.0458984375 331.75982666015625 309.9632263183594 331.54736328125L305.23333740234375 319.3505554199219C304.9410705566406 318.6916198730469 304.6611022949219 318.01470947265625 304.3940124511719 317.3196105957031L299.3013916015625 304.0550537109375L294.0613708496094 291.6451416015625L289.6971130371094 283.0949401855469L282.9285583496094 271.21185302734375L275.7181701660156 259.5268859863281C275.68072509765625 259.4700012207031 275.6433410644531 259.4129638671875 275.60601806640625 259.3557434082031L268.402099609375 248.3143310546875C268.0976257324219 247.84666442871094 267.8056640625 247.379150390625 267.5260314941406 246.91189575195312L262.30596923828125 238.6243896484375C261.9144592285156 238.0493621826172 261.53118896484375 237.455810546875 261.1566162109375 236.8434600830078L254.4019775390625 225.7372589111328C254.17990112304688 225.3866424560547 253.96084594726562 225.02960205078125 253.74488830566406 224.6660614013672L247.24749755859375 213.73548889160156C246.80014038085938 212.98240661621094 246.3835906982422 212.23092651367188 245.9969940185547 211.48153686523438L241.73281860351562 203.7711181640625C241.71463012695312 203.74002075195312 241.6964569091797 203.70889282226562 241.67831420898438 203.67770385742188L239.0103302001953 199.08877563476562C238.62432861328125 198.47262573242188 238.2481689453125 197.83656311035156 237.8824005126953 197.18031311035156L234.23033142089844 190.5985565185547L234.091796875 190.36892700195312C232.1643829345703 188.80908203125 230.40020751953125 186.98654174804688 228.85072326660156 184.8941650390625C228.39089965820312 184.3326416015625 227.95535278320312 183.75953674316406 227.54371643066406 183.17604064941406C227.43902587890625 183.17120361328125 227.33407592773438 183.1659698486328 227.22889709472656 183.16036987304688L226.18978881835938 183.1151885986328C225.6375732421875 183.10426330566406 225.07884216308594 183.08245849609375 224.51358032226562 183.04953002929688L221.7834930419922 182.87747192382812C221.55856323242188 182.86734008789062 221.33258056640625 182.85543823242188 221.10556030273438 182.84173583984375L217.53131103515625 182.6200714111328C217.27584838867188 182.60430908203125 217.02198791503906 182.58644104003906 216.76971435546875 182.56651306152344L215.24661254882812 182.4988250732422L214.2396697998047 182.4777374267578C212.5958709716797 182.65664672851562 210.88377380371094 182.73138427734375 209.1039581298828 182.69287109375C207.5305633544922 182.7041778564453 206.0111541748047 182.62649536132812 204.54617309570312 182.4662628173828L203.30355834960938 182.39840698242188C203.15269470214844 182.38909912109375 203.00238037109375 182.37905883789062 202.85263061523438 182.36830139160156L201.29823303222656 182.32972717285156L200.94187927246094 182.33895874023438C199.68768310546875 182.42410278320312 198.39572143554688 182.45037841796875 197.06622314453125 182.41407775878906C195.9027862548828 182.4044189453125 194.76962280273438 182.34759521484375 193.66685485839844 182.24610900878906C192.52247619628906 182.2127227783203 191.35105895996094 182.1295928955078 190.1529083251953 181.99415588378906C190.03590393066406 181.98248291015625 189.91920471191406 181.97035217285156 189.8028564453125 181.95777893066406L190.91835021972656 186.45755004882812C190.92474365234375 186.4838104248047 190.93112182617188 186.5100555419922 190.9374542236328 186.53628540039062L191.9047393798828 190.3194580078125C191.917724609375 190.3666534423828 191.9306640625 190.41392517089844 191.9435272216797 190.46127319335938L193.17601013183594 195.00778198242188L193.1903533935547 195.06069946289062C193.22042846679688 195.17152404785156 193.24998474121094 195.2821807861328 193.279052734375 195.39266967773438L194.1601104736328 198.69036865234375C194.2506561279297 199.02520751953125 194.3366241455078 199.35850524902344 194.4180450439453 199.69024658203125L194.6342315673828 200.52101135253906C195.01133728027344 201.7513885498047 195.33941650390625 203.0342559814453 195.61474609375 204.37037658691406L197.02783203125 211.35264587402344L197.04002380371094 211.412109375L198.34536743164062 217.18797302246094L199.33006286621094 220.6873016357422L200.47833251953125 223.96139526367188C200.6296844482422 224.333984375 200.7771759033203 224.71202087402344 200.92071533203125 225.09552001953125L203.6221923828125 232.4656982421875L205.74180603027344 238.03488159179688C205.94839477539062 238.59149169921875 206.1411895751953 239.14483642578125 206.32046508789062 239.69479370117188L208.60952758789062 245.98690795898438C208.89617919921875 246.77239990234375 209.15548706054688 247.55123901367188 209.38829040527344 248.32313537597656L211.558349609375 254.7162628173828L212.64828491210938 257.71612548828125L214.12330627441406 261.3091125488281C214.23837280273438 261.5919494628906 214.3497772216797 261.8739929199219 214.45755004882812 262.1553039550781L216.6836395263672 267.2605895996094C216.86407470703125 267.6485900878906 217.04046630859375 268.04296875 217.21267700195312 268.4437561035156L219.85873413085938 274.67791748046875C219.90431213378906 274.78411865234375 219.94937133789062 274.89019775390625 219.993896484375 274.9961853027344L223.0148162841797 281.8330078125C223.29270935058594 282.407470703125 223.5615234375 282.996337890625 223.82089233398438 283.5997009277344L227.5475311279297 292.2582702636719C227.5724639892578 292.3165283203125 227.5972442626953 292.3747253417969 227.6218719482422 292.43292236328125L230.83815002441406 299.44921875C230.9337615966797 299.650390625 231.0283203125 299.8533020019531 231.12179565429688 300.05792236328125L233.06130981445312 304.2694396972656C233.31170654296875 304.81756591796875 233.5476837158203 305.3633728027344 233.76953125 305.90673828125L235.07009887695312 308.7718811035156C235.44918823242188 309.6343994140625 235.79312133789062 310.4907531738281 236.10301208496094 311.3404541015625L237.4518280029297 314.589111328125C237.5534210205078 314.8294677734375 237.6534423828125 315.0721740722656 237.7518768310547 315.317138671875L237.77157592773438 315.3662414550781L237.82879638671875 315.5089111328125L240.87646484375 323.10797119140625L240.91636657714844 323.20745849609375L243.67324829101562 330.0927429199219C243.76455688476562 330.3214416503906 243.8534698486328 330.54962158203125 243.94003295898438 330.7773132324219L246.08056640625 336.0614013671875L249.27296447753906 343.16748046875C249.51559448242188 343.6824951171875 249.750732421875 344.2088928222656 249.97805786132812 344.7467346191406C250.22708129882812 345.3216247558594 250.46035766601562 345.8938293457031 250.67823791503906 346.4631652832031L253.84185791015625 354.28131103515625C254.04373168945312 354.7807312011719 254.23416137695312 355.2778015136719 254.41336059570312 355.77239990234375L257.3475341796875 362.90899658203125L257.3607177734375 362.9398498535156L259.7435302734375 368.5090637207031C259.765869140625 368.5615539550781 259.7880554199219 368.614013671875 259.81011962890625 368.6664733886719L261.49847412109375 372.31451416015625L262.9437561035156 375.1588439941406L262.982666015625 375.2372131347656L266.77203369140625 382.1343078613281L269.45477294921875 386.7597351074219C269.5197448730469 386.8636169433594 269.58447265625 386.9680480957031 269.64892578125 387.0730285644531L274.3651123046875 394.8183898925781C274.4699401855469 394.978271484375 274.5741882324219 395.1394958496094 274.6778259277344 395.3021240234375L278.9349060058594 401.9822692871094C279.4810485839844 402.7676086425781 280.0111999511719 403.58843994140625 280.52410888671875 404.445556640625L284.35638427734375 410.9153747558594C284.6927795410156 411.43194580078125 285.0224914550781 411.9629211425781 285.3451843261719 412.5084228515625L289.1373596191406 418.9925842285156C289.3538818359375 419.3326110839844 289.5675964355469 419.6787414550781 289.77838134765625 420.0309753417969L292.6724548339844 424.8988342285156C292.97991943359375 425.39697265625 293.281005859375 425.9078674316406 293.5755310058594 426.4317321777344C293.7225036621094 426.6895751953125 293.8659362792969 426.94732666015625 294.00579833984375 427.2048645019531L297.2014465332031 432.952880859375C297.4370422363281 433.343505859375 297.6688232421875 433.7418212890625 297.8966369628906 434.14788818359375L302.06658935546875 441.61505126953125C302.47918701171875 442.35076904296875 302.86322021484375 443.0842590332031 303.2195129394531 443.81512451171875L306.4443664550781 449.9549560546875C306.6477355957031 450.34600830078125 306.84332275390625 450.7362365722656 307.0312805175781 451.1255187988281L309.0869445800781 454.9967346191406L310.83270263671875 458.0606689453125C310.97833251953125 458.2975158691406 311.1225891113281 458.5372314453125 311.2654724121094 458.77978515625L312.9971618652344 461.6474914550781C313.27020263671875 462.1115417480469 313.5316162109375 462.574951171875 313.7816162109375 463.03759765625C314.12298583984375 463.56591796875 314.45733642578125 464.1091613769531 314.7843017578125 464.6676025390625L317.4039611816406 469.1665954589844C317.7489013671875 469.7286682128906 318.085693359375 470.3069763183594 318.4139709472656 470.9017639160156L321.6003112792969 476.63720703125C322.2169189453125 477.75732421875 322.76800537109375 478.87188720703125 323.2562561035156 479.9794006347656L325.167724609375 483.8912048339844Q325.28271484375 484.1003112792969 325.396240234375 484.3121643066406L328.3182678222656 489.83154296875C328.5155029296875 490.1703796386719 328.7098388671875 490.51483154296875 328.9012145996094 490.8649597167969L331.3086242675781 495.3587341308594L331.3955078125 495.51947021484375C331.412841796875 495.55169677734375 331.43017578125 495.583984375 331.4473876953125 495.6162109375C331.7145080566406 496.1081848144531 331.9690856933594 496.59906005859375 332.2112731933594 497.0886535644531L334.3596496582031 501.26165771484375C334.8583984375 502.1578369140625 335.3345947265625 503.0928649902344 335.7865295410156 504.0675354003906L338.9174499511719 510.7865905761719C338.94525146484375 510.8467712402344 338.9728698730469 510.9069519042969 339.00030517578125 510.9670715332031L341.1720886230469 515.1905517578125L343.7970275878906 519.76708984375C344.0161437988281 520.1197509765625 344.232177734375 520.4788208007812 344.445068359375 520.8443603515625L347.0357360839844 525.3329467773438C347.4549865722656 526.0527954101562 347.84637451171875 526.7709350585938 348.210693359375 527.4869384765625L350.538330078125 531.7791137695312L353.5331115722656 536.4851684570312C353.8854064941406 537.043212890625 354.2201843261719 537.600830078125 354.5378112792969 538.1577758789062L357.259765625 542.6500854492188L357.2784729003906 542.6809692382812L359.4347839355469 546.0165405273438C359.47503662109375 546.0791015625 359.51507568359375 546.1416015625 359.5549011230469 546.2041625976562L362.6123352050781 550.8883666992188C362.8349914550781 551.220947265625 363.05499267578125 551.5596313476562 363.2722473144531 551.9043579101562L366.6248474121094 557.2103271484375C366.93438720703125 557.7014770507812 367.2303161621094 558.1922607421875 367.512939453125 558.6825561523438L370.1991271972656 563.1674194335938C370.73101806640625 564.0593872070312 371.2195739746094 564.9491577148438 371.6662292480469 565.8358764648438L373.2884826660156 568.7920532226562C373.84405517578125 569.8059692382812 374.3460693359375 570.8152465820312 374.7965087890625 571.8187866210938L375.303955078125 572.839599609375C375.88970947265625 573.9058227539062 376.4425964355469 575.0267944335938 376.959716796875 576.2037353515625L379.564208984375 582.050048828125C379.7539978027344 582.4833374023438 379.9349365234375 582.9151000976562 380.1071472167969 583.34521484375L382.26568603515625 588.4365844726562C382.7565612792969 589.594482421875 383.184814453125 590.7406005859375 383.5532531738281 591.8737182617188L384.4822692871094 594.3382568359375C384.50396728515625 594.39697265625 384.5254821777344 594.4556884765625 384.546875 594.5143432617188L386.27691650390625 598.879638671875L386.3248291015625 598.9931030273438L388.69580078125 604.6757202148438L390.6995544433594 609.2161254882812Q390.8694763183594 609.5662841796875 391.03509521484375 609.9236450195312L392.82061767578125 613.8706665039062C392.8722229003906 613.9768676757812 392.923583984375 614.08349609375 392.974609375 614.1906127929688L394.4518127441406 617.2861938476562C394.8034973144531 617.9649047851562 395.1425476074219 618.6646728515625 395.46826171875 619.3857421875L397.47552490234375 623.9020385742188C397.6793212890625 624.3192749023438 397.8784484863281 624.7440795898438 398.07275390625 625.1765747070312L400.28936767578125 630.0531005859375C400.4952087402344 630.5115356445312 400.6910095214844 630.9683227539062 400.876953125 631.42333984375L401.63348388671875 633.0877685546875C402.0506286621094 633.9198608398438 402.44805908203125 634.7830200195312 402.8245849609375 635.677734375L404.9441833496094 640.7066040039062C405.22210693359375 641.3703002929688 405.4796142578125 642.030029296875 405.71722412109375 642.6856079101562L406.27667236328125 644.03759765625C406.4649658203125 644.439697265625 406.64886474609375 644.8485717773438 406.82830810546875 645.2644653320312L408.6376647949219 649.4571533203125L408.67083740234375 649.5314331054688L409.8772277832031 652.2293090820312L411.6493835449219 655.6547241210938C411.8251953125 655.9969482421875 411.9950866699219 656.3385009765625 412.15911865234375 656.6793212890625L412.1673889160156 656.6945190429688C413.0780944824219 658.16943359375 413.9216613769531 659.7606201171875 414.6888732910156 661.4720458984375C414.95013427734375 662.0264282226562 415.1956787109375 662.5791625976562 415.4258117675781 663.1299438476562L416.78912353515625 666.1973876953125C416.9468078613281 666.5546875 417.09844970703125 666.910888671875 417.2441101074219 667.2660522460938L417.6923828125 668.297119140625C417.77069091796875 668.4642333984375 417.8482666015625 668.6324462890625 417.92510986328125 668.8018798828125L419.0611267089844 671.337158203125C419.24835205078125 671.751220703125 419.4273376464844 672.1639404296875 419.5982971191406 672.5752563476562L420.04473876953125 673.5121459960938C420.38800048828125 674.2767333984375 420.703369140625 675.03662109375 420.99163818359375 675.79150390625L421.1253356933594 676.102783203125L422.9124450683594 680.1065063476562C423.1190490722656 680.583251953125 423.31500244140625 681.0580444335938 423.5003967285156 681.5308837890625L423.73565673828125 682.0573120117188L425.3095703125 685.0927124023438L425.5530090332031 685.5621948242188L425.6693420410156 685.7865600585938C426.0136413574219 686.4613037109375 426.3349914550781 687.1333618164062 426.63397216796875 687.802490234375L427.0042419433594 688.5848388671875C427.3462829589844 689.2216186523438 427.67730712890625 689.8773193359375 427.99676513671875 690.55224609375L429.5470886230469 693.8743896484375L429.56146240234375 693.9052124023438L430.35546875 695.546630859375C430.38201904296875 695.594970703125 430.4085388183594 695.6433715820312 430.43499755859375 695.6919555664062L431.77880859375 698.1856079101562C431.98150634765625 698.5592041015625 432.177001953125 698.93212890625 432.3653259277344 699.3043823242188L432.70703125 699.9172973632812C432.9769287109375 700.4207153320312 433.2337646484375 700.9228515625 433.4776916503906 701.423583984375C433.9162902832031 702.2774047851562 434.3337097167969 703.1646728515625 434.7283935546875 704.0859375C435.1077575683594 704.9254150390625 435.4518737792969 705.7601928710938 435.7618713378906 706.5897216796875L435.7806701660156 706.635498046875L436.56707763671875 708.3003540039062C436.666748046875 708.4967041015625 436.76544189453125 708.6947631835938 436.8631286621094 708.89453125L438.0306396484375 711.2998046875L439.78570556640625 714.5016479492188L439.9544677734375 714.7716674804688L441.5179748535156 716.9019775390625C442.0588684082031 717.6461181640625 442.5657958984375 718.3915405273438 443.0396728515625 719.1376953125L444.1778869628906 720.8087158203125Q444.3791198730469 721.1080322265625 444.5733947753906 721.4072875976562L445.5677185058594 722.782470703125L446.8239440917969 724.4244995117188C447.0025329589844 724.6577758789062 447.1776428222656 724.891357421875 447.3493347167969 725.1250610351562L448.611083984375 726.807373046875C448.6827392578125 726.9029541015625 448.7538146972656 726.9986572265625 448.8243103027344 727.0942993164062C449.0513916015625 727.3777465820312 449.2760009765625 727.6666259765625 449.4980773925781 727.9609985351562C449.8796081542969 727.54296875 450.26513671875 727.1380615234375 450.6544189453125 726.7460327148438L451.90826416015625 725.4081420898438C452.5868835449219 724.6913452148438 453.27423095703125 724.0128173828125 453.96929931640625 723.3714599609375L454.9814147949219 722.380126953125L456.35528564453125 720.8641357421875C456.56573486328125 720.6364135742188 456.777099609375 720.4124755859375 456.98931884765625 720.1922607421875L458.1198425292969 718.91259765625C458.521728515625 718.4248046875 458.94012451171875 717.9392700195312 459.3753967285156 717.4561157226562L463.11590576171875 713.341552734375C463.31280517578125 713.1229248046875 463.51055908203125 712.9076538085938 463.7091369628906 712.6957397460938L465.9836120605469 710.141357421875C466.4571533203125 709.623779296875 466.9354248046875 709.12548828125 467.41802978515625 708.64599609375L469.8944396972656 706.0343627929688L472.683837890625 702.7716674804688L474.97515869140625 699.7403564453125L477.3990783691406 696.1213989257812C477.6753845214844 695.7113037109375 477.9554443359375 695.3103637695312 478.2391052246094 694.9183959960938L478.4880065917969 694.5623779296875L476.8587646484375 692.82421875Z" fill="black"/>
</svg>
