<svg xmlns="http://www.w3.org/2000/svg" viewBox="0 0 785 1000">
  <path d="M224.833251953125 111.39339447021484C230.65130615234375 111.85863494873047 235.07611083984375 114.3011474609375 238.10768127441406 117.77392578125L238.6291961669922 117.97332763671875L239.9400634765625 118.3233871459961L242.17543029785156 118.69436645507812C242.77777099609375 118.77095794677734 243.39012145996094 118.87276458740234 244.01217651367188 119.00091552734375C244.9512939453125 119.1705322265625 245.84800720214844 119.38558197021484 246.702880859375 119.64237213134766L250.46083068847656 120.56001281738281C250.67857360839844 120.615966796875 250.89381408691406 120.6741714477539 251.1065673828125 120.73458099365234L254.40660095214844 121.43010711669922C254.70547485351562 121.4983139038086 254.9998016357422 121.57086944580078 255.2895965576172 121.64764404296875L257.6493835449219 122.11400604248047C257.88214111328125 122.1456527709961 258.116455078125 122.18071746826172 258.35235595703125 122.2192611694336L263.0148620605469 123.00643157958984L265.0302429199219 123.25670623779297L267.10406494140625 123.45902252197266L271.7574157714844 123.39550018310547L275.8403625488281 122.9962158203125L280.798583984375 122.29489135742188C280.9306335449219 122.26879119873047 281.06353759765625 122.24358367919922 281.1972961425781 122.2192611694336L284.744384765625 121.59891510009766C284.8763732910156 121.56875610351562 285.00927734375 121.53946685791016 285.14306640625 121.51104736328125L287.99615478515625 120.86353302001953C288.1661376953125 120.82797241210938 288.33538818359375 120.79427337646484 288.5038757324219 120.7624282836914L289.02813720703125 120.64095306396484C289.95355224609375 120.37510681152344 290.8602294921875 120.16831970214844 291.74713134765625 120.0170669555664C294.7081604003906 119.18144226074219 297.7105712890625 119.14701080322266 300.5701599121094 119.74842071533203C314.65020751953125 120.70501708984375 320.6783447265625 133.2168426513672 318.6546630859375 144.06787109375L319.1297912597656 145.346435546875L319.6087646484375 146.2987823486328C320.0334167480469 147.04800415039062 320.4303283691406 147.8433837890625 320.79656982421875 148.68621826171875L322.1595153808594 151.8774871826172L323.4877624511719 154.53402709960938C323.74530029296875 155.04739379882812 323.98101806640625 155.55809020996094 324.195556640625 156.0657196044922L325.7742919921875 159.45106506347656C325.9366455078125 159.80874633789062 326.08880615234375 160.16476440429688 326.2310791015625 160.51902770996094L328.1417541503906 164.73231506347656C328.2149963378906 164.89329528808594 328.28619384765625 165.053955078125 328.3553161621094 165.21426391601562L329.48736572265625 167.68927001953125C329.8751525878906 168.43885803222656 330.2335205078125 169.23204040527344 330.55950927734375 170.06983947753906C330.8275146484375 170.71409606933594 331.0623779296875 171.35275268554688 331.2654113769531 171.9851837158203L332.8829040527344 176.4120330810547C333.10968017578125 176.9252471923828 333.32366943359375 177.45657348632812 333.524169921875 178.00625610351562L336.16497802734375 185.40428161621094C336.1818542480469 185.44725036621094 336.19866943359375 185.49034118652344 336.21539306640625 185.53355407714844L339.0383605957031 192.8379364013672C339.124267578125 193.03109741210938 339.2085266113281 193.226806640625 339.2910461425781 193.42507934570312L342.0537414550781 200.16822814941406C342.1115417480469 200.2936248779297 342.1686706542969 200.42010498046875 342.2250671386719 200.5476837158203L345.2276306152344 207.32130432128906C345.3070983886719 207.48294067382812 345.38543701171875 207.646484375 345.4626159667969 207.81192016601562L349.1869201660156 215.9760284423828C349.37530517578125 216.35342407226562 349.5571594238281 216.7414093017578 349.7321472167969 217.14010620117188L352.566162109375 223.58253479003906C352.9051208496094 224.2476043701172 353.2223815917969 224.94622802734375 353.5160217285156 225.67913818359375L356.69287109375 233.651611328125C356.7259521484375 233.73468017578125 356.7585144042969 233.817626953125 356.7905578613281 233.9004669189453L359.3759460449219 239.93780517578125C359.8090515136719 240.79443359375 360.2043762207031 241.7067413330078 360.5577087402344 242.67626953125L363.47149658203125 250.81060791015625C363.6050109863281 251.17935180664062 363.728515625 251.545654296875 363.8423156738281 251.90940856933594L366.405517578125 258.9449462890625C366.52850341796875 259.2884521484375 366.6428527832031 259.62982177734375 366.7487487792969 259.968994140625L368.0773010253906 263.4608459472656C368.29498291015625 263.9682312011719 368.5001220703125 264.4930725097656 368.6920471191406 265.03558349609375L371.46417236328125 272.78546142578125C371.56036376953125 273.05743408203125 371.6512145996094 273.32806396484375 371.73675537109375 273.5972595214844L374.236328125 280.1306457519531C374.497314453125 280.83001708984375 374.721923828125 281.5209045410156 374.9117736816406 282.2027893066406L376.441162109375 286.6864013671875C376.52447509765625 286.8994445800781 376.6056823730469 287.1153564453125 376.6847229003906 287.3341979980469L378.9988708496094 293.7027893066406L380.6069641113281 297.4347229003906L383.40264892578125 302.51019287109375C383.8729553222656 303.3602294921875 384.2802429199219 304.2051086425781 384.62786865234375 305.04302978515625L386.4933776855469 308.9447021484375C386.6258544921875 309.1896667480469 386.7557678222656 309.4392395019531 386.88299560546875 309.6935119628906L389.0885925292969 314.2058410644531C389.22900390625 314.48834228515625 389.36285400390625 314.7699890136719 389.490234375 315.0507507324219L391.7782897949219 319.46722412109375C391.993896484375 319.8336486816406 392.2035827636719 320.211181640625 392.4070739746094 320.6000061035156L396.211181640625 327.80352783203125C396.8592834472656 329.05426025390625 397.3755187988281 330.2908020019531 397.7701416015625 331.5078125L399.74005126953125 336.2431640625C399.8836364746094 336.55938720703125 400.02264404296875 336.8825378417969 400.1569519042969 337.2126770019531L401.746826171875 341.1343994140625C401.7975158691406 341.2494201660156 401.8476257324219 341.3653564453125 401.8971252441406 341.482177734375L403.1259765625 344.4399108886719C403.2451477050781 344.6839904785156 403.36163330078125 344.932373046875 403.4754333496094 345.18511962890625L405.5629577636719 349.9168395996094L407.0848388671875 353.111572265625C407.5845031738281 354.01141357421875 408.0423889160156 354.9770812988281 408.4531555175781 356.01068115234375L411.134033203125 363.0050048828125C411.328369140625 363.432861328125 411.5140686035156 363.8735046386719 411.6907043457031 364.3271179199219L414.2200622558594 370.8022155761719C414.37603759765625 371.2049560546875 414.51983642578125 371.6050109863281 414.6517333984375 372.00225830078125L417.8623046875 379.806640625C418.1473083496094 380.5123291015625 418.3945007324219 381.210205078125 418.60552978515625 381.8995666503906L421.0415954589844 388.3800964355469L423.77178955078125 394.87542724609375L425.56488037109375 398.8172607421875C425.8592834472656 399.3826904296875 426.13848876953125 399.9726867675781 426.4013366699219 400.587646484375L427.4604797363281 403.0884094238281C427.4804992675781 403.065185546875 427.5005187988281 403.04205322265625 427.52056884765625 403.0189514160156L428.79571533203125 401.4592590332031L431.3790588378906 397.5929260253906C431.6998596191406 397.11773681640625 432.0290222167969 396.6629333496094 432.3658752441406 396.2279968261719L433.2322082519531 394.9226379394531C433.7793273925781 393.9714050292969 434.4190368652344 393.027099609375 435.1571350097656 392.09490966796875C435.88372802734375 391.1239929199219 436.64739990234375 390.24798583984375 437.4415283203125 389.4624328613281L439.35150146484375 387.313720703125C439.611572265625 387.0216979980469 439.8742370605469 386.7395324707031 440.1393127441406 386.4670715332031L441.6707763671875 384.7916564941406L442.4820861816406 383.7818298339844C442.6474609375 383.5625 442.8179931640625 383.3435974121094 442.9937438964844 383.1251525878906L444.2685546875 381.5468444824219C444.4791564941406 381.2851257324219 444.6919860839844 381.03057861328125 444.906982421875 380.7831726074219L445.20208740234375 380.42572021484375C445.52545166015625 380.00787353515625 445.86834716796875 379.59228515625 446.2312927246094 379.17938232421875L448.9610595703125 376.0928955078125C449.29852294921875 375.66876220703125 449.6564636230469 375.24725341796875 450.0354309082031 374.82891845703125L453.0301513671875 371.59136962890625Q453.18798828125 371.4178466796875 453.3470153808594 371.2490539550781L455.1750183105469 369.2239074707031C455.6163635253906 368.74603271484375 456.0643005371094 368.2956237792969 456.51800537109375 367.87188720703125L457.4615478515625 366.8564453125C457.6349792480469 366.6710205078125 457.80938720703125 366.4897766113281 457.9847412109375 366.3127136230469L461.8929443359375 362.1822509765625C462.3597717285156 361.6997985839844 462.83306884765625 361.2467956542969 463.3119201660156 360.8223571777344L466.14166259765625 357.9433898925781C466.1754150390625 357.9061584472656 466.2093200683594 357.86895751953125 466.243408203125 357.831787109375L469.3999938964844 354.3514404296875L471.9622497558594 351.2796325683594C472.55853271484375 350.4778137207031 473.2275390625 349.6861877441406 473.9730529785156 348.9082946777344L474.05950927734375 348.817626953125C474.21026611328125 348.6552429199219 474.36199951171875 348.4961853027344 474.5146484375 348.3404541015625L477.7694396972656 344.9279479980469C478.1652526855469 344.48260498046875 478.5857849121094 344.0419921875 479.0317077636719 343.6068115234375L484.4754333496094 338.3782043457031C485.0845031738281 337.71234130859375 485.7512512207031 337.0598449707031 486.4780578613281 336.42352294921875L490.35980224609375 333.04736328125C490.5065002441406 332.904052734375 490.6559753417969 332.7613830566406 490.80828857421875 332.619384765625L496.7156677246094 327.19244384765625C496.8809509277344 327.0243835449219 497.0499267578125 326.8570861816406 497.2226867675781 326.6906433105469L502.3804626464844 321.7412414550781L507.6435241699219 315.7841491699219C507.8349914550781 315.56829833984375 508.0278625488281 315.3578186035156 508.2220458984375 315.1526184082031L511.06103515625 311.7670593261719L514.0537109375 307.7768249511719C514.6630859375 306.8016662597656 515.3706665039062 305.8335266113281 516.1825561523438 304.8776550292969L520.9515380859375 299.377685546875C521.3609008789062 298.8592834472656 521.8010864257812 298.3450927734375 522.273193359375 297.83599853515625L527.7075805664062 291.93865966796875L531.2330932617188 287.8074645996094L535.5471801757812 282.1136474609375L535.6680908203125 281.95458984375L541.2533569335938 274.6065979003906C541.5321044921875 274.23944091796875 541.8155517578125 273.8857727050781 542.1033325195312 273.5452880859375L546.5275268554688 267.4897155761719C547.0214233398438 266.7210998535156 547.5758666992188 265.9562072753906 548.19384765625 265.19744873046875L553.3701171875 258.8575439453125L553.4143676757812 258.8033142089844L553.4981079101562 258.70147705078125L560.6988525390625 249.94052124023438C560.8919067382812 249.70555114746094 561.086669921875 249.47650146484375 561.283203125 249.25326538085938L566.2550048828125 243.35296630859375C566.9336547851562 242.42312622070312 567.7101440429688 241.50765991210938 568.5903930664062 240.61233520507812L575.3892211914062 233.7325439453125L576.097412109375 232.94338989257812C576.37744140625 232.65768432617188 576.6596069335938 232.3824462890625 576.94384765625 232.1174774169922L581.237060546875 227.50025939941406C581.54931640625 227.16787719726562 581.8646240234375 226.84898376464844 582.182861328125 226.54331970214844L585.66845703125 222.7451171875C586.3966674804688 221.9507293701172 587.1432495117188 221.23158264160156 587.9044189453125 220.58419799804688L588.9708862304688 219.563232421875C589.0823364257812 219.4431915283203 589.1956176757812 219.32345581054688 589.3106689453125 219.2040557861328L591.7999267578125 216.64199829101562C592.0399780273438 216.36141967773438 592.2893676757812 216.08224487304688 592.5482177734375 215.80462646484375L594.26708984375 213.97210693359375L597.2022094726562 210.09844970703125C598.00634765625 209.05197143554688 598.847900390625 208.11538696289062 599.7192993164062 207.282958984375L600.6388549804688 206.2663116455078L603.050048828125 202.51043701171875C603.57666015625 201.69680786132812 604.12841796875 200.94082641601562 604.7020874023438 200.240478515625L606.449462890625 197.85646057128906C607.1121215820312 196.97010803222656 607.802490234375 196.1610107421875 608.5159301757812 195.42581176757812L611.3533935546875 192.10858154296875L613.4287719726562 189.43707275390625C614.1007080078125 188.43223571777344 614.88134765625 187.4391632080078 615.7776489257812 186.46434020996094L619.2421264648438 182.71742248535156L620.3414306640625 181.43960571289062C620.5267333984375 181.19168090820312 620.7186279296875 180.94427490234375 620.917236328125 180.6974639892578L623.7600708007812 177.20001220703125L624.86474609375 175.59918212890625L625.2567138671875 174.90187072753906C625.6239624023438 173.61996459960938 626.122802734375 172.31239318847656 626.7650756835938 170.9848175048828L627.7969970703125 169.0018310546875C627.8606567382812 168.86984252929688 627.9249877929688 168.73907470703125 627.9900512695312 168.60958862304688C628.1436157226562 168.20152282714844 628.3115844726562 167.79197692871094 628.4943237304688 167.38121032714844L624.779541015625 167.0604248046875C622.3967895507812 168.003662109375 619.6591796875 168.5364227294922 616.5667724609375 168.5364227294922H612.493408203125C611.2060546875 168.6053466796875 609.86572265625 168.54818725585938 608.47705078125 168.35037231445312C606.6101684570312 168.20181274414062 604.6954956054688 167.75987243652344 602.7646484375 166.97970581054688C600.7171630859375 166.3236541748047 598.7222900390625 165.27935791015625 596.8535766601562 163.79566955566406C596.2156372070312 163.32498168945312 595.6207885742188 162.82688903808594 595.068115234375 162.3047332763672C594.009033203125 161.3479766845703 593.0298461914062 160.238037109375 592.1531982421875 158.96726989746094C591.6380615234375 158.283447265625 591.1800537109375 157.58404541015625 590.7766723632812 156.87257385253906C589.3121337890625 154.53562927246094 588.33642578125 151.78659057617188 588.0416870117188 148.65658569335938L588.033935546875 148.5945281982422C587.3993530273438 145.18359375 587.6994018554688 141.55677795410156 589.2341918945312 137.99853515625C589.4590454101562 137.46322631835938 589.7083129882812 136.94236755371094 589.9801635742188 136.4365234375C590.31787109375 135.67861938476562 590.7110595703125 134.93698120117188 591.161865234375 134.21658325195312C592.89794921875 131.3212127685547 595.2354125976562 129.14739990234375 597.8990478515625 127.65047454833984C598.6622924804688 127.12584686279297 599.4360961914062 126.66694641113281 600.2171020507812 126.27051544189453C603.2943725585938 124.57147216796875 606.8350219726562 123.68817901611328 610.6130981445312 123.98725128173828C611.648193359375 124.0082015991211 612.655517578125 124.11443328857422 613.6315307617188 124.2981185913086C614.4707641601562 124.3153305053711 615.3298950195312 124.38579559326172 616.2075805664062 124.51326751708984C617.246337890625 124.61743927001953 618.2437133789062 124.79834747314453 619.1983032226562 125.04867553710938C620.286376953125 125.28993225097656 621.3153686523438 125.60750579833984 622.2853393554688 125.99312591552734L627.0078735351562 126.63041687011719C627.1336059570312 126.64713287353516 627.2586669921875 126.66465759277344 627.3829956054688 126.68297576904297L632.2771606445312 127.1009292602539C632.711181640625 127.12641143798828 633.1513671875 127.16407775878906 633.5975952148438 127.21434783935547C634.398681640625 127.28842163085938 635.172607421875 127.39649200439453 635.91943359375 127.53638458251953L642.697509765625 128.50466918945312L648.0316772460938 129.1597442626953Q648.0916748046875 129.16705322265625 648.1514282226562 129.17457580566406L650.6828002929688 129.30596923828125C651.2117309570312 129.29434204101562 651.751220703125 129.29933166503906 652.3012084960938 129.32162475585938L657.690185546875 129.61195373535156C657.968505859375 129.61851501464844 658.2496337890625 129.62962341308594 658.5335083007812 129.6453857421875L664.6604614257812 129.91567993164062C664.9356689453125 129.92225646972656 665.213623046875 129.9333038330078 665.4942016601562 129.9488983154297L677.4326782226562 130.67735290527344C677.5455932617188 130.68362426757812 677.6580200195312 130.69058227539062 677.7698974609375 130.69821166992188L684.804931640625 131.0491943359375C685.3899536132812 131.03268432617188 685.9879760742188 131.03659057617188 686.5989990234375 131.0618133544922L693.0942993164062 131.38555908203125C693.1927490234375 131.3898468017578 693.2908325195312 131.39466857910156 693.3884887695312 131.39999389648438L699.053466796875 131.6178741455078C699.224365234375 131.61968994140625 699.3963623046875 131.62318420410156 699.5693969726562 131.62838745117188H699.7312622070312C699.8433837890625 131.63259887695312 699.9550170898438 131.63748168945312 700.0661010742188 131.64305114746094L709.8486328125 131.93190002441406C710.0308227539062 131.93777465820312 710.2117309570312 131.94546508789062 710.391357421875 131.95494079589844L715.3695068359375 132.11770629882812C715.9121704101562 132.0922393798828 716.46630859375 132.08401489257812 717.0319213867188 132.09378051757812L721.766845703125 132.2556610107422H723.6546630859375C723.8668212890625 132.2530975341797 724.0806884765625 132.25308227539062 724.2962036132812 132.2556610107422H725.328125C752.28076171875 132.64012145996094 751.734375 173.10946655273438 724.7817993164062 172.72500610351562H724.5084838867188C724.2579956054688 172.72862243652344 724.005126953125 172.72865295410156 723.7498779296875 172.72500610351562H721.989501953125C721.63671875 172.73228454589844 721.2792358398438 172.7323455810547 720.9169921875 172.72500610351562L716.3098754882812 172.5681610107422C716.2337646484375 172.5668182373047 716.157470703125 172.5651397705078 716.0809326171875 172.56312561035156L709.2440795898438 172.41244506835938C709.0224609375 172.41156005859375 708.799072265625 172.4078369140625 708.5738525390625 172.4012451171875L698.9066772460938 172.1157989501953C698.5259399414062 172.1183624267578 698.1398315429688 172.11244201660156 697.748291015625 172.0977325439453L697.7456665039062 172.09762573242188L691.8716430664062 171.8724365234375C691.7001953125 171.86831665039062 691.5277099609375 171.8624725341797 691.3541259765625 171.85491943359375L685.2886962890625 171.55258178710938C685.0927734375 171.5476837158203 684.8955078125 171.54055786132812 684.6968994140625 171.53115844726562L677.5961303710938 171.17611694335938C675.9924926757812 176.61978149414062 672.1207275390625 181.38232421875 665.7222900390625 183.66665649414062L665.2327270507812 184.4989776611328L664.2396850585938 186.5452880859375C664.1647338867188 186.70314025878906 664.0888061523438 186.85923767089844 664.0117797851562 187.0135955810547L663.8553466796875 187.33973693847656C663.4884643554688 188.7810821533203 662.9500122070312 190.25106811523438 662.2218627929688 191.73976135253906C661.6834716796875 192.9481201171875 661.07177734375 194.05458068847656 660.3973999023438 195.0628204345703C660.1878662109375 195.45704650878906 659.963623046875 195.85150146484375 659.7243041992188 196.24586486816406C659.0577392578125 197.40695190429688 658.3363647460938 198.46035766601562 657.5689086914062 199.4109649658203L657.4370727539062 199.5983428955078C656.8885498046875 200.50038146972656 656.2573852539062 201.398193359375 655.5387573242188 202.28785705566406L653.0855712890625 205.305908203125C652.811767578125 205.67056274414062 652.5234375 206.0338592529297 652.2202758789062 206.3955078125L650.9030151367188 207.93795776367188C650.4124755859375 208.59054565429688 649.8742065429688 209.23712158203125 649.2862548828125 209.87586975097656L646.0692749023438 213.37408447265625L643.6419677734375 216.49862670898438C643.2207641601562 217.0873260498047 642.7621459960938 217.67251586914062 642.2648315429688 218.25302124023438L638.3260498046875 222.8577880859375L636.7686767578125 224.9186553955078L635.3115844726562 227.20974731445312C634.6611938476562 228.44236755371094 633.8585815429688 229.6652069091797 632.89111328125 230.86703491210938C632.1304931640625 231.87628173828125 631.3272094726562 232.78086853027344 630.4892578125 233.58596801757812L628.7501220703125 235.50869750976562L626.9011840820312 237.94886779785156C626.4075927734375 238.6702117919922 625.857177734375 239.3848876953125 625.2474365234375 240.09034729003906C624.6708984375 240.78590393066406 624.0767822265625 241.42811584472656 623.4678344726562 242.01898193359375L623.2164916992188 242.28695678710938C622.8213500976562 242.7652130126953 622.399169921875 243.23922729492188 621.94921875 243.70823669433594L619.1220092773438 246.58480834960938C618.72021484375 247.02734375 618.2935791015625 247.4649200439453 617.841552734375 247.89682006835938L615.1281127929688 250.47792053222656L610.9617919921875 254.9991912841797C610.7071533203125 255.27725219726562 610.4502563476562 255.5460968017578 610.1912841796875 255.8058624267578L605.3567504882812 260.9279479980469C605.3146362304688 260.9729309082031 605.2725219726562 261.01763916015625 605.2302856445312 261.0621032714844C604.94775390625 261.3831787109375 604.6526489257812 261.7021789550781 604.3446655273438 262.01873779296875L604.3248291015625 262.0408630371094C604.298095703125 262.0681457519531 604.2713623046875 262.0953369140625 604.243896484375 262.1217956542969L604.0905151367188 262.2770080566406L598.1773681640625 268.2605285644531L592.1314697265625 275.45367431640625C592.0819702148438 275.5153503417969 592.031982421875 275.57696533203125 591.9816284179688 275.6385498046875L585.1893920898438 283.90655517578125C585.06201171875 284.0713806152344 584.931640625 284.23590087890625 584.79833984375 284.4001770019531L579.9300537109375 290.2904357910156L574.2755737304688 298.0123291015625C574.0265502929688 298.379150390625 573.763916015625 298.7453918457031 573.4871826171875 299.11077880859375L568.812255859375 305.2164306640625C568.52197265625 305.657470703125 568.2120971679688 306.0977478027344 567.8821411132812 306.5368957519531L563.3698120117188 312.4656677246094C562.7959594726562 313.22821044921875 562.2017211914062 313.9330749511719 561.5901489257812 314.5824890136719L558.0076293945312 318.7991027832031C557.4629516601562 319.4313049316406 556.9058227539062 320.0188293457031 556.3380737304688 320.563232421875L551.9979248046875 325.3551330566406Q551.927001953125 325.4315185546875 551.8558349609375 325.50701904296875L547.7647094726562 330.2575378417969L544.212646484375 334.99359130859375C543.6123046875 335.9505310058594 542.9178466796875 336.90093994140625 542.1234130859375 337.8399353027344L538.2383422851562 342.3522644042969C537.8123168945312 342.85333251953125 537.3783569335938 343.3265380859375 536.9373168945312 343.7726745605469L533.544189453125 347.61322021484375C532.972412109375 348.3280944824219 532.3397216796875 349.0322570800781 531.643310546875 349.72283935546875C531.322021484375 350.0541687011719 530.9971923828125 350.37127685546875 530.6690063476562 350.67431640625L525.348876953125 355.8690185546875C524.8466186523438 356.35296630859375 524.3385009765625 356.8049011230469 523.8255615234375 357.2258605957031L519.2747192382812 361.4576110839844C518.8494262695312 361.8877258300781 518.39892578125 362.3116455078125 517.9227294921875 362.72857666015625L513.6951293945312 366.405517578125L507.34002685546875 372.62335205078125C507.28326416015625 372.6784362792969 507.2264404296875 372.733154296875 507.1695251464844 372.78741455078125L503.8793029785156 376.149169921875L501.775146484375 378.74554443359375C501.2579650878906 379.4505615234375 500.6855773925781 380.1490173339844 500.0555419921875 380.838623046875L496.1097717285156 385.1890869140625C495.4690246582031 385.8880920410156 494.8139343261719 386.5288391113281 494.1470947265625 387.1137390136719L491.64727783203125 389.6893310546875C491.4541931152344 389.9034423828125 491.2555236816406 390.1165466308594 491.0511169433594 390.32867431640625L487.2769775390625 394.1554870605469C487.1676025390625 394.2763977050781 487.0564270019531 394.39697265625 486.9434509277344 394.51727294921875L484.8188171386719 396.80377197265625C484.6759338378906 396.9563903808594 484.5323791503906 397.1061706542969 484.38818359375 397.25311279296875L483.413818359375 398.30462646484375C483.2523193359375 398.492919921875 483.0866394042969 398.6806335449219 482.9167785644531 398.8677062988281L480.6338195800781 401.3868103027344C480.5006408691406 401.5457458496094 480.36456298828125 401.7043151855469 480.2255554199219 401.8624572753906L476.97161865234375 405.5415954589844L475.6322937011719 407.1639404296875C475.4776306152344 407.3505859375 475.32183837890625 407.53350830078125 475.16497802734375 407.7126770019531L474.53961181640625 408.4994201660156C474.37213134765625 408.7075500488281 474.2032470703125 408.9111328125 474.032958984375 409.1102294921875L472.5566101074219 410.94781494140625C471.987548828125 411.646240234375 471.4023742675781 412.292724609375 470.8034362792969 412.88909912109375L470.00823974609375 413.765869140625C469.88873291015625 413.906005859375 469.7669372558594 414.04583740234375 469.642822265625 414.18536376953125L467.0848083496094 417.1087951660156L465.1112976074219 420.06243896484375L464.9685974121094 420.2760009765625L462.8453369140625 423.4178771972656C462.4151306152344 424.12298583984375 461.93438720703125 424.82525634765625 461.4008483886719 425.52276611328125C460.8248291015625 426.3099670410156 460.2245788574219 427.0361633300781 459.60357666015625 427.7035827636719L459.3092041015625 428.0544738769531C459.0265808105469 428.4442443847656 458.7278137207031 428.832763671875 458.4125671386719 429.2197265625L455.2559814453125 433.08453369140625C454.67852783203125 433.7899475097656 454.0846862792969 434.4422302246094 453.4769287109375 435.04339599609375L453.22222900390625 435.3249206542969C452.2873840332031 436.56268310546875 451.1679382324219 437.7583312988281 449.8493957519531 438.8938903808594C449.2200927734375 439.4720764160156 448.579345703125 439.9991760253906 447.9295349121094 440.4771728515625L445.7658996582031 442.2508544921875C444.90399169921875 442.9476623535156 444.0346374511719 443.5630187988281 443.1613464355469 444.1012878417969C442.89947509765625 444.2898864746094 442.6307678222656 444.47540283203125 442.3551025390625 444.65765380859375C442.3865966796875 444.7786560058594 442.4173583984375 444.9004211425781 442.4474182128906 445.02301025390625L444.140625 452.1646728515625C444.2348937988281 452.4634094238281 444.3247985839844 452.7673034667969 444.4101867675781 453.076416015625L445.7950439453125 458.1810302734375C446.0207214355469 458.87890625 446.220703125 459.6053771972656 446.3931884765625 460.36090087890625L448.4571228027344 469.5271911621094C448.4931640625 469.6871643066406 448.5274963378906 469.8464660644531 448.5601806640625 470.0051574707031L450.5099182128906 477.6912841796875L453.3539123535156 486.9897155761719C453.3888244628906 487.10455322265625 453.42279052734375 487.2191162109375 453.45587158203125 487.3334045410156L455.42425537109375 492.9453430175781C455.49761962890625 493.1165466308594 455.5697021484375 493.2897033691406 455.6404113769531 493.4648132324219L458.77923583984375 501.292236328125L461.9613342285156 508.4719543457031C462.1250305175781 508.7838439941406 462.284423828125 509.1031494140625 462.43927001953125 509.4299621582031L466.2095642089844 517.4708251953125C466.5247802734375 518.0841674804688 466.8212585449219 518.7263793945312 467.0973815917969 519.3977661132812C467.30828857421875 519.8892211914062 467.4997863769531 520.3775024414062 467.6724853515625 520.8624877929688L469.3173828125 525.0887451171875C469.7968444824219 526.1180419921875 470.2181091308594 527.2244262695312 470.5736083984375 528.4100952148438L473.42669677734375 537.73828125C473.497802734375 537.9754028320312 473.56500244140625 538.2113037109375 473.62835693359375 538.4459838867188L475.9560241699219 545.569091796875C476.198486328125 546.3195190429688 476.4009704589844 547.0586547851562 476.5654296875 547.7859497070312L477.6340637207031 551.3277587890625C477.923828125 552.1080322265625 478.1815185546875 552.9266357421875 478.4044189453125 553.7843627929688L479.5489807128906 558.2462158203125L480.8726501464844 562.203125C480.978271484375 562.5008544921875 481.0796203613281 562.803955078125 481.17657470703125 563.112548828125L482.5292053222656 567.3784790039062L483.55126953125 569.7282104492188L485.00445556640625 572.274169921875C485.21051025390625 572.6100463867188 485.4117736816406 572.95556640625 485.60797119140625 573.3108520507812L486.5606689453125 575.0390014648438C486.9413146972656 575.6380615234375 487.30548095703125 576.2691040039062 487.65167236328125 576.932861328125L489.6478271484375 580.86328125L492.2449645996094 584.601806640625C492.91778564453125 585.5903930664062 493.4950256347656 586.580078125 493.9825439453125 587.5668334960938C494.771484375 588.7254638671875 495.478515625 590.0158081054688 496.0874328613281 591.443603515625C496.674560546875 592.6897583007812 497.1270446777344 593.9235229492188 497.45574951171875 595.1385498046875L498.1929016113281 597.2039184570312L500.3793029785156 601.1334838867188C500.6719970703125 601.6510620117188 500.94110107421875 602.1669311523438 501.1873779296875 602.6806030273438L502.4944152832031 605.1627197265625C502.5788879394531 605.3189086914062 502.66217041015625 605.4769897460938 502.74420166015625 605.6370849609375L502.90863037109375 605.9493408203125C503.4459533691406 606.9871826171875 503.8926696777344 608.0150756835938 504.254638671875 609.0299072265625L506.06524658203125 613.2945556640625C506.1234130859375 613.4354858398438 506.1800537109375 613.576171875 506.23516845703125 613.7164916992188L507.6968078613281 616.9554443359375C507.8443603515625 617.2333374023438 507.988525390625 617.5171508789062 508.1291809082031 617.806884765625L510.9450988769531 623.7383422851562L512.8883666992188 627.2388305664062L515.1043090820312 630.6763916015625C515.4257202148438 631.1348266601562 515.7381591796875 631.613525390625 516.0409545898438 632.11279296875L518.7631225585938 636.6384887695312C518.8273315429688 636.734375 518.8912353515625 636.8311157226562 518.9547119140625 636.9286499023438L521.3887939453125 640.698486328125C521.9484252929688 641.465576171875 522.4805908203125 642.2924194335938 522.9814453125 643.18115234375L524.6831665039062 646.2152709960938C525.2049560546875 647.0302124023438 525.6903076171875 647.90625 526.1344604492188 648.8453979492188C526.648193359375 649.8546142578125 527.0733642578125 650.8558959960938 527.41552734375 651.8462524414062L528.2573852539062 653.8646850585938L530.10400390625 657.8715209960938C530.7744140625 659.3497924804688 531.271240234375 660.7998046875 531.610595703125 662.2141723632812L532.1817626953125 663.9021606445312C532.3897705078125 664.4523315429688 532.5811767578125 665.0218505859375 532.7550659179688 665.6109619140625C533.0487670898438 666.5364379882812 533.2811279296875 667.4449462890625 533.4556884765625 668.335205078125L534.282958984375 671.670654296875L535.1989135742188 674.5593872070312L536.5791015625 677.6408081054688C536.685302734375 677.8854370117188 536.7869262695312 678.1293334960938 536.8838500976562 678.3722534179688L537.9859008789062 680.9249877929688C538.3319702148438 681.6341552734375 538.6529541015625 682.3804931640625 538.9465942382812 683.1648559570312L540.6334228515625 687.5693969726562L541.288818359375 689.142333984375C541.5543823242188 689.6844482421875 541.805908203125 690.2481079101562 542.04248046875 690.8338012695312L543.444580078125 694.3164672851562C543.7212524414062 694.9367065429688 543.97802734375 695.5838623046875 544.2133178710938 696.2582397460938C544.41357421875 696.8028564453125 544.5911254882812 697.342529296875 544.746826171875 697.8770751953125L545.4160766601562 699.9299926757812C545.7285766601562 700.7596435546875 546.00341796875 701.6332397460938 546.2371215820312 702.5516357421875C546.3756713867188 703.0615234375 546.4957275390625 703.5660400390625 546.5978393554688 704.0648193359375L546.9059448242188 705.3710327148438C547.1763916015625 706.3036499023438 547.398193359375 707.2852783203125 547.5665283203125 708.3165893554688L547.6233520507812 708.6741333007812L547.6608276367188 708.9097290039062L548.0638427734375 711.4447021484375C548.1371459960938 711.8442993164062 548.2015380859375 712.2515258789062 548.2567138671875 712.6665649414062C548.3618774414062 713.378662109375 548.4351806640625 714.0762329101562 548.4780883789062 714.7589111328125L548.64306640625 716.4337158203125C548.7349243164062 717.1005859375 548.801513671875 717.7875366210938 548.84130859375 718.49462890625L548.8572387695312 718.9042358398438C548.8675537109375 719.1065673828125 548.8753051757812 719.3075561523438 548.8806762695312 719.5071411132812L548.9208984375 720.5418090820312C548.9912109375 721.16455078125 549.0392456054688 721.8041381835938 549.0639038085938 722.4606323242188L549.1448364257812 724.5043334960938C549.1670532226562 725.1339721679688 549.1666870117188 725.7496948242188 549.1448364257812 726.3515625V726.6577758789062L549.549560546875 728.7738037109375L549.5665893554688 728.8622436523438L550.2577514648438 731.6268920898438C550.3355102539062 731.9411010742188 550.4066772460938 732.2529296875 550.4713745117188 732.5623779296875L551.1278686523438 735.188232421875C551.2509765625 735.6985473632812 551.3567504882812 736.2025146484375 551.44580078125 736.7000122070312L551.8360595703125 738.5067138671875C552.0230712890625 739.4549560546875 552.1524658203125 740.37939453125 552.2279052734375 741.279296875L552.4633178710938 742.998779296875C552.568359375 743.73681640625 552.6399536132812 744.458740234375 552.6797485351562 745.164306640625L552.7060546875 745.4159545898438C552.82275390625 746.1945190429688 552.904541015625 747.0007934570312 552.948974609375 747.8348999023438L553.11083984375 750.9915161132812C553.147705078125 751.6927490234375 553.1561889648438 752.3771362304688 553.1377563476562 753.0445556640625L553.1677856445312 754.726806640625C556.5133056640625 759.3751220703125 557.7822265625 765.4613647460938 556.8209838867188 771.1224365234375C559.0870361328125 779.9962768554688 555.9376220703125 790.174072265625 544.70458984375 794.633544921875C544.3773193359375 794.7681884765625 544.0430297851562 794.8977661132812 543.7017211914062 795.0221557617188L542.3460083007812 795.487548828125C541.4661254882812 795.805419921875 540.6001586914062 796.0665283203125 539.7492065429688 796.2740478515625C539.1678466796875 796.4705200195312 538.5661010742188 796.6488037109375 537.944091796875 796.8077392578125C537.3552856445312 796.9651489257812 536.7743530273438 797.0985107421875 536.201416015625 797.2088012695312L533.9564208984375 797.7088012695312C533.3296508789062 797.8690185546875 532.6818237304688 798.0077514648438 532.0127563476562 798.1236572265625C531.6602783203125 798.188720703125 531.3109130859375 798.24560546875 530.9649047851562 798.2945556640625L525.2881469726562 799.2107543945312C524.2344360351562 799.3795776367188 523.2124633789062 799.4791259765625 522.222900390625 799.5144653320312L518.4820556640625 799.7950439453125C517.4271850585938 799.9329833984375 516.323486328125 800.0033569335938 515.1708374023438 799.9998779296875L506.43829345703125 799.9215698242188C506.2878112792969 799.9219970703125 506.1364440917969 799.921142578125 505.9842834472656 799.9189453125L497.4389953613281 799.76806640625C497.13427734375 799.7698364257812 496.8260803222656 799.7661743164062 496.51446533203125 799.757080078125L487.1053466796875 799.5142211914062C486.35491943359375 799.4922485351562 485.6263122558594 799.4395141601562 484.9194641113281 799.3577880859375L481.8847961425781 799.2107543945312C481.2548828125 799.1701049804688 480.64111328125 799.1082763671875 480.0434265136719 799.0264282226562L477.4533996582031 798.8060302734375C476.7178955078125 798.73681640625 476.00537109375 798.6392822265625 475.315673828125 798.5150756835938L474.80810546875 798.4542846679688C474.152587890625 798.4170532226562 473.4830017089844 798.3526611328125 472.7994384765625 798.2597045898438L466.0815124511719 797.3086547851562C465.3540344238281 797.2095336914062 464.6504211425781 797.0834350585938 463.97039794921875 796.9319458007812L459.65496826171875 796.1328125C459.3711853027344 796.0848999023438 459.085205078125 796.03173828125 458.7970275878906 795.9732055664062L454.6508483886719 795.150390625L451.8565368652344 794.8602905273438C451.0611572265625 794.7806396484375 450.29290771484375 794.6680297851562 449.55157470703125 794.5245361328125L447.9183349609375 794.301513671875C447.4796447753906 794.2550659179688 447.0358581542969 794.194580078125 446.58709716796875 794.1196899414062L446.2312927246094 794.0711059570312C444.4493103027344 793.7962036132812 442.8141784667969 793.360595703125 441.3222961425781 792.7882080078125C440.7510070800781 792.6288452148438 440.1747131347656 792.4430541992188 439.5939025878906 792.229736328125C438.49835205078125 791.8642578125 437.47308349609375 791.4423217773438 436.51629638671875 790.9702758789062C435.2708740234375 790.4715576171875 434.0253601074219 789.8276977539062 432.7900085449219 789.0263061523438C431.3138122558594 788.1595458984375 430.0189208984375 787.1934814453125 428.8948974609375 786.1494140625C428.4815979003906 785.78662109375 428.0752258300781 785.401123046875 427.6766357421875 784.9922485351562C424.8758850097656 782.71630859375 422.6822509765625 779.5819702148438 421.5536804199219 775.5892333984375C420.2053527832031 771.9271850585938 420.0580749511719 768.3380126953125 420.8055114746094 765.035888671875C421.3330383300781 758.8318481445312 424.1297912597656 754.2269897460938 428.02581787109375 751.2213745117188L427.3856506347656 749.044921875L426.65380859375 747.0061645507812C426.5392150878906 746.7342529296875 426.42803955078125 746.4574584960938 426.32037353515625 746.1756591796875L425.448486328125 743.8505859375C425.10089111328125 743.0390625 424.7884521484375 742.1824951171875 424.5146179199219 741.2798461914062C424.3180847167969 740.6692504882812 424.1493835449219 740.0653076171875 424.0074768066406 739.4685668945312L423.766845703125 738.5979614257812C423.4735107421875 737.7672119140625 423.2174377441406 736.8939208984375 423.00189208984375 735.9773559570312L421.80804443359375 730.9996337890625C421.7175598144531 730.6124267578125 421.636962890625 730.2288208007812 421.5659484863281 729.8490600585938L421.099853515625 727.9846801757812C420.9353332519531 727.3115234375 420.8011169433594 726.6492309570312 420.6958312988281 725.998291015625L420.44378662109375 724.8749389648438C420.3974914550781 724.67919921875 420.3531188964844 724.4814453125 420.3106994628906 724.28173828125L419.52154541015625 720.6394653320312C419.4885559082031 720.4818115234375 419.4571838378906 720.3248291015625 419.4273986816406 720.16845703125L418.8514099121094 717.8756713867188L417.4902648925781 713.5170288085938L415.25201416015625 707.911865234375C415.1182556152344 707.5817260742188 414.9927978515625 707.2533569335938 414.8755187988281 706.9267578125L412.5608215332031 701.113037109375C411.95068359375 699.54736328125 411.5245361328125 698.0217895507812 411.2642517089844 696.5435180664062L410.4361572265625 693.444091796875C410.2036437988281 692.5413818359375 410.02606201171875 691.6577758789062 409.9001159667969 690.794189453125L409.02301025390625 686.6224365234375C408.96600341796875 686.4231567382812 408.91094970703125 686.2216186523438 408.85784912109375 686.0179443359375L407.62054443359375 681.0528564453125C407.46746826171875 680.5634765625 407.3266296386719 680.0601806640625 407.1986083984375 679.5428466796875L405.816650390625 673.9276123046875C405.74102783203125 673.6651000976562 405.6688232421875 673.398681640625 405.6000671386719 673.1284790039062L403.6373291015625 665.2369384765625C403.5687561035156 664.9632568359375 403.50518798828125 664.6913452148438 403.446533203125 664.4212646484375L401.4114990234375 657.64892578125C401.1550598144531 656.7628173828125 400.9527587890625 655.8938598632812 400.801513671875 655.0430297851562L399.2596435546875 648.862060546875L396.7575378417969 640.955322265625C396.68878173828125 640.73828125 396.6233825683594 640.5221557617188 396.5612487792969 640.3070678710938L394.3403625488281 633.778076171875L394.30914306640625 633.6911010742188L391.4913635253906 625.8541259765625C391.3454284667969 625.5001831054688 391.2054138183594 625.1380615234375 391.07159423828125 624.767578125L388.03173828125 616.1959838867188C388.0129699707031 616.1530151367188 387.9942932128906 616.1099243164062 387.9756774902344 616.0667114257812L384.0299072265625 606.738525390625C383.8778076171875 606.3816528320312 383.73553466796875 606.0266723632812 383.6029357910156 605.673583984375L381.5818176269531 600.8715209960938C381.4704895019531 600.6193237304688 381.3622741699219 600.36279296875 381.2572326660156 600.101806640625L381.23541259765625 600.04736328125C381.0098571777344 599.4989013671875 380.8072204589844 598.9548950195312 380.6268005371094 598.4158325195312L378.03509521484375 591.3202514648438C377.866943359375 590.9129028320312 377.70672607421875 590.4945678710938 377.5548095703125 590.0651245117188L374.62078857421875 581.7689208984375C374.3926696777344 581.1240234375 374.1948547363281 580.48681640625 374.02606201171875 579.8577270507812L372.46014404296875 574.8812866210938C372.2702941894531 574.3740844726562 372.09320068359375 573.8507080078125 371.9295959472656 573.3108520507812L369.8600158691406 566.3495483398438C369.69610595703125 565.890625 369.54266357421875 565.418701171875 369.4002380371094 564.9336547851562L366.63372802734375 555.4378051757812C366.52508544921875 555.102294921875 366.4219970703125 554.7603149414062 366.3245849609375 554.41162109375L363.5087890625 544.1568603515625L360.7317199707031 535.4131469726562C359.9215393066406 536.2481079101562 359.0509033203125 536.9857788085938 358.1324157714844 537.6293334960938L357.7855529785156 538.1227416992188L357.7549743652344 538.1652221679688L357.61090087890625 538.3961181640625C357.2610168457031 539.0197143554688 356.8745422363281 539.6439208984375 356.4500427246094 540.2676391601562L355.2562255859375 541.9268798828125C354.7820129394531 542.6229858398438 354.2900085449219 543.275146484375 353.7821960449219 543.8847045898438L353.5976257324219 544.1329345703125L353.1315612792969 544.7597045898438C353.0548400878906 544.8551025390625 352.97784423828125 544.9496459960938 352.9005432128906 545.0431518554688L352.89935302734375 545.044677734375C352.6476135253906 545.4291381835938 352.38116455078125 545.8131103515625 352.099609375 546.1963500976562L350.4668884277344 548.3416748046875C350.376220703125 548.46484375 350.2839660644531 548.5879516601562 350.1900939941406 548.7108764648438C350.16571044921875 548.7427978515625 350.1412048339844 548.7747192382812 350.1166076660156 548.806640625L349.9507141113281 549.024658203125L348.3764343261719 551.0931396484375C348.04669189453125 551.5215454101562 347.71063232421875 551.9314575195312 347.36883544921875 552.3232421875C346.8465576171875 553.0536499023438 346.2659912109375 553.777587890625 345.62451171875 554.4926147460938L343.8232421875 556.4428100585938C343.3543701171875 557.2449951171875 342.8227233886719 558.0458984375 342.2250671386719 558.843017578125L339.4084167480469 562.5355834960938C339.0990905761719 562.9656982421875 338.7701416015625 563.394287109375 338.42095947265625 563.82080078125L338.19305419921875 564.0935668945312L338.0738220214844 564.2362060546875L334.718017578125 568.2521362304688C334.25054931640625 568.8204956054688 333.7726745605469 569.354248046875 333.2856140136719 569.8544921875L330.67266845703125 572.7969970703125C330.2819519042969 573.289306640625 329.863525390625 573.77783203125 329.4165344238281 574.2618408203125L326.0171203613281 577.9647827148438C325.71075439453125 578.295166015625 325.4012145996094 578.6123046875 325.0887756347656 578.9165649414062L321.03936767578125 583.1044311523438C320.18292236328125 584.0007934570312 319.30419921875 584.796875 318.4088134765625 585.4981079101562L315.5831604003906 588.01708984375C315.5073547363281 588.0928955078125 315.4307556152344 588.1685180664062 315.3534240722656 588.2440185546875L311.1614685058594 592.303955078125C310.95318603515625 592.5301513671875 310.738525390625 592.7551879882812 310.517333984375 592.9789428710938L306.7612609863281 596.7542724609375L306.73345947265625 596.7830810546875L303.81011962890625 599.8455810546875L301.8086853027344 602.3045043945312C301.27056884765625 603.0286254882812 300.67376708984375 603.7453002929688 300.01556396484375 604.4519653320312L299.99407958984375 604.4747314453125L299.3471374511719 605.1607055664062L296.8397521972656 607.8192749023438C296.4709167480469 608.2521362304688 296.0795593261719 608.6812133789062 295.66510009765625 609.10595703125L294.0509338378906 610.7200927734375C293.212158203125 611.7181396484375 292.2487487792969 612.6873168945312 291.15277099609375 613.6182861328125L286.0940856933594 617.8878173828125C285.8824768066406 618.06689453125 285.6702575683594 618.2408447265625 285.45751953125 618.4097900390625L283.5372619628906 620.0233154296875L281.921630859375 621.4967651367188C281.8627624511719 621.55517578125 281.8034362792969 621.6134643554688 281.74365234375 621.6716918945312L278.9917297363281 624.3629150390625C278.87799072265625 624.4734497070312 278.7639465332031 624.582275390625 278.6496276855469 624.6895141601562L276.5433349609375 626.811279296875C276.51593017578125 626.839111328125 276.488525390625 626.8668212890625 276.4610900878906 626.8944702148438L272.9820251464844 630.6154174804688C272.0751647949219 631.5645751953125 271.1432800292969 632.4014892578125 270.193115234375 633.132568359375L268.1676330566406 634.9413452148438L265.3789978027344 637.6727294921875C265.15570068359375 637.9251098632812 264.9246826171875 638.17626953125 264.6858215332031 638.426025390625L262.9228820800781 640.2404174804688C262.30596923828125 640.9451293945312 261.6264953613281 641.6363525390625 260.8816833496094 642.3110961914062L256.6121826171875 646.1759033203125C256.2565612792969 646.4967651367188 255.8987579345703 646.8024291992188 255.53903198242188 647.0933837890625L251.71539306640625 650.4454345703125C250.9507598876953 651.1061401367188 250.17758178710938 651.69921875 249.39866638183594 652.2278442382812L246.10987854003906 654.7704467773438L243.9444580078125 656.5672607421875C243.8712158203125 656.637939453125 243.79730224609375 656.70849609375 243.72268676757812 656.7788696289062L239.5335693359375 660.6909790039062C239.1503448486328 661.0709838867188 238.74700927734375 661.4456787109375 238.32318115234375 661.814453125C237.9291229248047 662.1676635742188 237.531982421875 662.5020141601562 237.13217163085938 662.8178100585938L233.7018280029297 665.6911010742188C233.51844787597656 665.8511352539062 233.3311767578125 666.010009765625 233.13995361328125 666.167724609375L228.8704376220703 669.7290649414062C228.6398162841797 669.9194946289062 228.40858459472656 670.1039428710938 228.1768035888672 670.2825317382812L226.8267364501953 671.3883056640625Q226.4887237548828 671.66845703125 226.14901733398438 671.9315795898438C225.8346405029297 672.2327270507812 225.50755310058594 672.5306396484375 225.16749572753906 672.824951171875L223.21255493164062 674.5026245117188C222.99993896484375 674.70703125 222.78150939941406 674.9099731445312 222.55722045898438 675.1114501953125L220.4688720703125 676.9407958984375C220.2986602783203 677.0945434570312 220.12478637695312 677.2471313476562 219.94725036621094 677.3983764648438L219.93270874023438 677.4107666015625C218.8490447998047 678.3787841796875 217.7457733154297 679.2074584960938 216.63125610351562 679.90625L215.75306701660156 680.5487060546875L214.32171630859375 681.8294067382812C213.705322265625 682.362548828125 213.0833282470703 682.8515625 212.45721435546875 683.2981567382812L210.64292907714844 684.76953125L209.43850708007812 685.8427734375L208.61862182617188 686.620849609375C208.2284393310547 687.0320434570312 207.816162109375 687.4383544921875 207.3812255859375 687.839111328125L205.3295440673828 689.6937866210938C205.12191772460938 689.89306640625 204.90875244140625 690.0910034179688 204.69000244140625 690.2874755859375L203.10662841796875 691.6744384765625C202.80381774902344 691.977294921875 202.48858642578125 692.2772827148438 202.16067504882812 692.573974609375L198.86370849609375 695.5275268554688L198.10476684570312 696.3955688476562C197.4297637939453 697.28466796875 196.659423828125 698.1517944335938 195.7884521484375 698.9901733398438C194.56300354003906 700.2449340820312 193.2880401611328 701.2936401367188 191.98123168945312 702.15234375L191.3699188232422 702.6361694335938C191.19992065429688 702.7904052734375 191.02645874023438 702.9437255859375 190.8494873046875 703.0960083007812L189.41690063476562 704.2993774414062C188.7014923095703 704.9735107421875 187.91868591308594 705.6259155273438 187.06561279296875 706.2526245117188L184.52468872070312 708.1107177734375L183.64195251464844 708.8931274414062L181.91629028320312 710.6739501953125L181.5391082763672 711.1475219726562L180.73214721679688 712.4241943359375L180.25079345703125 713.1990356445312C179.77859497070312 714.0859375 179.2267303466797 714.9669189453125 178.59051513671875 715.8377075195312C177.49468994140625 717.463623046875 176.29257202148438 718.8475952148438 175.01231384277344 720.0071411132812C174.87149047851562 720.1644287109375 174.7276611328125 720.3212890625 174.580810546875 720.4776000976562L173.06838989257812 722.0543823242188L171.4849090576172 723.9579467773438C171.1471710205078 724.3536987304688 170.80453491210938 724.732177734375 170.4573974609375 725.0936279296875L169.77301025390625 725.9039306640625C169.4405975341797 726.3369140625 169.08737182617188 726.767578125 168.71275329589844 727.1954956054688L166.09642028808594 730.17529296875L164.30160522460938 732.4970092773438C164.16903686523438 732.6658935546875 164.03550720214844 732.8318481445312 163.90106201171875 732.9949340820312L162.73023986816406 734.5387573242188C162.59671020507812 734.7284545898438 162.45950317382812 734.91796875 162.318603515625 735.1072998046875L161.11683654785156 736.7096557617188C160.82872009277344 737.1476440429688 160.52127075195312 737.5848999023438 160.19395446777344 738.0210571289062L158.21096801757812 740.63134765625C157.8638916015625 741.0919799804688 157.50941467285156 741.5315551757812 157.14817810058594 741.9506225585938L156.76422119140625 742.4258422851562C156.3808135986328 742.9638671875 155.96633911132812 743.4991455078125 155.51974487304688 744.03076171875L153.1522979736328 746.8838500976562C152.57815551757812 747.56494140625 151.98916625976562 748.1951293945312 151.38755798339844 748.7763671875C150.9806365966797 749.283203125 150.54397583007812 749.7857055664062 150.07662963867188 750.2832641601562L149.5186004638672 750.8861083984375L155.8931121826172 750.6904296875L156.60093688964844 750.668701171875L156.63265991210938 750.667724609375C157.1738739013672 750.6551513671875 157.70465087890625 750.6591186523438 158.22494506835938 750.6790161132812L163.18869018554688 750.7486572265625C164.3346710205078 750.765869140625 165.43093872070312 750.8555297851562 166.47756958007812 751.0113525390625L168.2245330810547 751.173828125C168.87844848632812 751.1937866210938 169.54710388183594 751.240478515625 170.23036193847656 751.3152465820312L172.57781982421875 751.5807495117188C172.9969482421875 751.6094360351562 173.42181396484375 751.6489868164062 173.8523712158203 751.69970703125L176.53114318847656 752.0264282226562C176.92831420898438 752.062744140625 177.33041381835938 752.1088256835938 177.7374267578125 752.1651000976562L182.3914031982422 752.8126220703125C182.96017456054688 752.8914184570312 183.5143280029297 752.9866943359375 184.05397033691406 753.09765625L184.2982635498047 753.1327514648438C184.89276123046875 753.1851196289062 185.4982452392578 753.2601928710938 186.1145782470703 753.3589477539062L187.3482666015625 753.603271484375C187.6956787109375 753.64892578125 188.046630859375 753.7023315429688 188.40109252929688 753.763671875L188.7080078125 753.8208618164062C189.05416870117188 753.8682250976562 189.40377807617188 753.9232788085938 189.75682067871094 753.9862060546875L190.1412811279297 754.0671997070312C216.7093963623047 758.8223266601562 209.505859375 798.6441650390625 182.9579620361328 793.9092407226562L182.5532684326172 793.8283081054688C182.4093780517578 793.8026733398438 182.2664794921875 793.7759399414062 182.1245574951172 793.7482299804688L181.52130126953125 793.6664428710938C181.2486114501953 793.61865234375 180.97946166992188 793.5670776367188 180.7138214111328 793.511962890625L179.70018005371094 793.3629150390625C179.40309143066406 793.3153076171875 179.11012268066406 793.26318359375 178.8212432861328 793.206787109375L176.62451171875 792.8772583007812C176.30807495117188 792.8295288085938 175.99623107910156 792.7767944335938 175.68896484375 792.7191162109375L173.7385711669922 792.4573974609375C173.2841339111328 792.42822265625 172.8229217529297 792.38623046875 172.35499572753906 792.3309326171875H172.27406311035156C172.0271453857422 792.301025390625 171.7829132080078 792.2678833007812 171.54136657714844 792.231689453125L169.03651428222656 791.92626953125C168.69882202148438 791.8853149414062 168.36614990234375 791.8385009765625 168.03848266601562 791.7859497070312L166.99598693847656 791.6680297851562C166.7806396484375 791.6557006835938 166.56375122070312 791.640625 166.34530639648438 791.6227416992188L161.2056884765625 791.218017578125C161.1170196533203 791.21044921875 161.0286865234375 791.2025146484375 160.94068908691406 791.1941528320312L157.4169921875 791.1447143554688L149.75286865234375 791.3798828125C149.61802673339844 791.3829956054688 149.48385620117188 791.3851318359375 149.35031127929688 791.38623046875L141.45664978027344 791.5418090820312C141.09335327148438 791.5491333007812 140.7347869873047 791.549072265625 140.3809814453125 791.5418090820312H133.4145965576172C132.8626708984375 791.5601196289062 132.29904174804688 791.5603637695312 131.72377014160156 791.5418090820312L125.16773986816406 791.3798828125C124.31953430175781 791.3526000976562 123.49928283691406 791.2863159179688 122.7068862915039 791.1835327148438L116.46546936035156 790.7526245117188H60.275142669677734C33.24161911010742 790.7526245117188 33.24161911010742 750.2832641601562 60.275142669677734 750.2832641601562H96.3846435546875C98.130859375 748.2379150390625 100.41755676269531 746.4841918945312 103.29104614257812 745.18408203125C103.50603485107422 744.8723754882812 103.72676086425781 744.5703125 103.95291137695312 744.2777709960938L104.01019287109375 744.1985473632812L104.06297302246094 744.1116943359375C104.47560119628906 743.5139770507812 104.9012680053711 742.948974609375 105.33866119384766 742.4158325195312L105.47940063476562 742.2096557617188C105.567138671875 742.0928955078125 105.65534973144531 741.9774780273438 105.74401092529297 741.8634033203125C106.02975463867188 741.185791015625 106.3577880859375 740.5068969726562 106.73001861572266 739.8281860351562C107.71736145019531 737.8323364257812 108.8815689086914 736.1277465820312 110.17845153808594 734.6942749023438C110.832763671875 733.8250732421875 111.51422882080078 733.0309448242188 112.21843719482422 732.3086547851562L113.14834594726562 731.2222290039062C113.3246078491211 731.0208740234375 113.50210571289062 730.8241577148438 113.68079376220703 730.6320190429688L114.6410140991211 729.5490112304688L115.30313110351562 728.6661987304688C115.78748321533203 727.9465942382812 116.32804107666016 727.2334594726562 116.9273681640625 726.5293579101562C117.66849517822266 725.6130981445312 118.44012451171875 724.7874145507812 119.23651885986328 724.048095703125L119.81525421142578 723.4406127929688C119.937744140625 723.2957153320312 120.06265258789062 723.1511840820312 120.19001007080078 723.0069580078125L122.04354095458984 720.9566040039062C122.08639526367188 720.9048461914062 122.12955474853516 720.8530883789062 122.17301177978516 720.8013916015625L123.62098693847656 719.1058959960938C123.78722381591797 718.8814697265625 123.95879364013672 718.657470703125 124.13577270507812 718.4338989257812L125.76873016357422 716.4327392578125C125.80422973632812 716.3848266601562 125.83997344970703 716.3369750976562 125.8759536743164 716.2890625L127.77801513671875 713.6787719726562C128.0809326171875 713.275634765625 128.38951110839844 712.8885498046875 128.7033233642578 712.5171508789062L129.0188446044922 712.0934448242188C129.29568481445312 711.6767578125 129.59011840820312 711.2607421875 129.90264892578125 710.8458862304688L131.57064819335938 708.665771484375C131.8419952392578 708.2785034179688 132.1289825439453 707.8922119140625 132.43199157714844 707.5072021484375L134.65780639648438 704.67431640625C135.29437255859375 703.869384765625 135.95262145996094 703.131103515625 136.62905883789062 702.4566650390625L137.50860595703125 701.4618530273438C137.68585205078125 701.237060546875 137.8686981201172 701.0128173828125 138.05722045898438 700.7892456054688L140.58656311035156 697.7945556640625C140.77859497070312 697.5665283203125 140.97227478027344 697.34423828125 141.1675262451172 697.1275634765625L141.36537170410156 696.8956909179688C141.91421508789062 696.1611938476562 142.52374267578125 695.4346923828125 143.19683837890625 694.7188720703125L145.0786590576172 692.7359008789062C145.1463165283203 692.6639404296875 145.214111328125 692.5926513671875 145.2820587158203 692.52197265625L145.73541259765625 692.0281982421875L146.3930206298828 690.9806518554688L146.43438720703125 690.9147338867188L146.55482482910156 690.72314453125L146.96519470214844 690.0702514648438C147.30918884277344 689.4678955078125 147.68927001953125 688.866943359375 148.1067657470703 688.2686157226562C148.6929931640625 687.3841552734375 149.3099822998047 686.56982421875 149.95338439941406 685.8228149414062C150.58726501464844 684.9534301757812 151.3057403564453 684.0953369140625 152.11351013183594 683.2529296875L152.12033081054688 683.2457885742188L152.84393310546875 682.4990234375L154.649658203125 680.6355590820312C155.34506225585938 679.9107055664062 156.05517578125 679.2518920898438 156.77696228027344 678.6561889648438C157.39651489257812 678.0137329101562 158.07350158691406 677.388671875 158.81021118164062 676.784423828125C159.6832275390625 676.0321044921875 160.56956481933594 675.3702392578125 161.46466064453125 674.7938842773438L162.7043914794922 673.8872680664062L164.46347045898438 672.3392944335938C165.07655334472656 671.8135375976562 165.69496154785156 671.3311157226562 166.3173065185547 670.8903198242188L167.3142852783203 670.0785522460938L169.66378784179688 667.4425048828125C170.7749481201172 666.2158813476562 171.93099975585938 665.1665649414062 173.11802673339844 664.2821044921875L173.74266052246094 663.7196044921875C174.15298461914062 663.2954711914062 174.5872802734375 662.876953125 175.04620361328125 662.4647827148438L176.74533081054688 660.9764404296875C176.98721313476562 660.7355346679688 177.23692321777344 660.4963989257812 177.49459838867188 660.2592163085938L180.02394104003906 657.9524536132812C180.0731964111328 657.9075317382812 180.1224822998047 657.8628540039062 180.1718292236328 657.8184814453125L180.30050659179688 657.6884765625C180.80233764648438 657.1386108398438 181.34359741210938 656.59814453125 181.9254913330078 656.06884765625C182.47817993164062 655.5517578125 183.03787231445312 655.0731201171875 183.60325622558594 654.6315307617188L183.97694396972656 654.3164672851562C184.33035278320312 653.9995727539062 184.6988067626953 653.6870727539062 185.08261108398438 653.3794555664062L188.34158325195312 650.7994384765625L190.1412811279297 649.1908569335938C191.1775360107422 648.2954711914062 192.2294464111328 647.5244140625 193.29010009765625 646.8698120117188L193.8370819091797 646.4696655273438L194.67538452148438 645.7353515625C195.04141235351562 645.3783569335938 195.42523193359375 645.02587890625 195.8272247314453 644.6785278320312L198.76124572753906 642.149169921875C199.0680694580078 641.884033203125 199.37628173828125 641.6298828125 199.6856689453125 641.3863525390625L200.88589477539062 640.3280639648438C201.2442169189453 640.0288696289062 201.60411071777344 639.744140625 201.96531677246094 639.4735107421875L202.67320251464844 638.8766479492188C202.8170166015625 638.752685546875 202.96316528320312 638.6295166015625 203.11170959472656 638.5069580078125L203.44520568847656 638.235107421875L206.51914978027344 635.7293701171875C206.72067260742188 635.5476684570312 206.92706298828125 635.3673706054688 207.13839721679688 635.1884765625L211.45863342285156 631.514404296875L215.90000915527344 627.2969360351562C216.65127563476562 626.5912475585938 217.41427612304688 625.9553833007812 218.1859130859375 625.3861083984375L219.45736694335938 624.2982177734375C220.0187530517578 623.7787475585938 220.62049865722656 623.2718505859375 221.26377868652344 622.779541015625C221.41688537597656 622.6587524414062 221.5702667236328 622.54052734375 221.7239227294922 622.4249267578125L226.1476593017578 619.0048828125L228.87599182128906 616.6508178710938C229.05227661132812 616.4821166992188 229.23252868652344 616.3143920898438 229.41677856445312 616.1476440429688L233.4047393798828 612.5863037109375L235.42648315429688 610.3807373046875C235.9054718017578 609.8836669921875 236.39126586914062 609.4175415039062 236.88291931152344 608.9815063476562L239.61505126953125 606.1921997070312C240.4009246826172 605.4063110351562 241.2031707763672 604.7014770507812 242.01776123046875 604.0736694335938L244.0873260498047 602.1965942382812L246.50491333007812 599.7283935546875C246.8765869140625 599.295654296875 247.27098083496094 598.8667602539062 247.68869018554688 598.4423217773438L249.83612060546875 596.2948608398438C250.13250732421875 595.9760131835938 250.44183349609375 595.6597900390625 250.7643585205078 595.3463745117188L252.41915893554688 593.7520141601562C252.90982055664062 593.2227172851562 253.43699645996094 592.7014770507812 254.0019073486328 592.1897583007812L256.53125 589.9032592773438C256.93341064453125 589.5380859375 257.3384704589844 589.1924438476562 257.7459716796875 588.86572265625L259.5390319824219 587.3092041015625C259.6676330566406 587.1953125 259.7981872558594 587.08203125 259.9306640625 586.96923828125L260.1386413574219 586.793701171875L264.463623046875 583.1434326171875L266.1784973144531 581.3833618164062C266.23358154296875 581.3229370117188 266.2890930175781 581.2626342773438 266.3450622558594 581.2023315429688L270.0434265136719 577.2066650390625L271.9322509765625 574.8456420898438C272.45526123046875 574.1237182617188 273.0366516113281 573.40966796875 273.67901611328125 572.7062377929688C274.20172119140625 572.111328125 274.73675537109375 571.5578002929688 275.2823791503906 571.0443725585938L276.48931884765625 569.8087158203125C276.8739318847656 569.3596801757812 277.2829284667969 568.914794921875 277.7169494628906 568.4747314453125L281.5236511230469 564.6680297851562C281.6748046875 564.5131225585938 281.82904052734375 564.3588256835938 281.9864501953125 564.2052001953125L285.9919128417969 560.325927734375C286.5337829589844 559.7398071289062 287.120361328125 559.1639404296875 287.7533264160156 558.6002197265625L292.0851745605469 554.8056640625L296.169677734375 550.5994873046875C296.2103271484375 550.554931640625 296.251220703125 550.5103759765625 296.2923583984375 550.4658813476562L299.0356750488281 547.4613037109375C299.1705017089844 547.3023071289062 299.3082580566406 547.1437377929688 299.448974609375 546.9855346679688L303.9613037109375 541.9268798828125C304.102294921875 541.7698974609375 304.2440185546875 541.6158447265625 304.386474609375 541.464599609375L307.117919921875 538.1227416992188C307.1707763671875 538.0584716796875 307.2237548828125 537.99462890625 307.2768859863281 537.9312744140625L309.6573181152344 534.7325439453125C310.4238586425781 533.3367919921875 311.3872375488281 531.9552612304688 312.5655517578125 530.6041870117188C313.0409240722656 530.02685546875 313.5306091308594 529.4873657226562 314.0328369140625 528.984375L315.1893310546875 527.7139892578125L316.6650390625 525.9267578125L318.0244140625 524.1405639648438C318.2347412109375 523.86767578125 318.4476013183594 523.6022338867188 318.6628723144531 523.3442993164062C318.93798828125 522.921142578125 319.23089599609375 522.4984130859375 319.5420227050781 522.07666015625L320.64532470703125 520.6480712890625C320.9404602050781 520.2325439453125 321.2537536621094 519.8182373046875 321.5857238769531 519.4056396484375L322.13970947265625 518.7014770507812L323.00213623046875 517.4226684570312Q323.04144287109375 517.3648681640625 323.0809631347656 517.3074951171875L323.3940734863281 516.8057250976562C323.8161315917969 516.0596923828125 324.29168701171875 515.3136596679688 324.8232727050781 514.569580078125L324.8324279785156 514.5572509765625L325.3944396972656 513.8004150390625C325.4858093261719 513.6586303710938 325.5792541503906 513.5169677734375 325.6748046875 513.3755493164062C325.84478759765625 511.26751708984375 326.36773681640625 509.291015625 327.1742248535156 507.47509765625C327.7024230957031 506.046875 328.3756103515625 504.7419128417969 329.1687927246094 503.5602111816406C329.18267822265625 502.00286865234375 329.37908935546875 500.4478759765625 329.74017333984375 498.9283752441406C330.9084777832031 491.93707275390625 335.1195983886719 487.2103271484375 340.40234375 484.7481689453125C341.4024963378906 484.20977783203125 342.4530944824219 483.7587585449219 343.5472412109375 483.4079895019531L340.5658264160156 474.74774169921875C340.5498962402344 474.7009582519531 340.5340881347656 474.6541748046875 340.5184631347656 474.60748291015625L337.41229248046875 465.98486328125L334.591796875 460.29888916015625C334.469970703125 460.08050537109375 334.3501281738281 459.8583679199219 334.2323913574219 459.6324462890625L330.5294494628906 452.4491271972656L330.45263671875 452.2998962402344L327.1430969238281 445.8690185546875C326.65338134765625 445.0639953613281 326.19580078125 444.2025146484375 325.7742919921875 443.2828063964844L321.5047912597656 433.95465087890625C321.2793273925781 433.4617919921875 321.0732727050781 432.9720458984375 320.8860778808594 432.48565673828125L317.68902587890625 425.19573974609375C317.47467041015625 424.7570495605469 317.2693176269531 424.3043212890625 317.0733947753906 423.8373107910156L314.4959716796875 417.70721435546875C314.3235168457031 417.33880615234375 314.1573181152344 416.9607849121094 313.9977111816406 416.57305908203125L310.05194091796875 406.8401794433594C309.95709228515625 406.6079406738281 309.8663635253906 406.37652587890625 309.7796936035156 406.14599609375L306.5030517578125 398.2046813964844C306.4443054199219 398.082763671875 306.3861999511719 397.9598083496094 306.3287658691406 397.83575439453125L303.1582336425781 390.97442626953125C302.734130859375 390.2005920410156 302.3397521972656 389.3787536621094 301.9783020019531 388.507568359375L298.9248352050781 381.0042419433594C298.75506591796875 380.61541748046875 298.5924072265625 380.21624755859375 298.437255859375 379.806640625L295.1978454589844 371.30322265625C295.1712951660156 371.2376708984375 295.1449279785156 371.1718444824219 295.1187744140625 371.1057434082031L291.66156005859375 362.4627685546875L286.9642028808594 352.388671875C286.75775146484375 351.94378662109375 286.5671081542969 351.5013427734375 286.3918762207031 351.0615539550781L283.26123046875 344.1531677246094C283.1001281738281 343.7956237792969 282.94915771484375 343.43975830078125 282.80816650390625 343.0856628417969L278.3442077636719 333.1657409667969C278.18359375 332.8027648925781 278.0333557128906 332.44158935546875 277.8932800292969 332.082275390625L273.7137756347656 322.6031799316406C273.595458984375 322.36456298828125 273.47967529296875 322.12176513671875 273.3664855957031 321.8747863769531L269.5826110839844 313.49761962890625C269.5171813964844 313.3548583984375 269.453369140625 313.2123718261719 269.3912048339844 313.07012939453125L264.4429931640625 302.8946533203125L264.4306640625 302.8689270019531L259.2224426269531 292.3928527832031C259.12017822265625 292.18572998046875 259.0214538574219 291.9790344238281 258.92620849609375 291.7728576660156L256.6370849609375 287.4664306640625C256.4979553222656 287.2181701660156 256.3614807128906 286.96502685546875 256.22772216796875 286.7069091796875L253.21275329589844 280.8591003417969C253.0738067626953 280.59246826171875 252.9408721923828 280.3265075683594 252.81382751464844 280.0612487792969L250.34471130371094 275.1230163574219C249.99423217773438 274.5097961425781 249.6614532470703 273.8657531738281 249.34793090820312 273.1901550292969L246.02944946289062 265.9056701660156C245.8539581298828 265.5254821777344 245.69003295898438 265.1471252441406 245.53741455078125 264.7707214355469L241.2742919921875 255.0801239013672C241.08985900878906 254.6553497314453 240.91952514648438 254.23312377929688 240.7628936767578 253.81361389160156L236.96131896972656 244.77285766601562C236.72898864746094 244.2996063232422 236.50718688964844 243.8099365234375 236.29656982421875 243.3035430908203L231.64259338378906 232.07330322265625Q231.52081298828125 231.78070068359375 231.4077606201172 231.48983764648438L228.55120849609375 224.74703979492188C228.41766357421875 224.4566192626953 228.2879638671875 224.16029357910156 228.1622314453125 223.85801696777344L223.64990234375 213.19435119628906C223.49462890625 212.81906127929688 223.35011291503906 212.44590759277344 223.21609497070312 212.07498168945312L220.412353515625 205.363525390625C220.2476348876953 204.96339416503906 220.09515380859375 204.56570434570312 219.95460510253906 204.17056274414062L218.1776580810547 200.05291748046875C218.049560546875 199.7977294921875 217.92433166503906 199.53773498535156 217.8020782470703 199.27288818359375L216.23703002929688 195.75987243652344C216.17807006835938 195.6436004638672 216.11968994140625 195.5263214111328 216.0618896484375 195.40806579589844L214.36643981933594 191.92977905273438C214.3242645263672 191.84864807128906 214.28237915039062 191.7670135498047 214.2407684326172 191.6848907470703L210.8413543701172 184.96697998046875C210.6755828857422 184.63845825195312 210.51876831054688 184.31103515625 210.37075805664062 183.98477172851562L207.84661865234375 179.11915588378906C207.70989990234375 178.8535919189453 207.5791473388672 178.5886993408203 207.45423889160156 178.32452392578125L205.6410369873047 174.9305877685547C205.60877990722656 174.86929321289062 205.57684326171875 174.80804443359375 205.54522705078125 174.746826171875L203.49615478515625 171.06576538085938C203.3555450439453 170.80543518066406 203.2207794189453 170.54562377929688 203.09173583984375 170.28640747070312L201.29058837890625 167.09976196289062C201.20936584472656 166.95545959472656 201.1299591064453 166.81129455566406 201.05238342285156 166.6672821044922L200.7718963623047 166.23052978515625C200.42198181152344 165.8323516845703 200.08200073242188 165.41400146484375 199.7528533935547 164.97506713867188C197.59042358398438 162.54962158203125 196.00738525390625 159.45529174804688 195.32550048828125 155.6969451904297C195.12034606933594 154.90028381347656 194.96542358398438 154.1144256591797 194.8578643798828 153.3407745361328C194.705810546875 153.11949157714844 194.55691528320312 152.89334106445312 194.41128540039062 152.6622772216797C193.5011444091797 151.3959197998047 192.73281860351562 149.9796142578125 192.13987731933594 148.41343688964844C191.00730895996094 145.7710723876953 190.5249481201172 143.1375732421875 190.57550048828125 140.60281372070312C190.4532470703125 137.84190368652344 190.89944458007812 135.29434204101562 191.7855224609375 133.00225830078125C193.4438934326172 127.77146911621094 196.98199462890625 124.08451843261719 201.29025268554688 121.94141387939453C204.01844787597656 116.39128112792969 209.3014678955078 112.09668731689453 217.13931274414062 111.40911865234375C219.5424041748047 110.88936614990234 222.12803649902344 110.84400177001953 224.833251953125 111.39339447021484ZM512.7831420898438 758.4176025390625 512.731689453125 756.65478515625C512.71826171875 756.40185546875 512.7083740234375 756.1463623046875 512.7022094726562 755.8883056640625L512.6414794921875 752.4888916015625C512.6353759765625 752.1983032226562 512.634033203125 751.9107055664062 512.6373291015625 751.6261596679688L512.6298828125 751.4642333984375C512.6044311523438 751.254638671875 512.581298828125 751.0431518554688 512.560546875 750.8296508789062L512.3720703125 748.4422607421875L512.0652465820312 746.345458984375L511.69091796875 744.311279296875L511.1524353027344 741.9916381835938C511.0934143066406 741.7767944335938 511.03668212890625 741.5594482421875 510.9822692871094 741.3395385742188L510.4591369628906 739.2582397460938C510.1956787109375 738.4152221679688 509.9709777832031 737.5309448242188 509.7884216308594 736.6046752929688L509.5625 735.39111328125C509.0922546386719 733.777587890625 508.796142578125 732.0221557617188 508.7047119140625 730.1246948242188C508.6036376953125 728.9349365234375 508.5966796875 727.7881469726562 508.6755065917969 726.6860961914062V726.0219116210938L508.6273498535156 724.8417358398438Q508.60870361328125 724.59375 508.5945739746094 724.3424072265625L508.47357177734375 721.3178100585938L508.11431884765625 718.147216796875L507.6700439453125 715.4099731445312L507.0621032714844 712.9393310546875L506.1935729980469 710.1228637695312L504.9966735839844 707.1815795898438C504.8778381347656 706.9303588867188 504.7618713378906 706.6746826171875 504.6488037109375 706.4144897460938L503.8524475097656 704.5032348632812C503.4819641113281 703.759033203125 503.13946533203125 702.9733276367188 502.82769775390625 702.14501953125L501.1812438964844 697.64599609375L500.0284118652344 695.1256103515625C499.82037353515625 694.7127685546875 499.6202087402344 694.2871704101562 499.4282531738281 693.8487548828125L498.334228515625 691.2337646484375C497.9718933105469 690.4789428710938 497.6404113769531 689.6820068359375 497.34283447265625 688.8421020507812C497.05450439453125 688.0921630859375 496.8100891113281 687.3507080078125 496.607421875 686.6187133789062L496.01202392578125 684.803466796875C495.6158447265625 683.797607421875 495.2752990722656 682.725830078125 494.9968566894531 681.5865478515625L494.01611328125 677.29150390625L492.9341125488281 674.0576171875L491.0511169433594 669.9718627929688C490.68231201171875 669.1586303710938 490.3661193847656 668.3539428710938 490.099853515625 667.55908203125L489.66839599609375 666.4775390625L488.3207702636719 664.0643920898438L485.0414123535156 659.0653686523438C484.6714782714844 658.4962158203125 484.3323669433594 657.9273071289062 484.02294921875 657.3594360351562L481.4194030761719 653.1365966796875C481.37060546875 653.05615234375 481.3223876953125 652.9757080078125 481.2747802734375 652.8953247070312L479.1998291015625 649.623291015625C478.78759765625 649.0267333984375 478.39178466796875 648.395751953125 478.0141296386719 647.729736328125C477.8364562988281 647.4285278320312 477.6672668457031 647.1275634765625 477.5063171386719 646.8269653320312L475.0050048828125 642.3920288085938C474.4832763671875 641.44580078125 474.0392150878906 640.5060424804688 473.6682434082031 639.5752563476562L471.6055908203125 635.350341796875C471.3794860839844 634.88134765625 471.17138671875 634.4148559570312 470.9807434082031 633.9511108398438L468.91436767578125 629.4215698242188C468.6052551269531 628.7387084960938 468.3330993652344 628.0618896484375 468.0964050292969 627.3919067382812L466.7286376953125 624.1702880859375L465.1007385253906 620.9912719726562L463.1410217285156 617.4927978515625C462.5788879394531 616.6301879882812 462.0610046386719 615.6973876953125 461.5935363769531 614.6923828125C460.7496337890625 613.0421142578125 460.1429443359375 611.4122924804688 459.7486267089844 609.8169555664062L459.27471923828125 608.4764404296875L458.11456298828125 606.4404907226562L456.78741455078125 604.4838256835938C456.0617980957031 603.5562744140625 455.3813781738281 602.5335693359375 454.75433349609375 601.4115600585938C454.31756591796875 600.679931640625 453.9320068359375 599.9485473632812 453.5953674316406 599.2191772460938L452.10162353515625 596.366455078125C452.0465087890625 596.2699584960938 451.9918212890625 596.1727905273438 451.9374694824219 596.0748291015625L450.1972961425781 592.8980102539062C450.0869445800781 592.6981811523438 449.98004150390625 592.4985961914062 449.8765563964844 592.29931640625L448.66455078125 590.2417602539062C448.3674621582031 589.7780151367188 448.0820007324219 589.2944946289062 447.80902099609375 588.7907104492188L447.79791259765625 588.7701416015625C446.9710998535156 587.3414306640625 446.3265686035156 585.9239501953125 445.8482360839844 584.527099609375L444.73394775390625 581.9915161132812C444.1339416503906 580.561279296875 443.6916198730469 579.1612548828125 443.3928527832031 577.7974853515625L442.8366394042969 575.948486328125C442.7868957519531 575.8056640625 442.73809814453125 575.6616821289062 442.69024658203125 575.5164184570312L440.7881774902344 569.9114379882812C440.4447326660156 568.8712158203125 440.1785583496094 567.852294921875 439.9844970703125 566.8562622070312L439.2098693847656 563.982666015625C439.1929931640625 563.917724609375 439.1763916015625 563.8529052734375 439.16009521484375 563.7881469726562L437.30780029296875 557.649169921875C437.2366638183594 557.4119873046875 437.1694641113281 557.176025390625 437.1061096191406 556.9412841796875L435.2767333984375 551.3431396484375C435.037353515625 550.7310180664062 434.8168640136719 550.0947265625 434.6166076660156 549.4338989257812L432.01318359375 540.6734619140625L430.1312561035156 535.8931274414062L430.1042785644531 535.8362426757812L426.43743896484375 528.0333251953125C426.14837646484375 527.4937744140625 425.8729553222656 526.9315185546875 425.6121826171875 526.3461303710938L421.5854797363281 517.2608032226562C421.29937744140625 516.614990234375 421.0461120605469 515.9747924804688 420.8243103027344 515.3408813476562L418.6231689453125 509.8518371582031C418.3199157714844 509.1894836425781 418.0387268066406 508.4959716796875 417.7813415527344 507.7707214355469L415.35308837890625 500.8476257324219C415.0872497558594 500.1830139160156 414.8439025878906 499.4894104003906 414.624755859375 498.76629638671875L411.77166748046875 489.4381103515625C411.5286865234375 488.64501953125 411.32989501953125 487.8652038574219 411.1730651855469 487.09930419921875L409.42376708984375 480.2755432128906C409.2437744140625 479.6871643066406 409.0817565917969 479.0789794921875 408.9388122558594 478.45068359375L406.9491271972656 469.6141662597656L405.6781311035156 464.9291076660156C405.5089416503906 464.39434814453125 405.3544921875 463.84295654296875 405.2156066894531 463.2746887207031L403.40863037109375 455.7278747558594L401.10797119140625 448.806884765625C400.9633483886719 448.3649597167969 400.8326721191406 447.9269104003906 400.7155456542969 447.49285888671875L399.3677978515625 443.1209411621094C399.35711669921875 443.0865478515625 399.3465270996094 443.0521545410156 399.3360290527344 443.017822265625L397.0765380859375 436.3840026855469L397.0003356933594 436.16021728515625L396.9864807128906 436.119140625L394.6626281738281 429.221923828125L392.5881652832031 424.4149169921875C392.4211120605469 424.0691223144531 392.2594909667969 423.7147521972656 392.1035461425781 423.3516540527344L389.69305419921875 417.71612548828125C389.5697326660156 417.4677734375 389.44915771484375 417.2149353027344 389.3313903808594 416.95751953125L386.88299560546875 411.5143737792969C386.5798034667969 410.8480224609375 386.31207275390625 410.1873779296875 386.078369140625 409.5331115722656L384.0589599609375 404.8341064453125C383.7669982910156 404.2152404785156 383.4938049316406 403.5688171386719 383.2407531738281 402.8944091796875L380.5487365722656 395.56219482421875C380.4664306640625 395.3714599609375 380.3857421875 395.17828369140625 380.3067321777344 394.982666015625L377.053466796875 386.8583984375C376.8391418457031 386.39154052734375 376.6351013183594 385.90936279296875 376.4419250488281 385.4116516113281L374.38873291015625 380.04962158203125C374.2524719238281 379.7391662597656 374.1206970214844 379.422119140625 373.9935302734375 379.09844970703125L370.9772033691406 371.4444885253906L369.3257141113281 367.9231262207031C369.10614013671875 367.50030517578125 368.8947448730469 367.06390380859375 368.6920471191406 366.6136474609375L367.2539978027344 363.3541259765625C366.9248962402344 362.7308349609375 366.61456298828125 362.0773620605469 366.3245849609375 361.3930969238281L364.5843811035156 357.28546142578125C364.35302734375 356.73675537109375 364.1448974609375 356.1924743652344 363.9591369628906 355.65301513671875L362.6014099121094 352.388671875C362.49822998046875 352.1338195800781 362.3999938964844 351.8799743652344 362.306640625 351.6271667480469L359.71807861328125 345.4046936035156L356.531005859375 339.3373107910156C356.2992858886719 338.8930358886719 356.084228515625 338.4505615234375 355.8853759765625 338.0101623535156L353.7306213378906 333.85101318359375C353.4384460449219 333.3533630371094 353.1575622558594 332.83502197265625 352.8887634277344 332.2956237792969L350.93975830078125 328.3976135253906C350.7685241699219 328.0727844238281 350.6019592285156 327.7398986816406 350.44036865234375 327.3988342285156L347.92742919921875 322.0019226074219L344.592529296875 316.0269470214844C343.8473205566406 314.677490234375 343.2601318359375 313.3411865234375 342.8177185058594 312.0252685546875L341.57757568359375 309.1471862792969C341.2513732910156 308.3819274902344 340.9706115722656 307.6251525878906 340.73309326171875 306.8778076171875L338.5828552246094 301.0937805175781C338.3631286621094 300.48553466796875 338.1705627441406 299.8840026855469 338.0041198730469 299.28948974609375L336.5132141113281 294.8550109863281C336.4393615722656 294.6705017089844 336.3670349121094 294.48382568359375 336.29632568359375 294.294921875L333.9532470703125 287.99688720703125C333.71453857421875 287.452392578125 333.4902648925781 286.8876037597656 333.2813415527344 286.3022155761719L331.0940246582031 280.0033264160156C330.9475402832031 279.66241455078125 330.80645751953125 279.3136901855469 330.67108154296875 278.95703125L328.9191589355469 274.1834411621094C328.7014465332031 273.68084716796875 328.49603271484375 273.1609802246094 328.3036193847656 272.62359619140625L325.38983154296875 264.5701904296875C325.19879150390625 264.0361022949219 325.02850341796875 263.5071716308594 324.8783264160156 262.98370361328125L322.455810546875 256.4965515136719C322.4450378417969 256.46673583984375 322.4343566894531 256.43695068359375 322.4237060546875 256.40716552734375L319.9762878417969 250.7237548828125C319.6485900878906 250.07640075683594 319.3414001464844 249.3973846435547 319.0563659667969 248.68597412109375L315.8997802734375 240.69326782226562C315.8034973144531 240.45297241210938 315.7116394042969 240.21359252929688 315.6240539550781 239.97515869140625L313.2457580566406 234.6378936767578C313.122802734375 234.39447021484375 313.00244140625 234.1466522216797 312.8847961425781 233.89442443847656L308.69622802734375 224.88998413085938C308.4215087890625 224.29994201660156 308.17486572265625 223.71420288085938 307.95526123046875 223.1332244873047L305.1551513671875 216.8163604736328C305.0070495605469 216.47984313964844 304.8678894042969 216.1448974609375 304.7374572753906 215.81158447265625L301.8973693847656 208.92483520507812C301.6734619140625 208.38546752929688 301.4719543457031 207.85052490234375 301.29205322265625 207.3203125L298.93548583984375 201.2227020263672C298.7314453125 200.74993896484375 298.5381774902344 200.26194763183594 298.3563232421875 199.75852966308594L295.4222717285156 191.76583862304688C295.2622985839844 191.32301330566406 295.11669921875 190.8837432861328 294.9850769042969 190.44815063476562L293.0389709472656 185.1951141357422L291.31463623046875 181.5675506591797C291.0808410644531 181.06105041503906 290.8675842285156 180.55776977539062 290.6742248535156 180.05799865722656L289.4332580566406 177.28973388671875C289.266357421875 176.96327209472656 289.1042785644531 176.62881469726562 288.9471740722656 176.2863006591797L287.0451354980469 172.0977325439453C287.0049133300781 172.00970458984375 286.96533203125 171.92178344726562 286.9263610839844 171.83396911621094L286.8880615234375 171.75686645507812C286.3125 170.8162078857422 285.7826232910156 169.79763793945312 285.304931640625 168.69830322265625L284.0609130859375 165.7854766845703L284.0503845214844 165.7642822265625L282.9836730957031 163.5268096923828C282.87664794921875 163.3305206298828 282.77166748046875 163.13111877441406 282.6687927246094 162.92860412597656L281.74365234375 163.07305908203125C280.60565185546875 163.24203491210938 279.5054016113281 163.33119201660156 278.4437561035156 163.34671020507812L275.3047180175781 163.6546630859375C274.7792663574219 163.72349548339844 274.2416076660156 163.7757568359375 273.6917724609375 163.81068420410156C272.6299743652344 163.9010772705078 271.6045227050781 163.92372131347656 270.61614990234375 163.8837432861328L268.4589538574219 163.91319274902344C267.26251220703125 164.00782775878906 266.0093078613281 164.0087432861328 264.7003173828125 163.90618896484375C264.0992126464844 163.87367248535156 263.5123291015625 163.8202667236328 262.9397888183594 163.74693298339844L261.8177795410156 163.64431762695312C261.3712463378906 163.61367797851562 260.9183044433594 163.57046508789062 260.45892333984375 163.51425170898438C259.7692565917969 163.4361572265625 259.10028076171875 163.33291625976562 258.451904296875 163.2059326171875L257.7425537109375 163.09393310546875C257.31719970703125 163.04473876953125 256.8864440917969 162.9839324951172 256.4502868652344 162.91119384765625L252.85205078125 162.3114776611328C252.29981994628906 162.24159240722656 251.73876953125 162.1517333984375 251.16905212402344 162.0410919189453L247.57313537597656 161.33323669433594C246.8828887939453 161.23753356933594 246.17935180664062 161.1097869873047 245.46287536621094 160.94842529296875L243.81024169921875 160.56179809570312C243.83511352539062 160.60955810546875 243.85989379882812 160.65750122070312 243.8845672607422 160.7056121826172L246.2401580810547 165.2744903564453C246.49569702148438 165.7118377685547 246.74264526367188 166.1650390625 246.98046875 166.63436889648438L250.37989807128906 173.43321228027344C250.65350341796875 173.9735870361328 250.9026641845703 174.51104736328125 251.1282196044922 175.04519653320312L251.6360321044922 176.08700561523438C251.99911499023438 176.72042846679688 252.34315490722656 177.38690185546875 252.66641235351562 178.08718872070312L254.3287811279297 181.74790954589844C254.4879150390625 182.0778350830078 254.64207458496094 182.41563415527344 254.7910614013672 182.7613983154297L257.20733642578125 188.36048889160156C257.4450988769531 188.8443145751953 257.6718444824219 189.34532165527344 257.886962890625 189.86376953125L261.0435791015625 197.6136474609375L265.4749755859375 208.2975616455078C265.53533935546875 208.4417266845703 265.5941162109375 208.58558654785156 265.6512756347656 208.72911071777344L268.955322265625 216.3509521484375C269.07421875 216.62986755371094 269.1870422363281 216.90765380859375 269.2939758300781 217.18426513671875L273.69024658203125 227.8037872314453C273.78973388671875 228.04295349121094 273.8847961425781 228.28126525878906 273.97552490234375 228.5186767578125L278.506103515625 239.11495971679688C278.6685485839844 239.50218200683594 278.8194580078125 239.88717651367188 278.9591064453125 240.2698516845703L282.55255126953125 248.4381866455078C282.6279602050781 248.59323120117188 282.70233154296875 248.75003051757812 282.7756042480469 248.90855407714844L285.5624084472656 255.02590942382812C285.6671447753906 255.22311401367188 285.77020263671875 255.4232940673828 285.87152099609375 255.62646484375L289.2507019042969 262.4253234863281C289.3439025878906 262.61297607421875 289.4342041015625 262.8002624511719 289.5216369628906 262.9871520996094L292.1847229003906 268.050537109375C292.3717041015625 268.411376953125 292.54766845703125 268.7709655761719 292.7129211425781 269.1292724609375L294.9180603027344 273.3275451660156C295.1190185546875 273.689453125 295.3141784667969 274.0617980957031 295.50323486328125 274.4447021484375L300.5831604003906 284.6626892089844C300.68572998046875 284.8622131347656 300.7865905761719 285.06475830078125 300.8856506347656 285.270263671875L306.2478332519531 296.338623046875C306.49603271484375 296.85345458984375 306.7225646972656 297.3653259277344 306.9281005859375 297.8738708496094L310.2138366699219 305.0395202636719C310.4229431152344 305.49810791015625 310.6153259277344 305.9539794921875 310.7914733886719 306.4068908691406L315.3534240722656 316.73516845703125L320.2502136230469 327.64166259765625C320.41278076171875 328.0093078613281 320.564697265625 328.3751525878906 320.70623779296875 328.7390441894531L323.8115234375 335.55340576171875C323.97900390625 335.9257507324219 324.13543701171875 336.2962951660156 324.2811279296875 336.6648864746094L327.8764953613281 344.3756408691406C328.2862548828125 345.15106201171875 328.665771484375 345.9735412597656 329.0118408203125 346.8443603515625L332.7350158691406 356.17254638671875C332.96490478515625 356.7528991699219 333.1694641113281 357.3278503417969 333.34954833984375 357.89697265625L335.68853759765625 364.0368347167969C335.8136291503906 364.31048583984375 335.9353332519531 364.58935546875 336.0534973144531 364.87347412109375L339.0629577636719 372.25030517578125L343.01422119140625 380.7576904296875C343.3840026855469 381.55450439453125 343.7029113769531 382.3433532714844 343.9734802246094 383.1231384277344L346.81658935546875 389.95782470703125C347.0584411621094 390.4544677734375 347.28857421875 390.9692077636719 347.5063171386719 391.5022888183594L350.83148193359375 399.6624755859375C351.0549621582031 400.11749267578125 351.2687683105469 400.5876770019531 351.4723205566406 401.07330322265625L354.3861083984375 408.1756591796875C354.4962463378906 408.43841552734375 354.6010437011719 408.7001037597656 354.7006530761719 408.96075439453125L357.6543273925781 415.71002197265625C357.8966064453125 416.1637268066406 358.12939453125 416.6334228515625 358.35211181640625 417.119384765625L362.22430419921875 425.66815185546875L366.405517578125 433.7927551269531L370.18939208984375 440.9153747558594C370.4441833496094 441.4062805175781 370.67864990234375 441.8949890136719 370.8934020996094 442.3811950683594L373.4454040527344 447.4715881347656C373.78424072265625 448.0823669433594 374.1028747558594 448.7236633300781 374.3995361328125 449.3961181640625C374.94635009765625 450.5662841796875 375.3809814453125 451.72119140625 375.7117004394531 452.8566589355469L378.3196105957031 460.0960998535156C378.5218200683594 460.5865173339844 378.7122802734375 461.0928955078125 378.89031982421875 461.6154479980469L382.28973388671875 471.4899597167969C382.35693359375 471.68719482421875 382.4213562011719 471.8836975097656 382.48297119140625 472.0794677734375L385.5815734863281 481.6454772949219C385.6458435058594 481.8197326660156 385.7087097167969 481.995849609375 385.7701110839844 482.1738586425781L388.0314025878906 488.74322509765625C388.210693359375 489.1716613769531 388.381103515625 489.6123352050781 388.542236328125 490.0653991699219L391.7926025390625 499.4420471191406C392.1407165527344 500.25079345703125 392.4545593261719 501.1043701171875 392.7308349609375 502.00384521484375L395.8358154296875 512.1874389648438C395.9380187988281 512.4772338867188 396.0362243652344 512.7721557617188 396.1302490234375 513.0722045898438L398.5786437988281 520.9030151367188C398.67840576171875 521.225341796875 398.7708740234375 521.5454711914062 398.856201171875 521.8634643554688L402.05902099609375 531.8904418945312C402.2599182128906 532.5122680664062 402.433349609375 533.1263427734375 402.58038330078125 533.7322998046875L405.1371154785156 542.7393188476562C405.19171142578125 542.9119262695312 405.244873046875 543.0862426757812 405.29656982421875 543.2623291015625L407.75244140625 551.9260864257812C407.9150695800781 552.3712768554688 408.0678405761719 552.8287963867188 408.2103576660156 553.2987670898438L410.26751708984375 560.21826171875C410.4049377441406 560.5941772460938 410.5354309082031 560.9788208007812 410.65875244140625 561.3723754882812L412.9954528808594 568.7984008789062L415.36260986328125 575.5382080078125C415.463623046875 575.7898559570312 415.5616760253906 576.045654296875 415.6567077636719 576.3055419921875L418.9513854980469 585.3257446289062L420.9769592285156 590.2144775390625C421.0738525390625 590.4246826171875 421.1687927246094 590.637939453125 421.26171875 590.8543090820312L424.4712219238281 598.44189453125C424.92083740234375 599.3261108398438 425.3297119140625 600.2699584960938 425.693115234375 601.275146484375L429.1734619140625 611.0889892578125L429.2007751464844 611.1649169921875L432.4110107421875 620.0933837890625C432.587646484375 620.5882568359375 432.7464294433594 621.0785522460938 432.887939453125 621.5642700195312L435.2438659667969 628.3895874023438C435.4212646484375 628.9151611328125 435.5788269042969 629.4353637695312 435.7171936035156 629.9500732421875L437.6247253417969 635.9627075195312C437.6931457519531 636.1688232421875 437.7593688964844 636.3775024414062 437.8233337402344 636.5886840820312L437.8541564941406 636.6858520507812C438.14984130859375 637.61767578125 438.38409423828125 638.5318603515625 438.560546875 639.4271240234375L440.1224060058594 645.7437133789062C440.184326171875 645.9395141601562 440.244384765625 646.1375122070312 440.30255126953125 646.3377685546875L442.3128662109375 653.3226928710938C442.53509521484375 653.9703979492188 442.7355651855469 654.6434326171875 442.9128112792969 655.3422241210938L444.89581298828125 663.2539672851562C444.99383544921875 663.6451416015625 445.0816345214844 664.03271484375 445.1594543457031 664.4165649414062L446.0799865722656 668.193115234375C446.2215881347656 668.6394653320312 446.3531188964844 669.0974731445312 446.47412109375 669.5671997070312L447.67535400390625 674.3875122070312C447.9138488769531 675.1480712890625 448.1213073730469 675.9423217773438 448.29522705078125 676.7706909179688L449.8717041015625 684.2691040039062L449.8739013671875 684.2776489257812L450.63653564453125 687.2598876953125L452.4339294433594 691.8656616210938C452.5622253417969 692.150146484375 452.68682861328125 692.440185546875 452.8075866699219 692.7359008789062L455.1750183105469 698.6646118164062C455.6739807128906 699.8960571289062 456.05718994140625 701.1038208007812 456.3336181640625 702.2843017578125L457.38671875 705.6565551757812C457.46905517578125 705.9054565429688 457.54827880859375 706.1580200195312 457.624267578125 706.4142456054688L457.65252685546875 706.5101318359375C457.78643798828125 706.953125 457.9065856933594 707.39208984375 458.01336669921875 707.8267822265625L458.95892333984375 711.311279296875C459.19677734375 712.2376708984375 459.377197265625 713.1439819335938 459.50360107421875 714.0292358398438L459.86187744140625 715.6827392578125L459.9099426269531 715.9046020507812L459.9967956542969 716.3304443359375L460.3057556152344 717.8452758789062C460.3577880859375 718.0394287109375 460.407958984375 718.2356567382812 460.4562683105469 718.4338989257812L460.962646484375 720.5719604492188C461.0635070800781 720.9312744140625 461.1578369140625 721.2977905273438 461.24542236328125 721.6714477539062L462.43927001953125 726.649169921875C462.48394775390625 726.8397216796875 462.5262145996094 727.0293579101562 462.5661315917969 727.2180786132812L463.0709533691406 728.9207763671875L463.9174499511719 731.0491333007812C463.98712158203125 731.218994140625 464.055419921875 731.3906860351562 464.1223449707031 731.5643310546875L464.179443359375 731.7078857421875C464.28955078125 731.9945678710938 464.39349365234375 732.2799072265625 464.4913330078125 732.5637817382812L465.1258544921875 734.3042602539062C465.51812744140625 735.22216796875 465.86529541015625 736.1976318359375 466.1624450683594 737.23193359375L467.255126953125 741.0360107421875C467.5301818847656 742.0070190429688 467.74072265625 742.9571533203125 467.89080810546875 743.8853759765625L467.903564453125 743.9451293945312C467.99053955078125 744.27685546875 468.07159423828125 744.6144409179688 468.1465148925781 744.9580688476562C471.472900390625 748.310791015625 473.7114562988281 752.7021484375 474.011474609375 757.5458374023438L478.2425537109375 758.0938720703125C478.5263366699219 758.132568359375 478.8065185546875 758.17529296875 479.08306884765625 758.2221069335938L481.7229309082031 758.49853515625C482.001953125 758.5314331054688 482.27752685546875 758.5682983398438 482.54974365234375 758.609130859375L485.0414123535156 758.8223266601562C485.2082824707031 758.8380126953125 485.37396240234375 758.8551635742188 485.5384826660156 758.873779296875L489.0074157714844 759.044921875C489.143310546875 759.0537109375 489.2784423828125 759.0634155273438 489.412841796875 759.0741577148438L497.6880798339844 759.2877197265625C497.7912902832031 759.290771484375 497.8940734863281 759.2943725585938 497.9964599609375 759.2985229492188L506.5508728027344 759.4495849609375C506.6085510253906 759.4503784179688 506.66607666015625 759.451416015625 506.7234802246094 759.4525756835938L512.7831420898438 759.5070190429688V758.4176025390625Z" fill="black"/>
</svg>
