<svg xmlns="http://www.w3.org/2000/svg" viewBox="0 0 811 1000">
  <path d="M243.64199829101562 111.52023315429688C244.3379364013672 111.56732177734375 245.02149963378906 111.63053131103516 245.69273376464844 111.70931243896484L249.83099365234375 111.99597930908203C250.16876220703125 112.0071029663086 250.50904846191406 112.02239227294922 250.85179138183594 112.04190826416016L258.13226318359375 112.48555755615234C258.3837585449219 112.49143981933594 258.6366271972656 112.49960327148438 258.89093017578125 112.51007080078125L267.4115905761719 112.87123107910156C267.562255859375 112.87743377685547 267.7123718261719 112.88440704345703 267.8619079589844 112.89213562011719L276.01666259765625 113.0777359008789L276.10821533203125 113.07981872558594C276.24090576171875 113.08100891113281 276.37396240234375 113.08281707763672 276.5074462890625 113.08525085449219L285.75042724609375 113.29927062988281L285.8240051269531 113.30065155029297L292.38507080078125 113.33940124511719C292.50482177734375 113.34099578857422 292.6242370605469 113.34307861328125 292.7432861328125 113.34564971923828L296.66546630859375 113.39290618896484H300.1700439453125C305.42913818359375 113.38640594482422 310.0504455566406 114.33855438232422 314.0336608886719 116.01661682128906C330.9957580566406 113.7615737915039 349.7436828613281 123.56438446044922 351.1793518066406 145.4250946044922L352.1100158691406 147.46221923828125C352.12261962890625 147.49000549316406 352.13519287109375 147.5177764892578 352.147705078125 147.54554748535156L354.96649169921875 153.2274932861328L358.3986511230469 160.04620361328125L358.4369812011719 160.11614990234375L361.87469482421875 166.42974853515625C362.05206298828125 166.75369262695312 362.2237854003906 167.0771484375 362.3899230957031 167.40005493164062L367.0425720214844 176.01939392089844C367.1353454589844 176.18341064453125 367.2274169921875 176.3487548828125 367.3188171386719 176.51544189453125L372.4979553222656 185.9526824951172C372.7425231933594 186.36944580078125 372.9825134277344 186.79513549804688 373.2177429199219 187.2298126220703L379.1438293457031 198.17588806152344C379.4221496582031 198.661865234375 379.694091796875 199.15977478027344 379.9593811035156 199.66973876953125L384.5594787597656 208.57843017578125C384.7183837890625 208.8773193359375 384.8749084472656 209.18048095703125 385.02899169921875 209.48789978027344L391.7001037597656 222.78135681152344C391.9571228027344 223.25289916992188 392.2080993652344 223.73524475097656 392.4527893066406 224.22853088378906L399.5188293457031 238.51905822753906L406.1560974121094 251.60086059570312C406.41900634765625 252.07858276367188 406.6756896972656 252.56748962402344 406.9259033203125 253.06773376464844L411.6012268066406 262.5096435546875C412.0266418457031 263.28302001953125 412.43487548828125 264.08599853515625 412.8248291015625 264.9190979003906L419.67437744140625 279.6158142089844C420.0963134765625 280.4493408203125 420.49774169921875 281.3153991699219 420.8773498535156 282.214599609375L427.3419189453125 297.57879638671875C427.6934814453125 298.3565979003906 428.0269470214844 299.1607360839844 428.3412780761719 299.99163818359375L428.44842529296875 300.27618408203125L428.5290222167969 300.4902038574219L434.3718566894531 316.00726318359375C434.6001281738281 316.55950927734375 434.8194580078125 317.1242980957031 435.0294189453125 317.7017822265625L439.3633117675781 329.5130310058594C439.5359802246094 329.9874572753906 439.69830322265625 330.4593200683594 439.85052490234375 330.92864990234375L442.97900390625 339.692626953125C443.1773681640625 340.2080993652344 443.3677978515625 340.734130859375 443.5500793457031 341.270751953125L446.2034606933594 349.18701171875C446.4859924316406 349.9198913574219 446.7521667480469 350.6741638183594 447.00115966796875 351.4500732421875L450.2917175292969 361.7497863769531C450.3799133300781 362.0245666503906 450.46478271484375 362.2984313964844 450.5463562011719 362.5712890625L454.6342468261719 374.8809509277344L456.8193359375 372.2501525878906C457.6944885253906 371.1967468261719 458.5919494628906 370.2181701660156 459.5085144042969 369.31182861328125L463.0392761230469 365.45501708984375C463.777099609375 364.65521240234375 464.526611328125 363.9034118652344 465.2862548828125 363.19818115234375L470.3225402832031 358.1268615722656C470.6197204589844 357.7992248535156 470.9251403808594 357.4730224609375 471.2389221191406 357.1483459472656L480.0137634277344 348.10601806640625L486.8623962402344 341.0032043457031C487.52294921875 340.3209228515625 488.1914367675781 339.6753845214844 488.8669128417969 339.06561279296875L498.8341369628906 329.1919860839844C499.2601623535156 328.7724304199219 499.6889953613281 328.36749267578125 500.1203918457031 327.9769592285156L510.739013671875 317.6482849121094L522.6720581054688 306.0166320800781C522.9545288085938 305.7279357910156 523.243896484375 305.4406433105469 523.5401000976562 305.1548767089844L531.5925903320312 297.369873046875C531.8500366210938 297.1210632324219 532.1084594726562 296.8774719238281 532.3677978515625 296.6391296386719L539.6852416992188 289.6919250488281Q539.7782592773438 289.603515625 539.8714599609375 289.51605224609375L548.347412109375 281.1864013671875L556.75146484375 272.41796875C556.8798217773438 272.2723388671875 557.009765625 272.1269226074219 557.1412353515625 271.98175048828125L571.0827026367188 256.6229248046875Q571.2921752929688 256.3831787109375 571.50732421875 256.144287109375L582.3286743164062 244.1324005126953C582.4739379882812 243.97108459472656 582.6196899414062 243.81166076660156 582.7659301757812 243.65414428710938L595.6514282226562 229.3917694091797C595.9954223632812 229.01197814941406 596.3421020507812 228.64279174804688 596.6912841796875 228.2840576171875L607.8238525390625 216.12252807617188C608.1123657226562 215.8076934814453 608.4027099609375 215.500244140625 608.69482421875 215.20010375976562L617.6896362304688 205.5541534423828L622.5819091796875 199.87997436523438L627.423095703125 194.00967407226562L628.444091796875 192.511962890625C626.2273559570312 193.2996063232422 623.8290405273438 193.87176513671875 621.2489624023438 194.19308471679688C619.1348266601562 194.52769470214844 617.0894775390625 194.66036987304688 615.1192626953125 194.61068725585938C613.2752685546875 194.61087036132812 611.5032348632812 194.46627807617188 609.805908203125 194.1905517578125C572.7154541015625 189.54623413085938 573.2255859375 132.9492950439453 611.3362426757812 129.73403930664062C611.9756469726562 129.5661163330078 612.6287841796875 129.4119110107422 613.2957153320312 129.27197265625C614.4345703125 129.0059356689453 615.554443359375 128.7959442138672 616.6546020507812 128.63931274414062C617.5722045898438 128.4115447998047 618.5177001953125 128.2121124267578 619.4912109375 128.0426025390625C620.1444091796875 127.9197006225586 620.7906494140625 127.81442260742188 621.4297485351562 127.72628784179688L621.9789428710938 127.63755798339844C623.282470703125 127.35840606689453 624.6389770507812 127.14421081542969 626.0485229492188 127.00010681152344C627.9985961914062 126.74620056152344 629.8787231445312 126.6423568725586 631.6868286132812 126.67576599121094L634.0011596679688 126.56851196289062L634.1028442382812 126.56432342529297L638.2876586914062 126.27129364013672C638.5693969726562 126.24854278564453 638.8532104492188 126.22865295410156 639.1390380859375 126.21167755126953L639.3917846679688 126.19397735595703C640.7437744140625 126.10554504394531 642.0576171875 126.08344268798828 643.3329467773438 126.1236801147461L644.9481201171875 126.11089324951172C645.7427368164062 126.0840072631836 646.552490234375 126.0802001953125 647.37744140625 126.10034942626953L655.2158813476562 126.30098724365234C656.5994262695312 126.33438873291016 657.93701171875 126.4332275390625 659.2288208007812 126.59324645996094L665.21044921875 127.06661224365234C665.585693359375 127.0870361328125 665.9638061523438 127.11270141601562 666.344970703125 127.14369201660156L674.7516479492188 127.81438446044922C675.2525024414062 127.8399429321289 675.7586669921875 127.87491607666016 676.2701416015625 127.91951751708984L683.8001098632812 128.59571838378906C684.2815551757812 128.62457275390625 684.7678833007812 128.6621856689453 685.2589721679688 128.70870971679688L693.2813110351562 129.48280334472656C693.5308227539062 129.4989013671875 693.7816772460938 129.51730346679688 694.0338134765625 129.5380401611328L704.7481689453125 130.4342498779297C705.6529541015625 130.509765625 706.5364379882812 130.61216735839844 707.3986206054688 130.74024963378906L715.2230224609375 131.55343627929688L722.61328125 132.0452880859375L722.725830078125 132.0527801513672C722.9267578125 132.0668487548828 723.126708984375 132.08226013183594 723.3256225585938 132.0989990234375L728.34521484375 132.26602172851562Q728.5112915039062 132.26577758789062 728.6782836914062 132.2667999267578L733.3047485351562 132.3026580810547L735.6089477539062 132.2731170654297L735.6721801757812 132.2695770263672C735.9517211914062 132.24815368652344 736.2332153320312 132.2293701171875 736.5167846679688 132.21328735351562H736.6773071289062C736.8865966796875 132.20213317871094 737.094970703125 132.1925506591797 737.3021850585938 132.18453979492188C777.8328857421875 130.41751098632812 782.9672241210938 188.2949676513672 746.4931030273438 196.13465881347656C744.5213623046875 196.57203674316406 742.4271850585938 196.862060546875 740.2095947265625 196.9871063232422L740.181884765625 196.99449157714844C739.72119140625 197.0201873779297 739.2649536132812 197.03823852539062 738.8133544921875 197.04879760742188C738.33447265625 197.07447814941406 737.849853515625 197.09210205078125 737.3594970703125 197.10150146484375L734.26953125 197.15499877929688C733.6838989257812 197.16696166992188 733.1060180664062 197.16685485839844 732.5357666015625 197.15499877929688H728.2636108398438C727.3776245117188 197.14869689941406 726.510009765625 197.11532592773438 725.6607055664062 197.05599975585938L721.3871459960938 196.94293212890625C720.4915771484375 196.9417266845703 719.577880859375 196.91029357910156 718.6461181640625 196.84735107421875L718.6331176757812 196.84542846679688C718.0489501953125 196.8095245361328 717.473388671875 196.7618408203125 716.9063720703125 196.7027130126953L710.8721313476562 196.30384826660156L710.8186645507812 196.30030822753906L710.3929443359375 196.2721710205078C709.4989013671875 196.20919799804688 708.6253051757812 196.11972045898438 707.7720947265625 196.0048828125L700.1776733398438 195.17709350585938C699.9279174804688 195.16098022460938 699.6768188476562 195.14256286621094 699.4244384765625 195.12181091308594L697.2247314453125 194.93873596191406C697.125 195.9362335205078 696.9833374023438 196.95191955566406 696.7977905273438 197.9853973388672C696.5769653320312 199.27322387695312 696.28076171875 200.5861053466797 695.90478515625 201.92247009277344C695.8226928710938 202.2449951171875 695.7373046875 202.56411743164062 695.648681640625 202.8798065185547C695.21044921875 204.51356506347656 694.6439208984375 206.17803955078125 693.940185546875 207.869384765625L693.8937377929688 207.9776153564453C693.728759765625 208.39012145996094 693.5585327148438 208.79571533203125 693.3832397460938 209.1943817138672C692.986083984375 210.2272491455078 692.5340576171875 211.26820373535156 692.0248413085938 212.31602478027344C691.9530029296875 212.46499633789062 691.8799438476562 212.61412048339844 691.8057861328125 212.76336669921875C691.7255249023438 212.93128967285156 691.6444091796875 213.09800720214844 691.5625 213.26345825195312L691.5324096679688 213.3536376953125C691.3876342773438 213.63372802734375 691.2408447265625 213.91018676757812 691.0921020507812 214.18304443359375C690.99267578125 214.37118530273438 690.89208984375 214.55784606933594 690.7904052734375 214.74278259277344L690.4320068359375 215.43804931640625C690.1569213867188 216.00367736816406 689.8641357421875 216.57057189941406 689.5532836914062 217.1385040283203C688.9091796875 218.35928344726562 688.2265014648438 219.51011657714844 687.5090942382812 220.59288024902344L685.6334838867188 223.6934814453125C685.06396484375 224.62977600097656 684.4732666015625 225.5207061767578 683.8632202148438 226.3673553466797L682.2012939453125 228.8575897216797C681.4534912109375 230.11135864257812 680.6068115234375 231.36007690429688 679.6561889648438 232.59957885742188C678.873291015625 233.6683807373047 678.0621948242188 234.66677856445312 677.2265014648438 235.59703063964844L672.6719360351562 241.1494903564453C672.2067260742188 241.71766662597656 671.7349243164062 242.2643280029297 671.2570190429688 242.78988647460938L667.2650146484375 247.38340759277344C666.699462890625 248.07960510253906 666.0988159179688 248.77081298828125 665.4620971679688 249.45614624023438L655.4834594726562 260.1705322265625C655.154052734375 260.5244445800781 654.8224487304688 260.8689270019531 654.4886474609375 261.2040100097656L644.2439575195312 272.3955993652344Q644.0150146484375 272.6573486328125 643.7792358398438 272.9180908203125L630.8804931640625 287.1806945800781C630.771484375 287.3045349121094 630.661376953125 287.42822265625 630.5501098632812 287.5517272949219L619.7420654296875 299.5635986328125C619.5731201171875 299.751220703125 619.4035034179688 299.9363098144531 619.2332153320312 300.1188049316406L605.6490478515625 315.0838928222656C605.506591796875 315.2435607910156 605.3621215820312 315.40289306640625 605.2157592773438 315.5618896484375L605.1738891601562 315.6073303222656C604.749267578125 316.07403564453125 604.320556640625 316.52459716796875 603.8881225585938 316.9593505859375L594.715087890625 326.5301208496094C594.2241821289062 327.04071044921875 593.7288208007812 327.5309143066406 593.2293701171875 328.0010681152344L585.56982421875 335.5283203125C585.180419921875 335.92938232421875 584.77783203125 336.3276062011719 584.3618774414062 336.7228088378906L576.4699096679688 344.2402648925781Q576.3319091796875 344.37139892578125 576.193603515625 344.50054931640625L568.59130859375 351.8246154785156C568.4010009765625 352.0084228515625 568.210205078125 352.1893615722656 568.0189208984375 352.3674621582031L556.0844116210938 364.0126953125L555.9908447265625 364.10400390625L555.9327392578125 364.1605224609375L544.233154296875 375.54071044921875C544.190673828125 375.5821533203125 544.1480712890625 375.6234436035156 544.1055297851562 375.66461181640625L533.3194580078125 386.3119201660156L527.7932739257812 392.0000305175781C527.4190063476562 392.4193115234375 527.0313110351562 392.8363342285156 526.6300048828125 393.2508544921875L517.8551635742188 402.293212890625C517.594482421875 402.56201171875 517.3325805664062 402.8250732421875 517.0695190429688 403.0824890136719L510.6246337890625 409.572265625L506.58526611328125 413.90771484375L501.38983154296875 420.1628723144531L501.3890380859375 420.1639099121094L497.26910400390625 425.4341125488281C497.1430358886719 425.5958251953125 497.0163879394531 425.7558288574219 496.88922119140625 425.9142150878906L494.236328125 429.4342956542969L491.4232177734375 433.5230712890625L489.6847839355469 436.30902099609375L488.3266296386719 438.5160217285156C487.86004638671875 439.33148193359375 487.35455322265625 440.1477355957031 486.80889892578125 440.9639587402344L485.5643005371094 442.830810546875C485.1535339355469 443.4798278808594 484.71697998046875 444.1284484863281 484.2540283203125 444.77618408203125L484.0190734863281 445.10552978515625C483.1096496582031 447.8125305175781 481.8823547363281 450.2552490234375 480.3993225097656 452.4337158203125L484.8291931152344 465.723388671875C484.8438415527344 465.76727294921875 484.8583984375 465.8111267089844 484.87286376953125 465.85498046875L489.7917785644531 480.1965026855469C489.8069152832031 480.2403259277344 489.82196044921875 480.28411865234375 489.8369140625 480.3279113769531L495.32916259765625 495.3024597167969C495.3833312988281 495.43853759765625 495.4369812011719 495.57537841796875 495.4900817871094 495.71295166015625L501.56219482421875 511.465576171875C501.7179870605469 511.8359680175781 501.8698425292969 512.2120361328125 502.0177001953125 512.5938110351562L506.7662658691406 524.9266967773438C506.8180236816406 525.0603637695312 506.86895751953125 525.1939086914062 506.9190673828125 525.3272094726562L513.2002563476562 540.76416015625C513.294921875 540.99755859375 513.386962890625 541.2304077148438 513.4764404296875 541.4627075195312L515.7933959960938 547.1232299804688C516.0147705078125 547.606201171875 516.2294311523438 548.0993041992188 516.437255859375 548.6026611328125L519.5272216796875 556.1201171875C519.7256469726562 556.6005859375 519.9130249023438 557.078857421875 520.0895385742188 557.5548706054688L524.8165893554688 569.3267822265625C524.9512329101562 569.6422119140625 525.0831298828125 569.9618530273438 525.2120971679688 570.2855834960938L528.9281616210938 579.6297607421875L528.9304809570312 579.6356201171875L534.213134765625 591.6617431640625C534.386474609375 592.016845703125 534.5563354492188 592.377685546875 534.7225952148438 592.7442626953125L540.5300903320312 605.5811157226562L546.2793579101562 617.4638061523438L546.2877807617188 617.4801635742188L551.4429321289062 627.54931640625C551.6111450195312 627.8803100585938 551.7736206054688 628.2106323242188 551.9304809570312 628.540283203125L556.349365234375 636.91455078125L562.0609130859375 646.5838012695312C562.3065185546875 646.9723510742188 562.5482788085938 647.369140625 562.7860107421875 647.774169921875L568.4425659179688 657.4848022460938C568.5961303710938 657.72705078125 568.748291015625 657.9724731445312 568.89892578125 658.2210693359375L573.2296752929688 665.3642578125L578.415283203125 672.6766967773438L583.5059814453125 679.1270751953125C583.9541015625 679.6602172851562 584.3956298828125 680.2133178710938 584.830078125 680.7868041992188L590.2390747070312 687.9857177734375L592.5736694335938 690.8857421875C592.9254760742188 691.28857421875 593.2737426757812 691.7032470703125 593.6182861328125 692.1298217773438L597.5945434570312 697.068359375C597.8722534179688 697.398681640625 598.1475219726562 697.7366333007812 598.4203491210938 698.082275390625L600.560546875 700.7976684570312C601.0379028320312 701.4025268554688 601.4906616210938 702.0092163085938 601.9193115234375 702.6175537109375C602.0933837890625 702.8348999023438 602.2662353515625 703.0554809570312 602.4376220703125 703.2791137695312C602.57958984375 703.4619750976562 602.7208251953125 703.6469116210938 602.8612670898438 703.8340454101562L602.8733520507812 703.8582763671875C603.2412109375 704.3563842773438 603.6029052734375 704.8699340820312 603.9581298828125 705.3991088867188L606.1517944335938 708.6361694335938C606.737548828125 709.510498046875 607.2772216796875 710.3848876953125 607.7723388671875 711.2581787109375C608.2249755859375 711.995849609375 608.662353515625 712.7628173828125 609.0833740234375 713.5595703125C609.1752319335938 713.7274169921875 609.2655029296875 713.8952026367188 609.3541870117188 714.0628662109375L609.81689453125 714.9096069335938C610.3271484375 715.8900146484375 610.7866821289062 716.864990234375 611.1976318359375 717.83349609375C617.4178466796875 732.2828979492188 612.9080810546875 745.2276611328125 603.9244384765625 753.5064086914062C602.4359130859375 762.26513671875 597.28466796875 770.4237670898438 587.615966796875 775.4044799804688C585.1196899414062 776.7545166015625 582.3108520507812 777.8525390625 579.17724609375 778.6419677734375C578.0274047851562 778.9609375 576.894775390625 779.2205810546875 575.7803344726562 779.4237670898438C574.3262939453125 779.7241821289062 572.9061279296875 779.9385986328125 571.5213623046875 780.0720825195312C571.224365234375 780.113525390625 570.9248046875 780.1517944335938 570.622802734375 780.1869506835938C569.13916015625 780.3841552734375 567.6965942382812 780.4971923828125 566.2958374023438 780.531494140625C565.074462890625 780.6642456054688 563.8135375976562 780.739990234375 562.5131225585938 780.7548217773438C561.132568359375 780.7969360351562 559.7936401367188 780.7688598632812 558.4966430664062 780.6749877929688C557.8229370117188 780.6688842773438 557.1390380859375 780.6458129882812 556.445068359375 780.6051635742188C555.9328002929688 780.58056640625 555.427001953125 780.546875 554.927734375 780.5042724609375L553.212890625 780.3883056640625C552.6998291015625 780.3619384765625 552.18115234375 780.32568359375 551.656982421875 780.2793579101562L544.86181640625 779.7041625976562C544.2632446289062 779.6511840820312 543.674072265625 779.58642578125 543.0942993164062 779.51025390625L537.21240234375 778.9231567382812L537.13037109375 778.9149780273438L536.9893188476562 778.900390625L528.0880126953125 777.9786376953125C528.0206909179688 777.9718017578125 527.9534912109375 777.9647827148438 527.8864135742188 777.9576416015625L520.6296997070312 777.41162109375C519.8729858398438 777.3776245117188 519.1041870117188 777.3215942382812 518.3233642578125 777.242919921875L509.3284912109375 776.3507080078125C508.7343444824219 776.3018188476562 508.1331787109375 776.2392578125 507.5250244140625 776.1626586914062C507.481689453125 776.1572265625 507.4383239746094 776.1516723632812 507.3949279785156 776.1460571289062C507.1578674316406 776.1175537109375 506.9224548339844 776.0864868164062 506.6885986328125 776.0535888671875L500.6533203125 775.2632446289062C500.1370849609375 775.1965942382812 499.6282653808594 775.1214599609375 499.1268310546875 775.0380249023438L492.5718688964844 774.1530151367188L488.765869140625 773.801513671875L488.64141845703125 773.7918701171875L485.55731201171875 773.5316772460938C485.28057861328125 773.5186767578125 485.002197265625 773.5028686523438 484.7221984863281 773.4841918945312L481.2176208496094 773.2166748046875L477.7264099121094 773.0160522460938C477.4784851074219 772.9998168945312 477.2320861816406 772.9815673828125 476.9872741699219 772.9613037109375L474.0194091796875 772.8136596679688C448.7769775390625 783.15283203125 421.1012268066406 755.1040649414062 432.1568908691406 729.904296875C431.6440734863281 729.5549926757812 431.1327819824219 729.1883544921875 430.6233215332031 728.8038940429688C428.0094909667969 726.9927978515625 425.80499267578125 724.9912109375 423.97967529296875 722.8515625C423.4659118652344 722.298583984375 422.977294921875 721.7394409179688 422.5133056640625 721.1749267578125L422.4278564453125 721.0761108398438C421.7764892578125 720.3304443359375 421.1412048339844 719.5423583984375 420.523681640625 718.710693359375C419.56658935546875 717.4874267578125 418.71368408203125 716.25244140625 417.9599914550781 715.0101318359375C416.88720703125 713.5248413085938 415.8902282714844 711.8978271484375 414.9816589355469 710.1234741210938C414.0760498046875 708.48876953125 413.3244934082031 706.8593139648438 412.7170715332031 705.2416381835938L412.6275634765625 705.044189453125C411.8310852050781 703.5361938476562 411.1089172363281 701.916748046875 410.4706115722656 700.182373046875L407.83984375 692.8588256835938C407.6288757324219 692.3154907226562 407.4266662597656 691.7604370117188 407.2335510253906 691.1934814453125L405.20611572265625 685.2997436523438L401.697998046875 676.2442626953125L401.6958923339844 676.23876953125L397.30084228515625 665.3922729492188L392.84185791015625 655.5631103515625L392.81396484375 655.5056762695312L387.3297119140625 644.1090698242188L387.3154602050781 644.07958984375L380.4810485839844 630.3717041015625C380.22698974609375 629.8612670898438 379.98638916015625 629.3526000976562 379.7589416503906 628.8457641601562L372.94830322265625 614.667236328125L372.91009521484375 614.5877075195312L365.1251220703125 598.3355712890625C364.9382019042969 597.944580078125 364.7590026855469 597.5546875 364.58746337890625 597.1659545898438L359.1170654296875 585.1286010742188C359.00933837890625 584.9005737304688 358.90301513671875 584.6702270507812 358.79815673828125 584.4376220703125L351.183837890625 567.5961303710938C350.6119384765625 568.1640625 350.0323181152344 568.7035522460938 349.44580078125 569.2154541015625C349.2750244140625 569.3809814453125 349.1019287109375 569.5459594726562 348.9264831542969 569.7103881835938L346.7862854003906 571.6900634765625C346.37628173828125 572.0741577148438 345.9641418457031 572.4453125 345.5500183105469 572.8037109375L344.3265075683594 573.9522705078125L344.0575256347656 574.2047729492188L340.5663146972656 577.495361328125C340.48529052734375 577.5707397460938 340.4042053222656 577.6456298828125 340.3230285644531 577.7200317382812L337.8014221191406 580.1076049804688C337.4448547363281 580.458740234375 337.0773620605469 580.8068237304688 336.6988525390625 581.1515502929688L336.6470642089844 581.2005615234375C335.2625732421875 582.502197265625 333.8531188964844 583.6553955078125 332.4261779785156 584.6681518554688L328.9691162109375 587.4205322265625C328.16455078125 588.058837890625 327.3564147949219 588.6534423828125 326.54571533203125 589.2056884765625L322.9497985839844 591.8614501953125C322.14068603515625 592.4537963867188 321.3297424316406 593.0042724609375 320.5179443359375 593.51416015625L314.9106750488281 597.3992309570312C314.481689453125 597.6959838867188 314.0525207519531 597.9813842773438 313.623291015625 598.255615234375L306.2518005371094 603.1937866210938L299.64678955078125 607.7915649414062L293.1127624511719 612.977783203125L283.9178771972656 621.0216674804688L283.857421875 621.074462890625L275.3005065917969 628.927734375C275.09539794921875 629.12890625 274.8868713378906 629.329345703125 274.6748962402344 629.5289916992188L264.16375732421875 639.3775024414062L257.4336242675781 646.1859130859375C257.31427001953125 646.3142700195312 257.19366455078125 646.4423828125 257.0717468261719 646.5703125L246.46438598632812 657.6993408203125L246.38534545898438 657.7818603515625L236.8639373779297 668.6016845703125C236.5059051513672 669.0269775390625 236.13465881347656 669.4503784179688 235.75 669.8717651367188L224.531494140625 682.1469116210938L217.20248413085938 690.7083129882812C216.83294677734375 691.183837890625 216.4477996826172 691.6577758789062 216.04678344726562 692.1298217773438L209.04779052734375 700.3109741210938C208.72607421875 700.7197265625 208.39280700683594 701.127197265625 208.04779052734375 701.5333251953125L204.2355499267578 706.0277709960938C203.81280517578125 706.52392578125 203.3852081298828 707.0029907226562 202.95310974121094 707.46533203125L200.74435424804688 710.0540161132812C200.57618713378906 710.2492065429688 200.40725708007812 710.4417114257812 200.2376251220703 710.631591796875L195.72825622558594 715.845947265625C195.6662139892578 715.917724609375 195.6040802001953 715.9891967773438 195.54183959960938 716.0602416992188L191.7068634033203 720.603515625C191.50038146972656 720.8640747070312 191.28921508789062 721.1241455078125 191.0733184814453 721.3837280273438L185.17279052734375 728.447021484375C184.93421936035156 728.7417602539062 184.68954467773438 729.035888671875 184.43870544433594 729.3292236328125L179.3380126953125 735.3076782226562C179.2378387451172 735.4309692382812 179.1365966796875 735.5541381835938 179.0343017578125 735.6771850585938C218.3141326904297 743.1864013671875 210.66403198242188 801.1951904296875 172.4840087890625 799.981201171875C170.91159057617188 799.9419555664062 169.28700256347656 799.80224609375 167.6113739013672 799.5545043945312C167.4994354248047 799.537841796875 167.38784790039062 799.5208129882812 167.27667236328125 799.5033569335938C167.14334106445312 799.4854125976562 167.00967407226562 799.466796875 166.8756866455078 799.447509765625L166.45936584472656 799.3798828125C166.11439514160156 799.3401489257812 165.76715087890625 799.2958984375 165.41766357421875 799.2468872070312L162.86280822753906 798.872314453125C162.46844482421875 798.8170776367188 162.0784912109375 798.7568359375 161.69290161132812 798.6918334960938L160.62518310546875 798.539306640625C160.24139404296875 798.5 159.854736328125 798.4549560546875 159.46524047851562 798.4041748046875L159.30471801757812 798.3506469726562L158.82745361328125 798.2896728515625C158.226806640625 798.2393798828125 157.6189727783203 798.1751098632812 157.00401306152344 798.0964965820312L154.3956298828125 797.7353515625C154.2872314453125 797.721435546875 154.1791534423828 797.7072143554688 154.0714111328125 797.6925659179688L150.72731018066406 797.3170776367188L146.39663696289062 797.16015625C145.6214599609375 797.1243286132812 144.86114501953125 797.0682983398438 144.11566162109375 796.99267578125L141.01937866210938 796.78564453125C140.42205810546875 796.747314453125 139.8337860107422 796.6971435546875 139.25454711914062 796.6354370117188L135.50540161132812 796.3438720703125C134.9640350341797 796.3106689453125 134.4165802001953 796.2662353515625 133.8630828857422 796.21044921875L133.28286743164062 796.1513061523438L127.69664001464844 795.581787109375C127.53339385986328 795.5655517578125 127.37085723876953 795.5484619140625 127.20903015136719 795.5304565429688L122.25250244140625 795.0601196289062L122.17645263671875 795.052490234375L117.66444396972656 794.75244140625C117.33164978027344 794.7278442382812 117.001708984375 794.6996459960938 116.67461395263672 794.6677856445312L112.3176498413086 794.414794921875L111.91265869140625 794.3912963867188C111.40068817138672 794.3609008789062 110.89533233642578 794.3217163085938 110.39656829833984 794.2740478515625L105.27803802490234 793.8562622070312C104.81746673583984 793.8189697265625 104.36241912841797 793.774658203125 103.91287994384766 793.7235717773438L100.23318481445312 793.3844604492188C99.99868774414062 793.369873046875 99.76304626464844 793.353271484375 99.52625274658203 793.3345947265625L95.25399017333984 792.973388671875H84.54845428466797C79.8249740600586 794.6360473632812 74.74440002441406 795.10498046875 69.76679992675781 794.521484375C61.07316970825195 793.794677734375 52.67814254760742 789.9276733398438 47.111717224121094 782.8834228515625C45.6757926940918 781.1361694335938 44.426387786865234 779.2029418945312 43.40642547607422 777.089111328125C41.90388107299805 774.18212890625 40.86198425292969 770.966064453125 40.40400314331055 767.478759765625C40.12705612182617 765.7997436523438 39.994319915771484 764.0703125 40.02098846435547 762.2986450195312C39.90021896362305 759.1288452148438 40.29720687866211 755.8719482421875 41.3005485534668 752.6034545898438C42.19743347167969 748.9743041992188 43.8037223815918 745.4522094726562 46.21419906616211 742.2081909179688C47.6685676574707 740.0411987304688 49.441226959228516 738.0326538085938 51.5473518371582 736.2457885742188C54.065673828125 733.9369506835938 56.852027893066406 732.17724609375 59.79347610473633 730.9225463867188C63.54302978515625 729.087158203125 67.41829681396484 728.1473999023438 71.25776672363281 727.9656982421875C73.72657012939453 727.7020263671875 76.12686920166016 727.750244140625 78.43724822998047 728.0718383789062H84.06330108642578C84.36466979980469 728.0725708007812 84.66393280029297 728.076416015625 84.96109008789062 728.0834350585938L88.19656372070312 728.1253662109375H94.39976501464844C95.43473052978516 728.0869750976562 96.49507141113281 728.09033203125 97.58060455322266 728.1376342773438C97.9712142944336 728.1470336914062 98.35818481445312 728.1618041992188 98.74150848388672 728.1818237304688C99.35282897949219 727.6148681640625 99.98614501953125 727.0755004882812 100.63927459716797 726.5639038085938C100.8306884765625 726.3605346679688 101.02288055419922 726.1603393554688 101.2158203125 725.96337890625L102.48556518554688 724.6345825195312L104.07417297363281 722.8015747070312C104.33049774169922 722.506591796875 104.58850860595703 722.2177124023438 104.8481216430664 721.9349365234375L106.33805084228516 720.19775390625C106.6685562133789 719.79345703125 107.0107192993164 719.390625 107.36473083496094 718.9893798828125L110.8838119506836 714.995361328125L114.89556121826172 710.1610107421875C115.7640151977539 709.1221313476562 116.65406799316406 708.156494140625 117.56267547607422 707.2615356445312L121.06201934814453 703.472900390625C121.1853256225586 703.3401489257812 121.30895233154297 703.2086791992188 121.4328842163086 703.0785522460938L124.66022491455078 699.5001831054688C124.70682525634766 699.448974609375 124.75347137451172 699.3980102539062 124.80016326904297 699.34716796875L129.26165771484375 694.0693969726562C129.5098876953125 693.776123046875 129.75982666015625 693.4888305664062 130.01138305664062 693.2073364257812L135.10708618164062 687.2207641601562L135.12716674804688 687.197265625L141.16651916503906 679.9039306640625C141.50390625 679.499267578125 141.84457397460938 679.1056518554688 142.1883544921875 678.7230224609375L146.39663696289062 673.7374877929688C146.64646911621094 673.4407348632812 146.89805603027344 673.1500244140625 147.1513214111328 672.865234375L151.14552307128906 668.2357788085938C151.28607177734375 668.0674438476562 151.42864990234375 667.8994140625 151.5732421875 667.7315673828125L154.26516723632812 664.6262817382812C154.44351196289062 664.4080810546875 154.62522888183594 664.1902465820312 154.810302734375 663.9728393554688L158.56959533691406 659.540771484375L158.62252807617188 659.4783935546875L166.56802368164062 650.1150512695312C166.85948181152344 649.7720947265625 167.15325927734375 649.4373168945312 167.44924926757812 649.1104736328125L175.61036682128906 639.5076904296875C176.27777099609375 638.7271728515625 176.95713806152344 637.989013671875 177.6471710205078 637.2920532226562L187.7231903076172 626.2552490234375L197.5383758544922 615.1079711914062C198.1476287841797 614.3707275390625 198.79676818847656 613.6395874023438 199.4869842529297 612.9156494140625L208.95816040039062 603.028564453125C209.45123291015625 602.4719848632812 209.96800231933594 601.9196166992188 210.50901794433594 601.3719482421875L218.5615234375 593.2124633789062C219.28952026367188 592.4771118164062 220.0265350341797 591.7855224609375 220.77130126953125 591.1364135742188L230.2122344970703 582.2439575195312C230.65982055664062 581.822998046875 231.1100311279297 581.41748046875 231.56259155273438 581.0272827148438L240.6055908203125 572.679931640625C241.28683471679688 572.0558471679688 241.9735870361328 571.4669799804688 242.66494750976562 570.9122924804688L250.2301483154297 564.288818359375C250.40333557128906 564.134521484375 250.5787811279297 563.9808959960938 250.7564697265625 563.8280029296875L250.85179138183594 563.7445678710938C251.74386596679688 562.962646484375 252.64369201660156 562.2390747070312 253.54946899414062 561.5716552734375L257.9944152832031 558.0511474609375C259.1329345703125 557.0404663085938 260.3712158203125 556.06494140625 261.71331787109375 555.1302490234375L268.6098327636719 550.3700561523438C269.11737060546875 549.9973754882812 269.6408386230469 549.6310424804688 270.18048095703125 549.271484375L278.3597412109375 543.818603515625L285.3357849121094 538.985107421875C285.4465637207031 538.908447265625 285.5573425292969 538.8326416015625 285.66815185546875 538.7575073242188L288.8956298828125 536.3739013671875L293.3251037597656 532.8471069335938L295.75372314453125 530.572265625C295.93463134765625 530.3975219726562 296.1181335449219 530.2233276367188 296.3042907714844 530.0498046875L299.8623962402344 526.7592163085938L302.47076416015625 524.2980346679688C302.6298522949219 524.1499633789062 302.7892761230469 524.0038452148438 302.9490051269531 523.859619140625L303.6318664550781 523.2279663085938C303.86883544921875 522.9906005859375 304.1104736328125 522.7542724609375 304.3568115234375 522.5189819335938L305.0189514160156 521.8899536132812L305.3466491699219 521.4755859375C305.4189147949219 521.3868408203125 305.4913635253906 521.2986450195312 305.56396484375 521.2109375L305.6673889160156 521.0734252929688L305.69659423828125 521.0340576171875L306.0673522949219 520.5157470703125L306.08233642578125 520.4857788085938Q306.1300354003906 520.42333984375 306.1778259277344 520.3612670898438L306.91168212890625 519.3353881835938C306.94158935546875 519.2941284179688 306.9715576171875 519.2529907226562 307.00152587890625 519.2120361328125Q307.11590576171875 519.0396728515625 307.2326965332031 518.8672485351562L307.79449462890625 518.0245361328125C312.75604248046875 510.3185119628906 319.1171875 505.8232727050781 325.8387756347656 503.8701477050781L320.9617004394531 489.86309814453125C320.5885314941406 488.9241027832031 320.2429504394531 487.9493103027344 319.9267578125 486.9381408691406L313.59918212890625 466.6031494140625C313.4557189941406 466.1783752441406 313.3176574707031 465.7469482421875 313.18511962890625 465.3087463378906L307.9320068359375 447.9216613769531C307.77752685546875 447.4737243652344 307.62908935546875 447.0182800292969 307.4868469238281 446.55523681640625L301.6815490722656 427.6412048339844C301.55072021484375 427.2147216796875 301.4278564453125 426.79058837890625 301.3127746582031 426.368896484375L295.41778564453125 407.3002014160156C295.25665283203125 406.843017578125 295.10174560546875 406.37786865234375 294.95330810546875 405.90478515625L288.44580078125 385.08843994140625C288.3474426269531 384.7982482910156 288.2515563964844 384.5049743652344 288.1581726074219 384.2085266113281L281.32537841796875 362.6291809082031L276.99407958984375 349.9095764160156C276.8783264160156 349.61065673828125 276.76513671875 349.3082275390625 276.6545715332031 349.0022277832031L269.6588134765625 329.66015625C269.6476745605469 329.6292724609375 269.6365661621094 329.59844970703125 269.6255187988281 329.5675964355469L266.3147277832031 321.5140075683594C266.2131652832031 321.266357421875 266.1145324707031 321.019287109375 266.018798828125 320.7728271484375L262.4610595703125 312.3392333984375L262.4490051269531 312.3111572265625L255.45974731445312 296.01605224609375L248.8528594970703 281.4273681640625C248.7693328857422 281.2585754394531 248.6865692138672 281.0884704589844 248.60458374023438 280.9170837402344L240.0839080810547 262.992919921875C240.05508422851562 262.9326171875 240.02645874023438 262.87237548828125 239.9980010986328 262.8121337890625L232.21432495117188 247.34254455566406C232.06649780273438 247.0609893798828 231.92079162597656 246.7756805419922 231.77725219726562 246.4866180419922L224.64830017089844 232.03273010253906C224.53097534179688 231.81898498535156 224.41485595703125 231.60301208496094 224.2999267578125 231.38482666015625L219.7519989013672 222.75714111328125C219.6923065185547 222.64358520507812 219.63330078125 222.5301055908203 219.57496643066406 222.4167022705078L217.03662109375 218.00857543945312C216.75729370117188 217.51531982421875 216.49130249023438 217.0230255126953 216.23843383789062 216.53184509277344L213.8530731201172 212.2567901611328C213.72796630859375 212.03233337402344 213.60562133789062 211.80809020996094 213.48597717285156 211.58409118652344L208.75917053222656 203.05775451660156C208.62779235839844 202.8360595703125 208.49766540527344 202.61184692382812 208.3688201904297 202.38511657714844L203.19219970703125 193.2357635498047C202.98309326171875 192.8663330078125 202.7814483642578 192.49745178222656 202.58718872070312 192.12918090820312L200.31631469726562 188.05914306640625C200.14337158203125 187.7488555908203 199.9756622314453 187.43898010253906 199.81314086914062 187.1295623779297L197.3264923095703 182.738037109375C197.13209533691406 182.4052276611328 196.94070434570312 182.06671142578125 196.75242614746094 181.7224578857422C196.38336181640625 181.05899047851562 196.03831481933594 180.3974151611328 195.7166748046875 179.7380828857422C194.56898498535156 177.89942932128906 193.5494384765625 175.86944580078125 192.6813201904297 173.64056396484375C192.2121124267578 172.55642700195312 191.80406188964844 171.48031616210938 191.4545135498047 170.4136199951172C189.42678833007812 166.70628356933594 188.13894653320312 162.5819549560547 187.8395233154297 158.19363403320312C186.81756591796875 155.59742736816406 186.1451873779297 152.78399658203125 185.89527893066406 149.77320861816406C184.9659423828125 143.96043395996094 185.71456909179688 137.8041229248047 188.69265747070312 131.85952758789062C189.67677307128906 129.57057189941406 190.97439575195312 127.3669662475586 192.6093292236328 125.2991714477539C195.98606872558594 120.57942199707031 200.3373565673828 117.28258514404297 205.14205932617188 115.2674789428711C208.42874145507812 113.57258605957031 211.77980041503906 112.56085205078125 215.10272216796875 112.13929748535156C216.4857940673828 111.8788070678711 217.84693908691406 111.71330261230469 219.18321228027344 111.63664245605469C219.6578826904297 111.58796691894531 220.1285400390625 111.54905700683594 220.5951690673828 111.51969146728516C220.6374969482422 111.51585388183594 220.67991638183594 111.51207733154297 220.7222900390625 111.50836944580078C221.91726684570312 111.38572692871094 223.08433532714844 111.31719970703125 224.2230987548828 111.29994201660156C224.90126037597656 111.24990844726562 225.5912322998047 111.21614837646484 226.29299926757812 111.19920349121094L230.4663848876953 111.09219360351562C230.95037841796875 111.08052062988281 231.42916870117188 111.07709503173828 231.90272521972656 111.08173370361328L232.1407470703125 111.07929992675781C233.81454467773438 110.97097778320312 235.55735778808594 110.97208404541016 237.3685302734375 111.09219360351562L243.64199829101562 111.52023315429688ZM526.9490966796875 712.1749267578125C526.3392944335938 711.3883666992188 525.7709350585938 710.5986938476562 525.2427368164062 709.8067016601562L519.3131713867188 701.4798583984375C518.3011474609375 700.0488891601562 517.4171142578125 698.6143798828125 516.6539306640625 697.1812744140625L514.4241333007812 693.4927978515625C513.986572265625 692.8359375 513.560546875 692.1543579101562 513.146728515625 691.4476318359375L506.7662658691406 680.5861206054688C506.5583190917969 680.230712890625 506.3573913574219 679.875732421875 506.1634521484375 679.521240234375L500.9084777832031 670.5659790039062C500.3503723144531 669.6824951171875 499.8143615722656 668.755859375 499.30230712890625 667.7850952148438L499.1817321777344 667.5563354492188L498.9794921875 667.1725463867188L494.0150146484375 657.7521362304688L493.81805419921875 657.3783569335938C493.80303955078125 657.3504638671875 493.7884216308594 657.3223876953125 493.7738037109375 657.2942504882812C493.63165283203125 657.0233154296875 493.493408203125 656.7527465820312 493.3590087890625 656.482666015625L488.710693359375 647.3577880859375C488.43499755859375 646.8450317382812 488.1665954589844 646.3194580078125 487.9057312011719 645.7811279296875L482.022705078125 633.595703125L481.8998107910156 633.3411865234375C481.64739990234375 632.8203125 481.4088439941406 632.30126953125 481.183837890625 631.7843017578125L476.0633850097656 620.5123901367188C475.8638000488281 620.0968627929688 475.66900634765625 619.6736450195312 475.47918701171875 619.2426147460938L470.09130859375 607.0040283203125C469.74407958984375 606.2657470703125 469.4129333496094 605.5032348632812 469.0987243652344 604.716064453125L464.9654541015625 594.309326171875Q464.83514404296875 593.9828491210938 464.71148681640625 593.6578369140625L459.5953674316406 581.0390014648438C459.5750732421875 580.9904174804688 459.55487060546875 580.9417114257812 459.5346984863281 580.8929443359375L456.7292785644531 574.0258178710938C456.6192626953125 573.7716064453125 456.51104736328125 573.5147094726562 456.4046630859375 573.2550659179688L453.1141052246094 565.2694702148438C452.9681091308594 564.9122314453125 452.8282470703125 564.55615234375 452.6943359375 564.201416015625L447.0818786621094 550.2957763671875C446.7976989746094 549.6597290039062 446.525390625 549.0062866210938 446.2654724121094 548.3351440429688L441.51690673828125 536.002197265625L441.50872802734375 535.9810791015625L434.9759216308594 519.1213989257812C434.74798583984375 518.531005859375 434.536376953125 517.9442749023438 434.3406677246094 517.361328125L429.0550842285156 502.95025634765625C428.8441467285156 502.41314697265625 428.64178466796875 501.8645324707031 428.44830322265625 501.3042297363281L423.3786926269531 486.5234680175781C423.2938537597656 486.2765808105469 423.2117614746094 486.0303955078125 423.1324157714844 485.78497314453125L418.3180847167969 471.3547058105469C418.2607727050781 471.18634033203125 418.2042541503906 471.0169677734375 418.1485900878906 470.84649658203125L412.03564453125 452.03948974609375C411.9879455566406 451.893310546875 411.9411926269531 451.74737548828125 411.8953857421875 451.6017150878906L405.7565612792969 433.0701599121094L399.1944274902344 413.94390869140625C398.9610290527344 413.2613525390625 398.74859619140625 412.5843505859375 398.5565185546875 411.9130859375L395.0723876953125 401.3070373535156C394.8873596191406 400.81158447265625 394.70965576171875 400.3065185546875 394.53948974609375 399.7918395996094L388.627197265625 381.86767578125C388.4832458496094 381.4320983886719 388.34771728515625 380.99884033203125 388.2204895019531 380.5679626464844L385.6287841796875 372.4662780761719C385.5477600097656 372.2401123046875 385.46820068359375 372.01202392578125 385.39013671875 371.781982421875L382.0995788574219 362.1644592285156C382.0309753417969 361.9622802734375 381.9642028808594 361.76055908203125 381.8992614746094 361.5593566894531L378.74267578125 352.63909912109375C378.6239013671875 352.3356018066406 378.5077819824219 352.0284423828125 378.39434814453125 351.71759033203125L374.6574401855469 341.4060363769531C374.5034484863281 341.0322570800781 374.35345458984375 340.65277099609375 374.20758056640625 340.26751708984375L368.2436828613281 324.4167175292969C368.1936340332031 324.30133056640625 368.1439514160156 324.1853942871094 368.0946350097656 324.0688781738281L361.4991455078125 308.4061279296875L354.47796630859375 293.27685546875C354.45550537109375 293.2323303222656 354.43310546875 293.18768310546875 354.4107360839844 293.1429748535156L348.87298583984375 282.06744384765625C348.80853271484375 281.9385681152344 348.74493408203125 281.809814453125 348.68218994140625 281.68115234375L341.9732360839844 268.4580383300781C341.79547119140625 268.12200927734375 341.6207580566406 267.7806396484375 341.44915771484375 267.433837890625L334.9229736328125 254.2838897705078C334.7272033691406 253.92054748535156 334.5349426269531 253.5508575439453 334.34637451171875 253.17474365234375L327.0489196777344 238.5799102783203L322.6977233886719 230.1763153076172Q322.6698913574219 230.12522888183594 322.64215087890625 230.07395935058594L316.5636291503906 218.8568878173828C316.462158203125 218.67825317382812 316.3614807128906 218.49803161621094 316.26165771484375 218.31622314453125L310.4697570800781 207.7088623046875Q310.305908203125 207.41128540039062 310.14849853515625 207.11427307128906L304.87847900390625 197.4225311279297C304.6863708496094 197.06658935546875 304.5010681152344 196.71128845214844 304.32244873046875 196.35665893554688L302.33001708984375 192.7115936279297C301.87384033203125 191.94107055664062 301.4343566894531 191.13951110839844 301.0127258300781 190.3063507080078L296.9864807128906 182.37423706054688C296.7201232910156 181.84716796875 296.46820068359375 181.32183837890625 296.2304382324219 180.7983856201172L294.98162841796875 178.2811279296875L291.92620849609375 178.24432373046875C291.8030700683594 178.24374389648438 291.6795654296875 178.2426300048828 291.55572509765625 178.24098205566406L285.13714599609375 178.14068603515625C284.941162109375 178.13980102539062 284.7442932128906 178.1375732421875 284.54656982421875 178.13397216796875L276.1741027832031 177.9885711669922C276.10211181640625 177.9885711669922 276.0299987792969 177.98841857910156 275.957763671875 177.98805236816406C275.5168762207031 177.99024963378906 275.0713806152344 177.9854278564453 274.62139892578125 177.97344970703125L274.5600280761719 177.97178649902344L268.95208740234375 177.82022094726562L270.59515380859375 180.79583740234375C270.6240539550781 180.84817504882812 270.65283203125 180.90049743652344 270.68145751953125 180.9528045654297L273.6315612792969 186.23997497558594C273.69232177734375 186.34896850585938 273.7524108886719 186.4578857421875 273.8118591308594 186.5667724609375L276.7080993652344 191.6172332763672C277.2377624511719 192.55197143554688 277.719482421875 193.48324584960938 278.1549072265625 194.4100799560547L280.9306335449219 199.67584228515625C281.3341979980469 200.37966918945312 281.7238464355469 201.1087188720703 282.0987243652344 201.86343383789062L289.93719482421875 217.63404846191406C290.0288391113281 217.8186492919922 290.1186828613281 218.00302124023438 290.2068176269531 218.18716430664062L297.8073425292969 233.40025329589844C298.0806579589844 233.91510009765625 298.3466491699219 234.44264221191406 298.6050109863281 234.98304748535156L307.17919921875 252.9072265625C307.562744140625 253.7100830078125 307.91363525390625 254.5082550048828 308.23284912109375 255.30125427246094L314.1491394042969 268.3650207519531C314.4305725097656 268.9444580078125 314.702392578125 269.53912353515625 314.96417236328125 270.1492004394531L322.06695556640625 286.76251220703125C322.2049865722656 287.0838623046875 322.3380126953125 287.404296875 322.4660949707031 287.7237854003906L325.7003173828125 295.4051208496094C325.9228820800781 295.8935852050781 326.138671875 296.39239501953125 326.34735107421875 296.9017028808594L330.2131042480469 306.3587341308594C330.6068115234375 307.3218994140625 330.9562683105469 308.2760925292969 331.2631530761719 309.2206726074219L337.6904296875 326.94476318359375C337.8674621582031 327.43536376953125 338.0334777832031 327.9232482910156 338.188720703125 328.4083251953125L342.3485412597656 340.6677551269531C342.6423034667969 341.4338684082031 342.9179992675781 342.22332763671875 343.1746826171875 343.0364074707031L350.0233154296875 364.71929931640625C350.1424560546875 365.09710693359375 350.2553405761719 365.47308349609375 350.36199951171875 365.8471984863281L356.85858154296875 386.4557189941406C357.0331726074219 387.0117492675781 357.1941833496094 387.5638122558594 357.3419189453125 388.11181640625L363.7072448730469 408.5131530761719C363.8799743652344 409.07012939453125 364.0390625 409.62310791015625 364.18487548828125 410.1719665527344L369.323974609375 426.8680419921875C369.4065856933594 427.1233825683594 369.4873046875 427.381103515625 369.5660400390625 427.6412048339844L374.7608337402344 444.875732421875C374.91680908203125 445.321044921875 375.0668640136719 445.7738342285156 375.2108154296875 446.23419189453125L381.65069580078125 466.9820861816406L388.8412170410156 487.6203308105469C388.88836669921875 487.7558288574219 388.9346618652344 487.89111328125 388.98016357421875 488.02618408203125L394.32000732421875 502.6564025878906L402.0034484863281 521.5826416015625C402.03973388671875 521.672119140625 402.07562255859375 521.761474609375 402.11114501953125 521.8507690429688L409.55401611328125 539.1973876953125C409.6329345703125 539.3661499023438 409.7110595703125 539.5361938476562 409.7884216308594 539.7074584960938L417.94793701171875 557.7386474609375C418.01715087890625 557.892333984375 418.0851745605469 558.0457763671875 418.1520690917969 558.1990966796875L423.9003601074219 570.8607177734375C423.9251708984375 570.9150390625 423.9498291015625 570.9692993164062 423.974365234375 571.0235595703125L431.39044189453125 586.4927978515625L431.43121337890625 586.5778198242188L431.4439392089844 586.6043701171875L438.20904541015625 600.7373046875C438.3367919921875 600.9817504882812 438.46295166015625 601.2289428710938 438.5874938964844 601.47900390625L445.2815246582031 615.0217895507812C445.4197692871094 615.2927856445312 445.5560302734375 615.5672607421875 445.6902770996094 615.8450927734375L450.84063720703125 626.431884765625C451.05267333984375 626.85302734375 451.259765625 627.2823486328125 451.46173095703125 627.719970703125C451.5863342285156 627.986572265625 451.7074890136719 628.2528686523438 451.82501220703125 628.5186767578125L456.4581604003906 638.7318725585938C456.9041442871094 639.710693359375 457.302490234375 640.681884765625 457.6549987792969 641.64453125L461.8354187011719 651.8941040039062C462.0086669921875 652.3212890625 462.1731872558594 652.7467041015625 462.3292236328125 653.1702270507812L465.53375244140625 661.4531860351562C465.67559814453125 661.80517578125 465.81365966796875 662.1621704101562 465.9479064941406 662.5242309570312C466.248046875 663.3082275390625 466.5193786621094 664.0858154296875 466.7627258300781 664.856689453125L468.59039306640625 670.169677734375L470.83062744140625 676.2686767578125L471.70379638671875 678.1827392578125C481.9559631347656 686.2105712890625 484.94091796875 697.70263671875 482.9039611816406 708.3321533203125L484.95257568359375 708.4553833007812L485.5113830566406 708.489013671875L486.0486755371094 708.5275268554688L487.5492858886719 708.6351318359375C488.18548583984375 708.6558227539062 488.8304443359375 708.691650390625 489.484130859375 708.7431640625L493.7645263671875 709.11767578125C494.2471618652344 709.1555786132812 494.7237243652344 709.201171875 495.19427490234375 709.2542724609375L497.41912841796875 709.465576171875C498.4916076660156 709.5261840820312 499.5876159667969 709.6323852539062 500.7068176269531 709.7864990234375L509.22747802734375 710.9368286132812C509.62493896484375 710.99169921875 510.01800537109375 711.051513671875 510.4065856933594 711.1163330078125L514.9561767578125 711.6861572265625L524.7974243164062 712.6624145507812C524.857421875 712.66845703125 524.9172973632812 712.6746215820312 524.9771118164062 712.680908203125L527.4857177734375 712.8699340820312C527.3055419921875 712.6417236328125 527.1266479492188 712.4100341796875 526.9490966796875 712.1749267578125Z" fill="black"/>
</svg>
