<svg xmlns="http://www.w3.org/2000/svg" viewBox="0 0 729 1000">
  <path d="M152.310302734375 174.7420654296875C151.85426330566406 174.08094787597656 151.4105987548828 173.39329528808594 150.9801788330078 172.67855834960938C150.59100341796875 172.0497283935547 150.2254638671875 171.42135620117188 149.8829803466797 170.7938232421875L148.79212951660156 168.9073944091797C148.69146728515625 168.73190307617188 148.59254455566406 168.55654907226562 148.49534606933594 168.3813018798828L148.1885986328125 167.88888549804688C148.1581573486328 167.8501434326172 148.12779235839844 167.81129455566406 148.09747314453125 167.77235412597656C144.79295349121094 164.1239776611328 142.32179260253906 159.48834228515625 141.13438415527344 153.86424255371094C140.99192810058594 153.3048553466797 140.8666534423828 152.74732971191406 140.75814819335938 152.1920623779297C140.73291015625 152.09410095214844 140.70822143554688 151.99607849121094 140.68406677246094 151.89801025390625C140.031494140625 149.36758422851562 139.71412658691406 146.72207641601562 139.7896728515625 144.00146484375C139.8137969970703 140.3590545654297 140.53500366210938 136.64419555664062 142.08416748046875 132.98890686035156C142.7992706298828 130.8861083984375 143.7158966064453 128.94430541992188 144.8024139404297 127.16458892822266C147.52932739257812 122.52983093261719 151.3291015625 119.01611328125 155.70022583007812 116.59542846679688C158.08912658691406 115.06117248535156 160.58155822753906 113.93973541259766 163.1212158203125 113.19212341308594C183.39361572265625 104.82115936279297 205.32284545898438 121.73760223388672 206.66293334960938 141.69561767578125L207.4236297607422 142.88827514648438C207.61392211914062 143.18215942382812 207.79901123046875 143.47598266601562 207.97894287109375 143.76968383789062L210.29425048828125 147.34494018554688C210.457763671875 147.5989990234375 210.61741638183594 147.85301208496094 210.77320861816406 148.10691833496094L212.10011291503906 150.14056396484375L215.8257598876953 155.28831481933594C216.02163696289062 155.5578155517578 216.21279907226562 155.82752990722656 216.3992919921875 156.0973663330078L219.34658813476562 160.15444946289062C219.38333129882812 160.20132446289062 219.42001342773438 160.24835205078125 219.45664978027344 160.29551696777344L224.123046875 166.33824157714844C224.47244262695312 166.78749084472656 224.80807495117188 167.2377471923828 225.13021850585938 167.68882751464844L227.2818603515625 170.5706024169922C227.75421142578125 171.16714477539062 228.21763610839844 171.78793334960938 228.67147827148438 172.43341064453125L233.84909057617188 179.81314086914062C233.8718719482422 179.8455352783203 233.89459228515625 179.8779296875 233.917236328125 179.91033935546875L238.76454162597656 186.47193908691406C238.939697265625 186.70896911621094 239.1111602783203 186.94618225097656 239.27896118164062 187.18353271484375L243.3654327392578 192.6913604736328C243.57232666015625 192.95123291015625 243.77769470214844 193.2156524658203 243.98146057128906 193.48463439941406L247.0618133544922 197.52186584472656C247.24880981445312 197.76870727539062 247.43174743652344 198.0157928466797 247.6106414794922 198.2631072998047L249.40577697753906 200.54006958007812L252.94143676757812 204.76321411132812L257.0299072265625 209.34725952148438L263.0792541503906 215.7983856201172C263.23272705078125 215.95230102539062 263.3857727050781 216.1082000732422 263.53839111328125 216.26611328125L268.5523681640625 221.4757537841797C268.5894470214844 221.5130157470703 268.62652587890625 221.55039978027344 268.66357421875 221.58790588378906L275.9908752441406 229.0200653076172C276.5384826660156 229.57513427734375 277.0606384277344 230.1351318359375 277.5579833984375 230.69949340820312L283.97357177734375 237.46153259277344L284.03729248046875 237.5290985107422L291.0304870605469 244.56906127929688L294.94940185546875 248.4140167236328C295.0791931152344 248.53256225585938 295.208740234375 248.65243530273438 295.3381042480469 248.77362060546875L300.0044860839844 253.1254425048828C300.4273376464844 253.52175903320312 300.8362731933594 253.9213409423828 301.23150634765625 254.3239288330078L305.16900634765625 258.0015563964844C305.5855407714844 258.3924865722656 305.98858642578125 258.7865295410156 306.3783264160156 259.18353271484375L309.3777770996094 262.0871887207031C310.1878662109375 262.80474853515625 310.9876403808594 263.57452392578125 311.7753601074219 264.398193359375L319.2992858886719 272.2760314941406C319.3786315917969 272.3592529296875 319.45745849609375 272.4425964355469 319.53570556640625 272.5260314941406L323.8746643066406 276.98638916015625C324.2839050292969 277.38580322265625 324.6900634765625 277.79925537109375 325.09295654296875 278.2270202636719L331.6758728027344 285.24383544921875C331.8371276855469 285.41058349609375 331.99786376953125 285.5796203613281 332.1580810546875 285.75091552734375L339.0659484863281 293.1175537109375C339.71978759765625 293.8179016113281 340.33514404296875 294.5246276855469 340.9131164550781 295.2366638183594L344.8052062988281 299.6353759765625C345.2160339355469 300.0605773925781 345.6231384277344 300.5007019042969 346.0262145996094 300.9560546875L349.9825134277344 305.4618225097656C350.3939514160156 305.906005859375 350.8011779785156 306.3658142089844 351.2038269042969 306.84149169921875L356.10821533203125 312.6336364746094C356.667236328125 313.2508239746094 357.2173767089844 313.89776611328125 357.75775146484375 314.57513427734375L362.9952392578125 321.1664733886719C363.32470703125 321.5674133300781 363.6503601074219 321.9795837402344 363.97210693359375 322.40313720703125Q364.20733642578125 322.7083740234375 364.43408203125 323.0142517089844L369.2795715332031 329.42633056640625C369.48895263671875 329.70428466796875 369.69317626953125 329.9825134277344 369.892333984375 330.2610168457031L373.2643737792969 334.8529968261719L375.40228271484375 337.7154541015625C375.738037109375 338.1300964355469 376.0697326660156 338.55657958984375 376.39715576171875 338.9950866699219L380.05584716796875 343.9102783203125L383.3182067871094 348.1634521484375L384.5129089355469 349.6828308105469C385.1654052734375 350.4459533691406 385.8031921386719 351.25225830078125 386.4246520996094 352.1029357910156L388.2487487792969 354.638427734375C388.53082275390625 354.999267578125 388.8097839355469 355.3687438964844 389.0855712890625 355.7469482421875L390.5606994628906 357.80157470703125C390.650390625 357.9154052734375 390.73980712890625 358.0301208496094 390.82891845703125 358.1456604003906L391.0138244628906 358.3894958496094C391.6874084472656 359.15582275390625 392.3422546386719 359.96868896484375 392.9762878417969 360.8293762207031C393.2498474121094 360.5679016113281 393.5245056152344 360.31243896484375 393.8001708984375 360.0629577636719L396.9635925292969 356.93292236328125C397.15264892578125 356.7379455566406 397.3448181152344 356.5435791015625 397.5401306152344 356.3498840332031L400.63787841796875 353.2918701171875C400.93011474609375 352.9814147949219 401.2301025390625 352.6724853515625 401.53802490234375 352.3651123046875L407.90185546875 346.03863525390625L414.6917419433594 338.8675537109375C414.7934875488281 338.7569885253906 414.8961486816406 338.6465759277344 414.99981689453125 338.53631591796875L422.2632141113281 330.87127685546875C422.6292724609375 330.45294189453125 423.0087890625 330.0367736816406 423.4019470214844 329.6229553222656L431.6667175292969 320.9419860839844C431.8575439453125 320.728515625 432.0518798828125 320.5155944824219 432.249755859375 320.3032531738281L438.6500244140625 313.4584045410156C438.78680419921875 313.30169677734375 438.9253845214844 313.145263671875 439.06585693359375 312.98907470703125L449.7094421386719 301.2051086425781C449.9997253417969 300.883056640625 450.2919616699219 300.5687561035156 450.5860595703125 300.2621154785156L460.77655029296875 289.0221252441406C461.0099182128906 288.7480163574219 461.24884033203125 288.4746398925781 461.493408203125 288.20208740234375L473.42156982421875 274.9500427246094C473.55902099609375 274.796875 473.6969299316406 274.6454162597656 473.83526611328125 274.4957275390625L482.6888427734375 264.6472473144531C482.9993591308594 264.3025817871094 483.3121643066406 263.966796875 483.6270751953125 263.6397399902344L490.17010498046875 256.4495849609375C490.59381103515625 255.95462036132812 491.0361022949219 255.4625244140625 491.4973449707031 254.97364807128906L495.8844299316406 250.3451690673828C496.4084777832031 249.75064086914062 496.9601135253906 249.16102600097656 497.5400695800781 248.57701110839844L502.4483337402344 243.65748596191406C502.9075622558594 243.17405700683594 503.3861083984375 242.6946563720703 503.88427734375 242.21969604492188L512.4580688476562 234.09591674804688C512.9749755859375 233.5563507080078 513.5162353515625 233.02206420898438 514.0822143554688 232.49365234375L523.5179443359375 223.70297241210938C523.6483154296875 223.5787353515625 523.780029296875 223.454833984375 523.9130859375 223.3312530517578L532.9818725585938 214.93939208984375C533.3096923828125 214.61053466796875 533.646728515625 214.28375244140625 533.9930419921875 213.95913696289062L542.3070678710938 206.23159790039062C542.8242797851562 205.71266174316406 543.3646240234375 205.19924926757812 543.9287719726562 204.69186401367188L551.1904907226562 198.16525268554688L546.7994384765625 197.83645629882812C546.4967651367188 197.81375122070312 546.196533203125 197.78797912597656 545.898681640625 197.7591552734375L541.4098510742188 197.4573974609375L538.1212158203125 197.4223175048828L537.9075927734375 197.42002868652344L537.6239013671875 197.41700744628906C536.9600219726562 197.40899658203125 536.3067016601562 197.38552856445312 535.6639404296875 197.34706115722656C535.4352416992188 197.35044860839844 535.205322265625 197.35159301757812 534.9742431640625 197.3505096435547C527.1805419921875 198.91732788085938 519.431396484375 197.0745391845703 512.9683837890625 193.06390380859375C510.1135559082031 191.41737365722656 507.64276123046875 189.32814025878906 505.5686340332031 186.9237060546875C496.98797607421875 177.57437133789062 493.4189147949219 163.67324829101562 500.582275390625 150.94125366210938C503.4827880859375 144.5803680419922 508.5606384277344 139.1765899658203 515.9505615234375 136.09982299804688C522.3172607421875 132.84255981445312 528.9313354492188 132.20281982421875 535.0885620117188 133.4748077392578C536.1393432617188 133.55345153808594 537.1612548828125 133.6720733642578 538.154296875 133.82850646972656C538.235107421875 133.82901000976562 538.3161010742188 133.8297576904297 538.3972778320312 133.8307342529297L541.72900390625 133.9018096923828C542.8104248046875 133.8843994140625 543.9195556640625 133.9123077392578 545.0560913085938 133.988037109375L549.9562377929688 134.30715942382812C550.48388671875 134.32557678222656 551.0177001953125 134.35455322265625 551.5575561523438 134.39437866210938L556.9842529296875 134.80072021484375C557.3153686523438 134.82554626464844 557.6436157226562 134.8540802001953 557.9689331054688 134.88623046875L560.934814453125 135.10830688476562L568.203125 135.0671844482422C568.2515869140625 135.06565856933594 568.3001708984375 135.06423950195312 568.3487548828125 135.06288146972656L578.0421752929688 134.76231384277344C578.1749267578125 134.75701904296875 578.3081665039062 134.75234985351562 578.4418334960938 134.748291015625L586.0706176757812 134.55166625976562C586.2977905273438 134.54505920410156 586.5237426757812 134.54031372070312 586.7485961914062 134.53741455078125L596.7141723632812 134.2895050048828C596.9314575195312 134.28372192382812 597.147705078125 134.27964782714844 597.3628540039062 134.27725219726562L606.8596801757812 134.04046630859375C607.1729125976562 134.03396606445312 607.48388671875 134.03099060058594 607.7926635742188 134.031494140625L614.3370361328125 133.95712280273438C614.9883422851562 133.91693115234375 615.6505126953125 133.89210510253906 616.3235473632812 133.88316345214844L622.5759887695312 133.8307342529297C622.7819213867188 133.8282470703125 622.98681640625 133.8272705078125 623.1907348632812 133.8278045654297L629.176025390625 133.7895050048828C630.0169677734375 133.75868225097656 630.8751220703125 133.7552947998047 631.75048828125 133.78054809570312C632.742919921875 133.7930908203125 633.7117309570312 133.84120178222656 634.6569213867188 133.92315673828125L639.576904296875 134.1846466064453C640.4889526367188 134.23666381835938 641.379638671875 134.31707763671875 642.2490844726562 134.4246063232422L646.3274536132812 134.748291015625C647.5665893554688 134.8563232421875 648.7645874023438 135.0157012939453 649.9217529296875 135.22320556640625L649.9514770507812 135.22705078125C651.1439819335938 135.334716796875 652.3635864257812 135.50314331054688 653.6091918945312 135.7357635498047C654.533935546875 135.89505004882812 655.432861328125 136.08291625976562 656.30615234375 136.29791259765625L657.2537841796875 136.49972534179688L657.271484375 136.5032501220703L657.2958984375 136.50811767578125C657.5318603515625 136.55274963378906 657.7687377929688 136.59967041015625 658.006591796875 136.64892578125L658.0753784179688 136.67185974121094C658.1390991210938 136.68592834472656 658.2029418945312 136.70016479492188 658.2666015625 136.71453857421875C658.9190063476562 136.85415649414062 659.557861328125 137.0071563720703 660.1832275390625 137.17306518554688C660.5787353515625 137.27618408203125 660.9688720703125 137.3844451904297 661.3536987304688 137.49769592285156C662.1463623046875 137.6884765625 662.9478149414062 137.908203125 663.7576904296875 138.15785217285156C664.0205688476562 138.23548889160156 664.2809448242188 138.31527709960938 664.538818359375 138.39710998535156C665.1510620117188 138.57603454589844 665.7676391601562 138.77313232421875 666.388427734375 138.98887634277344L666.40869140625 138.9952392578125C668.1057739257812 139.56202697753906 669.6953735351562 140.21243286132812 671.180419921875 140.93728637695312C671.6508178710938 141.15591430664062 672.1112670898438 141.3811492919922 672.5618286132812 141.61276245117188C708.1307983398438 159.62672424316406 683.3836059570312 215.01666259765625 645.5338745117188 199.11557006835938C645.5276489257812 199.1130828857422 645.521240234375 199.11048889160156 645.5147705078125 199.10791015625L645.3658447265625 199.0487060546875L644.0283203125 198.69448852539062L642.5353393554688 198.39480590820312L639.415771484375 197.9625701904297L636.48681640625 197.70413208007812C636.3202514648438 197.69683837890625 636.1531372070312 197.68850708007812 635.9853515625 197.6791534423828L632.35791015625 197.4573516845703C631.92919921875 201.45526123046875 630.6322021484375 205.54147338867188 628.292236328125 209.56915283203125C627.2041625976562 211.46141052246094 625.8859252929688 213.340576171875 624.3193359375 215.19126892089844L624.0571899414062 215.4927520751953C623.8711547851562 215.71217346191406 623.6841430664062 215.92822265625 623.4961547851562 216.1409149169922L622.7857055664062 216.98704528808594C622.2828369140625 217.57484436035156 621.7730102539062 218.13815307617188 621.2568969726562 218.67747497558594L620.4310913085938 219.5966796875C620.2960205078125 219.7496795654297 620.1591796875 219.90237426757812 620.0205078125 220.05479431152344C619.9854736328125 220.09329223632812 619.9503784179688 220.13177490234375 619.9151000976562 220.1702423095703C619.6817016601562 220.42739868164062 619.44677734375 220.6798553466797 619.2106323242188 220.92735290527344L615.917236328125 224.45852661132812C615.4473876953125 224.95809936523438 614.9729614257812 225.43817138671875 614.4944458007812 225.8991241455078L610.0317993164062 230.44882202148438C609.4149780273438 231.07408142089844 608.7914428710938 231.66720581054688 608.1620483398438 232.22898864746094L605.4177856445312 234.8530731201172C604.7488403320312 235.4878387451172 604.0736694335938 236.08697509765625 603.393310546875 236.6514434814453L602.0991821289062 237.84536743164062C601.7024536132812 238.23190307617188 601.2926025390625 238.615234375 600.869384765625 238.9951629638672L594.9708251953125 244.2776336669922L586.7173461914062 251.69561767578125L577.4718627929688 260.4002990722656C577.0294799804688 260.81402587890625 576.58447265625 261.21234130859375 576.13720703125 261.59552001953125L567.1690673828125 269.9297180175781C567.0674438476562 270.0241394042969 566.9656372070312 270.1177978515625 566.8637084960938 270.2106018066406L558.62646484375 277.8846740722656C558.3271484375 278.1883544921875 558.0201416015625 278.4903869628906 557.7052001953125 278.7906494140625L547.8692626953125 288.159423828125L542.6442260742188 293.43212890625C542.5282592773438 293.5486755371094 542.412109375 293.6640930175781 542.2957153320312 293.7784118652344L538.69580078125 297.57635498046875C538.5164794921875 297.7814636230469 538.333984375 297.9861145019531 538.1482543945312 298.1902770996094L529.7985229492188 307.3526916503906C529.5286865234375 307.64923095703125 529.2571411132812 307.9391174316406 528.9840698242188 308.2224426269531L520.7279052734375 317.44573974609375C520.3504028320312 317.86474609375 519.9696044921875 318.2706298828125 519.5856323242188 318.6636047363281L509.66949462890625 329.69122314453125C509.35498046875 330.0632019042969 509.0301513671875 330.4337158203125 508.6948547363281 330.80267333984375L497.62835693359375 343.02239990234375C497.4156494140625 343.2710266113281 497.1983642578125 343.51904296875 496.9764099121094 343.766357421875L487.10955810546875 354.664794921875C486.7422790527344 355.0932312011719 486.3611145019531 355.51953125 485.9658203125 355.94354248046875L478.7958068847656 363.624755859375C478.6269226074219 363.8058776855469 478.45745849609375 363.9844665527344 478.2873840332031 364.1605529785156L469.4761047363281 373.4556579589844C469.1733093261719 373.7739562988281 468.8686828613281 374.0842590332031 468.5623474121094 374.3866271972656L461.33612060546875 382.1068420410156C461.16400146484375 382.2899169921875 460.99127197265625 382.47039794921875 460.81793212890625 382.64825439453125L453.759765625 390.1026611328125C453.25732421875 390.6312561035156 452.7498779296875 391.1378173828125 452.2378845214844 391.6227722167969L447.09130859375 396.7593078613281C446.86322021484375 396.99688720703125 446.6305236816406 397.2335510253906 446.3931579589844 397.4692687988281L442.2904052734375 401.5196228027344C441.9102783203125 401.8964538574219 441.52783203125 402.26129150390625 441.1432189941406 402.6143798828125L437.2176513671875 406.5399169921875C436.7265319824219 407.0227355957031 436.2315979003906 407.4856872558594 435.7332458496094 407.9292297363281L432.95751953125 410.61297607421875C432.7597961425781 410.80712890625 432.5588684082031 411.00054931640625 432.3546447753906 411.1932067871094L430.6427307128906 412.8113098144531C430.1913757324219 413.2679443359375 429.72222900390625 413.7205505371094 429.2349548339844 414.168701171875L425.6565246582031 417.4456787109375C425.18170166015625 417.8829650878906 424.7041320800781 418.302734375 424.22412109375 418.7053527832031L422.4383239746094 420.2919006347656C422.20477294921875 420.5030212402344 421.967041015625 420.7130126953125 421.7251281738281 420.92181396484375C421.6855773925781 420.9559326171875 421.64593505859375 420.99005126953125 421.6061706542969 421.02410888671875L421.55523681640625 421.0683898925781L418.8928527832031 423.383544921875C418.669677734375 423.57440185546875 418.4460144042969 423.7615966796875 418.22198486328125 423.9451904296875L417.708740234375 424.41033935546875L417.652587890625 424.46649169921875C416.2627868652344 426.5684814453125 414.5559387207031 428.54052734375 412.5112609863281 430.3294677734375C411.42376708984375 431.412353515625 410.2392272949219 432.4172668457031 408.9576721191406 433.3302917480469L408.74737548828125 435.56072998046875L408.7375793457031 435.6618347167969L408.4458923339844 440.4368591308594Q408.4163818359375 440.8719177246094 408.3783264160156 441.3003845214844L408.27398681640625 443.74664306640625C408.2751159667969 444.8023986816406 408.232666015625 445.88385009765625 408.1444091796875 446.9908142089844L407.8350524902344 450.5000305175781C407.8085021972656 451.01123046875 407.7718505859375 451.5280456542969 407.7249450683594 452.0504455566406L407.10888671875 459.0238342285156C407.0772399902344 459.3761901855469 407.04144287109375 459.7252197265625 407.0015563964844 460.0709228515625L406.5976867675781 465.9841003417969C406.5736389160156 466.3101806640625 406.5459899902344 466.6334533691406 406.51483154296875 466.9539489746094L406.2997741699219 471.2059326171875C406.2966613769531 472.12432861328125 406.2610168457031 473.0621337890625 406.1913146972656 474.01922607421875L405.70989990234375 480.19146728515625C405.70074462890625 480.3357238769531 405.6908264160156 480.4804382324219 405.68011474609375 480.6255798339844L405.0116271972656 489.9452819824219C404.9848937988281 490.3070983886719 404.9537658691406 490.6654968261719 404.91827392578125 491.02044677734375L404.4765319824219 498.031982421875C404.4694519042969 498.28857421875 404.4599304199219 498.5466613769531 404.4479675292969 498.80621337890625L404.06182861328125 507.036376953125C404.05987548828125 507.39654541015625 404.0531921386719 507.75970458984375 404.0416259765625 508.1258850097656L403.797607421875 515.0431518554688C403.8024597167969 515.4639892578125 403.80084228515625 515.8890380859375 403.7926025390625 516.3182983398438L403.5828552246094 525.0743408203125C403.5654602050781 525.9267578125 403.522705078125 526.761474609375 403.4556579589844 527.57861328125L403.0572204589844 535.4760131835938C403.0475769042969 535.7601928710938 403.034912109375 536.0462646484375 403.01922607421875 536.3340454101562L402.6040954589844 543.6895141601562C402.59881591796875 544.1856689453125 402.5843200683594 544.6875 402.5604553222656 545.1949462890625L402.1016845703125 554.4097900390625C402.07281494140625 555.019287109375 402.0312194824219 555.619384765625 401.97723388671875 556.2101440429688L401.3595886230469 564.6790161132812C401.324951171875 565.344970703125 401.2729187011719 566.0204467773438 401.2029113769531 566.7052001953125C401.1640625 567.1196899414062 401.1192932128906 567.529541015625 401.06878662109375 567.9347534179688L400.04937744140625 577.1925048828125L400.0437316894531 577.24365234375L398.9164733886719 587.5858154296875C398.86614990234375 588.0416259765625 398.8089599609375 588.4917602539062 398.7450866699219 588.9360961914062L398.38800048828125 592.7054443359375C398.35003662109375 593.4470825195312 398.2904968261719 594.2005004882812 398.2086486816406 594.9655151367188L397.17352294921875 604.5945434570312C397.1611328125 604.744384765625 397.14788818359375 604.8947143554688 397.1337890625 605.0454711914062L396.163818359375 615.3351440429688L396.1591491699219 615.3840942382812L395.60015869140625 622.505126953125C395.5963439941406 622.5541381835938 395.59246826171875 622.6031494140625 395.5885009765625 622.6520385742188L395.14727783203125 630.501953125C395.1429748535156 630.736328125 395.13665771484375 630.971923828125 395.1282958984375 631.2088012695312L394.8540344238281 639.8300170898438L395.00201416015625 646.0078125C395.0147399902344 646.1947021484375 395.0262451171875 646.3824462890625 395.0365295410156 646.5711669921875L395.427978515625 654.2610473632812C395.4331970214844 654.3453979492188 395.4381408691406 654.4298706054688 395.44287109375 654.5145874023438L395.7799987792969 660.120849609375L396.4653015136719 666.4951782226562C396.4951171875 666.7738037109375 396.52197265625 667.0508422851562 396.5458984375 667.3263549804688L397.0665283203125 672.356201171875C397.15875244140625 673.06005859375 397.232421875 673.7780151367188 397.2868957519531 674.510009765625C397.4117736816406 675.8621215820312 397.46661376953125 677.1771850585938 397.4556884765625 678.4547119140625L397.6449890136719 683.8499755859375C397.67022705078125 684.69189453125 397.6698913574219 685.517822265625 397.6449890136719 686.3276977539062V689.214111328125C397.6566162109375 689.7735595703125 397.6567077636719 690.3405151367188 397.6449890136719 690.9151000976562L397.5238952636719 696.6679077148438C397.5323486328125 697.5460205078125 397.5104064941406 698.442138671875 397.45672607421875 699.3558349609375C397.4136962890625 700.3421020507812 397.3362121582031 701.303955078125 397.2259521484375 702.2413940429688L396.9144592285156 705.9132080078125C396.8627014160156 706.9680786132812 396.76617431640625 708.0465087890625 396.6225891113281 709.1481323242188L395.9016418457031 714.7714233398438C395.8072509765625 715.49462890625 395.69580078125 716.2030029296875 395.5679016113281 716.896484375L394.8846435546875 721.4012451171875C394.8513488769531 721.6975708007812 394.81463623046875 721.99560546875 394.7743835449219 722.2953491210938L393.80438232421875 729.5701904296875C393.6648864746094 730.599609375 393.490966796875 731.5986938476562 393.28448486328125 732.5676879882812L392.4673767089844 737.3562622070312C392.39111328125 737.7973022460938 392.3087158203125 738.2324829101562 392.2202453613281 738.6618041992188L391.7379455566406 741.5164794921875C391.6189270019531 742.3712158203125 391.46923828125 743.2391357421875 391.2876892089844 744.1199340820312L390.677978515625 747.037841796875C390.6015625 747.4946899414062 390.5164794921875 747.9552001953125 390.4225769042969 748.4193115234375L389.34771728515625 753.63623046875C389.33355712890625 753.706298828125 389.3192443847656 753.7761840820312 389.3047790527344 753.845947265625L388.9185485839844 756.0039672851562C389.3475036621094 757.3200073242188 389.6887512207031 758.6905517578125 389.9334716796875 760.1134033203125C390.11749267578125 761.0679931640625 390.2552185058594 762.0438842773438 390.34375 763.0399780273438C390.6790771484375 765.7471313476562 390.63140869140625 768.568603515625 390.1372985839844 771.4658203125C389.56671142578125 777.0638427734375 387.38037109375 782.5895385742188 383.2021179199219 787.4427490234375C382.5891418457031 788.2327880859375 381.9455261230469 788.9793701171875 381.2743835449219 789.6829833984375C379.56243896484375 791.5633544921875 377.6846923828125 793.145263671875 375.6875 794.4451904296875C374.19091796875 795.4959106445312 372.642578125 796.3775634765625 371.05828857421875 797.099609375C368.56964111328125 798.2881469726562 365.894287109375 799.1361694335938 363.0697937011719 799.5692749023438C361.9017639160156 799.7547607421875 360.70916748046875 799.8690795898438 359.4949035644531 799.906982421875C354.9224548339844 800.275146484375 350.56561279296875 799.5354614257812 346.590576171875 797.9524536132812C342.5285949707031 796.5240478515625 338.6701965332031 794.1270141601562 335.28204345703125 790.6176147460938C335.015869140625 790.3667602539062 334.7532653808594 790.109619140625 334.49456787109375 789.8462524414062C329.34100341796875 784.9700927734375 326.520751953125 779.1006469726562 325.5990905761719 773.0430297851562C325.2233581542969 771.51220703125 324.97064208984375 770.003173828125 324.8322448730469 768.5205688476562C324.5630798339844 766.7550659179688 324.4249267578125 764.9019775390625 324.4315185546875 762.9620971679688C324.3463439941406 760.6137084960938 324.48114013671875 758.384765625 324.8109436035156 756.2783813476562C324.8528747558594 755.8340454101562 324.901611328125 755.39501953125 324.9570007324219 754.9613647460938L325.1453857421875 752.9677734375C325.2332763671875 752.1063232421875 325.3457946777344 751.26513671875 325.4818420410156 750.4441528320312L325.85321044921875 747.6459350585938C326.0174255371094 746.4340209960938 326.2294006347656 745.2642822265625 326.4861145019531 744.1361694335938L326.6658630371094 743.1271362304688C326.7682800292969 742.439697265625 326.89044189453125 741.7437744140625 327.0329284667969 741.0396118164062L327.8599853515625 737.0252685546875C327.9347229003906 736.5926513671875 328.01727294921875 736.1567993164062 328.1077575683594 735.7177734375L328.9910888671875 731.42724609375L329.59686279296875 727.8416748046875C329.65673828125 727.416259765625 329.7239685058594 726.9874877929688 329.7986755371094 726.555419921875L330.766357421875 721.0933837890625L330.7686462402344 721.0762939453125L331.7386474609375 713.8014526367188C331.84344482421875 713.0279541015625 331.96771240234375 712.2716064453125 332.1106262207031 711.5322875976562L332.8379211425781 706.74560546875C332.8470458984375 706.6726684570312 332.85638427734375 706.5996704101562 332.86590576171875 706.5265502929688L333.4930114746094 701.6351928710938L333.96221923828125 696.0946044921875L334.0936279296875 689.841064453125L334.0456237792969 684.8723754882812C334.0453796386719 684.6710205078125 334.0465393066406 684.4705810546875 334.0491638183594 684.2711181640625L333.8956298828125 679.6649169921875L333.31976318359375 673.99560546875C333.28875732421875 673.7473754882812 333.2597961425781 673.4974365234375 333.2329406738281 673.2457275390625L332.4071350097656 665.5120849609375C332.28167724609375 664.3259887695312 332.2098083496094 663.16796875 332.1887512207031 662.038330078125L331.9483642578125 658.0405883789062C331.9368591308594 657.829345703125 331.9269714355469 657.6190185546875 331.9187316894531 657.40966796875L331.6101379394531 651.3870239257812C331.5509033203125 650.6650390625 331.5104675292969 649.9292602539062 331.4895935058594 649.1796875L331.3243713378906 642.2815551757812C331.26068115234375 641.2254028320312 331.2398681640625 640.1410522460938 331.26434326171875 639.0287475585938C331.2684326171875 638.32666015625 331.29071044921875 637.63623046875 331.3305358886719 636.9574584960938L331.5944519042969 629.0066528320312C331.6197814941406 628.2830200195312 331.6632080078125 627.5723266601562 331.7241516113281 626.8746948242188L332.12255859375 619.0601196289062C332.1322326660156 618.8289184570312 332.1439208984375 618.5965576171875 332.1576843261719 618.363037109375L332.1617431640625 618.2955932617188C332.19097900390625 617.762939453125 332.22991943359375 617.237548828125 332.2783508300781 616.7194213867188L332.8134765625 609.8560791015625C332.8511657714844 609.370361328125 332.89678955078125 608.890869140625 332.9501953125 608.4176025390625L333.79656982421875 599.1076049804688C333.845458984375 598.5900268554688 333.90325927734375 598.0797119140625 333.9697570800781 597.5765991210938L334.8470764160156 589.4052124023438C334.8692321777344 589.1064453125 334.89483642578125 588.8058471679688 334.9238586425781 588.5033569335938L335.5044860839844 582.7972412109375C335.5441589355469 582.0840454101562 335.60382080078125 581.360107421875 335.6841125488281 580.62548828125L336.86383056640625 570.2833862304688L336.86956787109375 570.231201171875L337.9320373535156 560.58251953125L338.6174011230469 551.1500854492188L339.0135192871094 542.1670532226562C339.0447998046875 541.5196533203125 339.0904235839844 540.8828125 339.14996337890625 540.256591796875L339.52471923828125 532.8473510742188C339.5336608886719 532.6871948242188 339.5434875488281 532.5276489257812 339.5541687011719 532.3687744140625L340.0359191894531 522.81982421875C340.04364013671875 522.6715087890625 340.0520935058594 522.5237426757812 340.0613098144531 522.3765258789062L340.17279052734375 516.1694946289062C340.17059326171875 515.6785888671875 340.1773376464844 515.1820678710938 340.1932067871094 514.6798095703125L340.4516906738281 507.3414611816406C340.4544982910156 506.7886047363281 340.4687194824219 506.2286376953125 340.49468994140625 505.66162109375L340.8931579589844 497.44891357421875C340.9006652832031 496.7841491699219 340.9249572753906 496.10931396484375 340.9665832519531 495.42437744140625L341.47552490234375 487.1707763671875C341.491943359375 486.54876708984375 341.52313232421875 485.9181213378906 341.5695495605469 485.27886962890625L342.29046630859375 475.91986083984375C342.2986755371094 475.8087463378906 342.30731201171875 475.6979675292969 342.31634521484375 475.5874938964844L342.6824645996094 470.3257141113281C342.6868591308594 470.2244873046875 342.691650390625 470.1230163574219 342.6968078613281 470.0213317871094L343.0630187988281 463.8261413574219C343.0730285644531 463.02215576171875 343.1079406738281 462.20343017578125 343.168701171875 461.3701171875L343.6839599609375 454.491943359375C343.7075500488281 454.1094055175781 343.73675537109375 453.7237548828125 343.77166748046875 453.33502197265625L344.3877258300781 446.3747253417969C344.4190368652344 446.0258483886719 344.4544372558594 445.68023681640625 344.49383544921875 445.337890625L344.7403564453125 442.10699462890625L344.9513854980469 436.8977355957031C344.9798278808594 436.2458801269531 345.0229187011719 435.604736328125 345.0801696777344 434.9742736816406L345.3708190917969 430.396240234375C345.4284973144531 429.5423278808594 345.5108947753906 428.7073669433594 345.6169128417969 427.8913269042969L345.7789306640625 426.169677734375C345.8160705566406 425.6571044921875 345.86346435546875 425.13909912109375 345.9213562011719 424.61566162109375L346.29046630859375 421.40643310546875C346.3059997558594 421.22723388671875 346.3227844238281 421.04736328125 346.3407897949219 420.8668212890625L346.58984375 418.2961120605469V413.958984375L346.5729064941406 413.3323974609375C346.5685119628906 413.26129150390625 346.5643005371094 413.1900634765625 346.56024169921875 413.11871337890625C345.6382751464844 411.1596374511719 344.95965576171875 409.18011474609375 344.5040283203125 407.2005920410156C343.6014404296875 405.6385803222656 342.7961120605469 403.94439697265625 342.1025390625 402.114013671875C341.3101501464844 400.29058837890625 340.6960144042969 398.4889831542969 340.24664306640625 396.71649169921875C340.1410217285156 396.575439453125 340.0357971191406 396.4331359863281 339.9310607910156 396.2895812988281L337.6896057128906 393.2223205566406C337.4395751953125 392.8790283203125 337.1972351074219 392.5353698730469 336.9624328613281 392.1914978027344L335.3656005859375 390.0440673828125L333.48199462890625 387.63836669921875C333.14776611328125 387.2192077636719 332.82574462890625 386.7990417480469 332.51568603515625 386.3779602050781L329.5889587402344 382.6180725097656C329.0832214355469 381.9620361328125 328.6066589355469 381.303955078125 328.15850830078125 380.64447021484375L326.1353454589844 377.9605712890625C325.88604736328125 377.64532470703125 325.6390380859375 377.3233947753906 325.3944396972656 376.9947814941406L322.2747497558594 372.7347412109375L318.4751892089844 367.6430358886719L313.6969299316406 361.3199462890625L308.03961181640625 354.2001953125L308.0364685058594 354.1962585449219L302.6653747558594 347.9084167480469C302.6310119628906 347.8677673339844 302.5968017578125 347.82708740234375 302.56268310546875 347.7864074707031L298.4389953613281 343.1357727050781L298.40533447265625 343.09783935546875L298.3928527832031 343.083740234375L292.2867736816406 336.1828308105469L285.7169189453125 329.1641845703125C285.66815185546875 329.11199951171875 285.61962890625 329.05975341796875 285.5713195800781 329.0074768066406L278.7435302734375 321.79754638671875C278.5967712402344 321.6413879394531 278.4519348144531 321.48486328125 278.30902099609375 321.32806396484375L273.526611328125 316.42333984375C273.0601501464844 315.9455261230469 272.6123352050781 315.46417236328125 272.1828308105469 314.9797058105469L266.2420349121094 308.7904968261719L261.3362731933594 304.0757141113281C261.12255859375 303.8691711425781 260.91253662109375 303.661865234375 260.7061462402344 303.4537658691406L257.6081237792969 300.5439453125C257.2456970214844 300.22821044921875 256.8848571777344 299.9024963378906 256.52569580078125 299.5666198730469L251.87240600585938 295.17547607421875C251.30130004882812 294.64044189453125 250.75555419921875 294.0994567871094 250.23463439941406 293.5531311035156L247.87400817871094 291.2496032714844C247.28781127929688 290.72430419921875 246.70663452148438 290.17181396484375 246.1311492919922 289.5915222167969L238.30575561523438 281.7005920410156C237.81314086914062 281.2030029296875 237.34100341796875 280.701416015625 236.888916015625 280.19622802734375L230.2575225830078 273.2066955566406C230.20584106445312 273.1519775390625 230.1543731689453 273.09722900390625 230.10316467285156 273.0424499511719L224.203369140625 267.0474853515625C223.84666442871094 266.7036437988281 223.4921417236328 266.34930419921875 223.13995361328125 265.9842529296875L217.76573181152344 260.4527282714844C217.31381225585938 259.98345947265625 216.87965393066406 259.510986328125 216.46292114257812 259.0356140136719L211.3305206298828 253.6018829345703C210.87564086914062 253.13800048828125 210.42523193359375 252.65597534179688 209.9796600341797 252.15545654296875C209.90167236328125 252.06898498535156 209.8242645263672 251.98240661621094 209.7474365234375 251.89573669433594L205.22149658203125 246.8336639404297C204.71234130859375 246.26051330566406 204.22793579101562 245.6839141845703 203.76771545410156 245.10435485839844L200.85682678222656 241.60049438476562C200.57427978515625 241.27078247070312 200.2942352294922 240.93312072753906 200.01681518554688 240.58741760253906C199.7128448486328 240.2149658203125 199.41876220703125 239.84149169921875 199.1343994140625 239.4670867919922L197.09791564941406 236.87278747558594C196.8499298095703 236.56431579589844 196.60411071777344 236.2493896484375 196.36058044433594 235.92791748046875L193.2933349609375 231.87757873535156C192.9419403076172 231.4137420654297 192.6049346923828 230.94903564453125 192.2820281982422 230.48365783691406L187.7093963623047 224.35366821289062C187.43063354492188 223.9785614013672 187.16114807128906 223.6029815673828 186.90078735351562 223.22705078125L183.07711791992188 218.06044006347656C182.6519012451172 217.51722717285156 182.2340087890625 216.9541778564453 181.82395935058594 216.3709716796875L177.0646514892578 209.58746337890625L173.88995361328125 205.3050537109375L169.227294921875 199.31764221191406C168.6245574951172 198.54144287109375 168.06277465820312 197.76226806640625 167.5406951904297 196.98110961914062L165.02880859375 193.4801788330078C164.82305908203125 193.2111053466797 164.61900329589844 192.9373321533203 164.41671752929688 192.65884399414062L160.2615203857422 186.9307098388672C159.53684997558594 185.93362426757812 158.87672424316406 184.93394470214844 158.2786102294922 183.93348693847656L157.60519409179688 182.89942932128906C157.3466796875 182.52566528320312 157.09169006347656 182.14358520507812 156.84036254882812 181.7530975341797L154.52552795410156 178.13551330566406C154.37396240234375 177.9111785888672 154.22364807128906 177.6839141845703 154.07460021972656 177.45372009277344L152.310302734375 174.7420654296875ZM47.55611801147461 192.1958770751953C46.556949615478516 191.0070037841797 45.6716423034668 189.79034423828125 44.89472198486328 188.5526123046875C26.76210594177246 160.5804443359375 62.84388732910156 125.50196075439453 90.47847747802734 145.94207763671875C92.1097640991211 146.57936096191406 93.75505828857422 147.36412048339844 95.40794372558594 148.30679321289062C96.64373016357422 148.96463012695312 97.80382537841797 149.6686248779297 98.89026641845703 150.4138641357422C99.34647369384766 150.69000244140625 99.80268096923828 150.97885131835938 100.25873565673828 151.2806854248047C102.01768493652344 152.31324768066406 103.7566146850586 153.5513153076172 105.4612045288086 155.00999450683594C106.93450164794922 156.18629455566406 108.25813293457031 157.41812133789062 109.43931579589844 158.69496154785156C110.16117858886719 159.34365844726562 110.87479400634766 160.0340576171875 111.57889556884766 160.7674102783203L113.80801391601562 163.1170196533203C114.84607696533203 164.09776306152344 115.86101531982422 165.1702117919922 116.84825897216797 166.33824157714844L119.56269073486328 169.56224060058594C119.98626708984375 170.0417938232422 120.40398406982422 170.5390625 120.81543731689453 171.05433654785156C121.59587097167969 172.0029754638672 122.31185150146484 172.9586181640625 122.96578979492188 173.9192352294922L123.95780181884766 175.26441955566406C124.64546966552734 176.1296844482422 125.3130111694336 177.0468292236328 125.9582290649414 178.01736450195312L129.49734497070312 183.28672790527344C129.7327880859375 183.64154052734375 129.96054077148438 183.99635314941406 130.18069458007812 184.35105895996094L132.5419158935547 187.89288330078125C132.61962890625 187.99530029296875 132.6970977783203 188.09840393066406 132.77432250976562 188.20216369628906L136.75210571289062 193.63739013671875C137.1542510986328 194.14984130859375 137.5499725341797 194.67994689941406 137.93881225585938 195.2279815673828L142.04812622070312 201.0083465576172C142.5878143310547 201.7095184326172 143.1146697998047 202.44338989257812 143.62762451171875 203.21067810058594L146.62135314941406 207.74920654296875C146.76922607421875 207.9552764892578 146.91607666015625 208.16392517089844 147.0618896484375 208.37518310546875L152.48855590820312 216.26611328125Q152.52182006835938 216.3144073486328 152.5548858642578 216.36270141601562L157.06283569335938 222.37008666992188C157.45346069335938 222.86183166503906 157.83819580078125 223.37002563476562 158.21669006347656 223.8948974609375L164.0496826171875 231.98245239257812C164.37387084960938 232.43179321289062 164.68499755859375 232.88162231445312 164.9832763671875 233.33175659179688L169.3845977783203 239.66366577148438C169.72088623046875 240.1483154296875 170.04237365722656 240.63323974609375 170.34934997558594 241.1182403564453L174.22813415527344 246.9414520263672C174.25213623046875 246.97535705566406 174.27610778808594 247.0093536376953 174.300048828125 247.04339599609375L180.3427734375 255.5897216796875C180.67124938964844 256.0570983886719 180.98585510253906 256.5247802734375 181.28684997558594 256.99267578125L186.6726531982422 264.9062805175781L190.8290557861328 270.7424011230469L190.85621643066406 270.7803649902344L196.46206665039062 278.3594970703125L201.6559295654297 284.6544494628906C201.7523651123047 284.76129150390625 201.8485565185547 284.8689880371094 201.9445343017578 284.9775695800781L206.1964569091797 289.8465270996094C206.3834686279297 290.0467224121094 206.56971740722656 290.2500915527344 206.755126953125 290.4566345214844L213.8202667236328 298.295166015625C213.92071533203125 298.4071960449219 214.02020263671875 298.5193786621094 214.11874389648438 298.6316833496094L220.7412109375 305.8190612792969C220.93817138671875 306.0333251953125 221.13157653808594 306.2481384277344 221.3214569091797 306.4635009765625L227.54420471191406 313.04150390625C227.6273956298828 313.129638671875 227.70997619628906 313.2178955078125 227.79193115234375 313.3062438964844L231.34068298339844 317.0260009765625C231.4605255126953 317.147216796875 231.58009338378906 317.2696533203125 231.69940185546875 317.393310546875L235.07516479492188 320.9073486328125C235.27896118164062 321.1131286621094 235.4819793701172 321.3224792480469 235.68418884277344 321.535400390625L238.5718994140625 324.5807800292969C238.98019409179688 324.9845275878906 239.3852996826172 325.4024353027344 239.7869415283203 325.83477783203125L243.67999267578125 330.04241943359375C244.0335693359375 330.42364501953125 244.3758087158203 330.8067321777344 244.7068634033203 331.19146728515625L249.06533813476562 335.9417419433594L253.77182006835938 340.6883544921875C254.06182861328125 340.9561462402344 254.3506317138672 341.2305908203125 254.63816833496094 341.51177978515625L258.3248596191406 345.1540832519531C258.755126953125 345.5631408691406 259.18231201171875 345.9874267578125 259.6060485839844 346.42724609375L259.6349792480469 346.45721435546875L259.9848327636719 346.81988525390625L264.0996398925781 351.0852355957031C264.17041015625 351.1531677246094 264.2411193847656 351.22149658203125 264.311767578125 351.2902526855469L269.08843994140625 355.96612548828125L272.0968322753906 358.81903076171875C272.6476135253906 359.3048095703125 273.19427490234375 359.8142395019531 273.736328125 360.3478088378906L276.96087646484375 363.5198974609375C277.773681640625 364.3217468261719 278.53216552734375 365.1348876953125 279.23809814453125 365.9575500488281L280.44281005859375 367.2463073730469L280.69659423828125 367.5177917480469C280.9933776855469 367.8355407714844 281.2822265625 368.1545715332031 281.563232421875 368.474853515625L283.0906982421875 370.1657409667969C283.33319091796875 370.4267272949219 283.57403564453125 370.6932678222656 283.8130798339844 370.96539306640625L284.0260009765625 371.20111083984375C285.00830078125 372.3050537109375 285.8985595703125 373.4219665527344 286.7008056640625 374.54827880859375L286.7520751953125 374.6136779785156C287.2216796875 375.17889404296875 287.682373046875 375.7674560546875 288.1334533691406 376.3798522949219C289.16131591796875 377.7264099121094 290.066650390625 379.08154296875 290.85589599609375 380.4401550292969C291.0660095214844 380.760986328125 291.27349853515625 381.0876770019531 291.478271484375 381.4202575683594L291.49749755859375 381.45147705078125L291.5264587402344 381.4974060058594L292.0828552246094 382.37994384765625C292.62030029296875 383.1673278808594 293.13824462890625 383.9926452636719 293.635009765625 384.8567810058594C294.49884033203125 386.2985534667969 295.2413330078125 387.7354736328125 295.8695068359375 389.16339111328125L295.9017333984375 389.22442626953125L297.2911682128906 391.88531494140625C297.3105773925781 391.9222412109375 297.32989501953125 391.9591369628906 297.3491516113281 391.9960021972656C298.7958984375 394.1343078613281 300.04449462890625 396.5553283691406 301.04852294921875 399.2715148925781C302.15545654296875 401.8873596191406 302.8974609375 404.4567565917969 303.3143310546875 406.9584655761719C303.3885498046875 407.22283935546875 303.46063232421875 407.4896545410156 303.530517578125 407.7589416503906L303.57855224609375 407.9579162597656C303.6850280761719 408.3688049316406 303.7841491699219 408.7772216796875 303.8760070800781 409.18316650390625C303.9908752441406 409.6203308105469 304.0996398925781 410.06414794921875 304.2020568847656 410.5145568847656C304.3559265136719 411.09857177734375 304.4981384277344 411.69451904296875 304.6282043457031 412.3022766113281L304.65777587890625 412.42535400390625C304.7572326660156 412.87451171875 304.84832763671875 413.3204040527344 304.93115234375 413.762939453125C305.0050354003906 414.0847473144531 305.0745849609375 414.4098205566406 305.1398010253906 414.73822021484375C312.0762023925781 422.96258544921875 314.17205810546875 434.7028503417969 311.4273681640625 445.0519104003906L311.473876953125 445.2474670410156C311.5319519042969 445.50103759765625 311.5873718261719 445.7536315917969 311.64007568359375 446.0051574707031C311.9735107421875 447.1719665527344 312.2601013183594 448.38726806640625 312.49627685546875 449.6517028808594L312.8893737792969 451.8680419921875C313.0481262207031 452.6102294921875 313.1882629394531 453.3700866699219 313.3089904785156 454.147705078125L313.4363708496094 455.0575256347656C313.64556884765625 456.1831970214844 313.8094482421875 457.347900390625 313.925048828125 458.55194091796875L314.15386962890625 461.0011901855469C314.2571105957031 461.855224609375 314.33416748046875 462.729736328125 314.3838195800781 463.62469482421875L314.3912353515625 463.76617431640625C314.4057312011719 464.0026550292969 314.4180908203125 464.2379455566406 314.42828369140625 464.4720764160156L314.5166931152344 466.1575622558594C314.580078125 466.9020690917969 314.6234436035156 467.6612854003906 314.6459655761719 468.4352722167969L314.7508544921875 472.64288330078125C314.760009765625 472.9603271484375 314.7655334472656 473.27545166015625 314.7674255371094 473.58831787109375L314.7676086425781 473.59539794921875L314.7677307128906 473.5993957519531C314.83135986328125 474.5522155761719 314.8580322265625 475.5278015136719 314.8458251953125 476.52581787109375C314.8659973144531 478.5823669433594 314.7341003417969 480.5408020019531 314.4648742675781 482.4008483886719L314.3313903808594 484.0598449707031C314.26214599609375 484.865234375 314.17120361328125 485.6532897949219 314.0594177246094 486.424072265625L313.746826171875 489.2062072753906L313.34063720703125 493.6860046386719L313.0947570800781 497.310302734375C313.0856018066406 497.5671691894531 313.0740051269531 497.8254699707031 313.0599365234375 498.08526611328125L312.8501892089844 501.8734436035156C312.7810974121094 503.113525390625 312.6596374511719 504.3143005371094 312.4889221191406 505.4759521484375L312.1584777832031 508.65740966796875L312.1292724609375 508.9385681152344C312.1128845214844 509.0921936035156 312.095703125 509.24517822265625 312.0777587890625 509.3974914550781L312.0384521484375 509.72039794921875L311.473876953125 514.4700927734375C311.4381408691406 514.7665405273438 311.3995361328125 515.060546875 311.35809326171875 515.3521118164062L311.0270080566406 518.7731323242188L310.8241271972656 521.8071899414062C310.8185119628906 521.93896484375 310.8122863769531 522.0711669921875 310.8053894042969 522.2037353515625L310.6334228515625 525.1270751953125L310.7919006347656 528.0984497070312L310.97406005859375 530.0501098632812C311.0767517089844 530.8765869140625 311.15374755859375 531.72216796875 311.203857421875 532.5867309570312C311.2886962890625 533.7329711914062 311.3237609863281 534.8517456054688 311.3116455078125 535.9428100585938L311.3226623535156 536.3623657226562C311.3741760253906 537.2938842773438 311.392822265625 538.2473754882812 311.3770751953125 539.222412109375C311.37359619140625 539.822998046875 311.35699462890625 540.4150390625 311.3276062011719 540.99853515625L311.2406311035156 543.9122314453125C311.2388000488281 544.369873046875 311.2292175292969 544.8323974609375 311.21173095703125 545.2998046875L310.9626770019531 550.9755249023438L310.79266357421875 555.5867919921875C310.7845764160156 555.943115234375 310.77154541015625 556.3023071289062 310.75347900390625 556.664306640625L310.75128173828125 556.707763671875C310.71240234375 557.7181396484375 310.6381530761719 558.7032470703125 310.53033447265625 559.6629028320312L310.41064453125 561.1525268554688C310.37255859375 561.8313598632812 310.3164367675781 562.5199584960938 310.2417297363281 563.21826171875L309.83538818359375 566.9539794921875C309.7850036621094 567.4248657226562 309.727294921875 567.8896484375 309.66241455078125 568.348388671875L309.60467529296875 568.8969116210938C309.5403137207031 569.7185668945312 309.44830322265625 570.5537109375 309.32757568359375 571.4022216796875C309.2187805175781 572.2216796875 309.0876770019531 573.0219116210938 308.9351501464844 573.8031616210938C308.791259765625 574.8773193359375 308.5972595214844 575.9718017578125 308.3507080078125 577.0859375C308.18463134765625 577.9073486328125 307.99609375 578.7074584960938 307.7861633300781 579.4863891601562L307.2154541015625 581.892333984375C307.138427734375 582.2846069335938 307.0549011230469 582.6793212890625 306.96478271484375 583.07666015625L305.7850646972656 588.2542724609375C305.7713623046875 588.3142700195312 305.757568359375 588.3742065429688 305.74365234375 588.4339599609375L305.0116882324219 592.3963623046875C304.93505859375 592.8067626953125 304.8531494140625 593.2119750976562 304.7659912109375 593.6119995117188L303.740234375 598.9503173828125C303.7108154296875 599.1005249023438 303.68072509765625 599.25 303.64990234375 599.3988037109375L302.94244384765625 603.5897827148438C302.87896728515625 603.9953002929688 302.8087158203125 604.40380859375 302.7315979003906 604.815185546875C302.72705078125 604.8395385742188 302.7224426269531 604.8638305664062 302.7181091308594 604.8882446289062Q302.6435852050781 605.2904052734375 302.56219482421875 605.68603515625L301.97705078125 608.6859741210938C301.96636962890625 608.7525634765625 301.95550537109375 608.8192749023438 301.9444580078125 608.8860473632812L301.01800537109375 614.4447021484375C300.94384765625 614.9424438476562 300.8594970703125 615.4446411132812 300.7647399902344 615.9512329101562L299.6319274902344 621.9774169921875C299.61663818359375 622.0701904296875 299.60101318359375 622.1630249023438 299.5850524902344 622.256103515625L298.571533203125 628.0071411132812L298.047607421875 631.912841796875L297.5498352050781 636.5667114257812L297.30413818359375 640.8342895507812C297.3005065917969 640.9722290039062 297.2961730957031 641.110595703125 297.2911682128906 641.2493896484375L297.0814514160156 646.7809448242188C297.0730895996094 647.0119018554688 297.0628662109375 647.2415161132812 297.05084228515625 647.4697875976562L296.9765625 650.2545166015625V667.6224365234375L297.0232238769531 671.7183227539062L297.0287780761719 672.2232666015625L297.02899169921875 672.2756958007812V676.8897094726562L297.0289611816406 676.9246826171875L297.02899169921875 676.942138671875V681.1890869140625L297.0289611816406 681.2240600585938L297.02899169921875 681.2415161132812V685.3311767578125L297.05645751953125 686.86083984375C297.072509765625 687.320068359375 297.08087158203125 687.7845458984375 297.0814514160156 688.2542114257812V691.6670532226562L297.12677001953125 692.6221923828125L297.138916015625 692.7332763671875C297.3351135253906 693.9835815429688 297.4711608886719 695.2797241210938 297.5426940917969 696.6213989257812C297.6339416503906 697.8212280273438 297.66888427734375 698.9913940429688 297.6506042480469 700.1315307617188L297.6767578125 701.1025390625L297.7265319824219 701.7713623046875C297.8750915527344 702.9959716796875 297.9652099609375 704.2620849609375 297.9928894042969 705.5697021484375C298.0513610839844 706.8715209960938 298.0450134277344 708.136474609375 297.9778137207031 709.3641967773438C297.99188232421875 710.1638793945312 297.98175048828125 710.9788208007812 297.9465637207031 711.8090209960938L297.85479736328125 714.1029052734375C297.8318786621094 714.6434326171875 297.7989196777344 715.1765747070312 297.7561340332031 715.7024536132812L297.697509765625 716.8162841796875C297.66668701171875 717.287841796875 297.6282958984375 717.753662109375 297.5825500488281 718.2136840820312L297.5484924316406 718.8609619140625C297.5107116699219 719.9930419921875 297.41815185546875 721.1519775390625 297.26763916015625 722.3370971679688C297.08868408203125 724.1503295898438 296.7951354980469 725.874267578125 296.39776611328125 727.5093383789062C296.3528747558594 727.75390625 296.3055114746094 727.9996337890625 296.2556457519531 728.246337890625L296.0469970703125 729.2656860351562C296.0015869140625 729.5363159179688 295.95318603515625 729.8082275390625 295.9017333984375 730.0814208984375L295.8893127441406 730.148193359375C296.19268798828125 731.0739135742188 296.4516906738281 732.0252685546875 296.6632080078125 733.0014038085938C297.2347412109375 735.1759643554688 297.53350830078125 737.3643798828125 297.5859069824219 739.53662109375C298.32763671875 740.8277587890625 298.9783630371094 742.196533203125 299.52630615234375 743.6417236328125C300.72222900390625 745.89501953125 301.6429748535156 748.365966796875 302.2293701171875 751.0455322265625C313.3226013183594 778.765380859375 277.3152770996094 809.4148559570312 251.143798828125 786.057373046875C245.54739379882812 782.04296875 241.23550415039062 776.2973022460938 239.47454833984375 769.1697998046875C239.2588348388672 768.4561767578125 239.07298278808594 767.7415771484375 238.91604614257812 767.0271606445312C237.02427673339844 763.3160400390625 236.02064514160156 759.5263061523438 235.76510620117188 755.7952880859375C235.68307495117188 755.0985717773438 235.62608337402344 754.4076538085938 235.59326171875 753.7230834960938C235.08642578125 752.5519409179688 234.65341186523438 751.3339233398438 234.30160522460938 750.0709838867188C233.29322814941406 746.9802856445312 232.85289001464844 743.846923828125 232.90403747558594 740.7581787109375C232.46971130371094 738.6091918945312 232.22702026367188 736.3189086914062 232.20155334472656 733.8881225585938C232.1977996826172 733.8058471679688 232.19430541992188 733.7235717773438 232.19110107421875 733.6414794921875C232.07244873046875 732.2599487304688 232.0323944091797 730.829345703125 232.07699584960938 729.3504638671875C232.06253051757812 727.3409423828125 232.2054443359375 725.4237060546875 232.49021911621094 723.60009765625C232.67161560058594 721.907958984375 232.9506072998047 720.2947387695312 233.31863403320312 718.7596435546875C233.36978149414062 718.4758911132812 233.4242401123047 718.1907348632812 233.48207092285156 717.9042358398438L233.94024658203125 715.7151489257812L234.06565856933594 715.0297241210938C234.07542419433594 714.8612060546875 234.08624267578125 714.692138671875 234.09812927246094 714.5223999023438L234.25543212890625 712.516845703125C234.263916015625 712.3963012695312 234.2729034423828 712.2760009765625 234.28236389160156 712.15625C234.28848266601562 711.9021606445312 234.29696655273438 711.6466064453125 234.307861328125 711.3895874023438L234.4127197265625 709.095703125C234.4185028076172 708.9581909179688 234.42494201660156 708.8211669921875 234.43202209472656 708.6846313476562L234.44277954101562 707.8856201171875L234.39186096191406 707.3046875C234.25411987304688 706.20166015625 234.16200256347656 705.0645751953125 234.11830139160156 703.893310546875C234.0697784423828 702.9614868164062 234.05433654785156 702.04833984375 234.07052612304688 701.154052734375L234.06626892089844 700.8392333984375C233.98812866210938 700.3079833984375 233.92039489746094 699.7685546875 233.86337280273438 699.2208862304688L233.84909057617188 699.1075439453125C233.68878173828125 697.7200317382812 233.60235595703125 696.3701782226562 233.58529663085938 695.0586547851562C233.51702880859375 694.111572265625 233.48207092285156 693.1410522460938 233.48207092285156 692.1472778320312V681.3856811523438L233.48143005371094 681.333251953125L233.43978881835938 677.9193115234375Q233.43109130859375 677.531494140625 233.42962646484375 677.1387329101562V667.9238891601562L233.39715576171875 665.1317749023438C233.3935089111328 664.9361572265625 233.39122009277344 664.7395629882812 233.3903045654297 664.5420532226562V660.1378173828125C233.39039611816406 660.10986328125 233.39036560058594 660.0819091796875 233.39031982421875 660.053955078125L233.3903045654297 660.032958984375V655.493408203125C233.38876342773438 655.2861328125 233.3887481689453 655.0778198242188 233.3903045654297 654.8684692382812L233.42247009277344 650.3427124023438C233.4156036376953 649.843017578125 233.4179229736328 649.33740234375 233.42962646484375 648.8257446289062L233.50723266601562 645.9059448242188C233.50799560546875 645.4337768554688 233.5170135498047 644.9564819335938 233.5345001220703 644.4739379882812L233.7442169189453 638.8899536132812C233.77073669433594 638.15771484375 233.81582641601562 637.4388427734375 233.8787841796875 636.7332763671875L234.06939697265625 633.4010620117188C234.09237670898438 632.7437744140625 234.13229370117188 632.0770263671875 234.189697265625 631.4011840820312C234.23277282714844 630.8218383789062 234.28738403320312 630.2513427734375 234.35321044921875 629.6896362304688L234.76663208007812 625.42822265625C234.8684539794922 624.4290161132812 235.00331115722656 623.45703125 235.1695556640625 622.51220703125L235.68418884277344 618.874267578125C235.7791748046875 618.1920776367188 235.88925170898438 617.5233764648438 236.01385498046875 616.867919921875L236.91632080078125 611.4420776367188C237.04347229003906 610.7022094726562 237.1880645751953 609.978759765625 237.34942626953125 609.2717895507812L238.01535034179688 605.7994384765625C238.0564422607422 605.5146484375 238.10079956054688 605.2283935546875 238.14846801757812 604.9406127929688L239.2233123779297 598.5439453125C239.3389434814453 597.8438110351562 239.47023010253906 597.1582641601562 239.61654663085938 596.4872436523438L240.0477752685547 594.1416625976562C240.07737731933594 593.9537963867188 240.1083984375 593.7652587890625 240.14085388183594 593.5761108398438L240.98851013183594 588.7279663085938C241.08181762695312 588.0838012695312 241.1923370361328 587.43212890625 241.32057189941406 586.7730712890625L242.55270385742188 580.4682006835938C242.6378631591797 580.0326538085938 242.72897338867188 579.6029663085938 242.82586669921875 579.17919921875L243.52268981933594 575.3561401367188C243.70541381835938 574.379150390625 243.9182891845703 573.4314575195312 244.15968322753906 572.5128784179688L244.569580078125 570.6936645507812C244.69461059570312 570.0182495117188 244.8391876220703 569.3352661132812 245.00387573242188 568.6448974609375L246.13743591308594 564.0465087890625L246.2650604248047 563.2152709960938L246.48800659179688 561.2806396484375C246.5169219970703 560.9198608398438 246.55087280273438 560.5564575195312 246.58993530273438 560.1903686523438L247.00938415527344 556.45458984375L247.0145263671875 556.4066162109375L247.3108673095703 552.7188720703125L247.3181610107422 552.6361083984375L247.4522705078125 549.006591796875C247.4566192626953 548.846435546875 247.4619140625 548.6856689453125 247.46815490722656 548.5243530273438L247.66477966308594 542.887939453125C247.6688232421875 542.7831420898438 247.6732635498047 542.6786499023438 247.67807006835938 542.5744018554688L247.75790405273438 538.5620727539062L247.7310028076172 536.5169067382812L247.5576934814453 534.4204711914062C247.44281005859375 533.4796752929688 247.3599853515625 532.5139770507812 247.3108673095703 531.5234375L247.1973876953125 529.2838134765625C247.05032348632812 527.8474731445312 246.9860382080078 526.3563842773438 247.01112365722656 524.81103515625C247.00225830078125 523.3828735351562 247.0699462890625 522.0018920898438 247.20889282226562 520.6682739257812L247.3108673095703 518.8218994140625C247.33895874023438 518.2821655273438 247.37704467773438 517.7498779296875 247.42483520507812 517.2249755859375L247.5568389892578 515.2335205078125C247.58688354492188 514.4632568359375 247.6400604248047 513.6800537109375 247.7172088623047 512.884033203125L248.22840881347656 507.61468505859375C248.3102264404297 506.78387451171875 248.41494750976562 505.9717712402344 248.54161071777344 505.1783447265625L248.87754821777344 502.4122009277344C248.8838653564453 502.3506774902344 248.8903045654297 502.2890319824219 248.89691162109375 502.22735595703125L249.42404174804688 497.1522521972656L249.46827697753906 496.3531799316406C249.47927856445312 495.61041259765625 249.51141357421875 494.8551330566406 249.56541442871094 494.0873718261719L249.91317749023438 489.6673583984375C249.9411163330078 489.1838684082031 249.97805786132812 488.69537353515625 250.02420043945312 488.2019348144531L250.38865661621094 484.13043212890625C250.42640686035156 483.59722900390625 250.4752197265625 483.05810546875 250.535400390625 482.51312255859375L251.04660034179688 477.8598327636719C251.05734252929688 477.76287841796875 251.06838989257812 477.6661376953125 251.07974243164062 477.5697021484375L251.2303466796875 475.69793701171875L251.21670532226562 474.858642578125C251.21188354492188 474.732177734375 251.20761108398438 474.60528564453125 251.2039031982422 474.4779968261719L251.10179138183594 470.39349365234375L250.92247009277344 467.6678161621094L250.72511291503906 465.55535888671875L250.5876007080078 464.5780334472656L250.03941345214844 461.67584228515625L250.0232696533203 461.6096496582031C249.81912231445312 460.90106201171875 249.63131713867188 460.17462158203125 249.46055603027344 459.43017578125L249.30873107910156 458.7187805175781C249.03921508789062 457.6582336425781 248.80865478515625 456.5594482421875 248.61959838867188 455.4219970703125C248.56690979003906 455.131591796875 248.51779174804688 454.842529296875 248.4722137451172 454.5549011230469L248.1759796142578 452.82379150390625C248.16131591796875 452.73358154296875 248.14697265625 452.6435546875 248.13294982910156 452.55364990234375L248.084228515625 452.3125915527344L248.06578063964844 452.2126159667969C247.98829650878906 451.83941650390625 247.91546630859375 451.4617919921875 247.84739685058594 451.0797119140625C247.6431121826172 450.11614990234375 247.4750213623047 449.1230163574219 247.34527587890625 448.1003723144531C247.32711791992188 447.9877624511719 247.3095245361328 447.8747863769531 247.29248046875 447.7614440917969C237.9808349609375 439.2536926269531 235.96090698242188 427.65289306640625 238.82693481445312 417.294677734375L238.42739868164062 416.48468017578125L237.32266235351562 414.7323303222656C237.22813415527344 414.5781555175781 237.13499450683594 414.4240417480469 237.04322814941406 414.2699890136719L237.0082550048828 414.2170715332031L235.68310546875 412.5268249511719L233.7442169189453 410.3805236816406C233.62770080566406 410.24981689453125 233.51248168945312 410.1189270019531 233.39854431152344 409.9878845214844L231.74241638183594 408.24102783203125L229.07781982421875 405.66168212890625C228.9543914794922 405.5399169921875 228.8322296142578 405.41790771484375 228.7113037109375 405.2956237792969L225.23721313476562 402.03082275390625C224.80201721191406 401.6193542480469 224.38169860839844 401.2044677734375 223.9760284423828 400.7864074707031L220.9078826904297 397.7749328613281C220.3489227294922 397.25732421875 219.79507446289062 396.7143249511719 219.24691772460938 396.1453857421875L214.16688537597656 390.8670959472656L210.0845184326172 386.9305419921875C209.46469116210938 386.3219909667969 208.87625122070312 385.7068786621094 208.3184051513672 385.0859680175781L205.0984649658203 381.83856201171875C204.31069946289062 381.1100769042969 203.5340576171875 380.33056640625 202.77032470703125 379.4983825683594L197.77877807617188 374.03253173828125C197.5452423095703 373.7925720214844 197.31280517578125 373.5478515625 197.08151245117188 373.2983703613281L193.1884765625 369.1038513183594C193.05825805664062 368.96343994140625 192.92958068847656 368.82281494140625 192.8024444580078 368.6819152832031L190.82803344726562 366.59820556640625C190.4678192138672 366.2513732910156 190.10983276367188 365.8938293457031 189.75421142578125 365.525390625L186.18287658691406 361.7972106933594Q185.97560119628906 361.586181640625 185.76942443847656 361.3702087402344L182.65139770507812 358.0715637207031C182.20143127441406 357.6370544433594 181.75509643554688 357.1855773925781 181.312744140625 356.7169189453125L174.9462127685547 349.94000244140625C174.6061248779297 349.5961608886719 174.2683563232422 349.2423400878906 173.9330291748047 348.87841796875L167.65185546875 342.0105285644531C167.2693328857422 341.616943359375 166.88995361328125 341.21044921875 166.5139617919922 340.7908630371094L160.3832244873047 333.94354248046875C160.0162353515625 333.5596923828125 159.6522674560547 333.163818359375 159.29153442382812 332.7557373046875L155.00448608398438 327.8978271484375C154.54205322265625 327.39501953125 154.0852508544922 326.8722839355469 153.634521484375 326.3291931152344L153.61582946777344 326.3066711425781C153.43988037109375 326.09796142578125 153.26730346679688 325.8886413574219 153.09791564941406 325.678955078125L148.56793212890625 320.1885986328125C147.66326904296875 319.2011413574219 146.7841796875 318.1348876953125 145.9346160888672 316.9869689941406L140.08840942382812 309.0191345214844C139.76075744628906 308.5978088378906 139.4373779296875 308.1647033691406 139.1185302734375 307.7196960449219L134.66184997558594 301.5196838378906C134.26821899414062 300.9692687988281 133.89404296875 300.41827392578125 133.5388641357422 299.8669128417969L128.24417114257812 292.0208435058594L123.17621612548828 284.8091735839844C122.74932098388672 284.23974609375 122.33073425292969 283.64935302734375 121.92100524902344 283.03759765625L117.2870101928711 276.1165466308594C117.24115753173828 276.0513000488281 117.19539642333984 275.98577880859375 117.14974212646484 275.9200134277344L112.76331329345703 269.5929870605469C112.6563949584961 269.4487609863281 112.54995727539062 269.30322265625 112.44401550292969 269.1563720703125L107.3952865600586 262.0927429199219C107.25104522705078 261.9066162109375 107.10758209228516 261.7182312011719 106.96492767333984 261.527587890625L100.81733703613281 253.3351593017578C100.19108581542969 252.49908447265625 99.61124420166016 251.66041564941406 99.07628631591797 250.8203125L94.68285369873047 244.4742431640625C94.3905258178711 244.0493927001953 94.10950469970703 243.62437438964844 93.839599609375 243.19931030273438L90.68495178222656 238.48394775390625C90.61825561523438 238.38385009765625 90.55218505859375 238.28375244140625 90.4867172241211 238.18365478515625L86.99506378173828 233.26321411132812C86.82575225830078 233.04476928710938 86.65753173828125 232.82322692871094 86.49044036865234 232.59852600097656L82.5748291015625 227.26296997070312C82.00453186035156 226.53477478027344 81.447998046875 225.77066040039062 80.90648651123047 224.96974182128906L76.65953826904297 218.71728515625C76.3802261352539 218.30364990234375 76.11151123046875 217.8899383544922 75.85321807861328 217.47628784179688L73.20036315917969 213.5264892578125L71.3739013671875 211.04307556152344L68.966796875 208.19277954101562L65.97372436523438 205.07998657226562L65.29399108886719 204.4506072998047C64.53963470458984 204.17062377929688 63.7808837890625 203.86058044433594 63.01823425292969 203.51951599121094C61.46869659423828 202.88865661621094 59.912750244140625 202.11903381347656 58.357017517089844 201.2012481689453C57.584449768066406 200.775634765625 56.816043853759766 200.31076049804688 56.053077697753906 199.80535888671875C53.75212860107422 198.32350158691406 51.756011962890625 196.68519592285156 50.04594421386719 194.92649841308594C49.144065856933594 194.03890991210938 48.31498718261719 193.12747192382812 47.55611801147461 192.1958770751953Z" fill="black"/>
</svg>
