<svg xmlns="http://www.w3.org/2000/svg" viewBox="0 0 709 1000">
  <path d="M533.1163940429688 153.58946228027344C530.3248291015625 154.35012817382812 527.424072265625 154.45140075683594 524.6036987304688 153.997314453125H522.6983032226562C495.41619873046875 153.997314453125 494.8305358886719 113.9125747680664 520.9413452148438 112.19161987304688C522.1089477539062 111.81155395507812 523.2998046875 111.55096435546875 524.4996948242188 111.40201568603516C527.6666259765625 110.75038146972656 530.7077026367188 110.91716766357422 533.507080078125 111.71253204345703L533.5825805664062 111.7159423828125L537.4130249023438 111.88339233398438C537.494873046875 111.88726806640625 537.5764770507812 111.8914794921875 537.6578369140625 111.89604949951172L541.264404296875 111.96711730957031C541.3414306640625 111.96937561035156 541.4182739257812 111.97193908691406 541.494873046875 111.97482299804688L546.24609375 112.05084991455078C546.470947265625 112.05473327636719 546.6940307617188 112.06130981445312 546.9151611328125 112.0705337524414L549.3648681640625 112.13457489013672H550.4608764648438C551.5994262695312 112.06697082519531 552.7864990234375 112.08015441894531 554.0213623046875 112.18163299560547C554.7463989257812 112.22513580322266 555.4510498046875 112.29782104492188 556.1351928710938 112.39804077148438L560.3230590820312 112.83953094482422C560.7529907226562 112.86554718017578 561.1889038085938 112.90255737304688 561.630615234375 112.95089721679688L566.0501708984375 113.44550323486328C566.3668823242188 113.46312713623047 566.6868286132812 113.4865951538086 567.010009765625 113.51604461669922L576.1779174804688 114.33236694335938C576.4427490234375 114.35649871826172 576.7046508789062 114.3841781616211 576.9637451171875 114.41534423828125L585.1784057617188 114.98123931884766C585.3617553710938 114.99417877197266 585.5437622070312 115.00883483886719 585.7244262695312 115.02519226074219L594.6603393554688 115.39986419677734C594.7510986328125 115.40437316894531 594.8414916992188 115.40931701660156 594.931640625 115.41468811035156L598.8099975585938 115.47576141357422L602.4535522460938 115.4145278930664C602.52783203125 115.40935516357422 602.6023559570312 115.40446472167969 602.6770629882812 115.39986419677734L607.97265625 115.0649642944336C608.9473876953125 115.00788879394531 609.89111328125 115.00386810302734 610.8037109375 115.0493392944336L617.4656982421875 114.98736572265625C617.86767578125 114.97624206542969 618.2755737304688 114.97411346435547 618.6895141601562 114.98123931884766L626.4171142578125 115.13934326171875C626.6235961914062 115.14009094238281 626.8316040039062 115.14320373535156 627.0411376953125 115.14868927001953L630.1976318359375 115.2469482421875C631.5787963867188 115.18628692626953 633.0270385742188 115.25108337402344 634.5399780273438 115.45560455322266C635.3710327148438 115.54441833496094 636.1734008789062 115.67192077636719 636.947021484375 115.83548736572266L640.8558349609375 116.46736145019531C641.660888671875 116.60132598876953 642.4365844726562 116.76663970947266 643.1832885742188 116.96122741699219L643.2658081054688 116.97905731201172C643.7609252929688 117.06452178955078 644.2623901367188 117.16588592529297 644.77001953125 117.28369140625L646.2567749023438 117.64862060546875C646.548095703125 117.70951843261719 646.8413696289062 117.7762222290039 647.1365966796875 117.84883880615234H647.218994140625C648.2103881835938 118.08125305175781 649.1529541015625 118.3592758178711 650.0477294921875 118.67896270751953C650.836669921875 118.87351989746094 651.6383056640625 119.11235046386719 652.4518432617188 119.39775848388672L653.0939331054688 119.62605285644531C653.8541870117188 119.86199951171875 654.6242065429688 120.14102172851562 655.4031372070312 120.46525573730469L656.4706420898438 120.88388061523438C656.8988647460938 121.06177520751953 657.3154907226562 121.24740600585938 657.7207641601562 121.44042205810547C682.7290649414062 132.99880981445312 665.7512817382812 170.85748291015625 640.353515625 159.5441131591797L639.955810546875 159.39759826660156C639.8472900390625 159.34927368164062 639.7395629882812 159.3004608154297 639.6326293945312 159.25115966796875L639.1839599609375 159.1031951904297L636.609375 158.3551788330078L635.2880859375 158.07891845703125Q635.1124267578125 158.03759765625 634.938720703125 157.99436950683594L633.23681640625 157.6812286376953L633.1912231445312 157.6717529296875L630.212646484375 157.1454620361328L625.8899536132812 157.0114288330078C625.8040161132812 157.00892639160156 625.7183837890625 157.0060272216797 625.6329956054688 157.00274658203125L618.0302124023438 156.84719848632812L609.3750610351562 156.92770385742188C609.31298828125 156.92807006835938 609.2510375976562 156.92823791503906 609.1892700195312 156.92819213867188L607.0094604492188 157.0655059814453C606.1871948242188 157.1702880859375 605.3361206054688 157.2368621826172 604.4561767578125 157.26260375976562L600.6642456054688 157.3263397216797C607.1013793945312 164.89210510253906 608.75 176.53997802734375 599.8992919921875 185.38461303710938C599.3382568359375 185.9492645263672 598.7335815429688 186.50047302246094 598.0838623046875 187.0362091064453L597.9255981445312 187.1944580078125C597.2752075195312 187.73085021972656 596.6199951171875 188.22152709960938 595.9616088867188 188.66819763183594C595.3908081054688 189.0634765625 594.789794921875 189.44480895996094 594.157958984375 189.81088256835938L594.0355834960938 189.87049865722656C593.3317260742188 190.3304443359375 592.5828247070312 190.75802612304688 591.7879638671875 191.14955139160156C591.29248046875 191.45260620117188 590.780517578125 191.73426818847656 590.2525024414062 191.99282836914062C590.1228637695312 192.13031005859375 589.9922485351562 192.2653350830078 589.8607788085938 192.39791870117188C589.5928955078125 192.69602966308594 589.3139038085938 192.99172973632812 589.023681640625 193.28475952148438C588.2867431640625 194.06893920898438 587.5308227539062 194.77877807617188 586.7598266601562 195.41761779785156C585.8653564453125 196.29481506347656 584.8628540039062 197.1367950439453 583.74658203125 197.93536376953125C583.394775390625 198.1997528076172 583.0413208007812 198.4508056640625 582.6866455078125 198.68882751464844L581.9049682617188 199.2444305419922L580.3598022460938 200.56024169921875L578.1254272460938 202.73878479003906C578.0491333007812 202.8182373046875 577.9721069335938 202.89755249023438 577.894287109375 202.97671508789062L574.7964477539062 206.1582794189453L574.71826171875 206.23704528808594L572.4071044921875 208.85105895996094L571.9087524414062 209.4956817626953C571.41796875 210.18658447265625 570.876953125 210.87217712402344 570.2835693359375 211.55055236816406C569.98583984375 211.9003448486328 569.6836547851562 212.2368927001953 569.3775634765625 212.5602264404297L567.35107421875 214.81053161621094C567.2193603515625 214.9757537841797 567.0847778320312 215.14068603515625 566.9472045898438 215.30528259277344L563.5772705078125 219.32411193847656C563.4347534179688 219.4931640625 563.2913208007812 219.65919494628906 563.1470947265625 219.8222198486328L561.4631958007812 222.02426147460938C561.1100463867188 222.4691162109375 560.75048828125 222.89413452148438 560.3849487304688 223.2997589111328L559.0941772460938 224.99566650390625C558.9756469726562 225.1551055908203 558.8544311523438 225.3143310546875 558.7305908203125 225.47332763671875L558.6793212890625 225.5407257080078C558.4426879882812 225.84640502929688 558.202880859375 226.1429443359375 557.9602661132812 226.4304656982422L555.901123046875 228.9648895263672C555.5755615234375 229.3920135498047 555.2298583984375 229.8163604736328 554.863525390625 230.23739624023438C554.2618408203125 230.9562225341797 553.6433715820312 231.6202392578125 553.0106201171875 232.2313995361328L550.334716796875 235.06549072265625C550.2293701171875 235.18402099609375 550.1223754882812 235.30230712890625 550.0137329101562 235.4203338623047L546.5040283203125 239.21224975585938C546.39208984375 239.3439483642578 546.2781982421875 239.4754180908203 546.162353515625 239.60659790039062L543.5581665039062 242.52796936035156C543.3978881835938 242.72682189941406 543.2333374023438 242.92520141601562 543.0645141601562 243.12307739257812L539.22509765625 247.51611328125C539.0916137695312 247.68472290039062 538.9550170898438 247.85302734375 538.8154296875 248.02101135253906L535.1281127929688 252.39060974121094C534.8199462890625 252.81260681152344 534.4932861328125 253.23306274414062 534.1477661132812 253.65155029296875L530.525146484375 258.0376281738281C530.130615234375 258.5743408203125 529.7058715820312 259.1080322265625 529.2498168945312 259.6379089355469L525.3984375 264.054443359375Q525.2235717773438 264.2565002441406 525.0470581054688 264.45269775390625L521.9574584960938 268.31805419921875L517.9677734375 274.3526611328125C517.4805908203125 275.08770751953125 516.973876953125 275.7763671875 516.4497680664062 276.42010498046875L514.8663940429688 278.63153076171875C514.468505859375 279.27880859375 514.0306396484375 279.9251403808594 513.55126953125 280.5693054199219L509.9062194824219 285.4164123535156C509.75799560546875 285.6219787597656 509.60552978515625 285.82733154296875 509.44873046875 286.0323791503906L504.634521484375 292.2489929199219C504.446044921875 292.4957275390625 504.25555419921875 292.7365417480469 504.0631103515625 292.9715576171875L500.4266662597656 297.7349548339844C499.9462585449219 298.42315673828125 499.4169006347656 299.10687255859375 498.8365173339844 299.7843017578125L494.13922119140625 305.1628723144531C493.8373718261719 305.548828125 493.5194396972656 305.9329528808594 493.18505859375 306.31488037109375L489.4615783691406 310.5162048339844L486.09942626953125 314.76544189453125C485.6446228027344 315.4136047363281 485.1464538574219 316.0578918457031 484.6031799316406 316.69683837890625L479.5543518066406 322.61407470703125L476.05462646484375 326.835693359375C475.836669921875 327.140625 475.6093444824219 327.4449768066406 475.3724670410156 327.74859619140625L470.8722229003906 333.4628601074219L470.8660888671875 333.4707336425781L466.34881591796875 339.27337646484375C466.0480041503906 339.681884765625 465.72955322265625 340.0885925292969 465.3930358886719 340.4930725097656C465.0832214355469 340.8758239746094 464.7684631347656 341.24346923828125 464.44921875 341.5963439941406L459.4227600097656 347.44500732421875C459.19073486328125 347.7147521972656 458.9565124511719 347.9765930175781 458.7201843261719 348.2306213378906L455.9432067871094 351.3802490234375C455.4143371582031 352.0925598144531 454.8307189941406 352.7979431152344 454.1899108886719 353.4941711425781L449.7102966308594 358.2751159667969C449.5467834472656 358.454345703125 449.37945556640625 358.6329040527344 449.208251953125 358.8107604980469L449.17169189453125 358.8484191894531L448.92999267578125 359.0973815917969L447.5730285644531 360.49517822265625C447.236328125 360.892578125 446.8815002441406 361.2870788574219 446.5080871582031 361.6783447265625L443.60955810546875 364.6368408203125L443.5567932128906 364.6924743652344L437.98919677734375 370.5770568847656C437.9132080078125 370.65997314453125 437.8363952636719 370.7427062988281 437.7587890625 370.8253479003906L431.85614013671875 377.0419616699219L431.8370666503906 377.0621643066406L427.6070861816406 381.5422058105469C427.4613342285156 381.69671630859375 427.3149719238281 381.848388671875 427.1679382324219 381.9972229003906L421.892822265625 387.5076599121094C421.409423828125 388.01361083984375 420.9191589355469 388.48870849609375 420.4229736328125 388.93389892578125L418.8577575683594 390.458984375C418.3984680175781 390.9029235839844 417.93438720703125 391.3208923339844 417.4662780761719 391.7136535644531L416.9967346191406 392.153076171875C416.6047058105469 392.54248046875 416.1925964355469 392.9268493652344 415.7599182128906 393.3056335449219L412.2434387207031 396.3406982421875C412.1966552734375 396.3815002441406 412.14984130859375 396.4220275878906 412.1029968261719 396.46234130859375L409.3758544921875 399.12457275390625L406.0682678222656 402.4321594238281C405.6476135253906 402.8842468261719 405.20147705078125 403.3309020996094 404.7290954589844 403.7713317871094L401.0176696777344 407.22381591796875C400.7240905761719 407.5108642578125 400.4191589355469 407.7946472167969 400.1026611328125 408.07489013671875C399.25225830078125 408.8603820800781 398.3876037597656 409.5597839355469 397.51300048828125 410.17742919921875L395.39251708984375 411.857421875L394.2577819824219 412.92181396484375L393.3480529785156 414.06549072265625C392.9441223144531 414.6183776855469 392.5066833496094 415.1662902832031 392.0346374511719 415.7080078125C391.18511962890625 416.7320861816406 390.30126953125 417.6455993652344 389.390380859375 418.45428466796875L388.7850646972656 419.0655822753906L388.6956481933594 419.1558837890625L386.7501220703125 421.1014099121094L385.4045104980469 422.4470520019531L385.3466491699219 422.5049133300781C385.31890869140625 422.5329284667969 385.29095458984375 422.560791015625 385.2629089355469 422.588623046875L384.0262756347656 423.82525634765625C383.8965148925781 423.95770263671875 383.7644958496094 424.0897521972656 383.6302795410156 424.2212829589844L383.6016540527344 424.2486572265625C383.4165344238281 424.43072509765625 383.2305908203125 424.60845947265625 383.0438537597656 424.781982421875L382.5437927246094 425.2601013183594C382.0928955078125 425.7644958496094 381.61114501953125 426.2627868652344 381.0975646972656 426.75396728515625L379.51422119140625 428.2165832519531C379.10894775390625 428.6346130371094 378.6810607910156 429.0473327636719 378.22998046875 429.4541015625L376.93572998046875 430.6109313964844C376.2570495605469 431.27685546875 375.51715087890625 431.9249267578125 374.7135009765625 432.55194091796875L374.2169494628906 432.9530029296875C373.8957824707031 433.2265319824219 373.5628356933594 433.4956359863281 373.2179260253906 433.75994873046875L373.08087158203125 433.8706359863281C372.39544677734375 434.4028015136719 371.70635986328125 434.88641357421875 371.0152587890625 435.32342529296875C370.2187805175781 435.8682556152344 369.36334228515625 436.383056640625 368.4469299316406 436.86395263671875C367.8955383300781 437.1917419433594 367.3185729980469 437.5020751953125 366.7155456542969 437.7935485839844C366.47576904296875 438.04962158203125 366.2296447753906 438.29803466796875 365.9775085449219 438.538818359375C366.1565246582031 439.0931701660156 366.31707763671875 439.6649169921875 366.4581298828125 440.2542419433594C367.3081970214844 442.8087158203125 367.6431579589844 445.65582275390625 367.3102111816406 448.7491455078125C367.2887268066406 449.2673034667969 367.2505798339844 449.7757263183594 367.1964416503906 450.2742919921875C367.1597900390625 450.86956787109375 367.09759521484375 451.4742736816406 367.0086364746094 452.0879211425781C366.75933837890625 455.2713317871094 365.8954162597656 458.0594787597656 364.57745361328125 460.4425048828125L364.49896240234375 461.8349304199219V461.8354797363281L364.4986267089844 470.8982238769531L364.4989929199219 470.98193359375V478.8312072753906L364.4991149902344 478.9149475097656L364.4989929199219 478.9985656738281V489.0133056640625C364.5194091796875 489.5873107910156 364.51910400390625 490.1731262207031 364.49713134765625 490.7705993652344C364.48046875 492.1977844238281 364.353271484375 493.5509948730469 364.12701416015625 494.8301696777344L363.68267822265625 499.02996826171875L363.6752014160156 499.0924987792969L363.5915222167969 500.811279296875C363.5951232910156 500.9563293457031 363.5976257324219 501.10211181640625 363.59893798828125 501.24871826171875V507.2141418457031L363.7364501953125 513.577880859375C363.7398376464844 513.6611328125 363.7428283691406 513.74462890625 363.7454833984375 513.8284301757812L363.9686279296875 519.351806640625C363.9779968261719 519.5347900390625 363.9854431152344 519.718994140625 363.990966796875 519.904541015625L363.99664306640625 520.0451049804688C364.0243835449219 520.833251953125 364.0180358886719 521.6002197265625 363.9795837402344 522.3460083007812L363.9129333496094 526.5128784179688C363.88482666015625 527.899169921875 363.754638671875 529.2144775390625 363.5326232910156 530.4590454101562L363.2640380859375 533.3783569335938C363.2086181640625 533.9318237304688 363.1377868652344 534.47265625 363.0522155761719 535.0008544921875L362.4566955566406 539.5267944335938L362.4477233886719 539.594970703125L361.9101257324219 543.7916259765625C361.9014587402344 543.8855590820312 361.89227294921875 543.9797973632812 361.882568359375 544.0742797851562L361.4639587402344 548.0930786132812C361.4386901855469 548.3304443359375 361.4105529785156 548.5654296875 361.3796691894531 548.798095703125L361.1290588378906 552.8236083984375C361.1153259277344 553.0122680664062 361.0997619628906 553.1995239257812 361.0823974609375 553.3853149414062L360.8988037109375 557.4912719726562C360.8902282714844 557.6725463867188 360.8799133300781 557.8525390625 360.8679504394531 558.0313110351562L360.7863464355469 560.7345581054688C360.8114013671875 561.2549438476562 360.8211975097656 561.7855834960938 360.8150939941406 562.326416015625L360.7313537597656 566.9732055664062C360.72869873046875 567.1494750976562 360.72442626953125 567.3245239257812 360.7184753417969 567.49853515625L360.64764404296875 571.3059692382812V582.1065673828125L360.7146301269531 585.641357421875C360.724853515625 585.9320678710938 360.73046875 586.2260131835938 360.7313537597656 586.5230712890625V642.831298828125C360.75030517578125 643.4087524414062 360.7489929199219 643.998291015625 360.7265319824219 644.599853515625C360.7077331542969 645.603271484375 360.634033203125 646.5698852539062 360.5094299316406 647.4993896484375L360.3916931152344 648.8748779296875C360.3629455566406 649.7311401367188 360.28875732421875 650.611328125 360.16619873046875 651.5150146484375L359.36541748046875 657.1204223632812C359.33636474609375 657.3780517578125 359.3033142089844 657.6375732421875 359.2661437988281 657.8990478515625L358.45599365234375 663.7362670898438L357.86376953125 669.1810913085938C357.83587646484375 669.4307250976562 357.8048095703125 669.677734375 357.7707214355469 669.9221801757812L357.5497741699219 672.2789306640625C357.529052734375 672.4861450195312 357.50616455078125 672.6915283203125 357.48114013671875 672.8952026367188L357.2986145019531 675.146484375C357.2809143066406 675.3545532226562 357.2610168457031 675.5608520507812 357.2389221191406 675.7654418945312L357.23480224609375 675.8297729492188C357.2337341308594 676.1427612304688 357.22711181640625 676.459228515625 357.2148742675781 676.7791748046875L356.9637145996094 681.78173828125C356.9588928222656 681.9074096679688 356.9532775878906 682.032470703125 356.9468078613281 682.156982421875L356.8799743652344 684.9633178710938V690.6856079101562C357.0694274902344 692.5805053710938 357.01708984375 694.6107788085938 356.68280029296875 696.7696533203125C356.5796813964844 697.5888061523438 356.4372863769531 698.3795166015625 356.25830078125 699.1417846679688L356.13592529296875 699.8182373046875C356.0445861816406 700.5722045898438 355.9164733886719 701.3419189453125 355.74969482421875 702.1270751953125L355.00726318359375 705.4420166015625C354.95904541015625 705.7028198242188 354.90655517578125 705.96533203125 354.8496398925781 706.2296142578125L354.33551025390625 708.6074829101562C354.31256103515625 708.7354125976562 354.2885437011719 708.86376953125 354.2635498046875 708.9925537109375L353.9814147949219 710.38232421875C353.97119140625 710.4630737304688 353.9606018066406 710.5440673828125 353.9495849609375 710.6251831054688L353.5898742675781 712.9183349609375L353.38018798828125 714.962890625Q353.37286376953125 715.127197265625 353.363525390625 715.2928466796875L353.21697998046875 717.9930419921875C353.2073974609375 718.1630249023438 353.19635009765625 718.3319091796875 353.1838073730469 718.4996337890625L353.1332702636719 719.8768310546875V726.9636840820312C353.1748352050781 727.8409423828125 353.1690368652344 728.74658203125 353.1125183105469 729.6803588867188C353.0833740234375 730.4144897460938 353.0244140625 731.12841796875 352.937255859375 731.8219604492188L352.83062744140625 733.0682983398438L352.7148132324219 734.4219360351562L352.7146301269531 734.4241333007812C352.59649658203125 735.720703125 352.3931579589844 736.948486328125 352.1130676269531 738.1082153320312L351.64715576171875 740.7244873046875C351.57220458984375 741.1447143554688 351.48876953125 741.5568237304688 351.3970947265625 741.9608154296875L350.91455078125 744.5758666992188C350.876220703125 744.7763671875 350.8359680175781 744.9750366210938 350.7938232421875 745.1717529296875L350.58843994140625 746.3280639648438C350.5664367675781 746.5036010742188 350.5425720214844 746.6800537109375 350.516845703125 746.8573608398438L349.9702453613281 750.37109375L349.8299560546875 751.6898803710938C349.8174133300781 751.905517578125 349.80218505859375 752.1226806640625 349.78424072265625 752.3413696289062L349.6341552734375 753.9046630859375C352.09429931640625 757.3218994140625 353.5074157714844 761.7152709960938 353.224853515625 767.0037231445312C353.1950378417969 767.6747436523438 353.1370544433594 768.3601684570312 353.0495300292969 769.059814453125V769.2539672851562C352.9880065917969 769.7275390625 352.9154357910156 770.1915283203125 352.83221435546875 770.6458740234375C352.7767639160156 770.99267578125 352.7153625488281 771.3341064453125 352.648193359375 771.6701049804688L352.63092041015625 771.78662109375C352.59564208984375 772.0027465820312 352.55810546875 772.2168579101562 352.518310546875 772.4287719726562C352.4443359375 773.0009765625 352.3495788574219 773.5823974609375 352.23321533203125 774.1727905273438L351.7308654785156 776.5380859375C351.6260681152344 777.0697631835938 351.50787353515625 777.5880126953125 351.3768615722656 778.0930786132812C351.2535400390625 778.8243408203125 351.0931091308594 779.5684204101562 350.8936462402344 780.3245239257812C350.6645202636719 781.3240356445312 350.3611755371094 782.3424682617188 349.9785461425781 783.3776245117188Q349.8858642578125 783.6445922851562 349.78875732421875 783.9058837890625C348.58050537109375 789.6386108398438 345.2734680175781 793.8357543945312 341.0239562988281 796.455322265625C338.126953125 798.4886474609375 334.680419921875 799.7682495117188 330.8512878417969 799.9166259765625C327.47967529296875 800.2339477539062 323.9487609863281 799.6603393554688 320.49688720703125 797.9398193359375C318.51007080078125 797.0952758789062 316.6545715332031 795.9443969726562 315.02410888671875 794.4837646484375C312.62689208984375 792.597412109375 310.6412658691406 790.1170043945312 309.326416015625 787.0425415039062C307.1963195800781 782.8917846679688 306.7662048339844 778.537841796875 307.58660888671875 774.4656372070312V765.86962890625C307.54266357421875 765.3264770507812 307.51507568359375 764.7715454101562 307.50457763671875 764.2048950195312L307.5028991699219 764.1885375976562L307.50201416015625 764.1047973632812C307.5002746582031 763.9099731445312 307.5005798339844 763.7164916992188 307.5028991699219 763.5243530273438V763.1210327148438C307.5033874511719 763.0960083007812 307.5032043457031 763.0709838867188 307.50299072265625 763.0459594726562L307.5029602050781 763.0429077148438L307.5028991699219 763.037353515625C307.5002746582031 762.8432006835938 307.5005798339844 762.650390625 307.5028991699219 762.4588623046875V761.8233032226562C307.50140380859375 761.6563720703125 307.50140380859375 761.4903564453125 307.5028991699219 761.3253784179688V760.6016845703125C307.500244140625 760.3826904296875 307.5002136230469 760.1619873046875 307.5028991699219 759.9395141601562V759.152587890625C307.49029541015625 758.6834106445312 307.4901428222656 758.2061767578125 307.5028991699219 757.7207641601562L307.5523986816406 756.2727661132812C307.55010986328125 755.7869873046875 307.56134033203125 755.2928466796875 307.58660888671875 754.7903442382812L307.7540588378906 752.0902099609375C307.784423828125 751.5123291015625 307.83209228515625 750.9474487304688 307.8963623046875 750.3953857421875L307.9310302734375 749.7763061523438L307.9377746582031 749.6558227539062L307.98431396484375 748.824951171875C308.0352478027344 748.2317504882812 308.10406494140625 747.65283203125 308.1899719238281 747.088134765625L308.3336181640625 745.8312377929688C308.3670959472656 745.4898071289062 308.40765380859375 745.1448974609375 308.4554443359375 744.7968139648438C308.501953125 744.4408569335938 308.5549011230469 744.0903930664062 308.61407470703125 743.745361328125L309.05181884765625 740.8919677734375C309.1547546386719 740.183837890625 309.2821960449219 739.497802734375 309.4328308105469 738.8336791992188L309.55462646484375 738.1254272460938C309.6177062988281 737.6650390625 309.69415283203125 737.19873046875 309.7843933105469 736.7266235351562L310.32513427734375 734.1431884765625C310.36395263671875 733.8828735351562 310.40692138671875 733.6206665039062 310.4541931152344 733.3566284179688L311.0733337402344 729.9594116210938L311.2705383300781 727.6422729492188V725.5073852539062C311.2706604003906 725.4864501953125 311.2705993652344 725.4655151367188 311.2705383300781 725.444580078125V723.560791015625C311.27044677734375 723.5328369140625 311.2704162597656 723.5049438476562 311.2705383300781 723.47705078125V721.6861572265625C311.2663879394531 721.4136962890625 311.266357421875 721.1384887695312 311.2705383300781 720.860595703125L311.2749328613281 720.757080078125C311.282958984375 720.3155517578125 311.3015441894531 719.881103515625 311.33038330078125 719.453857421875L311.3376159667969 719.2840576171875C311.3391418457031 719.0167236328125 311.3446350097656 718.746826171875 311.354248046875 718.4744262695312L311.37811279296875 717.6073608398438C311.3685302734375 716.9891967773438 311.3811950683594 716.357177734375 311.41705322265625 715.7114868164062L311.49456787109375 714.4616088867188C311.498046875 713.7980346679688 311.527587890625 713.1192016601562 311.5845031738281 712.42529296875L311.7742004394531 710.5756225585938C311.8094482421875 709.768798828125 311.88494873046875 708.9409790039062 312.0031433105469 708.0924682617188L312.40081787109375 704.910888671875C312.5327453613281 703.964599609375 312.708740234375 703.057373046875 312.92547607421875 702.18896484375C313.0046081542969 701.6594848632812 313.10162353515625 701.1224975585938 313.2171630859375 700.578125L313.9706726074219 697.3965454101562C314.0220031738281 697.1554565429688 314.0760803222656 696.9171752929688 314.13287353515625 696.6817016601562L314.6661071777344 694.056640625L315.0172424316406 691.75732421875V689.128662109375L315.01727294921875 689.07275390625L315.0172424316406 688.9612426757812V685.2500610351562C315.0073547363281 684.8329467773438 315.0072326660156 684.409423828125 315.0172424316406 683.9795532226562L315.1009826660156 680.4630737304688C315.1207275390625 679.7112426757812 315.17034912109375 678.9803466796875 315.2481994628906 678.2704467773438L315.2952575683594 676.8937377929688C315.28021240234375 676.1431274414062 315.29852294921875 675.372314453125 315.3521423339844 674.5813598632812L315.5302429199219 672.6668701171875C315.5466003417969 672.2978515625 315.5708923339844 671.92431640625 315.60333251953125 671.5463256835938L315.72100830078125 669.9627075195312C315.73834228515625 669.3853149414062 315.7756042480469 668.7968139648438 315.83355712890625 668.1973266601562L316.1461486816406 665.6967163085938C316.1724548339844 665.3070678710938 316.20770263671875 664.91259765625 316.252197265625 664.5133666992188L316.84722900390625 659.0429077148438C316.8634338378906 658.8787231445312 316.8812561035156 658.7136840820312 316.90106201171875 658.5479125976562L316.9092102050781 658.4764404296875C316.9490966796875 658.1300048828125 316.9950256347656 657.78857421875 317.04681396484375 657.4522705078125L317.8011169433594 652.017333984375C317.8561096191406 651.6309814453125 317.9184265136719 651.2511596679688 317.9878234863281 650.8779296875L318.5143127441406 647.1925659179688Q318.5234680175781 647.072509765625 318.5337219238281 646.9519653320312L318.8686218261719 643.2176513671875V586.6068115234375L318.79852294921875 582.9806518554688L318.78546142578125 582.3034057617188L318.7848815917969 582.2740478515625C318.7851257324219 582.253173828125 318.7850341796875 582.2322387695312 318.7849426269531 582.2113037109375L318.7848815917969 582.1903076171875V576.7900390625L318.7849426269531 576.7608032226562L318.784912109375 576.7482299804688L318.7848815917969 576.706298828125V571.1385498046875L318.7849426269531 571.1167602539062V571.0338745117188L318.78497314453125 571.0322875976562L318.7850036621094 571.0288696289062C318.7851257324219 571.0156860351562 318.78521728515625 571.0038452148438 318.7848815917969 570.9920043945312L318.79425048828125 570.4979248046875L318.86566162109375 566.732177734375C318.86602783203125 566.6245727539062 318.86700439453125 566.5165405273438 318.8686218261719 566.4080810546875L318.9429016113281 562.266845703125C318.9423522949219 562.010009765625 318.9454650878906 561.7507934570312 318.95233154296875 561.4891967773438L319.03607177734375 556.026123046875C319.0574951171875 555.208740234375 319.1140441894531 554.4160766601562 319.2036437988281 553.6482543945312L319.27923583984375 551.9579467773438C319.2735290527344 551.2590942382812 319.296630859375 550.5429077148438 319.35003662109375 549.8095092773438L319.6281433105469 546.2221069335938C319.6354675292969 545.4232788085938 319.6815185546875 544.6026000976562 319.7686767578125 543.7603149414062L320.0558166503906 541.3634033203125C320.08905029296875 540.650634765625 320.1532897949219 539.9215698242188 320.2500915527344 539.1763305664062L320.93505859375 534.5719604492188Q320.9664306640625 534.301025390625 321.0036315917969 534.0272216796875L321.6652526855469 529.0744018554688L322.0641784667969 524.73828125L322.12255859375 521.0889892578125L321.9664611816406 515.2936401367188C321.9622802734375 515.1723022460938 321.9588928222656 515.051513671875 321.9563293457031 514.93115234375L321.7362060546875 508.42816162109375C321.72039794921875 507.8880615234375 321.7205810546875 507.3579406738281 321.7362060546875 506.8378601074219V503.1173095703125C321.6907653808594 502.2508850097656 321.68975830078125 501.3558654785156 321.7362060546875 500.432373046875L321.8779602050781 497.4559020996094C321.8663024902344 496.41351318359375 321.921875 495.333251953125 322.0501708984375 494.21575927734375L322.6362609863281 489.242431640625V466.25146484375C322.6355895996094 466.1399841308594 322.6355895996094 466.0289611816406 322.6362609863281 465.9183654785156V464.53509521484375L322.63616943359375 464.4936218261719L322.6362609863281 464.45135498046875V463.3042297363281C322.63037109375 462.9814147949219 322.6302490234375 462.6547546386719 322.6361083984375 462.3243408203125C322.6008605957031 461.5554504394531 322.6002502441406 460.76434326171875 322.6362609863281 459.95111083984375L322.7200012207031 458.4859313964844C322.7419128417969 457.9828186035156 322.7770690917969 457.4894104003906 322.824951171875 457.0056457519531L322.86651611328125 456.3509216308594C322.9342346191406 455.56170654296875 323.03369140625 454.7977294921875 323.16290283203125 454.058837890625L323.1692810058594 454.0155334472656L323.201416015625 453.7344970703125C323.2756042480469 453.2023620605469 323.3637390136719 452.6826171875 323.4652099609375 452.1751708984375C323.6201477050781 451.2703552246094 323.8310852050781 450.3454895019531 324.1014709472656 449.4017028808594L324.2606506347656 448.8895263671875C324.343505859375 448.6054382324219 324.43048095703125 448.3257141113281 324.5214538574219 448.0503845214844L324.5828857421875 447.852783203125C324.6521301269531 447.6117858886719 324.7239685058594 447.3739318847656 324.79840087890625 447.1391296386719C324.735107421875 446.8937683105469 324.6749267578125 446.6452941894531 324.6179504394531 446.393798828125C324.4797058105469 445.8414001464844 324.3619079589844 445.29583740234375 324.2638244628906 444.7573547363281C324.01239013671875 443.5404052734375 323.849609375 442.2529602050781 323.7854309082031 440.894775390625C323.7819519042969 440.85137939453125 323.7785949707031 440.8079528808594 323.7753601074219 440.7646179199219C323.647705078125 440.2558288574219 323.53497314453125 439.7337646484375 323.4378662109375 439.1984558105469C323.08306884765625 437.62652587890625 322.89776611328125 436.1097717285156 322.8642883300781 434.6536560058594C322.8595275878906 434.5440368652344 322.8555603027344 434.4339294433594 322.85235595703125 434.3233947753906C322.56146240234375 433.1716003417969 322.3759765625 431.9828186035156 322.30841064453125 430.7653503417969C321.0376892089844 428.8466796875 320.0566101074219 426.6056213378906 319.45849609375 424.03533935546875C319.2410583496094 423.3190002441406 319.06304931640625 422.610595703125 318.92254638671875 421.9109802246094C317.88714599609375 420.6108093261719 317.04241943359375 419.28076171875 316.3731994628906 417.93585205078125C316.2181701660156 417.6645812988281 316.066162109375 417.3874816894531 315.91729736328125 417.1046142578125L315.8736877441406 417.0222473144531C315.7744445800781 416.8401794433594 315.67816162109375 416.6582336425781 315.5847473144531 416.4764709472656L314.96728515625 415.3101806640625L314.7749938964844 415.0041198730469C314.6947937011719 414.88916015625 314.61505126953125 414.77301025390625 314.53582763671875 414.6556396484375L313.3183288574219 412.82940673828125C312.83245849609375 412.1697082519531 312.36541748046875 411.4671936035156 311.9194030761719 410.7205505371094L309.95184326171875 407.4552307128906C309.4614562988281 406.6360168457031 309.0301208496094 405.819580078125 308.6549072265625 405.0077209472656L308.6082458496094 404.923095703125C308.2528381347656 404.3507385253906 307.9118957519531 403.750732421875 307.58660888671875 403.1224670410156L306.863037109375 401.6875915527344L305.3895263671875 399.3426513671875L304.8040466308594 398.4383544921875C303.7318420410156 397.0938415527344 302.7666015625 395.5491027832031 301.93609619140625 393.79205322265625C301.42474365234375 392.80511474609375 300.9998779296875 391.8214111328125 300.65618896484375 390.844482421875L300.20867919921875 389.7966613769531C299.9853210449219 389.3213806152344 299.7721862792969 388.83056640625 299.56988525390625 388.323974609375L298.59454345703125 385.89447021484375L297.3345947265625 383.42596435546875L295.95782470703125 381.0379638671875C295.71112060546875 380.6469421386719 295.4707336425781 380.24298095703125 295.2370910644531 379.8258361816406L293.4264221191406 376.5730285644531L291.750244140625 374.106201171875C291.6559753417969 373.9701232910156 291.5623474121094 373.8323669433594 291.4694519042969 373.6929626464844L291.3165283203125 373.4625244140625L288.7766418457031 369.6355285644531L285.5865173339844 365.4397888183594C285.4169006347656 365.222900390625 285.2489318847656 365.0012512207031 285.082763671875 364.7748107910156Q285.01055908203125 364.6776123046875 284.9396667480469 364.5803527832031L280.9200439453125 359.1456604003906C280.5765075683594 358.6734619140625 280.25494384765625 358.2003173828125 279.9547424316406 357.72674560546875L277.7384948730469 354.7291259765625C277.6358947753906 354.5888366699219 277.5352478027344 354.4484558105469 277.4365234375 354.3080139160156L273.2382507324219 348.91021728515625C272.7512512207031 348.28424072265625 272.30474853515625 347.6553649902344 271.8971862792969 347.0247497558594L268.3403015136719 341.96099853515625C268.1374206542969 341.6697082519531 267.94268798828125 341.3782653808594 267.7559509277344 341.0867614746094L265.23516845703125 337.319580078125C265.0110778808594 337.02630615234375 264.7901916503906 336.7245788574219 264.5726623535156 336.4141845703125L261.26409912109375 331.6050109863281C261.1944885253906 331.513427734375 261.12518310546875 331.4210510253906 261.0561828613281 331.3278503417969L256.8022155761719 325.5782165527344L252.59634399414062 320.4459228515625L249.48963928222656 316.96307373046875C248.71487426757812 316.1963195800781 247.96380615234375 315.34832763671875 247.24147033691406 314.4153137207031L244.5413360595703 310.8988342285156C244.43502807617188 310.7607116699219 244.3306884765625 310.6224365234375 244.22828674316406 310.48406982421875L243.63951110839844 309.7765197753906C243.50694274902344 309.6366882324219 243.3749542236328 309.4945068359375 243.24359130859375 309.34991455078125L240.54344177246094 306.31488037109375C240.44102478027344 306.2018127441406 240.34010314941406 306.08856201171875 240.2406463623047 305.9750671386719L237.0226593017578 302.5036926269531C236.0291748046875 301.5882263183594 235.07139587402344 300.5447998046875 234.1593780517578 299.36566162109375L229.01025390625 292.5838928222656C228.75946044921875 292.2572021484375 228.51956176757812 291.9297790527344 228.2903594970703 291.601806640625L224.7611846923828 286.93243408203125C224.6021270751953 286.7189025878906 224.44766235351562 286.505126953125 224.2976837158203 286.2911682128906L219.15139770507812 279.4732666015625L214.78688049316406 274.1849060058594C214.52926635742188 273.8880310058594 214.2755126953125 273.58074951171875 214.02587890625 273.2629699707031C213.04510498046875 272.08148193359375 212.2164764404297 270.88348388671875 211.52923583984375 269.6780700683594L208.97689819335938 265.8894348144531C208.94961547851562 265.85003662109375 208.92237854003906 265.81048583984375 208.89520263671875 265.77081298828125L204.3112335205078 259.0518493652344C204.13995361328125 258.8017578125 203.97462463378906 258.55157470703125 203.81512451171875 258.3013916015625L198.4295196533203 250.5537109375C198.04652404785156 249.99893188476562 197.69288635253906 249.44369506835938 197.36764526367188 248.88865661621094L192.75808715820312 242.0334014892578L187.14752197265625 234.52027893066406C186.6761474609375 233.8898162841797 186.2449493408203 233.2572021484375 185.8523712158203 232.62355041503906L182.47982788085938 227.82225036621094C182.20916748046875 227.4285888671875 181.95318603515625 227.0347442626953 181.71156311035156 226.64093017578125L177.01673889160156 219.4078369140625C176.93637084960938 219.28501892089844 176.85739135742188 219.16221618652344 176.77978515625 219.03944396972656L174.72532653808594 216.03884887695312C174.4729766845703 215.7008514404297 174.22500610351562 215.3517303466797 173.981689453125 214.99131774902344L171.19781494140625 210.8259735107422C170.99114990234375 210.5195770263672 170.79330444335938 210.21315002441406 170.6041259765625 209.9067840576172L168.58139038085938 206.97459411621094C168.47410583496094 206.81695556640625 168.36917114257812 206.65928649902344 168.2665557861328 206.50161743164062L166.57635498046875 204.1822052001953C166.4554443359375 204.0269775390625 166.3353729248047 203.86935424804688 166.21615600585938 203.7093048095703L162.35504150390625 198.44923400878906C162.25306701660156 198.32044982910156 162.15164184570312 198.1899871826172 162.05081176757812 198.05783081054688L159.3164520263672 194.44052124023438C158.46469116210938 193.47201538085938 157.6566925048828 192.39122009277344 156.9016876220703 191.19235229492188L154.03408813476562 186.60838317871094C153.58056640625 185.8882293701172 153.17373657226562 185.16929626464844 152.81158447265625 184.45285034179688L151.4176788330078 181.96160888671875C151.12403869628906 181.42318725585938 150.85467529296875 180.88687133789062 150.60879516601562 180.35308837890625L149.61294555664062 178.48907470703125L147.20822143554688 174.7152099609375L145.52137756347656 172.37315368652344C145.2999725341797 172.08892822265625 145.08151245117188 171.7965545654297 144.86614990234375 171.4959259033203L143.41183471679688 169.40118408203125L142.581298828125 168.45989990234375C142.22134399414062 168.07379150390625 141.86647033691406 167.66958618164062 141.5171356201172 167.24685668945312L141.42823791503906 167.13406372070312C141.14451599121094 166.79202270507812 140.87380981445312 166.44834899902344 140.6158447265625 166.10328674316406L140.30426025390625 165.70794677734375C139.88372802734375 165.23556518554688 139.47140502929688 164.73707580566406 139.0681610107422 164.21182250976562L137.9954833984375 162.8173370361328C137.52378845214844 162.2568359375 137.06454467773438 161.66146850585938 136.61920166015625 161.03024291992188L135.1540069580078 158.97897338867188C134.9721221923828 158.71920776367188 134.79672241210938 158.4593048095703 134.62770080566406 158.1993408203125C133.29116821289062 156.73988342285156 132.12896728515625 155.01080322265625 131.19898986816406 152.99832153320312C130.91201782226562 152.47763061523438 130.65032958984375 151.95664978027344 130.4131317138672 151.4361114501953C130.3916473388672 151.39761352539062 130.37030029296875 151.3590545654297 130.3490753173828 151.32041931152344C127.03286743164062 146.07415771484375 126.7191162109375 140.05235290527344 128.47195434570312 134.65476989746094C129.46426391601562 130.847900390625 131.46592712402344 127.32485961914062 134.50450134277344 124.64674377441406C136.1754150390625 123.12754821777344 138.14816284179688 121.8828125 140.41505432128906 121.01612854003906C143.2674102783203 119.71127319335938 146.4392547607422 119.06652069091797 149.77194213867188 119.31915283203125C151.71693420410156 119.3498306274414 153.6095428466797 119.68541717529297 155.41017150878906 120.27641296386719C158.72850036621094 121.00741577148438 161.5209197998047 122.43329620361328 163.78414916992188 124.33145141601562C165.02854919433594 125.36741638183594 166.1117401123047 126.54414367675781 167.03411865234375 127.82536315917969C167.21339416503906 128.03529357910156 167.38999938964844 128.25051879882812 167.5637969970703 128.4710235595703C169.06602478027344 130.2209014892578 170.17794799804688 132.0946044921875 170.9403533935547 134.03060913085938C171.7044677734375 135.6691436767578 172.21864318847656 137.31265258789062 172.50965881347656 138.93907165527344L173.5557098388672 140.25506591796875L175.3003692626953 142.21295166015625C176.34347534179688 143.40576171875 177.22601318359375 144.619873046875 177.9595184326172 145.84518432617188C178.27188110351562 146.23036193847656 178.5787353515625 146.63124084472656 178.87962341308594 147.048095703125L180.9315185546875 149.94091796875C181.25184631347656 150.3656768798828 181.56492614746094 150.808349609375 181.87022399902344 151.26931762695312C182.09442138671875 151.5976104736328 182.3081512451172 151.9262237548828 182.5115966796875 152.2550048828125L184.01678466796875 154.57321166992188C184.48777770996094 155.2316131591797 184.93833923339844 155.9320831298828 185.36622619628906 156.67584228515625C185.82327270507812 157.4306182861328 186.2285919189453 158.18435668945312 186.58453369140625 158.9355010986328L187.6775665283203 160.99188232421875C187.86058044433594 161.29713439941406 188.03977966308594 161.6099090576172 188.2150115966797 161.9302978515625L190.06503295898438 165.30142211914062L191.73667907714844 167.94522094726562L195.33168029785156 172.626220703125C195.70962524414062 173.12156677246094 196.06251525878906 173.61854553222656 196.3910675048828 174.11659240722656L198.8018341064453 177.38919067382812C199.2324676513672 177.9003143310547 199.65293884277344 178.44041442871094 200.0621795654297 179.0102996826172L202.9297637939453 183.0081787109375C203.30751037597656 183.53421020507812 203.65809631347656 184.0612030029297 203.98236083984375 184.58856201171875L205.46966552734375 186.7445831298828C205.62960815429688 186.9666748046875 205.78770446777344 187.193359375 205.9438934326172 187.42469787597656L208.72775268554688 191.61097717285156C208.8885498046875 191.84915161132812 209.0439910888672 192.0873565673828 209.19418334960938 192.32553100585938L211.32498168945312 195.41725158691406C211.58050537109375 195.76930236816406 211.83119201660156 196.1331329345703 212.0767822265625 196.5089111328125L216.53079223632812 203.37098693847656C216.68743896484375 203.58409118652344 216.8424072265625 203.801513671875 216.9956512451172 204.02328491210938L220.52713012695312 209.222900390625C220.59918212890625 209.31683349609375 220.67092895507812 209.41162109375 220.74237060546875 209.50729370117188L226.0099334716797 216.53677368164062C226.50991821289062 217.15260314941406 226.99435424804688 217.80918884277344 227.46133422851562 218.50778198242188L232.32080078125 225.91441345214844C232.52484130859375 226.187255859375 232.72610473632812 226.46734619140625 232.92442321777344 226.75474548339844L238.2449951171875 234.49032592773438C238.4704132080078 234.79147338867188 238.69241333007812 235.1014404296875 238.91079711914062 235.4203338623047L243.06500244140625 241.5373077392578C243.2599334716797 241.8078155517578 243.4520721435547 242.085205078125 243.6412811279297 242.36953735351562L246.92303466796875 247.3619842529297L251.40435791015625 252.7919158935547C251.76629638671875 253.20652770996094 252.12179565429688 253.64085388183594 252.4702911376953 254.0953369140625C252.7068328857422 254.39634704589844 252.93370056152344 254.6982879638672 253.15106201171875 255.00103759765625L257.7177734375 261.09564208984375C257.93310546875 261.36279296875 258.1459045410156 261.6373596191406 258.35601806640625 261.91943359375L261.8345642089844 266.5937194824219C261.9596862792969 266.74951171875 262.0839538574219 266.90777587890625 262.2073974609375 267.0685729980469L267.1168518066406 273.454833984375L270.08843994140625 276.6487121582031C270.6019287109375 277.12677001953125 271.1080322265625 277.6379089355469 271.6055908203125 278.18310546875L274.30572509765625 281.2181701660156C274.90087890625 281.87518310546875 275.44580078125 282.5396423339844 275.9423828125 283.209716796875C276.5578918457031 283.8525390625 277.157470703125 284.548583984375 277.7384948730469 285.2997741699219L280.11602783203125 288.3961181640625L284.2062683105469 292.9815979003906C284.71533203125 293.55810546875 285.18658447265625 294.1398010253906 285.6213684082031 294.7254638671875L287.914306640625 297.5234375C288.6954040527344 298.32293701171875 289.44970703125 299.207763671875 290.1717224121094 300.1819763183594L294.75567626953125 306.3985900878906C295.177490234375 306.9698791503906 295.56683349609375 307.542724609375 295.9248046875 308.1163024902344L298.3871765136719 311.676025390625C298.6537780761719 312.032470703125 298.9155578613281 312.4012756347656 299.1722106933594 312.78265380859375L302.9189147949219 318.3294677734375Q303.0106506347656 318.46624755859375 303.10009765625 318.60302734375L306.6422119140625 323.72137451171875L311.1867980957031 329.4649658203125C311.6561279296875 330.0711669921875 312.0875549316406 330.68011474609375 312.4824523925781 331.29071044921875L314.76336669921875 334.4142761230469L314.7869873046875 334.4466247558594L318.8686218261719 339.9934387207031C319.09375 340.3028869628906 319.3094482421875 340.61273193359375 319.515869140625 340.9228515625L322.46881103515625 344.6611328125C323.2461242675781 345.68377685546875 323.91748046875 346.7131042480469 324.4892883300781 347.7441711425781L325.55755615234375 349.3465881347656C325.8092346191406 349.68536376953125 326.0565490722656 350.03521728515625 326.29925537109375 350.3963317871094L327.42889404296875 352.1240234375C328.103271484375 353.01458740234375 328.7403869628906 353.9864807128906 329.33428955078125 355.0430908203125L331.05938720703125 358.2032165527344C331.21954345703125 358.4561462402344 331.37713623046875 358.7144470214844 331.5321044921875 358.97821044921875L333.1881408691406 361.8108825683594C333.7068176269531 362.609619140625 334.19561767578125 363.4648742675781 334.65087890625 364.37847900390625L334.6744384765625 364.42633056640625C334.8215026855469 364.71160888671875 334.96160888671875 364.99639892578125 335.0948486328125 365.28057861328125L335.70794677734375 366.5263671875C336.3140563964844 367.5691833496094 336.864501953125 368.7010803222656 337.35101318359375 369.92529296875L338.4813232421875 372.8766174316406C338.4947509765625 372.9103088378906 338.5080871582031 372.9439697265625 338.5213317871094 372.9776306152344L339.2446594238281 374.592529296875L340.4488525390625 376.3930969238281C340.8011474609375 376.92657470703125 341.12701416015625 377.45989990234375 341.42730712890625 377.9925842285156L341.51776123046875 378.1359558105469C342.2533874511719 379.1413879394531 342.9395751953125 380.2474060058594 343.567626953125 381.45849609375L343.8936462402344 382.1161193847656C343.9533386230469 382.234130859375 344.01177978515625 382.3520812988281 344.06903076171875 382.469970703125L344.62908935546875 383.5997009277344L346.3905029296875 386.8153076171875L347.2626647949219 388.2882995605469L349.19818115234375 391.1915588378906C349.47674560546875 391.60418701171875 349.73931884765625 392.0169372558594 349.98626708984375 392.4294738769531C350.6685485839844 393.3726501464844 351.3082275390625 394.403076171875 351.8983154296875 395.52435302734375L351.8999938964844 395.5276794433594C352.1004943847656 395.706298828125 352.29876708984375 395.8901672363281 352.4946594238281 396.0794372558594L354.2635498046875 394.3731384277344C354.2947692871094 394.34259033203125 354.3260192871094 394.3121337890625 354.3572692871094 394.2818298339844L355.74969482421875 392.907958984375C355.96405029296875 392.6943054199219 356.1795349121094 392.4864501953125 356.39605712890625 392.2843322753906C356.6588439941406 391.99493408203125 356.9317321777344 391.7073669433594 357.2148742675781 391.42181396484375L359.0149841308594 389.64263916015625L360.3055114746094 388.3393249511719L361.32769775390625 387.0634460449219C361.9170227050781 386.230224609375 362.5825500488281 385.40966796875 363.3282470703125 384.6059875488281C364.34368896484375 383.4443664550781 365.405029296875 382.4350891113281 366.5002746582031 381.5685119628906C367.0538330078125 381.0213317871094 367.6483459472656 380.4858093261719 368.28509521484375 379.9637451171875C368.77777099609375 379.5408020019531 369.2747802734375 379.1458740234375 369.77532958984375 378.7781677246094L371.8435363769531 377.1396179199219L376.1787109375 373.10687255859375C376.21697998046875 373.0710754394531 376.2552490234375 373.03546142578125 376.2935791015625 373.0000305175781L380.03009033203125 369.1927185058594C380.5246887207031 368.7001953125 381.02545166015625 368.2384948730469 381.5314025878906 367.80670166015625L382.72894287109375 366.66619873046875C383.3252868652344 366.02301025390625 383.9739074707031 365.3922119140625 384.6768493652344 364.77618408203125L388.19329833984375 361.7620544433594C388.25140380859375 361.7113952636719 388.3095703125 361.6611022949219 388.3677673339844 361.6111755371094L390.32830810546875 359.7945251464844C390.4104309082031 359.72076416015625 390.49267578125 359.6477966308594 390.57501220703125 359.5755920410156L391.8921203613281 358.3034973144531L397.03875732421875 352.9272766113281C397.0900573730469 352.8719787597656 397.1417541503906 352.8167419433594 397.19378662109375 352.7615661621094L400.3204345703125 349.51171875C400.64898681640625 349.12005615234375 400.99505615234375 348.7310485839844 401.359130859375 348.3450622558594L407.26177978515625 342.1284484863281C407.3851318359375 341.99713134765625 407.50897216796875 341.86785888671875 407.63323974609375 341.7406005859375L412.9623107910156 336.10809326171875C413.049560546875 336.01458740234375 413.13787841796875 335.9212341308594 413.22723388671875 335.8280944824219C413.3708801269531 335.6770935058594 413.5151062011719 335.52886962890625 413.65997314453125 335.3833312988281L415.1674499511719 333.833984375C415.50689697265625 333.43505859375 415.8647155761719 333.0390930175781 416.2413330078125 332.64654541015625L418.6464538574219 330.1690673828125C418.688720703125 330.1227111816406 418.73126220703125 330.0763854980469 418.7740478515625 330.0301208496094L422.7571716308594 325.7790832519531C422.8514099121094 325.6679382324219 422.947021484375 325.55694580078125 423.0440368652344 325.4461364746094L426.6510314941406 321.3373107910156C426.97760009765625 320.9046325683594 427.3240051269531 320.4739685058594 427.6907958984375 320.04583740234375L433.0384826660156 313.945556640625L436.86346435546875 309.0365905761719C437.16973876953125 308.588623046875 437.4959411621094 308.1417236328125 437.842529296875 307.69635009765625L441.78851318359375 302.6624450683594C442.0380554199219 302.3230285644531 442.2994689941406 301.9845275878906 442.572998046875 301.6471862792969L446.36932373046875 296.984130859375C446.71368408203125 296.51971435546875 447.0806579589844 296.0574951171875 447.470947265625 295.5980224609375L452.70379638671875 289.4651184082031C452.8504943847656 289.2942810058594 452.998046875 289.1265563964844 453.146484375 288.96197509765625L457.12030029296875 283.9183044433594C457.77197265625 283.09527587890625 458.44549560546875 282.3398132324219 459.137451171875 281.649169921875L461.7879943847656 278.60174560546875C462.04193115234375 278.3128356933594 462.2983703613281 278.033203125 462.5570983886719 277.7626647949219L466.1164245605469 273.619140625C466.2003173828125 273.5077209472656 466.2855224609375 273.39642333984375 466.3719787597656 273.2851867675781L470.8413391113281 267.5440673828125C471.03271484375 267.2735290527344 471.2313232421875 267.00335693359375 471.4373474121094 266.733642578125L475.5214538574219 261.4621276855469C475.68280029296875 261.2305908203125 475.8493957519531 260.999267578125 476.0213317871094 260.7682189941406L479.93548583984375 255.45164489746094C480.1786193847656 255.12644958496094 480.42535400390625 254.81130981445312 480.67547607421875 254.5060577392578L483.53570556640625 250.46998596191406L483.5680847167969 250.42539978027344L486.49993896484375 245.99078369140625C486.8349609375 245.44342041015625 487.1990661621094 244.89732360839844 487.5931091308594 244.35336303710938C488.1306457519531 243.58363342285156 488.6902160644531 242.8675537109375 489.2690124511719 242.20327758789062L493.101318359375 237.38787841796875C493.632568359375 236.71612548828125 494.1783447265625 236.0894012451172 494.73675537109375 235.5061798095703L497.5178527832031 232.23876953125C497.6403503417969 232.0970001220703 497.7634582519531 231.95742797851562 497.88714599609375 231.8200225830078L501.85064697265625 227.00592041015625C502.0161437988281 226.80642700195312 502.1828918457031 226.61106872558594 502.350830078125 226.41981506347656L506.60205078125 221.29165649414062C506.8258361816406 221.02365112304688 507.0518493652344 220.76316833496094 507.2799377441406 220.51011657714844L511.2488098144531 215.80763244628906C511.7439270019531 215.2303924560547 512.2491455078125 214.68910217285156 512.76318359375 214.1826629638672L514.7653198242188 211.87254333496094C515.177001953125 211.40634155273438 515.5950317382812 210.96426391601562 516.018798828125 210.5457305908203L519.1818237304688 207.05831909179688C519.4987182617188 206.71559143066406 519.81884765625 206.386474609375 520.1419677734375 206.07073974609375L523.18310546875 202.91209411621094L525.8170776367188 199.6067657470703C525.8368530273438 199.582275390625 525.856689453125 199.55783081054688 525.8765258789062 199.53346252441406L528.4334716796875 196.17401123046875C528.7620849609375 195.74951171875 529.0966796875 195.34266662597656 529.4367065429688 194.9530792236328L531.1336059570312 192.8249969482422C531.4046020507812 192.48228454589844 531.679443359375 192.15130615234375 531.957763671875 191.83184814453125L534.8803100585938 188.3247528076172C535.3902587890625 187.71766662597656 535.9116821289062 187.149658203125 536.4430541992188 186.61947631835938L537.7772827148438 185.0946807861328C537.8502807617188 184.9991455078125 537.9241943359375 184.9036865234375 537.9990844726562 184.80828857421875L539.35888671875 183.1717071533203C539.9259643554688 182.37606811523438 540.56005859375 181.5879669189453 541.264404296875 180.81039428710938L543.463134765625 178.3739471435547C543.922607421875 177.81939697265625 544.417236328125 177.2706298828125 544.9483032226562 176.72877502441406L548.046142578125 173.61000061035156C548.353515625 173.2989959716797 548.6634521484375 173.00006103515625 548.9755859375 172.71295166015625L551.1018676757812 170.62753295898438C551.339111328125 170.38638305664062 551.5839233398438 170.14712524414062 551.8364868164062 169.90989685058594C552.305908203125 169.4608612060547 552.7802734375 169.0386962890625 553.2588500976562 168.64271545410156L553.7651977539062 168.19918823242188C554.622314453125 167.3525848388672 555.5795288085938 166.53843688964844 556.6422729492188 165.76402282714844C556.9685668945312 165.51626586914062 557.2960815429688 165.27980041503906 557.6246337890625 165.05447387695312C558.6082153320312 162.42909240722656 560.1707153320312 159.9858856201172 562.3704833984375 157.91827392578125C563.2894897460938 156.95579528808594 564.2848510742188 156.1167449951172 565.3390502929688 155.39659118652344L564.844482421875 155.35244750976562C564.2186889648438 155.32936096191406 563.5799560546875 155.28269958496094 562.9283447265625 155.21133422851562L557.13037109375 154.5624542236328C556.8790893554688 154.5352020263672 556.6304321289062 154.50479125976562 556.3843994140625 154.47129821777344L551.30810546875 153.997314453125H549.483642578125C549.3056640625 153.9993438720703 549.1265258789062 153.99961853027344 548.9462280273438 153.997314453125L548.9417724609375 153.9972686767578L548.9405517578125 153.99725341796875L548.9378051757812 153.9972381591797C548.911865234375 153.9970245361328 548.88720703125 153.996826171875 548.8624877929688 153.997314453125L548.7957153320312 153.9955596923828L548.1387329101562 153.978271484375L545.776611328125 153.91610717773438Q545.6870727539062 153.91514587402344 545.59716796875 153.91358947753906L541.0715942382812 153.8411865234375C540.7556762695312 153.8430633544922 540.4362182617188 153.83932495117188 540.1131591796875 153.82986450195312L537.0699462890625 153.76988220214844C536.5453491210938 153.77793884277344 536.0108032226562 153.77023315429688 535.4664306640625 153.74612426757812L533.1163940429688 153.58946228027344ZM83.09501647949219 128.95130920410156C83.78092193603516 130.38893127441406 84.29353332519531 131.81080627441406 84.64837646484375 133.20802307128906C85.02718353271484 133.5492401123047 85.40220642089844 133.90817260742188 85.77299499511719 134.28518676757812C86.46197509765625 134.9463653564453 87.09051513671875 135.62445068359375 87.6610336303711 136.3163604736328C88.01457977294922 136.68771362304688 88.36347961425781 137.07627868652344 88.70729064941406 137.48245239257812L89.9046401977539 138.9534912109375C90.02242279052734 139.08905029296875 90.13961791992188 139.2266387939453 90.25621795654297 139.3662872314453L91.22948455810547 140.53683471679688C91.31700134277344 140.63397216796875 91.40422821044922 140.732177734375 91.49116516113281 140.83148193359375L92.66796875 142.18760681152344C93.11701965332031 142.66343688964844 93.55577850341797 143.16873168945312 93.9830551147461 143.7042999267578C94.94322967529297 144.8333282470703 95.76028442382812 145.9809112548828 96.4439468383789 147.13839721679688L97.28915405273438 148.34584045410156C97.47171020507812 148.61550903320312 97.64739227294922 148.88525390625 97.81631469726562 149.1549530029297L97.82789611816406 149.171875C98.46621704101562 150.00546264648438 99.0713882446289 150.91114807128906 99.63832092285156 151.89169311523438C99.9838638305664 152.4625701904297 100.29948425292969 153.03318786621094 100.58621978759766 153.60284423828125L101.45179748535156 155.17747497558594C101.50885772705078 155.2717742919922 101.5655746459961 155.3667755126953 101.6219482421875 155.46250915527344L103.22595977783203 158.246826171875L104.71663665771484 160.5245819091797C105.29376220703125 161.26345825195312 105.84710693359375 162.0592803955078 106.37336730957031 162.91407775878906L107.44387817382812 164.74179077148438C107.63426971435547 165.01870727539062 107.82169342041016 165.30250549316406 108.00601196289062 165.59329223632812L110.16082763671875 169.08372497558594L112.9039535522461 172.8773956298828C113.37362670898438 173.5457305908203 113.80020904541016 174.2151641845703 114.18541717529297 174.884521484375L116.33670043945312 178.02651977539062C116.48505401611328 178.2484588623047 116.62882232666016 178.4703826904297 116.76806640625 178.69229125976562L118.78258514404297 181.56666564941406C119.20857238769531 182.1270294189453 119.62168884277344 182.71888732910156 120.02062225341797 183.3430938720703L122.21841430664062 186.7758331298828L125.04373168945312 191.1209716796875L128.267578125 195.525146484375C128.47286987304688 195.8031768798828 128.6704559326172 196.08157348632812 128.86048889160156 196.3602294921875L130.26544189453125 198.2884063720703C130.90492248535156 199.0693817138672 131.5139923095703 199.91876220703125 132.08792114257812 200.83917236328125C132.6803436279297 201.73812866210938 133.19540405273438 202.6389923095703 133.63726806640625 203.5386199951172L136.5354766845703 208.69097900390625C136.79299926757812 209.15733337402344 137.03231811523438 209.62216186523438 137.25392150878906 210.08518981933594L138.5867462158203 212.68885803222656C138.81861877441406 213.13230895996094 139.03433227539062 213.57403564453125 139.2343292236328 214.0138397216797L140.47056579589844 216.45651245117188C140.61439514160156 216.746337890625 140.7515106201172 217.0353240966797 140.8820343017578 217.32337951660156L142.95265197753906 221.32225036621094C143.25352478027344 221.83493041992188 143.5427703857422 222.36880493164062 143.819580078125 222.92430114746094L146.17068481445312 227.7734375C146.489990234375 228.3367462158203 146.7950897216797 228.9249725341797 147.0848846435547 229.5386199951172L149.68942260742188 235.15892028808594C150.04376220703125 235.8392333984375 150.37628173828125 236.55404663085938 150.68507385253906 237.3041534423828L153.9503631591797 245.06968688964844C154.2154998779297 245.71426391601562 154.44996643066406 246.3526611328125 154.6549835205078 246.98440551757812L156.3374786376953 251.15652465820312C156.75242614746094 252.01864624023438 157.13018798828125 252.93359375 157.4668426513672 253.90272521972656L159.0361328125 258.47705078125C159.1443328857422 258.7477722167969 159.24920654296875 259.0230712890625 159.3506622314453 259.3030090332031L161.9670867919922 266.5871276855469C161.99563598632812 266.6661682128906 162.0237579345703 266.7450866699219 162.05142211914062 266.82391357421875L164.58349609375 273.03399658203125C164.8160858154297 273.62115478515625 165.0235595703125 274.2029113769531 165.20684814453125 274.7789611816406L166.79888916015625 279.11834716796875L168.16539001464844 281.8513488769531C168.19955444335938 281.912109375 168.2335662841797 281.97314453125 168.26742553710938 282.03448486328125L169.78292846679688 284.90252685546875L172.43276977539062 288.98370361328125L172.4622802734375 289.0302429199219L174.48403930664062 291.8512878417969C174.7215118408203 292.1836853027344 174.94815063476562 292.5164489746094 175.16416931152344 292.84942626953125L175.2660675048828 292.9960632324219C175.8776397705078 293.77105712890625 176.46249389648438 294.6096496582031 177.01673889160156 295.5142822265625L178.31448364257812 297.7330017089844L178.3515625 297.7938537597656L179.38197326660156 299.36566162109375C179.42880249023438 299.4404602050781 179.47512817382812 299.5152282714844 179.52096557617188 299.5899963378906L179.64926147460938 299.7814025878906C180.06277465820312 300.3507080078125 180.4625244140625 300.9514465332031 180.84719848632812 301.5843811035156C181.0330352783203 301.8800354003906 181.210693359375 302.17572021484375 181.38031005859375 302.4713134765625L183.08497619628906 305.3072509765625L184.4283447265625 307.3969421386719C184.4626922607422 307.44769287109375 184.49693298339844 307.4986572265625 184.53109741210938 307.5498352050781L185.11769104003906 308.4119567871094C185.30824279785156 308.66259765625 185.49649047851562 308.9194030761719 185.6823272705078 309.1824645996094L186.0150909423828 309.6715393066406C186.86451721191406 310.7431640625 187.65750122070312 311.9385681152344 188.38246154785156 313.26409912109375L188.4319610595703 313.3584289550781C188.71963500976562 313.8627624511719 188.98385620117188 314.36700439453125 189.225341796875 314.87060546875L190.05372619628906 316.4494934082031C190.32066345214844 316.87249755859375 190.58006286621094 317.3106994628906 190.83143615722656 317.76434326171875L193.6781005859375 322.9971618652344C193.92681884765625 323.4475402832031 194.1584930419922 323.896484375 194.3735809326172 324.3437194824219L195.35755920410156 326.13043212890625C195.6294403076172 326.56988525390625 195.89309692382812 327.0254211425781 196.14801025390625 327.4974060058594L198.4295196533203 331.6627502441406C198.46734619140625 331.7330322265625 198.5047607421875 331.8032531738281 198.54176330566406 331.8734436035156L200.71104431152344 335.430419921875C200.7466583251953 335.4894104003906 200.78195190429688 335.54840087890625 200.81695556640625 335.6073913574219L201.76846313476562 337.08099365234375C201.88427734375 337.23321533203125 201.99928283691406 337.3876953125 202.1134490966797 337.5444641113281L204.39495849609375 340.6632385253906C205.16000366210938 341.7138366699219 205.81605529785156 342.7690734863281 206.3699493408203 343.8239440917969L207.1575469970703 345.0903015136719L208.80886840820312 347.58282470703125L211.2604522705078 350.87774658203125C211.35684204101562 351.00830078125 211.4515380859375 351.138916015625 211.5445556640625 351.2696228027344L212.83030700683594 352.8453063964844C213.48736572265625 353.66583251953125 214.07318115234375 354.4926452636719 214.59124755859375 355.32293701171875L215.6824188232422 356.87933349609375L217.08901977539062 358.5040283203125L219.77952575683594 361.1759948730469C220.31301879882812 361.71405029296875 220.81004333496094 362.2593078613281 221.27178955078125 362.81060791015625L221.37367248535156 362.915771484375C222.11026000976562 363.6044616699219 222.82904052734375 364.36309814453125 223.52622985839844 365.19482421875L223.5913848876953 365.27484130859375C223.86566162109375 365.59539794921875 224.12806701660156 365.9178161621094 224.3788299560547 366.24188232421875L225.2699737548828 367.33624267578125L226.87525939941406 368.9415283203125L228.8179473876953 370.7277526855469C229.21229553222656 371.0430603027344 229.6044464111328 371.37548828125 229.99403381347656 371.72540283203125L231.76954650878906 373.333984375C231.98507690429688 373.5223693847656 232.19935607910156 373.7164306640625 232.4122772216797 373.9162902832031L232.4429931640625 373.9441223144531C233.71511840820312 375.090576171875 234.80401611328125 376.2833557128906 235.72259521484375 377.50823974609375L235.9016571044922 377.71270751953125C236.47781372070312 378.2882385253906 237.0419464111328 378.90838623046875 237.5921173095703 379.5746765136719L239.80596923828125 382.3380432128906C240.02587890625 382.5821228027344 240.2438201904297 382.8330993652344 240.459716796875 383.09112548828125L242.82093811035156 385.9628601074219C243.2130584716797 386.3993835449219 243.59837341308594 386.8583068847656 243.97618103027344 387.3402099609375L245.89761352539062 389.7381591796875C246.2225341796875 390.1238098144531 246.5416717529297 390.5259704589844 246.8545684814453 390.9449768066406C247.1300506591797 391.3077697753906 247.39202880859375 391.67156982421875 247.64077758789062 392.0361022949219L248.98748779296875 393.9237976074219C249.43185424804688 394.5064392089844 249.86203002929688 395.12335205078125 250.27651977539062 395.7755432128906L250.28538513183594 395.789794921875L250.79226684570312 396.6050109863281L251.50621032714844 397.753173828125C252.04620361328125 398.52960205078125 252.55845642089844 399.3628845214844 253.03945922851562 400.2548522949219L254.60931396484375 403.1224670410156C254.96385192871094 403.77996826171875 255.2824249267578 404.4340515136719 255.56643676757812 405.0840759277344L255.59103393554688 405.1195983886719C255.9058074951172 405.5586853027344 256.2016296386719 405.9985656738281 256.47900390625 406.4388427734375C257.4453125 407.27410888671875 258.37884521484375 408.22698974609375 259.2703552246094 409.3043518066406C259.31781005859375 409.3574523925781 259.36492919921875 409.41058349609375 259.41168212890625 409.46380615234375C259.6552429199219 409.68798828125 259.89697265625 409.9197082519531 260.13665771484375 410.15911865234375C260.9728088378906 410.9296569824219 261.7242736816406 411.7252502441406 262.39501953125 412.5406799316406C262.7435607910156 412.878173828125 263.0882263183594 413.2314758300781 263.42852783203125 413.600830078125C264.04229736328125 414.2294921875 264.6046447753906 414.8703308105469 265.11761474609375 415.5212097167969L265.1810302734375 415.58538818359375L265.8075866699219 416.037109375C266.0485534667969 416.21978759765625 266.2839660644531 416.4043884277344 266.51385498046875 416.5908508300781C267.5157775878906 417.3355407714844 268.48956298828125 418.1968688964844 269.4258117675781 419.181884765625C270.79296875 420.5121154785156 271.9223327636719 421.902587890625 272.8332214355469 423.3309631347656C272.87322998046875 423.3861083984375 272.9130859375 423.44158935546875 272.95269775390625 423.497314453125C275.66412353515625 426.6932067871094 277.3918762207031 430.8641357421875 277.4757995605469 435.90863037109375C277.7147216796875 438.46588134765625 277.47564697265625 440.86260986328125 276.85223388671875 443.06524658203125C277.3468322753906 444.7291259765625 277.64813232421875 446.454833984375 277.7560729980469 448.19403076171875C277.9542541503906 449.5062561035156 278.00762939453125 450.8118591308594 277.93023681640625 452.0975036621094C277.9525146484375 453.01165771484375 277.9150390625 453.9021301269531 277.82220458984375 454.76751708984375V457.58587646484375C277.82232666015625 457.6137390136719 277.8222961425781 457.64166259765625 277.82220458984375 457.6695861816406V462.55706787109375C278.0114440917969 463.34637451171875 278.1631774902344 464.1668701171875 278.2745666503906 465.01861572265625C278.56695556640625 466.76544189453125 278.6669921875 468.43157958984375 278.59722900390625 470.01251220703125C278.6128845214844 470.20166015625 278.62664794921875 470.3922119140625 278.6385192871094 470.5842590332031L278.7198181152344 471.49884033203125C278.8839111328125 472.4756164550781 278.992431640625 473.495361328125 279.0406494140625 474.5581970214844C279.0710144042969 475.0382995605469 279.08746337890625 475.51123046875 279.09051513671875 475.9768371582031L279.140869140625 477.4497375488281C279.1758728027344 478.78173828125 279.11383056640625 480.0528564453125 278.9638671875 481.26287841796875L278.95623779296875 481.4410095214844L279.139404296875 483.3206787109375L279.140869140625 483.3314514160156L279.1586608886719 483.4709777832031C279.6240539550781 485.3992614746094 279.8497619628906 487.5090637207031 279.7897644042969 489.79925537109375L279.7796630859375 490.09442138671875C279.7765808105469 490.5155334472656 279.76226806640625 490.9305419921875 279.73712158203125 491.3393859863281L279.622314453125 494.6971740722656C279.5983581542969 495.60833740234375 279.530517578125 496.4886169433594 279.421630859375 497.3380126953125L279.14324951171875 500.8835144042969L279.140869140625 500.913818359375L278.7222595214844 506.4815368652344C278.71563720703125 506.5678405761719 278.7086181640625 506.65386962890625 278.70123291015625 506.73956298828125L278.4710693359375 510.47943115234375Q278.45062255859375 510.75933837890625 278.4248352050781 511.03515625L278.2408447265625 513.9121704101562C278.2264099121094 514.1259155273438 278.2096252441406 514.337890625 278.1905212402344 514.5480346679688L278.0733947753906 516.6123046875Q278.06622314453125 516.7545166015625 278.0576477050781 516.8955688476562L277.9896545410156 519.5636596679688C277.9875793457031 519.6226806640625 277.98529052734375 519.6815795898438 277.98284912109375 519.7403564453125L277.90594482421875 525.5291137695312C277.9046325683594 525.5938110351562 277.9031066894531 525.658447265625 277.9013671875 525.7228393554688L277.82220458984375 530.5107421875V534.0272216796875C277.81982421875 534.2928466796875 277.8136901855469 534.555908203125 277.8038635253906 534.8164672851562L277.7384948730469 537.62744140625V550.2071533203125L277.81280517578125 555.2988891601562C277.81842041015625 555.51171875 277.8215637207031 555.7261962890625 277.82220458984375 555.9423828125V601.5217895507812L278.3478698730469 607.3793334960938C278.4498596191406 608.1397705078125 278.5195007324219 608.92529296875 278.5548095703125 609.7359619140625L278.80596923828125 615.0525512695312C278.8459167480469 615.9698486328125 278.8392028808594 616.8590087890625 278.78887939453125 617.7199096679688L278.72955322265625 622.9871215820312C278.7340393066406 623.3379516601562 278.731689453125 623.6932983398438 278.7222595214844 624.0530395507812L278.5687255859375 630.57763671875C278.56744384765625 630.8217163085938 278.5628356933594 631.0679321289062 278.5548095703125 631.3162231445312L278.3036193847656 637.9514770507812C278.3011474609375 638.0284423828125 278.29833984375 638.1051635742188 278.29522705078125 638.1817016601562L278.1571044921875 643.3517456054688C278.1531982421875 643.47265625 278.1485290527344 643.5929565429688 278.1430969238281 643.7127685546875L277.9896545410156 648.5845947265625C277.98834228515625 648.6415405273438 277.9868469238281 648.6983032226562 277.98516845703125 648.7550048828125L277.9313659667969 652.8035278320312C277.9681091308594 653.723388671875 277.9509582519531 654.6737060546875 277.8758850097656 655.6536865234375C277.8210754394531 656.76220703125 277.6991882324219 657.8234252929688 277.5158386230469 658.8375244140625L277.0058898925781 663.0481567382812C276.92852783203125 663.6435546875 276.833740234375 664.2236938476562 276.7222595214844 664.7887573242188L276.57073974609375 665.854248046875C276.4739074707031 667.1395263671875 276.2650146484375 668.4714965820312 275.9331970214844 669.8473510742188C275.81573486328125 670.3885498046875 275.6829833984375 670.9153442382812 275.53564453125 671.427978515625L274.4237976074219 675.8302612304688C274.3861389160156 675.9855346679688 274.3468933105469 676.1414184570312 274.3060302734375 676.2977905273438L274.2839660644531 676.3816528320312C274.2637023925781 676.4581909179688 274.2430419921875 676.5348510742188 274.2220153808594 676.6116943359375L274.1664123535156 676.8175659179688L272.673095703125 682.346923828125L272.671142578125 682.3539428710938L271.9291076660156 685.7496948242188C271.7997741699219 686.4591674804688 271.6366882324219 687.1810302734375 271.4381408691406 687.9146728515625L271.4169616699219 687.9911499023438C271.3522644042969 688.2388305664062 271.2845458984375 688.4833374023438 271.2138671875 688.724609375L270.6773986816406 690.6617431640625L270.10430908203125 694.9085083007812C270.0895690917969 695.0258178710938 270.073974609375 695.1435546875 270.05755615234375 695.2616577148438L270.04693603515625 695.3370971679688C269.9991760253906 695.7044067382812 269.9446716308594 696.0657958984375 269.8836364746094 696.42138671875L268.9891662597656 702.3782348632812C268.9234924316406 702.7877807617188 268.84967041015625 703.1898193359375 268.7679443359375 703.5843505859375L268.089111328125 708.7622680664062C268.05560302734375 709.004638671875 268.01922607421875 709.244384765625 267.98004150390625 709.4816284179688L267.6076965332031 712.509033203125C267.56658935546875 712.832275390625 267.5202941894531 713.1509399414062 267.46893310546875 713.4652099609375L267.32806396484375 714.6694946289062C267.3128356933594 714.9034423828125 267.29443359375 715.13916015625 267.2727966308594 715.3765869140625L266.96533203125 718.5967407226562C266.95751953125 718.7505493164062 266.9483947753906 718.9051513671875 266.9378967285156 719.060546875L266.7076416015625 722.9746704101562C266.697265625 723.1282958984375 266.6856689453125 723.2810668945312 266.6728820800781 723.432861328125L266.5401916503906 727.977294921875C266.5362854003906 728.0978393554688 266.5316162109375 728.2178344726562 266.5262145996094 728.3372802734375L266.45648193359375 731.8077392578125C266.4537353515625 731.9437255859375 266.4499816894531 732.0789794921875 266.4452819824219 732.2135620117188L266.3739318847656 736.7970581054688L266.41265869140625 739.1002197265625C270.8233947753906 744.8963012695312 272.2386474609375 752.9376220703125 267.52398681640625 761.4884033203125L267.41802978515625 761.6473388671875L266.8750915527344 762.8908081054688C266.7712707519531 763.1173095703125 266.66534423828125 763.3403930664062 266.557373046875 763.5601196289062L266.55474853515625 763.5654907226562L266.5401916503906 763.6077880859375V764.921142578125C266.5403137207031 792.8018798828125 224.7611083984375 792.8576049804688 224.67745971679688 765.0048828125V764.37646484375C224.47930908203125 762.7965087890625 224.4574432373047 761.1231079101562 224.6373291015625 759.3616943359375C224.61122131347656 758.9064331054688 224.5965576171875 758.4432373046875 224.59373474121094 757.971923828125V741.7919921875L224.59329223632812 741.7655639648438L224.52638244628906 737.767822265625C224.5149383544922 737.445556640625 224.50927734375 737.119384765625 224.509521484375 736.7893676757812C224.50955200195312 736.7406005859375 224.5097198486328 736.6917724609375 224.510009765625 736.6428833007812L224.51063537597656 736.6021728515625L224.51808166503906 736.1226806640625L224.58811950683594 731.6046142578125C224.5876922607422 731.4016723632812 224.58956909179688 731.197265625 224.59373474121094 730.9913940429688L224.66326904296875 727.5322875976562C224.662353515625 727.2166748046875 224.6670379638672 726.8975830078125 224.67745971679688 726.5748901367188L224.84490966796875 720.9443359375C224.8708038330078 720.14208984375 224.9306182861328 719.364013671875 225.02235412597656 718.6100463867188L225.04815673828125 718.1690673828125C225.0460968017578 717.3719482421875 225.08224487304688 716.552734375 225.1588897705078 715.7114868164062L225.5775146484375 711.5252075195312C225.63636779785156 710.8793334960938 225.7163543701172 710.25048828125 225.8164520263672 709.638671875L225.8953399658203 708.924560546875C225.93017578125 708.3573608398438 225.98443603515625 707.7799682617188 226.05892944335938 707.1924438476562L226.561279296875 703.2782592773438C226.64073181152344 702.6685180664062 226.73861694335938 702.0747680664062 226.85403442382812 701.4969482421875L227.54505920410156 696.16162109375C227.62644958496094 695.5745849609375 227.72482299804688 695.0025634765625 227.83938598632812 694.445556640625L228.6621856689453 689.2947998046875L229.08114624023438 685.9314575195312C229.1466827392578 684.9105224609375 229.28395080566406 683.8602905273438 229.49853515625 682.7823486328125C229.75759887695312 681.2477416992188 230.1377410888672 679.821044921875 230.6233367919922 678.5001831054688L230.6338653564453 678.4628295898438C230.6633758544922 678.3137817382812 230.6942901611328 678.1642456054688 230.72662353515625 678.0140991210938L231.96157836914062 672.3626708984375C232.1807861328125 671.3453979492188 232.44873046875 670.3782958984375 232.76116943359375 669.46044921875L233.824462890625 665.5808715820312C233.8912353515625 665.3363647460938 233.96072387695312 665.0950317382812 234.03285217285156 664.8567504882812L234.8860321044922 661.5247192382812L235.47804260253906 657.4176635742188C235.52342224121094 657.1038818359375 235.5736083984375 656.7943725585938 235.62850952148438 656.4891967773438L236.07623291015625 652.7922973632812L236.2021026611328 648.0094604492188C236.20347595214844 647.8462524414062 236.20631408691406 647.6821899414062 236.2106475830078 647.51708984375L236.2827606201172 642.9378051757812C236.2816162109375 642.639404296875 236.2854461669922 642.3378295898438 236.29437255859375 642.0330810546875L236.43264770507812 636.8573608398438L236.44088745117188 636.549072265625L236.45285034179688 636.2340087890625L236.6920623779297 629.9347534179688C236.69386291503906 629.8788452148438 236.69583129882812 629.822998046875 236.69796752929688 629.767333984375L236.85951232910156 622.9017944335938C236.8616485595703 622.8207397460938 236.86412048339844 622.739990234375 236.866943359375 622.659423828125L236.9335479736328 616.7313232421875L236.69691467285156 611.722412109375L236.17791748046875 605.924560546875C236.0768280029297 605.1640625 236.00978088378906 604.3787841796875 235.9789581298828 603.5687866210938C235.92361450195312 602.6424560546875 235.91819763183594 601.7437133789062 235.95947265625 600.873046875V555.9423828125L235.88229370117188 550.7328491210938L235.87574768066406 550.2908935546875C235.87599182128906 550.2716064453125 235.87591552734375 550.2523193359375 235.87583923339844 550.2329711914062L235.87582397460938 550.2281494140625L235.87574768066406 550.2071533203125V537.543701171875L235.8757781982422 537.53125V537.5009155273438L235.87579345703125 537.4993286132812L235.8758087158203 537.4959106445312C235.87586975097656 537.4830322265625 235.87591552734375 537.471435546875 235.87574768066406 537.4599609375L235.8762664794922 537.4369506835938L235.89614868164062 536.5623168945312L235.95947265625 533.7760620117188V530.7546997070312C235.9571533203125 530.5630493164062 235.9568328857422 530.3701171875 235.95947265625 530.1758422851562L235.95950317382812 530.1697998046875C235.9596710205078 530.1438598632812 235.95982360839844 530.1179809570312 235.95947265625 530.0921020507812L235.96401977539062 529.8121948242188L236.03761291503906 525.2866821289062Q236.0382080078125 525.04296875 236.04319763183594 524.7965087890625L236.11370849609375 519.4900512695312C236.1057586669922 519.0269775390625 236.1100311279297 518.55615234375 236.12692260742188 518.0775146484375L236.258544921875 515.4451904296875C236.2635955810547 515.098876953125 236.27548217773438 514.748291015625 236.29437255859375 514.3936157226562L236.38316345214844 512.6177368164062C236.389892578125 512.156494140625 236.40899658203125 511.6879577636719 236.44088745117188 511.2120361328125L236.64215087890625 508.2601318359375C236.6539306640625 507.9700927734375 236.6705322265625 507.67724609375 236.6920623779297 507.381591796875L236.98983764648438 503.8083190917969C237.0004425048828 503.6329040527344 237.01280212402344 503.45648193359375 237.02696228027344 503.279052734375L237.39202880859375 498.11065673828125Q237.40631103515625 497.8807373046875 237.42466735839844 497.64849853515625L237.4510955810547 497.32867431640625L237.76145935058594 493.5732116699219L237.86900329589844 490.3737487792969L237.8010711669922 489.8846130371094C237.7173614501953 489.3726806640625 237.64752197265625 488.848876953125 237.5921173095703 488.3131103515625L237.58709716796875 488.2604675292969C237.56039428710938 488.0162658691406 237.5372772216797 487.7738342285156 237.5176544189453 487.533203125L237.40200805664062 486.3220520019531C237.20050048828125 485.12994384765625 237.08895874023438 483.8751220703125 237.0771942138672 482.55816650390625C237.01998901367188 481.24920654296875 237.06443786621094 479.9964599609375 237.20091247558594 478.8009338378906L237.24591064453125 477.720947265625L237.23277282714844 477.3367614746094L237.11068725585938 476.3822326660156C237.00396728515625 475.5207214355469 236.94070434570312 474.6809387207031 236.91839599609375 473.8631896972656L236.85951232910156 473.20068359375C236.82928466796875 472.7095642089844 236.81253051757812 472.226318359375 236.808837890625 471.7509765625L236.7860107421875 471.2486572265625C236.4508819580078 470.03363037109375 236.21119689941406 468.7422790527344 236.0789337158203 467.3746643066406C235.80661010742188 465.4237365722656 235.77767944335938 463.57623291015625 235.95947265625 461.8391418457031V456.981689453125C235.63568115234375 455.8153076171875 235.4237823486328 454.62567138671875 235.31729125976562 453.42755126953125C235.17616271972656 452.3161315917969 235.137451171875 451.2105407714844 235.1927490234375 450.11895751953125C235.1409149169922 448.64703369140625 235.21775817871094 447.2467041015625 235.40943908691406 445.9193420410156C234.90780639648438 445.1701965332031 234.46530151367188 444.4136962890625 234.07916259765625 443.6525573730469C233.89596557617188 443.45196533203125 233.71762084960938 443.2504577636719 233.5440673828125 443.04815673828125C232.7498016357422 442.3468322753906 231.97479248046875 441.5665588378906 231.2237091064453 440.7034606933594C230.71084594726562 440.26416015625 230.20713806152344 439.7917785644531 229.71401977539062 439.28533935546875C228.87718200683594 438.51019287109375 228.1258087158203 437.70989990234375 227.45582580566406 436.8896179199219C226.73231506347656 436.24932861328125 226.02696228027344 435.5424499511719 225.34361267089844 434.7659912109375C224.4217071533203 433.8059997558594 223.61888122558594 432.81768798828125 222.92816162109375 431.80908203125C222.57333374023438 431.3193664550781 222.22816467285156 430.806640625 221.89358520507812 430.27044677734375L221.40109252929688 429.4287109375C220.5433807373047 428.380859375 219.75184631347656 427.2075500488281 219.04034423828125 425.90289306640625C218.20562744140625 424.5260314941406 217.5489501953125 423.14697265625 217.0552520751953 421.7767639160156L216.51400756835938 420.8039855957031L215.25115966796875 418.7937316894531L213.0679473876953 415.7335205078125L211.17501831054688 413.37115478515625L208.33006286621094 409.9879455566406C207.95497131347656 409.5396728515625 207.601806640625 409.0889892578125 207.26998901367188 408.63641357421875L205.377197265625 406.34088134765625L203.69456481933594 404.4315185546875L202.87351989746094 403.6595764160156C202.53463745117188 403.38177490234375 202.19747924804688 403.0911865234375 201.86227416992188 402.78753662109375L199.75343322753906 400.8497009277344C199.19427490234375 400.3875732421875 198.6409454345703 399.8896484375 198.09461975097656 399.35479736328125L195.1642303466797 396.5081481933594C194.12203979492188 395.47802734375 193.2152862548828 394.4197998046875 192.435546875 393.342041015625L191.61322021484375 392.3523254394531L190.49365234375 391.15875244140625C190.33351135253906 391.00543212890625 190.1739959716797 390.84893798828125 190.01512145996094 390.689208984375L187.53662109375 388.1579895019531C187.302978515625 387.9287414550781 187.0710906982422 387.6923522949219 186.84109497070312 387.44866943359375C186.2623291015625 386.85333251953125 185.7275390625 386.2493591308594 185.2352752685547 385.6384582519531L184.29042053222656 384.554443359375C183.89447021484375 384.1307067871094 183.50633239746094 383.6841125488281 183.12681579589844 383.214111328125C182.2708282470703 382.1995849609375 181.52880859375 381.1708984375 180.89385986328125 380.1341857910156L180.04605102539062 378.9248962402344L178.0633087158203 376.476806640625C177.50015258789062 375.77691650390625 176.98899841308594 375.0723571777344 176.52767944335938 374.3648681640625L176.00244140625 373.6463317871094C175.38795471191406 372.9070739746094 174.7969207763672 372.1070556640625 174.2328643798828 371.2439880371094L172.09786987304688 367.8740234375C171.86508178710938 367.517822265625 171.64398193359375 367.1617431640625 171.434326171875 366.8059387207031L170.0484619140625 364.6617736816406L169.0623779296875 363.3228759765625C168.58706665039062 362.7286376953125 168.12615966796875 362.0970764160156 167.6813507080078 361.4271545410156L165.31610107421875 357.82696533203125C164.85675048828125 357.13043212890625 164.4423370361328 356.43408203125 164.07101440429688 355.73919677734375L162.05081176757812 352.4266662597656C161.6907501220703 351.8300476074219 161.36207580566406 351.23480224609375 161.0636749267578 350.6415710449219L159.26693725585938 347.3612976074219C159.10653686523438 347.06329345703125 158.95347595214844 346.7659912109375 158.80763244628906 346.469482421875L156.98541259765625 343.1959533691406C156.72259521484375 342.7154235839844 156.47903442382812 342.236572265625 156.2541961669922 341.7597351074219L154.87107849121094 339.2579040527344C154.6124725341797 338.8409729003906 154.36123657226562 338.4094543457031 154.11781311035156 337.9631042480469L152.1143341064453 334.2707214355469L151.4176788330078 333.29541015625C151.09922790527344 332.8462829589844 150.8004608154297 332.3965759277344 150.52081298828125 331.9466552734375C150.1831512451172 331.4888000488281 149.8539276123047 331.0105895996094 149.53384399414062 330.51153564453125L147.6500244140625 327.5811462402344C147.28976440429688 327.0166931152344 146.95838928222656 326.4527893066406 146.65492248535156 325.89007568359375L145.59640502929688 324.12908935546875L144.76083374023438 322.9010314941406C144.558837890625 322.6166076660156 144.360107421875 322.3245849609375 144.1648712158203 322.02496337890625C143.9031982421875 321.63421630859375 143.65599060058594 321.2433776855469 143.4229278564453 320.8525695800781C143.1363983154297 320.43896484375 142.8568115234375 320.0096740722656 142.5846405029297 319.5644226074219L141.9176788330078 318.42413330078125Q141.8848114013672 318.376953125 141.85203552246094 318.3294677734375L140.38671875 316.1315002441406L138.9364776611328 314.1079406738281C138.26605224609375 313.3005065917969 137.62461853027344 312.4201965332031 137.0168914794922 311.4639892578125L134.6968536376953 307.7554626464844C134.43333435058594 307.3579406738281 134.17665100097656 306.9463806152344 133.92724609375 306.5204772949219C133.66317749023438 306.08349609375 133.41615295410156 305.6468200683594 133.18585205078125 305.2109069824219L131.55380249023438 302.3169860839844C131.1354522705078 301.5594177246094 130.7653045654297 300.80584716796875 130.4412078857422 300.0574645996094L129.57220458984375 298.250244140625C128.97340393066406 297.1903991699219 128.43356323242188 296.0400695800781 127.96141815185547 294.7961120605469C127.72945404052734 294.2283935546875 127.52291870117188 293.6645202636719 127.34090423583984 293.1049499511719L125.72563171386719 288.6879577636719C125.70064544677734 288.6263122558594 125.67581939697266 288.5644226074219 125.65116119384766 288.5022888183594L122.80448913574219 281.4693298339844C122.47400665283203 280.6370849609375 122.19420623779297 279.8156433105469 121.96250915527344 279.0060119628906L119.93689727783203 273.6200866699219C119.74603271484375 273.09173583984375 119.57498168945312 272.5682678222656 119.423095703125 272.04986572265625L117.8856201171875 267.6336975097656C117.85348510742188 267.5401306152344 117.82196807861328 267.44671630859375 117.79105377197266 267.35345458984375L115.85548400878906 262.5859680175781C115.62155151367188 262.10791015625 115.39801788330078 261.61370849609375 115.18547821044922 261.1031188964844L112.29280853271484 253.96661376953125L109.13630676269531 247.3721466064453C108.98040008544922 247.0396728515625 108.8331069946289 246.70849609375 108.69424438476562 246.37867736816406L106.28964233398438 241.55322265625C106.14917755126953 241.27157592773438 106.01509094238281 240.99073791503906 105.88726806640625 240.71075439453125L103.78605651855469 236.67799377441406C103.49285888671875 236.17454528808594 103.2107925415039 235.65078735351562 102.94062042236328 235.10635375976562L101.22425079345703 231.67361450195312C101.03994750976562 231.3000030517578 100.86675262451172 230.92784118652344 100.70441436767578 230.5572052001953L100.07626342773438 229.3593292236328C100.01897430419922 229.25938415527344 99.96207427978516 229.15867614746094 99.90557861328125 229.05718994140625L96.4460220336914 222.88766479492188L95.2862548828125 221.2959747314453C95.05069732666016 221.0034637451172 94.81822204589844 220.70204162597656 94.58900451660156 220.3916015625L91.22367858886719 215.8677215576172C91.0716323852539 215.6695556640625 90.92121887207031 215.4674072265625 90.77249145507812 215.26121520996094L90.7585678100586 215.24249267578125C90.1231918334961 214.38116455078125 89.56148529052734 213.51641845703125 89.06967163085938 212.6510009765625L86.99092102050781 209.33984375L84.68846893310547 205.82337951660156L84.65665435791016 205.77313232421875L81.84180450439453 201.8254852294922C81.3117446899414 201.0751495361328 80.836181640625 200.3233184814453 80.41266632080078 199.5717010498047L79.5345458984375 198.2660675048828C79.23045349121094 197.8839874267578 78.93190002441406 197.4867401123047 78.6393051147461 197.07406616210938L76.59663391113281 194.0851593017578C76.11613464355469 193.46128845214844 75.65214538574219 192.7974395751953 75.20655822753906 192.09239196777344L72.59014129638672 188.0107879638672C72.25736236572266 187.48532104492188 71.94949340820312 186.96046447753906 71.66575622558594 186.43670654296875L71.4434814453125 186.08262634277344C71.33646392822266 185.93203735351562 71.23027801513672 185.7793731689453 71.12494659423828 185.62460327148438L68.98978424072266 182.36207580566406C68.65449523925781 181.88706970214844 68.32876586914062 181.3908233642578 68.01336669921875 180.8728790283203C67.7830810546875 180.50924682617188 67.56512451171875 180.14564514160156 67.35921478271484 179.78224182128906L65.47347259521484 176.64505004882812C65.05950164794922 175.93618774414062 64.68904876708984 175.22982788085938 64.36026763916016 174.52706909179688L64.00557708740234 173.8780517578125L62.626808166503906 171.80990600585938C62.55677795410156 171.7071075439453 62.48775100708008 171.60427856445312 62.419715881347656 171.50146484375L61.47080993652344 170.0882110595703L60.353111267089844 168.8427734375L60.23747253417969 168.7139129638672L60.0103874206543 168.46087646484375C59.68361282348633 168.08763122558594 59.3725700378418 167.71229553222656 59.076908111572266 167.33518981933594L58.126564025878906 166.1793670654297C58.03030014038086 166.0636749267578 57.935489654541016 165.9477996826172 57.84212112426758 165.83180236816406L57.14231872558594 165.0120391845703L56.846641540527344 164.68885803222656C56.18104553222656 164.1705780029297 55.52756881713867 163.59988403320312 54.88886642456055 162.97463989257812C53.877288818359375 162.06658935546875 52.98495864868164 161.12368774414062 52.20519256591797 160.15415954589844C51.38978958129883 159.30592346191406 50.612152099609375 158.3606719970703 49.880165100097656 157.313720703125C49.376426696777344 156.6634063720703 48.92005157470703 156.00599670410156 48.50914001464844 155.3433380126953C47.82831573486328 154.54039001464844 47.203956604003906 153.66665649414062 46.64556121826172 152.72128295898438C34.39811325073242 141.59469604492188 39.079254150390625 116.13862609863281 60.68899154663086 115.96589660644531C65.35276794433594 115.17951965332031 70.25028991699219 115.92071533203125 74.52873229980469 118.6784439086914C78.6809310913086 121.04288482666016 81.53636169433594 124.74586486816406 83.09501647949219 128.95130920410156Z" fill="black"/>
</svg>
